<?xml version="1.0" standalone="no"?>
<!DOCTYPE svg PUBLIC "-//W3C//DTD SVG 20010904//EN"
 "http://www.w3.org/TR/2001/REC-SVG-20010904/DTD/svg10.dtd">
<svg version="1.0" xmlns="http://www.w3.org/2000/svg"
 width="400.000000pt" height="400.000000pt" viewBox="0 0 400.000000 400.000000"
 preserveAspectRatio="xMidYMid meet">
<metadata>
Created by potrace 1.14, written by Peter Selinger 2001-2017
</metadata>
<g transform="translate(0.000000,400.000000) scale(0.100000,-0.100000)"
fill="#000000" stroke="none">
<path d="M1904 3469 c-118 -15 -187 -51 -351 -181 -70 -56 -130 -105 -133
-108 -3 -3 -21 -17 -42 -32 -20 -15 -42 -33 -50 -40 -7 -7 -202 -164 -433
-349 -231 -185 -435 -356 -454 -379 -55 -69 -97 -160 -119 -260 -11 -51 -4
-189 13 -246 71 -244 281 -408 520 -407 44 1 91 3 105 6 49 10 144 47 179 70
33 22 194 148 296 232 22 18 114 92 205 165 91 73 286 229 433 348 147 118
286 235 307 260 147 166 178 416 78 619 -102 209 -326 331 -554 302z m188
-161 c364 -123 387 -642 34 -804 -71 -32 -191 -43 -263 -24 -180 49 -305 199
-320 386 -24 303 267 537 549 442z m-1126 -872 c223 -59 360 -289 309 -516
-32 -144 -154 -271 -304 -319 -56 -18 -165 -13 -233 10 -249 84 -364 370 -244
607 88 174 290 267 472 218z"/>
<path d="M2931 2569 c-42 -11 -101 -36 -135 -57 -47 -30 -300 -228 -496 -389
-8 -7 -103 -83 -210 -168 -107 -86 -204 -164 -215 -173 -11 -9 -74 -60 -140
-112 -139 -110 -179 -148 -221 -210 -151 -220 -124 -525 62 -714 160 -162 412
-206 617 -107 37 18 151 102 287 211 124 100 241 194 260 210 58 47 324 260
340 273 26 20 114 91 135 108 11 9 58 47 105 84 168 134 223 204 265 338 79
248 -24 518 -245 650 -120 72 -271 92 -409 56z m243 -124 c83 -18 204 -109
252 -190 173 -296 -37 -668 -371 -657 -145 5 -291 97 -356 224 -128 250 3 552
271 624 44 12 148 12 204 -1z m-1056 -893 c77 -29 153 -91 201 -162 35 -54 48
-82 68 -160 9 -32 4 -148 -7 -190 -99 -369 -572 -438 -766 -113 -53 89 -73
219 -50 326 22 97 120 228 206 272 108 57 243 67 348 27z"/>
</g>
</svg>
