<?xml version="1.0" standalone="no"?>
<!DOCTYPE svg PUBLIC "-//W3C//DTD SVG 20010904//EN"
 "http://www.w3.org/TR/2001/REC-SVG-20010904/DTD/svg10.dtd">
<svg version="1.0" xmlns="http://www.w3.org/2000/svg"
 width="1060.000000pt" height="1060.000000pt" viewBox="0 0 1060.000000 1060.000000"
 preserveAspectRatio="xMidYMid meet">
<metadata>
Created by potrace 1.11, written by Peter Selinger 2001-2013
</metadata>
<g transform="translate(0.000000,1060.000000) scale(0.100000,-0.100000)"
fill="#000000" stroke="none">
<path d="M2849 9136 c-2 -2 -33 -6 -69 -9 -125 -11 -185 -17 -210 -22 -14 -2
-47 -7 -75 -11 -27 -3 -53 -8 -56 -10 -3 -2 -21 -6 -40 -9 -19 -3 -42 -8 -51
-11 -9 -3 -27 -7 -40 -9 -19 -4 -63 -14 -88 -20 -46 -12 -103 -29 -132 -40
-21 -8 -38 -12 -38 -9 0 4 -6 2 -12 -4 -7 -5 -35 -17 -63 -25 -94 -29 -318
-133 -440 -204 -73 -43 -188 -116 -195 -123 -3 -3 -27 -21 -55 -39 -27 -19
-52 -38 -55 -41 -3 -3 -23 -19 -45 -36 -105 -78 -318 -290 -410 -408 -30 -39
-56 -71 -75 -93 -26 -32 -180 -272 -180 -282 0 -6 -3 -11 -7 -11 -5 0 -13 -10
-19 -23 -6 -12 -38 -76 -72 -143 -81 -161 -193 -436 -216 -529 -1 -5 -13 -44
-25 -85 -13 -41 -24 -79 -25 -85 -1 -5 -5 -19 -9 -30 -3 -11 -8 -31 -11 -45
-2 -14 -9 -45 -16 -70 -7 -25 -14 -56 -16 -70 -4 -22 -8 -44 -29 -150 -11 -53
-27 -157 -30 -195 -1 -11 -5 -45 -9 -75 -27 -217 -31 -328 -31 -970 0 -559 4
-736 20 -854 2 -17 7 -56 10 -86 4 -30 9 -64 11 -75 1 -11 6 -42 8 -68 3 -26
8 -58 11 -70 5 -23 12 -62 21 -112 3 -16 12 -57 20 -90 8 -33 17 -71 20 -85 2
-14 9 -39 15 -56 5 -17 11 -40 13 -50 3 -10 9 -32 16 -49 6 -16 11 -32 11 -35
0 -10 11 -56 19 -75 4 -11 15 -42 25 -70 9 -27 19 -57 22 -65 3 -8 7 -19 8
-25 2 -5 26 -66 55 -135 63 -152 150 -326 222 -446 30 -49 61 -100 69 -113 7
-14 19 -32 26 -40 56 -73 110 -147 118 -161 6 -9 17 -23 25 -32 8 -8 40 -44
70 -79 66 -76 156 -166 246 -246 37 -32 73 -64 80 -71 8 -7 14 -10 14 -6 0 4
8 -2 18 -13 9 -11 55 -46 102 -78 47 -33 88 -64 92 -70 4 -5 8 -6 8 -2 0 4 15
-3 33 -16 17 -13 39 -27 47 -31 8 -3 31 -16 50 -28 75 -45 248 -127 355 -167
33 -13 69 -27 80 -31 31 -13 117 -40 144 -46 13 -3 32 -9 43 -15 10 -5 18 -8
18 -5 0 3 15 0 33 -5 36 -11 59 -17 101 -25 16 -2 33 -7 37 -10 4 -2 28 -6 53
-8 25 -2 49 -6 53 -9 5 -3 33 -8 63 -12 30 -3 69 -8 85 -10 102 -15 219 -20
440 -19 297 1 387 7 660 48 11 2 34 6 50 9 17 4 44 9 60 12 27 4 40 7 93 19
257 59 575 181 771 297 158 94 322 212 404 292 16 15 30 27 32 27 2 0 36 34
77 76 40 42 84 87 96 101 l24 24 20 -23 c75 -88 238 -243 302 -288 12 -8 27
-20 34 -26 19 -20 163 -119 202 -140 19 -10 37 -22 40 -25 9 -12 255 -136 305
-154 28 -10 55 -22 60 -25 22 -15 292 -103 385 -125 84 -20 218 -46 255 -50
11 -2 34 -5 50 -8 61 -12 192 -27 262 -31 40 -2 76 -6 80 -9 10 -7 562 0 628
7 28 3 66 8 85 11 19 3 58 8 85 11 28 4 54 9 59 12 5 3 23 6 40 7 17 1 41 5
52 9 12 3 35 9 50 11 65 10 240 59 246 69 4 6 8 8 8 4 0 -9 152 44 230 79 30
14 60 26 65 27 43 8 433 231 465 266 3 3 31 24 63 48 152 114 348 303 457 442
19 25 37 47 40 50 28 23 188 269 245 375 21 39 42 74 46 80 5 5 9 17 9 26 0
10 4 19 8 21 10 4 82 156 82 174 0 8 5 14 10 14 6 0 9 3 8 8 -2 4 6 27 16 52
11 25 20 47 20 50 1 3 7 19 13 35 22 53 36 90 38 95 1 3 12 37 24 75 44 137
92 314 115 430 9 44 18 91 21 105 8 38 26 151 30 185 2 17 6 53 10 80 3 28 8
64 10 80 15 110 20 303 20 855 0 638 -5 789 -32 975 -3 22 -7 58 -8 80 -2 22
-5 41 -6 43 -3 4 -5 14 -13 72 -4 30 -9 62 -11 70 -1 8 -8 42 -15 75 -6 33
-13 69 -15 80 -8 50 -40 175 -73 285 -9 30 -16 57 -17 60 -3 13 -17 57 -25 75
-5 11 -23 63 -41 115 -18 52 -45 123 -61 158 -15 34 -28 65 -28 68 0 12 -113
231 -166 321 -175 298 -388 554 -629 753 -49 41 -92 77 -95 80 -3 3 -12 10
-21 15 -56 35 -165 111 -167 118 -2 4 -8 7 -13 7 -6 0 -33 15 -62 33 -29 18
-90 53 -137 76 -47 24 -91 48 -97 53 -7 6 -13 7 -13 3 0 -4 -10 -1 -22 7 -13
8 -61 29 -108 47 -47 17 -94 36 -105 41 -25 11 -138 49 -162 54 -10 1 -25 6
-33 9 -24 9 -183 47 -220 53 -62 10 -75 12 -75 14 0 1 -13 3 -30 5 -51 6 -119
16 -145 21 -96 19 -641 26 -775 11 -34 -4 -83 -9 -110 -12 -89 -10 -186 -24
-205 -30 -8 -3 -32 -7 -54 -11 -54 -8 -66 -10 -111 -22 -22 -6 -51 -13 -65
-16 -14 -3 -47 -12 -75 -20 -27 -8 -68 -20 -90 -26 -22 -6 -47 -14 -55 -17 -8
-3 -19 -7 -25 -8 -11 -3 -109 -41 -140 -54 -11 -5 -38 -17 -60 -26 -76 -32
-220 -107 -300 -157 -44 -27 -89 -55 -100 -61 -11 -7 -22 -14 -25 -17 -3 -3
-43 -34 -90 -70 -112 -85 -203 -169 -326 -303 l-42 -45 -123 127 c-68 69 -144
142 -169 161 -25 19 -47 37 -50 40 -11 13 -196 143 -225 157 -16 9 -32 19 -35
22 -15 19 -243 130 -365 179 -193 77 -477 155 -645 176 -19 3 -35 5 -35 6 0 1
-13 3 -30 4 -34 3 -153 16 -205 23 -44 6 -566 13 -571 9z m376 -1050 c119 -7
240 -19 240 -25 0 -1 16 -4 35 -6 39 -5 51 -7 135 -30 84 -22 176 -55 203 -71
12 -8 22 -12 22 -8 0 8 154 -77 158 -87 2 -5 8 -9 13 -9 6 0 15 -4 22 -10 105
-84 139 -115 176 -156 132 -149 162 -171 253 -195 48 -12 1553 -17 1623 -5 98
17 165 66 265 196 55 71 135 145 209 194 38 25 73 46 78 46 5 0 15 6 22 13 6
6 15 12 19 13 8 1 33 11 89 35 23 11 50 20 60 22 10 1 23 5 28 8 17 10 55 19
179 43 92 18 131 23 246 33 172 14 468 4 600 -21 19 -3 46 -8 60 -10 14 -3 25
-5 25 -6 0 -1 9 -3 20 -4 60 -9 240 -63 320 -96 17 -7 35 -14 42 -16 35 -7
268 -136 316 -174 190 -152 232 -196 339 -355 107 -160 224 -418 273 -605 1
-3 5 -17 9 -31 4 -14 9 -32 10 -40 2 -8 6 -21 9 -29 18 -45 69 -333 83 -470 3
-30 7 -68 9 -85 11 -87 19 -270 19 -427 1 -98 5 -178 9 -178 5 0 5 -5 1 -12
-11 -17 -11 -171 0 -185 5 -7 5 -13 0 -13 -5 0 -9 -25 -9 -55 0 -30 4 -55 8
-55 5 0 5 -5 1 -12 -10 -16 -11 -78 -1 -78 5 0 5 -5 1 -11 -4 -6 -8 -111 -9
-233 -2 -121 -6 -248 -9 -281 -3 -33 -8 -91 -11 -130 -6 -80 -15 -171 -21
-200 -3 -11 -6 -36 -9 -55 -5 -42 -11 -78 -25 -145 -6 -27 -11 -57 -11 -65 -1
-8 -5 -28 -10 -45 -4 -16 -10 -41 -13 -55 -13 -67 -71 -262 -99 -330 -26 -64
-30 -75 -32 -86 -5 -21 -99 -209 -107 -212 -4 -2 -8 -8 -8 -14 0 -15 -122
-198 -132 -198 -4 0 -8 -5 -8 -11 0 -16 -140 -151 -217 -208 -37 -27 -73 -54
-78 -58 -52 -39 -270 -144 -370 -177 -239 -81 -434 -111 -705 -110 -120 1
-335 10 -335 14 0 2 -23 6 -85 16 -25 4 -52 9 -60 10 -8 2 -30 6 -47 9 -18 3
-35 6 -38 5 -3 0 -21 6 -40 14 -19 8 -35 13 -35 11 0 -3 -12 0 -27 6 -16 6
-35 12 -43 14 -22 5 -138 54 -185 77 -136 69 -294 201 -384 321 -48 64 -133
207 -123 207 4 0 2 4 -3 8 -12 8 -53 100 -80 177 -9 28 -21 59 -25 70 -13 32
-39 127 -46 165 -4 19 -11 41 -17 48 -5 6 -7 12 -4 12 4 0 -22 132 -33 168
-14 45 -60 97 -110 123 -20 10 -136 12 -549 10 -561 -2 -556 -2 -611 -53 -43
-41 -59 -78 -76 -173 -28 -162 -112 -428 -170 -537 -10 -18 -18 -35 -19 -38
-1 -10 -78 -137 -108 -178 -42 -58 -151 -170 -207 -214 -50 -39 -174 -117
-193 -121 -7 -1 -14 -5 -17 -8 -3 -3 -45 -22 -95 -42 -113 -45 -292 -91 -400
-102 -16 -2 -50 -6 -74 -10 -115 -15 -387 -21 -496 -11 -90 9 -300 42 -300 47
0 1 -9 3 -20 4 -84 13 -300 92 -429 159 -69 35 -189 109 -206 126 -3 3 -33 29
-67 57 -79 68 -143 131 -143 143 0 4 -3 10 -7 12 -16 7 -113 143 -113 158 0 6
-3 10 -8 10 -4 0 -15 17 -25 38 -9 20 -25 51 -35 67 -67 112 -167 395 -216
612 -36 158 -43 195 -61 343 -2 19 -4 35 -5 35 -4 0 -9 45 -15 119 -3 45 -8
104 -10 131 -3 28 -7 119 -10 203 -3 85 -7 158 -10 162 -3 5 -1 11 4 14 4 3 5
23 1 45 -4 22 -3 45 1 52 4 8 3 19 -2 25 -6 7 -6 14 -2 17 5 3 6 37 3 75 -3
39 -2 81 1 94 3 13 2 30 -2 39 -4 8 -4 21 0 27 4 7 5 33 1 57 -4 25 -4 45 0
45 4 0 4 20 0 44 -4 25 -3 51 2 60 5 8 4 17 -2 21 -6 4 -7 11 -4 17 8 13 8
134 -1 147 -3 6 -3 11 2 11 9 0 9 57 0 66 -4 4 -4 11 0 17 4 6 7 45 9 86 2 82
12 227 19 276 2 17 7 53 9 80 3 28 8 61 10 75 7 42 19 124 21 140 1 8 4 29 8
45 10 41 17 75 22 105 6 39 74 279 84 298 5 9 10 20 10 24 1 4 4 16 8 25 106
297 269 555 447 709 106 91 294 214 317 207 4 -1 13 4 19 12 7 8 16 15 20 15
4 0 29 10 56 22 27 12 51 23 54 23 3 1 17 7 31 13 15 6 46 16 70 22 24 7 49
15 54 18 6 4 15 7 20 8 49 10 60 13 60 14 0 2 5 3 103 24 41 9 78 14 83 10 5
-3 9 -1 9 3 0 5 15 10 33 12 17 1 48 4 67 7 19 2 89 7 155 10 66 4 121 7 123
9 1 1 12 1 25 -1 12 -2 67 -6 122 -8z"/>
<path d="M2773 6302 c-13 -2 -23 -8 -23 -13 0 -5 -5 -9 -11 -9 -19 0 -57 -47
-64 -80 -4 -17 -7 -133 -7 -258 -1 -245 -4 -264 -56 -309 -24 -20 -85 -40
-107 -34 -24 7 -67 7 -71 0 -2 -4 -20 -3 -39 1 -20 4 -38 4 -41 -1 -3 -5 -12
-6 -21 -1 -8 5 -32 6 -52 2 -21 -4 -47 -3 -59 1 -12 5 -24 4 -27 -1 -4 -7 -13
-7 -24 0 -10 5 -20 7 -23 5 -2 -3 -22 -6 -44 -8 -56 -5 -101 -32 -123 -75 -16
-31 -19 -61 -19 -197 -1 -201 4 -245 31 -276 50 -55 42 -54 321 -59 256 -5
262 -5 293 -29 56 -42 62 -74 62 -323 0 -123 2 -232 5 -243 2 -11 5 -23 5 -26
2 -14 57 -65 81 -75 33 -14 396 -11 431 4 23 9 77 63 80 80 2 6 7 224 8 317 1
17 0 57 -2 90 -3 66 12 123 43 162 11 14 20 23 20 20 0 -3 12 0 27 8 20 10 83
14 266 15 254 1 269 3 313 52 33 36 37 61 39 243 1 184 -5 227 -38 263 -21 22
-77 58 -77 48 0 -2 -15 0 -34 4 -19 4 -40 4 -46 0 -7 -4 -26 -4 -41 0 -16 5
-31 5 -34 0 -3 -4 -21 -4 -40 0 -20 4 -38 4 -41 -1 -3 -5 -12 -6 -21 -1 -8 5
-32 6 -53 2 -21 -4 -44 -4 -51 1 -7 4 -22 3 -35 -1 -12 -5 -24 -7 -25 -5 -2 2
-22 6 -44 9 -62 10 -110 52 -120 103 -2 10 -4 18 -5 18 -1 0 -2 44 -3 98 -1
53 2 97 7 97 5 0 4 6 -1 13 -7 9 -8 95 -2 162 4 38 -14 124 -29 144 -47 64
-56 66 -265 66 -106 0 -202 -1 -214 -3z"/>
<path d="M6815 5765 c-67 -14 -130 -41 -159 -67 -11 -10 -23 -18 -28 -18 -13
0 -97 -89 -122 -129 -87 -138 -95 -332 -19 -480 25 -50 41 -69 101 -126 147
-142 364 -171 552 -74 67 34 114 77 167 149 163 224 91 552 -151 691 -99 57
-229 77 -341 54z"/>
<path d="M8224 5760 c-91 -25 -151 -59 -218 -125 -155 -152 -188 -377 -84
-576 35 -67 133 -160 208 -195 84 -40 109 -46 199 -49 269 -8 481 195 496 475
0 14 -5 56 -12 94 -32 173 -149 307 -319 366 -78 27 -192 32 -270 10z"/>
</g>
</svg>
