<svg xmlns="http://www.w3.org/2000/svg" viewBox="0 0 64 64" class="ccsvg ccsvg--outline ccsvg--atari-jaguar"><path class="ccsvg__primary" d="M15.842 23.382a8.22 8.22 0 0 1-1.165-.083c-.123.012-.364-.086-.504-.244a.695.695 0 0 1-.171-.545l.018-1.31-1.45.07a.725.725 0 0 1-.785-.706 6.553 6.553 0 0 1 .003-2.126.663.663 0 0 1 .232-.472.741.741 0 0 1 .583-.186l1.433.029L14 16.5a.668.668 0 0 1 .174-.506.74.74 0 0 1 .556-.248 8.058 8.058 0 0 1 2.253 0 .73.73 0 0 1 .539.253.693.693 0 0 1 .164.552l-.037 1.257 1.402-.029a.71.71 0 0 1 .549.186.7.7 0 0 1 .236.521 6.602 6.602 0 0 1-.003 2.125c.003.15-.083.341-.234.475a.73.73 0 0 1-.584.18l-1.382-.024.056 1.297a.668.668 0 0 1-.167.51.741.741 0 0 1-.562.254c-.365.052-.74.079-1.117.079zm-1.755-2.896c.17 0 .355.076.492.214.146.149.214.35.188.553l-.018 1.309a8.022 8.022 0 0 0 2.13-.001l.018-1.338a.64.64 0 0 1 .19-.52.684.684 0 0 1 .595-.208l1.382.025c.13-.67.13-1.32.028-1.962h-1.435a.697.697 0 0 1-.57-.211.663.663 0 0 1-.186-.559l.037-1.302a8.081 8.081 0 0 0-2.156.006l-.012 1.347a.64.64 0 0 1-.192.512.697.697 0 0 1-.593.205l-1.431-.028a5.579 5.579 0 0 0-.026 1.963h1.492a.495.495 0 0 1 .067-.005zm3.56-2.644v.009c.003-.001.002-.004 0-.01zM32.181 8.13c2.614 0 7.654.342 10.176.692 1.175.163 1.81.477 1.996.698.413.489.97.782 1.565.824 3.798.27 16.271 2.815 17.3 24.195a23.729 23.729 0 0 1-.157 4.272c-.202 3.373-.567 6.178-1.054 8.112-1.038 4.122-2.58 7.426-2.956 8.2-.55.306-2.984.652-6.787.748a.767.767 0 0 1-.34-.084 2.272 2.272 0 0 0-.974-.215l-3.894.028a.745.745 0 0 1-.44-.146l-.391-.29a2.254 2.254 0 0 0-.904-.399.75.75 0 0 0-.145-.014H18.824a.75.75 0 0 0-.145.014 2.254 2.254 0 0 0-.904.4l-.39.29a.749.749 0 0 1-.447.145l-3.903-.028c-.33 0-.661.074-.984.227a.749.749 0 0 1-.332.071h-.002c-3.828-.096-6.274-.449-6.76-.731-.363-.745-1.92-4.067-2.964-8.216-.487-1.934-.852-4.74-1.054-8.112a23.73 23.73 0 0 1-.157-4.272C1.81 13.168 14.278 10.617 18.075 10.344a2.234 2.234 0 0 0 1.575-.838c.135-.164.519-.383 1.194-.505 2.814-.51 8.504-.856 11.184-.871h.153zM15.81 25c3.209 0 5.819-2.457 5.819-5.476 0-3.02-2.61-5.477-5.819-5.477s-5.819 2.457-5.819 5.477c0 3.02 2.61 5.476 5.819 5.476m16.1 1.955a1.46 1.46 0 0 0 1.165-.585l2.002-2.69a1.453 1.453 0 0 0-1.164-2.317c-.457 0-.892.218-1.165.584l-2.002 2.69a1.442 1.442 0 0 0-.271 1.077c.056.384.258.722.57.954.252.188.551.287.865.287m-4.75.002a1.46 1.46 0 0 0 1.165-.585l2.002-2.69a1.453 1.453 0 0 0-1.164-2.318 1.46 1.46 0 0 0-1.165.585l-2.002 2.69a1.442 1.442 0 0 0-.271 1.077c.056.383.258.722.57.954.252.187.551.287.865.287m3.304 10.748h3.22a1.504 1.504 0 0 0 0-3.007h-3.22a1.504 1.504 0 0 0 0 3.007m-7.936 0h3.22a1.504 1.504 0 0 0 0-3.007h-3.22a1.504 1.504 0 0 0 0 3.007m15.85.069h3.22c.828 0 1.503-.675 1.503-1.504s-.675-1.503-1.504-1.503h-3.22c-.828 0-1.503.674-1.503 1.503 0 .83.675 1.504 1.504 1.504m-7.914 5.107h3.22a1.504 1.504 0 0 0 0-3.007h-3.22a1.504 1.504 0 0 0 0 3.007m-7.936 0h3.22a1.504 1.504 0 0 0 0-3.007h-3.22a1.504 1.504 0 0 0 0 3.007m15.85.068h3.22c.828 0 1.503-.674 1.503-1.503 0-.83-.675-1.504-1.504-1.504h-3.22c-.828 0-1.503.675-1.503 1.504s.675 1.503 1.504 1.503m-8.04 5.107h3.22c.83 0 1.504-.675 1.504-1.504s-.675-1.503-1.504-1.503h-3.22c-.828 0-1.503.674-1.503 1.503 0 .83.675 1.504 1.504 1.504m-7.936 0h3.22c.828 0 1.503-.675 1.503-1.504s-.675-1.503-1.504-1.503h-3.22c-.828 0-1.503.674-1.503 1.503 0 .83.675 1.504 1.504 1.504m15.85.068h3.219a1.504 1.504 0 0 0 0-3.007h-3.22a1.504 1.504 0 0 0 0 3.007m-7.913 5.107h3.22c.828 0 1.503-.674 1.503-1.503 0-.83-.675-1.504-1.504-1.504h-3.22c-.828 0-1.503.675-1.503 1.504s.675 1.503 1.504 1.503m-7.936 0h3.22c.828 0 1.503-.674 1.503-1.503 0-.83-.675-1.504-1.504-1.504h-3.22c-.828 0-1.503.675-1.503 1.504s.675 1.503 1.504 1.503m15.85.069h3.219a1.504 1.504 0 0 0 0-3.007h-3.22a1.504 1.504 0 0 0 0 3.007M32.181 7.379h-.157c-2.837.017-8.522.378-11.314.884-.775.14-1.354.418-1.64.769a1.49 1.49 0 0 1-1.048.564c-3.53.254-16.92 2.683-17.99 24.907a24.35 24.35 0 0 0 .158 4.353c.155 2.584.463 5.819 1.076 8.25 1.096 4.355 2.764 7.847 3.042 8.412.002.012.01.022.016.033l.024.05c.68.797 5.927.983 7.35 1.019a1.482 1.482 0 0 0 .674-.143l.025-.012a1.49 1.49 0 0 1 .648-.143l3.888.028h.01c.32 0 .631-.103.888-.293l.391-.29a1.49 1.49 0 0 1 .602-.266h26.352c.218.043.424.134.602.266l.39.29a1.49 1.49 0 0 0 .9.293l3.887-.028h.01c.22 0 .439.049.638.143l.025.012a1.482 1.482 0 0 0 .674.143c1.423-.036 6.67-.222 7.35-1.02l.024-.049c.005-.011.014-.02.017-.033.277-.565 1.945-4.057 3.041-8.412.613-2.431.92-5.666 1.076-8.25.175-1.328.233-2.775.157-4.353-1.07-22.24-14.478-24.656-17.996-24.907-.415-.03-.777-.243-1.046-.56-.387-.459-1.293-.795-2.465-.957-2.54-.352-7.617-.7-10.28-.7zM15.81 24.251c-2.8 0-5.069-2.116-5.069-4.726s2.27-4.727 5.069-4.727c2.8 0 5.069 2.116 5.069 4.727s-2.27 4.726-5.069 4.726zm16.1 1.955a.701.701 0 0 1-.562-1.12l2.002-2.69a.7.7 0 1 1 1.125.838l-2.002 2.69a.7.7 0 0 1-.563.282zm-4.75.002a.701.701 0 0 1-.562-1.12l2.002-2.69a.7.7 0 1 1 1.125.838l-2.002 2.689a.7.7 0 0 1-.563.283zm3.304 10.748a.753.753 0 0 1 0-1.507h3.22a.753.753 0 1 1 0 1.507h-3.22zm-7.936 0a.753.753 0 1 1 0-1.507h3.22a.753.753 0 1 1 0 1.507h-3.22zm15.85.069a.753.753 0 1 1 0-1.507h3.22a.753.753 0 1 1 0 1.507h-3.22zm-7.914 5.107a.753.753 0 0 1 0-1.507h3.22a.753.753 0 1 1 0 1.507h-3.22zm-7.936 0a.753.753 0 1 1 0-1.507h3.22a.753.753 0 1 1 0 1.507h-3.22zm15.85.068a.753.753 0 1 1 0-1.507h3.22a.753.753 0 1 1 0 1.507h-3.22zm-8.04 5.107a.753.753 0 1 1 0-1.507h3.22a.753.753 0 1 1 0 1.507h-3.22zm-7.935 0a.753.753 0 1 1 0-1.507h3.22a.753.753 0 1 1 0 1.507h-3.22zm15.85.068a.753.753 0 1 1 0-1.507h3.219a.753.753 0 1 1 0 1.507h-3.22zm-7.914 5.107a.753.753 0 1 1 0-1.507h3.22a.753.753 0 1 1 0 1.507h-3.22zm-7.936 0a.753.753 0 1 1 0-1.507h3.22a.753.753 0 1 1 0 1.507h-3.22zm15.85.069a.753.753 0 1 1 0-1.507h3.219a.753.753 0 1 1 0 1.507h-3.22zm6.125-22.501c-.074 0-.149-.005-.222-.01-.056-.005-.112-.01-.167-.01 0 0-2.731 0-4.323-.026-.836-.015-1.383-.46-1.541-1.252a2.247 2.247 0 0 1 .275-1.567l1.663-2.857c.936-1.466 2.215-.83 2.83-.522.079.039.151.075.215.103.85.378 1.536.745 2.484 1.254l.402.215c1.248.668.797 1.651.627 2.021l-.353-.128.34.157c-.162.354-.185.398-.659 1.301l-.118.226c-.487.93-.981 1.095-1.453 1.095zm-2.818-5.902c-.31 0-.59.154-.856.57l-1.655 2.844c-.19.327-.257.697-.188 1.043.087.44.34.641.818.649 1.587.026 4.31.026 4.31.026.074 0 .15.006.226.012.333.026.57.044.952-.685l.118-.226c.461-.879.484-.921.642-1.266l.012-.028c.204-.443.286-.735-.298-1.047l-.404-.217c-.934-.5-1.61-.862-2.433-1.228a5.225 5.225 0 0 1-.244-.118c-.373-.185-.7-.329-1-.329zm4.708 3.123h.01-.01zm1.171-2.23c-.473 0-.884-.2-1.079-.296-.575-.266-2.362-1.1-3.43-1.703-.475-.269-.756-.618-.835-1.04-.121-.64.285-1.161.332-1.219l1.427-1.821c.614-.908 1.751-.656 2.266-.395.108.052 2.796 1.359 3.62 1.838.519.301.714.847.552 1.538-.07.293-.197.573-.38.832-.224.32-.707.996-1.231 1.658-.399.465-.843.608-1.242.608zm-2.323-5.967c-.236 0-.485.076-.657.33l-1.446 1.848c-.005.006-.24.31-.181.615.038.193.195.368.468.523 1.043.589 2.805 1.41 3.321 1.648.516.252 1.032.442 1.48-.082.504-.637.977-1.298 1.198-1.612.128-.182.216-.374.263-.573.125-.53-.11-.666-.198-.717-.8-.465-3.55-1.802-3.579-1.816-.024-.011-.334-.164-.669-.164zm6.243 1.043a2.16 2.16 0 0 1-.963-.24l-3.315-1.491a1.817 1.817 0 0 1-.22-.118c-.628-.402-.873-.997-.675-1.635.076-.251.223-.492.425-.695l1.313-1.315a.98.98 0 0 0 .096-.106c.567-.755 1.504-.682 2.195-.365.862.359 2.837 1.19 3.547 1.602.517.3.714.848.551 1.538-.067.289-.195.57-.38.833-.163.234-.384.466-.72.815-.161.17-.352.37-.58.614-.38.409-.834.563-1.274.563zm-2.12-5.436c-.227 0-.456.069-.62.287-.05.065-.106.127-.164.185l-1.312 1.314a.962.962 0 0 0-.24.386c-.062.199-.09.493.36.78.04.026.085.05.129.07l3.263 1.469c.27.135.93.408 1.43-.128.23-.248.423-.45.587-.621.31-.326.516-.541.648-.729.13-.184.217-.377.263-.573.125-.53-.11-.667-.198-.719-.69-.4-2.785-1.277-3.41-1.536-.127-.057-.43-.185-.737-.185z"/></svg>