<svg xmlns="http://www.w3.org/2000/svg" viewBox="0 0 64 64" class="ccsvg ccsvg--outline ccsvg--atari-2600"><path class="ccsvg__primary" d="M32.136 58.009c-.407 0-.82-.011-1.226-.033l.057-1.088c.782.042 1.578.041 2.36 0l.058 1.087c-.413.022-.834.034-1.249.034zm-3.688-.296a22.811 22.811 0 0 1-2.42-.53l.29-1.05c.755.21 1.53.379 2.304.504l-.174 1.076zm7.4-.004-.176-1.075a21.979 21.979 0 0 0 2.303-.506l.291 1.05c-.792.22-1.606.398-2.419.531zM23.68 56.395a22.85 22.85 0 0 1-2.249-1.04l.51-.963c.694.368 1.414.7 2.142.99l-.403 1.013zm16.933-.009-.404-1.012c.727-.29 1.447-.623 2.14-.992l.511.962c-.727.387-1.484.738-2.247 1.042zm-21.304-2.31a23.077 23.077 0 0 1-1.972-1.498l.706-.83c.598.507 1.23.988 1.878 1.427l-.612.902zm25.671-.01-.612-.902c.648-.44 1.28-.921 1.876-1.429l.706.83a23.083 23.083 0 0 1-1.97 1.5zm-29.441-3.19a23.069 23.069 0 0 1-1.605-1.885l.866-.661c.475.623.99 1.227 1.529 1.796l-.79.75zm33.208-.015-.79-.749a22.122 22.122 0 0 0 1.527-1.797l.867.66a23.075 23.075 0 0 1-1.604 1.886zm-36.206-3.918a22.898 22.898 0 0 1-1.164-2.185l.988-.459c.33.71.703 1.41 1.108 2.081l-.932.563zm39.201-.018-.933-.562c.406-.672.778-1.373 1.107-2.083l.988.457a22.89 22.89 0 0 1-1.162 2.188zm-41.284-4.467a22.798 22.798 0 0 1-.664-2.386l1.064-.234c.169.765.381 1.53.632 2.271l-1.032.349zm43.364-.022-1.033-.348c.25-.742.462-1.507.63-2.273l1.064.233a22.79 22.79 0 0 1-.661 2.388zM9.394 37.628a23.246 23.246 0 0 1-.134-2.472l1.089-.001c0 .786.044 1.579.128 2.355l-1.083.118zm45.487-.024-1.083-.116c.083-.778.125-1.57.125-2.356v-.047h1.09v.047c0 .824-.045 1.656-.132 2.472zm-44.409-4.805-1.083-.115c.087-.82.22-1.642.395-2.445l1.065.232a21.83 21.83 0 0 0-.377 2.328zm43.32-.068a21.826 21.826 0 0 0-.383-2.327l1.064-.235c.177.802.313 1.624.403 2.443l-1.083.119zm-42.316-4.534-1.033-.346c.262-.78.57-1.555.915-2.303l.989.457a21.71 21.71 0 0 0-.871 2.192zm41.299-.064a21.727 21.727 0 0 0-.878-2.189l.988-.46c.347.747.658 1.52.922 2.3l-1.032.349zM13.451 23.92l-.934-.561c.424-.705.892-1.395 1.39-2.05l.867.658c-.474.625-.92 1.282-1.323 1.953zm37.336-.056a21.91 21.91 0 0 0-1.329-1.948l.866-.662c.5.654.969 1.342 1.395 2.046l-.932.564zM16.3 20.168l-.791-.748a23.072 23.072 0 0 1 1.795-1.706l.707.83a22 22 0 0 0-1.71 1.624zm31.627-.047a22.018 22.018 0 0 0-1.715-1.62l.704-.83a23.109 23.109 0 0 1 1.8 1.7l-.789.75zm-28.042-3.008-.613-.9c.68-.464 1.393-.895 2.119-1.282l.512.961c-.691.369-1.37.78-2.018 1.22zm24.448-.037a21.84 21.84 0 0 0-2.023-1.215l.51-.963a22.95 22.95 0 0 1 2.123 1.276l-.61.902zm-20.291-2.178-.405-1.011a22.761 22.761 0 0 1 2.346-.794l.292 1.049c-.754.21-1.506.464-2.233.756zm16.126-.025a21.72 21.72 0 0 0-2.236-.75l.289-1.05c.793.219 1.584.484 2.35.787l-.403 1.013zm-11.59-1.24-.177-1.074a23.03 23.03 0 0 1 2.462-.269l.06 1.088a21.86 21.86 0 0 0-2.345.256zm7.05-.01a21.971 21.971 0 0 0-2.346-.249l.056-1.088c.823.043 1.652.13 2.463.261l-.174 1.076zM59.587.75a3.665 3.665 0 0 1 3.662 3.661V59.59a3.666 3.666 0 0 1-3.661 3.661H4.41a3.666 3.666 0 0 1-3.66-3.662V4.41A3.665 3.665 0 0 1 4.411.75H59.59M10.358 21.963a25.186 25.186 0 0 0-3.619 13.033c0 13.928 11.332 25.26 25.261 25.26s25.26-11.332 25.26-25.26S45.93 9.736 32 9.736a25.22 25.22 0 0 0-7.797 1.227l-6.257-6.256a8.726 8.726 0 0 0-6.21-2.573 8.727 8.727 0 0 0-6.212 2.573 8.727 8.727 0 0 0-2.573 6.211c0 2.346.914 4.552 2.573 6.211l4.834 4.834M11.71 5.788a5.111 5.111 0 0 1 5.105 5.106c0 2.815-2.29 5.105-5.105 5.105s-5.106-2.29-5.106-5.105a5.111 5.111 0 0 1 5.106-5.106zm20.425 13.753c8.597 0 15.59 6.994 15.59 15.59 0 8.598-6.993 15.591-15.59 15.591s-15.59-6.994-15.59-15.59c0-8.597 6.994-15.59 15.59-15.59m0 29.548c7.697 0 13.959-6.261 13.959-13.958s-6.262-13.959-13.959-13.959-13.958 6.262-13.958 13.959S24.439 49.09 32.136 49.09m2.581-20.184c.577 0 1.114.31 1.402.81l2.582 4.47c.288.5.288 1.12 0 1.62l-2.582 4.47c-.288.5-.825.81-1.402.81h-5.162c-.577 0-1.114-.31-1.402-.81l-2.581-4.47a1.624 1.624 0 0 1 0-1.62l2.58-4.47c.29-.5.826-.81 1.403-.81h5.162zM59.59 0H4.41A4.411 4.411 0 0 0 0 4.411V59.59A4.411 4.411 0 0 0 4.411 64H59.59A4.411 4.411 0 0 0 64 59.589V4.41A4.411 4.411 0 0 0 59.589 0zM32 59.506c-13.537 0-24.51-10.973-24.51-24.51 0-4.836 1.4-9.345 3.818-13.143l-5.254-5.254A8.034 8.034 0 1 1 17.416 5.237L24 11.822a24.474 24.474 0 0 1 8-1.337c13.537 0 24.51 10.974 24.51 24.51S45.538 59.507 32 59.507zM11.71 5.038a5.855 5.855 0 1 0 0 11.71 5.855 5.855 0 0 0 0-11.71zm20.426 13.753c-9.024 0-16.34 7.316-16.34 16.34 0 9.025 7.316 16.341 16.34 16.341s16.34-7.316 16.34-16.34c0-9.025-7.315-16.34-16.34-16.34zm0 29.55c-7.295 0-13.208-5.914-13.208-13.21 0-7.294 5.913-13.208 13.208-13.208s13.209 5.914 13.209 13.209S39.43 48.34 32.136 48.34zm2.581-20.185h-5.162a2.37 2.37 0 0 0-2.052 1.185l-2.58 4.47a2.37 2.37 0 0 0 0 2.37l2.58 4.47a2.37 2.37 0 0 0 2.052 1.184h5.162a2.37 2.37 0 0 0 2.052-1.184l2.581-4.47a2.37 2.37 0 0 0 0-2.37l-2.581-4.47a2.37 2.37 0 0 0-2.052-1.185z"/></svg>