<svg xmlns="http://www.w3.org/2000/svg" viewBox="0 0 64 64" class="ccsvg ccsvg--outline ccsvg--dreamcast"><path class="ccsvg__primary" d="M32.005.75a22.19 22.19 0 0 1 17.938 9.176l.168.232.28.062a72.11 72.11 0 0 1 8.392 2.247.95.95 0 0 1 .385.317 16.942 16.942 0 0 1 .911 1.936c1.586 3.954 2.04 9.942 1.385 18.307a97.25 97.25 0 0 1-2.167 15.287 54.09 54.09 0 0 1-2.972 9.3c-.1.191-.228.446-.376.743a28.368 28.368 0 0 1-2.535 4.4 1.32 1.32 0 0 1-.647.465 46.89 46.89 0 0 0-1.869-6.946l-.093-.236c-.572-1.467-1.025-1.87-4.16-2.461a109.822 109.822 0 0 0-12.977-1.682 36.13 36.13 0 0 0-1.668-.05c-.568 0-1.136.025-1.668.05a109.813 109.813 0 0 0-12.972 1.681c-3.14.592-3.593.995-4.165 2.462l-.093.236a46.885 46.885 0 0 0-1.869 6.946 1.32 1.32 0 0 1-.647-.465 28.372 28.372 0 0 1-2.535-4.4 55.024 55.024 0 0 0-.376-.743 54.09 54.09 0 0 1-2.972-9.3 97.249 97.249 0 0 1-2.167-15.287c-.654-8.365-.201-14.353 1.385-18.307a16.945 16.945 0 0 1 .91-1.936.95.95 0 0 1 .386-.317 72.128 72.128 0 0 1 8.393-2.247l.28-.062.167-.232A22.193 22.193 0 0 1 32.005.75m0-.75a22.843 22.843 0 0 0-18.556 9.487s-6.895 1.514-8.554 2.302a1.685 1.685 0 0 0-.7.6 17.445 17.445 0 0 0-.97 2.052c-.941 2.346-2.327 7.262-1.437 18.644A98.765 98.765 0 0 0 3.97 48.472a54.117 54.117 0 0 0 3.04 9.49 36.028 36.028 0 0 0 2.997 5.271 1.841 1.841 0 0 0 1.435.767 1.241 1.241 0 0 0 .416-.064 50.92 50.92 0 0 1 1.94-7.38c.528-1.318.44-1.626 3.7-2.241a108.198 108.198 0 0 1 12.869-1.67A35.413 35.413 0 0 1 32 52.598c.539 0 1.082.023 1.633.049a108.198 108.198 0 0 1 12.868 1.669c3.261.615 3.173.923 3.701 2.24a50.92 50.92 0 0 1 1.94 7.381 1.242 1.242 0 0 0 .416.064 1.841 1.841 0 0 0 1.435-.767 36.025 36.025 0 0 0 2.997-5.272 54.118 54.118 0 0 0 3.04-9.489 98.768 98.768 0 0 0 2.182-15.387c.89-11.382-.496-16.298-1.437-18.644a17.445 17.445 0 0 0-.97-2.053 1.685 1.685 0 0 0-.7-.599c-1.66-.788-8.554-2.302-8.554-2.302A22.837 22.837 0 0 0 32.005 0ZM9.203 25.168a4.944 4.944 0 1 1 4.958-4.943 4.957 4.957 0 0 1-4.958 4.943Zm0-9.138a4.194 4.194 0 1 0 4.208 4.195 4.206 4.206 0 0 0-4.208-4.195Zm3.583 24.382c-.895 0-1.962-.128-1.962-.737v-2.952H7.861c-.61 0-.738-1.065-.738-1.957s.128-1.956.738-1.956h2.963v-2.954c0-.609 1.067-.737 1.962-.737s1.961.128 1.961.737v2.954h2.964c.61 0 .738 1.063.738 1.956s-.128 1.957-.738 1.957h-2.964v2.952c0 .61-1.066.737-1.96.737Zm-1.212-.894a4.016 4.016 0 0 0 1.212.144 4.008 4.008 0 0 0 1.211-.144v-3.545h3.558a3.985 3.985 0 0 0 .144-1.207 4.11 4.11 0 0 0-.144-1.206h-3.558v-3.546a4.008 4.008 0 0 0-1.21-.145 4.016 4.016 0 0 0-1.213.145v3.546H8.018a5.108 5.108 0 0 0 0 2.413h3.556ZM32 49.474a33.09 33.09 0 0 1-2.82-.121.547.547 0 0 1-.425-.82 31.935 31.935 0 0 1 2.651-4.578l.138-.198a.574.574 0 0 1 .928.024l.122.174a32.209 32.209 0 0 1 2.667 4.607.524.524 0 0 1-.002.497.545.545 0 0 1-.439.294c-.935.08-1.878.12-2.82.12Zm2.583-.594a.31.31 0 0 0 .016.031Zm-5.16-.013-.006.015Zm.115-.238a32.385 32.385 0 0 0 4.925 0A31.804 31.804 0 0 0 32 44.414a31.632 31.632 0 0 0-2.462 4.215Zm2.303-4.444.009.013Zm.334-.025-.017.025a.214.214 0 0 0 .017-.025Zm3.723-18.992h-7.796a3.383 3.383 0 0 1-3.384-3.375V15.36a3.383 3.383 0 0 1 3.384-3.375h7.796a3.383 3.383 0 0 1 3.384 3.375v6.433a3.383 3.383 0 0 1-3.384 3.375Zm-7.796-12.433a2.633 2.633 0 0 0-2.634 2.625v6.433a2.633 2.633 0 0 0 2.634 2.625h7.796a2.633 2.633 0 0 0 2.634-2.625V15.36a2.633 2.633 0 0 0-2.634-2.625Zm18.671 16.146a2.896 2.896 0 1 1 2.904-2.896 2.903 2.903 0 0 1-2.904 2.896Zm0-5.042a2.146 2.146 0 1 0 2.154 2.146 2.152 2.152 0 0 0-2.154-2.146Zm5.488 10.379a2.896 2.896 0 1 1 2.903-2.896 2.903 2.903 0 0 1-2.903 2.896Zm0-5.041a2.146 2.146 0 1 0 2.153 2.145 2.153 2.153 0 0 0-2.153-2.145Zm0-5.634a2.896 2.896 0 1 1 2.903-2.896 2.903 2.903 0 0 1-2.903 2.896Zm0-5.041a2.146 2.146 0 1 0 2.153 2.145 2.153 2.153 0 0 0-2.153-2.145Zm5.486 10.379a2.896 2.896 0 1 1 2.903-2.896 2.903 2.903 0 0 1-2.903 2.896Zm0-5.042a2.146 2.146 0 1 0 2.153 2.146 2.152 2.152 0 0 0-2.153-2.146Z"/></svg>