<svg xmlns="http://www.w3.org/2000/svg" viewBox="0 0 64 64" class="ccsvg ccsvg--outline ccsvg--gamecube"><path class="ccsvg__primary" d="M12.25 18.661a5.488 5.488 0 0 0-5.402 5.423 5.401 5.401 0 1 0 5.402-5.423Zm0 10.088a4.641 4.641 0 0 1-3.27-7.946 4.597 4.597 0 0 1 3.27-1.392 4.669 4.669 0 0 1 0 9.338Zm11.445 5.527a.547.547 0 0 0-.547-.547h-2.65a.552.552 0 0 0-.553.552v2.094h-2.089a.549.549 0 0 0-.547.548v2.669a.547.547 0 0 0 .546.547h2.09v2.097a.548.548 0 0 0 .547.548h2.66a.549.549 0 0 0 .547-.548V40.14h2.09a.548.548 0 0 0 .547-.547v-2.666a.551.551 0 0 0-.55-.551h-2.09Zm1.89 2.849v2.264h-2.089a.547.547 0 0 0-.547.547v2.098h-2.254v-2.097a.549.549 0 0 0-.548-.548H18.06v-2.264h2.09a.547.547 0 0 0 .546-.547V34.48h2.25v2.098a.548.548 0 0 0 .547.548Zm6.354-14.56a1.892 1.892 0 1 0 1.887 1.893 1.89 1.89 0 0 0-1.887-1.893Zm0 3.035a1.142 1.142 0 1 1 1.137-1.142A1.14 1.14 0 0 1 31.94 25.6Zm12.044 4.917a2.915 2.915 0 0 0 .688-.083 2.776 2.776 0 0 0 2.021-2.024 2.808 2.808 0 0 0-3.404-3.418 2.775 2.775 0 0 0-2.02 2.024 2.819 2.819 0 0 0 .737 2.682 2.785 2.785 0 0 0 1.978.819Zm-1.987-3.324a2.046 2.046 0 0 1 1.47-1.472 2.17 2.17 0 0 1 .509-.062 2.038 2.038 0 0 1 1.449.599 2.075 2.075 0 0 1 .54 1.974 2.044 2.044 0 0 1-3.429.936 2.077 2.077 0 0 1-.539-1.975Zm-.447 6.236a4.934 4.934 0 0 0-2.696 8.36 4.869 4.869 0 0 0 3.467 1.439 5.226 5.226 0 0 0 .777-.06 4.93 4.93 0 0 0-1.548-9.74Zm4.887 5.542h-.001a4.166 4.166 0 1 1-4.773-4.8 4.363 4.363 0 0 1 .663-.052 4.128 4.128 0 0 1 2.939 1.219 4.18 4.18 0 0 1 1.172 3.633Zm1.07-19.032h.04a2.3 2.3 0 0 0 1.148-.351 3.821 3.821 0 0 1 .72-.32c.115-.035.224-.072.331-.109.168-.057.331-.114.515-.158a7.514 7.514 0 0 1 1.028-.1 1.994 1.994 0 0 0 1.95-1.977 1.962 1.962 0 0 0-.8-1.592 4.789 4.789 0 0 0-3.979-.4 5.798 5.798 0 0 0-2.466 1.758 1.998 1.998 0 0 0-.373 1.872 1.937 1.937 0 0 0 1.886 1.377Zm-.925-2.784a5.062 5.062 0 0 1 2.129-1.516 4.002 4.002 0 0 1 1.309-.203 3.51 3.51 0 0 1 1.964.492 1.227 1.227 0 0 1 .504.996 1.252 1.252 0 0 1-1.234 1.227 8.543 8.543 0 0 0-1.166.12c-.21.05-.396.114-.585.178-.1.035-.201.07-.31.104a4.525 4.525 0 0 0-.853.375 1.566 1.566 0 0 1-.807.261 1.203 1.203 0 0 1-1.193-.842 1.249 1.249 0 0 1 .242-1.192Zm4.105 2.813a4.123 4.123 0 0 0-2.256 6.983 4.07 4.07 0 0 0 2.9 1.203 4.28 4.28 0 0 0 .648-.049 4.12 4.12 0 0 0-1.292-8.137Zm3.959 4.61a3.357 3.357 0 1 1-3.846-3.868 3.506 3.506 0 0 1 .531-.041 3.326 3.326 0 0 1 2.371.982 3.37 3.37 0 0 1 .944 2.927Zm4.11-5.5a1.962 1.962 0 0 0-1.553-.444 2.017 2.017 0 0 0-1.684 2.074 2.33 2.33 0 0 0 .347 1.082 3.972 3.972 0 0 1 .319.719c.034.112.07.218.106.322.058.172.115.339.16.531a7.599 7.599 0 0 1 .1 1.028 1.995 1.995 0 0 0 1.972 1.958 1.974 1.974 0 0 0 1.588-.81 4.817 4.817 0 0 0 .399-3.985 5.876 5.876 0 0 0-1.754-2.476Zm.764 6-.011.013a1.22 1.22 0 0 1-.985.507 1.254 1.254 0 0 1-1.223-1.244 8.501 8.501 0 0 0-.12-1.163c-.05-.217-.114-.407-.18-.601-.033-.098-.067-.196-.1-.305a4.674 4.674 0 0 0-.374-.848 1.625 1.625 0 0 1-.258-.764 1.252 1.252 0 0 1 1.036-1.297 1.49 1.49 0 0 1 .182-.012 1.232 1.232 0 0 1 .802.3 5.14 5.14 0 0 1 1.514 2.138 4.176 4.176 0 0 1-.283 3.275Zm3.963 6.425s-.428-4.233-.59-6.534a11.267 11.267 0 0 0-4.917-10.72.362.362 0 0 0-.028-.105 7.936 7.936 0 0 0-3.284-3.246 6.275 6.275 0 0 0-4.91-.257A52.35 52.35 0 0 0 32 7.861a52.418 52.418 0 0 0-17.727 2.769 6.285 6.285 0 0 0-4.88.268 7.775 7.775 0 0 0-3.346 3.362.364.364 0 0 0-.015.063 11.348 11.348 0 0 0-4.882 9.33c0 .124.015.245.019.368-.002.032-.009.063-.01.095-.08 1.852-.641 7.387-.641 7.387-.932 7.02-.531 17.048.602 20.791 1.132 3.743 3.863 3.81 3.863 3.81a3.14 3.14 0 0 0 .461.034c5.145 0 5.465-13.483 5.987-15.803a5.003 5.003 0 0 1 .294-.912.746.746 0 0 1 .687-.456.706.706 0 0 1 .642.403l.123.249a9.858 9.858 0 0 1 .509 1.345 8.486 8.486 0 0 0 7.988 5.78 8.295 8.295 0 0 0 2.6-.42 7.943 7.943 0 0 0 5.412-6.504 8.132 8.132 0 0 0-2.358-7.01 15.086 15.086 0 0 1-1.316-1.442 2.082 2.082 0 0 1-.554-1.196.572.572 0 0 1 .277-.495 22.22 22.22 0 0 1 6.265-.66 22.167 22.167 0 0 1 6.261.66.592.592 0 0 1 .278.536 2.116 2.116 0 0 1-.55 1.155 15.087 15.087 0 0 1-1.317 1.442 8.132 8.132 0 0 0-2.358 7.01 7.944 7.944 0 0 0 5.413 6.504 8.296 8.296 0 0 0 2.6.42 8.485 8.485 0 0 0 7.987-5.78 9.858 9.858 0 0 1 .51-1.345l.122-.249a.706.706 0 0 1 .642-.403.746.746 0 0 1 .688.456 5.007 5.007 0 0 1 .294.912c.521 2.32.842 15.803 5.986 15.803a3.134 3.134 0 0 0 .461-.035s2.73-.066 3.864-3.809c1.132-3.743 1.533-13.772.601-20.79Zm-9.173-19.9a7.111 7.111 0 0 1 2.204 1.802 11.317 11.317 0 0 0-2.928-.944 20.696 20.696 0 0 0-2.649-1.345 5.777 5.777 0 0 1 3.373.488Zm-44.562 0a5.764 5.764 0 0 1 3.329-.493 20.608 20.608 0 0 0-2.704 1.376 11.304 11.304 0 0 0-2.875.97 7.19 7.19 0 0 1 2.25-1.852Zm52.416 40.474c-.95 3.135-3.082 3.273-3.164 3.277a.746.746 0 0 0-.092.008 2.368 2.368 0 0 1-.351.026c-3.52 0-4.515-9.009-4.94-12.856-.122-1.098-.21-1.891-.314-2.36a5.767 5.767 0 0 0-.339-1.048 1.502 1.502 0 0 0-1.375-.907 1.459 1.459 0 0 0-1.315.821l-.122.25a10.53 10.53 0 0 0-.55 1.445 7.703 7.703 0 0 1-7.275 5.262 7.557 7.557 0 0 1-2.365-.384 7.222 7.222 0 0 1-4.904-5.896 7.364 7.364 0 0 1 2.14-6.37 15.624 15.624 0 0 0 1.38-1.513 2.828 2.828 0 0 0 .709-1.552 1.34 1.34 0 0 0-.624-1.237l-.001.002c-.76-.449-4.06-.778-6.661-.778-2.6 0-5.895.328-6.66.775l-.002-.002a1.318 1.318 0 0 0-.628 1.182 2.8 2.8 0 0 0 .713 1.61 15.615 15.615 0 0 0 1.38 1.514 7.364 7.364 0 0 1 2.14 6.368 7.222 7.222 0 0 1-4.904 5.897 7.556 7.556 0 0 1-2.365.383 7.703 7.703 0 0 1-7.274-5.26 10.525 10.525 0 0 0-.55-1.447l-.123-.249a1.459 1.459 0 0 0-1.315-.821 1.502 1.502 0 0 0-1.375.907 5.764 5.764 0 0 0-.338 1.047c-.106.47-.193 1.263-.315 2.361-.424 3.847-1.419 12.856-4.94 12.856a2.403 2.403 0 0 1-.351-.026.949.949 0 0 0-.084-.008c-.09-.004-2.223-.142-3.172-3.277C.8 48.651.312 38.753 1.264 31.579c.023-.227.564-5.578.643-7.41.003-.02.01-.088.01-.11a.739.739 0 0 0 .001-.062 4.898 4.898 0 0 0-.01-.182c-.004-.054-.008-.107-.008-.162a10.632 10.632 0 0 1 8.614-10.43.75.75 0 0 0 .252-.098C15.35 10.299 23.289 8.612 32 8.612c8.68 0 16.602 1.678 21.194 4.488a.749.749 0 0 0 .26.1 10.563 10.563 0 0 1 8.693 11.683.749.749 0 0 0-.003.139c.16 2.286.588 6.515.595 6.58.949 7.151.46 17.049-.576 20.475Z"/></svg>