<svg xmlns="http://www.w3.org/2000/svg" viewBox="0 0 64 64" class="ccsvg ccsvg--outline ccsvg--joy-con-r"><path class="ccsvg__primary" d="M36.521 14.821a2.808 2.808 0 1 0-2.826-2.806 2.82 2.82 0 0 0 2.826 2.806Zm0-4.866a2.058 2.058 0 1 1-2.076 2.06 2.071 2.071 0 0 1 2.076-2.06Zm-2.826 11.46a2.827 2.827 0 1 0 2.826-2.81 2.82 2.82 0 0 0-2.826 2.81Zm4.905 0a2.077 2.077 0 1 1-2.079-2.06 2.07 2.07 0 0 1 2.079 2.06ZM30.13 9.051a.375.375 0 0 0 .375-.375v-.599h.606a.375.375 0 0 0 .375-.375V6.406a.375.375 0 0 0-.375-.375h-.606v-.596a.375.375 0 0 0-.375-.375h-1.304a.375.375 0 0 0-.375.375v.596h-.606a.375.375 0 0 0-.375.375v1.297a.375.375 0 0 0 .375.375h.606v.599a.375.375 0 0 0 .375.375Zm-1.91-1.724v-.547h.606a.375.375 0 0 0 .375-.375V5.81h.554v.596a.375.375 0 0 0 .375.375h.606v.547h-.606a.375.375 0 0 0-.375.375v.599H29.2v-.599a.375.375 0 0 0-.375-.375Zm3.391 12.23a2.806 2.806 0 1 0-2.814-2.805 2.823 2.823 0 0 0 2.814 2.806Zm0-4.862a2.056 2.056 0 1 1-2.064 2.057 2.073 2.073 0 0 1 2.064-2.057Zm.64 28.627a2.9 2.9 0 1 0 2.924 2.896 2.914 2.914 0 0 0-2.923-2.896Zm.001 5.05a2.15 2.15 0 1 1 2.173-2.154 2.168 2.168 0 0 1-2.173 2.153Zm4.271-19.595a5.44 5.44 0 1 0 5.484 5.44 5.47 5.47 0 0 0-5.484-5.44Zm0 10.128a4.69 4.69 0 1 1 4.734-4.687 4.717 4.717 0 0 1-4.734 4.687Zm4.903-24.96a2.806 2.806 0 1 0 2.826 2.807 2.82 2.82 0 0 0-2.826-2.807Zm0 4.863a2.056 2.056 0 1 1 2.076-2.056 2.068 2.068 0 0 1-2.076 2.056Zm5.786-4.18c0-.41-.023-.815-.062-1.215a13.565 13.565 0 0 0-.826-3.584h.002l.012.001h.004a1.2 1.2 0 0 0 .338-1.442A14.837 14.837 0 0 0 33.335 0h-3.342a1.283 1.283 0 0 0-1.084.642.399.399 0 0 1-.368.234H25.845a7.678 7.678 0 0 0-7.642 7.68v4.29a.416.416 0 0 1-.416.416 1 1 0 0 0-1 1v6.745a1 1 0 0 0 1 1 .416.416 0 0 1 .416.416v15.66a.416.416 0 0 1-.416.415 1 1 0 0 0-1 1v6.745a1 1 0 0 0 1 1 .416.416 0 0 1 .416.416v7.68a7.286 7.286 0 0 0 2.582 5.552 7.815 7.815 0 0 0 3.061 1.766c.105 0 .16-.038.16-.114v-.985c0-.695.44-1.324 1.61-1.514a.623.623 0 0 1 .084-.004c.068 0 .145.004.145.004v2.893A1.063 1.063 0 0 0 26.908 64h6.427a13.822 13.822 0 0 0 13.878-13.763V14.638ZM33.335.75a14.082 14.082 0 0 1 12.668 7.962.659.659 0 0 1-.01.406A14.323 14.323 0 0 0 33.055.87h-3.378a.627.627 0 0 1 .316-.121ZM25.7 59.29a1.398 1.398 0 0 0-.205.014 2.321 2.321 0 0 0-2.24 2.254v.097a13.554 13.554 0 0 1-2.006-1.352 6.594 6.594 0 0 1-2.297-4.964v-7.68a1.167 1.167 0 0 0-1.166-1.166.25.25 0 0 1-.25-.25v-6.745a.25.25 0 0 1 .25-.25 1.167 1.167 0 0 0 1.166-1.166v-15.66a1.167 1.167 0 0 0-1.166-1.165.25.25 0 0 1-.25-.25v-6.745a.25.25 0 0 1 .25-.25 1.167 1.167 0 0 0 1.166-1.166v-4.29a6.932 6.932 0 0 1 6.892-6.93v57.668a3.343 3.343 0 0 0-.144-.004Zm20.762-33.389v24.336A13.085 13.085 0 0 1 33.335 63.25h-6.427a.313.313 0 0 1-.313-.313V1.626h1.946c.013 0 .024-.005.037-.005h4.477a13.557 13.557 0 0 1 12.638 8.711l.102.27a12.781 12.781 0 0 1 .609 2.885c.039.4.058.774.059 1.152Z"/></svg>