<svg xmlns="http://www.w3.org/2000/svg" viewBox="0 0 64 64" class="ccsvg ccsvg--outline ccsvg--joy-con-l"><path class="ccsvg__primary" d="M46.213 22.007a1 1 0 0 0 1-1v-6.745a1 1 0 0 0-1-1 .416.416 0 0 1-.416-.416v-4.29a7.678 7.678 0 0 0-7.642-7.68H35.46a.399.399 0 0 1-.368-.234A1.283 1.283 0 0 0 34.007 0h-3.342A14.837 14.837 0 0 0 17.32 8.39a1.2 1.2 0 0 0 .338 1.44l.004.001.012-.002h.002a13.565 13.565 0 0 0-.826 3.585c-.04.4-.062.805-.062 1.216v35.607A13.822 13.822 0 0 0 30.664 64h6.427a1.063 1.063 0 0 0 1.063-1.063v-2.893s.077-.004.144-.004a.623.623 0 0 1 .085.004c1.17.19 1.61.82 1.61 1.514v.985c0 .076.055.114.16.114a7.815 7.815 0 0 0 3.06-1.766 7.286 7.286 0 0 0 2.583-5.552v-7.68a.416.416 0 0 1 .416-.416 1 1 0 0 0 1-1v-6.745a1 1 0 0 0-1-1 .416.416 0 0 1-.416-.416v-15.66a.416.416 0 0 1 .416-.415ZM17.997 8.712A14.082 14.082 0 0 1 30.665.75h3.342a.633.633 0 0 1 .318.121h-3.38a14.323 14.323 0 0 0-12.938 8.247.659.659 0 0 1-.01-.406ZM37.092 63.25h-6.427a13.085 13.085 0 0 1-13.128-13.013V14.63c.001-.37.02-.743.06-1.15a12.757 12.757 0 0 1 .608-2.877l.102-.27A13.557 13.557 0 0 1 30.945 1.62h4.477c.013 0 .024.005.037.005h1.946v61.311a.313.313 0 0 1-.313.313Zm9.12-24.002a.25.25 0 0 1 .25.25v6.745a.25.25 0 0 1-.25.25 1.167 1.167 0 0 0-1.165 1.166v7.705a6.589 6.589 0 0 1-2.297 4.939 13.779 13.779 0 0 1-2.007 1.354v-.1a2.321 2.321 0 0 0-2.239-2.253 1.396 1.396 0 0 0-.204-.014c-.058 0-.11.002-.145.004V1.626a6.933 6.933 0 0 1 6.892 6.93v4.29a1.167 1.167 0 0 0 1.166 1.166.25.25 0 0 1 .25.25v6.745a.25.25 0 0 1-.25.25 1.167 1.167 0 0 0-1.166 1.166v15.66a1.167 1.167 0 0 0 1.166 1.165Zm-18.74-17.01a5.466 5.466 0 1 0-5.505-5.464 5.49 5.49 0 0 0 5.505 5.464Zm0-10.182a4.716 4.716 0 1 1-4.755 4.718 4.742 4.742 0 0 1 4.755-4.718ZM25.305 33.63a2.801 2.801 0 0 0-2.037-2.052 2.856 2.856 0 0 0-2.726.735 2.812 2.812 0 0 0 1.276 4.722 2.99 2.99 0 0 0 .727.09 2.828 2.828 0 0 0 2.76-3.495Zm-1.285 2.142a2.121 2.121 0 0 1-2.02.536v-.001a2.068 2.068 0 0 1 .55-4.067 2.21 2.21 0 0 1 .538.067 2.06 2.06 0 0 1 .932 3.465Zm4.178-8.955a2.888 2.888 0 0 0-2.485.516 2.797 2.797 0 0 0-1.08 2.214 2.837 2.837 0 1 0 5.573-.769 2.798 2.798 0 0 0-2.008-1.96Zm.938 3.978a2.092 2.092 0 0 1-3.752-1.248 2.049 2.049 0 0 1 .79-1.623 2.098 2.098 0 0 1 1.303-.444 2.249 2.249 0 0 1 .542.066 2.037 2.037 0 0 1 1.462 1.428 2.08 2.08 0 0 1-.345 1.82Zm1.174 8.195a2.837 2.837 0 1 0-5.57.774 2.801 2.801 0 0 0 2.001 1.954 3.061 3.061 0 0 0 .729.09 2.842 2.842 0 0 0 1.759-.603 2.794 2.794 0 0 0 1.08-2.215Zm-1.543 1.624a2.119 2.119 0 0 1-1.844.375 2.038 2.038 0 0 1-1.46-1.423 2.086 2.086 0 1 1 4.096-.576 2.048 2.048 0 0 1-.792 1.624Zm4.428 3.302h-2.89a.883.883 0 0 0-.882.882v2.847a.883.883 0 0 0 .882.882h2.89a.883.883 0 0 0 .882-.882V44.8a.883.883 0 0 0-.882-.882Zm.132 3.73a.133.133 0 0 1-.132.131h-2.89a.133.133 0 0 1-.132-.132V44.8a.133.133 0 0 1 .132-.132h2.89a.133.133 0 0 1 .132.132Zm-.93-16.157a2.831 2.831 0 0 0-2.837 2.819 2.797 2.797 0 0 0 1.079 2.213 2.846 2.846 0 0 0 1.76.604 3.021 3.021 0 0 0 .725-.089 2.82 2.82 0 0 0-.728-5.547Zm2.01 3.392a2.036 2.036 0 0 1-1.463 1.427 2.132 2.132 0 0 1-1.842-.377 2.05 2.05 0 0 1-.792-1.623 2.087 2.087 0 1 1 4.097.573Zm-1.903-26.79h4.036V6.036h-4.036Zm.75-1.306h2.536v.556h-2.536Z"/></svg>