<svg xmlns="http://www.w3.org/2000/svg" viewBox="0 0 64 64" class="ccsvg ccsvg--outline ccsvg--joy-cons"><path class="ccsvg__primary" d="M14.731 25.044a4.062 4.062 0 1 1 4.09-4.06 4.08 4.08 0 0 1-4.09 4.06Zm0-7.374a3.312 3.312 0 1 0 3.34 3.313 3.331 3.331 0 0 0-3.34-3.313Zm-3.567 18.156a2.231 2.231 0 0 1-.552-.07 2.138 2.138 0 0 1-.973-3.59 2.18 2.18 0 0 1 2.073-.56 2.138 2.138 0 0 1 .974 3.597 2.156 2.156 0 0 1-1.522.623Zm.004-3.537a1.4 1.4 0 0 0-1.371 1.738 1.394 1.394 0 0 0 .997 1.002v.001a1.441 1.441 0 0 0 1.365-.361 1.389 1.389 0 0 0-.627-2.335 1.512 1.512 0 0 0-.364-.045Zm3.563.089a2.153 2.153 0 0 1-2.158-2.144 2.13 2.13 0 0 1 .822-1.685 2.188 2.188 0 0 1 1.887-.392 2.145 2.145 0 0 1-.55 4.22Zm.003-3.538a1.411 1.411 0 0 0-.877.299 1.382 1.382 0 0 0-.534 1.095 1.411 1.411 0 0 0 2.531.841 1.387 1.387 0 0 0 .233-1.23 1.367 1.367 0 0 0-.985-.96 1.545 1.545 0 0 0-.368-.045Zm-.005 10.377a2.324 2.324 0 0 1-.551-.068h-.001a2.158 2.158 0 1 1 1.89-.39 2.163 2.163 0 0 1-1.338.458Zm-.372-.796a1.435 1.435 0 0 0 1.248-.253 1.381 1.381 0 0 0 .535-1.095 1.408 1.408 0 1 0-2.764.39 1.371 1.371 0 0 0 .981.958Zm4.52 5.663h-2.094a.743.743 0 0 1-.742-.742v-2.063a.743.743 0 0 1 .742-.742h2.094a.743.743 0 0 1 .742.742v2.063a.743.743 0 0 1-.742.742Zm-.008-2.805-2.086.008.008 2.055 2.078-.008Zm-.57-5.453a2.165 2.165 0 0 1-1.338-.459 2.13 2.13 0 0 1-.821-1.685 2.159 2.159 0 1 1 4.239.584 2.134 2.134 0 0 1-1.53 1.493 2.314 2.314 0 0 1-.55.067Zm-.001-3.538a1.403 1.403 0 0 0-1.408 1.394 1.381 1.381 0 0 0 .534 1.094 1.44 1.44 0 0 0 1.246.254 1.37 1.37 0 0 0 .984-.96 1.384 1.384 0 0 0-.233-1.23 1.404 1.404 0 0 0-1.123-.552Zm1.719 1.88Zm1.01-19.744h-2.38v-.946h2.38Zm28.265 5.248a2.137 2.137 0 1 1 2.151-2.136 2.146 2.146 0 0 1-2.151 2.136Zm0-3.525a1.387 1.387 0 1 0 1.401 1.39 1.396 1.396 0 0 0-1.401-1.39Zm0 10.332a2.137 2.137 0 1 1 2.151-2.135 2.146 2.146 0 0 1-2.151 2.135Zm0-3.523a1.387 1.387 0 1 0 1.401 1.388 1.395 1.395 0 0 0-1.401-1.388Zm-6.284-8.542v-.94h.71v-.703h.946v.703h.71v.94h-.71v.705h-.945v-.705Zm2.728 8.69a2.136 2.136 0 1 1 2.156-2.136 2.141 2.141 0 0 1-2.156 2.136Zm0-3.522a1.386 1.386 0 1 0 1.406 1.386 1.39 1.39 0 0 0-1.406-1.386Zm.464 24.932a2.203 2.203 0 1 1 2.22-2.206 2.217 2.217 0 0 1-2.22 2.206Zm0-3.657a1.453 1.453 0 1 0 1.47 1.45 1.464 1.464 0 0 0-1.47-1.45Zm3.094-3.199a4.043 4.043 0 1 1 4.075-4.04 4.064 4.064 0 0 1-4.075 4.04Zm0-7.335a3.293 3.293 0 1 0 3.325 3.294 3.314 3.314 0 0 0-3.325-3.294Zm3.55-7.22a2.136 2.136 0 1 1 2.15-2.135 2.146 2.146 0 0 1-2.15 2.136Zm0-3.521a1.386 1.386 0 1 0 1.4 1.386 1.395 1.395 0 0 0-1.4-1.386Zm8.99 12.304c-1.92-10.184-4.853-14.385-5.062-14.675a10.048 10.048 0 0 0-.385-1.267h.01-.003a.87.87 0 0 0 .244-1.044 10.745 10.745 0 0 0-9.664-6.075h-2.42c-.351 0-.822.284-.822.634h-1.683a.5.5 0 0 0-.5.5v1.222a1.646 1.646 0 0 1-1.453-1.333.499.499 0 0 0-.484-.389H24.398a.499.499 0 0 0-.483.39 1.648 1.648 0 0 1-1.446 1.33V9.96a.5.5 0 0 0-.5-.5H20.279c0-.35-.471-.634-.822-.634h-2.42A10.745 10.745 0 0 0 7.372 14.9a.87.87 0 0 0 .245 1.044h.013-.003.003a10.033 10.033 0 0 0-.386 1.271l-.002-.024c-.124.17-3.127 4.352-5.076 14.695C.175 42.45-.6 46.101.506 49.032c.78 2.064 2.655 4.977 5.356 4.977a5.715 5.715 0 0 0 3.826-1.824c.027-.026.05-.054.077-.08l-.003-.033c.017.018.037.033.054.051.17.174.347.338.528.498.062.056.123.115.187.17.185.156.38.302.576.446.07.05.137.105.209.155.193.133.394.255.597.375.083.049.163.102.248.15.194.107.396.202.598.296.1.048.198.1.301.144.19.082.386.15.582.22.12.043.24.093.363.132.183.057.373.1.56.148.141.036.279.078.422.108.188.039.381.062.573.09.147.021.291.051.44.066.278.029.561.039.846.044.064.002.126.01.19.01H46.98a10.238 10.238 0 0 0 1.05-.054l.04-.007q.501-.053.986-.154l.018-.005a10.049 10.049 0 0 0 5.162-2.863v.013c.026.026.049.054.076.08a5.716 5.716 0 0 0 3.826 1.824c2.702 0 4.577-2.913 5.356-4.977 1.106-2.931.332-6.582-1.66-17.146ZM9.158 51.652a5.046 5.046 0 0 1-3.296 1.607c-2.184 0-3.872-2.42-4.654-4.492-.978-2.592-.327-6.038 1.413-15.25l.282-1.492a46.562 46.562 0 0 1 4.11-12.991c-.005.129-.019.256-.02.386v25.788a9.877 9.877 0 0 0 2.294 6.337.76.76 0 0 0-.129.107Zm7.886 2.773a9.299 9.299 0 0 1-5.08-1.506c-.044-.029-.09-.053-.133-.083-.157-.105-.304-.222-.454-.336-.1-.077-.202-.15-.299-.23-.113-.094-.219-.196-.327-.295-.122-.112-.245-.222-.361-.34a9.14 9.14 0 0 1-2.646-6.427V19.42c0-.26.014-.525.042-.814a9.102 9.102 0 0 1 .553-2.398 9.336 9.336 0 0 1 8.705-6l3.234.001h1.434v.972c0 .012.006.023.007.035v43.21Zm24.505 0h-19.08V11.93a2.35 2.35 0 0 0 2.123-1.72h14.827a2.349 2.349 0 0 0 2.13 1.72h.006v42.495Zm.756 0V10.21h4.675a9.335 9.335 0 0 1 8.696 5.98c.002.006 0 .013.003.02a9.329 9.329 0 0 1 .352 1.158c.003.011.011.02.014.03a8.942 8.942 0 0 1 .194 1.215c.028.283.041.548.041.815v25.78a9.135 9.135 0 0 1-2.578 6.354l-.006.003a9.464 9.464 0 0 1-1.437 1.223l-.003.003a9.257 9.257 0 0 1-.693.429c-.038.021-.074.047-.113.068-.19.104-.388.194-.585.284-.086.04-.167.086-.255.122-.14.06-.287.106-.432.159-.145.053-.287.112-.435.158l-.036.01a9.309 9.309 0 0 1-1.297.285c-.162.025-.32.056-.484.073-.108.01-.22.01-.33.016-.207.014-.413.031-.622.031Zm20.487-5.658c-.782 2.072-2.47 4.492-4.654 4.492a5.024 5.024 0 0 1-3.276-1.589c-.033-.049-.091-.074-.135-.114a9.877 9.877 0 0 0 2.304-6.348V19.42c0-.112-.013-.22-.018-.33a46.791 46.791 0 0 1 4.084 12.935l.282 1.49c1.74 9.213 2.391 12.66 1.413 15.252ZM56.4 15.944h-.003Z"/></svg>