<svg xmlns="http://www.w3.org/2000/svg" viewBox="0 0 64 64" class="ccsvg ccsvg--outline ccsvg--master-system"><path class="ccsvg__primary" d="M49.2 31.4v8.5H41v-8.5h8.2m.7-.8h-9.7v10h9.7v-10zm-.7-1.6v.3H41V29h8.2m.7-.7h-9.7v1.8h9.7v-1.8zm-29.5-3.9c2.1 0 3.8 1.8 3.8 4v7.2c0 2.2-1.7 4-3.8 4h-7c-2.1 0-3.8-1.8-3.8-4v-7.2c0-2.2 1.7-4 3.8-4h7zm0-.8h-7c-2.5 0-4.6 2.1-4.6 4.7v7.2c0 2.6 2.1 4.7 4.6 4.7h7c2.5 0 4.6-2.1 4.6-4.7v-7.2c0-2.5-2-4.7-4.6-4.7zm-7.1 7.8c.7 0 .7 1.1 0 1.1h-1.6c-.7 0-.7-1.1 0-1.1h1.6m0-.7h-1.6c-1.7 0-1.7 2.6 0 2.6h1.6c1.7-.1 1.7-2.6 0-2.6zm3.6 4.5c.3 0 .5.2.5.5v1.6c0 .3-.2.5-.5.5s-.5-.2-.5-.5v-1.6c0-.3.2-.5.5-.5m0-.8c-.7 0-1.3.6-1.3 1.3v1.6c0 .7.6 1.3 1.3 1.3.7 0 1.3-.6 1.3-1.3v-1.6c0-.7-.6-1.3-1.3-1.3zm0-8.4c.3 0 .5.2.5.5v1.6c0 .3-.2.5-.5.5s-.5-.2-.5-.5v-1.6c0-.2.2-.5.5-.5zm0-.7c-.7 0-1.3.6-1.3 1.3v1.6c0 .7.6 1.3 1.3 1.3.7 0 1.3-.6 1.3-1.3v-1.6c0-.8-.6-1.3-1.3-1.3zm5.2 6.1c.7 0 .7 1.1 0 1.1h-1.6c-.7 0-.7-1.1 0-1.1h1.6m0-.7h-1.6c-1.7 0-1.7 2.6 0 2.6h1.6c1.7-.1 1.7-2.6 0-2.6zm37.8.7v8.5h-8.2v-8.5h8.2zm.8-.8H51v10h9.7v-10zm-.8-1.6v.3h-8.2V29h8.2m.8-.7H51v1.8h9.7v-1.8zM7.2 42.5l2-2c.1-.1.1-.4 0-.5-.1-.1-.4-.1-.5 0l-2 2c-.4.3.2.9.5.5zm20.3 0c.1-.1.1-.4 0-.5l-2-2c-.1-.1-.4-.1-.5 0-.1.1-.1.4 0 .5l2 2c.1.1.3.1.5 0zM9.3 24.3c.1-.1.1-.4 0-.5l-2-2c-.1-.1-.4-.1-.5 0-.1.1-.1.4 0 .5l2 2c.1.1.3.1.5 0zm16.2 0 2-2c.1-.1.1-.4 0-.5-.1-.1-.4-.1-.5 0l-2 2c-.4.3.1.8.5.5zm37.8-4.5v6.3c-.2-.1-.3-.1-.5-.1h-33v-5.8c0-.2 0-.3-.1-.4h33.6M4 19.8v24.4H.7V19.7H4zm59.3 22v2.5H29.8c.1-.3.1-2.1.1-2.4h33c.1 0 .2-.1.4-.1m0-22.8H.7c-.4 0-.7.3-.7.8v24.5c0 .4.3.7.7.7h62.5c.4 0 .7-.3.7-.8V19.8c.1-.5-.2-.8-.6-.8zM5.1 44.2c-.2 0-.4-.2-.4-.4V20.2c0-.2.2-.4.4-.4h23.6c.2 0 .4.2.4.4v6.1c0 .2.2.4.4.4h33.3c.2 0 .4.2.4.4v13.5c0 .2-.2.4-.4.4H29.5c-.2 0-.4.2-.4.4v2.3c0 .2-.2.4-.4.4H5.1v.1zm40-10.9c3 .1 3 4.5 0 4.6-3-.1-3-4.5 0-4.6m0-.7c-4 .1-4 6 0 6.1 4-.2 4-6 0-6.1zm10.7.7c3 .1 3 4.5 0 4.6-3-.1-3-4.5 0-4.6m0-.7c-4 .1-4 6 0 6.1 4-.2 4-6 0-6.1z"/></svg>