<svg xmlns="http://www.w3.org/2000/svg" viewBox="0 0 64 64" class="ccsvg ccsvg--outline ccsvg--mega-drive"><path class="ccsvg__primary" d="M14.251 24.645c3.358 0 6.08 2.763 6.08 6.171 0 3.405-2.722 6.171-6.08 6.171-3.355 0-6.075-2.766-6.075-6.17 0-3.41 2.72-6.172 6.075-6.172m0-.75c-3.763 0-6.825 3.105-6.825 6.921 0 3.817 3.062 6.921 6.825 6.921 3.766 0 6.83-3.104 6.83-6.92 0-3.817-3.064-6.922-6.83-6.922zm1.036 12.187h-2.155a.622.622 0 0 1-.62-.625v-2.904h-2.83a.621.621 0 0 1-.619-.623v-2.198a.62.62 0 0 1 .62-.619h2.83v-2.94c0-.344.277-.623.619-.623h2.159c.342 0 .62.28.62.623v2.944h2.915a.62.62 0 0 1 .617.62v2.197a.621.621 0 0 1-.617.623h-2.92v2.9a.622.622 0 0 1-.619.625zm-2.024-.75h1.893V32.43c0-.344.278-.623.62-.623h2.917v-1.94H15.78a.62.62 0 0 1-.619-.619V26.3h-1.897v2.944a.62.62 0 0 1-.62.62h-2.83v1.939h2.83c.342 0 .62.279.62.623v2.906zm.988-13.92c5.095 0 9.24 4.217 9.24 9.4 0 5.182-4.145 9.398-9.24 9.398-5.092 0-9.236-4.216-9.236-9.398 0-5.183 4.144-9.4 9.236-9.4m0-.75c-5.514 0-9.986 4.549-9.986 10.15 0 5.603 4.472 10.148 9.986 10.148 5.517 0 9.99-4.545 9.99-10.148 0-5.605-4.473-10.15-9.99-10.15zm29.121 3.405a1.115 1.115 0 0 1-1.02-.673 1.132 1.132 0 0 1 .597-1.48l4.126-1.81a1.113 1.113 0 0 1 1.48 1.44 1.14 1.14 0 0 1-.607.615l-4.123 1.813a1.14 1.14 0 0 1-.453.095zm4.155-3.308c-.05 0-.101.01-.15.032l-4.129 1.81a.386.386 0 0 0-.204.504.362.362 0 0 0 .479.18l4.125-1.814a.389.389 0 0 0 .213-.211.363.363 0 0 0-.334-.501zM43.17 37.625c-1.66 0-3.01-1.37-3.01-3.055 0-1.682 1.35-3.05 3.01-3.05s3.01 1.368 3.01 3.05c0 1.685-1.35 3.055-3.01 3.055zm0-5.355c-1.246 0-2.26 1.032-2.26 2.3 0 1.27 1.014 2.305 2.26 2.305s2.26-1.034 2.26-2.305c0-1.268-1.014-2.3-2.26-2.3zm6.476 1.833c-1.66 0-3.011-1.369-3.011-3.05 0-1.684 1.35-3.053 3.011-3.053 1.66 0 3.011 1.37 3.011 3.053 0 1.681-1.35 3.05-3.01 3.05zm0-5.353c-1.247 0-2.261 1.033-2.261 2.303 0 1.268 1.014 2.3 2.261 2.3s2.261-1.032 2.261-2.3c0-1.27-1.014-2.303-2.26-2.303zm6.68 2.701c-1.661 0-3.012-1.368-3.012-3.05s1.351-3.052 3.011-3.052c1.656 0 3.004 1.369 3.004 3.051s-1.348 3.051-3.004 3.051zm0-5.352c-1.247 0-2.262 1.032-2.262 2.301 0 1.269 1.015 2.301 2.261 2.301 1.243 0 2.254-1.032 2.254-2.3 0-1.27-1.01-2.302-2.254-2.302zM42.951 40.74c-.97 0-1.947-.277-2.832-.83a5.98 5.98 0 0 1-2.79-5.395c.23-3.222 1.868-4.532 4.137-6.345.265-.213.543-.434.829-.668 1.571-1.281 3.37-2.348 5.064-3.002a19.615 19.615 0 0 1 2.065-.772c2.597-.874 4.888-1.213 5.924-1.177h.015c2.317-.174 4.587 1.11 5.78 3.277 1.141 2.072 1.027 4.366-.306 6.138-.932 1.518-2.587 2.133-4.188 2.725-.465.173-.925.343-1.356.536l-.01.003c-.1.042-.23.101-.385.171l-1.704.776c-1.708.781-3.833 1.754-4.49 2.103-.683.269-1.338.666-2.031 1.088-.407.248-.819.498-1.234.722a5.11 5.11 0 0 1-2.488.65zm12.215-17.443c-1.086 0-3.23.378-5.51 1.143-.71.223-1.385.476-2.01.752-1.64.634-3.366 1.659-4.876 2.892-.29.235-.568.458-.835.672-2.278 1.82-3.652 2.918-3.859 5.805a5.229 5.229 0 0 0 2.44 4.712c1.452.908 3.114.966 4.563.159.41-.22.809-.463 1.204-.704.69-.42 1.404-.855 2.109-1.128.636-.342 2.773-1.32 4.49-2.106l1.706-.776c.162-.073.299-.135.405-.179a23.87 23.87 0 0 1 1.396-.55c1.481-.55 3.013-1.118 3.829-2.445 1.17-1.558 1.262-3.548.268-5.355-1.044-1.899-3.005-3.039-5.03-2.893a.407.407 0 0 1-.07.006h-.001a.072.072 0 0 1-.02 0H55.356l-.024-.001a2.973 2.973 0 0 0-.166-.004zm-.025 11.587h.01-.01zm8.724-5.405c-.563-4.05-2.462-6.984-5.515-9.04-6.665-4.48-17.982-7.443-26.248-7.458v-.001h-.224v.002c-9.43.176-29.412 4.229-31.48 15.01-1.727 8.503 2.246 16.79 8.61 21.743 1.723 1.298 3.756 1.561 5.524 1.033 2.012-.723 1.922-1.12 3.815-4.338 2.307-3.925 4.634-4.267 6.026-4.79 2.914-1.109 7.478-1.125 7.626-1.125.149 0 4.713.016 7.626 1.116 1.389.525 3.715.866 6.023 4.791 1.893 3.218 1.807 3.623 3.817 4.338 1.761.536 3.804.272 5.522-1.025 6.019-4.722 9.783-12.08 8.878-20.256zm-9.34 19.665c-1.909 1.298-3.211 1.294-4.809.91-1.416-.504-1.507-.665-2.623-2.626a90.051 90.051 0 0 0-.799-1.386c-3.173-6.088-10.94-6.14-14.295-6.277-.196 0-4.843.014-7.89 1.172-2.017.735-3.946 1.08-6.409 5.113-.314.534-.574.99-.798 1.384-1.113 1.958-1.204 2.118-2.616 2.626-1.602.38-2.904.381-4.815-.914C2.844 43.93-.416 36.084 1.125 28.178c.805-3.07 2.312-5.354 4.943-7.12C12.255 16.89 23.404 13.74 32 13.73c8.554-.009 19.702 3.145 25.932 7.332 2.635 1.765 4.145 4.054 4.944 7.127 1.534 7.808-1.812 15.81-8.35 20.955z"/></svg>