<svg xmlns="http://www.w3.org/2000/svg" viewBox="0 0 64 64" class="ccsvg ccsvg--outline ccsvg--n64"><path class="ccsvg__primary" d="M15.883 18.745h-2.674V16.07a.538.538 0 0 0-.54-.535H9.336a.538.538 0 0 0-.54.535v2.668H6.127a.536.536 0 0 0-.531.54v3.334c0 .293.238.531.531.532h2.67v2.681c0 .294.237.533.531.535h3.343a.54.54 0 0 0 .531-.535V23.15h2.678a.535.535 0 0 0 .531-.539l.004-3.335a.532.532 0 0 0-.531-.53l-.001-.001ZM15.66 22.4h-2.67a.536.536 0 0 0-.539.532v2.677H9.546v-2.677a.536.536 0 0 0-.531-.54h-2.67v-2.905h2.67a.532.532 0 0 0 .53-.53v-2.673h2.914v2.672a.536.536 0 0 0 .531.54h2.674L15.66 22.4ZM32 32.634a3.64 3.64 0 1 0 3.64 3.64 3.644 3.644 0 0 0-3.64-3.64Zm0 6.528a2.89 2.89 0 1 1 2.89-2.89v.001a2.892 2.892 0 0 1-2.89 2.89v-.001Zm0-13.398a2.947 2.947 0 1 0 0-5.894 2.947 2.947 0 0 0 0 5.894Zm0-5.144a2.197 2.197 0 1 1 0 4.394 2.197 2.197 0 0 1 0-4.394Zm15.484 1.734a3.004 3.004 0 1 0-6.008 0 3.004 3.004 0 0 0 6.008 0Zm-3.004 2.254a2.254 2.254 0 1 1 0-4.508 2.254 2.254 0 0 1 0 4.508Zm9.751-4.822a2.38 2.38 0 1 0 0 4.76 2.38 2.38 0 0 0 0-4.76Zm0 4.01a1.63 1.63 0 1 1 0-3.26 1.63 1.63 0 0 1 0 3.26Zm3.84-7.938a2.38 2.38 0 1 0 2.38 2.38 2.382 2.382 0 0 0-2.38-2.38Zm0 4.01a1.63 1.63 0 1 1 0-3.26 1.63 1.63 0 0 1 0 3.26Zm5.249 3.782c-.374-2.064-.05-3.72-.56-5.7a12.174 12.174 0 0 0-4.3-7.087l.156-1.176a.908.908 0 0 0-.446-.726c-2.566-1.503-5.856-2.107-9.018-2.598-.786-.122-1.591-.247-2.43-.398l-1.169-.173c-.06-.237-.114-.484-.182-.728C45.105 3.138 38.194.992 32.27.992L32 .993l-.27-.001c-5.924 0-12.835 2.146-13.101 4.072-.065.233-.117.47-.174.696l-1.172.186c-.827.15-1.633.275-2.43.399-3.149.488-6.437 1.09-9.006 2.595a.928.928 0 0 0-.443.803l.154 1.106a12.17 12.17 0 0 0-4.319 7.102c-.51 1.98-.185 3.635-.559 5.7a53.516 53.516 0 0 0-.659 10.425c.183 7.303 2.993 15.287 6.003 15.287.081 0 .163-.006.243-.017 2.31-.333 4.35-1.52 6.432-13.625l.146-1.343c0-.719.582-1.301 1.301-1.302.029 0 .418-.042 1.001-.042 1.713 0 5.103.36 6.004 3.187a60.39 60.39 0 0 1 1.79 7.167l2.227 9.224c.88 3.689 2.397 10.314 6.81 10.395l.001.001h.014v-.001h.014v.001h.014v-.001c4.414-.081 5.931-6.706 6.811-10.395l2.227-9.224a60.391 60.391 0 0 1 1.79-7.167c.9-2.828 4.291-3.187 6.004-3.187.583 0 .972.042 1.001.042.719 0 1.301.583 1.301 1.302l.146 1.343c2.082 12.104 4.122 13.292 6.432 13.625.08.011.162.017.243.017 3.01 0 5.82-7.984 6.003-15.287.12-3.488-.1-6.98-.66-10.425l.001-.001ZM46.6 6.706c.834.15 1.645.276 2.449.4 3.079.48 6.29 1.067 8.743 2.503.044.026.073.07.08.052l-.098.702a16.615 16.615 0 0 0-7.036-2.572c-.713-.141-2.908-.4-4.2-.667a1.005 1.005 0 0 1-.695-.53l.757.112ZM6.15 9.717a.169.169 0 0 1 .076-.13c2.456-1.438 5.665-2.025 8.753-2.503.792-.123 1.604-.249 2.43-.398l.762-.122a1.014 1.014 0 0 1-.71.559c-1.291.267-3.486.526-4.199.667a16.63 16.63 0 0 0-7.02 2.56l-.092-.633Zm57.079 24.34c-.193 7.703-3.098 14.556-5.253 14.556a.945.945 0 0 1-.136-.01c-1.627-.234-3.653-.526-5.794-12.963l-.141-1.307a2.054 2.054 0 0 0-2.042-2.009c-.138-.01-.503-.04-1.01-.04-2.068 0-5.69.482-6.719 3.71a60.035 60.035 0 0 0-1.804 7.218l-2.227 9.226-.038.157c-.854 3.585-2.285 9.585-6.051 9.662h-.027c-3.767-.075-5.197-6.076-6.052-9.662l-.038-.157-.137-.576h-.002c-.484-2.006-2.076-8.602-2.078-8.602a60.535 60.535 0 0 0-1.814-7.266c-1.028-3.228-4.65-3.71-6.719-3.71-.507 0-.873.03-1 .042a2.054 2.054 0 0 0-2.052 2.007l-.135 1.261c-2.147 12.483-4.173 12.775-5.8 13.01a.946.946 0 0 1-.136.01c-2.155 0-5.06-6.854-5.253-14.557-.12-3.437.097-6.877.647-10.272.149-.906.226-1.823.233-2.741-.007-.985.1-1.967.32-2.927 1.231-5.427 5.067-8.651 11.437-9.591.272-.054.8-.13 1.412-.218.894-.128 2.006-.288 2.793-.45 1.17-.242 1.434-1.346 1.627-2.152.035-.146.071-.295.112-.441l.013-.049.007-.05c.151-1.098 6.096-3.424 12.358-3.424l.278.001.262-.001c6.262 0 12.207 2.326 12.358 3.425l.007.05.013.048c.04.146.076.295.111.441.194.806.459 1.91 1.628 2.152.787.162 1.899.322 2.793.45.612.088 1.14.164 1.448.224 6.334.934 10.17 4.158 11.406 9.606.216.953.322 1.928.315 2.906.006.918.084 1.833.232 2.739a52.68 52.68 0 0 1 .648 10.274Zm-13.184-13.44a2.38 2.38 0 1 0-2.379-2.381v.002a2.382 2.382 0 0 0 2.379 2.38v-.001Zm0-4.009a1.63 1.63 0 1 1-1.629 1.631v-.001c.001-.9.73-1.628 1.629-1.63Zm3.936.128a2.38 2.38 0 1 0 0-4.76 2.38 2.38 0 0 0 0 4.76Zm0-4.008a1.63 1.63 0 1 1-1.63 1.63v-.002a1.63 1.63 0 0 1 1.63-1.628ZM32 28.69a7.583 7.583 0 1 0 7.584 7.583A7.593 7.593 0 0 0 32 28.69Zm0 14.416a6.833 6.833 0 1 1 6.834-6.833A6.841 6.841 0 0 1 32 43.106Zm17.166-18.883a3.004 3.004 0 1 0 0 6.008 3.004 3.004 0 0 0 0-6.008Zm0 5.258a2.254 2.254 0 1 1 2.254-2.254v.001a2.256 2.256 0 0 1-2.254 2.253Z"/></svg>