<svg xmlns="http://www.w3.org/2000/svg" viewBox="0 0 64 64" class="ccsvg ccsvg--outline ccsvg--nes"><path class="ccsvg__primary" d="M46.324 40.352h-6.398a1.177 1.177 0 0 1-1.176-1.176v-6.399c0-.648.527-1.175 1.176-1.175h6.398c.649 0 1.176.527 1.176 1.175v6.399c0 .648-.527 1.176-1.176 1.176zm-6.398-8a.427.427 0 0 0-.426.425v6.399c0 .234.191.426.426.426h6.398a.427.427 0 0 0 .426-.426v-6.399a.427.427 0 0 0-.426-.425h-6.398zm3.199 6.707a3.087 3.087 0 0 1-3.082-3.084c0-1.7 1.383-3.082 3.082-3.082s3.082 1.382 3.082 3.082-1.383 3.084-3.082 3.084zm0-5.416a2.334 2.334 0 0 0-2.332 2.332c0 1.287 1.046 2.334 2.332 2.334s2.332-1.047 2.332-2.334a2.334 2.334 0 0 0-2.332-2.332zm13.2 6.709h-6.4a1.177 1.177 0 0 1-1.175-1.176v-6.399c0-.648.527-1.175 1.176-1.175h6.398c.649 0 1.176.527 1.176 1.175v6.399c0 .648-.527 1.176-1.176 1.176zm-6.4-8a.427.427 0 0 0-.425.425v6.399c0 .234.191.426.426.426h6.398a.427.427 0 0 0 .426-.426v-6.399a.427.427 0 0 0-.426-.425h-6.398zm3.2 6.707a3.086 3.086 0 0 1-3.082-3.082c0-1.702 1.383-3.086 3.082-3.086s3.082 1.384 3.082 3.086a3.086 3.086 0 0 1-3.082 3.082zm0-5.418a2.334 2.334 0 0 0 0 4.668 2.334 2.334 0 0 0 0-4.668zm-39.57 6.71h-3.2a.775.775 0 0 1-.775-.773v-3.203l-3.225-.023a.776.776 0 0 1-.775-.776v-3.2c0-.427.348-.774.775-.774h3.2l.025-3.225c0-.428.348-.775.775-.775h3.2c.427 0 .775.347.775.775v3.2l3.225.025c.427 0 .775.347.775.775v3.2a.776.776 0 0 1-.775.775h-3.2l-.025 3.226a.775.775 0 0 1-.775.774zm-7.2-8-.025 3.225 3.225.026c.427 0 .775.346.775.773v3.203l3.225.024.025-3.227c0-.427.348-.773.775-.773l3.225-.026v-3.2l-3.225-.024a.776.776 0 0 1-.775-.776v-3.2l-3.225-.024-.025 3.224a.776.776 0 0 1-.775.776h-3.2zm29.868-6.326c.089 0 .164.076.164.164v1.594a.166.166 0 0 1-.164.164H22.068a.166.166 0 0 1-.164-.164V26.19c0-.088.075-.164.164-.164h14.155zm0-.75H22.068a.915.915 0 0 0-.914.914v1.594c0 .504.41.914.914.914h14.155c.504 0 .914-.41.914-.914V26.19a.915.915 0 0 0-.914-.914zm-.004 5.014c.09 0 .164.074.164.164v1.596a.166.166 0 0 1-.164.164H22.066a.166.166 0 0 1-.164-.164v-1.596c0-.09.074-.164.164-.164H36.22m0-.75H22.066a.915.915 0 0 0-.914.914v1.596c0 .504.41.914.914.914H36.22c.504 0 .914-.41.914-.914v-1.596a.915.915 0 0 0-.914-.914zm0 5.074c.089 0 .164.075.164.164v5.02a.162.162 0 0 1-.164.164H22.063a.162.162 0 0 1-.165-.164v-5.02c0-.09.074-.164.165-.164h14.156zm0-.75H22.063a.915.915 0 0 0-.915.914v5.02c0 .508.41.914.915.914h14.156a.913.913 0 0 0 .914-.914v-5.02a.915.915 0 0 0-.914-.914zm-8.554 4.426h-3.969c-.572 0-1.037-.465-1.037-1.035s.465-1.035 1.037-1.035h3.969c.572 0 1.037.465 1.037 1.035s-.465 1.035-1.037 1.035zm-3.969-1.32c-.158 0-.287.128-.287.285s.13.285.287.285h3.969c.158 0 .287-.128.287-.285s-.129-.285-.287-.285h-3.969zm10.928 1.32h-3.97a1.035 1.035 0 1 1 0-2.07h3.97a1.035 1.035 0 1 1 0 2.07zm-3.97-1.32a.292.292 0 0 0-.288.289c0 .152.132.281.287.281h3.971a.287.287 0 0 0 .285-.281c0-.156-.13-.29-.285-.29h-3.97zM60.55 21.248H37.637c-.69 0-1.25.56-1.25 1.25v1.027c0 .09-.074.164-.164.164H22.068a.164.164 0 0 1-.164-.164v-1.03c0-.689-.558-1.247-1.247-1.247H3.45a1.95 1.95 0 0 0-1.949 1.95V42.55A1.95 1.95 0 0 0 3.45 44.5h17.2c.69 0 1.248-.559 1.248-1.249v-.595c0-.09.074-.164.165-.164h14.155c.09 0 .165.075.165.164v.594c0 .69.56 1.25 1.25 1.25H60.55a1.95 1.95 0 0 0 1.949-1.95V23.198a1.95 1.95 0 0 0-1.95-1.949zm1.199 21.303c0 .66-.54 1.199-1.2 1.199H37.634a.5.5 0 0 1-.5-.5v-.594a.917.917 0 0 0-.915-.914H22.062a.914.914 0 0 0-.914.914v.595a.499.499 0 0 1-.498.499H3.45c-.66 0-1.2-.54-1.2-1.2V23.198c0-.66.54-1.199 1.2-1.199h17.207c.275 0 .497.223.497.497v1.03c0 .505.41.914.914.914h14.155a.914.914 0 0 0 .914-.914V22.5a.5.5 0 0 1 .5-.5h22.914c.66 0 1.199.539 1.199 1.198v19.354zM63.2 18H.8a.8.8 0 0 0-.801.8v26.4A.8.8 0 0 0 .8 46h62.4a.8.8 0 0 0 .8-.8V18.8a.8.8 0 0 0-.8-.801zm.05 25.771v1.03a.45.45 0 0 1-.45.449H1.2a.45.45 0 0 1-.449-.45V19.249c0-.275.223-.498.498-.498H62.8a.45.45 0 0 1 .449.45V43.77z"/></svg>