<svg xmlns="http://www.w3.org/2000/svg" viewBox="0 0 64 64" class="ccsvg ccsvg--outline ccsvg--ps1"><path class="ccsvg__primary" d="m12.269 26.433-.943-1.14a.917.917 0 0 0-.707-.333H8.515a.513.513 0 0 0-.514.513v2.962c0 .284.23.513.514.513h2.104a.917.917 0 0 0 .707-.333l.943-1.14a.817.817 0 0 0 0-1.041Zm-.579.564-.942 1.14a.166.166 0 0 1-.129.061H8.751V25.71h1.868c.05 0 .097.022.129.06l.942 1.141c.02.025.02.06 0 .086Zm2.445 1.303a.817.817 0 0 0-1.04 0l-1.142.943a.917.917 0 0 0-.333.707v2.104c0 .284.23.513.514.513h2.962c.283 0 .513-.23.513-.513V29.95a.917.917 0 0 0-.333-.707l-1.14-.943Zm.724 3.517H12.37V29.95c0-.05.023-.097.061-.129l1.141-.943a.066.066 0 0 1 .043-.015l.043.016 1.14.942c.04.032.061.079.061.129v1.867Zm-1.765-6.21c.303.25.74.25 1.041 0l1.141-.942a.917.917 0 0 0 .333-.707v-2.104a.513.513 0 0 0-.513-.513h-2.962a.513.513 0 0 0-.514.513v2.104c0 .274.123.533.333.707l1.141.943Zm-.724-3.516h2.49v1.867c0 .05-.023.097-.061.129l-1.141.942h-.086l-1.14-.942a.167.167 0 0 1-.062-.129v-1.867Zm44.106 2.048a2.752 2.752 0 1 0 2.711 2.751 2.734 2.734 0 0 0-2.71-2.75Zm0 4.753a2.002 2.002 0 1 1 1.961-2.002 1.984 1.984 0 0 1-1.96 2.002Zm-5.866.593a2.752 2.752 0 1 0 2.711 2.751 2.735 2.735 0 0 0-2.71-2.751Zm0 4.753a2.002 2.002 0 1 1 1.961-2.002 1.985 1.985 0 0 1-1.96 2.002Zm0-15.444a2.752 2.752 0 1 0 2.711 2.75 2.735 2.735 0 0 0-2.71-2.75Zm0 4.753a2.002 2.002 0 1 1 1.961-2.002 1.985 1.985 0 0 1-1.96 2.002Zm13.237 20.361h.002a50.671 50.671 0 0 0-.11-.772v.002l-2.37-16.583a10.868 10.868 0 0 0-4.873-8.451s-.483-2.766-.77-3.654a1.883 1.883 0 0 0-.806-1.023 3.728 3.728 0 0 0-.29-.162c-.05-.025-.102-.04-.152-.065a.366.366 0 0 0 .021-.168 1.65 1.65 0 0 0-.524-1.091 8.065 8.065 0 0 0-3.724-.785c-1.29 0-3.019.16-3.925.918a1.99 1.99 0 0 0-.46 1.06.366.366 0 0 0 .023.188 3.207 3.207 0 0 0-.377.275 4.121 4.121 0 0 0-1.125 1.885l-.415 2.257a.674.674 0 0 1-.663.552H20.691a.674.674 0 0 1-.663-.552l-.415-2.257a4.121 4.121 0 0 0-1.125-1.885c-.117-.099-.24-.19-.37-.271a.365.365 0 0 0 .027-.198 1.984 1.984 0 0 0-.46-1.059c-.907-.76-2.635-.919-3.926-.919a8.07 8.07 0 0 0-3.724.785 1.657 1.657 0 0 0-.524 1.091.367.367 0 0 0 .021.17c-.053.026-.11.042-.162.07a3.708 3.708 0 0 0-.29.161 1.882 1.882 0 0 0-.805 1.023c-.288.888-.77 3.654-.77 3.654a10.868 10.868 0 0 0-4.875 8.451L.26 43.138v-.002c-.002 0-.07.485-.11.772h.002A16.763 16.763 0 0 0 0 45.835l.002.107c.001.064.003.125.006.184a7.493 7.493 0 0 0 7.445 6.727 6.36 6.36 0 0 0 4.858-2.206v.002c1.619-1.773 6.483-10.306 8.44-13.516.276-.454.77-.73 1.302-.729h19.894a1.519 1.519 0 0 1 1.302.729c1.957 3.21 6.821 11.743 8.44 13.516v-.002a6.361 6.361 0 0 0 4.858 2.206 7.493 7.493 0 0 0 7.445-6.727c.003-.059.005-.12.006-.184 0-.036.003-.072.002-.107a16.76 16.76 0 0 0-.153-1.927ZM46.807 12.65c1.046-.59 2.243-.775 3.444-.743 1.14.03 2.273.186 3.31.661a.74.74 0 0 1 .135.298c-.39-.145-.79-.26-1.198-.346-.743-.154-1.5-.234-2.26-.24a8.076 8.076 0 0 0-1.514.136c-.695.123-1.38.301-2.046.535a.965.965 0 0 1 .129-.3Zm-36.36-.087c1.038-.475 2.171-.631 3.312-.662 1.2-.032 2.396.152 3.442.742a.98.98 0 0 1 .134.313 12.896 12.896 0 0 0-2.059-.54 8.081 8.081 0 0 0-1.514-.136 11.49 11.49 0 0 0-2.26.24 8.347 8.347 0 0 0-1.19.342.767.767 0 0 1 .135-.299ZM63.248 45.93c0 .054-.002.106-.005.148a6.783 6.783 0 0 1-6.697 6.026 5.61 5.61 0 0 1-4.304-1.96c-1.174-1.286-4.38-6.707-6.5-10.294a308.472 308.472 0 0 0-1.852-3.107 2.257 2.257 0 0 0-1.943-1.088H22.052a2.257 2.257 0 0 0-1.942 1.088c-.475.78-1.122 1.873-1.851 3.107-2.122 3.587-5.327 9.008-6.51 10.302a5.596 5.596 0 0 1-4.296 1.953c-3.046 0-6.464-2.422-6.696-6.02a4.476 4.476 0 0 1-.005-.136l-.002-.113c.013-.613.062-1.225.147-1.832l.004-.044c.033-.242.082-.586.096-.678l.006-.037 2.37-16.583a.763.763 0 0 0 .006-.063 10.173 10.173 0 0 1 4.538-7.868.75.75 0 0 0 .326-.497c.132-.755.522-2.865.745-3.552.085-.26.262-.481.496-.622.059-.037.14-.08.229-.127a7.54 7.54 0 0 1 1.939-.678 10.62 10.62 0 0 1 2.11-.224c.46-.003.92.038 1.373.122 2.139.41 2.63.82 2.865 1.015.418.408.722.92.881 1.482l.41 2.226a1.424 1.424 0 0 0 1.4 1.166h22.618c.687 0 1.276-.49 1.4-1.166l.41-2.226c.164-.572.477-1.09.906-1.503.21-.175.701-.585 2.84-.994a7.332 7.332 0 0 1 1.373-.122c.71.004 1.416.079 2.11.224a7.542 7.542 0 0 1 1.94.678c.088.046.17.09.228.127.234.14.41.362.496.622.222.687.613 2.797.745 3.552a.75.75 0 0 0 .326.497 10.173 10.173 0 0 1 4.538 7.868.733.733 0 0 0 .006.063l2.37 16.583.006.037c.014.092.063.436.096.678l.004.044c.086.618.135 1.241.146 1.865v.061ZM44.77 24.14a2.752 2.752 0 1 0 2.711 2.751 2.738 2.738 0 0 0-2.71-2.75Zm0 4.753a2.002 2.002 0 1 1 1.961-2.002 1.988 1.988 0 0 1-1.96 2.002Zm-15.448.962h-2.37a.678.678 0 0 0-.677.677v1.13c0 .374.304.677.677.677h2.37a.678.678 0 0 0 .677-.676V30.53a.678.678 0 0 0-.677-.677Zm-.073 1.735h-2.224v-.985h2.224v.985Zm8.522-1.074-2.817-.775a.602.602 0 0 0-.763.581v1.55a.604.604 0 0 0 .763.58l2.817-.775a.602.602 0 0 0 0-1.16Zm-2.83 1.162v-1.163l2.115.582-2.115.581ZM18.715 24.96h-2.104a.917.917 0 0 0-.707.333l-.943 1.14a.817.817 0 0 0 0 1.041l.943 1.141c.174.211.433.333.707.333h2.104c.283 0 .513-.23.513-.513v-2.962a.513.513 0 0 0-.513-.513Zm-.237 3.238h-1.867a.166.166 0 0 1-.13-.06l-.942-1.141a.067.067 0 0 1 0-.086l.943-1.14a.167.167 0 0 1 .129-.061h1.867v2.488Z"/></svg>