<svg xmlns="http://www.w3.org/2000/svg" viewBox="0 0 64 64" class="ccsvg ccsvg--outline ccsvg--ps2"><path class="ccsvg__primary" d="m11.244 24.11 1.22 1.017a.577.577 0 0 0 .377.139.595.595 0 0 0 .377-.135l1.212-1.016c.084-.066.148-.124.148-.124a.377.377 0 0 0 .125-.279v-2.193a.546.546 0 0 0-.543-.548h-2.637a.548.548 0 0 0-.546.548v2.193a.377.377 0 0 0 .125.28s.065.059.142.117Zm.483-2.39h2.226v1.816l-1.11.93-1.116-.93Zm-.094 4.289-1.117-1.358a.374.374 0 0 0-.295-.143H8.036a.548.548 0 0 0-.547.548v2.65a.541.541 0 0 0 .547.547h2.185a.375.375 0 0 0 .293-.14l.098-.119.005-.007 1.012-1.224a.584.584 0 0 0 .004-.754Zm-1.588 1.494H8.239v-2.245h1.802l.929 1.125Zm3.17-.222a.585.585 0 0 0-.746.002L11.246 28.3c-.084.07-.147.128-.147.128a.371.371 0 0 0-.122.276v2.194a.548.548 0 0 0 .546.547h2.637a.546.546 0 0 0 .543-.547v-2.194a.371.371 0 0 0-.122-.276Zm.738 3.414h-2.226v-1.819l1.116-.928 1.11.927Zm4.243-2.99v-2.65a.549.549 0 0 0-.548-.547h-2.183a.377.377 0 0 0-.281.126l-1.14 1.376a.602.602 0 0 0 .003.747l1.02 1.237.12.135a.372.372 0 0 0 .278.124h2.183a.549.549 0 0 0 .548-.548Zm-.75-.202h-1.811l-.925-1.12.929-1.125h1.807Zm5.162 3.577a4.738 4.738 0 1 0 4.712 4.738 4.73 4.73 0 0 0-4.712-4.738Zm0 8.727a3.988 3.988 0 1 1 3.962-3.989 3.98 3.98 0 0 1-3.962 3.989Zm5.117-14.717h-2.792a.498.498 0 0 0-.496.499v1.807a.498.498 0 0 0 .496.5h2.792a.502.502 0 0 0 .504-.5V25.59a.502.502 0 0 0-.504-.5Zm-.246 2.056h-2.292V25.84h2.292Zm5.714 3.918h-2.375a.473.473 0 0 0-.478.478v1.537a.472.472 0 0 0 .478.477h2.375a.48.48 0 0 0 .48-.477v-1.537a.48.48 0 0 0-.48-.478Zm-.27 1.742H31.09v-.992h1.834Zm6.66-6.374a.477.477 0 0 0-.304-.416l-2.973-.987a.458.458 0 0 0-.409.075.586.586 0 0 0-.185.378v1.858a.477.477 0 0 0 .185.387.554.554 0 0 0 .305.084.37.37 0 0 0 .12-.017l2.961-.984a.48.48 0 0 0 .3-.378Zm-3.121.526V25.87l1.638.543Zm4.652 4.122a4.738 4.738 0 1 0 4.711 4.738 4.73 4.73 0 0 0-4.71-4.738Zm0 8.727a3.988 3.988 0 1 1 3.961-3.989 3.98 3.98 0 0 1-3.96 3.989Zm4.748-16.016a2.564 2.564 0 1 0 2.548 2.56 2.56 2.56 0 0 0-2.548-2.56Zm0 4.379a1.815 1.815 0 1 1 1.798-1.818 1.813 1.813 0 0 1-1.798 1.818Zm4.915.33a2.565 2.565 0 1 0 2.547 2.56 2.557 2.557 0 0 0-2.547-2.56Zm0 4.379a1.815 1.815 0 1 1 1.797-1.818 1.81 1.81 0 0 1-1.797 1.818Zm0-8.908a2.563 2.563 0 1 0-2.547-2.56 2.557 2.557 0 0 0 2.547 2.56Zm0-4.375a1.813 1.813 0 1 1-1.797 1.814 1.807 1.807 0 0 1 1.797-1.814Zm4.72 4.195a2.564 2.564 0 1 0 2.547 2.56 2.56 2.56 0 0 0-2.548-2.56Zm0 4.379a1.815 1.815 0 1 1 1.797-1.818 1.813 1.813 0 0 1-1.798 1.818Zm8.26 14.693-.093-.597c-.852-4.717-1.86-11.643-2.329-14.956l-.014-.008c.25-3.403-1.688-7.328-4.035-8.72h-.004l-.014-.01a1.854 1.854 0 0 1-.97-1.057c-.13-.451-.42-1.735-.759-2.805a2.356 2.356 0 0 0-.72-1.093v-.577a.97.97 0 0 0-.64-.911 9.208 9.208 0 0 0-3.219-.498 13.502 13.502 0 0 0-3.51.52.964.964 0 0 0-.682.923v.452a2.498 2.498 0 0 0-.776 1.677c-.347 1.49.041 2.593-2.049 2.62H20.02l.358.01h-.34c-2.09-.027-1.702-1.13-2.049-2.62a2.544 2.544 0 0 0-.75-1.655v-.484a.964.964 0 0 0-.681-.924 13.504 13.504 0 0 0-3.512-.52 9.05 9.05 0 0 0-3.219.499.973.973 0 0 0-.638.911v.569a2.352 2.352 0 0 0-.747 1.11c-.339 1.07-.63 2.355-.76 2.806a1.853 1.853 0 0 1-.97 1.057c-2.348 1.393-4.287 5.323-4.033 8.728-.483 3.482-1.574 10.722-2.43 15.55l-.005.001a16.14 16.14 0 0 0-.197 3.677 5.486 5.486 0 0 0 .463 1.854c.96 2.222 3.952 3.603 6.573 3.603a6.609 6.609 0 0 0 1.307-.126c2.026-.29 3.85-2.3 4.678-3.494 1.188-1.722 4.218-7.237 4.218-7.237a6.669 6.669 0 0 0 5.416 2.844 6.738 6.738 0 0 0 6.417-4.915h5.774a6.617 6.617 0 0 0 11.825 2.08c.035.064 3.033 5.519 4.214 7.23.828 1.195 2.652 3.204 4.678 3.495a6.629 6.629 0 0 0 1.307.124c2.623 0 5.612-1.379 6.572-3.602a5.482 5.482 0 0 0 .464-1.854 16.141 16.141 0 0 0-.197-3.677Zm-16.24-29.789a.211.211 0 0 1 .145-.205 12.786 12.786 0 0 1 3.317-.488 8.35 8.35 0 0 1 2.946.453.22.22 0 0 1 .143.206v.122a6.753 6.753 0 0 0-2.65-.457c-.169 0-.325.003-.464.007a12.156 12.156 0 0 0-3.436.438ZM9.939 13.04a.22.22 0 0 1 .145-.206 8.183 8.183 0 0 1 2.944-.453 12.787 12.787 0 0 1 3.318.488.211.211 0 0 1 .144.205v.094a12.014 12.014 0 0 0-3.462-.446 17.688 17.688 0 0 0-.464-.007 6.803 6.803 0 0 0-2.625.445Zm53.27 33.412a4.754 4.754 0 0 1-.407 1.645c-.852 1.971-3.66 3.15-5.884 3.15a6.064 6.064 0 0 1-1.2-.118c-1.611-.231-3.253-1.857-4.168-3.178-1.153-1.671-4.144-7.111-4.174-7.166a.75.75 0 0 0-.609-.387l-.048-.002a.75.75 0 0 0-.605.307 5.868 5.868 0 0 1-10.505-1.862.75.75 0 0 0-.715-.524h-5.774a.75.75 0 0 0-.715.523 5.87 5.87 0 0 1-10.513 1.856.75.75 0 0 0-.605-.308c-.016 0-.033 0-.049.002a.75.75 0 0 0-.609.387c-.03.055-3.025 5.501-4.176 7.17-.916 1.323-2.558 2.949-4.21 3.187a5.86 5.86 0 0 1-1.159.11c-2.224 0-5.033-1.178-5.881-3.142a4.77 4.77 0 0 1-.41-1.652 15.024 15.024 0 0 1 .18-3.391.766.766 0 0 0 .014-.067c.86-4.839 1.961-12.157 2.435-15.58a.75.75 0 0 0 .005-.158c-.221-2.97 1.476-6.7 3.638-8.008a2.564 2.564 0 0 0 1.34-1.513 26.2 26.2 0 0 0 .18-.695c.148-.588.351-1.392.573-2.092.315-.997 1.43-1.481 3.406-1.481.162 0 .312.003.444.006 3.862.101 3.985.677 4.19 1.632l.062.28c.063.273.1.54.136.798.146 1.057.329 2.372 2.643 2.401h.34a.758.758 0 0 0 .12-.01h23.454c2.305-.029 2.487-1.344 2.634-2.401.036-.258.073-.525.136-.799l.062-.278c.205-.955.328-1.532 4.19-1.632.132-.004.282-.007.444-.007 1.977 0 3.09.484 3.406 1.481.222.7.425 1.505.573 2.093.075.298.137.542.18.694a2.562 2.562 0 0 0 1.333 1.51l.032.017c2.156 1.31 3.85 5.032 3.63 7.997a.723.723 0 0 0 .036.28c.417 2.938 1.44 10.015 2.315 14.854l.094.608a15.419 15.419 0 0 1 .19 3.463Z"/></svg>