<svg xmlns="http://www.w3.org/2000/svg" viewBox="0 0 64 64" class="ccsvg ccsvg--outline ccsvg--ps4"><path class="ccsvg__primary" d="M18.832 19.87a1.5 1.5 0 0 0 1.473-1.522v-1.376a1.472 1.472 0 1 0-2.942 0v1.376a1.498 1.498 0 0 0 1.469 1.522Zm-.719-2.898a.722.722 0 1 1 1.442 0c-.064.652.307 2.118-.723 2.148-1.025-.03-.655-1.5-.719-2.148Zm-1.719 5.19a16.428 16.428 0 0 0-2.195.058l-.004.004a.208.208 0 0 0-.051.05c-.065.113-1.826 1.617-1.7 1.754-.13.132 1.641 1.648 1.7 1.754a.208.208 0 0 0 .05.05l.005.004a16.442 16.442 0 0 0 2.195.059c1.23-.01 1.23-3.723 0-3.733Zm-.088 2.982h-1.743l-1.167-1.116 1.167-1.116h1.743a2.372 2.372 0 0 1 0 2.232Zm4.663 3.395c-5.624 1.055-4.265 9.28 1.382 8.513 5.616-1.05 4.276-9.274-1.382-8.513Zm4.225 4.822c-.855 4.61-7.698 3.531-7.068-1.132.854-4.607 7.696-3.534 7.068 1.132Zm-15.097-11.67a.222.222 0 0 0 .05.055l1.544 1.598a.316.316 0 0 0 .437 0l1.543-1.598a.222.222 0 0 0 .051-.054l.004-.004a16.091 16.091 0 0 0 .059-2.181c0-.517-.84-.937-1.875-.937s-1.875.42-1.875.937a16.138 16.138 0 0 0 .058 2.18Zm.688-2.093a1.958 1.958 0 0 1 1.125-.278 1.959 1.959 0 0 1 1.125.278v1.728L11.91 22.49l-1.125-1.165Zm21.21 10.323a2.117 2.117 0 0 0 0 4.233 2.117 2.117 0 0 0 0-4.233Zm0 3.483a1.367 1.367 0 0 1 0-2.733 1.367 1.367 0 0 1 0 2.733Zm-20.742-9.376c.133-.13-1.641-1.649-1.699-1.753a.208.208 0 0 0-.05-.05l-.005-.005h-.004a16.27 16.27 0 0 0-2.191-.058c-.52 0-.941.836-.941 1.866s.421 1.866.941 1.866a16.33 16.33 0 0 0 2.191-.058H9.5l.004-.004a.208.208 0 0 0 .051-.05c.064-.112 1.826-1.617 1.7-1.754Zm-2.118 1.116H7.392a2.372 2.372 0 0 1 0-2.232h1.743l1.167 1.116Zm4.587 1.22a.222.222 0 0 0-.05-.054l-1.544-1.597a.316.316 0 0 0-.437 0l-1.543 1.597a.222.222 0 0 0-.05.055l-.005.004a16.151 16.151 0 0 0-.058 2.185c0 .513.84.933 1.875.933s1.875-.42 1.875-.933a16.198 16.198 0 0 0-.059-2.185Zm-.687 2.096a1.97 1.97 0 0 1-1.125.277 1.97 1.97 0 0 1-1.125-.277v-1.73l1.124-1.164 1.126 1.165Zm39.038-6.612c3.877-.151 3.146-5.905-.65-5.119a2.603 2.603 0 0 0 .65 5.119Zm-1.805-3.064a1.863 1.863 0 0 1 3.606.93 1.863 1.863 0 0 1-3.606-.93Zm4.803 7.051a2.605 2.605 0 0 0 3.697-3.671 2.605 2.605 0 0 0-3.697 3.671Zm.044-2.297a1.864 1.864 0 0 1 3.612.924 1.864 1.864 0 0 1-3.612-.924Zm-9.947-3.668a1.498 1.498 0 0 0 1.469-1.522v-1.376a1.47 1.47 0 1 0-2.938 0v1.376a1.498 1.498 0 0 0 1.469 1.522Zm-.719-2.898a.72.72 0 1 1 1.438 0v1.376a.72.72 0 1 1-1.438 0Zm-2.77 11.567c-5.623 1.055-4.262 9.28 1.384 8.513 5.616-1.053 4.273-9.273-1.383-8.513Zm4.226 4.821c-.854 4.612-7.697 3.532-7.068-1.13.852-4.608 7.695-3.536 7.068 1.13Zm3.408-11.193a2.605 2.605 0 0 0-3.707 3.66 2.605 2.605 0 0 0 3.707-3.66Zm-.047 2.308a1.864 1.864 0 0 1-3.609-.935 1.864 1.864 0 0 1 3.609.935Zm2.896 6.91c3.874-.148 3.15-5.898-.64-5.125a2.606 2.606 0 0 0 .64 5.126Zm-1.803-3.07a1.862 1.862 0 0 1 3.607.928 1.862 1.862 0 0 1-3.607-.928Zm12.097 21.132a13.242 13.242 0 0 0 1.519-6.215v.001c.242-5.71-1.326-12.602-1.881-14.984l.005.004s-.378-1.795-1.433-5.541-1.684-4.959-2.062-5.478-1.606-2.613-1.606-2.613l-.003.028c-.228-.442-.344-.904-.978-1.144.006-.225-.016-.551-.305-.662a9.81 9.81 0 0 0-4.415-1.164 11.012 11.012 0 0 0-3.496.608c-.558.152-.529.783-.513 1.088-.408.165-.755.53-1.224.506-.279.002-2.97.023-3.81.017a.876.876 0 0 0-.844-.749l-18.836-.002a.876.876 0 0 0-.841.742c-.814.001-2.956-.005-3.796-.008-.515.026-.878-.438-1.346-.544.015-.314.026-.9-.482-1.04a11.072 11.072 0 0 0-3.528-.618 9.647 9.647 0 0 0-4.375 1.145.67.67 0 0 0-.343.735c-.526.252-.646.678-.857 1.09l-.004-.028s-1.228 2.094-1.605 2.613-1.008 1.732-2.063 5.478-1.432 5.541-1.432 5.541l.005-.004c-.744 3.282-3.351 14.494-.838 20.286a5.662 5.662 0 0 0 5.564 3.413c2.681.21 5.316-2.295 6.532-5.285a68.414 68.414 0 0 0 3.172-8.082 1.54 1.54 0 0 1 .78-.825.46.46 0 0 1 .556.027 6.723 6.723 0 0 0 8.308-.054 1.262 1.262 0 0 1 .814-.319h10.367a1.186 1.186 0 0 1 .817.283 6.72 6.72 0 0 0 8.349.09c.272-.254.623 0 .859.172a1.189 1.189 0 0 1 .476.626 58.387 58.387 0 0 0 4.093 9.806c1.543 2.6 3.555 3.56 5.612 3.56a5.773 5.773 0 0 0 5.088-2.5Zm-1.4.521a5.749 5.749 0 0 1-5.397.936 6.11 6.11 0 0 1-3.108-2.672c3.07.802 8.268-.331 10.333-2.143a7.12 7.12 0 0 1-1.828 3.879ZM48.03 13.001a10.289 10.289 0 0 1 3.283-.572 8.361 8.361 0 0 1 3.66.88 35.778 35.778 0 0 0-6.942-.091 1.544 1.544 0 0 1 0-.217Zm-25.58 1.06c0-.088.057-.164.124-.164l18.836.002a.15.15 0 0 1 .125.164v10.633a.817.817 0 0 1-.768.857l-17.55.004a.817.817 0 0 1-.768-.857Zm-10.003-1.633a11.465 11.465 0 0 1 3.38.543.738.738 0 0 1 .02.247 35.018 35.018 0 0 0-6.94.093 8.805 8.805 0 0 1 3.54-.883Zm-1.183 36.086A5.704 5.704 0 0 1 3.58 50.45c-1.434-.863-2.158-2.668-2.473-4.374 2.062 1.82 7.264 2.957 10.341 2.158q-.09.144-.184.28ZM47.629 37.35c-.346-.349-1.332-.647-1.779-.144a5.923 5.923 0 0 1-7.379-.077 1.955 1.955 0 0 0-1.309-.468H26.795a1.993 1.993 0 0 0-1.3.498 5.927 5.927 0 0 1-7.344.048 1.215 1.215 0 0 0-1.441-.08 2.21 2.21 0 0 0-1.087 1.224 61.744 61.744 0 0 1-3.622 8.94c-3.11 1.228-9.397-.19-11.09-2.458-.476-3.867.122-9.55 1.741-16.499 0-.364 2.547-10.104 3.351-10.658.339-.466 1.243-1.99 1.552-2.515.297-.358.312-.928.827-.997a39.025 39.025 0 0 1 8.037-.108c.472.193.804.583 1.516.576.826.002 2.965.01 3.764.008V24.7a1.566 1.566 0 0 0 1.519 1.607l17.549-.004a1.566 1.566 0 0 0 1.518-1.607V14.648c.788.006 2.927-.011 3.742-.018.711.059 1.135-.434 1.641-.587a39.644 39.644 0 0 1 7.948.119c.516.068.53.635.826.992.307.52 1.215 2.053 1.555 2.52.798.532 3.36 10.32 3.351 10.658 1.617 6.962 2.212 12.651 1.733 16.52-1.714 2.258-7.975 3.664-11.084 2.434a61.78 61.78 0 0 1-3.62-8.936 1.918 1.918 0 0 0-.748-1.001Z"/></svg>