<svg xmlns="http://www.w3.org/2000/svg" viewBox="0 0 64 64" class="ccsvg ccsvg--outline ccsvg--ps5"><path class="ccsvg__primary" d="M33.255 34.05h-2.51a1.132 1.132 0 1 0 0 2.264h2.51a1.132 1.132 0 1 0 0-2.265zm0 1.514h-2.51a.382.382 0 1 1 0-.765h2.51a.382.382 0 1 1 0 .765zm-11.514-8.24a4.467 4.467 0 1 0 4.467 4.467 4.472 4.472 0 0 0-4.467-4.467zm0 8.183a3.717 3.717 0 1 1 3.717-3.716 3.717 3.717 0 0 1-3.717 3.717zm20.488-8.183a4.467 4.467 0 1 0 4.467 4.467 4.472 4.472 0 0 0-4.467-4.467zm0 8.183a3.717 3.717 0 1 1 3.717-3.716 3.717 3.717 0 0 1-3.717 3.717zM64 41.027l-.01-.002a50.705 50.705 0 0 0-.7-8.464 64.581 64.581 0 0 0-5.684-17.936l-.112-.207a1.073 1.073 0 0 0-.108-.161l-.065-.093a.767.767 0 0 0-.48-.267 8.728 8.728 0 0 0-.488-.117v-.005l-.098-.017h-.002l-.145-.997a1.514 1.514 0 0 0-.367-.367 10.71 10.71 0 0 0-4.313-1.56 13.921 13.921 0 0 0-1.412-.076 6.77 6.77 0 0 0-1.938.213c-.32.061-.32.245-.32.245l-.131 1.013h-.02l-.046-.008v.002a103.748 103.748 0 0 0-15.566-.989 103.815 103.815 0 0 0-15.56.988v-.001l-.045.008h-.015l-.13-1.013s0-.184-.321-.245a6.772 6.772 0 0 0-1.938-.213 13.922 13.922 0 0 0-1.412.076 10.71 10.71 0 0 0-4.313 1.56 1.514 1.514 0 0 0-.367.367l-.145.996-.106.018v.006a8.72 8.72 0 0 0-.481.117.767.767 0 0 0-.48.266l-.066.093a1.073 1.073 0 0 0-.108.161l-.112.207A64.581 64.581 0 0 0 .711 32.561a50.705 50.705 0 0 0-.7 8.464l-.01.002s-.047 6.745 1.72 9.269c1.264 1.806 2.388 2.214 2.924 2.3l3.977.64a.45.45 0 0 0 .072.006.435.435 0 0 0 .217-.057 1.249 1.249 0 0 0 .473-.526 66.486 66.486 0 0 0 3.051-7.02c1.492-3.97 1.927-6.172 4.979-7.228a7.567 7.567 0 0 1 1.438-.298h.007c.431.003 1.59.24 1.996.298.117.017.32.032.515.043a5.007 5.007 0 0 0 .506.026s1.125 0 1.756-.046c.296-.021 2.814-.028 5.402-.028v.005L32 38.407c1.693.001 2.965.004 2.965.004v-.006c2.589.001 5.107.008 5.403.03.631.045 1.756.045 1.756.045a5.007 5.007 0 0 0 .506-.026 7.73 7.73 0 0 0 .515-.043c.405-.057 1.565-.295 1.996-.298h.007a7.569 7.569 0 0 1 1.438.298c3.051 1.056 3.487 3.258 4.979 7.227a66.486 66.486 0 0 0 3.051 7.02 1.249 1.249 0 0 0 .473.527.435.435 0 0 0 .217.057.45.45 0 0 0 .072-.006l3.977-.64c.536-.087 1.66-.494 2.924-2.3 1.767-2.524 1.72-9.27 1.72-9.27zM48.37 12.324l.088-.676a7.45 7.45 0 0 1 1.558-.14 13.241 13.241 0 0 1 1.336.072 10.156 10.156 0 0 1 3.926 1.403c.05.04.09.074.12.1l.077.537-7.116-1.258c.002-.013.01-.024.012-.038zm-3.83.248a4.72 4.72 0 0 1 .402 1.41c-.048.203-.19.808-.365 1.697-.176.9-.427 2.066-.68 3.242l-.328 1.524q-.11.517-.204.994c-.064.314-.123.601-.181.875l-.006.013c-.002.009 0 .017-.002.026-.07.319-.137.612-.21.869-.667 2.4-3.44 2.388-3.56 2.41l-14.928-.002c-.11-.007-2.89 0-3.559-2.408-.137-.49-.259-1.096-.4-1.798-.064-.313-.13-.64-.202-.979l-.313-1.458a186.656 186.656 0 0 1-.695-3.308 43.381 43.381 0 0 0-.366-1.698 5.299 5.299 0 0 1 .383-1.396 123.781 123.781 0 0 1 12.67-.601 124.384 124.384 0 0 1 12.544.588zm-35.936.513c.03-.028.07-.062.12-.102a10.156 10.156 0 0 1 3.926-1.403 13.225 13.225 0 0 1 1.336-.072 7.465 7.465 0 0 1 1.558.14l.087.676c.002.013.01.024.012.037l-7.116 1.258zm-6.268 36.78C1.028 47.999.75 43.056.75 41.15a.755.755 0 0 0 .01-.13 50.164 50.164 0 0 1 .691-8.337 63.374 63.374 0 0 1 5.603-17.7l.113-.206a.665.665 0 0 1 .061-.087l.027-.04.107-.029c.181-.05.38-.095.54-.128l.003-.002 8.61-1.522.01-.001a35.94 35.94 0 0 1 1.955-.285 7.696 7.696 0 0 0-.29 1.256.375.375 0 0 0 .006.148c.002.005.163.66.375 1.737.18.92.439 2.12.699 3.323l.312 1.456c.071.335.138.66.2.97.063.312.122.598.18.872.002.007 0 .014 0 .022a1.966 1.966 0 0 1-.048 1.075 12.946 12.946 0 0 1-2.179 3.278c-.894 1.13-2.006 2.534-3.26 4.416-3.261 4.889-6.532 13.25-7.64 17.405a7.061 7.061 0 0 1-1.501 3.256c-.014.013-.01.033-.021.047l-.549-.088c-.35-.056-1.29-.363-2.429-1.99zm52.946 2.447a66.146 66.146 0 0 1-3.014-6.938c-.178-.473-.341-.922-.495-1.346-1.155-3.18-1.918-5.28-4.97-6.335a7.625 7.625 0 0 0-1.667-.33 11.745 11.745 0 0 0-1.577.218c-.213.037-.4.07-.519.088a7.784 7.784 0 0 1-.485.04 4.261 4.261 0 0 1-.43.021c-.011 0-1.105 0-1.701-.044-.11-.008-.402-.03-5.457-.03a.743.743 0 0 0-.09.005L32 37.657l-2.873.004a.755.755 0 0 0-.092-.006c-5.055.002-5.347.023-5.457.031a32.33 32.33 0 0 1-1.7.044 4.6 4.6 0 0 1-.462-.024 6.893 6.893 0 0 1-.454-.037 17.58 17.58 0 0 1-.519-.088 11.621 11.621 0 0 0-1.59-.218 7.7 7.7 0 0 0-1.683.34c-3.023 1.045-3.786 3.145-4.94 6.325-.155.424-.318.873-.496 1.346a66.132 66.132 0 0 1-3.014 6.938.75.75 0 0 1-.11.162l-2.46-.396a9.2 9.2 0 0 0 1.41-3.245c1.095-4.105 4.324-12.36 7.54-17.182 1.237-1.856 2.338-3.248 3.224-4.366a15.658 15.658 0 0 0 2.149-3.16c1.13 2.263 3.999 2.262 4.008 2.255l14.92.002h.003c.104 0 2.879-.035 3.997-2.235a15.611 15.611 0 0 0 2.15 3.163c.885 1.118 1.986 2.508 3.223 4.365 3.216 4.824 6.445 13.078 7.54 17.182a9.19 9.19 0 0 0 1.41 3.243l-2.329.378a.737.737 0 0 1-.113-.166zm6.384-2.446c-1.139 1.626-2.078 1.933-2.429 1.989l-.678.11c-.01-.014-.007-.034-.02-.046a7.044 7.044 0 0 1-1.5-3.255c-1.108-4.154-4.38-12.515-7.64-17.405-1.254-1.882-2.367-3.286-3.26-4.415a12.93 12.93 0 0 1-2.18-3.28 1.961 1.961 0 0 1-.051-1.051c.062-.289.125-.594.192-.925.064-.315.13-.645.204-.986l.326-1.523c.254-1.18.507-2.353.683-3.256.212-1.078.373-1.732.375-1.737a.375.375 0 0 0 .006-.147 7.632 7.632 0 0 0-.294-1.27c.806.097 1.504.197 2.064.298l.02.001 8.62 1.525c.159.033.355.077.543.13.037.01.07.017.1.027l.055.077a.33.33 0 0 1 .032.05l.107.195a63.36 63.36 0 0 1 5.609 17.71 50.164 50.164 0 0 1 .69 8.338.724.724 0 0 0 .011.127c0 1.904-.278 6.85-1.585 8.719zM50.71 22.993a2.447 2.447 0 1 0-2.447 2.447 2.45 2.45 0 0 0 2.447-2.447zm-2.447 1.697a1.697 1.697 0 1 1 1.697-1.697 1.7 1.7 0 0 1-1.697 1.697zm3.688-.437a2.448 2.448 0 1 0 2.447 2.447 2.45 2.45 0 0 0-2.447-2.447zm0 4.145a1.698 1.698 0 1 1 1.697-1.698 1.7 1.7 0 0 1-1.697 1.698zm0-6.665a2.447 2.447 0 1 0-2.448-2.447 2.45 2.45 0 0 0 2.448 2.447zm0-4.144a1.697 1.697 0 1 1-1.698 1.697 1.7 1.7 0 0 1 1.698-1.697zm3.688 2.957a2.447 2.447 0 1 0 2.447 2.447 2.45 2.45 0 0 0-2.447-2.447zm0 4.144a1.697 1.697 0 1 1 1.697-1.697 1.7 1.7 0 0 1-1.697 1.697zm-45.555-4.359a1.269 1.269 0 0 0 .401.906c.3.35.989 1.003 1.052 1.059a.885.885 0 0 0 .519.15.987.987 0 0 0 .585-.178c.029-.028.718-.68.989-1a1.293 1.293 0 0 0 .429-.913l.015-.239c.058-.571.09-1.41.09-1.424a1.295 1.295 0 0 0-1.098-1.239 8.528 8.528 0 0 0-.985-.089h-.016a8.318 8.318 0 0 0-.986.09 1.297 1.297 0 0 0-1.1 1.251s.033.84.09 1.399zm1.112-2.138h.004a7.665 7.665 0 0 1 .867-.079.019.019 0 0 1 .011 0 7.85 7.85 0 0 1 .87.08.54.54 0 0 1 .466.482c0 .003-.03.813-.087 1.379l-.017.276a.612.612 0 0 1-.222.42c-.263.308-.907.919-.917.936-.044.018-.157.018-.152.036-.007-.007-.69-.653-.992-1.002a.576.576 0 0 1-.194-.414l-.018-.265a27.241 27.241 0 0 1-.085-1.355.538.538 0 0 1 .466-.494zm-3.401 6.902h.009s.84-.033 1.397-.09l.24-.014a1.272 1.272 0 0 0 .895-.402c.35-.299 1.002-.987 1.059-1.052a1.02 1.02 0 0 0-.03-1.103c-.027-.03-.678-.718-1-.988a1.292 1.292 0 0 0-.91-.43h-.003L9.215 21a27.806 27.806 0 0 0-1.423-.09h-.008a1.294 1.294 0 0 0-1.233 1.099 8.589 8.589 0 0 0-.09.991 8.7 8.7 0 0 0 .089.992 1.297 1.297 0 0 0 1.245 1.102zm-.503-2.967a.537.537 0 0 1 .48-.467h.002c.003 0 .814.03 1.38.087l.275.017a.612.612 0 0 1 .42.222c.308.263.919.907.935.916.019.043.019.155.035.155l.001-.001c-.006.006-.651.69-1 .99a.637.637 0 0 1-.415.195l-.264.017c-.551.055-1.359.086-1.355.086h-.002a.54.54 0 0 1-.493-.47 7.897 7.897 0 0 1-.08-.874 7.796 7.796 0 0 1 .081-.873zm6.8 3.462a1.264 1.264 0 0 0-.402-.906c-.298-.351-.988-1.003-1.051-1.059a1.014 1.014 0 0 0-1.104.028c-.03.028-.719.68-.988 1a1.287 1.287 0 0 0-.43.913l-.015.238c-.058.571-.09 1.41-.09 1.423a1.294 1.294 0 0 0 1.1 1.24 8.6 8.6 0 0 0 .983.09h.014a8.415 8.415 0 0 0 .988-.09 1.296 1.296 0 0 0 1.098-1.252s-.032-.839-.089-1.398zm-1.113 2.138h-.002a7.988 7.988 0 0 1-.87.079h-.01a7.898 7.898 0 0 1-.869-.08.536.536 0 0 1-.466-.483c0-.003.03-.813.087-1.38l.016-.274a.612.612 0 0 1 .223-.42c.263-.308.907-.919.917-.936.044-.018.157-.018.152-.036.007.007.69.653.991 1.003a.563.563 0 0 1 .195.412l.016.265c.056.55.086 1.354.086 1.354a.538.538 0 0 1-.466.496zm-.23-5.26a1.02 1.02 0 0 0 .03 1.104c.027.03.678.718.998.989a1.296 1.296 0 0 0 .912.43h.002l.238.014c.571.058 1.41.09 1.423.09h.007a1.28 1.28 0 0 0 1.234-1.1 8.549 8.549 0 0 0 .089-.99 8.466 8.466 0 0 0-.09-.992 1.282 1.282 0 0 0-1.243-1.102h-.01s-.839.032-1.397.089l-.227.015a1.272 1.272 0 0 0-.907.402c-.351.299-1.002.987-1.059 1.052zm1.575-.509a.573.573 0 0 1 .414-.195l.265-.017c.55-.056 1.358-.086 1.354-.086h.002a.542.542 0 0 1 .494.47 7.897 7.897 0 0 1 .079.874 7.912 7.912 0 0 1-.08.87v.003a.541.541 0 0 1-.48.467h-.003c-.003 0-.813-.03-1.38-.087l-.274-.017a.61.61 0 0 1-.421-.222c-.308-.263-.918-.907-.935-.916-.018-.043-.018-.155-.035-.155v.001c.006-.007.65-.69 1-.99zm2.868-4.172a1.141 1.141 0 0 0 .214-.02 1.106 1.106 0 0 0 .871-1.298l-.279-1.415a1.117 1.117 0 0 0-1.299-.87 1.104 1.104 0 0 0-.87 1.297l.28 1.415a1.107 1.107 0 0 0 1.083.891zm-.348-2.867a.34.34 0 0 1 .07-.007.355.355 0 0 1 .348.285l.279 1.415a.355.355 0 0 1-.696.139l-.28-1.415a.355.355 0 0 1 .279-.417zM46.6 17.767a1.141 1.141 0 0 0 .213.02 1.107 1.107 0 0 0 1.084-.89l.28-1.416a1.105 1.105 0 0 0-2.17-.427l-.279 1.415a1.106 1.106 0 0 0 .872 1.298zm.144-2.569a.348.348 0 0 1 .418-.278.355.355 0 0 1 .278.417l-.279 1.415a.355.355 0 0 1-.696-.139z"/></svg>