<svg xmlns="http://www.w3.org/2000/svg" viewBox="0 0 64 64" class="ccsvg ccsvg--outline ccsvg--sega-saturn"><path class="ccsvg__primary" d="M63.855 36.55c-.372-2.669-1.18-8.38-7.015-15.394-5.835-7.015-14.898-9.064-14.898-9.064l-.494.064c-.636-.91-1.059-1.473-1.35-1.828-.3-.376-.531-.624-.64-.657l-.204-.007c-4.903-.182-9.81-.179-14.713.008-.186.055-.727.736-1.39 1.656-.072.099-.153.213-.233.326l-.04.057c-.102.143-.2.281-.316.447l-.504-.065S12.995 14.14 7.16 21.156C1.324 28.17.517 33.882.145 36.55c-.373 2.67.062 8.194.31 9.932.248 1.738.621 3.228 3.6 4.78 2.98 1.552 6.146 2.856 6.146 2.856s.629.352 1.374.352c.426 0 .89-.115 1.296-.476 1.117-.994 8.132-7.388 8.132-7.388 7.256.465 14.534.47 21.79.013l.204-.013s7.015 6.394 8.132 7.387c.407.362.87.477 1.296.477.745 0 1.374-.352 1.374-.352s3.166-1.304 6.145-2.856c2.98-1.552 3.352-3.042 3.6-4.78s.684-7.263.311-9.932Zm-8.802-11.406c0 .925-.752 1.678-1.677 1.678s-1.677-.753-1.677-1.678.752-1.677 1.677-1.677 1.677.752 1.677 1.677Zm-4.104 0a2.427 2.427 0 0 0 4.798.51c.75.964 1.423 1.985 2.012 3.055-.111-.011-.219-.033-.332-.033a3.22 3.22 0 1 0 1.819 5.873c-.431 2.564-2.231 4.893-4.795 6.09-1.9.885-4.015 1.075-5.953.532a.37.37 0 0 0-.08-.013v-.007a7.698 7.698 0 0 1-1.542-.632 30.966 30.966 0 0 1-.82-.394 3.203 3.203 0 0 0 1.274-2.55 3.22 3.22 0 0 0-3.219-3.219 3.208 3.208 0 0 0-3.18 2.835c-3.694-2.168-6.072-2.65-8.938-2.738-2.687.083-5.1.37-9.6 3.165-2.462 1.53-4.22 2.422-5.283 2.912a7.825 7.825 0 0 1-1.546.63.505.505 0 0 0-.052.01c-1.938.544-4.053.354-5.953-.531-4.078-1.902-6-6.438-4.3-10.088 0 0 .31-.554.403-.743.065-.131.133-.26.2-.39-1.064 3.62-.27 7.318 2.383 9.408 1.334 1.053 2.955 1.555 4.653 1.555 3.047 0 6.343-1.617 8.676-4.576 3.634-4.61 3.557-10.728-.171-13.668-1.335-1.052-2.955-1.554-4.654-1.554-1.498 0-3.055.395-4.53 1.144a38.914 38.914 0 0 1 3.34-2.373c1.556-.994 3.412-1.852 5.516-2.551a.373.373 0 0 0 .237-.233 21.051 21.051 0 0 1 1.764-3.843.228.228 0 0 0 .024-.03l.072-.104.007-.006c.242-.348.45-.64.63-.89l.039-.053.022-.03c.616-.84.867-1.105.964-1.188 4.745-.179 9.496-.18 14.241-.004l.102.003c.056.049.169.166.368.412.263.332.663.87 1.276 1.75.009.012.024.017.034.03l.056.08.026.032a20.986 20.986 0 0 1 1.761 3.841c.038.11.126.197.237.233 2.105.7 3.961 1.557 5.517 2.551 1.776 1.135 3.26 2.253 4.543 3.401a2.422 2.422 0 0 0-2.046 2.39v-.001Zm6.478 9.22c-1.362 0-2.47-1.107-2.47-2.469s1.108-2.469 2.47-2.469c1.361 0 2.469 1.108 2.469 2.47s-1.108 2.468-2.47 2.468h.001Zm-13.316 5.68a2.472 2.472 0 0 1-2.47-2.469 2.472 2.472 0 0 1 2.47-2.469 2.472 2.472 0 0 1 2.47 2.47 2.472 2.472 0 0 1-2.47 2.468ZM16.75 21.334c1.584 0 3.032.48 4.188 1.392 1.622 1.28 2.532 3.278 2.561 5.628.03 2.41-.862 4.892-2.514 6.986-2.118 2.687-5.141 4.29-8.087 4.29-1.584 0-3.033-.481-4.19-1.393C5.312 35.56 5.29 29.9 8.663 25.624c2.118-2.687 5.141-4.29 8.088-4.29h-.001Zm46.052 25.043c-.202 1.418-.394 2.757-3.204 4.22-2.914 1.519-6.054 2.815-6.085 2.828a.754.754 0 0 0-.08.04c-.006.002-.482.256-1.008.256-.32 0-.58-.094-.797-.287-1.102-.979-8.055-7.317-8.126-7.381a.75.75 0 0 0-.552-.194l-.204.013a171.84 171.84 0 0 1-21.743-.015.75.75 0 0 0-.505.196c-.07.064-7.024 6.402-8.126 7.381-.22.194-.504.297-.797.287-.53 0-1.006-.256-1.007-.257a.747.747 0 0 0-.081-.039c-.031-.013-3.171-1.31-6.085-2.827-2.81-1.464-3.002-2.803-3.204-4.22-.252-1.766-.662-7.203-.31-9.723.369-2.647 1.137-8.154 6.848-15.02 5.234-6.291 13.273-8.504 14.364-8.78l.061.007a21.772 21.772 0 0 0-1.497 3.288c-2.09.707-3.944 1.573-5.51 2.572-6.203 3.963-8.55 7.51-10.164 10.753-.09.18-.386.71-.398.735-1.888 4.049.198 9.032 4.65 11.108a9.564 9.564 0 0 0 4.041.907c.821 0 1.64-.11 2.432-.331l-.002-.006a.46.46 0 0 0 .087-.016 8.239 8.239 0 0 0 1.646-.672c1.542-.709 3.34-1.7 5.343-2.945 4.34-2.697 6.654-2.973 9.204-3.052 2.741.085 5.033.55 8.634 2.678l.314.186a3.211 3.211 0 0 0 3.17 2.727c.412 0 .802-.084 1.164-.225.486.25.921.463 1.265.62.517.28 1.08.511 1.75.707.019.006.04.01.06.012a9.005 9.005 0 0 0 2.377.317c1.37 0 2.752-.305 4.04-.907 3.109-1.449 5.202-4.442 5.334-7.624h-.004a3.214 3.214 0 0 0-1.346-4.727l.009-.004c-.925-1.76-1.938-3.259-3.092-4.585a2.421 2.421 0 0 0-1.411-1.49l-.182-.172c-1.435-1.36-3.142-2.667-5.219-3.994-1.565-1-3.418-1.864-5.51-2.572a21.841 21.841 0 0 0-1.496-3.29l.05-.006c1.091.277 9.13 2.49 14.364 8.781 5.71 6.865 6.479 12.373 6.848 15.02.352 2.52-.058 7.957-.31 9.722Zm-29.4-14.887h-3.01c-.763 0-1.384.62-1.384 1.383s.62 1.384 1.384 1.384h3.01c.763 0 1.384-.621 1.384-1.384s-.621-1.384-1.384-1.384v.001Zm0 2.017h-3.01a.634.634 0 1 1 0-1.268h3.01a.634.634 0 1 1 0 1.268Zm11.913-6.919a2.428 2.428 0 1 0 4.855 0 2.428 2.428 0 0 0-4.855 0Zm4.105 0c0 .924-.753 1.677-1.677 1.677s-1.678-.753-1.678-1.677.753-1.678 1.678-1.678 1.677.753 1.677 1.678Zm-6.839.825a2.428 2.428 0 1 0 0 4.855 2.428 2.428 0 0 0 0-4.855Zm0 4.105a1.679 1.679 0 0 1 0-3.355 1.679 1.679 0 0 1 0 3.355Zm4.549 2.332a3.22 3.22 0 0 0 6.44.004v-.004a3.22 3.22 0 0 0-6.44 0Zm3.22-2.469a2.472 2.472 0 0 1 2.47 2.47 2.472 2.472 0 0 1-2.47 2.469 2.472 2.472 0 0 1-2.47-2.47 2.472 2.472 0 0 1 2.47-2.469Zm-42.554-.73a1.77 1.77 0 0 0 2.13 1.732 4.344 4.344 0 0 0 2.237 2.237 1.77 1.77 0 1 0 3.464 0 4.343 4.343 0 0 0 2.308-2.411 1.77 1.77 0 1 0-.148-3.456 4.346 4.346 0 0 0-2.17-2.074 1.77 1.77 0 1 0-3.446 0 4.345 4.345 0 0 0-2.245 2.24 1.77 1.77 0 0 0-2.13 1.732Zm1.77-1.019c.069 0 .14.007.208.022a.75.75 0 0 0 .84-.434 3.575 3.575 0 0 1 1.857-1.853.75.75 0 0 0 .432-.856 1.02 1.02 0 1 1 1.984 0 .75.75 0 0 0 .432.856 3.59 3.59 0 0 1 1.794 1.715.75.75 0 0 0 .86.397 1.02 1.02 0 1 1 .084 1.99.75.75 0 0 0-.822.47 3.607 3.607 0 0 1-1.908 1.994.75.75 0 0 0-.434.84 1.02 1.02 0 1 1-1.995 0 .75.75 0 0 0-.435-.84 3.576 3.576 0 0 1-1.85-1.85.75.75 0 0 0-.839-.434 1.02 1.02 0 1 1-.209-2.017h.001Z"/></svg>