<svg xmlns="http://www.w3.org/2000/svg" viewBox="0 0 64 64" class="ccsvg ccsvg--outline ccsvg--snes"><path class="ccsvg__primary" d="M54.134 27.897a3.427 3.427 0 0 0-5.53-3.09l-6.226 4.882a3.43 3.43 0 0 0 4.244 5.391l6.227-4.892a3.393 3.393 0 0 0 1.285-2.29ZM52.386 29.6l-6.228 4.892a2.681 2.681 0 0 1-4.32-2.423 2.656 2.656 0 0 1 1.003-1.789l6.228-4.884a2.642 2.642 0 0 1 1.652-.579 2.791 2.791 0 0 1 .311.018 2.671 2.671 0 0 1 1.799 1.004 2.671 2.671 0 0 1-.445 3.76Zm-36.32-2.353a.606.606 0 0 0-.605-.605h-3.568a.607.607 0 0 0-.608.605v2.93H8.352a.61.61 0 0 0-.608.61v3.554a.61.61 0 0 0 .608.61h2.93v2.944a.608.608 0 0 0 .607.606h3.562a.608.608 0 0 0 .608-.606v-2.937h2.93a.608.608 0 0 0 .59-.464.38.38 0 0 0 .028-.145v-3.563a.61.61 0 0 0-.607-.61h-2.934Zm2.791 3.68v3.281h-2.941a.611.611 0 0 0-.607.613v2.93H12.03v-2.938a.613.613 0 0 0-.611-.613H8.494v-3.273h2.93a.61.61 0 0 0 .611-.606v-2.93h3.281v2.93a.607.607 0 0 0 .608.606Zm-5.185-6.414a8.055 8.055 0 1 0 8.055 8.054 8.066 8.066 0 0 0-8.055-8.054Zm0 15.36a7.305 7.305 0 1 1 7.305-7.306 7.315 7.315 0 0 1-7.305 7.305Zm36.905-19.338a11.908 11.908 0 1 0 11.908 11.907 11.921 11.921 0 0 0-11.908-11.907Zm0 23.066A11.158 11.158 0 1 1 61.735 32.44 11.17 11.17 0 0 1 50.577 43.6ZM56.898 30.1a2.252 2.252 0 1 0 2.25 2.25 2.25 2.25 0 0 0-2.25-2.25Zm0 3.754a1.502 1.502 0 1 1 1.5-1.504 1.504 1.504 0 0 1-1.5 1.504Zm-6.148 1.078a2.25 2.25 0 1 0 2.25 2.25 2.248 2.248 0 0 0-2.25-2.25Zm0 3.75a1.5 1.5 0 1 1 1.5-1.5 1.502 1.502 0 0 1-1.5 1.5Zm6.51-17.92a.363.363 0 0 0-.074-.064l-.012-.005a.997.997 0 0 0-.507-1.247 13.295 13.295 0 0 0-5.16-1.348 89.273 89.273 0 0 0-2.831-.032c-2.266 0-4.815.032-4.815.032a.527.527 0 0 0-.56.519v.315H20.699v-.315a.527.527 0 0 0-.56-.52s-2.55-.031-4.815-.031a89.27 89.27 0 0 0-2.832.032 13.295 13.295 0 0 0-5.16 1.348.998.998 0 0 0-.504 1.257c.017-.01.03-.015.047-.024a13.496 13.496 0 0 0 11.702 24.262h.006l.228-.104q.432-.186.849-.4c.74-.356 1.555-.768 2.053-1.063a5.88 5.88 0 0 1 2.974-.645h14.649a5.867 5.867 0 0 1 2.89.594c.398.23 1.398.738 1.826.972A13.495 13.495 0 0 0 57.26 20.762Zm-13.21-1.917c.62-.007 2.723-.03 4.626-.03 1.306 0 2.25.011 2.804.032a12.503 12.503 0 0 1 4.866 1.277.238.238 0 0 1 .137.187l-.002.005c-.008.013-.008.029-.014.042a13.9 13.9 0 0 0-5.766-1.372.388.388 0 0 0-.076-.007h-6.584c.001-.017.01-.03.01-.047ZM7.655 20.125a12.503 12.503 0 0 1 4.866-1.277 86.31 86.31 0 0 1 2.804-.031c1.897 0 3.993.022 4.625.03v.086c0 .016.008.03.01.046h-6.584a.368.368 0 0 0-.074.008 13.891 13.891 0 0 0-5.752 1.363c-.006-.013-.005-.027-.012-.04l-.015-.025a.236.236 0 0 1 .132-.16ZM50.5 45.183a12.764 12.764 0 0 1-6.088-1.545 52.62 52.62 0 0 0-.736-.389c-.405-.212-.843-.44-1.074-.574a6.644 6.644 0 0 0-3.266-.695H24.688a6.506 6.506 0 0 0-3.358.75c-.409.243-1.136.619-2.013 1.041-.262.135-.53.26-.847.398l-.148.067-.028.01a12.745 12.745 0 0 1-11.05-22.913c.02-.012.033-.032.052-.045l.012-.004a13.165 13.165 0 0 1 6.07-1.548.375.375 0 0 0 .067-.006h37.109a.384.384 0 0 0 .067.006 13.16 13.16 0 0 1 6.117 1.579c.01.006.016.017.027.023A12.744 12.744 0 0 1 50.5 45.183Zm.18-19.86a2.25 2.25 0 1 0 2.25 2.25 2.251 2.251 0 0 0-2.25-2.25Zm0 3.75a1.5 1.5 0 1 1 1.5-1.5 1.502 1.502 0 0 1-1.5 1.5Zm-6.149 1.079a2.25 2.25 0 1 0 2.25 2.25 2.248 2.248 0 0 0-2.25-2.25Zm0 3.75a1.5 1.5 0 1 1 1.5-1.5 1.502 1.502 0 0 1-1.5 1.5Zm15.091-3.717a3.424 3.424 0 0 0-4.814-.57l-6.228 4.883a3.428 3.428 0 0 0 1.723 6.102 3.347 3.347 0 0 0 .406.024 3.393 3.393 0 0 0 2.116-.74l6.228-4.882a3.425 3.425 0 0 0 .57-4.817Zm-.03 2.432a2.665 2.665 0 0 1-1.003 1.795l-6.229 4.884a2.679 2.679 0 0 1-3.316-4.208l6.228-4.884a2.673 2.673 0 0 1 3.761.446l.001.001a2.646 2.646 0 0 1 .559 1.966Zm-33.15-.13-2.657 2.17a1.328 1.328 0 0 0 .658 2.364 1.483 1.483 0 0 0 .16.01 1.333 1.333 0 0 0 .829-.29l2.67-2.175a1.328 1.328 0 0 0 .215-1.865 1.335 1.335 0 0 0-1.875-.214Zm1.194 1.492-.005.003-2.668 2.172a.585.585 0 0 1-.43.122.566.566 0 0 1-.384-.215.577.577 0 0 1 .104-.818l2.66-2.17a.582.582 0 0 1 .817.095.576.576 0 0 1-.094.81Zm6.905-1.775a1.312 1.312 0 0 0-.98.282l-2.667 2.172a1.33 1.33 0 0 0 .674 2.364 1.317 1.317 0 0 0 .978-.282l2.665-2.174a1.33 1.33 0 0 0-.67-2.362Zm.204 1.775-.006.003-2.665 2.174a.595.595 0 0 1-.42.121.58.58 0 0 1-.512-.645.569.569 0 0 1 .22-.388l2.67-2.174a.561.561 0 0 1 .354-.125.535.535 0 0 1 .068.004.58.58 0 0 1 .291 1.03Z"/></svg>