<svg xmlns="http://www.w3.org/2000/svg" viewBox="0 0 64 64" class="ccsvg ccsvg--outline ccsvg--stadia"><path class="ccsvg__primary" d="M50.605 20.532a2.39 2.39 0 0 0 0-4.778 2.39 2.39 0 0 0 0 4.778Zm0-4.028a1.64 1.64 0 0 1 0 3.278 1.64 1.64 0 0 1 0-3.278Zm-11.747 2.685h1.49a1.342 1.342 0 0 0 0-2.683h-1.49a1.342 1.342 0 0 0 0 2.683Zm0-1.933h1.49a.592.592 0 1 1 0 1.183h-1.49a.592.592 0 0 1 0-1.183Zm-15.227 1.943h1.49a1.342 1.342 0 0 0 0-2.683h-1.49a1.342 1.342 0 0 0 0 2.683Zm0-1.933h1.49a.592.592 0 0 1 0 1.183h-1.49a.592.592 0 0 1 0-1.183ZM42.27 27.662a4 4 0 0 0 0 8.001 4 4 0 0 0 0-8Zm0 7.251a3.25 3.25 0 0 1 0-6.5 3.25 3.25 0 0 1 0 6.5Zm8.335-10.498a2.39 2.39 0 0 0 0 4.778 2.39 2.39 0 0 0 0-4.778Zm0 4.028a1.64 1.64 0 0 1 0-3.278 1.64 1.64 0 0 1 0 3.278Zm-4.412-8.378a2.39 2.39 0 0 0 0 4.779 2.39 2.39 0 0 0 0-4.779Zm0 4.029a1.64 1.64 0 0 1 0-3.279 1.64 1.64 0 0 1 0 3.279ZM36.78 20.96a1.616 1.616 0 0 0 0 3.232 1.616 1.616 0 0 0 0-3.232Zm0 2.482a.866.866 0 0 1 0-1.732.866.866 0 0 1 0 1.732Zm18.116-3.377a2.39 2.39 0 0 0 0 4.779 2.39 2.39 0 0 0 0-4.779Zm0 4.029a1.64 1.64 0 0 1 0-3.279 1.64 1.64 0 0 1 0 3.279ZM32 29.089a2.51 2.51 0 0 0 0 5.02 2.51 2.51 0 0 0 0-5.02Zm0 4.27a1.76 1.76 0 0 1 0-3.52 1.76 1.76 0 0 1 0 3.52Zm-10.396-5.697a4 4 0 0 0 0 8.001 4 4 0 0 0 0-8Zm0 7.251a3.25 3.25 0 0 1 0-6.5 3.25 3.25 0 0 1 0 6.5Zm5.59-13.953a1.616 1.616 0 0 0 0 3.232 1.616 1.616 0 0 0 0-3.232Zm0 2.482a.866.866 0 0 1 0-1.732.866.866 0 0 1 0 1.732Zm-8.12-.987a2.049 2.049 0 0 0-2.047-2.047H15.51V18.89a2.046 2.046 0 1 0-4.093 0v1.518H9.897a2.047 2.047 0 0 0 0 4.094h1.519v1.519a2.046 2.046 0 0 0 4.093 0v-1.519h1.518a2.049 2.049 0 0 0 2.047-2.047Zm-2.047 1.297c-2.51-.015-2.278-.221-2.268 2.269a1.297 1.297 0 0 1-2.593 0v-1.603a.667.667 0 0 0-.667-.666H9.897a1.297 1.297 0 0 1 0-2.594H11.5a.667.667 0 0 0 .667-.667V18.89a1.296 1.296 0 1 1 2.593 0v1.601a.667.667 0 0 0 .667.667h1.601a1.297 1.297 0 0 1 0 2.594Zm46.88 20.093c-1.567-9.616-2.039-21.94-8.55-29.066l-.001-.001a2.965 2.965 0 0 0-1.729-2.244 15.604 15.604 0 0 0-3.595-1.27c-.208-.092-4.41-.901-4.518.562a23.704 23.704 0 0 0-.56-.007H19.05c-.185 0-.37.003-.555.007h-.004c-.1-1.464-4.323-.653-4.518-.561a15.604 15.604 0 0 0-3.596 1.269 2.965 2.965 0 0 0-1.729 2.245C3.072 20.547 1.845 31.275.097 43.845c-.853 7.867 4.964 10.393 9.81 8.621a7.244 7.244 0 0 0 3.326-3.819c.601-1.566 2.394-6.816 2.917-7.602 1.457-2.185 2.42-1.944 4.955-2.155H42.9c2.31.22 3.45-.129 4.955 2.155 1.02 2.008 2.111 5.555 2.918 7.602a6.392 6.392 0 0 0 6.662 4.35c4.564-.676 7.01-3.245 6.474-9.152ZM49.89 12.001c-.044-.017 3.39.758 4.293 1.903a15.922 15.922 0 0 0-7.783-2.047c.57-.406 3.526.098 3.49.144Zm-39.177 1.204a15.05 15.05 0 0 1 3.435-1.21c-.072-.04 2.877-.539 3.441-.145a15.932 15.932 0 0 0-7.75 2.034 2.61 2.61 0 0 1 .874-.68Zm52.147 34.96a6.14 6.14 0 0 1-5.54 4.092c-6.356.596-6.516-7.65-8.841-11.628-1.319-2.273-3.271-2.405-5.58-2.489H21.106c-2.305.09-4.261.215-5.579 2.49a63.14 63.14 0 0 0-2.496 6.394 7.58 7.58 0 0 1-3.46 4.77C4.155 53.788-.101 49.428.84 43.948c.726-5.153 1.369-10.39 2.471-15.45 1.092-4.807 2.533-9.698 5.946-13.276.465-.43 3.214-2.647 9.238-2.646l27.02.007c6.567.007 9.278 2.692 9.302 2.718a17.901 17.901 0 0 1 3.477 5.427c2.579 5.778 3.703 14.744 4.868 23.2a10.124 10.124 0 0 1-.303 4.236Z"/></svg>