<svg xmlns="http://www.w3.org/2000/svg" viewBox="0 0 64 64" class="ccsvg ccsvg--outline ccsvg--switch-pro"><path class="ccsvg__primary" d="M62.067 31.732c-.878-5.15-2.594-14.178-3.85-15.804a4.584 4.584 0 0 0-.885-.798l-.002-.002c-.077-.057-.137-.11-.22-.168-.561-1.915-2.994-3.758-5.271-4.494a20.843 20.843 0 0 0-5.543-.744 6.581 6.581 0 0 0-3.75.79q-.415-.017-.818-.018l-.356-.005-.063-.003-.19-.001c-1.793-.027-7.11-.106-9.119-.106-1.958 0-7.064.075-8.981.104l-.494.003c-.05 0-.11.006-.162.007l-.09.001q-.404 0-.819.019a6.582 6.582 0 0 0-3.75-.791 20.842 20.842 0 0 0-5.543.744c-2.277.736-4.71 2.579-5.27 4.494-.084.057-.144.111-.22.168l-.003.002a4.584 4.584 0 0 0-.885.798C4.527 17.554 2.81 26.58 1.933 31.732.973 37.365-.636 47.077.264 49.203c.748 2.71 3.047 5.075 5.516 5.075a5.287 5.287 0 0 0 4.458-2.402c2.174-3.548 4.254-8.072 4.808-9.143a3.221 3.221 0 0 1 3.147-1.62L32 41.053l13.807.06a3.221 3.221 0 0 1 3.147 1.62c.554 1.07 2.634 5.595 4.808 9.143a5.287 5.287 0 0 0 4.458 2.402c2.469 0 4.768-2.364 5.516-5.075.9-2.126-.709-11.838-1.67-17.47Zm-15.77-21.26a20.21 20.21 0 0 1 5.311.707 8.717 8.717 0 0 1 4.294 3.035 23.084 23.084 0 0 0-3.926-1.73 43.47 43.47 0 0 0-7.981-1.792 9.907 9.907 0 0 1 2.301-.22Zm-33.905.707a20.21 20.21 0 0 1 5.312-.707 10.047 10.047 0 0 1 2.253.21 42.937 42.937 0 0 0-7.933 1.801 23.084 23.084 0 0 0-3.926 1.73 8.717 8.717 0 0 1 4.294-3.034Zm50.653 37.732a.747.747 0 0 0-.032.093c-.7 2.537-2.805 4.524-4.792 4.524a4.524 4.524 0 0 1-3.82-2.043c-1.691-2.762-3.34-6.15-4.225-7.97a63.497 63.497 0 0 0-.556-1.126 3.985 3.985 0 0 0-3.81-2.026l-13.813-.06-13.835.06a3.967 3.967 0 0 0-3.782 2.026c-.12.23-.31.621-.556 1.127-.885 1.82-2.534 5.207-4.226 7.969a4.524 4.524 0 0 1-3.818 2.043c-1.988 0-4.093-1.987-4.792-4.524a.747.747 0 0 0-.033-.093c-.848-2.005 1.016-12.937 1.717-17.053 1.442-8.451 2.86-14.38 3.704-15.472a3.737 3.737 0 0 1 .72-.649.355.355 0 0 0 .035-.017 18.952 18.952 0 0 1 5.134-2.526 38.472 38.472 0 0 1 10.105-1.951l.635-.01c4.73-.031 13.567-.03 18.12.002l.238.004a39.333 39.333 0 0 1 10.372 1.955 18.952 18.952 0 0 1 5.134 2.526c.006.004.014.002.02.007a3.774 3.774 0 0 1 .735.66c.843 1.091 2.262 7.02 3.704 15.471.701 4.116 2.565 15.048 1.717 17.053ZM24.03 19.916a1.793 1.793 0 1 0-1.802-1.793 1.8 1.8 0 0 0 1.802 1.793Zm0-2.835a1.043 1.043 0 1 1-1.052 1.042 1.05 1.05 0 0 1 1.052-1.042Zm-5.636 5.903a4.115 4.115 0 1 0-4.116 4.088 4.106 4.106 0 0 0 4.116-4.088Zm-4.116 3.338a3.338 3.338 0 1 1 3.366-3.338 3.354 3.354 0 0 1-3.366 3.338Zm12.29 3.45-2.52-.028v-2.47a.78.78 0 0 0-.78-.778h-2.381a.781.781 0 0 0-.782.778l-.03 2.498h-2.487a.78.78 0 0 0-.781.778v2.364a.781.781 0 0 0 .78.778l2.518.029v2.47a.78.78 0 0 0 .782.777h2.38a.78.78 0 0 0 .78-.778l.032-2.498h2.49a.781.781 0 0 0 .78-.778V30.55a.78.78 0 0 0-.78-.778Zm.032 3.142-2.52.028a.781.781 0 0 0-.782.779l-.03 2.497-2.413-.028v-2.47a.78.78 0 0 0-.78-.778l-2.518-.028.03-2.392h2.488a.78.78 0 0 0 .78-.778l.032-2.498 2.41.028v2.47a.781.781 0 0 0 .782.778l2.52.028Zm1.696-11.693h-1.714a.799.799 0 0 0-.8.797v1.702a.799.799 0 0 0 .8.797h1.714a.8.8 0 0 0 .8-.797v-1.702a.8.8 0 0 0-.8-.797Zm.05 2.499-.05.047-1.764-.047.05-1.75 1.765.048Zm11.536-3.804a1.793 1.793 0 1 0-1.803-1.793 1.8 1.8 0 0 0 1.803 1.793Zm0-2.835a1.043 1.043 0 1 1-1.053 1.042 1.05 1.05 0 0 1 1.053-1.042Zm-1.577 5.787a1.803 1.803 0 1 0-1.803 1.793 1.8 1.8 0 0 0 1.803-1.793Zm-2.856 0a1.053 1.053 0 1 1 1.053 1.043 1.05 1.05 0 0 1-1.053-1.043Zm4.939 4.766a4.088 4.088 0 1 0 4.114 4.088 4.106 4.106 0 0 0-4.114-4.088Zm0 7.427a3.338 3.338 0 1 1 3.364-3.34 3.356 3.356 0 0 1-3.364 3.34Zm3.525-14.805a2.729 2.729 0 1 0 2.745 2.728 2.74 2.74 0 0 0-2.745-2.728Zm0 4.707a1.979 1.979 0 1 1 1.995-1.979 1.989 1.989 0 0 1-1.995 1.979Zm5.031-.386a2.728 2.728 0 1 0 2.745 2.729 2.74 2.74 0 0 0-2.745-2.729Zm0 4.706a1.978 1.978 0 1 1 1.995-1.977 1.988 1.988 0 0 1-1.995 1.977Zm0-7.891a2.728 2.728 0 1 0-2.745-2.729 2.74 2.74 0 0 0 2.745 2.729Zm0-4.707a1.978 1.978 0 1 1-1.995 1.978 1.988 1.988 0 0 1 1.995-1.977Zm5.032 3.57a2.729 2.729 0 1 0 2.745 2.73 2.74 2.74 0 0 0-2.745-2.73Zm0 4.708a1.979 1.979 0 1 1 1.995-1.979 1.989 1.989 0 0 1-1.995 1.979Z"/></svg>