<svg xmlns="http://www.w3.org/2000/svg" viewBox="0 0 64 64" class="ccsvg ccsvg--outline ccsvg--virtual-boy"><path class="ccsvg__primary" d="M9.845 5.762a8.866 8.866 0 0 1 5.153 1.692l.493.335.008-.007 5.854 3.949.19.128h20.914l.19-.128 5.856-3.95.014.012.485-.34a8.861 8.861 0 0 1 5.152-1.69 9.25 9.25 0 0 1 7.822 4.524 8.744 8.744 0 0 1 .177 8.766l-.083.159c-.352.648-.674 1.151-.986 1.639a14.945 14.945 0 0 0-1.34 2.44 9.388 9.388 0 0 0-.111 6.903c.522 1.783 1.445 5.03 1.762 6.75a47.153 47.153 0 0 1 .513 12.495 28.407 28.407 0 0 1-1.14 5.991l-.158.382a3.657 3.657 0 0 1-3.316 2.426 4.499 4.499 0 0 1-4.266-4.152c-.067-.642-.14-1.306-.215-1.977-.231-2.069-.47-4.208-.515-5.855-.053-1.929-.513-11.799-.653-14.778a3.9 3.9 0 0 0-1.185-2.644c-.954-1.146-3.38-1.289-5.584-1.331-.29-.006-.524-.01-.67-.022l-.035-.002h-.03a.98.98 0 0 0-.98.925l-.61 10.891a.049.049 0 0 1-.05.042H21.5a.048.048 0 0 1-.051-.042l-.61-10.89a.98.98 0 0 0-.98-.926h-.037l-.031.003c-.149.012-.388.016-.687.022-2.197.044-4.614.187-5.564 1.33a3.9 3.9 0 0 0-1.185 2.644c-.1 2.12-.598 12.793-.653 14.778-.045 1.647-.284 3.786-.515 5.855-.074.67-.148 1.335-.215 1.977a4.499 4.499 0 0 1-4.266 4.152 3.657 3.657 0 0 1-3.316-2.426l-.143-.34a27.955 27.955 0 0 1-1.155-6.033 47.155 47.155 0 0 1 .513-12.495c.317-1.72 1.24-4.967 1.752-6.718a9.396 9.396 0 0 0-.101-6.938 14.912 14.912 0 0 0-1.339-2.436c-.305-.476-.62-.968-.963-1.596l-.107-.203a8.742 8.742 0 0 1 .177-8.765 9.248 9.248 0 0 1 7.821-4.526m0-.75c-6.682 0-12.396 7.285-8.662 14.39l-.002.002c.946 1.782 1.688 2.522 2.384 4.176a8.758 8.758 0 0 1 .083 6.403c-.521 1.778-1.457 5.067-1.781 6.825a47.728 47.728 0 0 0-.52 12.713c.55 5.007 1.346 6.585 1.346 6.585l.005-.006a4.412 4.412 0 0 0 4.008 2.888 5.22 5.22 0 0 0 5.012-4.824c.275-2.64.673-5.674.734-7.89.054-1.971.545-12.481.652-14.763a3.17 3.17 0 0 1 .989-2.169c.947-1.225 4.874-1.04 5.761-1.115h.005a.23.23 0 0 1 .231.217l.61 10.891a.798.798 0 0 0 .8.75h21a.798.798 0 0 0 .8-.75l.61-10.891a.23.23 0 0 1 .23-.217h.006c.89.072 4.813-.108 5.761 1.115a3.17 3.17 0 0 1 .989 2.17c.107 2.28.598 12.79.652 14.763.061 2.215.46 5.249.734 7.889a5.22 5.22 0 0 0 5.012 4.824 4.412 4.412 0 0 0 4.008-2.888l.005.006s.795-1.578 1.346-6.585a47.727 47.727 0 0 0-.52-12.713c-.324-1.758-1.26-5.047-1.78-6.825a8.76 8.76 0 0 1 .082-6.403c.696-1.653 1.438-2.395 2.384-4.176l-.002-.002c3.735-7.11-1.983-14.39-8.663-14.39a9.653 9.653 0 0 0-5.582 1.827l-.006-.005-6.338 4.275H21.772l-6.338-4.275-.006.005a9.657 9.657 0 0 0-5.583-1.827Zm.972 15.526H8.352a.611.611 0 0 1-.612-.61v-2.73H4.983a.612.612 0 0 1-.612-.611V14.14a.611.611 0 0 1 .612-.61H7.74v-2.73a.611.611 0 0 1 .612-.61h2.465a.612.612 0 0 1 .613.61v2.73h2.757a.611.611 0 0 1 .61.61v2.446a.611.611 0 0 1-.61.61H11.43v2.73a.612.612 0 0 1-.613.611Zm-2.327-.75h2.19v-3.34h3.368V14.28H10.68v-3.34H8.49v3.34H5.121v2.166h3.37Zm9.921 1.76a2.41 2.41 0 1 1 2.427-2.41 2.421 2.421 0 0 1-2.427 2.41Zm0-4.07a1.66 1.66 0 1 0 1.677 1.66 1.67 1.67 0 0 0-1.677-1.66Zm5.236 6.409a2.41 2.41 0 1 1 2.427-2.41 2.421 2.421 0 0 1-2.427 2.41Zm0-4.07a1.66 1.66 0 1 0 1.677 1.66 1.67 1.67 0 0 0-1.677-1.66Zm10.2-3.766h-2.285a.745.745 0 0 1-.516-.21l-1.985-1.386a.743.743 0 0 1-.214-.837.734.734 0 0 1 .682-.459h6.35a.733.733 0 0 1 .514 1.259l-.045.037-2.032 1.425a.68.68 0 0 1-.468.17Zm2.017-2.172-6.335.03 1.994 1.358 2.325.034Zm.268.27-.26-.27Zm4.266 9.738a2.41 2.41 0 1 1 2.427-2.41 2.421 2.421 0 0 1-2.427 2.41Zm0-4.07a1.66 1.66 0 1 0 1.677 1.66 1.67 1.67 0 0 0-1.677-1.66Zm5.237 1.73a2.41 2.41 0 1 1 2.427-2.41 2.421 2.421 0 0 1-2.427 2.41Zm0-4.07a1.66 1.66 0 1 0 1.677 1.66 1.67 1.67 0 0 0-1.677-1.66Zm10.013 3.061h-2.465a.612.612 0 0 1-.613-.61v-2.73h-2.757a.611.611 0 0 1-.61-.611V14.14a.611.611 0 0 1 .61-.61h2.757v-2.73a.612.612 0 0 1 .613-.61h2.465a.611.611 0 0 1 .612.61v2.73h2.757a.611.611 0 0 1 .612.61v2.446a.612.612 0 0 1-.612.61H56.26v2.73a.611.611 0 0 1-.612.611Zm-2.328-.75h2.19v-3.34h3.369V14.28h-3.37v-3.34H53.32v3.34h-3.368v2.166h3.368Z"/></svg>