<svg xmlns="http://www.w3.org/2000/svg" viewBox="0 0 64 64" class="ccsvg ccsvg--outline ccsvg--wii-u-pro"><path class="ccsvg__primary" d="M12.928 27.663a4.349 4.349 0 1 1 4.323-4.349 4.341 4.341 0 0 1-4.323 4.35Zm0-7.947a3.599 3.599 0 1 0 3.573 3.598 3.59 3.59 0 0 0-3.573-3.598Zm7.977 19.133h-1.972a.94.94 0 0 1-.938-.942v-2.274h-2.258a.94.94 0 0 1-.938-.942v-1.985a.94.94 0 0 1 .938-.941h2.258V29.49a.941.941 0 0 1 .938-.942h1.972a.942.942 0 0 1 .939.942v2.274h2.258a.94.94 0 0 1 .937.941v1.985a.94.94 0 0 1-.937.942h-2.258v2.274a.94.94 0 0 1-.939.942Zm-5.168-6.334a.19.19 0 0 0-.188.191v1.985a.19.19 0 0 0 .188.192h2.376a.633.633 0 0 1 .632.633v2.391a.19.19 0 0 0 .188.192h1.972a.19.19 0 0 0 .189-.192v-2.391a.633.633 0 0 1 .63-.633h2.378a.19.19 0 0 0 .187-.192v-1.985a.19.19 0 0 0-.187-.191h-2.377a.633.633 0 0 1-.631-.633v-2.39a.19.19 0 0 0-.189-.193h-1.972a.19.19 0 0 0-.188.192v2.39a.633.633 0 0 1-.632.634Zm10.864-4.658a1.773 1.773 0 1 1 1.765-1.773 1.772 1.772 0 0 1-1.765 1.773Zm0-2.796a1.023 1.023 0 1 0 1.015 1.023 1.02 1.02 0 0 0-1.015-1.023Zm5.274 10.481a1.774 1.774 0 1 1 1.765-1.774 1.772 1.772 0 0 1-1.765 1.774Zm0-2.798a1.024 1.024 0 1 0 1.015 1.024 1.02 1.02 0 0 0-1.015-1.024Zm0-4.887a1.773 1.773 0 1 1 1.765-1.773 1.772 1.772 0 0 1-1.765 1.773Zm0-2.796a1.023 1.023 0 1 0 1.015 1.023 1.02 1.02 0 0 0-1.015-1.023Zm5.273 2.796a1.773 1.773 0 1 1 1.765-1.773 1.772 1.772 0 0 1-1.765 1.773Zm0-2.796a1.023 1.023 0 1 0 1.015 1.023 1.02 1.02 0 0 0-1.015-1.023Zm2.298 11.094a2.387 2.387 0 1 1 2.375-2.387 2.384 2.384 0 0 1-2.375 2.387Zm0-4.024a1.637 1.637 0 1 0 1.625 1.637 1.632 1.632 0 0 0-1.625-1.637Zm4.455 8.13a2.387 2.387 0 1 1 2.374-2.386 2.383 2.383 0 0 1-2.374 2.387Zm0-4.023a1.637 1.637 0 1 0 1.624 1.637 1.632 1.632 0 0 0-1.624-1.637Zm0-4.19a2.387 2.387 0 1 1 2.374-2.387 2.383 2.383 0 0 1-2.374 2.387Zm0-4.024a1.637 1.637 0 1 0 1.624 1.637 1.632 1.632 0 0 0-1.624-1.637Zm4.454 8.131a2.387 2.387 0 1 1 2.375-2.387 2.384 2.384 0 0 1-2.375 2.387Zm0-4.024a1.637 1.637 0 1 0 1.625 1.637 1.632 1.632 0 0 0-1.625-1.637Zm2.466-4.468a4.349 4.349 0 1 1 4.325-4.349 4.341 4.341 0 0 1-4.325 4.35Zm0-7.947a3.599 3.599 0 1 0 3.575 3.598 3.59 3.59 0 0 0-3.575-3.598ZM63.35 37.9c-.763-6.285-1.961-13.411-4.576-19.367a29.029 29.029 0 0 0-3.305-5.244 9.974 9.974 0 0 0-3.683-2.667l-.367-1.114c-.142-.543-.968-.807-1.8-.807h-.003c-.785 0-1.576.235-1.802.694a6.472 6.472 0 0 0-.19 1.152c-3.198.978-5.533 2.997-10.857 3.454-2.661.228-4.23.293-4.702.293h-.13c-.472 0-2.04-.065-4.702-.293-5.278-.453-7.62-2.44-10.776-3.427-.044-.225-.136-.761-.22-1.032a.47.47 0 0 0-.05-.147c-.227-.459-1.018-.694-1.803-.695h-.008c-.832 0-1.658.265-1.8.808l-.009.051-.337 1.057a9.907 9.907 0 0 0-3.7 2.673 29.03 29.03 0 0 0-3.304 5.244C2.61 24.489 1.413 31.615.65 37.9a105.261 105.261 0 0 0-.643 12.737A4.687 4.687 0 0 0 4.785 55.3a4.325 4.325 0 0 0 3.09-1.263c9.135-8.428 10.72-11.301 22.448-11.301q.86 0 1.795.02.889-.02 1.71-.02c11.642 0 13.34 3.053 22.297 11.301a4.326 4.326 0 0 0 3.09 1.264 4.687 4.687 0 0 0 4.778-4.663A105.247 105.247 0 0 0 63.35 37.9ZM48.5 10.2c0-.132.001-.356.01-.487a.426.426 0 0 1 .046-.032.611.611 0 0 1 .08-.047c.028-.013.067-.026.103-.04.041-.016.08-.032.131-.046.05-.015.114-.025.173-.037.052-.011.099-.024.157-.032a3.095 3.095 0 0 1 .372-.025c.017 0 .03-.003.046-.003a2.592 2.592 0 0 1 .603.07c.05.011.108.02.15.033.01.003.014.007.023.01a.64.64 0 0 1 .31.176l.264.83-.518-.023c-.688-.03-1.453-.065-1.953-.075.002-.076.002-.165.003-.271Zm-35.2-.48a1.68 1.68 0 0 1 1.08-.27 1.828 1.828 0 0 1 1.126.276l.01.02c.026.127.054.393.069.531l.023.197c-.499.013-1.206.044-1.852.073l-.608.026Zm49.943 40.935a3.589 3.589 0 0 1-1.045 2.64 4.253 4.253 0 0 1-2.983 1.255 3.592 3.592 0 0 1-2.582-1.065 331.352 331.352 0 0 1-2.868-2.68c-6.62-6.238-9.36-8.82-19.938-8.82-.552 0-1.128.007-1.693.02q-.945-.02-1.811-.02c-10.722 0-13.296 2.423-20.174 8.899-.85.8-1.77 1.667-2.802 2.62a3.57 3.57 0 0 1-2.562 1.045 4.253 4.253 0 0 1-2.983-1.255 3.612 3.612 0 0 1-1.045-2.67 105.374 105.374 0 0 1 .638-12.634c.692-5.704 1.83-13.035 4.502-19.122a28.531 28.531 0 0 1 3.165-5.05 9.237 9.237 0 0 1 3.335-2.468c.663-.012 2.807-.131 3.57-.131.047 0 .083 0 .119.002.026.01.043.035.07.043a24.26 24.26 0 0 1 2.928 1.179 22.478 22.478 0 0 0 8.085 2.306c2.731.233 4.28.295 4.766.295h.13c.485 0 2.035-.062 4.766-.296a22.476 22.476 0 0 0 8.085-2.305 24.255 24.255 0 0 1 2.928-1.179c.032-.01.053-.038.083-.051.012.003.017.02.03.02a.169.169 0 0 0 .034-.004 1.721 1.721 0 0 1 .249-.01c.687 0 2.508.098 3.346.125a9.147 9.147 0 0 1 3.346 2.468 28.535 28.535 0 0 1 3.155 5.022c2.687 6.12 3.826 13.452 4.518 19.156a105.567 105.567 0 0 1 .638 12.665Z"/></svg>