<svg xmlns="http://www.w3.org/2000/svg" viewBox="0 0 64 64" class="ccsvg ccsvg--outline ccsvg--wii-u"><path class="ccsvg__primary" d="M53.71 15.751c2.97.08 5.569.965 6.955 2.368 1.727 1.744 2.735 4.992 2.566 8.31v12.159c-.077 3.015-.954 5.656-2.345 7.063-1.58 1.603-4.44 2.598-7.466 2.598H10.577c-3.022 0-5.883-.996-7.465-2.598-1.39-1.407-2.267-4.048-2.345-7.044V26.392c-.167-3.28.841-6.528 2.57-8.274 1.387-1.403 3.99-2.288 6.943-2.367h43.43zm.01-.75H10.28c-2.975.079-5.86.954-7.477 2.59-1.94 1.96-2.956 5.48-2.784 8.839L.017 38.607c.078 3.011.945 5.935 2.562 7.57C4.373 47.996 7.492 49 10.577 49H53.42c3.085 0 6.208-1.004 8-2.821 1.617-1.636 2.484-4.56 2.562-7.57V26.43c.171-3.359-.844-6.88-2.784-8.839-1.617-1.636-4.502-2.511-7.477-2.59zM5.566 25.593c-1.499 0-2.717-1.232-2.717-2.744 0-1.514 1.218-2.745 2.717-2.745s2.72 1.231 2.72 2.745c0 1.512-1.22 2.744-2.72 2.744zm0-4.74c-1.085 0-1.967.895-1.967 1.996 0 1.1.882 1.994 1.967 1.994 1.086 0 1.97-.895 1.97-1.994 0-1.101-.884-1.995-1.97-1.995zM9.433 39.75H6.972a.64.64 0 0 1-.64-.64v-1.394a.64.64 0 0 1 .64-.64h2.46a.64.64 0 0 1 .641.64v1.394a.64.64 0 0 1-.64.64zM7.08 39h2.242v-1.175H7.081V39zm1.781-5.306h-1.32a.639.639 0 0 1-.637-.64v-1.388h-1.37a.638.638 0 0 1-.633-.642V29.69c0-.353.284-.641.632-.641h1.371V27.66a.64.64 0 0 1 .637-.641h1.32a.64.64 0 0 1 .637.641v1.388h1.367a.64.64 0 0 1 .637.641v1.334a.64.64 0 0 1-.637.642H9.5v1.389a.64.64 0 0 1-.637.64zm-1.207-.75H8.75v-1.386a.64.64 0 0 1 .637-.642h1.367v-1.117H9.386a.639.639 0 0 1-.637-.64v-1.39H7.655v1.39c0 .353-.285.64-.636.64H5.652v1.117H7.02a.64.64 0 0 1 .636.642v1.386zm32.275-13.63H24.064c-.823 0-1.492-.672-1.492-1.5s.67-1.502 1.492-1.502H39.93c.823 0 1.492.673 1.492 1.501s-.67 1.501-1.492 1.501zm-15.866-2.252c-.409 0-.742.337-.742.751s.333.751.742.751H39.93c.409 0 .742-.336.742-.75s-.333-.752-.742-.752H24.064zm7.812 30.48a1.69 1.69 0 0 1-1.68-1.695c0-.932.754-1.69 1.68-1.69s1.68.758 1.68 1.69a1.69 1.69 0 0 1-1.68 1.695zm0-2.636a.936.936 0 0 0-.93.94c0 .522.417.946.93.946s.93-.424.93-.945a.936.936 0 0 0-.93-.94zm14.155 2.07h-1.168a.639.639 0 0 1-.636-.64v-1.038c0-.353.285-.64.636-.64h1.168a.64.64 0 0 1 .64.64v1.039a.64.64 0 0 1-.64.64zm-1.054-.75h.945v-.818h-.945v.819zm3.647.869c-.683 0-1.238-.56-1.238-1.248s.555-1.248 1.238-1.248c.685 0 1.242.56 1.242 1.248s-.557 1.248-1.242 1.248zm0-1.746c-.27 0-.488.223-.488.498s.218.498.488.498c.272 0 .492-.224.492-.498s-.22-.498-.492-.498zm.426-2.636H14.706a.822.822 0 0 1-.82-.821V22.346c0-.452.368-.82.82-.82H49.05a.82.82 0 0 1 .816.82v19.546a.82.82 0 0 1-.816.82zM14.706 22.275a.073.073 0 0 0-.07.07v19.547c0 .037.034.07.07.07H49.05c.03 0 .066-.031.066-.07V22.346c0-.04-.036-.07-.066-.07H14.706zm38.426 19.312c-.68 0-1.235-.56-1.235-1.248s.554-1.248 1.235-1.248c.684 0 1.242.56 1.242 1.248s-.558 1.248-1.242 1.248zm0-1.746c-.267 0-.485.223-.485.498s.218.498.485.498c.271 0 .492-.224.492-.498s-.22-.498-.492-.498zm0-1.514c-.68 0-1.235-.56-1.235-1.248s.554-1.248 1.235-1.248c.684 0 1.242.56 1.242 1.248s-.558 1.248-1.242 1.248zm0-1.746c-.267 0-.485.224-.485.498s.218.498.485.498c.271 0 .492-.223.492-.498s-.22-.498-.492-.498zm-.04-4.648c-.852 0-1.546-.7-1.546-1.56 0-.86.694-1.56 1.547-1.56s1.547.7 1.547 1.56c0 .86-.695 1.56-1.547 1.56zm0-2.37a.803.803 0 0 0-.796.81c0 .446.357.81.797.81s.797-.364.797-.81a.803.803 0 0 0-.797-.81zm2.81 4.918c-.851 0-1.544-.7-1.544-1.56s.693-1.56 1.543-1.56c.853 0 1.546.7 1.546 1.56s-.693 1.56-1.546 1.56zm0-2.37c-.438 0-.794.363-.794.81s.356.81.793.81c.439 0 .796-.363.796-.81s-.357-.81-.796-.81zm0-2.785c-.851 0-1.544-.699-1.544-1.56s.693-1.56 1.543-1.56c.853 0 1.546.7 1.546 1.56s-.693 1.56-1.546 1.56zm0-2.37a.802.802 0 0 0-.794.81c0 .447.356.81.793.81a.804.804 0 0 0 .796-.81.804.804 0 0 0-.796-.81zm2.752 4.946a1.555 1.555 0 0 1-1.546-1.56c0-.859.694-1.558 1.546-1.558s1.547.7 1.547 1.559c0 .86-.694 1.56-1.547 1.56zm0-2.368c-.438 0-.796.362-.796.809s.358.81.796.81c.44 0 .797-.364.797-.81s-.357-.809-.797-.809zm-.383-3.823c-1.499 0-2.717-1.23-2.717-2.743 0-1.515 1.218-2.746 2.717-2.746s2.72 1.231 2.72 2.746c0 1.512-1.22 2.743-2.72 2.743zm0-4.74c-1.084 0-1.967.896-1.967 1.997 0 1.098.883 1.993 1.967 1.993 1.086 0 1.97-.895 1.97-1.993 0-1.1-.884-1.996-1.97-1.996z"/></svg>