<svg xmlns="http://www.w3.org/2000/svg" viewBox="0 0 64 64" class="ccsvg ccsvg--outline ccsvg--wii-classic"><path class="ccsvg__primary" d="M13.645 34.517h-2.656a.827.827 0 0 1-.827-.826v-2.756a.078.078 0 0 0-.077-.076H7.312a.827.827 0 0 1-.828-.825v-2.64a.827.827 0 0 1 .828-.824h2.773a.078.078 0 0 0 .077-.075v-2.758a.827.827 0 0 1 .827-.824h2.656a.827.827 0 0 1 .827.824v2.758a.078.078 0 0 0 .077.075h2.776a.827.827 0 0 1 .827.825v2.64a.827.827 0 0 1-.827.824H14.55a.078.078 0 0 0-.077.076v2.756a.827.827 0 0 1-.827.826ZM7.312 27.32a.075.075 0 0 0-.078.075v2.64a.076.076 0 0 0 .078.074h2.773a.827.827 0 0 1 .827.826v2.756a.076.076 0 0 0 .077.076h2.656a.076.076 0 0 0 .077-.076v-2.756a.827.827 0 0 1 .827-.826h2.776a.078.078 0 0 0 .077-.075v-2.64a.079.079 0 0 0-.077-.074H14.55a.827.827 0 0 1-.827-.825v-2.758a.079.079 0 0 0-.077-.074h-2.656a.079.079 0 0 0-.077.074v2.758a.827.827 0 0 1-.827.825Zm19.816 3.067a1.746 1.746 0 1 1 1.754-1.746 1.752 1.752 0 0 1-1.754 1.746Zm0-2.742a.996.996 0 1 0 1.004.996 1.001 1.001 0 0 0-1.004-.996ZM23.4 44.635a1.727 1.727 0 0 1-.66-.131l-2.697-1.114a1.71 1.71 0 0 1-.93-.93l-1.115-2.684a1.697 1.697 0 0 1 .003-1.311l1.121-2.683a1.708 1.708 0 0 1 .933-.925l2.7-1.108a1.715 1.715 0 0 1 1.315.002l2.699 1.115a1.727 1.727 0 0 1 .93.928l1.114 2.685a1.695 1.695 0 0 1-.002 1.312l-1.123 2.682a1.722 1.722 0 0 1-.932.925l-2.7 1.108a1.728 1.728 0 0 1-.656.13Zm.01-10.266a.968.968 0 0 0-.37.074l-2.7 1.108a.967.967 0 0 0-.527.521l-1.12 2.682a.95.95 0 0 0-.002.735l1.116 2.685a.973.973 0 0 0 .523.522l2.697 1.115a.966.966 0 0 0 .745 0l2.7-1.107a.973.973 0 0 0 .525-.52l1.122-2.682a.955.955 0 0 0 .001-.735l-1.115-2.686a.966.966 0 0 0-.523-.521l-2.699-1.116a.971.971 0 0 0-.373-.075Zm5.055 5.277Zm3.476-9.26a1.746 1.746 0 1 1 1.754-1.745 1.752 1.752 0 0 1-1.754 1.746Zm0-2.741a.996.996 0 1 0 1.004.996 1.001 1.001 0 0 0-1.004-.996Zm4.814 2.753a1.746 1.746 0 1 1 1.754-1.746 1.752 1.752 0 0 1-1.754 1.746Zm0-2.742a.996.996 0 1 0 1.004.996 1.001 1.001 0 0 0-1.004-.996Zm3.836 16.98a1.719 1.719 0 0 1-.66-.132l-2.697-1.114a1.708 1.708 0 0 1-.93-.93l-1.115-2.684a1.697 1.697 0 0 1 .002-1.311l1.123-2.683a1.728 1.728 0 0 1 .931-.925l2.701-1.108a1.733 1.733 0 0 1 1.316.002l2.697 1.115a1.703 1.703 0 0 1 .93.927l1.115 2.686A1.695 1.695 0 0 1 46 39.79l-1.121 2.682a1.727 1.727 0 0 1-.934.925l-2.699 1.108a1.728 1.728 0 0 1-.656.13Zm.01-10.266a.983.983 0 0 0-.37.072l-2.7 1.109a.976.976 0 0 0-.526.52l-1.122 2.683a.95.95 0 0 0 0 .735l1.114 2.685a.959.959 0 0 0 .524.522l2.698 1.115a.964.964 0 0 0 .744 0l2.7-1.107a.975.975 0 0 0 .525-.52l1.122-2.682v-.001a.946.946 0 0 0 0-.735l-1.114-2.685a.971.971 0 0 0-.523-.521l-2.698-1.116a.963.963 0 0 0-.373-.074Zm4.852-2.954a2.701 2.701 0 1 1 2.715-2.701 2.711 2.711 0 0 1-2.715 2.701Zm0-4.652a1.951 1.951 0 1 0 1.965 1.95 1.96 1.96 0 0 0-1.965-1.95Zm6.295 9.23a2.701 2.701 0 1 1 2.715-2.701 2.711 2.711 0 0 1-2.715 2.701Zm0-4.652a1.951 1.951 0 1 0 1.965 1.951 1.96 1.96 0 0 0-1.965-1.951Zm0-4.653a2.701 2.701 0 1 1 2.715-2.7 2.711 2.711 0 0 1-2.715 2.7Zm0-4.652a1.951 1.951 0 1 0 1.965 1.951 1.96 1.96 0 0 0-1.965-1.95Zm6.295 9.379a2.701 2.701 0 1 1 2.715-2.701 2.711 2.711 0 0 1-2.715 2.701Zm0-4.652a1.951 1.951 0 1 0 1.965 1.95 1.96 1.96 0 0 0-1.965-1.95Zm-1.714-8.319.076.043c-1.647-1.49-5.734-2.704-8.753-2.704-.961 0-1.474.236-1.715.598l-.038.004c-1.221.084-2.83.192-4.543.299a2.32 2.32 0 0 0-1.868-.713 2.201 2.201 0 0 0-2.06.941c-2.18.116-4.185.2-5.427.2s-3.249-.084-5.429-.2a2.202 2.202 0 0 0-2.06-.941 2.32 2.32 0 0 0-1.868.712c-1.711-.106-3.32-.214-4.54-.298l-.04-.004v-.026l.002-.009h-.002v-.003h-.007.007c-.242-.363-.755-.598-1.716-.598-3.02 0-7.106 1.253-8.752 2.744.024-.015.051-.028.076-.043a16.236 16.236 0 0 0-7.66 13.797 15.788 15.788 0 0 0 15.757 16.01 18.268 18.268 0 0 0 2.334-.152c3.7-.255 10.946-.727 13.898-.727s10.198.472 13.898.727a18.343 18.343 0 0 0 2.332.152c9.6 0 15.755-7.928 15.756-16.01a16.233 16.233 0 0 0-7.658-13.799Zm2.827 24.328a14.612 14.612 0 0 1-10.925 4.73 18.093 18.093 0 0 1-2.28-.149c-3.95-.272-11.013-.729-13.95-.729s-10 .457-13.994.733a17.603 17.603 0 0 1-2.238.146 14.613 14.613 0 0 1-10.919-4.73 15.61 15.61 0 0 1 0-21.061 14.612 14.612 0 0 1 10.92-4.73 18.024 18.024 0 0 1 2.282.151c3.948.272 11.011.729 13.95.729s10-.457 13.992-.733a17.68 17.68 0 0 1 2.237-.145 14.612 14.612 0 0 1 10.924 4.73 15.62 15.62 0 0 1 0 21.058Z"/></svg>