<svg xmlns="http://www.w3.org/2000/svg" viewBox="0 0 64 64" class="ccsvg ccsvg--outline ccsvg--wii"><path class="ccsvg__primary" d="M37.376.75a1.846 1.846 0 0 1 1.874 1.812v58.876a1.846 1.846 0 0 1-1.874 1.812H26.63a1.849 1.849 0 0 1-1.88-1.812V2.562A1.849 1.849 0 0 1 26.63.75h10.746m0-.75H26.63A2.605 2.605 0 0 0 24 2.562v58.876A2.606 2.606 0 0 0 26.63 64h10.746A2.602 2.602 0 0 0 40 61.438V2.562A2.601 2.601 0 0 0 37.376 0Zm-4.41 14.72h-1.93a.7.7 0 0 1-.704-.695v-1.963l-1.97.055a.7.7 0 0 1-.704-.695V9.543a.7.7 0 0 1 .704-.695h1.97V6.939a.7.7 0 0 1 .704-.695h1.93a.7.7 0 0 1 .704.695v1.963l1.972-.054a.7.7 0 0 1 .704.695v1.879a.7.7 0 0 1-.704.695h-2.018l.046 1.908a.7.7 0 0 1-.704.696Zm-2.588-3.353a.7.7 0 0 1 .704.695v1.963l1.884-.054-.046-1.909a.7.7 0 0 1 .704-.695h2.018l-.046-1.824-1.972.055a.7.7 0 0 1-.704-.696V6.94l-1.884.055.046 1.908a.7.7 0 0 1-.704.696h-2.016l.046 1.824Zm-2.52-6.744a1.653 1.653 0 0 1-1.67-1.633 1.669 1.669 0 0 1 3.337 0 1.652 1.652 0 0 1-1.668 1.633Zm0-2.518a.903.903 0 0 0-.92.885.92.92 0 0 0 1.837 0 .903.903 0 0 0-.918-.885Zm-.374 30.25a1.635 1.635 0 1 1 1.668-1.635 1.653 1.653 0 0 1-1.668 1.634Zm0-2.52a.885.885 0 1 0 .918.885.902.902 0 0 0-.918-.885Zm4.517 25.126a2.082 2.082 0 1 1 2.128-2.085A2.109 2.109 0 0 1 32 54.96Zm0-3.413a1.332 1.332 0 1 0 1.378 1.328A1.355 1.355 0 0 0 32 51.548Zm0-2.29a2.082 2.082 0 1 1 2.128-2.078A2.106 2.106 0 0 1 32 49.258Zm0-3.413a1.332 1.332 0 1 0 1.378 1.335A1.358 1.358 0 0 0 32 45.845Zm0-13.49a1.635 1.635 0 1 1 1.669-1.635 1.654 1.654 0 0 1-1.669 1.634Zm0-2.52a.885.885 0 1 0 .919.885.903.903 0 0 0-.919-.885Zm0-6.959a2.874 2.874 0 1 1 2.94-2.873 2.91 2.91 0 0 1-2.94 2.873Zm0-4.996a2.124 2.124 0 1 0 2.19 2.123 2.16 2.16 0 0 0-2.19-2.123Zm4.517 14.475a1.635 1.635 0 1 1 1.667-1.635 1.653 1.653 0 0 1-1.667 1.634Zm0-2.52a.885.885 0 1 0 .917.885.903.903 0 0 0-.917-.885Z"/></svg>