<svg xmlns="http://www.w3.org/2000/svg" viewBox="0 0 64 64" class="ccsvg ccsvg--outline ccsvg--xbox-360"><path class="ccsvg__primary" d="M25.477 23.218h-.92a1.72 1.72 0 0 1 0-3.44h.92a1.72 1.72 0 0 1 0 3.44Zm-.92-2.69a.97.97 0 0 0 0 1.94h.92a.97.97 0 0 0 0-1.94Zm-11.471 5.418a4.817 4.817 0 1 1 4.758-4.814 4.792 4.792 0 0 1-4.758 4.814Zm0-8.883a4.067 4.067 0 1 0 4.008 4.069 4.043 4.043 0 0 0-4.008-4.07ZM32 25.324a3.83 3.83 0 1 1 3.783-3.828A3.81 3.81 0 0 1 32 25.324Zm0-6.91a3.08 3.08 0 1 0 3.033 3.082A3.062 3.062 0 0 0 32 18.413Zm7.383 4.855h-.922a1.717 1.717 0 0 1 0-3.435h.922a1.717 1.717 0 0 1 0 3.435Zm-.922-2.685a.968.968 0 0 0 0 1.935h.922a.967.967 0 0 0 0-1.935Zm2.656 16.919a4.82 4.82 0 1 1 4.758-4.818 4.794 4.794 0 0 1-4.758 4.818Zm0-8.888a4.07 4.07 0 1 0 4.008 4.07 4.043 4.043 0 0 0-4.008-4.07Zm4.781-4.8a2.706 2.706 0 1 1 2.68-2.704 2.69 2.69 0 0 1-2.68 2.704Zm0-4.66a1.956 1.956 0 1 0 1.93 1.956 1.942 1.942 0 0 0-1.93-1.957Zm5.008 9.738a2.708 2.708 0 1 1 2.672-2.707 2.694 2.694 0 0 1-2.672 2.707Zm0-4.665a1.958 1.958 0 1 0 1.922 1.958 1.942 1.942 0 0 0-1.922-1.958Zm.058-5.494a2.706 2.706 0 1 1 2.672-2.708 2.693 2.693 0 0 1-2.672 2.708Zm0-4.662a1.956 1.956 0 1 0 1.922 1.954 1.94 1.94 0 0 0-1.922-1.954Zm5.031 9.736a2.706 2.706 0 1 1 2.672-2.704 2.69 2.69 0 0 1-2.672 2.704Zm0-4.661a1.956 1.956 0 1 0 1.922 1.957 1.942 1.942 0 0 0-1.922-1.958Zm-8.457-8.414c4.628 0 7.623 1.192 8.911 3.557 2.432 4.245 4.84 12.599 5.76 18.19l.03.263c.618 5.168 1.766 14.788.289 17.596a.745.745 0 0 0-.038.084 4.22 4.22 0 0 1-3.822 2.844 3.66 3.66 0 0 1-.914-.117q-.032-.008-.065-.014c-2.382-.393-5.997-2.88-7.785-4.9a24.528 24.528 0 0 0-5.03-3.866 29.337 29.337 0 0 0-7.742-2.048 274.057 274.057 0 0 0-4.915-.035c-2.043 0-4.042.013-5.348.035a29.124 29.124 0 0 0-7.723 2.04 23.367 23.367 0 0 0-5.118 3.971c-.986.907-1.918 1.764-2.762 2.418a14.185 14.185 0 0 1-5.02 2.4 3.66 3.66 0 0 1-.914.116 4.22 4.22 0 0 1-3.822-2.844.754.754 0 0 0-.038-.084c-1.477-2.808-.329-12.428.288-17.597l.027-.23c.924-5.623 3.332-13.977 5.772-18.236 1.28-2.351 4.275-3.543 8.903-3.543.926 0 1.915.05 2.94.15a12.399 12.399 0 0 1 1.126.601 18.425 18.425 0 0 0 1.848.97 18.555 18.555 0 0 0 6.047 1.161h7.194a18.397 18.397 0 0 0 6.006-1.162 18.24 18.24 0 0 0 1.863-.975 12.351 12.351 0 0 1 1.113-.596c1.025-.1 2.014-.15 2.94-.15m0-.749c-1.067 0-2.108.064-3.064.157-.418.059-2.077 1.181-3.139 1.62a17.686 17.686 0 0 1-5.76 1.105h-7.153a17.736 17.736 0 0 1-5.76-1.105c-1.056-.44-2.721-1.563-3.138-1.62a31.574 31.574 0 0 0-3.063-.157c-3.773 0-7.857.802-9.562 3.934-2.54 4.434-4.96 13.032-5.853 18.474-.668 5.597-1.85 15.235-.238 18.297a4.955 4.955 0 0 0 4.523 3.33 4.399 4.399 0 0 0 1.101-.141 14.803 14.803 0 0 0 5.27-2.516c2.445-1.894 5.435-5.261 7.753-6.317a28.824 28.824 0 0 1 7.426-1.972c1.327-.022 3.344-.035 5.335-.035 1.846 0 3.67.01 4.9.035a28.969 28.969 0 0 1 7.43 1.972 23.944 23.944 0 0 1 4.828 3.723c1.887 2.137 5.679 4.695 8.191 5.109a4.402 4.402 0 0 0 1.102.141 4.954 4.954 0 0 0 4.523-3.329c1.611-3.062.43-12.7-.238-18.297-.894-5.442-3.313-14.04-5.853-18.474-1.705-3.132-5.79-3.934-9.562-3.934ZM28.177 34.09c.038-.169.068-.34.092-.515.009-.062.022-.124.028-.187a6.013 6.013 0 0 0 0-1.409c-.007-.063-.019-.125-.028-.187a6.345 6.345 0 0 0-.092-.515c-.006-.026-.008-.052-.014-.078-.003-.014-.012-.026-.016-.04a6.272 6.272 0 0 0-4.5-4.575c-.015-.005-.029-.016-.045-.02-.033-.008-.066-.01-.099-.018a6.077 6.077 0 0 0-.479-.088c-.068-.01-.135-.024-.204-.032a5.76 5.76 0 0 0-1.4 0c-.068.008-.136.022-.204.032a6.086 6.086 0 0 0-.479.088c-.032.008-.066.01-.098.018-.017.004-.03.015-.047.02a6.273 6.273 0 0 0-4.5 4.578c-.003.013-.012.024-.015.037-.006.026-.008.052-.014.078-.038.169-.067.34-.092.515-.009.062-.021.124-.028.187a6.012 6.012 0 0 0 0 1.409c.007.063.02.125.028.187.025.174.054.346.092.515.006.026.008.052.014.078.003.013.012.024.015.037a6.273 6.273 0 0 0 4.503 4.579c.015.005.029.015.045.019.03.007.063.01.094.017.162.038.326.066.492.09.065.01.13.023.195.03a5.766 5.766 0 0 0 1.398 0c.066-.007.131-.02.197-.03.165-.024.328-.052.488-.09.032-.007.065-.01.098-.017.016-.004.03-.015.046-.02a6.273 6.273 0 0 0 4.5-4.578c.004-.013.012-.024.015-.037.006-.026.008-.052.014-.078Zm-.625-.786c-.006.058-.017.114-.025.17a5.58 5.58 0 0 1-.08.444c-.005.027-.013.053-.02.08a.13.13 0 0 1-.104.084l-1.739.245a1.806 1.806 0 0 0-1.815 1.769l-.261 1.868a.131.131 0 0 1-.081.103c-.028.007-.055.015-.083.021a5.395 5.395 0 0 1-.462.085c-.047.007-.093.016-.14.022a5.43 5.43 0 0 1-1.244 0c-.047-.006-.092-.015-.139-.022a5.394 5.394 0 0 1-.464-.085c-.027-.006-.054-.014-.08-.021a.13.13 0 0 1-.083-.102l-.256-1.818a1.806 1.806 0 0 0-1.762-1.816h-.006l-1.792-.249a.13.13 0 0 1-.103-.084l-.02-.08a5.537 5.537 0 0 1-.08-.442c-.008-.058-.019-.114-.025-.172a5.312 5.312 0 0 1 0-1.241c.006-.059.018-.116.026-.174.02-.147.045-.293.078-.438.006-.028.014-.055.021-.083a.132.132 0 0 1 .103-.083l1.74-.246a1.806 1.806 0 0 0 1.816-1.768l.26-1.868a.13.13 0 0 1 .082-.103c.027-.007.054-.015.081-.02.15-.036.3-.062.453-.084.05-.008.1-.018.151-.024a5.471 5.471 0 0 1 1.242 0c.05.006.1.016.151.024.152.022.304.048.453.083.027.006.054.014.08.021a.13.13 0 0 1 .083.102l.257 1.818a1.806 1.806 0 0 0 1.76 1.815h.007l1.791.25a.132.132 0 0 1 .104.083c.007.028.015.055.021.083.033.146.058.294.079.443.008.057.02.112.025.168a5.314 5.314 0 0 1 0 1.242Zm-.403-2.8-1.565-.215a1.088 1.088 0 0 1-1.073-1.121l-.22-1.576a5.54 5.54 0 0 1 2.858 2.913Zm-7.2-2.912-.223 1.628a1.088 1.088 0 0 1-1.122 1.073l-1.512.211a5.54 5.54 0 0 1 2.858-2.912Zm-2.857 7.27 1.564.215A1.089 1.089 0 0 1 19.73 36.2l.22 1.576a5.54 5.54 0 0 1-2.857-2.913Zm7.198 2.913.225-1.628a1.089 1.089 0 0 1 1.12-1.074l1.513-.21a5.54 5.54 0 0 1-2.858 2.912Z"/></svg>