<svg xmlns="http://www.w3.org/2000/svg" viewBox="0 0 64 64" class="ccsvg ccsvg--outline ccsvg--xbox-controller-s"><path class="ccsvg__primary" d="M20.824 8.751c.178.007.69.046 1.337.267.965.33 6.623 1.645 9.471 1.645h.736c2.848 0 8.506-1.316 9.47-1.645a4.861 4.861 0 0 1 1.338-.267c.716.186 5.338 1.405 7.752 2.524 1.99.923 3.213 1.69 3.445 1.937.177.322.653.832 1.041 1.04.294.157.53.422.663.747 1.05 2.545 4.55 11.24 5.55 16.257 1.456 7.309 2.336 11.72.86 18.425-.785 3.565-2.267 5.49-4.285 5.568l-.055.001c-.408 0-4.069-.117-6.904-4.187-2.842-4.082-3.029-6.71-3.03-6.731l-.018-.37-.303-.21c-.146-.102-3.733-2.504-15.767-2.504h-.25c-12.032 0-15.62 2.401-15.767 2.504l-.3.212-.02.363c-.002.026-.189 2.654-3.031 6.736-2.835 4.07-6.496 4.187-6.904 4.187h-.055c-2.018-.079-3.5-2.004-4.285-5.57-1.476-6.703-.596-11.115.86-18.424 1-5.017 4.5-13.712 5.55-16.257.134-.325.369-.59.663-.747.388-.208.864-.718 1.041-1.04.232-.248 1.455-1.014 3.445-1.937 2.414-1.119 7.036-2.338 7.752-2.524zM43.238 8c-.14 0-.788.017-1.641.308-.967.33-6.549 1.605-9.23 1.605h-.735c-2.68 0-8.262-1.275-9.229-1.605-.853-.29-1.5-.308-1.641-.308h-.029s-5.274 1.342-7.976 2.595c-1.999.926-3.604 1.869-3.78 2.243-.079.168-.477.609-.745.753a2.232 2.232 0 0 0-1.002 1.122c-1.107 2.685-4.583 11.33-5.592 16.396C.144 38.607-.716 43.044.78 49.842c1.1 4.991 3.337 6.093 4.989 6.158l.084.001c.803 0 4.607-.328 7.519-4.509 3.032-4.353 3.164-7.124 3.164-7.124s3.404-2.369 15.34-2.369a104.347 104.347 0 0 1 .249 0c11.937 0 15.339 2.37 15.339 2.37s.132 2.77 3.164 7.123C53.54 55.671 57.343 56 58.148 56l.083-.001c1.652-.064 3.89-1.166 4.988-6.157 1.497-6.798.637-11.235-.857-18.733-1.01-5.065-4.485-13.711-5.591-16.396a2.232 2.232 0 0 0-1.003-1.122c-.268-.144-.666-.585-.745-.753-.176-.374-1.781-1.317-3.78-2.243C48.541 9.342 43.267 8 43.267 8h-.029zM7.411 31.34c-.988 0-1.793-.804-1.793-1.792s.805-1.793 1.793-1.793 1.792.805 1.792 1.793S8.4 31.34 7.411 31.34zm0-2.835a1.044 1.044 0 0 0 0 2.086 1.044 1.044 0 0 0 0-2.086zm42.762-8.015c-1.43 0-2.595-1.164-2.595-2.595s1.164-2.596 2.595-2.596a2.597 2.597 0 0 1 0 5.191zm0-4.441a1.847 1.847 0 0 0 0 3.691 1.847 1.847 0 0 0 0-3.691zM11.015 35.485a2.07 2.07 0 0 1-2.067-2.067c0-1.14.927-2.068 2.067-2.068s2.067.927 2.067 2.068a2.07 2.07 0 0 1-2.067 2.067zm0-3.385a1.318 1.318 0 0 0 0 2.636 1.319 1.319 0 0 0 0-2.636zm2.768-4.837A4.49 4.49 0 0 1 9.3 22.775a4.49 4.49 0 0 1 4.483-4.486 4.49 4.49 0 0 1 4.485 4.486 4.49 4.49 0 0 1-4.485 4.488zm0-8.224c-2.058 0-3.733 1.676-3.733 3.736s1.675 3.738 3.733 3.738c2.06 0 3.735-1.677 3.735-3.738s-1.675-3.736-3.735-3.736zm18.204-2.732c3.114 0 5.638 2.526 5.638 5.642a5.64 5.64 0 1 1-11.278 0 5.64 5.64 0 0 1 5.64-5.642m0-.75c-3.523 0-6.39 2.867-6.39 6.392s2.867 6.392 6.39 6.392 6.388-2.868 6.388-6.392-2.866-6.392-6.388-6.392zm8.737 22.347a4.49 4.49 0 0 1-4.485-4.486c0-2.475 2.012-4.487 4.485-4.487s4.484 2.012 4.484 4.487a4.49 4.49 0 0 1-4.484 4.486zm0-8.223c-2.06 0-3.735 1.676-3.735 3.737s1.675 3.736 3.735 3.736 3.734-1.675 3.734-3.736-1.675-3.737-3.734-3.737zm4.592-4.31c-1.43 0-2.594-1.164-2.594-2.596s1.164-2.595 2.594-2.595 2.594 1.164 2.594 2.595-1.163 2.596-2.594 2.596zm0-4.441a1.847 1.847 0 0 0 0 3.691 1.847 1.847 0 0 0 0-3.691zm4.857 9.279c-1.43 0-2.595-1.164-2.595-2.596s1.164-2.595 2.595-2.595a2.597 2.597 0 0 1 0 5.191zm0-4.441c-1.018 0-1.845.828-1.845 1.845s.827 1.846 1.845 1.846a1.847 1.847 0 0 0 0-3.691zm.659 12.18c-1.213 0-2.2-.987-2.2-2.2s.987-2.2 2.2-2.2c1.212 0 2.198.987 2.198 2.2s-.986 2.2-2.198 2.2zm0-3.65a1.451 1.451 0 0 0 0 2.9 1.45 1.45 0 0 0 0-2.9zm4.196-8.927a2.597 2.597 0 0 1 0-5.191c1.431 0 2.595 1.164 2.595 2.595s-1.164 2.596-2.595 2.596zm0-4.441a1.847 1.847 0 0 0 0 3.691 1.847 1.847 0 0 0 0-3.691zm.682 12.972c-1.213 0-2.2-.987-2.2-2.2s.987-2.2 2.2-2.2 2.2.987 2.2 2.2-.987 2.2-2.2 2.2zm0-3.65c-.799 0-1.45.651-1.45 1.45 0 .8.651 1.45 1.45 1.45s1.45-.65 1.45-1.45c0-.799-.651-1.45-1.45-1.45zM22.475 27.98c-2.945 0-5.34 2.395-5.34 5.34s2.395 5.34 5.34 5.34 5.338-2.396 5.338-5.34-2.394-5.34-5.338-5.34zm1.178 6.843.108 2.448a.432.432 0 0 1-.432.432h-1.71a.432.432 0 0 1-.431-.432l.108-2.448c0-.12-.205-.324-.324-.324l-2.447.108a.432.432 0 0 1-.432-.432v-1.71c0-.24.194-.433.432-.433l2.447.108c.12 0 .324-.204.324-.324l-.108-2.448c0-.239.193-.432.432-.432h1.709c.238 0 .432.193.432.432l-.108 2.448c0 .12.204.324.324.324l2.447-.108c.238 0 .431.194.431.433v1.71a.432.432 0 0 1-.431.432l-2.447-.108c-.12 0-.324.205-.324.324zm2.93-3.508c-.055-.008-.103-.033-.16-.033l-2 .088.087-1.969c0-.07-.027-.128-.037-.193a4.594 4.594 0 0 1 2.11 2.107zM20.47 29.21c-.008.054-.032.101-.032.157l.088 2.003-1.968-.088h-.001c-.07 0-.129.027-.195.038a4.594 4.594 0 0 1 2.108-2.11zm-2.104 6.114c.054.007.103.032.159.032l2.001-.088-.087 1.97c0 .069.027.127.037.193a4.595 4.595 0 0 1-2.11-2.107zm6.113 2.104c.007-.054.032-.102.032-.158l-.088-2.002 1.967.087h.002c.07 0 .128-.027.194-.038a4.594 4.594 0 0 1-2.107 2.11z"/></svg>