<svg xmlns="http://www.w3.org/2000/svg" viewBox="0 0 64 64" class="ccsvg ccsvg--outline ccsvg--xbox-one"><path class="ccsvg__primary" d="M15.44 25.41c-2.183 0-3.96-1.783-3.96-3.973s1.777-3.973 3.96-3.973 3.959 1.782 3.959 3.973-1.777 3.972-3.96 3.972zm0-7.196c-1.77 0-3.21 1.445-3.21 3.223s1.44 3.222 3.21 3.222 3.209-1.445 3.209-3.222-1.44-3.223-3.21-3.223zm8.079 9.17c.78 0 1.413.187 1.413.417v2.478c0 .222.18.402.402.402h2.478c.23 0 .416.633.416 1.413s-.186 1.413-.416 1.413h-2.478a.403.403 0 0 0-.402.403v2.478c0 .23-.633.416-1.413.416s-1.413-.186-1.413-.416V33.91a.403.403 0 0 0-.403-.403h-2.478c-.23 0-.416-.632-.416-1.413 0-.78.186-1.413.416-1.413h2.478c.222 0 .403-.18.403-.402V27.8c0-.23.632-.416 1.413-.416zm0-.75c-1.375 0-2.163.426-2.163 1.167v2.13h-2.13c-.742 0-1.167.789-1.167 2.163 0 1.375.425 2.163 1.166 2.163h2.13v2.13c0 .742.79 1.167 2.164 1.167s2.163-.425 2.163-1.166v-2.13h2.13c.741 0 1.166-.789 1.166-2.164 0-1.374-.425-2.163-1.166-2.163h-2.13v-2.13c0-.741-.789-1.166-2.163-1.166zm3.82-3.238a1.882 1.882 0 0 1 0-3.764 1.88 1.88 0 0 1 1.875 1.88 1.88 1.88 0 0 1-1.875 1.884zm0-3.014a1.131 1.131 0 0 0 0 2.264 1.13 1.13 0 0 0 1.125-1.133 1.13 1.13 0 0 0-1.125-1.131zm4.691-7.493c.983 0 1.782.804 1.782 1.791 0 .988-.8 1.791-1.782 1.791a1.788 1.788 0 0 1-1.78-1.79c0-.988.798-1.792 1.78-1.792m0-.75a2.535 2.535 0 0 0-2.53 2.541 2.535 2.535 0 0 0 2.53 2.541 2.536 2.536 0 0 0 2.532-2.54 2.536 2.536 0 0 0-2.532-2.542zm16.845 7.78a2.615 2.615 0 0 1 0-5.23 2.61 2.61 0 0 1 2.602 2.615 2.611 2.611 0 0 1-2.602 2.615zm0-4.48a1.865 1.865 0 0 0 0 3.73c1.02 0 1.852-.837 1.852-1.865s-.831-1.864-1.852-1.864zm-12.151 7.957a1.88 1.88 0 0 1-1.873-1.883 1.88 1.88 0 0 1 1.873-1.881 1.88 1.88 0 0 1 1.875 1.88 1.88 1.88 0 0 1-1.875 1.884zm0-3.014c-.62 0-1.123.507-1.123 1.13a1.13 1.13 0 0 0 1.123 1.134 1.13 1.13 0 0 0 1.125-1.133 1.13 1.13 0 0 0-1.125-1.131zm3.878 14.991a3.97 3.97 0 0 1-3.961-3.97c0-2.192 1.777-3.975 3.96-3.975 2.182 0 3.958 1.783 3.958 3.974 0 2.19-1.776 3.971-3.957 3.971zm0-7.195a3.221 3.221 0 0 0-3.211 3.224 3.22 3.22 0 0 0 3.21 3.221 3.217 3.217 0 0 0 3.208-3.22c0-1.779-1.439-3.225-3.207-3.225zm3.808-3.857a2.613 2.613 0 0 1-2.605-2.614c0-1.442 1.169-2.616 2.605-2.616s2.606 1.174 2.606 2.616a2.613 2.613 0 0 1-2.606 2.614zm0-4.48a1.863 1.863 0 0 0-1.855 1.866c0 1.028.832 1.864 1.855 1.864s1.856-.836 1.856-1.864c0-1.03-.832-1.866-1.856-1.866zm4.465 8.807a2.616 2.616 0 0 1 0-5.23 2.61 2.61 0 0 1 2.602 2.614 2.612 2.612 0 0 1-2.602 2.616zm0-4.48a1.865 1.865 0 0 0 0 3.73c1.02 0 1.852-.836 1.852-1.866a1.86 1.86 0 0 0-1.852-1.864zm4.383.153a2.613 2.613 0 0 1-2.606-2.614 2.614 2.614 0 0 1 2.606-2.616 2.616 2.616 0 0 1 0 5.23zm0-4.48a1.863 1.863 0 0 0-1.856 1.866c0 1.028.832 1.864 1.856 1.864a1.865 1.865 0 0 0 0-3.73zm10.611 19.54a24.314 24.314 0 0 0-.2-.915.368.368 0 0 0 .002-.143c-.005-.027-.49-2.778-1.395-6.007-1.397-4.98-3.51-11.316-4.431-13.29-1.471-3.152-2.09-4.212-3.108-4.718-.086-.252-.552-1.34-1.043-1.831-.534-.538-3.398-1.935-5.166-2.433-1.262-.353-4.348-1.105-5.8-.422-.53.25-.812.442-1.018.583-.294.2-.393.268-1.002.31-.497.033-2.506.02-3.973.005-.025 0-.028 0-.042.002H27.37l-.042-.002c-1.468.014-3.476.028-3.972-.005-.61-.042-.708-.11-1.002-.31-.206-.14-.489-.334-1.018-.583-1.451-.683-4.54.067-5.8.422-1.768.498-4.633 1.895-5.167 2.433-.458.46-.909 1.475-1.027 1.79-1.068.49-1.677 1.526-3.184 4.757-.922 1.971-3.035 8.306-4.433 13.292C.819 35.545.336 38.296.33 38.323a.31.31 0 0 0 .004.127c-.072.309-.14.617-.202.933-1.375 7.139.054 12.224 4.02 14.32.133.07.263.144.395.218.403.227.82.463 1.322.623.246.078.465.111.661.111.528 0 .897-.238 1.196-.493 2.847-2.423 4.801-5.084 6.37-7.222.467-.634.901-1.226 1.318-1.756a14.08 14.08 0 0 1 2.531-2.452c.794-.434 1.345-.68 1.64-.727.244-.042.532-.08.821-.105H43.51a.378.378 0 0 0 .047-.002c.323.029.614.065.861.107.296.048.847.293 1.595.7a13.916 13.916 0 0 1 2.573 2.48c.42.533.857 1.129 1.326 1.767 1.568 2.135 3.518 4.791 6.363 7.211.41.349.949.668 1.857.381.505-.161.927-.4 1.334-.629.129-.072.256-.144.383-.212 3.964-2.094 5.392-7.18 4.021-14.321zM15.737 10.768c1.898-.535 4.28-.936 5.278-.467.475.224.72.39.916.524.378.26.595.386 1.373.439.401.026 1.635.03 3.992.007a.423.423 0 0 0 .035.002h9.407l.035-.002c2.356.023 3.585.02 3.986-.007.778-.053.995-.18 1.373-.439.196-.134.44-.3.916-.524.994-.469 3.378-.068 5.277.467 1.805.507 4.456 1.855 4.838 2.239.111.112.232.29.348.483-.23-.131-.472-.266-.734-.401-2.124-1.096-4.55-1.606-7.043-1.492a4.682 4.682 0 0 0-3.289 1.596 56.86 56.86 0 0 0-.954 1.14c-1.556 1.888-2.901 3.519-5.143 3.653-2.223.134-6.576.109-8.698 0-2.233-.115-3.573-1.744-5.123-3.63a56.766 56.766 0 0 0-.992-1.185 4.622 4.622 0 0 0-3.262-1.574c-2.485-.112-4.924.4-7.054 1.497a18.25 18.25 0 0 0-.63.341c.103-.17.209-.326.31-.428.382-.384 3.034-1.732 4.838-2.24zm43.76 42.273c-.134.071-.266.147-.4.222-.375.21-.763.43-1.194.567-.583.185-.862 0-1.143-.238-2.778-2.362-4.7-4.98-6.244-7.083a66.926 66.926 0 0 0-1.341-1.787c-.335-.429-1.273-1.543-2.759-2.647-.89-.488-1.487-.746-1.875-.808a12.814 12.814 0 0 0-.999-.123c-.04 0-.073 0-.108.007l-23.058.001c-.344.029-.653.07-.915.114-.392.064-.97.314-1.918.838a14.855 14.855 0 0 0-2.718 2.618 66.156 66.156 0 0 0-1.332 1.776c-1.547 2.107-3.471 4.728-6.253 7.094-.282.24-.561.423-1.142.238-.428-.136-.793-.343-1.18-.561-.139-.078-.275-.155-.414-.229C-.422 50.438.112 43.455.869 39.526c.07-.351.147-.696.228-1.04a.325.325 0 0 0-.004-.163c.105-.576.57-3.009 1.353-5.803 1.39-4.956 3.483-11.236 4.391-13.178.817-1.751 1.346-2.793 1.793-3.44a4.34 4.34 0 0 1 .227-.308 4.26 4.26 0 0 1 .532-.497c.247-.2.56-.42.976-.654l.014-.007c.282-.182.668-.41 1.184-.677 2.012-1.038 4.317-1.532 6.697-1.411a3.861 3.861 0 0 1 2.728 1.337c.332.382.65.768.96 1.145 1.594 1.94 3.1 3.773 5.662 3.903 2.14.113 6.535.136 8.783 0 2.568-.153 4.078-1.985 5.676-3.925.305-.37.617-.747.943-1.123.695-.8 1.7-1.288 2.758-1.34 2.363-.114 4.656.375 6.663 1.409.503.259.915.502 1.216.697l.002-.002s.561.32 1.018.686c.123.098.24.199.334.298l.01.011c.53.576 1.107 1.659 2.152 3.898.91 1.946 3.001 8.227 4.389 13.178a69.948 69.948 0 0 1 1.351 5.78.373.373 0 0 0-.003.19c.085.343.162.686.23 1.034.756 3.932 1.287 10.916-3.635 13.516z"/></svg>