<svg xmlns="http://www.w3.org/2000/svg" viewBox="0 0 64 64" class="ccsvg ccsvg--outline ccsvg--xbox-series-x"><path class="ccsvg__primary" d="M38.833 21.82c0-1.173-.955-2.128-2.129-2.128s-2.129.955-2.129 2.129.956 2.129 2.13 2.129 2.128-.955 2.128-2.13zm-3.508 0a1.379 1.379 0 1 1 2.758 0 1.379 1.379 0 0 1-2.758 0zm28.457 20.408c-.325-2.912-1-5.25-1-5.25s-4.664-16.855-7.876-21.475a5.848 5.848 0 0 0-.466-.582l.015-.015-.039-.038a4.183 4.183 0 0 0-.654-1.214c-.5-.63-1.217-1.763-3.418-2.728-.93-.407-2.495-.871-3.36-.997a23.472 23.472 0 0 0-2.6-.167c-.282 0-.524.01-.685.035-.343.052-.66.425-.66.425-.235.161-.587.748-1.379.763l-.727-.007-.22-.007v.005c-2.04-.017-6.849-.057-8.743-.057h-.007c-1.861 0-6.588.04-8.64.057v-.005l-.986.009v.004c-.79-.016-1.142-.6-1.376-.762 0 0-.317-.373-.66-.425a5.062 5.062 0 0 0-.685-.035c-.863 0-2.108.095-2.6.167-.865.126-2.43.59-3.36.997-2.201.965-2.919 2.098-3.418 2.728a4.239 4.239 0 0 0-.668 1.254 5.88 5.88 0 0 0-.476.595c-3.212 4.62-7.877 21.474-7.877 21.474s-.674 2.34-.999 5.25c-.823 5.8.911 8.436 1.461 9.118.506.627 2.52 2.893 4.398 2.893.164 0 .326-.017.487-.054 2.002-.463 5.452-5.086 5.452-5.086 1-1.238 2.027-2.552 2.975-3.76 1.531-1.95 3.042-2.901 4.205-3.362.311-.124.637-.208.968-.259a10.38 10.38 0 0 1 1.472-.119h20.728c.505.005.995.046 1.472.12.331.05.657.134.968.258 1.163.46 2.674 1.412 4.205 3.362.948 1.208 1.976 2.522 2.975 3.76 0 0 3.45 4.623 5.452 5.086.16.037.324.054.487.054 1.878 0 3.892-2.265 4.398-2.893.55-.682 2.284-3.317 1.461-9.117zM43.464 10.84a.752.752 0 0 0 .146-.132 1 1 0 0 1 .201-.17c.065-.01.224-.026.573-.026.845 0 2.06.096 2.492.159.798.116 2.307.565 3.167.942 1.522.667 2.255 1.41 2.725 1.989a13.64 13.64 0 0 0-4.236-1.775c-1.742-.406-3.726-.621-5.33-.736.064-.058.13-.119.178-.167.036-.036.067-.07.084-.084zm-29.507.773c.86-.377 2.37-.826 3.167-.942a22.98 22.98 0 0 1 2.492-.159c.348 0 .508.017.554.022a.77.77 0 0 1 .22.174.565.565 0 0 0 .133.123c.03.024.06.057.097.093.05.049.116.11.181.17-1.599.115-3.567.33-5.297.733a13.675 13.675 0 0 0-4.307 1.818c.469-.584 1.201-1.349 2.76-2.032zm47.78 39.261c-.73.904-2.464 2.614-3.814 2.614a1.42 1.42 0 0 1-.318-.035c-1.262-.291-3.749-3.101-5.037-4.826a306.455 306.455 0 0 1-2.681-3.385l-.288-.367c-1.365-1.739-2.885-2.949-4.518-3.596a5.217 5.217 0 0 0-1.132-.303 11.11 11.11 0 0 0-1.585-.128H21.63a11.18 11.18 0 0 0-1.578.128c-.398.06-.778.162-1.132.303-1.633.647-3.153 1.858-4.518 3.596l-.288.367a326.338 326.338 0 0 1-2.698 3.407c-1.271 1.703-3.758 4.513-5.02 4.804-.1.023-.208.035-.318.035-1.35 0-3.085-1.71-3.814-2.614-.502-.622-2.078-3.076-1.3-8.563.314-2.808.968-5.103.977-5.134.047-.167 4.667-16.782 7.77-21.246.119-.17.255-.34.404-.505l.004.004c.02-.02 2.027-2.05 5.556-2.872 2.672-.624 5.93-.787 7.421-.83 1.908-.017 6.95-.06 8.875-.06 1.95 0 7.076.044 8.98.06 1.496.044 4.745.207 7.412.83 3.195.744 5.136 2.473 5.483 2.802.012.016.016.037.03.052.154.17.293.344.415.519 3.103 4.463 7.723 21.08 7.772 21.254a35 35 0 0 1 .977 5.148c.776 5.465-.8 7.92-1.302 8.541zm-38.234-24.12a5.568 5.568 0 0 0-5.562 5.56 5.568 5.568 0 0 0 5.562 5.562 5.568 5.568 0 0 0 5.561-5.562 5.568 5.568 0 0 0-5.561-5.56zm4.209 3.274H25.82a.032.032 0 0 1-.03-.032v-1.89a4.799 4.799 0 0 1 1.922 1.922zm-2.673 4.604v2.184a4.08 4.08 0 0 1-.78.205 4.758 4.758 0 0 1-2.292-.203v-2.186c0-.43-.35-.781-.782-.781h-2.186a4.755 4.755 0 0 1-.203-2.293c.036-.244.103-.5.205-.78h2.184c.431 0 .782-.35.782-.782v-2.183c.277-.101.533-.168.78-.206a4.753 4.753 0 0 1 2.292.204v2.185c0 .432.35.782.781.782h2.187a4.75 4.75 0 0 1 .203 2.292 4.128 4.128 0 0 1-.206.78H25.82c-.43 0-.78.351-.78.782zm-3.827-6.524-.027 1.92h-1.891a4.797 4.797 0 0 1 1.918-1.92zm-1.915 6.498 1.92.026v1.891a4.798 4.798 0 0 1-1.92-1.917zm6.497 1.914.026-1.92h1.892a4.798 4.798 0 0 1-1.918 1.92zm1.591-12.57a2.131 2.131 0 0 0 2.129-2.13c0-1.173-.955-2.128-2.129-2.128s-2.129.955-2.129 2.129.955 2.129 2.13 2.129zm0-3.508a1.379 1.379 0 1 1 0 2.758 1.379 1.379 0 0 1 0-2.758zm12.994 6.681a4.356 4.356 0 0 0-4.351 4.352 4.355 4.355 0 0 0 4.351 4.35c2.4 0 4.352-1.951 4.352-4.35 0-2.4-1.953-4.352-4.352-4.352zm0 7.953a3.601 3.601 0 1 1 0-7.203 3.601 3.601 0 0 1 0 7.203zm-7.685-11.412h-1.388c-1.012 0-1.835.824-1.835 1.836s.823 1.835 1.835 1.835h1.388c1.012 0 1.835-.823 1.835-1.835s-.823-1.836-1.835-1.836zm0 2.921h-1.388a1.085 1.085 0 1 1 0-2.17h1.388a1.085 1.085 0 0 1 0 2.17zm-12.738-4.681c0-2.4-1.952-4.352-4.351-4.352s-4.352 1.952-4.352 4.352c0 2.399 1.952 4.351 4.352 4.351s4.351-1.952 4.351-4.351zm-4.351 3.601a3.601 3.601 0 1 1 0-7.203 3.601 3.601 0 0 1 0 7.203zm32.797-9.647c1.023 0 1.856.832 1.856 1.855s-.833 1.854-1.856 1.854c-1.022 0-1.854-.832-1.854-1.854s.832-1.855 1.854-1.855zm0-.75c-1.436 0-2.604 1.168-2.604 2.605s1.168 2.604 2.604 2.604 2.606-1.168 2.606-2.604-1.17-2.605-2.606-2.605zm-4.312 5.019c1.022 0 1.854.832 1.854 1.854s-.832 1.855-1.854 1.855-1.855-.832-1.855-1.855.832-1.854 1.855-1.854m0-.75c-1.437 0-2.605 1.168-2.605 2.604s1.168 2.605 2.605 2.605 2.604-1.168 2.604-2.605-1.168-2.604-2.604-2.604zm4.312 5.019c1.023 0 1.856.831 1.856 1.854s-.833 1.854-1.856 1.854c-1.022 0-1.854-.831-1.854-1.854s.832-1.854 1.854-1.854zm0-.75c-1.436 0-2.604 1.167-2.604 2.604a2.606 2.606 0 0 0 5.21 0 2.608 2.608 0 0 0-2.606-2.604zm4.284-3.519c1.023 0 1.855.832 1.855 1.854s-.832 1.855-1.855 1.855c-1.023 0-1.855-.832-1.855-1.855s.832-1.854 1.855-1.854zm0-.75c-1.437 0-2.605 1.168-2.605 2.604s1.168 2.605 2.605 2.605 2.605-1.168 2.605-2.605-1.169-2.604-2.605-2.604zM32 18.249c1.549 0 2.81-1.26 2.81-2.81s-1.261-2.81-2.81-2.81-2.81 1.26-2.81 2.81 1.261 2.81 2.81 2.81zm0-4.87c1.136 0 2.06.925 2.06 2.06S33.136 17.5 32 17.5s-2.06-.924-2.06-2.06.924-2.06 2.06-2.06z"/></svg>