<svg xmlns="http://www.w3.org/2000/svg" viewBox="0 0 64 64" class="ccsvg ccsvg--outline ccsvg--xbox"><path class="ccsvg__primary" d="M50.048 7.75c.172 0 .332.01.492.02.73.046.926.059 3.744 2.79 2.872 2.783 4.731 6.35 4.753 6.391 1.442 2.744 2.478 5.89 3.08 9.347.466 2.707 1.014 8.075 1.085 10.636.061 2.23.05 6.11.041 9.226a789.363 789.363 0 0 0-.005 3.116c.001.924-.13 4.076-1.876 5.824-.772.774-1.736 1.15-2.947 1.15-.159 0-.323-.007-.513-.022-.9-.077-1.78-.586-2.416-1.397l-7.763-9.908a.75.75 0 0 0-1.013-.156c-3.79 2.59-9.151 4.075-14.71 4.075s-10.92-1.485-14.71-4.075a.747.747 0 0 0-1.013.156l-7.763 9.908c-.636.811-1.517 1.32-2.437 1.399a6.1 6.1 0 0 1-.492.02c-1.21 0-2.174-.376-2.947-1.15C.892 53.352.761 50.2.762 49.276c.002-.848-.002-1.93-.005-3.116-.009-3.117-.02-6.996.041-9.226.071-2.561.619-7.929 1.085-10.635.602-3.459 1.638-6.604 3.083-9.353.019-.035 1.878-3.603 4.75-6.386 2.818-2.731 3.014-2.744 3.744-2.79.16-.01.32-.02.492-.02.713 0 1.722.17 4.258 1.4 2.64 1.28 5.514 2.546 9.066 2.726 1.204.06 3.046.097 4.926.097 1.854 0 3.462-.035 4.529-.098 3.616-.213 6.458-1.463 9.059-2.725 2.536-1.23 3.545-1.4 4.258-1.4m0-.75c-.853 0-1.975.208-4.585 1.475-2.574 1.249-5.331 2.448-8.777 2.652-1.124.066-2.793.096-4.484.096-1.824 0-3.673-.035-4.888-.096-3.448-.175-6.203-1.403-8.777-2.652C15.927 7.21 14.805 7 13.952 7c-.189 0-.364.01-.54.021-.968.062-1.218.093-4.218 3-3 2.908-4.894 6.581-4.894 6.581-1.251 2.38-2.453 5.526-3.156 9.568C.685 28.831.123 34.215.05 36.913c-.085 3.09-.032 9.271-.037 12.362C.008 52.258 1.082 57 5.585 57a6.85 6.85 0 0 0 .577-.025c1.169-.1 2.219-.758 2.942-1.682l7.763-9.907c3.777 2.582 9.15 4.206 15.133 4.206s11.356-1.624 15.133-4.206l7.763 9.907c.724.924 1.773 1.583 2.943 1.682l.024.002c.19.016.374.023.552.023 4.504 0 5.577-4.742 5.573-7.725-.005-3.09.048-9.273-.037-12.362-.074-2.698-.636-8.082-1.095-10.743-.703-4.042-1.905-7.188-3.156-9.568 0 0-1.894-3.673-4.894-6.58s-3.25-2.939-4.218-3a8.287 8.287 0 0 0-.54-.022zm-.473 9.398c-.797 0-1.617-.646-1.97-1.63-.238-.663-.224-1.359.039-1.909.188-.395.5-.685.877-.817l.001-.001c.946-.326 2.016.357 2.44 1.55.238.665.225 1.361-.038 1.91a1.552 1.552 0 0 1-.878.817c-.153.055-.312.08-.47.08zm-.807-3.648c-.24.084-.375.281-.448.433-.174.365-.177.863-.01 1.333.28.779.962 1.282 1.487 1.095.241-.085.378-.282.45-.433.174-.365.178-.864.009-1.334-.276-.775-.951-1.275-1.488-1.094zm-1.296 9.195c-.95 0-1.905-.764-2.332-1.954-.286-.798-.272-1.632.04-2.289.226-.476.584-.812 1.035-.973 1.097-.382 2.401.455 2.907 1.867.286.802.269 1.638-.047 2.295-.227.472-.585.803-1.035.959a1.732 1.732 0 0 1-.568.095zm-1.007-4.508c-.326.116-.51.382-.607.586-.224.472-.228 1.113-.013 1.714.367 1.02 1.24 1.653 1.95 1.404.325-.112.508-.374.604-.575.226-.47.233-1.113.017-1.717-.361-1.008-1.254-1.653-1.951-1.412zm.99 10.25c-.95 0-1.93-.775-2.354-1.952-.287-.802-.269-1.64.046-2.297.227-.473.584-.805 1.035-.962 1.096-.385 2.4.45 2.902 1.866.286.796.27 1.63-.044 2.29-.224.467-.59.81-1.034.963-.18.062-.365.093-.55.093zm-.715-4.555a.94.94 0 0 0-.311.052h-.001c-.324.113-.508.377-.605.579-.225.471-.232 1.114-.016 1.72.362 1.002 1.254 1.647 1.952 1.403.325-.113.508-.376.604-.578.226-.472.23-1.113.015-1.714-.307-.865-1.005-1.462-1.638-1.462zm-34.854 3.152c-2.386 0-4.326-1.917-4.326-4.272s1.94-4.272 4.326-4.272c2.385 0 4.324 1.916 4.324 4.272s-1.94 4.272-4.324 4.272zm0-7.794c-1.972 0-3.576 1.58-3.576 3.522 0 1.942 1.604 3.522 3.576 3.522 1.97 0 3.574-1.58 3.574-3.522 0-1.942-1.604-3.522-3.574-3.522zm4.74 22.492c-2.935 0-5.322-2.36-5.322-5.261 0-2.9 2.387-5.261 5.322-5.261 2.936 0 5.324 2.36 5.324 5.26 0 2.902-2.388 5.262-5.324 5.262zm0-9.772c-2.522 0-4.572 2.023-4.572 4.51s2.05 4.512 4.572 4.512c2.522 0 4.574-2.024 4.574-4.511s-2.052-4.511-4.574-4.511zm11.16 12.024c-1.441 0-2.57-.81-2.57-1.843s1.129-1.845 2.57-1.845c1.443 0 2.572.81 2.572 1.845s-1.13 1.843-2.572 1.843zm0-2.938c-.986 0-1.82.5-1.82 1.095 0 .592.834 1.093 1.82 1.093.987 0 1.822-.5 1.822-1.093 0-.594-.835-1.095-1.822-1.095zm8.429 2.938c-1.442 0-2.57-.81-2.57-1.843s1.128-1.845 2.57-1.845c1.443 0 2.574.81 2.574 1.845s-1.13 1.843-2.574 1.843zm0-2.938c-.986 0-1.82.5-1.82 1.095 0 .592.834 1.093 1.82 1.093.99 0 1.824-.5 1.824-1.093 0-.594-.835-1.095-1.824-1.095zM32 33.543c-5.219 0-9.465-4.192-9.465-9.346 0-5.157 4.246-9.353 9.465-9.353s9.464 4.196 9.464 9.353c0 5.154-4.245 9.346-9.464 9.346zm0-17.95c-4.806 0-8.715 3.86-8.715 8.604 0 4.74 3.91 8.596 8.715 8.596s8.714-3.856 8.714-8.596c0-4.744-3.91-8.603-8.714-8.603zm14.788 23.97c-2.385 0-4.324-1.917-4.324-4.274 0-2.354 1.94-4.27 4.324-4.27s4.324 1.916 4.324 4.27c0 2.357-1.94 4.274-4.324 4.274zm0-7.794c-1.97 0-3.574 1.579-3.574 3.52 0 1.943 1.603 3.524 3.574 3.524s3.574-1.58 3.574-3.524c0-1.941-1.603-3.52-3.574-3.52zm5.842-1.395c-.95 0-1.93-.776-2.355-1.954-.286-.802-.268-1.638.046-2.295.227-.473.584-.807 1.034-.964 1.1-.379 2.397.453 2.903 1.863.287.796.271 1.631-.042 2.29-.227.476-.584.81-1.034.967v.001c-.18.063-.366.092-.552.092zm-.718-4.556a.947.947 0 0 0-.308.051c-.327.114-.51.378-.606.58-.226.47-.232 1.113-.017 1.718.362 1.005 1.257 1.652 1.953 1.406.325-.113.508-.379.604-.58.226-.473.23-1.114.015-1.715-.31-.863-1.01-1.46-1.64-1.46zm.736-1.146c-.95 0-1.926-.776-2.346-1.953-.286-.8-.27-1.636.044-2.294.225-.476.583-.81 1.033-.967 1.1-.39 2.401.453 2.906 1.862.285.803.269 1.639-.046 2.295-.226.473-.584.805-1.034.963a1.678 1.678 0 0 1-.557.094zm-.7-4.56a.95.95 0 0 0-.321.054c-.325.113-.508.379-.605.581-.225.473-.23 1.115-.014 1.719.36 1.007 1.254 1.65 1.949 1.404.326-.114.51-.378.606-.579.225-.47.23-1.112.016-1.718-.312-.873-.996-1.462-1.63-1.462zm2.804-.953c-.802 0-1.624-.647-1.974-1.63-.236-.662-.222-1.357.04-1.907.189-.396.5-.687.877-.82.926-.326 2.022.37 2.443 1.552.236.665.221 1.36-.04 1.908-.189.395-.5.686-.877.818l-.002.001c-.153.053-.31.078-.467.078zm-.576-3.688a.69.69 0 0 0-.232.039c-.24.085-.377.283-.449.434-.174.366-.178.864-.01 1.333.276.777.954 1.28 1.489 1.095.239-.084.375-.282.447-.433.174-.364.178-.863.01-1.334-.239-.67-.775-1.134-1.255-1.134z"/></svg>