<svg id="Layer_1" data-name="Layer 1" xmlns="http://www.w3.org/2000/svg" viewBox="0 0 64 64"><defs><style>.cls-1{fill:#000;}.cls-2{opacity:0.5;}</style></defs><path class="cls-1" d="M19.30273,18.05142a.37632.37632,0,0,1,.43244.3562l.00207.01288a6.93006,6.93006,0,0,1,0,2.20844l-.00207.01288a.37628.37628,0,0,1-.43244.3562l-1.526-.02967a.34174.34174,0,0,0-.394.36933l.04437,1.44177a.36868.36868,0,0,1-.38171.40527l-.02911.004a8.53294,8.53294,0,0,1-2.36792-.004.36912.36912,0,0,1-.38239-.40051l.02216-1.45251a.342.342,0,0,0-.3938-.36505l-1.57794.03234a.37631.37631,0,0,1-.43164-.35638l-.00232-.01453a6.92725,6.92725,0,0,1,0-2.20678l.00232-.01453a.3763.3763,0,0,1,.43164-.35632l1.57794.03235a.34207.34207,0,0,0,.3938-.36512L14.266,16.26523a.36912.36912,0,0,1,.38239-.40051,8.53563,8.53563,0,0,1,2.36792-.004l.02911.004a.36867.36867,0,0,1,.38171.40521l-.04437,1.44177a.34182.34182,0,0,0,.394.36945ZM63.81006,38.85605a48.87613,48.87613,0,0,1-1.07568,8.25043,46.25138,46.25138,0,0,1-3.04188,8.4118.18322.18322,0,0,1-.01611.03278l-.02441.04913c-.67987.79816-5.92664.984-7.35047,1.01984a1.48181,1.48181,0,0,1-.67352-.143l-.02484-.01178a1.49078,1.49078,0,0,0-.64856-.14337l-3.88739.0282a1.48988,1.48988,0,0,1-.89844-.29328l-.39093-.29a1.48967,1.48967,0,0,0-.60138-.26557H18.82355a1.48967,1.48967,0,0,0-.60138.26557l-.39093.29a1.48988,1.48988,0,0,1-.89844.29328l-3.88739-.0282a1.49078,1.49078,0,0,0-.64856.14337L12.372,56.477a1.48181,1.48181,0,0,1-.67352.143c-1.42383-.03589-6.6706-.22168-7.35047-1.01984l-.02441-.04913a.18322.18322,0,0,1-.01611-.03278,46.25138,46.25138,0,0,1-3.04188-8.4118A48.87613,48.87613,0,0,1,.18994,38.85605,24.34979,24.34979,0,0,1,.03265,34.5029C1.05591,13.24155,13.35522,10.09744,17.50916,9.643a2.65637,2.65637,0,0,0,1.63439-.69348,2.96083,2.96083,0,0,1,1.56659-.68689A87.399,87.399,0,0,1,32.0238,7.37992a97.58264,97.58264,0,0,1,10.43641.699A4.41116,4.41116,0,0,1,44.863,8.967a2.55157,2.55157,0,0,0,1.57531.67029c4.10169.43378,16.50141,3.51392,17.52906,24.8656A24.34979,24.34979,0,0,1,63.81006,38.85605ZM20.87878,19.52469A4.90651,4.90651,0,0,0,15.81,14.79837a4.90658,4.90658,0,0,0-5.06885,4.72632A4.90663,4.90663,0,0,0,15.81,24.25107,4.90656,4.90656,0,0,0,20.87878,19.52469Zm5.49677,32.20416a.75348.75348,0,0,0-.75348-.75348H22.40271a.75348.75348,0,0,0,0,1.507h3.21936A.75347.75347,0,0,0,26.37555,51.72885Zm0-5.17541A.75347.75347,0,0,0,25.62207,45.8H22.40271a.75348.75348,0,0,0,0,1.507h3.21936A.75347.75347,0,0,0,26.37555,46.55344Zm.12561-5.17536a.75348.75348,0,0,0-.75348-.75348H22.52826a.75348.75348,0,0,0,0,1.507h3.21942A.75347.75347,0,0,0,26.50116,41.37808Zm0-5.17541a.75347.75347,0,0,0-.75348-.75348H22.52826a.75348.75348,0,0,0,0,1.507h3.21942A.75347.75347,0,0,0,26.50116,36.20267ZM27.72339,25.925,29.725,23.23551a.70137.70137,0,0,0-1.12531-.83747l-2.00159,2.68952a.70134.70134,0,0,0,1.12525.83746Zm6.58838,25.80383a.75348.75348,0,0,0-.75348-.75348H30.33887a.75348.75348,0,0,0,0,1.507h3.21942A.75347.75347,0,0,0,34.31177,51.72885Zm0-5.17541A.75347.75347,0,0,0,33.55829,45.8H30.33887a.75348.75348,0,0,0,0,1.507h3.21942A.75347.75347,0,0,0,34.31177,46.55344Zm.12555-5.17536a.75348.75348,0,0,0-.75348-.75348H30.46442a.75348.75348,0,0,0,0,1.507h3.21942A.75347.75347,0,0,0,34.43732,41.37808Zm0-5.17541a.75347.75347,0,0,0-.75348-.75348H30.46442a.75348.75348,0,0,0,0,1.507h3.21942A.75347.75347,0,0,0,34.43732,36.20267Zm-.1062-13.95032a.70138.70138,0,0,0-.98139.14386l-2.00159,2.68952a.70134.70134,0,0,0,1.12525.83746L34.475,23.23374A.70138.70138,0,0,0,34.33112,22.25235Zm7.8941,29.545a.75347.75347,0,0,0-.75348-.75347H38.25232a.75348.75348,0,1,0,0,1.50695h3.21942A.75347.75347,0,0,0,42.22522,51.79733Zm0-5.17535a.75347.75347,0,0,0-.75348-.75348H38.25232a.75348.75348,0,0,0,0,1.507h3.21942A.75347.75347,0,0,0,42.22522,46.622Zm.12555-5.17541a.75347.75347,0,0,0-.75348-.75348H38.37793a.75348.75348,0,1,0,0,1.507h3.21936A.75347.75347,0,0,0,42.35077,41.44657Zm0-5.17536a.75347.75347,0,0,0-.75348-.75348H38.37793a.75345.75345,0,1,0,0,1.5069h3.21936A.75346.75346,0,0,0,42.35077,36.27121Zm3.40912-10.56256c-1.139-.60919-1.907-1.033-2.8606-1.45679-.59-.26226-1.72162-1.05944-2.56921.2649L38.6676,27.37338a1.87679,1.87679,0,0,0-.23132,1.30506,1.09973,1.09973,0,0,0,1.17865.95025c1.58923.02643,4.31732.02643,4.31732.02643.43616,0,.92706.23841,1.50977-.874s.59564-1.13275.76812-1.50977A1.01661,1.01661,0,0,0,45.75989,25.70865Zm3.73462-4.97949c-.82111-.47675-3.60224-1.82758-3.60224-1.82758s-1.19189-.60919-1.80108.29132l-1.4303,1.82758a1.07173,1.07173,0,0,0,.39734,1.69519c1.09082.61652,2.96716,1.48785,3.34814,1.66357A1.45813,1.45813,0,0,0,48.3291,24.199c.51947-.65424.997-1.32239,1.21942-1.639a2.03431,2.03431,0,0,0,.32117-.70258A.952.952,0,0,0,49.49451,20.72916Zm4.02154-4.651c-.76861-.44629-3.15826-1.43585-3.46032-1.56043-.01868-.00769-.037-.01587-.0553-.02441-.16693-.07776-1.17169-.50275-1.73847.24847a1.4137,1.4137,0,0,1-.13.14569l-1.31226,1.315a1.32373,1.32373,0,0,0-.33331.54119.99738.99738,0,0,0,.51837,1.20685,1.35432,1.35432,0,0,0,.17322.093L50.444,19.51322c.02149.0097.04291.01959.0639.03033a1.48458,1.48458,0,0,0,1.79413-.24469c.68866-.74164,1.04566-1.07324,1.26807-1.38989a2.03336,2.03336,0,0,0,.32111-.70258A.952.952,0,0,0,53.51605,16.07816Z"/><g class="cls-2"><path class="cls-1" d="M38.252,52.57031a.773.773,0,0,1,0-1.5459h3.21973a.773.773,0,1,1,0,1.5459ZM30.33887,52.502a.773.773,0,1,1,0-1.5459h3.21972a.773.773,0,0,1,0,1.5459Zm-7.93653,0a.773.773,0,0,1,0-1.5459h3.21973a.773.773,0,1,1,0,1.5459ZM38.252,47.39453a.773.773,0,0,1,0-1.5459h3.21973a.773.773,0,1,1,0,1.5459Zm-7.91308-.06836a.773.773,0,1,1,0-1.5459h3.21972a.773.773,0,0,1,0,1.5459Zm-7.93653,0a.773.773,0,0,1,0-1.5459h3.21973a.773.773,0,1,1,0,1.5459Zm15.97559-5.10644a.773.773,0,1,1,0-1.5459h3.21973a.773.773,0,0,1,0,1.5459Zm-7.91309-.06836a.773.773,0,1,1,0-1.5459h3.21875a.773.773,0,1,1,0,1.5459Zm-7.93652,0a.773.773,0,1,1,0-1.5459h3.21973a.773.773,0,0,1,0,1.5459ZM38.37793,37.044a.773.773,0,1,1,0-1.5459h3.21973a.773.773,0,0,1,0,1.5459Zm-7.91309-.06836a.773.773,0,1,1,0-1.5459h3.21875a.773.773,0,1,1,0,1.5459Zm-7.93652,0a.773.773,0,1,1,0-1.5459h3.21973a.773.773,0,0,1,0,1.5459Zm21.8125-7.27881c-.07324,0-.14453-.00586-.21387-.01123-.0664-.00537-.13086-.01026-.19433-.01026,0,0-2.72852,0-4.31739-.02636a1.12384,1.12384,0,0,1-1.19824-.9668,1.89066,1.89066,0,0,1,.2334-1.31885l1.66211-2.85693a1.3869,1.3869,0,0,1,1.19043-.75244,2.72136,2.72136,0,0,1,1.1748.36914c.083.0415.16016.07959.2295.11084.84082.37353,1.52441.73974,2.4707,1.24707l.3916.21a1.028,1.028,0,0,1,.47168,1.561c-.166.3628-.19336.416-.60644,1.20508l-.17481.3335C45.043,29.58691,44.67578,29.69678,44.34082,29.69678ZM27.16016,26.22754a.71307.71307,0,0,1-.42969-.14258.723.723,0,0,1-.14844-1.00928l2.002-2.68945a.72338.72338,0,0,1,.57911-.291.713.713,0,0,1,.42968.14258.72018.72018,0,0,1,.14746,1.00928l-2.001,2.68945A.722.722,0,0,1,27.16016,26.22754Zm4.75-.002a.72125.72125,0,0,1-.57813-1.15137L33.334,22.38428a.72292.72292,0,0,1,.57911-.29053.72061.72061,0,0,1,.57714,1.15186l-2.001,2.68945a.7229.7229,0,0,1-.5791.29053ZM47.376,24.688a2.11449,2.11449,0,0,1-.91407-.25977c-.43164-.20019-2.32129-1.07812-3.41308-1.69482a1.205,1.205,0,0,1-.66309-.79736,1.28138,1.28138,0,0,1,.25977-.92823l1.42969-1.82715a1.10779,1.10779,0,0,1,.97265-.50048,2.11623,2.11623,0,0,1,.85352.20361c.02734.01318,2.791,1.35644,3.60254,1.82812a.97335.97335,0,0,1,.38574,1.14991,2.06372,2.06372,0,0,1-.32422.71c-.22266.3164-.70117.98535-1.2207,1.63916a1.2395,1.2395,0,0,1-.96778.477Zm-31.56641-.417a4.93127,4.93127,0,0,1-5.08789-4.7461,4.93166,4.93166,0,0,1,5.08789-4.74658,4.93192,4.93192,0,0,1,5.08887,4.74658A4.93153,4.93153,0,0,1,15.80957,24.271Zm-1.87109-3.32666a.38386.38386,0,0,1,.28711.127.33338.33338,0,0,1,.082.26269l-.02246,1.45069a.32417.32417,0,0,0,.08105.25586.37613.37613,0,0,0,.28223.124,8.54258,8.54258,0,0,0,2.36523.0044.41088.41088,0,0,0,.31543-.13086.31789.31789,0,0,0,.07813-.25586l-.04395-1.44385a.32627.32627,0,0,1,.08008-.26318.382.382,0,0,1,.28906-.1294s1.58106.03223,1.58692.03223a.39744.39744,0,0,0,.28906-.09619.32838.32838,0,0,0,.10742-.24024,6.92516,6.92516,0,0,0,.002-2.21777.35934.35934,0,0,0-.36718-.35547l-1.58594.03271a.39768.39768,0,0,1-.32129-.127.32744.32744,0,0,1-.08008-.26514l.04395-1.43945a.32057.32057,0,0,0-.07813-.2583.37257.37257,0,0,0-.28418-.12646,8.65426,8.65426,0,0,0-1.19824-.08448,8.51267,8.51267,0,0,0-1.19531.08448.37785.37785,0,0,0-.28516.124.32213.32213,0,0,0-.08105.25391l.02246,1.45459a.32664.32664,0,0,1-.083.26123.38179.38179,0,0,1-.28613.127l-1.62891-.03516a.36351.36351,0,0,0-.40527.33643,6.92545,6.92545,0,0,0-.002,2.21777.35934.35934,0,0,0,.36719.35694Zm37.36816-1.18311A1.84079,1.84079,0,0,1,50.499,19.561l-3.3291-1.49952a1.26662,1.26662,0,0,1-.17578-.09423,1.01842,1.01842,0,0,1-.52734-1.2295,1.36063,1.36063,0,0,1,.33789-.54931l1.3125-1.31494a1.33744,1.33744,0,0,0,.1289-.144,1.11,1.11,0,0,1,.9336-.44629,2.09687,2.09687,0,0,1,.8291.1919c.32812.13672,2.74707,1.13867,3.5166,1.58594a.97312.97312,0,0,1,.38574,1.1499,2.06354,2.06354,0,0,1-.32422.71,7.41549,7.41549,0,0,1-.68066.76709c-.16406.17187-.3584.375-.58984.62451a1.33262,1.33262,0,0,1-1.00977.44873Z"/></g></svg>