<svg id="Layer_1" data-name="Layer 1" xmlns="http://www.w3.org/2000/svg" viewBox="0 0 64 64"><defs><style>.cls-1{opacity:0.5;}</style></defs><path d="M34.60889,36.57031H30.63818a.66016.66016,0,1,0,0,1.32031h3.97071a.66016.66016,0,1,0,0-1.32031Z"/><path d="M43.12567,38.66015a2.708,2.708,0,1,0-2.70715-2.709A2.70845,2.70845,0,0,0,43.12567,38.66015Z"/><path d="M27.6499,36.57031H23.68115a.66016.66016,0,1,0,0,1.32031H27.6499a.66016.66016,0,1,0,0-1.32031Z"/><path d="M3.20166,21.9746a1.202,1.202,0,0,0-1.19922,1.19922V42.77734a1.20211,1.20211,0,0,0,1.19922,1.19922H21.148V42.63293a.91546.91546,0,0,1,.91406-.91437H36.21924a.918.918,0,0,1,.91406.91437v1.34363h23.667a1.20218,1.20218,0,0,0,1.19922-1.19922V23.17382a1.20207,1.20207,0,0,0-1.19922-1.19922H37.13721V23.502a.91528.91528,0,0,1-.91407.91406H22.06787a.91527.91527,0,0,1-.91406-.91406V21.9746ZM18.33057,35.55273a.77541.77541,0,0,1-.77539.77539H14.356l-.02539,3.22656a.775.775,0,0,1-.77539.77344H10.354a.77344.77344,0,0,1-.77343-.77344V36.35156L6.356,36.32812a.776.776,0,0,1-.77539-.77539V32.35351a.7754.7754,0,0,1,.77539-.77539H9.55518l.02539-3.22461a.776.776,0,0,1,.77539-.77539h3.19922a.77541.77541,0,0,1,.77539.77539v3.19922l3.22461.02539a.776.776,0,0,1,.77539.77539Zm30.7951-2.79883a.80164.80164,0,0,1,.80042-.80078h6.3988a.802.802,0,0,1,.80078.80078v6.39844a.802.802,0,0,1-.80078.80078h-6.3988a.80168.80168,0,0,1-.80042-.80078Zm-10.00018,0a.80183.80183,0,0,1,.80078-.80078h6.39862a.802.802,0,0,1,.80078.80078v6.39844a.802.802,0,0,1-.80078.80078H39.92627a.80188.80188,0,0,1-.80078-.80078ZM37.1333,39.77343a.9125.9125,0,0,1-.91406.91388H22.063a.91249.91249,0,0,1-.914-.91388V34.7539a.91523.91523,0,0,1,.914-.91406H36.21924a.91524.91524,0,0,1,.91406.91406ZM21.15478,26.166a.91524.91524,0,0,1,.91407-.91406H36.22314a.91524.91524,0,0,1,.91407.91406v1.59375a.91524.91524,0,0,1-.91407.91406H22.06885a.91524.91524,0,0,1-.91407-.91406Zm.91211,3.34961H36.21924a.9152.9152,0,0,1,.91406.91406v1.5957a.91524.91524,0,0,1-.91406.91407H22.06689a.91524.91524,0,0,1-.91406-.91407v-1.5957A.91519.91519,0,0,1,22.06689,29.51562Z"/><path d="M17.28638,32.35119,14.356,32.32812a.776.776,0,0,1-.77539-.77539v-2.905a.29653.29653,0,0,0-.29419-.29651l-2.63391-.02075a.29652.29652,0,0,0-.29883.29419l-.02307,2.9281a.776.776,0,0,1-.77539.77539h-2.905a.29653.29653,0,0,0-.29651.29419l-.02075,2.63385a.29652.29652,0,0,0,.29418.29889l2.92811.02307a.775.775,0,0,1,.77539.77344v2.90875a.29657.29657,0,0,0,.29437.29651l2.63391.0191a.29647.29647,0,0,0,.29864-.29419l.02308-2.93017a.775.775,0,0,1,.77539-.77344l2.93042-.02307a.29655.29655,0,0,0,.29419-.29657V32.6477A.29653.29653,0,0,0,17.28638,32.35119Z"/><path d="M53.12567,38.66015a2.709,2.709,0,1,0-2.70715-2.707A2.708,2.708,0,0,0,53.12567,38.66015Z"/><path class="cls-1" d="M39.9258,31.95312a.80186.80186,0,0,0-.8008.8008v6.39844a.80186.80186,0,0,0,.8008.80076h6.3986a.802.802,0,0,0,.8008-.80076V32.75392a.802.802,0,0,0-.8008-.8008Zm3.1994,6.707a2.708,2.708,0,1,1,2.7068-2.709A2.70856,2.70856,0,0,1,43.1252,38.66016Zm6.8004-6.707a.80168.80168,0,0,0-.8004.8008v6.39844a.80167.80167,0,0,0,.8004.80076h6.3988a.802.802,0,0,0,.8008-.80076V32.75392a.802.802,0,0,0-.8008-.8008Zm3.1996,6.707a2.709,2.709,0,1,1,2.7068-2.707A2.70815,2.70815,0,0,1,53.1252,38.66016ZM37.13672,27.75976a.91525.91525,0,0,1-.91408.91408H22.06836a.91525.91525,0,0,1-.91408-.91408V26.166a.91524.91524,0,0,1,.91408-.914H36.22264a.91524.91524,0,0,1,.91408.914ZM37.1328,32.0254a.91523.91523,0,0,1-.914.914H22.0664a.91523.91523,0,0,1-.914-.914V30.42968a.91521.91521,0,0,1,.914-.914H36.21876a.91521.91521,0,0,1,.914.914ZM63.1992,17.97656H.80078A.80187.80187,0,0,0,0,18.77736v26.3984a.80177.80177,0,0,0,.80078.8008H63.1992A.80166.80166,0,0,0,64,45.17576V18.77736A.80176.80176,0,0,0,63.1992,17.97656Zm-26.98044,23.742H22.06252a.91547.91547,0,0,0-.91408.9144v1.3436H3.20117A1.20208,1.20208,0,0,1,2.002,42.77736V23.17384A1.202,1.202,0,0,1,3.20117,21.9746H21.15428V23.502a.91524.91524,0,0,0,.91408.914H36.22264a.91524.91524,0,0,0,.91408-.914V21.9746H60.8008A1.20209,1.20209,0,0,1,62,23.17384V42.77736a1.20216,1.20216,0,0,1-1.1992,1.1992H37.1328V42.633A.918.918,0,0,0,36.21876,41.71856Zm0-7.87872H22.06252a.91525.91525,0,0,0-.91408.91408v5.01952a.91255.91255,0,0,0,.91408.91392H36.21876a.91254.91254,0,0,0,.914-.91392V34.75392A.91524.91524,0,0,0,36.21876,33.83984Zm-8.56933,4.0508H23.68067a.66016.66016,0,1,1,0-1.32032h3.96876a.66016.66016,0,1,1,0,1.32032Zm6.959,0H30.63771a.66016.66016,0,1,1,0-1.32032h3.97068a.66016.66016,0,1,1,0,1.32032Zm-17.0537-6.31252-3.22461-.02539V28.35351a.77539.77539,0,0,0-.77539-.77539H10.35547a.776.776,0,0,0-.77539.77539l-.02539,3.22461H6.35547a.77539.77539,0,0,0-.77539.77539v3.19922a.776.776,0,0,0,.77539.77539l3.22461.02344v3.20312a.77344.77344,0,0,0,.77344.77344h3.20117a.775.775,0,0,0,.77539-.77344l.02539-3.22656h3.19922a.77538.77538,0,0,0,.77539-.77539V32.35351A.776.776,0,0,0,17.55469,31.57812Zm.02539,3.6804a.29653.29653,0,0,1-.2942.29653l-2.93041.02307a.775.775,0,0,0-.77539.77344L13.557,39.28178a.29654.29654,0,0,1-.29868.29419l-2.63388-.01915a.29652.29652,0,0,1-.29438-.29652V36.35156a.775.775,0,0,0-.77539-.77344l-2.92808-.023a.29655.29655,0,0,1-.2942-.29886l.02074-2.63389a.29655.29655,0,0,1,.29653-.2942h2.905a.776.776,0,0,0,.77539-.77539l.02306-2.92808a.29653.29653,0,0,1,.29886-.29419l2.63388.02074a.29653.29653,0,0,1,.2942.29652v2.905a.776.776,0,0,0,.77539.77539l2.93041.02308a.29653.29653,0,0,1,.2942.29652Z"/></svg>