<svg id="Layer_1" data-name="Layer 1" xmlns="http://www.w3.org/2000/svg" viewBox="0 0 64 64"><defs><style>.cls-1{opacity:0.5;}</style></defs><path d="M63.54474,46.48309c-.24829,1.73816-.62079,3.228-3.60047,4.78s-6.14569,2.85553-6.14569,2.85553a2.477,2.477,0,0,1-2.66931-.12414c-1.11737-.99323-8.13214-7.38721-8.13214-7.38721l-.20441.01288a171.852,171.852,0,0,1-21.78985-.01264s-7.01477,6.394-8.13214,7.38721a2.477,2.477,0,0,1-2.66931.12415s-3.166-1.30365-6.14569-2.85553S.70355,48.2215.45526,46.48334A50.55706,50.55706,0,0,1,.1449,36.551c.37243-2.66931,1.17944-8.38043,7.01471-15.39514s14.89856-9.06329,14.89856-9.06329l.50561.06573-.00519-.00067a21.75214,21.75214,0,0,0-1.87347,4.06128,25.81428,25.81428,0,0,0-5.73657,2.654c-5.84119,3.7312-8.38,7.05457-10.272,10.85907-.09436.1897-.404.74488-.404.74488-1.84741,3.9613.20142,8.82647,4.57623,10.86676a9.20387,9.20387,0,0,0,6.3631.5675l.0036.00372s.03058-.00921.08063-.02545a8.19585,8.19585,0,0,0,1.63336-.66748,50.41414,50.41414,0,0,0,5.4292-2.9942c4.371-2.71637,6.75861-3.09412,9.64142-3.18341a16.38949,16.38949,0,0,1,8.91449,2.75549c-.00531-.07556-.02264-.14758-.02264-.22448a3.21923,3.21923,0,1,1,4.62713,2.8822c.60224.31384,1.11957.56561,1.55158.7644a8.19585,8.19585,0,0,0,1.63336.66748c.05.01624.08063.02545.08063.02545l.0036-.00372a9.20387,9.20387,0,0,0,6.3631-.5675,8.73366,8.73366,0,0,0,5.235-8.183A3.219,3.219,0,1,1,57.4267,28.676a3.18448,3.18448,0,0,1,1.57464.42756,22.88939,22.88939,0,0,0-3.38122-4.88007A2.43067,2.43067,0,1,1,54.33984,22.918a35.07808,35.07808,0,0,0-5.28833-4.04511,25.816,25.816,0,0,0-5.73663-2.654,21.83329,21.83329,0,0,0-1.87164-4.06177l.49859-.06481s9.0633,2.04852,14.89856,9.06329,6.64228,12.72583,7.01471,15.39514A50.557,50.557,0,0,1,63.54474,46.48309ZM30.392,33.88165h3.01074a1.00876,1.00876,0,1,0,0-2.01751H30.392a1.00876,1.00876,0,0,0,0,2.01751ZM21.57446,35.8045c-3.63354,4.60859-9.60156,5.96155-13.32995,3.022s-3.8053-9.0586-.17176-13.66718,9.60163-5.96155,13.33-3.022S25.208,31.19592,21.57446,35.8045Zm-1.58038-5.33941a1.76288,1.76288,0,0,0-2.20715-1.71234,4.34552,4.34552,0,0,0-2.16907-2.07416,1.7692,1.7692,0,1,0-3.44574.00006,4.34445,4.34445,0,0,0-2.24567,2.2406,1.76926,1.76926,0,1,0,0,3.464A4.3445,4.3445,0,0,0,12.163,34.61987a1.7692,1.7692,0,1,0,3.46405,0,4.34322,4.34322,0,0,0,2.30817-2.41131,1.75922,1.75922,0,0,0,2.0589-1.74347ZM42.581,32.26764a2.42728,2.42728,0,1,0-2.4273-2.42731A2.42728,2.42728,0,0,0,42.581,32.26764Zm4.54963,1.58295a3.21924,3.21924,0,1,0,3.21923-3.21918A3.21924,3.21924,0,0,0,47.13062,33.85059Zm.612-9.69031a2.42728,2.42728,0,1,0,2.42731,2.42731A2.42728,2.42728,0,0,0,47.74261,24.16028Z"/><path class="cls-1" d="M57.43183,35.11439a3.21921,3.21921,0,1,1,0-6.43841,3.18458,3.18458,0,0,1,1.57464.42755,22.88939,22.88939,0,0,0-3.38122-4.88007A2.43067,2.43067,0,1,1,54.345,22.918a35.07808,35.07808,0,0,0-5.28833-4.0451,25.81552,25.81552,0,0,0-5.73663-2.654,21.83459,21.83459,0,0,0-1.87164-4.06177l-.007.00091a12.278,12.278,0,0,0-1.97748-2.48675l-.2049-.00757q-7.35387-.27282-14.71258.00781a12.27787,12.27787,0,0,0-1.97748,2.48676l-.00519-.00067a21.75089,21.75089,0,0,0-1.87347,4.06128,25.81383,25.81383,0,0,0-5.73657,2.654c-5.84119,3.7312-8.38,7.05456-10.272,10.85907-.09436.18969-.404.74487-.404.74487-1.84741,3.9613.20142,8.82648,4.57623,10.86676a9.20381,9.20381,0,0,0,6.3631.56751l.0036.00372s.03058-.00922.08063-.02545a8.19645,8.19645,0,0,0,1.63336-.66748,50.416,50.416,0,0,0,5.4292-2.9942c4.371-2.71637,6.75861-3.09412,9.64142-3.18342a16.38945,16.38945,0,0,1,8.91449,2.7555c-.00531-.07556-.02264-.14759-.02264-.22449a3.21923,3.21923,0,1,1,4.62713,2.8822c.60224.31385,1.11957.56562,1.55158.76441a8.19645,8.19645,0,0,0,1.63336.66748c.05.01623.08063.02545.08063.02545l.0036-.00372a9.20379,9.20379,0,0,0,6.36309-.56751,8.73364,8.73364,0,0,0,5.235-8.183A3.21914,3.21914,0,0,1,57.43183,35.11439Zm-35.85224.69013c-3.63354,4.60858-9.60156,5.96155-13.32995,3.022s-3.8053-9.05859-.17176-13.66717,9.60163-5.96155,13.33-3.022S25.21314,31.19594,21.57959,35.80452ZM33.4079,33.88167H30.39716a1.00876,1.00876,0,0,1,0-2.01752H33.4079a1.00876,1.00876,0,1,1,0,2.01752Zm9.17822-1.614a2.42728,2.42728,0,1,1,2.42725-2.4273A2.4273,2.4273,0,0,1,42.58612,32.26765ZM45.3205,26.5876a2.42728,2.42728,0,1,1,2.42724,2.42725A2.42728,2.42728,0,0,1,45.3205,26.5876ZM50.355,37.06984a3.21921,3.21921,0,1,1,3.21924-3.21924A3.21926,3.21926,0,0,1,50.355,37.06984ZM19.99921,30.4651a1.75892,1.75892,0,0,1-2.05893,1.74346,4.34282,4.34282,0,0,1-2.30814,2.41131,1.76921,1.76921,0,1,1-3.464,0,4.34438,4.34438,0,0,1-2.23651-2.23651,1.76921,1.76921,0,1,1,0-3.46405,4.34442,4.34442,0,0,1,2.24569-2.24066,1.76921,1.76921,0,1,1,3.4457,0,4.34563,4.34563,0,0,1,2.16911,2.07413,1.76293,1.76293,0,0,1,2.20713,1.71233Z"/></svg>