<svg id="Layer_1" data-name="Layer 1" xmlns="http://www.w3.org/2000/svg" viewBox="0 0 64 64"><defs><style>.cls-1{opacity:0.5;}</style></defs><path d="M60.02972,30.26627a3.37892,3.37892,0,0,0-4.753-.5628L48.376,35.11479a3.38455,3.38455,0,1,0,4.19049,5.316l6.90069-5.41132A3.379,3.379,0,0,0,60.02972,30.26627Zm-9.5064,10.12128a2.62341,2.62341,0,1,1,2.62335-2.62341A2.62712,2.62712,0,0,1,50.52332,40.38755Zm6.81378-5.35071a2.62555,2.62555,0,1,1,2.62347-2.62768A2.63087,2.63087,0,0,1,57.3371,35.03684ZM53.15558,24.9329a3.37876,3.37876,0,0,0-4.75342-.55847L41.5014,29.78574a3.38638,3.38638,0,0,0,4.19092,5.32038l6.90027-5.42A3.37883,3.37883,0,0,0,53.15558,24.9329ZM43.63141,35.08872a2.62335,2.62335,0,1,1,2.62341-2.62329A2.627,2.627,0,0,1,43.63141,35.08872Zm6.8139-5.35058a2.62342,2.62342,0,1,1,2.62342-2.62342A2.62744,2.62744,0,0,1,50.44531,29.73814ZM19,30.55033a.23336.23336,0,0,1,.23242.23438v3.5625H19.2207a.23215.23215,0,0,1-.23242.23437H15.916a.23553.23553,0,0,0-.23243.23828V37.894a.23516.23516,0,0,1-.23242.23053h-3.5625a.23009.23009,0,0,1-.23242-.23053v-3.082a.23755.23755,0,0,0-.23633-.23828H8.35156a.23212.23212,0,0,1-.23242-.23438V30.78471a.23463.23463,0,0,1,.23242-.23438h3.07227a.23344.23344,0,0,0,.23633-.23047V27.24564a.23006.23006,0,0,1,.23242-.23046h3.56836a.23477.23477,0,0,1,.23047.23046v3.07422a.23131.23131,0,0,0,.23242.23047ZM50.62518,18.93949v-.00635H13.375v.00629a13.49714,13.49714,0,1,0,5.202,26.00214h.00586c.06921-.03113.14965-.06812.2279-.104q.43249-.18576.84924-.39947c.73914-.35571,1.5553-.76807,2.05286-1.06336A5.88062,5.88062,0,0,1,24.6875,42.73H39.33594a5.86767,5.86767,0,0,1,2.89044.594c.39758.23029,1.39758.7378,1.826.97211a13.49864,13.49864,0,1,0,6.57281-25.35657ZM13.67188,40.24564A7.67969,7.67969,0,1,1,21.35156,32.566,7.68073,7.68073,0,0,1,13.67188,40.24564ZM27.86719,34.273l-2.67188,2.17578a.95263.95263,0,1,1-1.17969-1.49609l2.66407-2.17579a.955.955,0,1,1,1.1875,1.4961Zm7.10937,0-2.668,2.17578A.95383.95383,0,0,1,31.125,34.95268l2.67188-2.17579a.95262.95262,0,0,1,1.17968,1.4961Zm15.50782,10.4414a12.3125,12.3125,0,1,1,12.3125-12.3125A12.31252,12.31252,0,0,1,50.48438,44.71439ZM64,32.43318"/><path class="cls-1" d="M27.86719,34.273l-2.67188,2.17578a.95263.95263,0,1,1-1.17969-1.49609l2.66407-2.17579a.955.955,0,1,1,1.1875,1.4961Zm7.26562-1.33985a.94717.94717,0,0,0-1.33593-.15625L31.125,34.95268a.95383.95383,0,0,0,1.18359,1.49609l2.668-2.17578A.95189.95189,0,0,0,35.13281,32.93314ZM12.5,18.09867a13.295,13.295,0,0,0-5.15948,1.34845.99817.99817,0,0,0-.50519,1.257A13.43325,13.43325,0,0,1,13.375,18.93943v-.00629h7.332V18.618a.52674.52674,0,0,0-.55987-.51938S14.41048,18.0271,12.5,18.09867Zm31.36832,0a.52675.52675,0,0,0-.55988.51938v.31512h7.332v.00629a13.43329,13.43329,0,0,1,6.53968,1.76465.99819.99819,0,0,0-.50519-1.257,13.295,13.295,0,0,0-5.15949-1.34845C49.605,18.0271,43.86832,18.09864,43.86832,18.09864ZM13.67188,24.88623a7.67969,7.67969,0,1,0,7.67968,7.67969A7.68323,7.68323,0,0,0,13.67188,24.88623Zm5.54882,9.46094a.23215.23215,0,0,1-.23242.23437H15.916a.23554.23554,0,0,0-.23243.23828V37.894a.23516.23516,0,0,1-.23242.23053h-3.5625a.23009.23009,0,0,1-.23242-.23053V34.812a.23756.23756,0,0,0-.23633-.23828H8.35156a.23212.23212,0,0,1-.23242-.23437V30.78467a.23463.23463,0,0,1,.23242-.23438h3.07227a.23344.23344,0,0,0,.23633-.23047V27.24561a.23007.23007,0,0,1,.23242-.23047h3.56836a.23478.23478,0,0,1,.23047.23047v3.07421a.23131.23131,0,0,0,.23242.23047H19a.23336.23336,0,0,1,.23242.23438v3.5625Zm31.30262.79352a2.62341,2.62341,0,1,0,2.62335,2.62341A2.6216,2.6216,0,0,0,50.52332,35.14069Zm-.078-10.64942a2.62342,2.62342,0,1,0,2.62342,2.62342A2.6247,2.6247,0,0,0,50.44531,24.49127ZM43.63141,29.842a2.62335,2.62335,0,1,0,2.62341,2.62341A2.6215,2.6215,0,0,0,43.63141,29.842Zm13.70569-.05627a2.62555,2.62555,0,1,0,2.62347,2.62341A2.62435,2.62435,0,0,0,57.3371,29.78571Zm-6.85272-9.69635a12.3125,12.3125,0,1,0,12.3125,12.3125A12.31248,12.31248,0,0,0,50.48438,20.08936ZM40.9389,34.54327a3.38356,3.38356,0,0,1,.5625-4.75756l6.90076-5.41132A3.3828,3.3828,0,1,1,52.59259,29.686l-6.90027,5.42A3.3871,3.3871,0,0,1,40.9389,34.54327Zm18.52826.4762-6.90069,5.41132a3.38455,3.38455,0,1,1-4.19049-5.316l6.90075-5.41132a3.38452,3.38452,0,0,1,4.19043,5.316Z"/></svg>