<svg id="Layer_1" data-name="Layer 1" xmlns="http://www.w3.org/2000/svg" viewBox="0 0 64 64"><path d="M32.00467.75h-.00018A22.19,22.19,0,0,1,49.943,9.92634l.16761.23216.27969.06138a72.10959,72.10959,0,0,1,8.39261,2.24669.95008.95008,0,0,1,.38546.3171,16.94155,16.94155,0,0,1,.91071,1.93651c1.58615,3.95355,2.03915,9.94164,1.38492,18.30646a97.25013,97.25013,0,0,1-2.16669,15.28687,54.09091,54.09091,0,0,1-2.97265,9.301c-.09961.19093-.22718.44568-.37592.74289a28.368,28.368,0,0,1-2.53491,4.39928,1.3203,1.3203,0,0,1-.64673.46492,46.88965,46.88965,0,0,0-1.86871-6.9452l-.0933-.23675c-.5722-1.4664-1.02493-1.86938-4.16061-2.46076a109.82244,109.82244,0,0,0-12.97611-1.68236c-.53244-.02489-1.09979-.04922-1.66864-.04947-.56823.00025-1.13558.02458-1.668.04947A109.813,109.813,0,0,0,17.35974,53.578c-3.13986.59219-3.59259.99517-4.16479,2.46157l-.09327.2367A46.88493,46.88493,0,0,0,11.233,63.22156a1.32,1.32,0,0,1-.64676-.46493,28.37183,28.37183,0,0,1-2.53493-4.3993c-.14874-.29721-.27629-.55195-.3759-.74287a54.09,54.09,0,0,1-2.97265-9.30094A97.24883,97.24883,0,0,1,2.53607,33.02664c-.65426-8.36489-.20126-14.353,1.38489-18.30648a16.94522,16.94522,0,0,1,.91071-1.93648.95.95,0,0,1,.38546-.3171,72.12805,72.12805,0,0,1,8.39264-2.2467l.27966-.06139.16761-.23215A22.19264,22.19264,0,0,1,32.00467.75m0-.75A22.84324,22.84324,0,0,0,13.449,9.48732s-6.89489,1.51326-8.55384,2.3019a1.68471,1.68471,0,0,0-.7007.59894,17.44532,17.44532,0,0,0-.96955,2.05276c-.9413,2.34621-2.32681,7.2616-1.43653,18.6442a98.765,98.765,0,0,0,2.18135,15.387,54.11671,54.11671,0,0,0,3.04074,9.48922,36.02794,36.02794,0,0,0,2.99666,5.27183A1.84123,1.84123,0,0,0,11.4417,64a1.2412,1.2412,0,0,0,.41626-.0639,50.91914,50.91914,0,0,1,1.93977-7.3805c.52875-1.318.43988-1.6255,3.701-2.24056a108.19845,108.19845,0,0,1,12.86792-1.66938c.551-.02576,1.09485-.04841,1.63336-.04865.53851.00024,1.08228.02289,1.6333.04865A108.19845,108.19845,0,0,1,46.50125,54.315c3.26114.61506,3.17227.92256,3.701,2.24056a50.92023,50.92023,0,0,1,1.93979,7.3805A1.24163,1.24163,0,0,0,52.55832,64a1.84105,1.84105,0,0,0,1.43457-.76679,36.02531,36.02531,0,0,0,2.99667-5.27183,54.11839,54.11839,0,0,0,3.04074-9.48922,98.76806,98.76806,0,0,0,2.18137-15.387c.89026-11.3826-.49527-16.298-1.43655-18.6442a17.44532,17.44532,0,0,0-.96955-2.05276,1.68478,1.68478,0,0,0-.70068-.59894c-1.659-.78864-8.55386-2.3019-8.55386-2.3019A22.83691,22.83691,0,0,0,32.00467,0ZM9.20312,25.168a4.94387,4.94387,0,1,1,4.958-4.94336A4.95672,4.95672,0,0,1,9.20312,25.168Zm0-9.1377a4.19387,4.19387,0,1,0,4.208,4.19434A4.20611,4.20611,0,0,0,9.20312,16.03027Zm3.583,24.38184c-.89551,0-1.96191-.12793-1.96191-.73731V36.72266H7.86133c-.61035,0-.73828-1.06446-.73828-1.957s.12793-1.956.73828-1.956h2.96289V29.85645c0-.60938,1.0664-.73731,1.96191-.73731.89453,0,1.96094.12793,1.96094.73731v2.95312h2.96387c.61035,0,.73828,1.06348.73828,1.956s-.12793,1.957-.73828,1.957H14.74707V39.6748C14.74707,40.28418,13.68066,40.41211,12.78613,40.41211Zm-1.21191-.89453a4.01591,4.01591,0,0,0,1.21191.14453,4.00763,4.00763,0,0,0,1.21094-.14453V35.97266h3.55762a3.98537,3.98537,0,0,0,.14453-1.207,4.1099,4.1099,0,0,0-.14453-1.206H13.99707v-3.5459a4.00763,4.00763,0,0,0-1.21094-.14453,4.01591,4.01591,0,0,0-1.21191.14453v3.5459H8.01758a5.10842,5.10842,0,0,0,0,2.41309h3.55664ZM32,49.47363c-.94238,0-1.88477-.041-2.82031-.12109a.54675.54675,0,0,1-.42481-.82031,31.93486,31.93486,0,0,1,2.65137-4.57715l.1377-.19824a.57352.57352,0,0,1,.92773.02441l.12207.17383a32.209,32.209,0,0,1,2.667,4.60644.52369.52369,0,0,1-.002.49707.54518.54518,0,0,1-.43848.29395h0C33.88477,49.43262,32.94238,49.47363,32,49.47363Zm2.583-.59375a.30967.30967,0,0,0,.01562.03125Zm-5.15918-.01269-.00684.01465Zm.11426-.23828a32.38508,32.38508,0,0,0,4.9248,0A31.80364,31.80364,0,0,0,32,44.41406,31.63208,31.63208,0,0,0,29.53809,48.62891Zm2.30273-4.44434.00879.01367Zm.334-.02441-.0166.02441A.2136.2136,0,0,0,32.1748,44.16016ZM35.89844,25.168H28.10156a3.38276,3.38276,0,0,1-3.38379-3.375V15.36035a3.38276,3.38276,0,0,1,3.38379-3.375h7.79688a3.38276,3.38276,0,0,1,3.38379,3.375V21.793A3.38276,3.38276,0,0,1,35.89844,25.168ZM28.10156,12.73535a2.63257,2.63257,0,0,0-2.63379,2.625V21.793a2.63257,2.63257,0,0,0,2.63379,2.625h7.79688a2.63257,2.63257,0,0,0,2.63379-2.625V15.36035a2.63257,2.63257,0,0,0-2.63379-2.625ZM46.77344,28.88086a2.896,2.896,0,1,1,2.90332-2.89551A2.90285,2.90285,0,0,1,46.77344,28.88086Zm0-5.042a2.146,2.146,0,1,0,2.15332,2.14648A2.15223,2.15223,0,0,0,46.77344,23.83887Zm5.4873,10.3789a2.89552,2.89552,0,1,1,2.90332-2.8955A2.903,2.903,0,0,1,52.26074,34.21777Zm0-5.041a2.14552,2.14552,0,1,0,2.15332,2.14551A2.15286,2.15286,0,0,0,52.26074,29.17676Zm0-5.63379a2.89552,2.89552,0,1,1,2.90332-2.89551A2.90305,2.90305,0,0,1,52.26074,23.543Zm0-5.041a2.14552,2.14552,0,1,0,2.15332,2.14551A2.15286,2.15286,0,0,0,52.26074,18.502Zm5.48633,10.37891a2.896,2.896,0,1,1,2.90332-2.89551A2.90285,2.90285,0,0,1,57.74707,28.88086Zm0-5.042a2.146,2.146,0,1,0,2.15332,2.14648A2.15223,2.15223,0,0,0,57.74707,23.83887Z"/></svg>