<svg id="Layer_1" data-name="Layer 1" xmlns="http://www.w3.org/2000/svg" viewBox="0 0 64 64"><path d="M14.73145,25.044a4.06211,4.06211,0,1,1,4.08984-4.06055A4.08011,4.08011,0,0,1,14.73145,25.044Zm0-7.374a3.31213,3.31213,0,1,0,3.33984,3.31348A3.33117,3.33117,0,0,0,14.73145,17.66992ZM11.16406,35.82617a2.231,2.231,0,0,1-.55176-.06933A2.13772,2.13772,0,0,1,9.63867,32.166a2.17971,2.17971,0,0,1,2.07324-.56055,2.13842,2.13842,0,0,1,.97364,3.59765A2.15626,2.15626,0,0,1,11.16406,35.82617Zm.00391-3.53711a1.40084,1.40084,0,0,0-1.37109,1.73828,1.39427,1.39427,0,0,0,.99707,1.002v.001a1.44108,1.44108,0,0,0,1.36523-.36132,1.38875,1.38875,0,0,0-.62695-2.335A1.51195,1.51195,0,0,0,11.168,32.28906Zm3.56348.08887a2.15331,2.15331,0,0,1-2.15821-2.14355,2.12917,2.12917,0,0,1,.82129-1.68555,2.18768,2.18768,0,0,1,1.8877-.3916,2.145,2.145,0,0,1-.55078,4.2207Zm.00293-3.53809a1.41148,1.41148,0,0,0-.877.29883,1.38189,1.38189,0,0,0-.53418,1.09571,1.41127,1.41127,0,0,0,2.53125.84082,1.38693,1.38693,0,0,0,.23242-1.2295,1.36727,1.36727,0,0,0-.98437-.96h0A1.54534,1.54534,0,0,0,14.73438,28.83984Zm-.00489,10.377a2.32374,2.32374,0,0,1-.55176-.06739h-.001a2.15816,2.15816,0,1,1,1.89062-.39062A2.16327,2.16327,0,0,1,14.72949,39.2168Zm-.37207-.7959a1.4349,1.4349,0,0,0,1.24805-.25293,1.38141,1.38141,0,0,0,.53418-1.09473,1.40826,1.40826,0,1,0-2.76367.39063,1.37118,1.37118,0,0,0,.98144.957ZM18.877,44.084H16.7832a.7431.7431,0,0,1-.74218-.74218V41.2793a.74311.74311,0,0,1,.74218-.74219H18.877a.74311.74311,0,0,1,.74219.74219v2.0625A.74311.74311,0,0,1,18.877,44.084Zm-.00781-2.80468-2.08594.00781L16.791,43.3418l2.07812-.00782Zm-.56934-5.45313a2.16492,2.16492,0,0,1-1.33886-.459,2.13056,2.13056,0,0,1-.82129-1.68555,2.15854,2.15854,0,1,1,4.23926.584h0a2.13365,2.13365,0,0,1-1.5293,1.49317A2.3142,2.3142,0,0,1,18.2998,35.82617Zm-.002-3.53808a1.4025,1.4025,0,0,0-1.4082,1.39355,1.38138,1.38138,0,0,0,.53418,1.09473,1.43994,1.43994,0,0,0,1.24609.2539,1.37054,1.37054,0,0,0,.98438-.96h0a1.38373,1.38373,0,0,0-.2334-1.22949A1.40378,1.40378,0,0,0,18.29785,32.28809ZM20.0166,34.168h0Zm1.01074-19.74439H18.64745V13.478h2.37989ZM49.292,19.67188a2.13726,2.13726,0,1,1,2.15137-2.13575A2.1456,2.1456,0,0,1,49.292,19.67188Zm0-3.52442a1.38728,1.38728,0,1,0,1.40137,1.38867A1.396,1.396,0,0,0,49.292,16.14746Zm0,10.332a2.13677,2.13677,0,1,1,2.15137-2.13574A2.1456,2.1456,0,0,1,49.292,26.47949Zm0-3.52344a1.3868,1.3868,0,1,0,1.40137,1.3877A1.3952,1.3952,0,0,0,49.292,22.95605Zm-6.2837-8.54211v-.93982h.71064v-.70349h.9447v.70349h.71063v.93982h-.71063v.7049h-.9447v-.7049Zm2.728,8.68958a2.13583,2.13583,0,1,1,2.15527-2.13575A2.14119,2.14119,0,0,1,45.73633,23.10352Zm0-3.52149a1.38588,1.38588,0,1,0,1.40527,1.38574A1.39037,1.39037,0,0,0,45.73633,19.582Zm.46387,24.93164a2.20319,2.20319,0,1,1,2.2207-2.206A2.21688,2.21688,0,0,1,46.2002,44.51367Zm0-3.65625a1.45323,1.45323,0,1,0,1.4707,1.4502A1.46365,1.46365,0,0,0,46.2002,40.85742ZM49.294,37.6582a4.04261,4.04261,0,1,1,4.07519-4.041A4.06367,4.06367,0,0,1,49.294,37.6582Zm0-7.335a3.29264,3.29264,0,1,0,3.32519,3.294A3.31411,3.31411,0,0,0,49.294,30.32324Zm3.5498-7.21972a2.13579,2.13579,0,1,1,2.15039-2.13575A2.1456,2.1456,0,0,1,52.84375,23.10352Zm0-3.52149a1.38582,1.38582,0,1,0,1.40039,1.38574A1.3948,1.3948,0,0,0,52.84375,19.582Zm8.9906,12.30432c-1.91962-10.18463-4.85327-14.38525-5.06213-14.675a10.04765,10.04765,0,0,0-.385-1.26727l.00372.00061.00256-.00049.00006-.00006.00367.00055h0l-.0036-.00055a.86951.86951,0,0,0,.24462-1.0437,10.74512,10.74512,0,0,0-9.66461-6.07574H44.55322c-.35028,0-.82147.28418-.82171.6344l-1.34778.00024h-.33466a.50012.50012,0,0,0-.50012.50012v1.22126a1.646,1.646,0,0,1-1.45306-1.33222.49854.49854,0,0,0-.48352-.38922H24.39825a.49854.49854,0,0,0-.48352.38922,1.64792,1.64792,0,0,1-1.44586,1.33142V9.95947a.5.5,0,0,0-.49994-.50006h-.00708l-.0003-.00006h-.321l-1.36139-.00024c-.00024-.35022-.47143-.6344-.82171-.6344H17.037a10.74512,10.74512,0,0,0-9.66461,6.07574.86923.86923,0,0,0,.24475,1.04376l.00256.00049.00854-.00134.00171.00024-.00018.00067L7.627,15.9447l.00281-.00043a10.03318,10.03318,0,0,0-.38568,1.27106l-.00177-.02472c-.12476.17041-3.12708,4.35205-5.07666,14.69568C.1745,42.45026-.59979,46.10059.50635,49.032c.77875,2.0636,2.65429,4.97724,5.35565,4.97724a5.715,5.715,0,0,0,3.82562-1.82465c.02753-.02557.05023-.05328.077-.07922L9.76221,52.072c.01721.01794.03686.03345.05426.05127.1687.17334.34625.33728.5271.49817.06286.05591.123.11444.18731.16882.18549.15692.37952.30322.5763.44666.07.051.13714.10534.20849.1546.1933.13336.39435.25519.59723.37512.08325.04938.16352.10272.24835.14972.19422.1073.39557.20233.59736.297.101.04748.19879.09991.30151.1441.1897.08136.38592.14948.58142.21936.12134.04352.23956.09284.363.13178.18359.05774.373.10125.561.14862.14075.03552.27851.078.42157.10754.188.03882.38135.06183.573.09.147.02167.29126.05145.44025.06665.27795.0285.561.03845.84527.04394.06421.00122.12641.00995.19092.00995H46.98029a10.2375,10.2375,0,0,0,1.04937-.05475c.01392-.0014.02716-.00476.041-.00622q.50034-.05365.98517-.15442l.01861-.00476a10.04866,10.04866,0,0,0,5.16181-2.8631l-.001.01337c.02686.02594.04956.05365.07709.07922a5.71574,5.71574,0,0,0,3.82556,1.82465c2.70178,0,4.5769-2.91345,5.35571-4.97724C64.59979,46.10065,63.82556,42.45032,61.83435,31.88635ZM9.15845,51.6524A5.046,5.046,0,0,1,5.862,53.25922c-2.1839,0-3.872-2.41986-4.65393-4.492C.23,46.17523.881,42.72858,2.62109,33.517l.28156-1.49176a46.562,46.562,0,0,1,4.1109-12.99127c-.00592.12884-.01953.25555-.01965.386l-.00031.00635V45.20764a9.87708,9.87708,0,0,0,2.2937,6.33783A.75974.75974,0,0,0,9.15845,51.6524Zm7.8855,2.77289a9.29884,9.29884,0,0,1-5.07984-1.50616c-.04388-.02863-.08984-.05329-.1333-.0827-.15643-.10535-.30414-.22205-.45361-.33637-.0998-.07666-.202-.14929-.29908-.23028-.11309-.09406-.21911-.196-.32757-.29517-.1217-.11157-.24426-.22186-.361-.34052a9.14028,9.14028,0,0,1-2.646-6.42645V19.44031l.00031-.01978c.00024-.26092.01373-.52533.04193-.81445a9.10159,9.10159,0,0,1,.553-2.39807,9.33636,9.33636,0,0,1,8.705-5.99951l3.23383.00061.00146.00024h1.4325v.97138c0,.01263.00659.02313.0072.03564V54.42529Zm24.505,0H22.46887V11.93a2.35026,2.35026,0,0,0,2.12311-1.7207H39.41864A2.34887,2.34887,0,0,0,41.549,11.93073l.00629-.00129V54.42529Zm.75629,0V10.20935h1.42621l.00146-.00024,3.24744-.00061a9.335,9.335,0,0,1,8.69543,5.97955c.00226.00653.00061.01355.003.02a9.32867,9.32867,0,0,1,.35254,1.15924c.00257.01092.01087.01959.01392.0304a8.94215,8.94215,0,0,1,.19366,1.21453c.02765.28315.04114.54749.04157.81464V45.20764a9.13457,9.13457,0,0,1-2.57862,6.353l-.00537.00366a9.46365,9.46365,0,0,1-1.43707,1.22308l-.00354.00263c-.2243.15485-.457.29474-.69269.42853-.03857.02173-.07458.04724-.11346.06842-.19031.10443-.38764.19391-.58441.28442-.08582.03931-.16779.08521-.255.12195-.14117.05975-.28778.10583-.43182.15845-.14514.05291-.28711.11248-.43555.15832-.01166.0036-.02392.00556-.03558.0091a9.30887,9.30887,0,0,1-1.29773.28558c-.16113.02472-.32031.05664-.48346.073-.10864.01092-.22064.0094-.33032.0166-.20673.01349-.41272.03088-.622.03088Zm20.48669-5.65808c-.782,2.07221-2.47,4.49207-4.654,4.49207A5.02374,5.02374,0,0,1,54.86188,51.67c-.03241-.04889-.09131-.0736-.13452-.11389a9.87657,9.87657,0,0,0,2.30316-6.34851V19.42627l-.00031-.00635c-.00006-.11151-.01239-.21972-.01678-.33008a46.79141,46.79141,0,0,1,4.08392,12.93543l.28131,1.49048C63.1189,42.72815,63.77,46.17517,62.79193,48.76721ZM56.39984,15.94415l-.00262.00055h.00006Z"/></svg>