<svg id="Layer_1" data-name="Layer 1" xmlns="http://www.w3.org/2000/svg" viewBox="0 0 64 64"><path d="M18.832,19.87012a1.49935,1.49935,0,0,0,1.47266-1.52246v-1.376a1.47158,1.47158,0,1,0-2.94141,0v1.376A1.498,1.498,0,0,0,18.832,19.87012Zm-.71875-2.89844a.72156.72156,0,1,1,1.44141.00005c-.06371.65245.307,2.11846-.72266,2.14837C17.80745,19.09083,18.1768,17.62008,18.11328,16.97168ZM16.3941,22.16205a16.42807,16.42807,0,0,0-2.19537.05835l-.00391.0039a.20757.20757,0,0,0-.05078.05048c-.06484.11224-1.82578,1.61659-1.6993,1.75338-.131.132,1.64056,1.64763,1.6993,1.75352a.20763.20763,0,0,0,.05078.05053l.00391.00391a16.44238,16.44238,0,0,0,2.19536.05838C17.62391,25.88414,17.62431,22.17224,16.3941,22.16205Zm-.08764,2.98242H14.56287l-1.167-1.11621,1.16694-1.11621h1.74365a2.372,2.372,0,0,1,0,2.23242Zm4.66229,3.39459c-5.62329,1.05493-4.2645,9.27974,1.382,8.51267C27.96666,36.00116,26.62664,27.77833,20.96875,28.53906Zm4.22559,4.82227c-.85485,4.60972-7.69817,3.53111-7.06834-1.13194C18.9795,27.62168,25.82175,28.69518,25.19434,33.36133ZM10.09705,21.69159a.22175.22175,0,0,0,.05078.05444l1.543,1.598a.31634.31634,0,0,0,.4375,0l1.543-1.598a.22166.22166,0,0,0,.05072-.05444l.004-.00391a16.09146,16.09146,0,0,0,.05864-2.18107c0-.51711-.83995-.937-1.8751-.937s-1.87506.41992-1.87506.937a16.13835,16.13835,0,0,0,.05859,2.18109Zm.6875-2.094a1.95828,1.95828,0,0,1,1.12506-.278,1.95868,1.95868,0,0,1,1.12506.278v1.72808l-1.125,1.16523-1.12512-1.16523ZM31.99414,29.9209a2.11676,2.11676,0,0,0,.00007,4.2334A2.11676,2.11676,0,0,0,31.99414,29.9209Zm0,3.4834a1.36675,1.36675,0,0,1,.00006-2.7334A1.36675,1.36675,0,0,1,31.99414,33.4043ZM11.25336,24.0282c.13216-.12987-1.64148-1.649-1.69928-1.75342a.20757.20757,0,0,0-.05078-.05048l-.00391-.0039H9.49548A16.26988,16.26988,0,0,0,7.304,22.162c-.51955,0-.94148.83591-.94148,1.86619s.42193,1.86627.94147,1.86627a16.32907,16.32907,0,0,0,2.19146-.05835h.00391l.00391-.00391a.20763.20763,0,0,0,.05078-.05053C9.61812,25.6704,11.38044,24.1645,11.25336,24.0282ZM9.13519,25.14447H7.3916a2.372,2.372,0,0,1,0-2.23242H9.13525l1.16694,1.11615Zm4.58692,1.2204a.22188.22188,0,0,0-.05072-.05445l-1.543-1.5979a.31636.31636,0,0,0-.4375,0l-1.543,1.5979a.222.222,0,0,0-.05078.05445l-.00391.00384a16.15133,16.15133,0,0,0-.05863,2.18505c0,.51326.83988.93312,1.8751.93312s1.87506-.41986,1.87506-.93311a16.19824,16.19824,0,0,0-.0586-2.18506Zm-.68744,2.095a1.97091,1.97091,0,0,1-1.12506.277,1.97036,1.97036,0,0,1-1.12506-.277V26.73071l1.12493-1.16516,1.12519,1.16516Zm39.03857-6.61224c3.87677-.15069,3.14594-5.90438-.6495-5.11815A2.603,2.603,0,0,0,52.07324,21.84766Zm-1.80566-3.06348a1.86271,1.86271,0,0,1,3.60641.93074A1.86271,1.86271,0,0,1,50.26758,18.78418ZM55.07129,25.835a2.60514,2.60514,0,0,0,3.69721-3.671A2.60514,2.60514,0,0,0,55.07129,25.835Zm.04394-2.29687a1.86426,1.86426,0,0,1,3.6113.9239A1.86426,1.86426,0,0,1,55.11523,23.53809Zm-9.94726-3.668a1.498,1.498,0,0,0,1.46875-1.52246v-1.376a1.4697,1.4697,0,1,0-2.9375,0v1.376A1.498,1.498,0,0,0,45.168,19.87012Zm-.71875-2.89844a.71975.71975,0,1,1,1.4375.00005v1.37593a.71975.71975,0,1,1-1.4375-.00005ZM41.67969,28.53906c-5.62368,1.05511-4.263,9.28,1.38294,8.51267C48.67875,35.99935,47.33589,27.779,41.67969,28.53906Zm4.22558,4.82129c-.85426,4.61127-7.69687,3.5319-7.06833-1.13C39.68946,27.62194,46.5322,28.6943,45.90527,33.36035ZM49.31348,22.167a2.60526,2.60526,0,0,0-3.70795,3.66022A2.60526,2.60526,0,0,0,49.31348,22.167Zm-.04786,2.30762A1.86431,1.86431,0,0,1,45.65726,23.54,1.86431,1.86431,0,0,1,49.26562,24.47461Zm2.89649,6.91113c3.87407-.149,3.15083-5.8985-.64071-5.126A2.60617,2.60617,0,0,0,52.16211,31.38574Zm-1.80273-3.07031a1.86242,1.86242,0,0,1,3.60641.92781A1.86242,1.86242,0,0,1,50.35938,28.31543ZM62.4563,49.4469a13.24155,13.24155,0,0,0,1.51855-6.21515l-.00042.00128c.24237-5.7091-1.32569-12.60235-1.88068-14.984l.00494.004s-.37786-1.79461-1.43255-5.5412-1.68433-4.95868-2.0622-5.47815-1.60571-2.61316-1.60571-2.61316l-.00366.02839c-.22736-.44239-.34375-.904-.97785-1.14435.00647-.22431-.01568-.55066-.30481-.66181a9.8103,9.8103,0,0,0-4.415-1.16406,11.01215,11.01215,0,0,0-3.4961.6084c-.55731.152-.52832.78278-.51276,1.08832-.40789.16443-.755.52912-1.22424.50531-.27845.00213-2.97021.0234-3.81048.01733a.87576.87576,0,0,0-.84314-.74866l-18.83594-.00195a.87578.87578,0,0,0-.84162.74176c-.81394.0013-2.95529-.00542-3.79589-.00818-.51506.02612-.87819-.43771-1.34607-.54358.01532-.31469.02588-.9013-.48126-1.03961a11.07211,11.07211,0,0,0-3.52833-.61914,9.64734,9.64734,0,0,0-4.375,1.14551.67085.67085,0,0,0-.34313.73523c-.52582.25134-.64545.678-.85706,1.08984l-.00366-.02838s-1.22791,2.09363-1.60572,2.61316S4.389,18.9657,3.33429,22.71222s-1.4325,5.54114-1.4325,5.54114l.00489-.004c-.74334,3.28184-3.351,14.49362-.83756,20.28583a5.662,5.662,0,0,0,5.56377,3.41237c2.68131.20961,5.31589-2.29441,6.53178-5.28414l-.00055.00037a68.41372,68.41372,0,0,0,3.17292-8.0824,1.54,1.54,0,0,1,.77917-.8255.45909.45909,0,0,1,.55634.02716,6.72306,6.72306,0,0,0,8.308-.05408,1.26184,1.26184,0,0,1,.81465-.319H37.16211a1.18642,1.18642,0,0,1,.81641.28315,6.72031,6.72031,0,0,0,8.34942.08953c.27244-.25389.6229.00043.85871.17231a1.18862,1.18862,0,0,1,.4768.626,58.38683,58.38683,0,0,0,4.09279,9.806c1.54271,2.6006,3.55437,3.56044,5.6118,3.56044A5.773,5.773,0,0,0,62.4563,49.4469Zm-1.40064.52106a5.74881,5.74881,0,0,1-5.39658.93613,6.10984,6.10984,0,0,1-3.108-2.672c3.07083.80141,8.26795-.33133,10.33337-2.1435A7.12014,7.12014,0,0,1,61.05566,49.968ZM48.03027,13.001a10.28886,10.28886,0,0,1,3.28223-.57227,8.36125,8.36125,0,0,1,3.66016.88086,35.77837,35.77837,0,0,0-6.94141-.0918A1.544,1.544,0,0,1,48.03027,13.001Zm-25.581,1.06054c0-.08886.05762-.16406.125-.16406l18.83594.00195a.14993.14993,0,0,1,.125.16309V24.69629a.81671.81671,0,0,1-.76856.85644l-17.54883.00391a.81672.81672,0,0,1-.76855-.85644Zm-10.002-1.63379a11.4646,11.4646,0,0,1,3.37988.543.73839.73839,0,0,1,.01953.24707,35.01839,35.01839,0,0,0-6.94043.09278A8.80487,8.80487,0,0,1,12.44727,12.42773ZM11.26373,48.51428A5.70378,5.70378,0,0,1,3.5799,50.45c-1.43433-.86258-2.15812-2.66794-2.4726-4.37394,2.0613,1.81928,7.26337,2.95666,10.34076,2.15814Q11.35733,48.37785,11.26373,48.51428ZM47.6286,37.349c-.34517-.34853-1.33132-.64744-1.7785-.14447a5.9233,5.9233,0,0,1-7.379-.077,1.95538,1.95538,0,0,0-1.309-.46754H26.79517a1.993,1.993,0,0,0-1.30091.49811,5.92669,5.92669,0,0,1-7.343.04756,1.21475,1.21475,0,0,0-1.44141-.08046,2.20954,2.20954,0,0,0-1.08636,1.225,61.744,61.744,0,0,1-3.62232,8.93927c-3.111,1.22863-9.39668-.18916-11.091-2.45776C.43513,40.96459,1.03268,35.28222,2.652,28.333c-.0009-.36411,2.54707-10.10446,3.35123-10.65787.33877-.466,1.24276-1.99026,1.55215-2.51529.29661-.3574.31193-.92755.827-.99731a39.025,39.025,0,0,1,8.03632-.10743c.47221.19249.80452.58309,1.51582.57591.82686.00235,2.96555.00972,3.76476.0082v10.061a1.56643,1.56643,0,0,0,1.51855,1.60644l17.54883-.00391a1.56644,1.56644,0,0,0,1.51856-1.60644V14.64807c.78761.00549,2.9271-.01138,3.74224-.01825.71091.05885,1.135-.43377,1.641-.58655a39.64439,39.64439,0,0,1,7.94714.11829c.516.06864.53112.63532.82666.99292.30652.52026,1.21521,2.05292,1.55518,2.52032.79718.53167,3.36037,10.32014,3.351,10.65735C62.9653,35.29437,63.5598,40.9835,63.0813,44.85181c-1.71457,2.25861-7.975,3.66458-11.0838,2.434a61.77945,61.77945,0,0,1-3.62067-8.93622A1.91794,1.91794,0,0,0,47.6286,37.349Z"/></svg>