<svg id="Layer_1" data-name="Layer 1" xmlns="http://www.w3.org/2000/svg" viewBox="0 0 64 64"><path d="M54.13379,27.89746a3.42663,3.42663,0,0,0-5.5293-3.09082l-6.22656,4.88281a3.43044,3.43044,0,0,0,4.24414,5.39063l6.22656-4.8916A3.3933,3.3933,0,0,0,54.13379,27.89746Zm-1.748,1.70117L46.1582,34.49121a2.68108,2.68108,0,0,1-4.32031-2.42285,2.65616,2.65616,0,0,1,1.00293-1.78906l6.22852-4.88477a2.64242,2.64242,0,0,1,1.65136-.57812,2.79112,2.79112,0,0,1,.31153.01757,2.6714,2.6714,0,0,1,1.79882,1.00391v.001a2.67136,2.67136,0,0,1-.44531,3.75976ZM16.06641,27.24609a.606.606,0,0,0-.60547-.60547H11.89258a.607.607,0,0,0-.60742.60547v2.92969H8.35156a.60912.60912,0,0,0-.60742.60938v3.55468a.60912.60912,0,0,0,.60742.60938h2.92969v2.94433a.60787.60787,0,0,0,.60742.60645h3.5625a.60787.60787,0,0,0,.60742-.60645V34.957h2.92969a.60837.60837,0,0,0,.58984-.46387.37931.37931,0,0,0,.0293-.1455v-3.5625A.60912.60912,0,0,0,19,30.17578H16.06641Zm2.791,3.67969V34.207H15.916a.61122.61122,0,0,0-.60743.61328V37.75H12.03125V34.8125a.61329.61329,0,0,0-.61133-.61328H8.49414V30.92578h2.92969a.60914.60914,0,0,0,.61133-.60547V27.39062h3.28125v2.92969a.607.607,0,0,0,.60742.60547Zm-5.18554-6.41406a8.05469,8.05469,0,1,0,8.05468,8.05469A8.06585,8.06585,0,0,0,13.67188,24.51172Zm0,15.35937a7.30469,7.30469,0,1,1,7.30468-7.30468A7.315,7.315,0,0,1,13.67188,39.87109ZM50.57715,20.53418a11.90772,11.90772,0,1,0,11.9082,11.90723A11.921,11.921,0,0,0,50.57715,20.53418Zm0,23.06543a11.15772,11.15772,0,1,1,11.1582-11.1582A11.1704,11.1704,0,0,1,50.57715,43.59961Zm6.32123-13.49835a2.25183,2.25183,0,1,0,2.25006,2.24994A2.25078,2.25078,0,0,0,56.89838,30.10126Zm0,3.75366a1.50183,1.50183,0,1,1,1.50006-1.50372A1.50352,1.50352,0,0,1,56.89838,33.85492ZM50.75,34.93317a2.25,2.25,0,1,0,2.25,2.25A2.24843,2.24843,0,0,0,50.75,34.93317Zm0,3.75a1.5,1.5,0,1,1,1.5-1.5A1.50172,1.50172,0,0,1,50.75,38.68317Zm6.51025-17.921a.36347.36347,0,0,0-.0747-.063l-.01136-.00537a.99685.99685,0,0,0-.507-1.24677,13.29522,13.29522,0,0,0-5.15949-1.34845c-.63678-.02386-1.69885-.0318-2.83166-.0318-2.26587,0-4.81549.0318-4.81549.0318a.52672.52672,0,0,0-.55988.51935v.31513l.00018.00006H20.69916l.00012-.00006V18.618a.52672.52672,0,0,0-.55988-.51935s-2.54974-.0318-4.81543-.0318c-1.13311,0-2.19482.00794-2.83172.0318a13.29522,13.29522,0,0,0-5.15949,1.34845.99818.99818,0,0,0-.50518,1.257c.01727-.00983.03045-.01489.0473-.02423A13.4956,13.4956,0,0,0,18.577,44.94159h.00586c.06921-.03113.14965-.06812.2279-.104q.43249-.18576.84924-.39948c.73914-.35571,1.5553-.76807,2.05286-1.06335A5.8806,5.8806,0,0,1,24.6875,42.73H39.33594a5.867,5.867,0,0,1,2.89044.594c.39758.23023,1.39758.7378,1.826.97211A13.49454,13.49454,0,0,0,57.26025,20.76221ZM44.05072,18.84644c.61932-.00715,2.7226-.02961,4.62537-.02961,1.30621,0,2.24951.0105,2.80359.03125a12.50335,12.50335,0,0,1,4.86645,1.27674.23762.23762,0,0,1,.13727.18676l-.00281.005c-.00769.01367-.0072.029-.014.04291a13.90039,13.90039,0,0,0-5.76544-1.37214.38752.38752,0,0,0-.07617-.00781H44.04138c.001-.01617.00934-.02991.00934-.04638ZM7.65381,20.12488a12.503,12.503,0,0,1,4.86651-1.2768c.554-.02075,1.49726-.03125,2.80365-.03125,1.897,0,3.99341.02234,4.62525.02954l-.00006.08649c0,.01618.00824.03058.00928.04663H13.375a.368.368,0,0,0-.07422.00781,13.89107,13.89107,0,0,0-5.75146,1.36261c-.00629-.01287-.00556-.02716-.01264-.03985l-.01489-.02545A.23623.23623,0,0,1,7.65381,20.12488ZM50.5,45.18317a12.76359,12.76359,0,0,1-6.08771-1.54511c-.17645-.0965-.44812-.23858-.73584-.389-.40515-.21179-.84369-.44061-1.07422-.57409a6.644,6.644,0,0,0-3.26629-.695H24.6875a6.50554,6.50554,0,0,0-3.35736.74976c-.40918.24286-1.13641.6192-2.01355,1.04162-.26209.135-.5296.2602-.84644.39734l-.14825.06763-.02765.01062A12.74531,12.74531,0,0,1,7.24353,21.333c.02087-.01178.03314-.0318.05249-.04529l.0116-.00348a13.16527,13.16527,0,0,1,6.07031-1.54785.37467.37467,0,0,0,.06738-.00684h37.1084a.38412.38412,0,0,0,.06738.00684,13.16,13.16,0,0,1,6.11664,1.57837c.01038.00653.01612.01721.02692.02331A12.74391,12.74391,0,0,1,50.5,45.18317Zm.17963-19.85938a2.25,2.25,0,1,0,2.25,2.25A2.25105,2.25105,0,0,0,50.67963,25.32379Zm0,3.74994a1.5,1.5,0,1,1,1.5-1.49994A1.50166,1.50166,0,0,1,50.67963,29.07373Zm-6.14844,1.07819a2.25,2.25,0,1,0,2.25,2.25A2.24843,2.24843,0,0,0,44.53119,30.15192Zm0,3.74994a1.5,1.5,0,1,1,1.5-1.49994A1.50171,1.50171,0,0,1,44.53119,33.90186Zm15.09088-3.71729a3.42415,3.42415,0,0,0-4.81445-.56934l-6.22754,4.88282a3.42834,3.42834,0,0,0,1.72265,6.10156,3.347,3.347,0,0,0,.40625.02441,3.39285,3.39285,0,0,0,2.11622-.73925L59.05273,35.002a3.42517,3.42517,0,0,0,.56934-4.81738Zm-.0293,2.43262a2.66458,2.66458,0,0,1-1.0039,1.79492L52.36035,39.2959a2.67889,2.67889,0,0,1-3.3164-4.208l6.22851-4.88379a2.673,2.673,0,0,1,3.76074.44629l.001.001A2.6457,2.6457,0,0,1,59.59277,32.61719ZM26.44238,32.4873l-2.65722,2.16993a1.3284,1.3284,0,0,0,.6582,2.36425,1.48326,1.48326,0,0,0,.16016.00977,1.3334,1.3334,0,0,0,.82812-.291l2.66992-2.17382a1.32784,1.32784,0,0,0,.21582-1.86524A1.33463,1.33463,0,0,0,26.44238,32.4873Zm1.19336,1.49122-.00488.0039-2.668,2.17188a.58482.58482,0,0,1-.42969.12207.56609.56609,0,0,1-.38379-.21582.57749.57749,0,0,1,.10352-.81739l2.65918-2.17089a.58163.58163,0,0,1,.81836.0957.57568.57568,0,0,1-.09473.81055ZM34.541,32.2041a1.31224,1.31224,0,0,0-.98047.28223l-2.667,2.17187a1.32971,1.32971,0,0,0,.67481,2.36426,1.31673,1.31673,0,0,0,.97754-.28223l2.665-2.17382A1.33059,1.33059,0,0,0,34.541,32.2041Zm.2041,1.77442-.00586.0039-2.665,2.17383a.59513.59513,0,0,1-.4209.12109.58048.58048,0,0,1-.51172-.6455.56855.56855,0,0,1,.21973-.3877l2.66992-2.17383a.561.561,0,0,1,.35449-.125.53479.53479,0,0,1,.06836.00391.5791.5791,0,0,1,.291,1.0293Z"/></svg>