<svg id="Layer_1" data-name="Layer 1" xmlns="http://www.w3.org/2000/svg" viewBox="0 0 64 64"><path d="M62.06683,31.73212c-.87829-5.15064-2.59338-14.17774-3.84967-15.8042a4.58406,4.58406,0,0,0-.88507-.79792l-.00006-.00012-.00244-.00183c-.0769-.05658-.13654-.1109-.22021-.16821-.56055-1.91486-2.99378-3.75775-5.27045-4.49432a20.84259,20.84259,0,0,0-5.5426-.74347,6.58116,6.58116,0,0,0-3.75031.79089q-.41473-.01785-.81842-.01849l-.356-.00556c-.01971-.00024-.04346-.00244-.063-.00256l-.18975-.00134c-1.79249-.02747-7.10956-.10627-9.11884-.10627-1.9585,0-7.0639.075-8.98108.10419-.165.00116-.338.0022-.49353.00342-.05041.00036-.11053.00574-.16205.00671l-.09094.00141q-.403,0-.81842.01849a6.58193,6.58193,0,0,0-3.75031-.79089,20.84228,20.84228,0,0,0-5.5426.74347c-2.27667.73657-4.7099,2.57946-5.27045,4.49432-.08367.05731-.14331.11163-.22021.16821l-.00244.00183L6.66791,15.13a4.58406,4.58406,0,0,0-.88507.79792c-1.25629,1.62646-2.97138,10.65356-3.84967,15.8042C.97253,37.36542-.6355,47.07684.26447,49.20325c.74768,2.71039,3.04693,5.07464,5.51507,5.07464a5.2872,5.2872,0,0,0,4.45831-2.40149c2.17377-3.54809,4.25434-8.07263,4.808-9.14325a3.2215,3.2215,0,0,1,3.14764-1.62036L32,41.05255l13.80652.06024a3.2215,3.2215,0,0,1,3.14764,1.62036c.55365,1.07062,2.63422,5.59516,4.808,9.14325a5.2872,5.2872,0,0,0,4.45831,2.40149c2.46814,0,4.76739-2.36425,5.51507-5.07464C64.6355,47.07684,63.02747,37.36542,62.06683,31.73212ZM46.29633,10.47205a20.20915,20.20915,0,0,1,5.3117.707,8.71734,8.71734,0,0,1,4.29413,3.03448,23.0844,23.0844,0,0,0-3.92657-1.73016,43.4701,43.4701,0,0,0-7.98078-1.79126A9.90721,9.90721,0,0,1,46.29633,10.47205Zm-33.90436.707a20.20953,20.20953,0,0,1,5.3117-.707,10.04681,10.04681,0,0,1,2.25324.20959,42.93744,42.93744,0,0,0-7.9325,1.80176,23.0844,23.0844,0,0,0-3.92657,1.73016A8.71734,8.71734,0,0,1,12.392,11.17908ZM63.04486,48.91089a.74684.74684,0,0,0-.03235.09289c-.69977,2.53687-2.80469,4.52411-4.792,4.52411a4.524,4.524,0,0,1-3.81879-2.04333c-1.692-2.76166-3.34021-6.14905-4.22571-7.96887-.246-.50562-.436-.89576-.55566-1.127a3.98455,3.98455,0,0,0-3.81049-2.02588L31.9967,40.30261l-13.83422.06085a3.967,3.967,0,0,0-3.78278,2.02521c-.11963.23126-.30963.6214-.55566,1.12708-.8855,1.81976-2.5337,5.20715-4.22571,7.96881a4.52392,4.52392,0,0,1-3.81879,2.04333c-1.9873,0-4.09228-1.98724-4.792-4.52411a.74684.74684,0,0,0-.03235-.09289C.10657,46.90582,1.9707,35.97369,2.67249,31.85815c1.4411-8.45123,2.86035-14.3797,3.70391-15.47174a3.73683,3.73683,0,0,1,.72016-.64941.35491.35491,0,0,0,.0343-.01727,18.95248,18.95248,0,0,1,5.13379-2.52539A38.472,38.472,0,0,1,22.37024,11.243c.11108-.00177.3277-.00513.63513-.00983,4.7298-.03149,13.56647-.03076,18.11969.002l.23767.00366a39.3326,39.3326,0,0,1,10.37262,1.95551,18.95248,18.95248,0,0,1,5.13379,2.52539c.006.0047.014.00268.02014.00695a3.77363,3.77363,0,0,1,.73432.65973c.84356,1.092,2.26281,7.02051,3.70391,15.47174C62.0293,35.97369,63.89349,46.90582,63.04486,48.91089ZM24.03027,19.916a1.79251,1.79251,0,1,0-1.80273-1.793A1.80008,1.80008,0,0,0,24.03027,19.916Zm0-2.835a1.04253,1.04253,0,1,1-1.05273,1.042A1.04908,1.04908,0,0,1,24.03027,17.08105Zm-5.63672,5.90333a4.11483,4.11483,0,1,0-4.11523,4.08789A4.10614,4.10614,0,0,0,18.39355,22.98438Zm-4.11523,3.33789a3.338,3.338,0,1,1,3.36523-3.33789A3.35449,3.35449,0,0,1,14.27832,26.32227Zm12.29,3.45019-2.52051-.02832V27.27441a.7802.7802,0,0,0-.78027-.77832H20.88672a.781.781,0,0,0-.78125.77832l-.03027,2.498H17.58789a.78021.78021,0,0,0-.78125.77734v2.36426a.781.781,0,0,0,.78125.77832l2.51758.02832v2.46973a.7802.7802,0,0,0,.78125.77734h2.38086a.77937.77937,0,0,0,.78027-.77734l.03125-2.498h2.48926a.781.781,0,0,0,.78125-.77832V30.5498A.78021.78021,0,0,0,26.56836,29.77246Zm.03125,3.1416-2.52051.02832a.781.781,0,0,0-.78125.77832l-.03027,2.49707-2.41211-.02734V33.7207a.7802.7802,0,0,0-.78027-.77832l-2.51856-.02832.03125-2.3916H20.0752a.7802.7802,0,0,0,.78027-.77832l.03125-2.49805,2.41113.02832v2.46973a.781.781,0,0,0,.78125.77832l2.52051.02734ZM28.2959,21.2207H26.582a.799.799,0,0,0-.7998.79688v1.70215a.799.799,0,0,0,.7998.79687H28.2959a.7998.7998,0,0,0,.80078-.79687V22.01758A.7998.7998,0,0,0,28.2959,21.2207Zm.05078,2.499-.05078.04687-1.76367-.04687.0498-1.749,1.76465.04688ZM39.88184,19.916a1.79251,1.79251,0,1,0-1.80274-1.793A1.80091,1.80091,0,0,0,39.88184,19.916Zm0-2.835a1.04253,1.04253,0,1,1-1.05274,1.042A1.04929,1.04929,0,0,1,39.88184,17.08105Zm-1.57715,5.78711a1.80276,1.80276,0,1,0-1.80274,1.793A1.79925,1.79925,0,0,0,38.30469,22.86816Zm-2.85547,0a1.05278,1.05278,0,1,1,1.05273,1.043A1.04907,1.04907,0,0,1,35.44922,22.86816Zm4.93848,4.76563A4.08846,4.08846,0,1,0,44.502,31.72168,4.10613,4.10613,0,0,0,40.3877,27.63379Zm0,7.42676A3.33848,3.33848,0,1,1,43.752,31.72168,3.35617,3.35617,0,0,1,40.3877,35.06055Zm3.52539-14.80469a2.72857,2.72857,0,1,0,2.74511,2.72852A2.7397,2.7397,0,0,0,43.91309,20.25586Zm0,4.707a1.97858,1.97858,0,1,1,1.99511-1.97851A1.9889,1.9889,0,0,1,43.91309,24.96289Zm5.03125-.38574a2.72808,2.72808,0,1,0,2.74511,2.72851A2.7397,2.7397,0,0,0,48.94434,24.57715Zm0,4.70605a1.9781,1.9781,0,1,1,1.99511-1.97754A1.98807,1.98807,0,0,1,48.94434,29.2832Zm0-7.8916a2.72808,2.72808,0,1,0-2.74512-2.72851A2.7397,2.7397,0,0,0,48.94434,21.3916Zm0-4.70605a1.9781,1.9781,0,1,1-1.99512,1.97754A1.98807,1.98807,0,0,1,48.94434,16.68555Zm5.03125,3.57031a2.72857,2.72857,0,1,0,2.74511,2.72852A2.73949,2.73949,0,0,0,53.97559,20.25586Zm0,4.707a1.97858,1.97858,0,1,1,1.99511-1.97851A1.98868,1.98868,0,0,1,53.97559,24.96289Z"/></svg>