<svg id="Layer_1" data-name="Layer 1" xmlns="http://www.w3.org/2000/svg" viewBox="0 0 64 64"><path d="M9.84514,5.76208a8.86623,8.86623,0,0,1,5.15309,1.69176l.49255.33519.00781-.007,5.85434,3.949.1901.12823H42.457l.19009-.12823,5.85568-3.94993.01392.01237.48523-.33975a8.86135,8.86135,0,0,1,5.152-1.69159,9.24933,9.24933,0,0,1,7.82248,4.52517,8.74355,8.74355,0,0,1,.17657,8.76612l-.08252.15859c-.35223.64833-.67435,1.1511-.9866,1.63849a14.94522,14.94522,0,0,0-1.3407,2.44,9.388,9.388,0,0,0-.11047,6.90351c.52215,1.7825,1.44549,5.02973,1.76278,6.75039a47.15254,47.15254,0,0,1,.51215,12.49495,28.407,28.407,0,0,1-1.13937,5.99086l-.1587.38174a3.65722,3.65722,0,0,1-3.31539,2.4259,4.499,4.499,0,0,1-4.26575-4.15207c-.06693-.64141-.141-1.306-.21576-1.97658-.23065-2.06887-.46918-4.20818-.51471-5.855-.05322-1.92882-.51324-11.79911-.65295-14.77835a3.8994,3.8994,0,0,0-1.18525-2.64345c-.95388-1.14623-3.37927-1.28891-5.58407-1.33177-.29013-.00565-.52338-.00941-.66947-.02116L44.1709,27.477h-.03012a.98092.98092,0,0,0-.97971.92506L42.551,39.29324a.04874.04874,0,0,1-.05063.042H21.4996a.04815.04815,0,0,1-.05063-.042l-.61-10.89092a.98089.98089,0,0,0-.97965-.92531l-.03693.00005-.03155.00267c-.14853.01257-.38818.01645-.68665.0224-2.19751.04373-4.61465.18708-5.5642,1.33055a3.89926,3.89926,0,0,0-1.18488,2.64321c-.09943,2.11951-.59816,12.79312-.653,14.77827-.04552,1.64685-.284,3.7861-.51469,5.85492-.07476.67059-.14887,1.33527-.21576,1.9767a4.499,4.499,0,0,1-4.26578,4.1521A3.65719,3.65719,0,0,1,3.39049,55.812l-.14371-.3403a27.95539,27.95539,0,0,1-1.15433-6.03231,47.15486,47.15486,0,0,1,.51212-12.495c.3171-1.71953,1.24051-4.96741,1.75248-6.71815a9.39625,9.39625,0,0,0-.101-6.93781,14.91194,14.91194,0,0,0-1.339-2.43638c-.30536-.47649-.62015-.96767-.96336-1.59572l-.10669-.203a8.74231,8.74231,0,0,1,.17666-8.76571A9.24789,9.24789,0,0,1,9.84514,5.76208m0-.75c-6.68174,0-12.39664,7.28455-8.662,14.3902l-.00181.00159c.94613,1.78262,1.68719,2.52226,2.38357,4.1757a8.75762,8.75762,0,0,1,.08266,6.40365C3.12681,31.76108,2.19127,35.05,1.867,36.80841a47.72818,47.72818,0,0,0-.52,12.713c.5506,5.0063,1.346,6.58409,1.346,6.58409l.00494-.00561a4.412,4.412,0,0,0,4.008,2.888,5.22028,5.22028,0,0,0,5.01173-4.82428c.2753-2.63967.673-5.67379.73421-7.88872.05444-1.97205.54541-12.48233.65244-14.76384a3.16969,3.16969,0,0,1,.98852-2.16907c.94675-1.22485,4.87384-1.03981,5.76126-1.11491l.00525-.00006a.23048.23048,0,0,1,.23081.217l.61,10.89119a.79792.79792,0,0,0,.79947.75006H42.50039a.7979.7979,0,0,0,.79944-.75006L43.90988,28.444a.23054.23054,0,0,1,.2309-.217l.00521.00006c.89063.07167,4.813-.10793,5.7612,1.115a3.16978,3.16978,0,0,1,.98856,2.169c.107,2.28151.598,12.79179.65243,14.76384.06122,2.21493.4589,5.249.7342,7.88872a5.22028,5.22028,0,0,0,5.01172,4.82428,4.412,4.412,0,0,0,4.008-2.888l.00494.00561s.79541-1.57779,1.346-6.58409a47.72667,47.72667,0,0,0-.52008-12.713c-.32425-1.7584-1.25979-5.04733-1.78058-6.82518a8.75928,8.75928,0,0,1,.0828-6.40367c.69613-1.65253,1.43756-2.3943,2.38351-4.17569l-.00183-.00159c3.73538-7.10988-1.983-14.39011-8.663-14.39011A9.65253,9.65253,0,0,0,48.57168,6.8394l-.006-.00537-6.338,4.27527H21.77234L15.43432,6.834l-.006.00537A9.65742,9.65742,0,0,0,9.84514,5.01208Zm.97224,15.526H8.35156a.61142.61142,0,0,1-.61133-.61036V17.19727H4.9834a.61163.61163,0,0,1-.61231-.61036V14.14062a.61142.61142,0,0,1,.61231-.60937H7.74023V10.80078a.61141.61141,0,0,1,.61133-.61035h2.46582a.61162.61162,0,0,1,.61231.61035v2.73047h2.75683a.6112.6112,0,0,1,.61133.60937v2.44629a.61141.61141,0,0,1-.61133.61036H11.42969v2.73046A.61163.61163,0,0,1,10.81738,20.53809Zm-2.32715-.75h2.18946V16.44727h3.36816v-2.166H10.67969V10.94043H8.49023v3.34082H5.12109v2.166H8.49023Zm9.9209,1.75976a2.41021,2.41021,0,1,1,2.42676-2.41015A2.42129,2.42129,0,0,1,18.41113,21.54785Zm0-4.07031a1.66024,1.66024,0,1,0,1.67676,1.66016A1.6705,1.6705,0,0,0,18.41113,17.47754Zm5.23633,6.40918a2.41021,2.41021,0,1,1,2.42676-2.41016A2.4213,2.4213,0,0,1,23.64746,23.88672Zm0-4.07031a1.66024,1.66024,0,1,0,1.67676,1.66015A1.6705,1.6705,0,0,0,23.64746,19.81641Zm10.2002-3.76563H31.56152a.74533.74533,0,0,1-.51562-.209l-1.98535-1.38672a.74293.74293,0,0,1-.21387-.83692.734.734,0,0,1,.68262-.459h6.34961a.73311.73311,0,0,1,.51367,1.25879l-.04492.03711-2.03125,1.4248A.68056.68056,0,0,1,33.84766,16.05078Zm2.0166-2.17187-6.335.03027,1.99414,1.35742,2.32422.03418Zm.26758.26953-.26075-.26953Zm4.2666,9.73828a2.41021,2.41021,0,1,1,2.42676-2.41016A2.4213,2.4213,0,0,1,40.39844,23.88672Zm0-4.07031a1.66024,1.66024,0,1,0,1.67676,1.66015A1.67049,1.67049,0,0,0,40.39844,19.81641Zm5.23633,1.73144a2.41021,2.41021,0,1,1,2.42675-2.41015A2.4213,2.4213,0,0,1,45.63477,21.54785Zm0-4.07031a1.66024,1.66024,0,1,0,1.67675,1.66016A1.6705,1.6705,0,0,0,45.63477,17.47754Zm10.01367,3.06055H53.18262a.61163.61163,0,0,1-.61231-.61036V17.19727H49.81348a.61141.61141,0,0,1-.61133-.61036V14.14062a.6112.6112,0,0,1,.61133-.60937h2.75683V10.80078a.61162.61162,0,0,1,.61231-.61035h2.46582a.61141.61141,0,0,1,.61133.61035v2.73047H59.0166a.61142.61142,0,0,1,.61231.60937v2.44629a.61163.61163,0,0,1-.61231.61036H56.25977v2.73046A.61142.61142,0,0,1,55.64844,20.53809Zm-2.32813-.75h2.18946V16.44727h3.36914v-2.166H55.50977V10.94043H53.32031v3.34082H49.95215v2.166h3.36816Z"/></svg>