<svg id="Layer_1" data-name="Layer 1" xmlns="http://www.w3.org/2000/svg" viewBox="0 0 64 64"><path d="M37.37643.75A1.84585,1.84585,0,0,1,39.25,2.56242V61.43768A1.8458,1.8458,0,0,1,37.37643,63.25H26.62955A1.849,1.849,0,0,1,24.75,61.43768V2.56242A1.849,1.849,0,0,1,26.62955.75H37.37643m0-.75H26.62955A2.60509,2.60509,0,0,0,24,2.56242V61.43768A2.60644,2.60644,0,0,0,26.62955,64H37.37643A2.60248,2.60248,0,0,0,40,61.43768V2.56242A2.60113,2.60113,0,0,0,37.37643,0ZM32.96582,14.7207H31.03613a.7.7,0,0,1-.7041-.69531V12.0625l-1.96973.05469a.7.7,0,0,1-.7041-.69531V9.543a.7.7,0,0,1,.7041-.69531H30.332V6.93945a.7.7,0,0,1,.7041-.69531h1.92969a.7.7,0,0,1,.7041.69531V8.90234l1.97168-.05468a.7.7,0,0,1,.7041.69531v1.87891a.7.7,0,0,1-.7041.69531H33.624l.0459,1.9082A.7.7,0,0,1,32.96582,14.7207Zm-2.58789-3.35351a.7.7,0,0,1,.7041.69531v1.96289l1.88379-.05469-.0459-1.9082a.7.7,0,0,1,.7041-.69531H35.6416L35.5957,9.543,33.624,9.59766a.7.7,0,0,1-.7041-.69532V6.93945l-1.88379.05469.0459,1.9082a.7.7,0,0,1-.7041.69532H28.3623l.0459,1.82422ZM27.85742,4.62305a1.65323,1.65323,0,0,1-1.66894-1.63282,1.6688,1.6688,0,0,1,3.33691,0A1.65239,1.65239,0,0,1,27.85742,4.62305Zm0-2.51758a.903.903,0,0,0-.91894.88476.91917.91917,0,0,0,1.83691,0A.90277.90277,0,0,0,27.85742,2.10547Zm-.373,30.249a1.6351,1.6351,0,1,1,1.668-1.63476A1.65317,1.65317,0,0,1,27.48438,32.35449Zm0-2.51953a.88537.88537,0,1,0,.918.88477A.90193.90193,0,0,0,27.48438,29.835Zm4.5166,25.126a2.08205,2.08205,0,1,1,2.12793-2.085A2.109,2.109,0,0,1,32.001,54.96094Zm0-3.41309A1.33233,1.33233,0,1,0,33.37891,52.876,1.3552,1.3552,0,0,0,32.001,51.54785Zm0-2.29a2.082,2.082,0,1,1,2.12793-2.07812A2.10578,2.10578,0,0,1,32.001,49.25781Zm0-3.41308a1.33232,1.33232,0,1,0,1.37793,1.335A1.35836,1.35836,0,0,0,32.001,45.84473Zm0-13.49024a1.63511,1.63511,0,1,1,1.66894-1.63476A1.65424,1.65424,0,0,1,32.001,32.35449Zm0-2.51953a.8854.8854,0,1,0,.91894.88477A.903.903,0,0,0,32.001,29.835Zm0-6.959a2.87382,2.87382,0,1,1,2.94043-2.873A2.91093,2.91093,0,0,1,32.001,22.876Zm0-4.9961a2.12409,2.12409,0,1,0,2.19043,2.123A2.15969,2.15969,0,0,0,32.001,17.87988Zm4.5166,14.47461a1.63508,1.63508,0,1,1,1.667-1.63476A1.65339,1.65339,0,0,1,36.51758,32.35449Zm0-2.51953a.88533.88533,0,1,0,.917.88477A.90278.90278,0,0,0,36.51758,29.835Z"/></svg>