<svg id="Layer_1" data-name="Layer 1" xmlns="http://www.w3.org/2000/svg" viewBox="0 0 64 64"><path d="M25.47656,23.21777h-.91992a1.71985,1.71985,0,0,1,0-3.43945h.91992a1.71983,1.71983,0,0,1,0,3.43945Zm-.91992-2.68945a.96995.96995,0,0,0,0,1.93945h.91992a.96991.96991,0,0,0,0-1.93945Zm-11.4707,5.418a4.81726,4.81726,0,1,1,4.75781-4.81445A4.79234,4.79234,0,0,1,13.08594,25.94629Zm0-8.88379a4.06733,4.06733,0,1,0,4.00781,4.06934A4.04329,4.04329,0,0,0,13.08594,17.0625ZM32,25.32422a3.83086,3.83086,0,1,1,3.7832-3.82813A3.81056,3.81056,0,0,1,32,25.32422Zm0-6.91113a3.08093,3.08093,0,1,0,3.0332,3.083A3.06151,3.06151,0,0,0,32,18.41309Zm7.38281,4.85546h-.92187a1.71743,1.71743,0,0,1,0-3.43457h.92187a1.71734,1.71734,0,0,1,0,3.43457ZM38.46094,20.584a.96754.96754,0,0,0,0,1.93457h.92187a.96739.96739,0,0,0,0-1.93457Zm2.65625,16.919A4.81924,4.81924,0,1,1,45.875,32.68457,4.79382,4.79382,0,0,1,41.11719,37.50293Zm0-8.8877A4.06931,4.06931,0,1,0,45.125,32.68457,4.04328,4.04328,0,0,0,41.11719,28.61523Zm4.78125-4.7998a2.70569,2.70569,0,1,1,2.67968-2.7041A2.69084,2.69084,0,0,1,45.89844,23.81543Zm0-4.66113a1.95574,1.95574,0,1,0,1.92968,1.957A1.942,1.942,0,0,0,45.89844,19.1543Zm5.00781,9.73828a2.70776,2.70776,0,1,1,2.67187-2.707A2.69358,2.69358,0,0,1,50.90625,28.89258Zm0-4.665a1.95785,1.95785,0,1,0,1.92187,1.958A1.94241,1.94241,0,0,0,50.90625,24.22754Zm.05762-5.49316a2.70627,2.70627,0,1,1,2.67187-2.708A2.69277,2.69277,0,0,1,50.96387,18.73438Zm0-4.66211a1.95636,1.95636,0,1,0,1.92187,1.9541A1.93988,1.93988,0,0,0,50.96387,14.07227Zm5.03125,9.73535a2.70578,2.70578,0,1,1,2.67187-2.7041A2.69084,2.69084,0,0,1,55.99512,23.80762Zm0-4.66114a1.95587,1.95587,0,1,0,1.92187,1.957A1.942,1.942,0,0,0,55.99512,19.14648Zm-8.45694-8.41389c4.62787,0,7.62323,1.192,8.91083,3.55715,2.43182,4.24544,4.84039,12.599,5.75939,18.18968l.03138.263c.61682,5.16827,1.765,14.78837.28787,17.59652a.74472.74472,0,0,0-.03784.08409A4.21965,4.21965,0,0,1,58.66843,53.267a3.66089,3.66089,0,0,1-.9144-.11707q-.03242-.00837-.06546-.01382c-2.38181-.39283-5.99677-2.87936-7.7844-4.9003a24.528,24.528,0,0,0-5.02957-3.86606,29.33686,29.33686,0,0,0-7.74218-2.04745c-1.15693-.02275-2.90271-.03527-4.91568-.03527-2.04255,0-4.04169.01318-5.34772.03524a29.12424,29.12424,0,0,0-7.72342,2.03965A23.36718,23.36718,0,0,0,14.02844,48.333c-.98657.9072-1.91842,1.76408-2.76208,2.41823a14.18544,14.18544,0,0,1-5.0205,2.39912,3.66037,3.66037,0,0,1-.91415.117A4.22,4.22,0,0,1,1.51019,50.423a.75359.75359,0,0,0-.03782-.08409c-1.47715-2.80817-.329-12.42834.28787-17.59664l.02672-.23012c.92364-5.6234,3.3322-13.977,5.772-18.23664,1.27965-2.35093,4.275-3.54294,8.90285-3.54293.92584,0,1.915.05029,2.94086.14949a12.39856,12.39856,0,0,1,1.12558.60228,18.42547,18.42547,0,0,0,1.84766.96874,18.555,18.555,0,0,0,6.04678,1.16217l7.194-.00107a18.39737,18.39737,0,0,0,6.00641-1.1609,18.23936,18.23936,0,0,0,1.86252-.97531,12.3511,12.3511,0,0,1,1.113-.596c1.02545-.09913,2.01422-.14937,2.93958-.14937m-2.92.143h0m2.92-.893c-1.06638,0-2.10706.06407-3.06278.15782l.00012.00043c-.41809.058-2.07751,1.18012-3.13922,1.61945a17.68644,17.68644,0,0,1-5.75964,1.105h-7.154a17.73634,17.73634,0,0,1-5.75952-1.105c-1.05658-.43958-2.72132-1.56317-3.13855-1.61988-.95545-.09372-1.99671-.15782-3.06278-.15782-3.77237,0-7.85685.80244-9.56161,3.93437C4.36035,18.351,1.94067,26.94889,1.04688,32.39059.37933,37.98788-.80206,47.62606.80859,50.68808a4.9547,4.9547,0,0,0,4.52312,3.32933,4.39867,4.39867,0,0,0,1.10164-.14085,14.80334,14.80334,0,0,0,5.26929-2.51526c2.44531-1.894,5.43554-5.26141,7.75372-6.31683a28.82435,28.82435,0,0,1,7.42535-1.97235c1.32743-.02243,3.34446-.03513,5.335-.03513,1.84631,0,3.66977.01092,4.90094.03513a28.9687,28.9687,0,0,1,7.42926,1.97223,23.94409,23.94409,0,0,1,4.82818,3.723c1.88739,2.13618,5.67859,4.69428,8.19141,5.1087a4.40192,4.40192,0,0,0,1.1019.1409,4.95373,4.95373,0,0,0,4.523-3.32888c1.61065-3.062.42926-12.7002-.23829-18.29749-.89379-5.4417-3.31347-14.03961-5.85333-18.47363-1.70462-3.13168-5.78949-3.93437-9.56161-3.93437ZM28.178,34.09131c.03827-.16907.06763-.341.09216-.515.00885-.06268.02136-.12457.02832-.18756a6.013,6.013,0,0,0,0-1.40844c-.007-.063-.01947-.12488-.02832-.18756-.02453-.174-.05389-.34589-.09216-.515-.00586-.02563-.00775-.05206-.01392-.07763v-.001c-.00329-.01361-.01184-.02484-.01581-.03821a6.27247,6.27247,0,0,0-4.49945-4.57593c-.01611-.00512-.02978-.0155-.04626-.01965-.03229-.00806-.06592-.01062-.09833-.01813-.15735-.03644-.31744-.06421-.479-.08819-.06836-.01007-.13562-.02387-.20441-.03168a5.75958,5.75958,0,0,0-1.39941,0c-.06879.00781-.136.02161-.20441.03168-.16156.024-.32166.05175-.479.08819-.03241.00751-.066.01007-.09833.01813-.01648.00415-.03015.01453-.04627.01965a6.27256,6.27256,0,0,0-4.5,4.57819c-.00378.01294-.01208.02374-.01526.03693-.00616.02557-.008.052-.01391.07763-.03827.16907-.06763.341-.09216.515-.00885.06268-.02137.12457-.02832.18756a6.01158,6.01158,0,0,0,0,1.40844c.00695.063.01947.12488.02832.18756.02453.174.05389.34589.09216.515.00586.02563.00775.05206.01391.07764.00318.01318.01148.02392.01526.03686a6.27255,6.27255,0,0,0,4.50226,4.57886c.01569.00494.02893.015.045.019.03126.00775.06342.01019.09479.01746.16144.03741.32563.066.49152.09039.06531.00964.12982.02283.19537.03033a5.7664,5.7664,0,0,0,1.39746,0c.06617-.00756.13141-.02093.19739-.03064.16455-.02423.32745-.05249.48755-.08953.03241-.00745.06555-.01.09784-.018.01666-.00415.03046-.01465.04669-.01977a6.27271,6.27271,0,0,0,4.49957-4.57813c.00379-.01294.01209-.02368.01526-.03686C28.17023,34.14337,28.17212,34.11694,28.178,34.09131Zm-.62451-.786c-.00635.05755-.0177.11346-.02576.17047-.02112.14892-.046.29724-.079.44366-.006.02674-.01373.0528-.02014.07941a.12989.12989,0,0,1-.10431.08417l-1.73926.24511a1.80575,1.80575,0,0,0-1.81543,1.76856l-.26074,1.86816a.13122.13122,0,0,1-.08093.10279c-.02784.00695-.05524.01519-.08326.02173-.15289.03546-.30712.0628-.46209.08477-.04657.00666-.09229.01624-.13922.02167a5.43081,5.43081,0,0,1-1.24427,0c-.04693-.00543-.09253-.01495-.1391-.02161-.1557-.02209-.3106-.04962-.46417-.08532-.027-.00629-.05346-.01429-.08032-.021a.13058.13058,0,0,1-.082-.102l-.25684-1.81738A1.806,1.806,0,0,0,18.71484,34.332H18.709l-1.792-.249a.12988.12988,0,0,1-.10327-.08405c-.00647-.02679-.01422-.05316-.02032-.08014-.033-.14587-.05768-.2937-.0788-.44214-.00818-.05737-.01953-.11358-.02588-.17144a5.31223,5.31223,0,0,1,0-1.24128c.00647-.05859.01795-.11547.02618-.17346.02088-.147.04541-.29339.078-.43811.00628-.02807.01446-.05542.02118-.08331a.1317.1317,0,0,1,.103-.083L18.65723,31.04a1.80557,1.80557,0,0,0,1.81543-1.76758l.26074-1.86816a.13077.13077,0,0,1,.08209-.103c.027-.00678.05359-.01483.08081-.02118.149-.03491.30029-.06152.45264-.08343.05066-.00733.10028-.01764.1513-.0235a5.47119,5.47119,0,0,1,1.2417,0c.051.00586.10059.01623.15119.0235.15234.02191.30377.04858.45294.08349.02716.00635.05365.01434.08069.02112a.13059.13059,0,0,1,.082.10205l.25683,1.81738a1.80561,1.80561,0,0,0,1.76075,1.81543h.00683l1.791.25a.13175.13175,0,0,1,.104.083c.00666.02765.01471.05463.02094.0824.033.14673.0578.29492.07886.44372.00793.05628.0191.11145.02539.16822a5.31393,5.31393,0,0,1,.00006,1.24182Zm-.40387-2.79968L25.585,30.29A1.08816,1.08816,0,0,1,24.51172,29.169L24.292,27.5932A5.54044,5.54044,0,0,1,27.1496,30.50562Zm-7.19873-2.91279-.22431,1.62787A1.08817,1.08817,0,0,1,18.60547,30.294l-1.51257.211A5.5403,5.5403,0,0,1,19.95087,27.59283Zm-2.85834,7.27063,1.5647.21466a1.089,1.089,0,0,1,1.07324,1.12208l.21973,1.57574A5.54042,5.54042,0,0,1,17.09253,34.86346Zm7.19879,2.91285.2243-1.62787a1.089,1.089,0,0,1,1.1211-1.07422l1.51269-.21033A5.54065,5.54065,0,0,1,24.29132,37.77631Z"/></svg>