<svg xmlns="http://www.w3.org/2000/svg" viewBox="0 0 64 64" class="ccsvg ccsvg--solid ccsvg--atari-jaguar"><path class="ccsvg__primary" d="m17.383 17.712.044-1.442a.369.369 0 0 0-.382-.405l-.029-.004a8.536 8.536 0 0 0-2.368.004.37.37 0 0 0-.382.4l.022 1.453a.342.342 0 0 1-.394.365l-1.578-.033a.376.376 0 0 0-.431.357l-.003.014a6.927 6.927 0 0 0 0 2.207l.003.015a.376.376 0 0 0 .431.356l1.578-.032a.342.342 0 0 1 .394.365l-.022 1.452a.37.37 0 0 0 .382.4 8.534 8.534 0 0 0 2.368.005l.03-.004a.369.369 0 0 0 .381-.406l-.044-1.441a.342.342 0 0 1 .394-.37l1.526.03a.376.376 0 0 0 .432-.356l.002-.013a6.931 6.931 0 0 0 0-2.209l-.002-.012a.376.376 0 0 0-.432-.357l-1.526.03a.342.342 0 0 1-.394-.37v.001Zm46.584 16.791C62.94 13.15 50.54 10.07 46.438 9.637a2.552 2.552 0 0 1-1.575-.67 4.411 4.411 0 0 0-2.403-.888 97.583 97.583 0 0 0-10.436-.7 87.4 87.4 0 0 0-11.314.884 2.96 2.96 0 0 0-1.566.686 2.656 2.656 0 0 1-1.635.694c-4.154.454-16.453 3.599-17.476 24.86a24.35 24.35 0 0 0 .157 4.353 48.876 48.876 0 0 0 1.076 8.25 46.252 46.252 0 0 0 3.058 8.445l.024.05c.68.797 5.927.983 7.35 1.019.233.006.464-.043.674-.143l.025-.012a1.49 1.49 0 0 1 .648-.143l3.888.028c.323.002.638-.1.898-.293l.391-.29a1.49 1.49 0 0 1 .602-.266h26.352c.218.043.424.134.602.266l.39.29c.26.193.576.296.9.293l3.887-.028a1.49 1.49 0 0 1 .648.143l.025.012c.21.1.441.149.674.143 1.423-.036 6.67-.222 7.35-1.02l.024-.049a46.252 46.252 0 0 0 3.058-8.445 48.876 48.876 0 0 0 1.076-8.25c.182-1.443.235-2.9.157-4.353ZM15.81 24.25a4.907 4.907 0 0 1-5.069-4.726 4.907 4.907 0 0 1 5.069-4.727 4.907 4.907 0 0 1 5.069 4.727 4.907 4.907 0 0 1-5.069 4.726Zm9.812 28.231h-3.22a.753.753 0 1 1 0-1.507h3.22a.753.753 0 1 1 0 1.507Zm0-5.175h-3.22a.753.753 0 1 1 0-1.507h3.22a.753.753 0 1 1 0 1.507Zm.126-5.175h-3.22a.753.753 0 1 1 0-1.507h3.22a.753.753 0 1 1 0 1.507Zm0-5.176h-3.22a.753.753 0 1 1 0-1.507h3.22a.753.753 0 1 1 0 1.507Zm.994-10.887a.701.701 0 0 1-.144-.981l2.002-2.69a.701.701 0 0 1 1.125.837l-2.002 2.69a.701.701 0 0 1-.98.144h-.001Zm6.816 26.413h-3.22a.753.753 0 1 1 0-1.507h3.22a.753.753 0 1 1 0 1.507Zm0-5.175h-3.22a.753.753 0 1 1 0-1.507h3.22a.753.753 0 1 1 0 1.507Zm.126-5.175h-3.22a.753.753 0 1 1 0-1.507h3.22a.753.753 0 1 1 0 1.507Zm0-5.176h-3.22a.753.753 0 1 1 0-1.507h3.22a.753.753 0 1 1 0 1.507Zm.791-13.722-2.002 2.69a.701.701 0 1 1-1.125-.838l2.002-2.69a.701.701 0 1 1 1.125.838Zm6.997 29.317h-3.22a.753.753 0 1 1 0-1.507h3.22a.753.753 0 1 1 0 1.507Zm0-5.176h-3.22a.753.753 0 1 1 0-1.507h3.22a.753.753 0 1 1 0 1.507Zm.125-5.175h-3.22a.753.753 0 1 1 0-1.507h3.22a.753.753 0 1 1 0 1.507Zm0-5.175h-3.22a.753.753 0 1 1 0-1.507h3.22a.753.753 0 1 1 0 1.507Zm4.613-9.754c-.172.377-.185.398-.768 1.51s-1.074.874-1.51.874c0 0-2.728 0-4.317-.026a1.1 1.1 0 0 1-1.179-.95 1.877 1.877 0 0 1 .232-1.306l1.662-2.856c.848-1.325 1.98-.527 2.57-.265.953.424 1.72.847 2.86 1.457a1.017 1.017 0 0 1 .45 1.562Zm3.66-5.414c-.061.253-.17.491-.321.703-.223.317-.7.985-1.22 1.639a1.458 1.458 0 0 1-1.923.18c-.38-.175-2.257-1.047-3.348-1.663a1.072 1.072 0 0 1-.397-1.696l1.43-1.827c.61-.9 1.801-.291 1.801-.291s2.781 1.35 3.603 1.827c.373.242.529.71.375 1.128Zm4.021-4.65c-.06.252-.17.49-.32.702-.223.317-.58.648-1.269 1.39-.473.479-1.21.58-1.794.245a1.466 1.466 0 0 0-.064-.03l-3.266-1.47a1.354 1.354 0 0 1-.173-.093.997.997 0 0 1-.519-1.207c.066-.205.18-.391.334-.542l1.312-1.315c.047-.045.09-.094.13-.145.567-.751 1.572-.326 1.738-.249l.056.025c.302.124 2.691 1.114 3.46 1.56.373.242.529.71.375 1.128v.001Z"/></svg>