<svg xmlns="http://www.w3.org/2000/svg" viewBox="0 0 64 64" class="ccsvg ccsvg--solid ccsvg--atari-2600"><path class="ccsvg__primary" d="M32.136 58.009c-.407 0-.82-.011-1.226-.033l.057-1.088c.786.042 1.574.042 2.36 0l.058 1.087c-.413.022-.834.034-1.249.034Zm-3.688-.296a22.811 22.811 0 0 1-2.42-.53l.29-1.05c.758.21 1.527.378 2.304.504l-.174 1.076Zm7.4-.004-.176-1.075a21.749 21.749 0 0 0 2.303-.506l.291 1.05c-.796.22-1.604.398-2.419.531h.001ZM23.68 56.395a22.854 22.854 0 0 1-2.249-1.04l.51-.963c.696.369 1.41.699 2.142.99l-.403 1.013Zm16.933-.009-.404-1.012c.73-.292 1.445-.623 2.14-.992l.511.962c-.73.388-1.48.736-2.247 1.042Zm-21.304-2.31a23.078 23.078 0 0 1-1.972-1.498l.706-.83c.6.509 1.227.985 1.878 1.427l-.612.901Zm25.671-.01-.612-.902c.65-.442 1.277-.92 1.876-1.429l.706.83a23.081 23.081 0 0 1-1.97 1.5v.001Zm-29.441-3.19a23.066 23.066 0 0 1-1.605-1.886l.866-.66c.477.626.988 1.225 1.529 1.796l-.79.75Zm33.208-.015-.79-.749c.54-.571 1.05-1.171 1.527-1.797l.867.66c-.5.657-1.036 1.287-1.604 1.886Zm-36.206-3.918a22.899 22.899 0 0 1-1.164-2.185l.988-.459c.332.713.701 1.408 1.108 2.081l-.932.563Zm39.201-.018-.933-.562c.406-.674.776-1.37 1.107-2.083l.988.458c-.348.75-.735 1.48-1.162 2.187Zm-41.284-4.467a22.799 22.799 0 0 1-.664-2.386l1.064-.235c.17.768.38 1.527.632 2.272l-1.032.349Zm43.364-.022-1.033-.347c.251-.746.461-1.505.63-2.274l1.064.233a22.792 22.792 0 0 1-.661 2.388ZM9.394 37.628a23.242 23.242 0 0 1-.134-2.472l1.089-.001c0 .787.044 1.573.128 2.355l-1.083.118Zm45.487-.024-1.083-.116c.084-.783.125-1.569.125-2.356v-.047h1.09v.047c0 .826-.044 1.65-.132 2.472Zm-44.409-4.805-1.083-.115c.087-.822.22-1.638.395-2.445l1.065.232a21.83 21.83 0 0 0-.377 2.328Zm43.32-.068a21.827 21.827 0 0 0-.383-2.327l1.064-.235c.178.806.313 1.622.403 2.443l-1.084.119Zm-42.316-4.534-1.033-.346c.263-.784.568-1.552.915-2.303l.989.457a21.71 21.71 0 0 0-.871 2.192Zm41.299-.064a21.725 21.725 0 0 0-.878-2.189l.988-.46c.349.75.657 1.517.922 2.3l-1.032.349ZM13.451 23.92l-.934-.561c.426-.708.89-1.392 1.39-2.05l.867.658a21.91 21.91 0 0 0-1.323 1.953Zm37.336-.056a21.91 21.91 0 0 0-1.329-1.948l.866-.662c.502.656.968 1.34 1.396 2.046l-.933.564ZM16.3 20.168l-.791-.748c.567-.6 1.167-1.17 1.795-1.706l.707.83c-.599.51-1.17 1.052-1.71 1.624H16.3Zm31.627-.047a22.01 22.01 0 0 0-1.715-1.62l.704-.83c.63.534 1.23 1.102 1.8 1.7l-.789.75Zm-28.042-3.008-.613-.9c.683-.465 1.39-.893 2.119-1.282l.512.961c-.694.37-1.368.777-2.018 1.22v.001Zm24.448-.037a21.84 21.84 0 0 0-2.023-1.215l.51-.963c.73.387 1.439.813 2.123 1.276l-.61.902Zm-20.291-2.178-.405-1.011a22.76 22.76 0 0 1 2.346-.795l.292 1.05a21.66 21.66 0 0 0-2.233.756Zm16.126-.025c-.731-.29-1.478-.54-2.236-.75l.289-1.05c.797.22 1.58.482 2.349.787l-.402 1.013Zm-11.59-1.24-.177-1.074a23.027 23.027 0 0 1 2.462-.269l.06 1.088c-.786.043-1.568.129-2.345.256v-.001Zm7.05-.01a21.968 21.968 0 0 0-2.346-.249l.056-1.088c.825.043 1.647.13 2.463.261l-.173 1.076ZM59.589 0H4.41A4.411 4.411 0 0 0 0 4.411V59.59A4.411 4.411 0 0 0 4.411 64H59.59A4.411 4.411 0 0 0 64 59.589V4.41A4.411 4.411 0 0 0 59.589 0ZM32 59.506C18.461 59.504 7.488 48.527 7.49 34.989c0-4.653 1.325-9.209 3.818-13.136l-5.254-5.254A8.034 8.034 0 1 1 17.416 5.237L24 11.822c12.797-4.418 26.753 2.375 31.17 15.171C59.59 39.79 52.797 53.746 40 58.164A24.513 24.513 0 0 1 32 59.506ZM17.566 10.894a5.855 5.855 0 1 1-11.71 0 5.855 5.855 0 0 1 11.71-.001v.001Zm14.57 7.897c-9.024 0-16.34 7.316-16.34 16.34s7.316 16.34 16.34 16.34 16.34-7.316 16.34-16.34c0-9.024-7.316-16.34-16.34-16.34Zm0 29.55c-7.295 0-13.209-5.914-13.209-13.209s5.914-13.209 13.209-13.209 13.208 5.913 13.209 13.208c.001 7.295-5.911 13.209-13.206 13.21h-.003Zm-4.633-7.69-2.58-4.47a2.37 2.37 0 0 1 0-2.37l2.58-4.47a2.37 2.37 0 0 1 2.052-1.185h5.162a2.37 2.37 0 0 1 2.052 1.185l2.581 4.47a2.37 2.37 0 0 1 0 2.37l-2.581 4.47a2.37 2.37 0 0 1-2.052 1.184h-5.162a2.37 2.37 0 0 1-2.052-1.184Z"/></svg>