<svg xmlns="http://www.w3.org/2000/svg" viewBox="0 0 64 64" class="ccsvg ccsvg--solid ccsvg--dreamcast"><path class="ccsvg__primary" d="M60.775 14.44a17.443 17.443 0 0 0-.97-2.052 1.685 1.685 0 0 0-.7-.599c-1.66-.788-8.554-2.302-8.554-2.302a22.88 22.88 0 0 0-37.102 0s-6.895 1.514-8.554 2.302a1.685 1.685 0 0 0-.7.6 17.443 17.443 0 0 0-.97 2.052c-.941 2.346-2.327 7.262-1.437 18.644A98.764 98.764 0 0 0 3.97 48.472a54.118 54.118 0 0 0 3.04 9.49 36.028 36.028 0 0 0 2.997 5.271 1.676 1.676 0 0 0 1.85.703 50.918 50.918 0 0 1 1.94-7.38c.53-1.318.44-1.626 3.702-2.241a108.198 108.198 0 0 1 12.868-1.67A35.427 35.427 0 0 1 32 52.598c.539 0 1.082.023 1.633.049a108.198 108.198 0 0 1 12.868 1.669c3.261.615 3.172.923 3.701 2.24a50.918 50.918 0 0 1 1.94 7.381 1.676 1.676 0 0 0 1.85-.703 36.028 36.028 0 0 0 2.998-5.272 54.118 54.118 0 0 0 3.04-9.489 98.764 98.764 0 0 0 2.182-15.387c.89-11.382-.496-16.298-1.437-18.644ZM4.752 20.225a4.583 4.583 0 1 1 4.584 4.569 4.576 4.576 0 0 1-4.584-4.569ZM17.72 36.347h-3.338v3.328c0 .2-.71.362-1.587.362s-1.586-.162-1.586-.362v-3.328H7.87c-.201 0-.364-.708-.364-1.582s.163-1.581.364-1.581h3.338v-3.328c0-.2.71-.362 1.586-.362s1.587.162 1.587.362v3.328h3.338c.2 0 .364.708.364 1.582s-.163 1.581-.364 1.581Zm17.077 12.631a32.472 32.472 0 0 1-5.575 0 .172.172 0 0 1-.134-.257 31.721 31.721 0 0 1 2.635-4.553l.138-.197a.172.172 0 0 1 .297 0l.137.197a31.722 31.722 0 0 1 2.636 4.553.172.172 0 0 1-.134.257Zm4.112-27.185a3.014 3.014 0 0 1-3.01 3h-7.796a3.014 3.014 0 0 1-3.01-3V15.36a3.014 3.014 0 0 1 3.01-3h7.796a3.014 3.014 0 0 1 3.01 3Zm7.818 6.712a2.52 2.52 0 1 1 2.529-2.52 2.525 2.525 0 0 1-2.529 2.52Zm5.487 5.338a2.52 2.52 0 1 1 2.528-2.52 2.525 2.525 0 0 1-2.528 2.52Zm0-10.675a2.52 2.52 0 1 1 2.528-2.521 2.525 2.525 0 0 1-2.528 2.52Zm5.486 5.337a2.52 2.52 0 1 1 2.529-2.52 2.525 2.525 0 0 1-2.529 2.52Z"/></svg>