<svg xmlns="http://www.w3.org/2000/svg" viewBox="0 0 64 64" class="ccsvg ccsvg--solid ccsvg--gamecube"><path class="ccsvg__primary" d="M63.482 31.503s-.429-4.233-.59-6.534a11.267 11.267 0 0 0-5.323-10.98 7.456 7.456 0 0 0-3.108-3.066 5.861 5.861 0 0 0-4.6-.24A52.145 52.145 0 0 0 32 7.863a52.164 52.164 0 0 0-17.859 2.82 5.865 5.865 0 0 0-4.596.24 7.409 7.409 0 0 0-3.163 3.172 11.349 11.349 0 0 0-5.232 9.56c0 .124.015.244.019.367-.002.032-.01.063-.01.095-.08 1.852-.641 7.387-.641 7.387-.932 7.02-.531 17.048.601 20.791 1.133 3.743 3.864 3.81 3.864 3.81 5.587.828 5.91-13.382 6.448-15.769a5.007 5.007 0 0 1 .293-.912.73.73 0 0 1 1.33-.053l.123.249a9.858 9.858 0 0 1 .509 1.345 8.434 8.434 0 0 0 10.588 5.36 7.943 7.943 0 0 0 5.412-6.504 8.132 8.132 0 0 0-2.358-7.01 15.087 15.087 0 0 1-1.316-1.442 2.081 2.081 0 0 1-.554-1.196.572.572 0 0 1 .277-.495 22.22 22.22 0 0 1 6.265-.66 22.167 22.167 0 0 1 6.261.66.592.592 0 0 1 .278.536 2.116 2.116 0 0 1-.55 1.155 15.085 15.085 0 0 1-1.317 1.442 8.132 8.132 0 0 0-2.358 7.01 7.943 7.943 0 0 0 5.412 6.504 8.434 8.434 0 0 0 10.588-5.36 9.858 9.858 0 0 1 .51-1.345l.122-.249a.73.73 0 0 1 1.33.053 5.007 5.007 0 0 1 .293.912c.537 2.387.86 16.597 6.448 15.769 0 0 2.73-.067 3.864-3.81 1.132-3.743 1.533-13.772.601-20.79Zm-51.232-2.38a5.035 5.035 0 0 1-5.027-5.039 5.113 5.113 0 0 1 5.027-5.048 5.044 5.044 0 0 1 0 10.088Zm13.535 7.627a.176.176 0 0 1 .176.176v2.665a.173.173 0 0 1-.173.173h-2.292a.172.172 0 0 0-.172.172v2.3a.173.173 0 0 1-.172.173h-2.66a.173.173 0 0 1-.172-.172v-2.3a.173.173 0 0 0-.172-.173h-2.293a.172.172 0 0 1-.171-.172v-2.67a.173.173 0 0 1 .172-.172h2.292a.172.172 0 0 0 .172-.172v-2.297a.177.177 0 0 1 .177-.176h2.651a.172.172 0 0 1 .172.172v2.3a.172.172 0 0 0 .173.173Zm6.154-10.776a1.517 1.517 0 1 1 1.512-1.516 1.512 1.512 0 0 1-1.512 1.516Zm9.693 1.13a2.426 2.426 0 1 1 2.95 2.965 2.415 2.415 0 0 1-2.95-2.964Zm5.174 11.924a4.541 4.541 0 1 1-5.2-5.229 4.565 4.565 0 0 1 5.2 5.23Zm-.827-20.574a1.617 1.617 0 0 1 .301-1.523 5.441 5.441 0 0 1 2.305-1.646 4.452 4.452 0 0 1 3.621.341 1.606 1.606 0 0 1 .656 1.297 1.63 1.63 0 0 1-1.593 1.603 7.882 7.882 0 0 0-1.094.11c-.313.075-.567.18-.871.274-.821.258-1.043.641-1.765.655a1.565 1.565 0 0 1-1.56-1.11Zm9.036 6.181a3.732 3.732 0 1 1-4.273-4.296 3.75 3.75 0 0 1 4.273 4.296Zm4.796.675a1.588 1.588 0 0 1-1.288.663 1.631 1.631 0 0 1-1.598-1.603 7.854 7.854 0 0 0-.11-1.094c-.074-.317-.18-.572-.273-.878-.254-.8-.618-1.033-.65-1.708a1.633 1.633 0 0 1 1.36-1.685 1.6 1.6 0 0 1 1.263.36 5.521 5.521 0 0 1 1.64 2.312 4.473 4.473 0 0 1-.344 3.633Z"/></svg>