<svg xmlns="http://www.w3.org/2000/svg" viewBox="0 0 64 64" class="ccsvg ccsvg--solid ccsvg--joy-con-r"><path class="ccsvg__primary" d="M47.212 14.63c0-.411-.023-.816-.062-1.216a13.565 13.565 0 0 0-.826-3.584c.005-.002.013.003.018 0a1.2 1.2 0 0 0 .338-1.44A14.837 14.837 0 0 0 33.335 0h-3.342c-.484 0-1.135.393-1.135.876h-3.013a7.678 7.678 0 0 0-7.642 7.68v4.706h-.831a.584.584 0 0 0-.585.584v7.577a.584.584 0 0 0 .585.584h.831v16.49h-.831a.584.584 0 0 0-.585.585v7.577a.584.584 0 0 0 .585.584h.831v8.096a7.286 7.286 0 0 0 2.582 5.552c1.902 1.502 3.222 2.02 3.222 1.652v-.985c0-.695.485-1.139 1.609-1.514.128-.042.195-.202.229-.384v3.693a.647.647 0 0 0 .647.647h6.843a13.822 13.822 0 0 0 13.878-13.763V14.638Zm-10.69-5.05a2.433 2.433 0 1 1-2.452 2.435 2.443 2.443 0 0 1 2.451-2.435Zm2.452 11.834a2.452 2.452 0 1 1-2.453-2.433 2.44 2.44 0 0 1 2.453 2.433Zm-11.13-13.71V6.406h.982v-.971h1.304v.97h.981v1.299h-.98v.973h-1.305v-.973Zm3.767 6.617a2.431 2.431 0 1 1-2.44 2.432 2.447 2.447 0 0 1 2.44-2.432Zm.64 34.426a2.524 2.524 0 1 1 2.549-2.528 2.545 2.545 0 0 1-2.548 2.528Zm4.272-9.466a5.064 5.064 0 1 1 5.11-5.062 5.09 5.09 0 0 1-5.11 5.062Zm4.902-20.097a2.431 2.431 0 1 1 2.452-2.432 2.434 2.434 0 0 1-2.452 2.432Z"/></svg>