<svg xmlns="http://www.w3.org/2000/svg" viewBox="0 0 64 64" class="ccsvg ccsvg--solid ccsvg--joy-con-l"><path class="ccsvg__primary" d="M46.628 22.007a.584.584 0 0 0 .585-.584v-7.577a.584.584 0 0 0-.585-.584h-.831V8.556a7.678 7.678 0 0 0-7.642-7.68h-3.013c0-.483-.651-.876-1.135-.876h-3.342A14.837 14.837 0 0 0 17.32 8.39a1.2 1.2 0 0 0 .338 1.44c.005.003.013-.002.018 0a13.565 13.565 0 0 0-.826 3.584c-.04.4-.062.805-.062 1.216v35.607A13.822 13.822 0 0 0 30.664 64h6.843a.647.647 0 0 0 .647-.647V59.66c.034.182.1.342.23.384 1.123.375 1.608.82 1.608 1.514v.985c0 .368 1.32-.15 3.222-1.652a7.286 7.286 0 0 0 2.582-5.552v-8.096h.831a.584.584 0 0 0 .585-.584v-7.577a.584.584 0 0 0-.585-.584h-.831V22.007ZM27.472 11.681a5.091 5.091 0 1 1-5.13 5.093 5.113 5.113 0 0 1 5.13-5.093Zm-5.563 24.99a2.448 2.448 0 1 1 3.03-2.954 2.44 2.44 0 0 1-3.03 2.955Zm6.2-9.488a2.422 2.422 0 0 1 1.735 1.694 2.467 2.467 0 1 1-1.735-1.694Zm-1.277 14.172a2.425 2.425 0 0 1-1.731-1.689 2.467 2.467 0 1 1 1.73 1.689Zm6.87 6.292a.507.507 0 0 1-.506.507h-2.891a.507.507 0 0 1-.507-.507v-2.848a.507.507 0 0 1 .507-.507h2.89a.507.507 0 0 1 .507.507ZM34.77 34.98a2.422 2.422 0 0 1-1.735 1.693 2.443 2.443 0 1 1 1.735-1.693Zm1.396-27.263H32.88V6.41h3.286Z"/></svg>