<svg xmlns="http://www.w3.org/2000/svg" viewBox="0 0 64 64" class="ccsvg ccsvg--solid ccsvg--joy-cons"><path class="ccsvg__primary" d="M61.834 31.886c-1.94-10.298-4.923-14.485-5.072-14.69a10.052 10.052 0 0 0-.381-1.252c.004-.001.009.002.012 0a.87.87 0 0 0 .245-1.044 10.745 10.745 0 0 0-9.664-6.075h-2.42c-.351 0-.823.284-.823.634H42.05a.5.5 0 0 0-.5.5v1.222a1.646 1.646 0 0 1-1.453-1.332.499.499 0 0 0-.484-.39H24.398a.499.499 0 0 0-.483.39 1.646 1.646 0 0 1-1.453 1.332V9.959a.5.5 0 0 0-.5-.5h-1.683c0-.35-.471-.634-.822-.634h-2.42A10.745 10.745 0 0 0 7.372 14.9a.87.87 0 0 0 .245 1.044c.004.002.009-.001.013 0a10.043 10.043 0 0 0-.386 1.271l-.002-.024c-.124.17-3.127 4.352-5.076 14.695C.175 42.45-.6 46.101.506 49.032s4.425 7.577 9.182 3.153c.027-.026.05-.054.077-.08l-.003-.033a10.051 10.051 0 0 0 7.275 3.103h29.937a10.052 10.052 0 0 0 7.263-3.09l-.002.02c.027.026.05.054.077.08 4.757 4.424 8.075-.222 9.182-3.153s.332-6.582-1.66-17.146ZM14.731 17.294a3.687 3.687 0 1 1-3.715 3.69 3.703 3.703 0 0 1 3.715-3.69Zm-4.028 18.1a1.773 1.773 0 1 1 2.194-2.14 1.766 1.766 0 0 1-2.194 2.14Zm4.49-6.872a1.754 1.754 0 0 1 1.256 1.226 1.787 1.787 0 1 1-1.256-1.226Zm-.925 10.263a1.756 1.756 0 0 1-1.254-1.223 1.787 1.787 0 1 1 1.254 1.223Zm4.976 4.557a.367.367 0 0 1-.367.367h-2.094a.367.367 0 0 1-.367-.367v-2.063a.367.367 0 0 1 .367-.367h2.094a.367.367 0 0 1 .367.367Zm.772-9.174a1.754 1.754 0 0 1-1.256 1.226 1.77 1.77 0 1 1 1.256-1.226Zm1.011-19.744h-2.38v-.946h2.38Zm28.265 1.349a1.762 1.762 0 1 1-1.775 1.763 1.769 1.769 0 0 1 1.775-1.763Zm1.777 8.57a1.776 1.776 0 1 1-1.777-1.762 1.767 1.767 0 0 1 1.777 1.762Zm-8.06-9.93v-.939h.71v-.703h.945v.703h.71v.94h-.71v.705h-.945v-.705Zm2.727 4.794a1.76 1.76 0 1 1-1.766 1.76 1.772 1.772 0 0 1 1.766-1.76Zm.464 24.932a1.828 1.828 0 1 1 1.846-1.831 1.843 1.843 0 0 1-1.846 1.83Zm3.094-6.856a3.668 3.668 0 1 1 3.7-3.666 3.687 3.687 0 0 1-3.7 3.666Zm3.55-14.555a1.76 1.76 0 1 1 1.775-1.76 1.763 1.763 0 0 1-1.775 1.76Z"/></svg>