<svg xmlns="http://www.w3.org/2000/svg" viewBox="0 0 64 64" class="ccsvg ccsvg--solid ccsvg--master-system"><path class="ccsvg__primary" d="M63.3 19H.7c-.4 0-.7.3-.7.8v24.5c0 .4.3.7.7.7h62.5c.4 0 .8-.3.7-.8V19.8c.1-.5-.2-.8-.6-.8zm-.4 21.7c0 .2-.2.4-.4.4h-33c-.2 0-.4.2-.4.4v1.9c0 .2-.2.4-.4.4H5.1c-.2 0-.4-.2-.4-.4V20.5c0-.2.2-.4.4-.4h23.6c.2 0 .4.2.4.4v5.7c0 .2.2.4.4.4h33c.2 0 .4.2.4.4v13.7zM40.3 28.3H50v1.8h-9.7v-1.8zm-19.9-4.7h-7c-2.6 0-4.6 2.1-4.6 4.7v7.2c0 2.6 2 4.7 4.6 4.7h7c2.6 0 4.6-2.1 4.6-4.7v-7.2c0-2.5-2-4.6-4.6-4.7zm-8.1 8.9h-1.6c-.3 0-.5-.2-.5-.5s.2-.5.5-.5h1.6c.3 0 .5.2.5.5s-.2.5-.5.5zm5.1 5.9c0 .3-.2.5-.5.5s-.5-.2-.5-.5v-1.6c0-.3.2-.5.5-.5s.5.2.5.5v1.6zm0-11.2c0 .3-.2.5-.5.5s-.5-.2-.5-.5v-1.6c0-.3.2-.5.5-.5s.5.2.5.5v1.6zm5.7 5.3h-1.6c-.3 0-.5-.2-.5-.5s.2-.5.5-.5h1.6c.3 0 .5.2.5.5.1.3-.2.5-.5.5zM51 28.3h9.7v1.8H51v-1.8zM8.3 35.6v-7.2c0-1.3.5-2.6 1.3-3.5l-2.3-2.4c-.1-.1-.2-.1-.2 0v19c0 .1.1.1.1.2h.1l2.3-2.4c-.8-1.2-1.3-2.4-1.3-3.7zm17.8-13.8H7.8c-.1 0-.2.1-.1.2v.1l2.3 2.4c.9-.9 2.1-1.3 3.4-1.3h7c1.3 0 2.5.5 3.4 1.4l2.3-2.4c.1-.1.1-.2 0-.2.1-.2 0-.2 0-.2zm.4.7-2.3 2.4c.8 1 1.3 2.2 1.3 3.5v7.2c0 1.3-.5 2.5-1.3 3.5l2.3 2.4c.1.1.2.1.2 0V22.6c0-.1-.1-.2-.1-.2l-.1.1zm-.3 19.4-2.3-2.4c-.9.9-2.2 1.4-3.4 1.4h-7c-1.3 0-2.5-.5-3.4-1.3L7.8 42c-.1.1-.1.2 0 .2H26.2c.1 0 .2-.1.1-.2l-.1-.1zm14.1-11.3v10H50v-10h-9.7zm4.8 8c-1.7 0-3-1.4-3-3 0-1.7 1.4-3 3-3 1.7 0 3 1.4 3 3 0 1.7-1.3 3-3 3zm5.9-8v10h9.7v-10H51zm4.8 8c-1.7 0-3-1.4-3-3 0-1.7 1.4-3 3-3 1.7 0 3 1.4 3 3 .1 1.7-1.3 3-3 3z"/></svg>