<svg xmlns="http://www.w3.org/2000/svg" viewBox="0 0 64 64" class="ccsvg ccsvg--solid ccsvg--mega-drive"><path class="ccsvg__primary" d="M14.251 24.655a6.172 6.172 0 1 0 6.08 6.171 6.124 6.124 0 0 0-6.08-6.171Zm4.617 7.514h-3.05a.246.246 0 0 0-.245.248v3.027a.248.248 0 0 1-.244.25h-2.155a.25.25 0 0 1-.245-.25v-3.031a.246.246 0 0 0-.244-.248h-2.96a.248.248 0 0 1-.245-.249V29.72a.246.246 0 0 1 .244-.245h2.96a.246.246 0 0 0 .245-.244v-3.07a.248.248 0 0 1 .245-.249h2.159a.246.246 0 0 1 .244.248v3.075a.243.243 0 0 0 .244.244h3.047a.245.245 0 0 1 .242.245v2.196a.247.247 0 0 1-.242.249Zm44.903-3.425a12.81 12.81 0 0 0-4.168-7.392c-6.44-5-18.792-8.685-27.603-8.362-8.812-.303-21.154 3.341-27.6 8.358a12.847 12.847 0 0 0-4.173 7.396C-.992 37.24 2.805 44.867 9.01 49.745a6.241 6.241 0 0 0 5.524 1.033c2.012-.723 1.922-1.12 3.815-4.338a9.177 9.177 0 0 1 6.026-4.791 26.521 26.521 0 0 1 15.252-.008 9.182 9.182 0 0 1 6.023 4.79c1.893 3.218 1.807 3.624 3.817 4.339a6.202 6.202 0 0 0 5.522-1.025 22.496 22.496 0 0 0 8.783-21ZM14.251 40.97a10.15 10.15 0 0 1 0-20.298 10.15 10.15 0 0 1 0 20.298ZM43.1 22.267l4.126-1.81a.737.737 0 0 1 .978.382.75.75 0 0 1-.403.985l-4.126 1.814a.736.736 0 0 1-.978-.382.763.763 0 0 1 .403-.989Zm12.045 12.627c-.196.08-.5.226-.884.393-1.783.82-4.892 2.227-5.729 2.672a33.65 33.65 0 0 0-3.265 1.811c-3.527 1.962-7.78-1.094-7.56-5.226.244-3.406 2.076-4.496 4.83-6.741a18.883 18.883 0 0 1 4.963-2.944 19.84 19.84 0 0 1 2.041-.764 19.306 19.306 0 0 1 5.824-1.158c.024 0-.015-.004 0 0 4.557-.37 7.958 5.118 5.177 8.813-1.156 1.882-3.542 2.317-5.397 3.144Zm-11.974-2.99a2.678 2.678 0 1 1-2.636 2.676 2.658 2.658 0 0 1 2.636-2.675Zm6.476-3.52a2.677 2.677 0 1 1-2.636 2.678 2.656 2.656 0 0 1 2.636-2.677Zm6.68-2.65a2.677 2.677 0 1 1-2.637 2.677 2.652 2.652 0 0 1 2.636-2.678Z"/></svg>