<svg xmlns="http://www.w3.org/2000/svg" viewBox="0 0 64 64" class="ccsvg ccsvg--solid ccsvg--n64"><path class="ccsvg__primary" d="M32 33c1.8 0 3.3 1.5 3.3 3.3s-1.5 3.3-3.3 3.3-3.3-1.5-3.3-3.3S30.2 33 32 33zm31.3-9.4c-.4-2.1 0-3.7-.6-5.7-.6-3-2.3-5.6-4.7-7.4l.2-1.1c0-.2-.1-.3-.3-.4C55.3 7.5 52 6.9 49 6.5c-.8-.1-1.6-.2-2.4-.4l-1.1-.2c-.1-.3-.1-.5-.2-.8C45.1 3.1 38 .9 32 1c-6-.1-13.1 2.1-13.4 4.1-.1.3-.1.5-.2.8l-1.1.2c-.8.2-1.6.3-2.4.4C12 6.9 8.6 7.5 6 9c-.1.1-.2.3-.2.4l.2 1.1s.1 0 .1-.1C3.6 12.3 1.8 15 1.2 18c-.5 2-.2 3.6-.6 5.7-.5 3.4-.7 6.9-.6 10.4.2 7.5 3.1 15.7 6.2 15.3 2.3-.3 4.4-1.5 6.4-13.6l.1-1.3c0-.7.6-1.3 1.3-1.3.1 0 5.8-.6 7 3.1.7 2.4 1.3 4.7 1.8 7.2l2.2 9.2c1 3.6 2.6 10.2 7 10.3 4.4-.1 5.9-6.7 6.8-10.4l2.2-9.2c.4-2.4 1-4.8 1.8-7.2 1.2-3.8 6.9-3.1 7-3.1.7 0 1.3.6 1.3 1.3l.1 1.3c2.1 12.1 4.1 13.3 6.4 13.6 3.1.4 6.1-7.8 6.2-15.3.3-3.4.1-6.9-.5-10.4zm-47.3-1c0 .1-.1.2-.2.2H13c-.1 0-.2.1-.2.2v2.9c0 .1-.1.2-.2.2H9.3c-.1 0-.2-.1-.2-.2V23c0-.1-.1-.2-.2-.2H6.1c-.1 0-.1-.1-.1-.2v-3.3c0-.1.1-.2.2-.2H9c.1 0 .2-.1.2-.2V16c0-.1.1-.2.2-.2h3.3c.1 0 .2.1.2.2v3c0 .1.1.2.2.2H16c.1 0 .2.1.2.2l-.2 3.2zm16-2.4c1.4 0 2.6 1.2 2.6 2.6 0 1.4-1.2 2.6-2.6 2.6-1.4 0-2.6-1.2-2.6-2.6s1.2-2.6 2.6-2.6zm0 23.3c-4 0-7.2-3.2-7.2-7.2s3.2-7.2 7.2-7.2 7.2 3.2 7.2 7.2-3.2 7.2-7.2 7.2zm24-29.1c0 1.1-.9 2-2 2s-2-.9-2-2 .9-2 2-2 2 .8 2 2zM44.5 25c-1.5 0-2.6-1.2-2.6-2.6 0-1.5 1.2-2.6 2.6-2.6 1.5 0 2.6 1.2 2.6 2.6 0 1.4-1.2 2.6-2.6 2.6zm4.7 4.9c-1.5 0-2.6-1.2-2.6-2.6 0-1.5 1.2-2.6 2.6-2.6 1.5 0 2.6 1.2 2.6 2.6 0 1.4-1.2 2.6-2.6 2.6zm.8-9.7c-1.1 0-2-.9-2-2s.9-2 2-2 2 .9 2 2-.8 2-2 2zm4.2 4c-1.1 0-2-.9-2-2s.9-2 2-2 2 .9 2 2-.9 2-2 2zm3.9-4c-1.1 0-2-.9-2-2s.9-2 2-2 2 .9 2 2-.9 2-2 2z"/></svg>