<svg xmlns="http://www.w3.org/2000/svg" viewBox="0 0 64 64" class="ccsvg ccsvg--solid ccsvg--nes"><path class="ccsvg__primary" d="M39.9 32c-.4 0-.8.4-.8.8v6.4c0 .4.4.8.8.8h6.4c.4 0 .8-.4.8-.8v-6.4c0-.4-.4-.8-.8-.8h-6.4zm3.2 6.7c-1.5 0-2.7-1.2-2.7-2.7 0-1.5 1.2-2.7 2.7-2.7 1.5 0 2.7 1.2 2.7 2.7 0 1.5-1.2 2.7-2.7 2.7zm6.8-6.7c-.4 0-.8.4-.8.8v6.4c0 .4.4.8.8.8h6.4c.4 0 .8-.4.8-.8v-6.4c0-.4-.4-.8-.8-.8h-6.4zm3.2 6.7c-1.5 0-2.7-1.2-2.7-2.7 0-1.5 1.2-2.7 2.7-2.7s2.7 1.2 2.7 2.7c0 1.5-1.2 2.7-2.7 2.7zM18 35.6c0 .2-.2.4-.4.4h-3.2c-.2 0-.4.2-.4.4v3.2c0 .2-.2.4-.4.4h-3.2c-.2 0-.4-.2-.4-.4v-3.2c0-.2-.2-.4-.4-.4H6.4c-.3 0-.4-.2-.4-.4v-3.2c0-.2.1-.4.4-.4h3.2c.2 0 .4-.2.4-.4v-3.2c0-.2.2-.4.4-.4h3.2c.2 0 .4.2.4.4v3.2c0 .2.2.4.4.4h3.2c.2 0 .4.2.4.4v3.2zm19.1-9.4c0-.5-.4-.9-.9-.9H22.1c-.5 0-.9.4-.9.9v1.6c0 .5.4.9.9.9h14.2c.5 0 .9-.4.9-.9v-1.6zm0 4.3c0-.5-.4-.9-.9-.9H22.1c-.5 0-.9.4-.9.9V32c0 .5.4.9.9.9h14.2c.5 0 .9-.4.9-.9l-.1-1.5zM63.2 18H.8c-.4 0-.8.4-.8.8v26.4c0 .4.4.8.8.8h62.4c.4 0 .8-.4.8-.8V18.8c0-.4-.4-.8-.8-.8zm-27 23.7H22.1c-.5 0-.9.4-.9.9V44h-18c-.7 0-1.2-.5-1.2-1.2V23.2c0-.7.5-1.2 1.2-1.2h18v1.5c0 .5.4.9.9.9h14.2c.5 0 .9-.4.9-.9V22h23.7c.7 0 1.2.5 1.2 1.2v19.6c0 .7-.5 1.2-1.2 1.2H37.1v-1.3c0-.5-.4-1-.9-1zm0-7.8H22.1c-.5 0-.9.4-.9.9v5c0 .5.4.9.9.9h14.2c.5 0 .9-.4.9-.9v-5c-.1-.5-.5-.9-1-.9zm-8.6 4h-4c-.4 0-.7-.3-.7-.7 0-.4.3-.7.7-.7h4c.4 0 .7.3.7.7 0 .4-.3.7-.7.7zm7 0h-4c-.4 0-.7-.3-.7-.7 0-.4.3-.7.7-.7h4c.4 0 .7.3.7.7 0 .4-.3.7-.7.7z"/></svg>