<svg xmlns="http://www.w3.org/2000/svg" viewBox="0 0 64 64" class="ccsvg ccsvg--solid ccsvg--ps1"><path class="ccsvg__primary" d="M63.847 43.694h.002c-.04-.296-.112-.801-.11-.77L61.37 26.34a10.868 10.868 0 0 0-4.874-8.451s-.483-2.766-.77-3.655a1.883 1.883 0 0 0-.806-1.022 3.731 3.731 0 0 0-.29-.162c-.162-.083-.334-.143-.5-.215-.027-.155-.131-.697-.367-.852a7.655 7.655 0 0 0-3.518-.723 6.432 6.432 0 0 0-3.684.83 1.833 1.833 0 0 0-.334.834 3.032 3.032 0 0 0-.715.458 4.121 4.121 0 0 0-1.125 1.885l-.415 2.257a.674.674 0 0 1-.663.552H20.691a.674.674 0 0 1-.663-.552l-.415-2.257a4.121 4.121 0 0 0-1.125-1.885 3.035 3.035 0 0 0-.715-.458 1.832 1.832 0 0 0-.334-.833 6.432 6.432 0 0 0-3.684-.831 7.655 7.655 0 0 0-3.518.723c-.236.156-.34.697-.366.853-.167.072-.339.131-.5.214a3.708 3.708 0 0 0-.29.162 1.882 1.882 0 0 0-.806 1.023c-.288.888-.77 3.654-.77 3.654A10.868 10.868 0 0 0 2.63 26.34L.261 42.923c.002-.03-.07.475-.11.77l.002.001A16.762 16.762 0 0 0 0 45.621l.002.107c.001.064.003.125.006.184.376 5.813 8.154 9.215 12.303 4.521l.001.002c1.618-1.773 6.482-10.306 8.439-13.517a1.519 1.519 0 0 1 1.302-.728h19.895a1.519 1.519 0 0 1 1.301.728c1.957 3.21 6.821 11.744 8.44 13.517v-.002c4.149 4.694 11.928 1.292 12.303-4.521.003-.06.005-.12.006-.184 0-.036.003-.072.002-.107a16.762 16.762 0 0 0-.153-1.927ZM11.621 21.64a.513.513 0 0 1 .513-.514h2.962a.513.513 0 0 1 .513.514v2.104a.917.917 0 0 1-.333.707l-1.14.942a.817.817 0 0 1-1.041 0l-1.141-.942a.917.917 0 0 1-.333-.707Zm-1.002 7.094H8.515a.513.513 0 0 1-.513-.513v-2.962a.513.513 0 0 1 .513-.514h2.104a.917.917 0 0 1 .707.333l.943 1.141a.817.817 0 0 1 0 1.041l-.943 1.141a.917.917 0 0 1-.707.333Zm4.99 3.106a.513.513 0 0 1-.513.513h-2.962a.513.513 0 0 1-.513-.513v-2.104a.917.917 0 0 1 .333-.707l1.14-.943a.817.817 0 0 1 1.041 0l1.141.943a.917.917 0 0 1 .333.707Zm3.62-3.619a.513.513 0 0 1-.514.513h-2.104a.917.917 0 0 1-.707-.333l-.943-1.14a.817.817 0 0 1 0-1.042l.943-1.14a.917.917 0 0 1 .707-.334h2.104a.513.513 0 0 1 .513.514Zm10.395 3.226a.302.302 0 0 1-.302.303h-2.37a.302.302 0 0 1-.302-.303v-1.13a.302.302 0 0 1 .303-.302h2.37a.302.302 0 0 1 .302.302Zm8.047-.346-2.817.776a.227.227 0 0 1-.287-.22v-1.55a.227.227 0 0 1 .287-.22l2.817.776a.227.227 0 0 1 0 .438Zm7.1-2.048a2.377 2.377 0 1 1 2.335-2.376 2.362 2.362 0 0 1-2.335 2.376Zm5.839 5.346a2.377 2.377 0 1 1 2.336-2.377A2.36 2.36 0 0 1 50.61 34.4Zm0-10.692a2.377 2.377 0 1 1 2.336-2.376 2.36 2.36 0 0 1-2.336 2.376Zm5.867 5.346a2.377 2.377 0 1 1 2.336-2.376 2.36 2.36 0 0 1-2.336 2.376Z"/></svg>