<svg xmlns="http://www.w3.org/2000/svg" viewBox="0 0 64 64" class="ccsvg ccsvg--solid ccsvg--ps3"><path class="ccsvg__primary" d="m63.756 42.815-.092-.597c-.852-4.717-1.86-11.643-2.329-14.957l-.014-.008c.25-3.402-1.688-7.327-4.035-8.72h-.004l-.014-.01a1.853 1.853 0 0 1-.97-1.056c-.13-.452-.42-1.736-.759-2.806a2.392 2.392 0 0 0-1.095-1.344v-.326a.595.595 0 0 0-.392-.558 8.743 8.743 0 0 0-3.082-.475 13.003 13.003 0 0 0-3.415.503.585.585 0 0 0-.412.564v.228c-.927.449-.969 1.117-1.151 1.901-.347 1.491.041 2.594-2.049 2.62H20.02l.358.01h-.34c-2.09-.027-1.702-1.129-2.049-2.62-.181-.78-.223-1.445-1.134-1.894.004.001.005-.004.01-.001v-.244a.585.585 0 0 0-.414-.564 13 13 0 0 0-3.414-.503 8.74 8.74 0 0 0-3.082.475.595.595 0 0 0-.392.559v.319a2.399 2.399 0 0 0-1.121 1.36c-.339 1.07-.63 2.354-.76 2.806a1.853 1.853 0 0 1-.97 1.057c-2.348 1.393-4.288 5.323-4.033 8.727-.483 3.483-1.574 10.723-2.43 15.551H.243a16.14 16.14 0 0 0-.197 3.677 5.487 5.487 0 0 0 .463 1.855c1.124 2.604 5.04 4.052 7.88 3.477 2.026-.29 3.85-2.3 4.678-3.495 1.188-1.721 4.218-7.236 4.218-7.236a6.623 6.623 0 0 0 11.833-2.072h5.774a6.62 6.62 0 0 0 11.825 2.08c.035.065 3.033 5.52 4.214 7.23.828 1.196 2.652 3.204 4.678 3.495 2.843.574 6.754-.872 7.88-3.477a5.483 5.483 0 0 0 .463-1.854 16.14 16.14 0 0 0-.197-3.677ZM11.351 21.518a.173.173 0 0 1 .172-.173h2.637a.17.17 0 0 1 .168.173v2.194s-.056.05-.13.11l-1.222 1.022a.213.213 0 0 1-.267 0l-1.225-1.022c-.076-.06-.133-.11-.133-.11Zm-1.023 6.23-.108.13H8.037a.17.17 0 0 1-.172-.173v-2.649a.172.172 0 0 1 .172-.173h2.183l.108.134 1.016 1.23a.214.214 0 0 1 0 .271Zm4 3.15a.172.172 0 0 1-.168.172h-2.637a.175.175 0 0 1-.172-.173v-2.193s.057-.051.133-.114l1.225-1.018a.213.213 0 0 1 .268 0l1.22 1.018c.075.063.131.114.131.114Zm3.493-3.193a.173.173 0 0 1-.172.173h-2.184l-.113-.13-1.016-1.23a.225.225 0 0 1 0-.27l1.016-1.231c.06-.075.113-.134.113-.134h2.184a.175.175 0 0 1 .172.173Zm4.787 12.477a4.363 4.363 0 1 1 4.337-4.363 4.35 4.35 0 0 1-4.337 4.363Zm5.245-12.785a.13.13 0 0 1-.129.124h-2.791a.126.126 0 0 1-.121-.124v-1.808a.126.126 0 0 1 .12-.124h2.792a.13.13 0 0 1 .13.124Zm4.151 6.62a2.078 2.078 0 1 1 2.063-2.077 2.071 2.071 0 0 1-2.063 2.078Zm4.082-6.677v-1.858a.09.09 0 0 1 .118-.092l2.957.98c.063.028.063.064 0 .085l-2.957.983c-.063.018-.118-.018-.118-.098Zm5.028 12.842a4.363 4.363 0 1 1 4.337-4.363 4.348 4.348 0 0 1-4.337 4.363Zm4.749-11.637a2.19 2.19 0 1 1 2.172-2.194 2.193 2.193 0 0 1-2.172 2.194Zm4.915 4.709a2.19 2.19 0 1 1 2.171-2.194 2.186 2.186 0 0 1-2.171 2.194Zm0-9.658a2.188 2.188 0 1 1 2.171-2.186 2.182 2.182 0 0 1-2.171 2.186Zm4.718 4.949a2.19 2.19 0 1 1 2.173-2.194 2.188 2.188 0 0 1-2.173 2.194Z"/></svg>