<svg xmlns="http://www.w3.org/2000/svg" viewBox="0 0 64 64" class="ccsvg ccsvg--solid ccsvg--ps4"><path class="ccsvg__primary" d="M40.8 25.7c.6 0 1.2-.5 1.2-1.2v-10c0-.3-.2-.5-.5-.5h-19c-.3 0-.5.2-.5.5v10c0 .6.5 1.2 1.2 1.2h17.6zm21.3 2.7s-.4-1.8-1.4-5.5-1.7-5-2.1-5.5-1.6-2.6-1.6-2.6c-.3-.5-.4-1-1.2-1.2 0-.1.1-.5-.1-.6-1.3-.7-2.8-1.1-4.2-1.1-1.2 0-2.3.2-3.4.6-.4.1-.2.7-.2 1-.7-.1-1.1.6-1.7.6h-2.6c-.3 0-.5.2-.5.5v9.9c0 1.2-1 2.1-2.1 2.1H23.3c-1.2 0-2.1-1-2.1-2.1v-9.9c0-.3-.2-.5-.5-.5h-2.6c-.6 0-1-.7-1.7-.6 0-.3.1-.9-.2-1-1.1-.4-2.3-.6-3.4-.6-1.5 0-2.9.4-4.2 1.1-.2.1-.1.5-.1.6-.9.2-1 .7-1.2 1.2 0 0-1.2 2.1-1.6 2.6s-1 1.7-2.1 5.5-1.4 5.5-1.4 5.5c-1.2 4-5 20.9 1.8 23.2 2.9 1 6 .6 8.2-3.1 1.7-3.1 3-6.4 4.1-9.8.1-.3.3-.5.5-.6.2-.2.6-.4.9-.2 2.5 1.9 5.9 1.9 8.4-.1.2-.2.5-.3.8-.3h10.4c.3 0 .6.1.8.3 2.4 2 5.9 2 8.3.1.2-.1.4-.1.6 0 .4.2.6.5.8.8 1.1 3.4 2.4 6.7 4.1 9.8 2.2 3.7 5.4 4.1 8.2 3.1 6.7-2.3 2.9-19.2 2-23.2zM10 19.7c0-.5.8-.9 1.9-.9s1.9.4 1.9.9v2c0 .1 0 .1-.1.2l-.1.1-1.5 1.6c-.1.1-.3.1-.4 0L10.2 22l-.1-.1c0-.1-.1-.1-.1-.2v-2zM9.5 26c-.1 0-.1.1-.2.1h-2c-.5 0-.9-.8-.9-1.9s.4-1.9.9-1.9h2c.1 0 .1 0 .2.1h.1l1.6 1.5c.1.1.1.3 0 .4L9.5 26zm4.3 2.7c0 .5-.8.9-1.9.9s-1.9-.4-1.9-.9v-2c0-.1 0-.1.1-.2l.1-.1 1.5-1.6c.1-.1.3-.1.4 0l1.5 1.6.1.1s.1.1.1.2v2zm2.6-2.6h-2c-.1 0-.1 0-.2-.1h-.1l-1.6-1.5c-.1-.1-.1-.3 0-.4l1.6-1.5h.1c.1 0 .1-.1.2-.1h2c.5 0 .9.8.9 1.9s-.4 1.7-.9 1.7zm1.3-9c0-.6.4-1.1 1-1.2.6 0 1.1.4 1.2 1v1.5c0 .6-.4 1.1-1 1.2s-1.1-.4-1.2-1v-1.5zm7.9 16.5c-.3 2.2-2.4 3.6-4.5 3.3-2.2-.3-3.6-2.4-3.3-4.5.3-1.7 1.6-3 3.3-3.3 2.2-.3 4.2 1.1 4.5 3.3v1.2zm6.4.4c-1 0-1.7-.8-1.7-1.7 0-1 .8-1.7 1.7-1.7 1 0 1.7.8 1.7 1.7 0 .9-.7 1.7-1.7 1.7zm12.1-16.9c0-.6.4-1.1 1-1.1s1.1.4 1.1 1v1.5c0 .6-.4 1.1-1 1.2-.6 0-1.1-.4-1.2-1v-.1l.1-1.5zm2.2 16.5c-.3 2.2-2.4 3.6-4.5 3.3-2.2-.3-3.6-2.4-3.3-4.5.3-1.7 1.6-3 3.3-3.3 2.2-.3 4.2 1.1 4.5 3.3v1.2zm3.3-8.9c-.2.8-.8 1.4-1.6 1.6-1.2.3-2.4-.4-2.7-1.6-.3-1.2.4-2.4 1.6-2.7 1.2-.3 2.4.4 2.7 1.6.1.4.1.8 0 1.1zm.3-5.8c.3-1.2 1.5-1.9 2.7-1.6s1.9 1.5 1.6 2.7c-.2.8-.8 1.4-1.6 1.6-1.2.3-2.4-.4-2.7-1.5-.1-.4-.1-.9 0-1.2zm4.4 10.6c-.2.8-.8 1.4-1.6 1.6-1.2.3-2.4-.4-2.7-1.6-.3-1.2.4-2.4 1.6-2.7 1.2-.3 2.4.4 2.7 1.6.1.4.1.7 0 1.1zm4.8-4.8c-.2.8-.8 1.4-1.6 1.6-1.2.3-2.4-.4-2.7-1.6s.4-2.4 1.6-2.7c1.2-.3 2.4.4 2.7 1.6.1.4.1.8 0 1.1z"/></svg>