<svg xmlns="http://www.w3.org/2000/svg" viewBox="0 0 64 64" class="ccsvg ccsvg--solid ccsvg--ps5"><path class="ccsvg__primary" d="m20.2 18.5.3 1.5c.1.3.1.7.2 1 .1.7.3 1.3.4 1.8.6 2.3 3.3 2.3 3.4 2.3h14.9c.1 0 2.8 0 3.4-2.3.1-.5.3-1.1.4-1.8.1-.3.1-.7.2-1l.3-1.5.7-3.3c.3-1.1.2-2.2-.5-3.1-.1-.2-.3-.3-.5-.4-2.2-.6-7.1-.5-11.5-.5s-9.3-.1-11.5.5c-.2.1-.4.2-.5.4-.6.9-.8 2.1-.5 3.1l.8 3.3zM64 41c0-2.8-.2-5.7-.7-8.5-1-6.4-3-12.6-5.9-18.3l-.1-.1c-.2-.3-.7-.3-1.1-.4l-.1-1c-.9-1.1-3.6-1.8-4.7-1.9-1.1-.2-2.3-.1-3.3.1-.3.1-.3.2-.3.2l-.1 1c-.8 0-1.6.6-1.7 1.4l-1.1 5.1-.3 1.5c-.1.3-.1.7-.2 1-.1.7-.3 1.3-.4 1.8-.6 1.9-2.4 3.1-4.4 3H24.7c-2 .1-3.8-1.2-4.4-3-.1-.5-.3-1.1-.4-1.8-.1-.3-.1-.7-.2-1l-.3-1.5-1.1-5.1c-.2-.8-.9-1.4-1.7-1.4l-.1-1s0-.2-.3-.2c-1.1-.3-2.2-.3-3.3-.1-1 .1-3.8.8-4.7 1.9l-.1 1c-.3.1-.8.1-1.1.4l-.1.1C3.7 20 1.7 26.2.7 32.6.2 35.4 0 38.2 0 41c0 0 0 6.7 1.7 9.3 1.3 1.8 2.4 2.2 2.9 2.3l4 .6c.4 0 .5-.2.8-.6 1.2-2.3 2.2-4.6 3.1-7 1.5-4 1.9-6.2 5-7.2.5-.1 1-.2 1.4-.3.7 0 1.8.3 2.5.3 2.4 0 3.4-.1 7.7 0h6c4.2 0 5.2.1 7.7 0 .7 0 1.8-.3 2.5-.3.5.1 1 .2 1.4.3 3.1 1.1 3.5 3.3 5 7.2.9 2.4 1.9 4.7 3.1 7 .2.4.4.6.8.6l4-.6c.5-.1 1.7-.5 2.9-2.3C64 47.8 64 41 64 41zM11.1 17.8c.3 0 .6-.1.9-.1.3 0 .6 0 .9.1.4.1.8.4.8.9 0 0 0 .8-.1 1.4v.3c0 .3-.1.5-.3.7l-1 1c-.2.1-.4.1-.6 0l-1-1c-.2-.2-.3-.4-.3-.7v-.3c0-.5-.1-.9-.1-1.4.1-.5.4-.8.8-.9zm-1.7 6.8h-.3c-.6.1-1.4.1-1.4.1-.4 0-.8-.3-.9-.8 0-.3-.1-.6-.1-.9 0-.3 0-.6.1-.9.1-.4.4-.8.9-.8 0 0 .8 0 1.4.1h.2c.3 0 .5.1.7.3l1 1c.1.2.1.4 0 .6l-1 1c-.1.2-.3.3-.6.3zm3.6 3.5c-.3 0-.6.1-.9.1-.3 0-.6 0-.9-.1-.4-.1-.8-.4-.8-.9 0 0 0-.8.1-1.4v-.2c0-.3.1-.5.3-.7l1-1c.2-.1.4-.1.6 0l1 1c.2.2.3.4.3.7v.3c.1.6.1 1.4.1 1.4 0 .4-.3.7-.8.8zm4.2-4.2c-.1.4-.4.8-.9.8 0 0-.8 0-1.4-.1h-.2c-.3 0-.5-.1-.7-.3l-1-1c-.1-.2-.1-.4 0-.6l1-1c.2-.2.4-.3.7-.3h.2c.5 0 .9-.1 1.4-.1.4 0 .8.3.9.8 0 .3.1.6.1.9 0 .3 0 .6-.1.9zm.1-6.5c-.4.1-.8-.2-.9-.6l-.3-1.4c-.1-.4.2-.8.6-.9s.8.2.9.6l.3 1.4c0 .4-.2.8-.6.9zm8.1 15.1c-.4 2-2.4 3.3-4.4 2.9S17.7 33 18.1 31c.3-1.5 1.4-2.6 2.9-2.9 2-.4 4 .9 4.4 2.9.1.5.1 1 0 1.5zm7.9 3.1h-2.5c-.2 0-.4-.2-.4-.4s.2-.4.4-.4h2.5c.2 0 .4.2.4.4s-.2.4-.4.4zm13-20.5c.1-.4.4-.7.8-.6.4.1.7.4.6.8l-.3 1.4c-.1.4-.4.7-.8.6-.4-.1-.7-.4-.6-.8l.3-1.4zm-.4 17.4c-.4 2-2.4 3.3-4.4 2.9-2-.4-3.3-2.4-2.9-4.4.3-1.5 1.4-2.6 2.9-2.9 2-.4 4 .9 4.4 2.9.1.5.1 1 0 1.5zm3.4-9c-.3 1.1-1.4 1.8-2.5 1.5s-1.8-1.4-1.5-2.5c.2-.7.8-1.3 1.5-1.5 1.1-.3 2.2.4 2.5 1.5.1.3.1.6 0 1zm4.7 4.7c-.3 1.1-1.4 1.8-2.5 1.5-1.1-.3-1.8-1.4-1.5-2.5.2-.7.8-1.3 1.5-1.5 1.1-.3 2.2.4 2.5 1.5.1.3.1.6 0 1zm0-9.4c-.3 1.1-1.4 1.8-2.5 1.5s-1.8-1.4-1.5-2.5c.2-.7.8-1.3 1.5-1.5 1.1-.3 2.2.4 2.5 1.5.1.2.1.6 0 1zm4.6 4.7c-.3 1.1-1.4 1.8-2.5 1.5s-1.8-1.4-1.5-2.5c.2-.7.8-1.3 1.5-1.5 1.1-.3 2.2.4 2.5 1.5.1.3.1.6 0 1z"/></svg>