<svg xmlns="http://www.w3.org/2000/svg" viewBox="0 0 64 64" class="ccsvg ccsvg--solid ccsvg--sega-saturn"><path class="ccsvg__primary" d="M63.9 36.5c-.4-2.7-1.2-8.4-7-15.4S42 12 42 12l-.5.1c-.5-.9-1.2-1.7-2-2.5h-.2c-4.9-.2-9.8-.2-14.7 0-.8.7-1.4 1.6-2 2.5l-.5-.1S13 14 7.2 21.1.6 33.8.2 36.5c-.2 3.3-.1 6.6.3 9.9.2 1.7.6 3.2 3.6 4.8s6.1 2.9 6.1 2.9c.8.5 1.9.4 2.7-.1 1.1-1 8.1-7.4 8.1-7.4 7.3.5 14.5.5 21.8 0h.2s7 6.4 8.1 7.4c.8.6 1.8.6 2.7.1 0 0 3.2-1.3 6.1-2.9s3.4-3 3.6-4.8c.5-3.2.6-6.5.4-9.9zm-42.3-.7c-3.6 4.6-9.6 6-13.3 3s-3.8-9.1-.2-13.7 9.6-6 13.3-3 3.8 9.1.2 13.7zm11.8-1.9h-3c-.6 0-1-.5-1-1 0-.6.5-1 1-1h3c.6 0 1 .5 1 1s-.4 1-1 1zm14.3-9.7c1.3 0 2.4 1.1 2.4 2.4s-1 2.4-2.4 2.4c-1.3 0-2.4-1.1-2.4-2.4 0-1.4 1.1-2.4 2.4-2.4zm-7.5 5.6c0-1.3 1.1-2.4 2.4-2.4s2.4 1.1 2.4 2.4c0 1.3-1.1 2.4-2.4 2.4-1.4.1-2.4-1-2.4-2.4zm3.9 11c-1.8 0-3.2-1.4-3.2-3.2 0-1.8 1.4-3.2 3.2-3.2 1.8 0 3.2 1.4 3.2 3.2 0 1.8-1.4 3.2-3.2 3.2zm6.2-3.7c-1.8 0-3.2-1.4-3.2-3.2 0-1.8 1.4-3.2 3.2-3.2 1.8 0 3.2 1.4 3.2 3.2.1 1.7-1.4 3.2-3.2 3.2zm3.1-9.5c-1.3 0-2.4-1.1-2.4-2.4s1.1-2.4 2.4-2.4c1.3 0 2.4 1.1 2.4 2.4 0 1.3-1.1 2.4-2.4 2.4zm4 7.5c-1.8 0-3.2-1.4-3.2-3.2 0-1.8 1.4-3.2 3.2-3.2 1.8 0 3.2 1.4 3.2 3.2 0 1.8-1.4 3.2-3.2 3.2zm-39.2-6.4c-.1 0-.3 0-.4.1-.5-.9-1.2-1.7-2.2-2.1.2-1-.4-1.9-1.3-2.1-1-.2-1.9.4-2.1 1.3-.1.3-.1.5 0 .8-1 .4-1.8 1.2-2.2 2.2-1-.2-1.9.4-2.1 1.4-.2 1 .4 1.9 1.4 2.1.2.1.5.1.7 0 .4 1 1.2 1.8 2.2 2.2-.2 1 .4 1.9 1.4 2.1 1 .2 1.9-.4 2.1-1.4.1-.2.1-.5 0-.7 1.1-.5 1.9-1.3 2.3-2.4 1 .2 1.9-.5 2-1.5.2-1-.5-1.9-1.5-2h-.3z"/></svg>