<svg xmlns="http://www.w3.org/2000/svg" viewBox="0 0 64 64" class="ccsvg ccsvg--solid ccsvg--snes"><path class="ccsvg__primary" d="M19 30.55a.233.233 0 0 1 .232.235v3.562h-.011a.232.232 0 0 1-.233.235h-3.072a.236.236 0 0 0-.232.238v3.074a.235.235 0 0 1-.233.23H11.89a.23.23 0 0 1-.233-.23v-3.082a.238.238 0 0 0-.236-.238H8.352a.232.232 0 0 1-.233-.235v-3.554a.235.235 0 0 1 .233-.235h3.072a.233.233 0 0 0 .236-.23v-3.074a.23.23 0 0 1 .233-.23h3.568a.235.235 0 0 1 .23.23v3.074a.231.231 0 0 0 .233.23Zm45 1.883a13.503 13.503 0 0 1-19.948 11.863c-.428-.234-1.428-.742-1.826-.972a5.867 5.867 0 0 0-2.89-.594H24.688a5.88 5.88 0 0 0-2.975.645c-.498.295-1.314.707-2.053 1.063q-.416.215-.85.4l-.227.104h-.006A13.495 13.495 0 0 1 6.875 20.68c-.017.01-.03.014-.047.024a.998.998 0 0 1 .505-1.257 13.295 13.295 0 0 1 5.16-1.348c1.91-.072 7.646 0 7.646 0a.527.527 0 0 1 .56.519v.315h22.602v-.315a.527.527 0 0 1 .56-.52s5.736-.07 7.647 0a13.295 13.295 0 0 1 5.16 1.35.998.998 0 0 1 .504 1.256l-.038-.019A13.481 13.481 0 0 1 64 32.433Zm-42.648.133a7.682 7.682 0 1 0-7.68 7.68 7.677 7.677 0 0 0 7.68-7.68Zm6.671.367a.956.956 0 0 0-1.343-.156l-2.664 2.176a.953.953 0 1 0 1.18 1.496l2.671-2.176a.952.952 0 0 0 .156-1.34Zm7.11 0a.947.947 0 0 0-1.336-.156l-2.672 2.176a.954.954 0 0 0 1.184 1.496l2.668-2.176a.952.952 0 0 0 .156-1.34Zm27.664-.531a12.313 12.313 0 1 0-12.313 12.312 12.312 12.312 0 0 0 12.313-12.312Zm-10.204-2.716-6.9 5.42a3.386 3.386 0 0 1-4.192-5.32l6.901-5.412a3.383 3.383 0 1 1 4.19 5.312Zm-6.338 2.78a2.623 2.623 0 1 0-2.624 2.623 2.622 2.622 0 0 0 2.624-2.624Zm6.814-5.351a2.623 2.623 0 1 0-2.624 2.623 2.622 2.622 0 0 0 2.624-2.623Zm6.398 7.904-6.9 5.412a3.385 3.385 0 1 1-4.191-5.316l6.9-5.412a3.385 3.385 0 0 1 4.191 5.316Zm-6.32 2.745a2.623 2.623 0 1 0-2.624 2.623 2.627 2.627 0 0 0 2.624-2.623Zm6.814-5.355a2.623 2.623 0 1 0-2.624 2.628 2.622 2.622 0 0 0 2.624-2.628Z"/></svg>