<svg xmlns="http://www.w3.org/2000/svg" viewBox="0 0 64 64" class="ccsvg ccsvg--solid ccsvg--stadia"><path class="ccsvg__primary" d="M63.908 43.845c-1.74-12.538-2.984-23.318-8.552-29.066a2.965 2.965 0 0 0-1.729-2.245 15.603 15.603 0 0 0-3.595-1.27s-4.229-1.013-4.518.562a23.7 23.7 0 0 0-.56-.007H19.05c-.186 0-.373.003-.56.007-.289-1.575-4.518-.561-4.518-.561a15.603 15.603 0 0 0-3.595 1.269 2.965 2.965 0 0 0-1.729 2.245C3.072 20.547 1.845 31.275.097 43.845c-1.001 8.478 6.023 10.27 9.81 8.621a7.244 7.244 0 0 0 3.326-3.819c.601-1.566 2.394-6.816 2.917-7.602 1.457-2.185 2.42-1.944 4.955-2.155H42.9c2.536.211 3.498-.03 4.955 2.155.524.786 2.316 6.036 2.918 7.602a6.41 6.41 0 0 0 6.662 4.351c1.914-.19 7.337-1.387 6.474-9.153Zm-48.48-19.718a.291.291 0 0 0-.291.291v1.602a1.672 1.672 0 0 1-3.344 0v-1.602a.291.291 0 0 0-.292-.291H9.9a1.672 1.672 0 0 1 0-3.344h1.602a.291.291 0 0 0 .292-.292V18.89a1.672 1.672 0 0 1 3.343 0v1.601a.291.291 0 0 0 .292.292h1.602a1.672 1.672 0 0 1 0 3.344Zm6.177 11.161a3.626 3.626 0 1 1 3.626-3.626 3.626 3.626 0 0 1-3.626 3.626Zm3.518-16.463h-1.49a.967.967 0 1 1 0-1.934h1.49a.967.967 0 1 1 0 1.934Zm2.074 4.993a1.242 1.242 0 1 1 1.241-1.242 1.242 1.242 0 0 1-1.241 1.242Zm4.805 9.916a2.135 2.135 0 1 1 2.135-2.135 2.135 2.135 0 0 1-2.135 2.135Zm4.78-9.916a1.242 1.242 0 1 1 1.242-1.242 1.242 1.242 0 0 1-1.242 1.242Zm1.112-5.97a.967.967 0 0 1 .967-.967h1.49a.967.967 0 0 1 0 1.934h-1.49a.967.967 0 0 1-.967-.967Zm4.378 17.44a3.626 3.626 0 1 1 3.625-3.626 3.626 3.626 0 0 1-3.625 3.626Zm3.924-10.819a2.014 2.014 0 1 1 2.014-2.014 2.014 2.014 0 0 1-2.014 2.014Zm4.411 4.35a2.014 2.014 0 1 1 2.015-2.015 2.014 2.014 0 0 1-2.015 2.015Zm0-8.661a2.014 2.014 0 1 1 2.015-2.015 2.014 2.014 0 0 1-2.015 2.015Zm4.29 4.311a2.014 2.014 0 1 1 2.015-2.014 2.014 2.014 0 0 1-2.014 2.014Z"/></svg>