<svg xmlns="http://www.w3.org/2000/svg" viewBox="0 0 64 64" class="ccsvg ccsvg--solid ccsvg--switch-pro"><path class="ccsvg__primary" d="M62.067 31.732c-.878-5.15-2.594-14.178-3.85-15.804a4.964 4.964 0 0 0-1.108-.968c-.56-1.915-2.993-3.758-5.27-4.494-2.08-.673-7.642-1.288-9.293.047q-.415-.018-.818-.019S34.432 10.38 32 10.38s-9.728.115-9.728.115q-.403 0-.818.019c-1.65-1.335-7.214-.72-9.293-.047-2.277.736-4.71 2.579-5.27 4.494a4.964 4.964 0 0 0-1.108.968C4.527 17.554 2.81 26.58 1.933 31.732.973 37.365-.635 47.077.264 49.203c.748 2.71 3.047 5.075 5.516 5.075a5.287 5.287 0 0 0 4.458-2.402c2.174-3.548 4.254-8.072 4.808-9.143a3.221 3.221 0 0 1 3.147-1.62L32 41.053l13.807.06a3.221 3.221 0 0 1 3.147 1.62c.554 1.07 2.634 5.595 4.808 9.143a5.287 5.287 0 0 0 4.458 2.402c2.469 0 4.768-2.364 5.516-5.075.9-2.126-.709-11.838-1.67-17.47ZM24.03 16.706a1.418 1.418 0 1 1-1.428 1.417 1.423 1.423 0 0 1 1.427-1.417Zm-9.752 9.992a3.713 3.713 0 1 1 3.74-3.714 3.726 3.726 0 0 1-3.74 3.714Zm12.696 6.216a.406.406 0 0 1-.406.403h-2.49a.407.407 0 0 0-.406.403v2.47a.404.404 0 0 1-.405.403h-2.382a.404.404 0 0 1-.405-.403v-2.47a.407.407 0 0 0-.406-.403h-2.487a.405.405 0 0 1-.406-.403V30.55a.405.405 0 0 1 .406-.403h2.487a.407.407 0 0 0 .406-.403v-2.47a.406.406 0 0 1 .405-.403h2.381a.406.406 0 0 1 .406.403v2.47a.407.407 0 0 0 .406.403h2.49a.406.406 0 0 1 .406.403Zm1.746-9.195a.424.424 0 0 1-.425.423h-1.714a.424.424 0 0 1-.425-.423v-1.701a.424.424 0 0 1 .425-.422h1.714a.424.424 0 0 1 .425.422Zm11.161-7.013a1.418 1.418 0 1 1-1.428 1.417 1.423 1.423 0 0 1 1.428-1.417Zm-4.808 6.163a1.428 1.428 0 1 1 1.428 1.417 1.423 1.423 0 0 1-1.428-1.417Zm5.313 12.566a3.713 3.713 0 1 1 3.74-3.713 3.726 3.726 0 0 1-3.74 3.713Zm3.526-10.097a2.353 2.353 0 1 1 2.37-2.354 2.362 2.362 0 0 1-2.37 2.354Zm5.032 4.32a2.353 2.353 0 1 1 2.37-2.353 2.362 2.362 0 0 1-2.37 2.354Zm0-8.641a2.353 2.353 0 1 1 2.37-2.353 2.362 2.362 0 0 1-2.37 2.353Zm5.031 4.32a2.353 2.353 0 1 1 2.37-2.353 2.362 2.362 0 0 1-2.37 2.354Z"/></svg>