<svg xmlns="http://www.w3.org/2000/svg" viewBox="0 0 64 64" class="ccsvg ccsvg--solid ccsvg--virtual-boy"><path class="ccsvg__primary" d="M60.352 29.983a8.76 8.76 0 0 1 .083-6.403c.696-1.653 1.438-2.395 2.384-4.176l-.002-.002C67.585 10.326 56.949.973 48.572 6.84l-.006-.005-6.338 4.275H21.772l-6.338-4.275-.006.005C7.045.971-3.584 10.333 1.183 19.402l-.002.002c.946 1.782 1.687 2.522 2.384 4.176a8.758 8.758 0 0 1 .083 6.403c-.521 1.778-1.457 5.067-1.781 6.825a47.728 47.728 0 0 0-.52 12.713c.55 5.007 1.346 6.585 1.346 6.585l.005-.006a4.412 4.412 0 0 0 4.008 2.888 5.22 5.22 0 0 0 5.012-4.824c.275-2.64.673-5.674.734-7.89.054-1.971.545-12.481.652-14.763a3.17 3.17 0 0 1 .989-2.169c.947-1.225 4.874-1.04 5.761-1.115a.23.23 0 0 1 .236.217l.61 10.891a.798.798 0 0 0 .8.75h21a.798.798 0 0 0 .8-.75l.61-10.891a.23.23 0 0 1 .236-.217c.89.072 4.813-.108 5.761 1.115a3.17 3.17 0 0 1 .989 2.169c.107 2.282.598 12.792.652 14.764.061 2.215.459 5.249.734 7.889a5.22 5.22 0 0 0 5.012 4.824 4.412 4.412 0 0 0 4.008-2.888l.005.005s.795-1.577 1.346-6.584a47.728 47.728 0 0 0-.52-12.713c-.324-1.758-1.26-5.047-1.78-6.825ZM14.44 16.617a.236.236 0 0 1-.236.234h-3.129v3.103a.236.236 0 0 1-.236.235H8.375a.236.236 0 0 1-.237-.235v-3.103H5.01a.236.236 0 0 1-.237-.234v-2.444a.236.236 0 0 1 .237-.234h3.128v-3.103a.236.236 0 0 1 .237-.235h2.464a.236.236 0 0 1 .236.235v3.103h3.129a.236.236 0 0 1 .236.234Zm3.985 4.58a2.033 2.033 0 1 1 2.05-2.032 2.041 2.041 0 0 1-2.05 2.033Zm5.231 2.337a2.033 2.033 0 1 1 2.05-2.033 2.041 2.041 0 0 1-2.05 2.033Zm12.472-9.353-2.03 1.422a.363.363 0 0 1-.252.103h-2.284a.363.363 0 0 1-.253-.103l-2.03-1.422a.358.358 0 0 1 .253-.614h6.343a.358.358 0 0 1 .253.614Zm4.262 9.353a2.033 2.033 0 1 1 2.05-2.033 2.041 2.041 0 0 1-2.05 2.033Zm5.231-2.336a2.033 2.033 0 1 1 2.05-2.033 2.041 2.041 0 0 1-2.05 2.033Zm13.606-4.581a.236.236 0 0 1-.237.234h-3.128v3.103a.236.236 0 0 1-.237.235h-2.464a.236.236 0 0 1-.236-.235v-3.103h-3.129a.236.236 0 0 1-.236-.234v-2.444a.236.236 0 0 1 .236-.234h3.129v-3.103a.236.236 0 0 1 .236-.235h2.464a.236.236 0 0 1 .237.235v3.103h3.128a.236.236 0 0 1 .237.234Z"/></svg>