<svg xmlns="http://www.w3.org/2000/svg" viewBox="0 0 64 64" class="ccsvg ccsvg--solid ccsvg--wii-u-pro"><path class="ccsvg__primary" d="M63.35 37.9c-.763-6.286-1.961-13.411-4.576-19.367a29.03 29.03 0 0 0-3.305-5.244 9.91 9.91 0 0 0-3.7-2.673l-.353-1.108c-.277-1.056-3.136-1.058-3.602-.113a6.47 6.47 0 0 0-.19 1.152c-3.198.978-5.533 2.997-10.857 3.454-2.801.24-3.871.3-4.247.293h-1.04c-.376.007-1.446-.053-4.247-.293-5.324-.457-7.659-2.476-10.858-3.454a6.704 6.704 0 0 0-.189-1.152c-.465-.945-3.326-.943-3.602.113l-.354 1.108a9.907 9.907 0 0 0-3.7 2.673 29.03 29.03 0 0 0-3.304 5.244C2.61 24.489 1.413 31.615.65 37.9a105.263 105.263 0 0 0-.643 12.737 4.69 4.69 0 0 0 7.868 3.4c9.582-8.842 10.857-11.57 24.243-11.282 13.208-.295 14.629 2.646 24.007 11.281a4.69 4.69 0 0 0 7.868-3.399A105.249 105.249 0 0 0 63.35 37.9ZM8.979 23.495a3.949 3.949 0 1 1 3.948 3.974 3.961 3.961 0 0 1-3.948-3.974Zm15.685 11.378a.565.565 0 0 1-.563.566h-2.376a.257.257 0 0 0-.256.258v2.391a.565.565 0 0 1-.563.567h-1.973a.565.565 0 0 1-.563-.567v-2.39a.257.257 0 0 0-.257-.259h-2.376a.565.565 0 0 1-.563-.566v-1.985a.565.565 0 0 1 .563-.567h2.376a.257.257 0 0 0 .257-.258v-2.391a.565.565 0 0 1 .563-.567h1.973a.565.565 0 0 1 .563.567v2.391a.257.257 0 0 0 .256.258H24.1a.565.565 0 0 1 .563.567Zm1.937-7.21a1.399 1.399 0 1 1 1.39-1.398 1.394 1.394 0 0 1-1.39 1.399Zm5.274 7.685a1.399 1.399 0 1 1 1.39-1.399 1.394 1.394 0 0 1-1.39 1.399Zm0-7.684a1.399 1.399 0 1 1 1.39-1.399 1.394 1.394 0 0 1-1.39 1.399Zm3.883-1.399a1.39 1.39 0 1 1 1.39 1.399 1.394 1.394 0 0 1-1.39-1.399Zm3.689 9.696a2.012 2.012 0 1 1 1.999-2.012 2.006 2.006 0 0 1-2 2.012Zm4.454 4.107a2.012 2.012 0 1 1 2-2.012 2.006 2.006 0 0 1-2 2.012Zm0-8.214a2.012 2.012 0 1 1 2-2.012 2.006 2.006 0 0 1-2 2.012Zm4.455 4.107a2.012 2.012 0 1 1 2-2.012 2.006 2.006 0 0 1-2 2.012Zm2.466-8.492a3.974 3.974 0 1 1 3.949-3.974 3.961 3.961 0 0 1-3.95 3.974Z"/></svg>