<svg xmlns="http://www.w3.org/2000/svg" viewBox="0 0 64 64" class="ccsvg ccsvg--solid ccsvg--wii"><path class="ccsvg__primary" d="M37.376 0H26.63A2.605 2.605 0 0 0 24 2.562v58.876A2.606 2.606 0 0 0 26.63 64h10.746A2.602 2.602 0 0 0 40 61.438V2.562A2.601 2.601 0 0 0 37.376 0Zm-6.669 8.902V6.94a.326.326 0 0 1 .33-.32h1.929a.326.326 0 0 1 .329.32v1.963a.326.326 0 0 0 .329.32h2.017a.326.326 0 0 1 .33.32v1.88a.326.326 0 0 1-.33.32h-2.017a.326.326 0 0 0-.33.32v1.963a.325.325 0 0 1-.328.32h-1.93a.325.325 0 0 1-.329-.32v-1.963a.326.326 0 0 0-.329-.32h-2.015a.325.325 0 0 1-.33-.32v-1.88a.325.325 0 0 1 .33-.32h2.015a.326.326 0 0 0 .33-.32Zm-2.85-7.172a1.276 1.276 0 0 1 1.294 1.26 1.294 1.294 0 0 1-2.588 0 1.276 1.276 0 0 1 1.294-1.26Zm-.373 30.25a1.26 1.26 0 1 1 1.294-1.26 1.276 1.276 0 0 1-1.294 1.26Zm4.517 22.606a1.708 1.708 0 1 1 1.753-1.71 1.732 1.732 0 0 1-1.753 1.71Zm0-5.703a1.708 1.708 0 1 1 1.753-1.703 1.728 1.728 0 0 1-1.753 1.703ZM30.707 30.72a1.294 1.294 0 1 1 1.294 1.26 1.278 1.278 0 0 1-1.294-1.26Zm1.294-8.219a2.499 2.499 0 1 1 2.565-2.498 2.533 2.533 0 0 1-2.565 2.498Zm4.517 9.479a1.26 1.26 0 1 1 1.292-1.26 1.276 1.276 0 0 1-1.292 1.26Z"/></svg>