<svg xmlns="http://www.w3.org/2000/svg" viewBox="0 0 64 64" class="ccsvg ccsvg--solid ccsvg--xbox-360"><path class="ccsvg__primary" d="M63 32.4c-.9-5.4-3.3-14-5.9-18.5-2.2-4-8.3-4.2-12.6-3.8-.4.1-2.1 1.2-3.1 1.6-1.8.7-3.8 1.1-5.8 1.1h-7.2c-2 0-3.9-.4-5.8-1.1-1.1-.4-2.7-1.6-3.1-1.6-4.3-.4-10.4-.2-12.6 3.8-2.5 4.4-5 13-5.9 18.5C.4 38-.8 47.6.8 50.7c.8 2.3 3.2 3.7 5.6 3.2 1.9-.5 3.7-1.3 5.3-2.5 2.4-1.9 5.4-5.3 7.8-6.3 2.4-1 4.9-1.6 7.4-2h10.2c2.6.3 5.1 1 7.4 2 1.8 1 3.4 2.3 4.8 3.7 1.9 2.1 5.7 4.7 8.2 5.1 2.4.5 4.8-.8 5.6-3.2 1.7-3.1.5-12.7-.1-18.3zM24.6 20.1h.9c.7 0 1.3.6 1.3 1.3 0 .7-.6 1.3-1.3 1.3h-.9c-.7 0-1.3-.6-1.3-1.3-.1-.7.5-1.3 1.3-1.3zm-11.5 5.4c-2.5 0-4.5-1.9-4.5-4.4s1.9-4.5 4.4-4.5 4.5 1.9 4.5 4.4v.1c0 2.4-2 4.4-4.4 4.4zm9 13.1c-3.3 0-6-2.6-6-5.8s2.6-6 5.8-6c3.3 0 6 2.6 6 5.8v.1c.1 3.2-2.5 5.8-5.8 5.9zM32 24.9c-1.9 0-3.5-1.5-3.5-3.4S30 18 31.9 18s3.5 1.5 3.5 3.4v.1c0 1.8-1.5 3.4-3.4 3.4zm6.5-4.7h.9c.7 0 1.3.6 1.3 1.4 0 .7-.6 1.3-1.3 1.3h-.9c-.7 0-1.3-.6-1.3-1.4 0-.7.5-1.3 1.3-1.3zm2.6 16.9c-2.5 0-4.5-1.9-4.5-4.4s1.9-4.5 4.4-4.5c2.5 0 4.5 1.9 4.5 4.4v.1c0 2.4-1.9 4.4-4.4 4.4zm4.8-13.7c-1.3 0-2.3-1-2.4-2.3s1-2.3 2.3-2.4 2.3 1 2.4 2.3c0 1.4-1 2.4-2.3 2.4zm5 5.1c-1.3 0-2.3-1-2.4-2.3 0-1.3 1-2.3 2.3-2.4 1.3 0 2.3 1 2.4 2.3 0 1.3-1 2.4-2.3 2.4zm.1-10.2c-1.3 0-2.3-1-2.4-2.3s1-2.3 2.3-2.4c1.3 0 2.3 1 2.4 2.3 0 1.4-1.1 2.4-2.3 2.4zm5 5.1c-1.3 0-2.3-1-2.4-2.3s1-2.3 2.3-2.4c1.3 0 2.3 1 2.4 2.3 0 1.3-1 2.4-2.3 2.4zm-28.9 8c0-.2-.2-.3-.4-.3l-1.6-.2c-.7 0-1.3-.6-1.3-1.3l-.1-1.6c0-.2-.1-.3-.3-.4-.8-.2-1.6-.2-2.4 0-.2 0-.3.2-.3.4l-.2 1.6c0 .7-.6 1.3-1.3 1.3l-1.6.2c-.2 0-.3.2-.4.3-.2.8-.2 1.6 0 2.4 0 .2.2.3.4.3l1.6.2c.7 0 1.3.6 1.3 1.3l.2 1.6c0 .2.2.3.3.4.8.2 1.6.2 2.4 0 .2 0 .3-.2.3-.4l.2-1.6c0-.7.6-1.3 1.3-1.3l1.6-.2c.2 0 .3-.2.4-.3.1-.7.1-1.6-.1-2.4z"/></svg>