<svg xmlns="http://www.w3.org/2000/svg" viewBox="0 0 64 64" class="ccsvg ccsvg--solid ccsvg--xbox-series-x"><path class="ccsvg__primary" d="M63.8 42.2c-.3-2.9-1-5.2-1-5.2s-4.7-16.9-7.9-21.5c-.1-.2-.3-.4-.5-.6-.2-.5-.4-.9-.7-1.3-.5-.6-1.2-1.8-3.4-2.7-.9-.4-2.5-.9-3.4-1-.7-.1-2.6-.2-3.3-.1-.3.1-.7.4-.7.4-.2.2-.6.7-1.4.8 0 0-7.3-.1-9.7-.1-2.4 0-9.6.1-9.6.1-.8 0-1.1-.6-1.4-.8 0 0-.3-.4-.7-.4-.7-.1-2.6 0-3.3.1-.9.1-2.4.6-3.4 1-2.2 1-2.9 2.1-3.4 2.7-.3.4-.5.8-.7 1.3-.2.2-.3.4-.5.6C5.9 20.1 1.2 37 1.2 37s-.7 2.3-1 5.2c-.8 5.8.9 8.4 1.5 9.1s2.9 3.3 4.9 2.8c2-.5 5.5-5.1 5.5-5.1 1-1.2 2-2.6 3-3.8 1.5-2 3-2.9 4.2-3.4.3-.1.6-.2 1-.3.5-.1 1-.1 1.5-.1h20.7c.5 0 1 0 1.5.1.3 0 .7.1 1 .3 1.2.5 2.7 1.4 4.2 3.4.9 1.2 2 2.5 3 3.8 0 0 3.5 4.6 5.5 5.1s4.3-2.2 4.9-2.8 2-3.3 1.2-9.1zM48.4 15.5c1.2 0 2.2 1 2.2 2.2 0 1.2-1 2.2-2.2 2.2s-2.2-1-2.2-2.2c0-1.2 1-2.2 2.2-2.2zm-32.8 10c-2 0-3.6-1.6-3.6-3.6s1.6-3.6 3.6-3.6 3.6 1.6 3.6 3.6-1.6 3.6-3.6 3.6zm7.9 11.6c-2.7 0-4.8-2.2-4.8-4.8s2.2-4.8 4.8-4.8c2.7 0 4.8 2.2 4.8 4.8s-2.1 4.8-4.8 4.8zm3.9-13.9c-.8 0-1.4-.6-1.4-1.4s.6-1.4 1.4-1.4c.8 0 1.4.6 1.4 1.4 0 .8-.7 1.4-1.4 1.4zm5.3 3.4h-1.4c-.6 0-1.1-.5-1.1-1.1 0-.6.5-1.1 1.1-1.1h1.4c.6 0 1.1.5 1.1 1.1 0 .6-.5 1.1-1.1 1.1zm-.7-8.7c-1.3 0-2.4-1.1-2.4-2.4S30.7 13 32 13c1.3 0 2.4 1.1 2.4 2.4s-1.1 2.5-2.4 2.5zm3.3 3.9c0-.8.6-1.4 1.4-1.4s1.4.6 1.4 1.4c0 .8-.6 1.4-1.4 1.4-.8 0-1.4-.6-1.4-1.4zm5.1 13.3c-2 0-3.6-1.6-3.6-3.6s1.6-3.6 3.6-3.6 3.6 1.6 3.6 3.6-1.6 3.6-3.6 3.6zm3.7-10.9c-1.2 0-2.2-1-2.2-2.2 0-1.2 1-2.2 2.2-2.2 1.2 0 2.2 1 2.2 2.2 0 1.2-1 2.2-2.2 2.2zm4.3 4.3c-1.2 0-2.2-1-2.2-2.2 0-1.2 1-2.2 2.2-2.2 1.2 0 2.2 1 2.2 2.2 0 1.2-1 2.2-2.2 2.2zm4.3-4.3c-1.2 0-2.2-1-2.2-2.2 0-1.2 1-2.2 2.2-2.2 1.2 0 2.2 1 2.2 2.2 0 1.2-1 2.2-2.2 2.2zm-27.6 6.1v-1.9c0-.1-.1-.2-.1-.2-.7-.3-1.5-.3-2.2-.2-.3 0-.5.1-.8.2-.1 0-.1.1-.1.2v1.9c0 .2-.2.3-.3.3h-1.9c-.1 0-.2.1-.2.1-.1.3-.2.5-.2.8-.1.7 0 1.5.2 2.2 0 .1.1.1.2.1h1.9c.2 0 .3.2.3.3V36c0 .1.1.2.1.2.7.2 1.4.3 2.2.2.3 0 .5-.1.8-.2.1 0 .1-.1.1-.2v-1.9c0-.2.2-.3.3-.3h1.9c.1 0 .2-.1.2-.1.1-.3.2-.5.2-.8.1-.7 0-1.5-.2-2.2 0-.1-.1-.1-.2-.1h-1.9c-.1.1-.3-.1-.3-.3z"/></svg>