<svg xmlns="http://www.w3.org/2000/svg" viewBox="0 0 64 64" class="ccsvg ccsvg--solid ccsvg--xbox-one"><path class="ccsvg__primary" d="M63.5 39.608c-.07-.357-.148-.706-.234-1.055l.036-.012s-.477-2.723-1.387-5.97c-1.375-4.904-3.485-11.252-4.41-13.234-1.54-3.296-2.106-4.224-3.129-4.635l-.007-.002c-.002-.008-.512-1.647-.974-2.11-.46-.463-3.232-1.838-5.002-2.336-1.24-.348-4.23-1.062-5.539-.444-1.308.617-1 .849-2.154.927-.463.032-2.148.024-4.002.006l.007.002h-9.407v-.002c-1.854.018-3.54.026-4.002-.006-1.154-.078-.846-.31-2.154-.927-1.309-.618-4.3.096-5.54.444-1.769.498-4.54 1.873-5.001 2.336-.463.465-.975 2.112-.975 2.112-1.027.411-1.592 1.339-3.129 4.635-.928 1.982-3.037 8.33-4.412 13.234A68.14 68.14 0 0 0 .7 38.54l.031.012c-.082.349-.16.698-.23 1.055-1.2 6.226-.367 11.7 3.828 13.916.525.279 1.03.616 1.654.816.73.231 1.141-.004 1.5-.31 3.655-3.11 5.81-6.603 7.637-8.925a14.46 14.46 0 0 1 2.647-2.549c.681-.372 1.353-.702 1.755-.768.254-.043.553-.083.885-.11H43.51v-.008c.367.031.695.07.968.118.407.066 1.079.396 1.758.768 1.168.87 2.086 1.835 2.645 2.55 1.828 2.32 3.98 5.814 7.636 8.924.36.306.77.541 1.5.31.626-.2 1.133-.537 1.657-.816 4.195-2.215 5.023-7.69 3.828-13.916zm-48.09-14.42c-1.981 0-3.585-1.613-3.585-3.599s1.604-3.597 3.584-3.597c1.979 0 3.584 1.611 3.584 3.597s-1.605 3.598-3.584 3.598zm12.372 8.472h-2.478a.403.403 0 0 0-.403.403v2.478c0 .23-.632.416-1.413.416-.78 0-1.413-.186-1.413-.416v-2.478a.403.403 0 0 0-.403-.403h-2.477c-.23 0-.416-.632-.416-1.413 0-.78.186-1.413.416-1.413h2.477c.223 0 .403-.18.403-.402v-2.478c0-.23.633-.416 1.413-.416s1.413.186 1.413.416v2.478c0 .222.18.402.403.402h2.478c.23 0 .416.633.416 1.413s-.187 1.413-.416 1.413zm-.473-10.486c-.83 0-1.502-.675-1.502-1.508 0-.832.672-1.506 1.502-1.506.828 0 1.5.674 1.5 1.506 0 .833-.672 1.508-1.5 1.508zM32 17.692a2.535 2.535 0 0 1-2.531-2.541c0-1.404 1.133-2.541 2.531-2.541s2.531 1.137 2.531 2.54A2.536 2.536 0 0 1 32 17.693zm19.071-.236c0 1.237-1 2.241-2.227 2.241a2.238 2.238 0 0 1-2.234-2.24c0-1.238 1-2.24 2.234-2.24a2.235 2.235 0 0 1 2.227 2.24zm-15.876 4.21c0-.832.672-1.506 1.498-1.506.828 0 1.5.674 1.5 1.506 0 .833-.672 1.508-1.5 1.508a1.503 1.503 0 0 1-1.498-1.508zm5.376 13.485a3.592 3.592 0 0 1-3.586-3.596c0-1.988 1.606-3.6 3.586-3.6a3.592 3.592 0 0 1 3.582 3.6 3.591 3.591 0 0 1-3.582 3.596zM44.38 24.1c-1.23 0-2.23-1.002-2.23-2.24s1-2.24 2.23-2.24 2.23 1.004 2.23 2.24-1 2.24-2.23 2.24zm4.464 4.327a2.238 2.238 0 0 1-2.234-2.24c0-1.238 1-2.24 2.234-2.24a2.235 2.235 0 0 1 2.227 2.239c0 1.237-1 2.241-2.227 2.241zm4.383-4.327c-1.234 0-2.23-1.002-2.23-2.24s.996-2.24 2.23-2.24 2.235 1.004 2.235 2.24-1 2.24-2.235 2.24z"/></svg>