<svg xmlns="http://www.w3.org/2000/svg" viewBox="0 0 64 64" class="ccsvg ccsvg--solid ccsvg--xbox-controller-s"><path class="ccsvg__primary" d="M27.4 34.3c0 .3-.2.5-.5.5l-2.8-.1c-.1 0-.4.2-.4.4l.1 2.8c0 .3-.2.5-.5.5h-1.9c-.3 0-.5-.2-.5-.5l.1-2.8c0-.1-.2-.4-.4-.4l-2.6.1c-.3 0-.5-.2-.5-.5v-1.9c0-.3.2-.5.5-.5l2.8.1c.1 0 .4-.2.4-.4l-.2-2.8c0-.3.2-.5.5-.5h1.9c.3 0 .5.2.5.5l-.1 2.8c0 .1.2.4.4.4l2.8-.1c.3 0 .5.2.5.5l-.1 1.9zm35-3.2c-1-5.1-4.5-13.7-5.6-16.4-.2-.5-.5-.9-1-1.1-.3-.1-.7-.6-.7-.8-.2-.4-1.8-1.3-3.8-2.2-2.7-1.3-8-2.6-8-2.6s-.7 0-1.7.3-6.5 1.6-9.2 1.6h-.7c-2.7 0-8.3-1.3-9.2-1.6S20.7 8 20.7 8s-5.3 1.3-8 2.6c-2 .9-3.6 1.9-3.8 2.2-.1.2-.5.6-.7.8-.5.2-.8.6-1 1.1C6.1 17.4 2.6 26 1.6 31.1.1 38.6-.7 43 .8 49.8c1.1 5 3.3 6.1 5 6.2.6 0 4.6-.2 7.6-4.5 3-4.4 3.2-7.1 3.2-7.1S20 42 32 42s15.5 2.4 15.5 2.4.1 2.8 3.2 7.1c3 4.4 7 4.5 7.6 4.5 1.7-.1 3.9-1.2 5-6.2 1.4-6.8.6-11.2-.9-18.7zm-55-.1c-.8 0-1.4-.7-1.4-1.5s.6-1.4 1.4-1.4 1.4.6 1.4 1.4c0 .8-.6 1.5-1.4 1.5zm42.8-15.3c1.2 0 2.2 1 2.2 2.2 0 1.2-1 2.2-2.2 2.2s-2.2-1-2.2-2.2c0-1.2.9-2.2 2.2-2.2zM11 35.1c-.9 0-1.7-.8-1.7-1.7s.8-1.7 1.7-1.7c.9 0 1.7.8 1.7 1.7s-.8 1.7-1.7 1.7zm2.8-8.2c-2.3 0-4.1-1.8-4.1-4.1s1.8-4.1 4-4.2 4.1 1.8 4.2 4v.1c0 2.3-1.8 4.2-4.1 4.2zm8.7 12c-3.1 0-5.6-2.5-5.6-5.6s2.5-5.6 5.6-5.6 5.6 2.5 5.6 5.6-2.6 5.6-5.6 5.6zM32 27.6c-3.1 0-5.6-2.5-5.6-5.6 0-3.1 2.5-5.6 5.6-5.6 3.1 0 5.6 2.5 5.6 5.6 0 3.1-2.5 5.6-5.6 5.6zm8.7 9.9c-2.3 0-4.1-1.8-4.1-4.1s1.8-4.1 4-4.2 4.1 1.8 4.2 4v.1c0 2.4-1.8 4.2-4.1 4.2zM45.3 25c-1.2 0-2.2-1-2.2-2.2 0-1.2 1-2.2 2.2-2.2 1.2 0 2.2 1 2.2 2.2 0 1.2-1 2.2-2.2 2.2zm2.7 2.6c0-1.2 1-2.2 2.2-2.2 1.2 0 2.2 1 2.2 2.2 0 1.2-1 2.2-2.2 2.2-1.3 0-2.2-1-2.2-2.2zm2.8 10c-1 0-1.8-.8-1.8-1.8s.8-1.8 1.8-1.8 1.8.8 1.8 1.8-.8 1.8-1.8 1.8zm2-14.8c0-1.2 1-2.2 2.2-2.2 1.2 0 2.2 1 2.2 2.2 0 1.2-1 2.2-2.2 2.2-1.2 0-2.2-1-2.2-2.2zm2.9 10.7c-1 0-1.8-.8-1.8-1.8s.8-1.8 1.8-1.8 1.8.8 1.8 1.8-.8 1.8-1.8 1.8z"/></svg>