<svg id="Layer_1" data-name="Layer 1" xmlns="http://www.w3.org/2000/svg" viewBox="0 0 64 64"><path d="M32.13617,58.00851c-.40738,0-.81995-.0109-1.22626-.03231l.05744-1.0879a22.291,22.291,0,0,0,2.35951-.00113l.05851,1.08776C32.97161,57.99721,32.55133,58.00851,32.13617,58.00851Zm-3.68823-.29588a22.81192,22.81192,0,0,1-2.41962-.52872l.2903-1.05a21.7306,21.7306,0,0,0,2.30365.50346Zm7.39927-.00365-.17553-1.07514a21.74911,21.74911,0,0,0,2.30319-.50578l.29122,1.04973A22.842,22.842,0,0,1,35.84721,57.709ZM23.67985,56.39455a22.85158,22.85158,0,0,1-2.2486-1.04016l.51051-.96237a21.74718,21.74718,0,0,0,2.14089.99043ZM40.613,56.3863l-.40372-1.01183a21.71567,21.71567,0,0,0,2.13949-.99216l.51144.96184A22.81146,22.81146,0,0,1,40.613,56.3863ZM19.30911,54.07673a23.07861,23.07861,0,0,1-1.97161-1.49887l.70505-.83045a21.96845,21.96845,0,0,0,1.87813,1.42786Zm25.67121-.0115-.6125-.90093a21.96183,21.96183,0,0,0,1.87633-1.42919l.70585.82978A23.0827,23.0827,0,0,1,44.98032,54.06523ZM15.53883,50.87586a23.06682,23.06682,0,0,1-1.60525-1.88537l.86622-.6605A22.01413,22.01413,0,0,0,16.329,50.126Zm33.20838-.01449-.791-.74907a22.022,22.022,0,0,0,1.52793-1.79761l.86675.65971A23.07489,23.07489,0,0,1,48.74721,50.86137ZM12.54082,46.94342a22.89875,22.89875,0,0,1-1.16336-2.18551l.9879-.45891a21.83434,21.83434,0,0,0,1.10791,2.08119Zm39.2016-.018-.933-.56237a21.79228,21.79228,0,0,0,1.10638-2.08338l.98857.45785A22.89528,22.89528,0,0,1,51.74242,46.9254ZM10.45791,42.45805a22.79914,22.79914,0,0,1-.66356-2.38637l1.06383-.23418A21.73517,21.73517,0,0,0,11.49,42.10938Zm43.36377-.02195-1.03245-.3476a21.72549,21.72549,0,0,0,.62965-2.27341l1.0641.23311A22.794,22.794,0,0,1,53.82168,42.4361ZM9.39422,37.62786a23.243,23.243,0,0,1-.13471-2.47181l1.08936-.0012a22.14961,22.14961,0,0,0,.12832,2.35546Zm45.48663-.02407-1.08324-.11622a22.1425,22.1425,0,0,0,.12579-2.35566V35.085h1.08937v.04694A23.27019,23.27019,0,0,1,54.88085,37.60379ZM10.47234,32.7992,9.3891,32.68391a22.90694,22.90694,0,0,1,.39508-2.44475l1.06436.23192A21.83025,21.83025,0,0,0,10.47234,32.7992Zm43.32021-.06842a21.82632,21.82632,0,0,0-.38337-2.32686l1.06356-.23524a22.94083,22.94083,0,0,1,.40279,2.44335ZM11.47566,28.19707l-1.03284-.34641a22.80881,22.80881,0,0,1,.915-2.30259l.989.45692A21.71223,21.71223,0,0,0,11.47566,28.19707ZM52.775,28.13285a21.72534,21.72534,0,0,0-.87779-2.18883l.9875-.46a22.83049,22.83049,0,0,1,.92194,2.29907ZM13.451,23.92048l-.93351-.56144a23.01109,23.01109,0,0,1,1.38929-2.05053l.86756.65891A21.913,21.913,0,0,0,13.451,23.92048ZM50.7871,23.864a21.90986,21.90986,0,0,0-1.32872-1.94841l.86569-.66143a23.03718,23.03718,0,0,1,1.395,2.04561ZM16.30033,20.16822,15.50871,19.42a23.07177,23.07177,0,0,1,1.79541-1.70552l.70665.82912A22,22,0,0,0,16.30033,20.16822Zm31.62706-.04694a22.012,22.012,0,0,0-1.71529-1.61975l.70426-.83112a23.11064,23.11064,0,0,1,1.8004,1.7002Zm-28.042-3.00878-.6133-.90027A22.97585,22.97585,0,0,1,21.39069,14.931l.5125.96131A21.87741,21.87741,0,0,0,19.88544,17.1125Zm24.44714-.03684A21.83993,21.83993,0,0,0,42.31037,15.861l.50931-.9629a22.938,22.938,0,0,1,2.12354,1.2754Zm-20.291-2.17785L23.6367,13.8865a22.76183,22.76183,0,0,1,2.34628-.794l.29229,1.04947A21.65939,21.65939,0,0,0,24.04162,14.89781Zm16.12686-.02494a21.71748,21.71748,0,0,0-2.23683-.74913l.28909-1.05027a22.80756,22.80756,0,0,1,2.34934.78677ZM28.578,13.63378l-.17653-1.075a23.02767,23.02767,0,0,1,2.46137-.26855l.05971,1.08776A21.93739,21.93739,0,0,0,28.578,13.63378Zm7.0494-.011a21.96875,21.96875,0,0,0-2.34534-.24854l.05638-1.0879a23.0675,23.0675,0,0,1,2.4621.2609Z"/><path d="M59.58862,0H4.41138A4.41136,4.41136,0,0,0,0,4.41132v55.1773A4.41138,4.41138,0,0,0,4.41138,64H59.58862A4.41138,4.41138,0,0,0,64,59.58862V4.41132A4.41136,4.41136,0,0,0,59.58862,0ZM32,59.50635A24.51392,24.51392,0,0,1,11.30817,21.853l-5.25391-5.254A8.034,8.034,0,0,1,17.41608,5.23718l6.58441,6.58441A24.513,24.513,0,1,1,32,59.50635ZM17.566,10.89362A5.85532,5.85532,0,1,1,11.71064,5.0383,5.85533,5.85533,0,0,1,17.566,10.89362ZM32.13617,18.7915A16.34043,16.34043,0,1,0,48.47662,35.1319,16.34042,16.34042,0,0,0,32.13617,18.7915Zm0,29.54889A13.2085,13.2085,0,1,1,45.34467,35.1319,13.20848,13.20848,0,0,1,32.13617,48.34039ZM27.50333,40.651,24.9222,36.1803a2.36911,2.36911,0,0,1,0-2.36911l2.58113-4.47065A2.36912,2.36912,0,0,1,29.555,28.156H34.7173A2.36912,2.36912,0,0,1,36.769,29.34054l2.58113,4.47065a2.36911,2.36911,0,0,1,0,2.36911L36.769,40.651A2.36912,2.36912,0,0,1,34.7173,41.8355H29.555A2.36912,2.36912,0,0,1,27.50333,40.651Z"/></svg>