<svg id="Layer_1" data-name="Layer 1" xmlns="http://www.w3.org/2000/svg" viewBox="0 0 64 64"><path d="M47.21216,14.6297c-.00031-.41077-.02289-.81555-.06189-1.21564A13.565,13.565,0,0,0,46.324,9.82965c.00543-.0014.01251.0033.01763.00086a1.20017,1.20017,0,0,0,.3379-1.44123A14.83671,14.83671,0,0,0,33.33484,0h-3.342c-.48371,0-1.13471.39264-1.13471.87634H25.84467a7.67762,7.67762,0,0,0-7.64136,7.67975v4.70575h-.83173a.58417.58417,0,0,0-.58417.58417v7.57678a.58423.58423,0,0,0,.58423.58423h.83167v16.4909h-.83173a.58418.58418,0,0,0-.58417.58423v7.57679a.58426.58426,0,0,0,.58423.58422h.83167v8.09559a7.2861,7.2861,0,0,0,2.58191,5.55249c1.90136,1.50158,3.22143,2.01977,3.22143,1.65185l-.00006-.98529c0-.69458.48493-1.13855,1.60932-1.51331.12829-.04278.19506-.20239.22876-.38421v3.69256A.64714.64714,0,0,0,26.49182,64h6.84351A13.82229,13.82229,0,0,0,47.21259,50.23688V14.63849Zm-10.691-5.04987A2.43329,2.43329,0,1,1,34.07013,12.015,2.44262,2.44262,0,0,1,36.52118,9.57983Zm2.45312,11.834a2.45216,2.45216,0,1,1-2.45312-2.43329A2.43931,2.43931,0,0,1,38.9743,21.41382ZM27.84454,7.70355V6.40582h.9812V5.43451h1.30439v.97131h.98126V7.70355h-.98126v.97333H28.82574V7.70355Zm3.76654,6.61768a2.43129,2.43129,0,1,1-2.43927,2.43127A2.44692,2.44692,0,0,1,31.61108,14.32123Zm.64069,34.42547a2.52416,2.52416,0,1,1,2.54816-2.52783A2.54514,2.54514,0,0,1,32.25177,48.7467ZM36.52325,39.281a5.06407,5.06407,0,1,1,5.109-5.06189A5.09042,5.09042,0,0,1,36.52325,39.281Zm4.9021-20.09723a2.43136,2.43136,0,1,1,2.4513-2.43128A2.43375,2.43375,0,0,1,41.42535,19.18378Z"/></svg>