<svg id="Layer_1" data-name="Layer 1" xmlns="http://www.w3.org/2000/svg" viewBox="0 0 64 64"><path d="M63.254,19H.746A.75706.75706,0,0,0,0,19.76763V44.23237A.75706.75706,0,0,0,.746,45H63.254A.75706.75706,0,0,0,64,44.23237V19.76763A.75706.75706,0,0,0,63.254,19Zm-.33169,21.67573a.42853.42853,0,0,1-.42228.43451H29.53731a.42852.42852,0,0,0-.42228.4345v1.924a.42853.42853,0,0,1-.42228.43451H5.13109a.42853.42853,0,0,1-.42228-.43451V20.52826a.42853.42853,0,0,1,.42228-.43451H28.69275a.42853.42853,0,0,1,.42228.43451v5.74852a.42853.42853,0,0,0,.42228.43451H62.5a.42852.42852,0,0,1,.42228.4345Z"/><rect x="40.25699" y="28.28084" width="9.6829" height="1.77428"/><path d="M20.41926,23.64042H13.40458A4.65163,4.65163,0,0,0,8.82073,28.357v7.21778a4.65163,4.65163,0,0,0,4.58385,4.71657h7.01468a4.65163,4.65163,0,0,0,4.58385-4.71657V28.357A4.65163,4.65163,0,0,0,20.41926,23.64042Zm-8.14983,8.87139H10.67772a.54615.54615,0,0,1,0-1.09186h1.59171a.54615.54615,0,0,1,0,1.09186Zm5.17306,5.86877a.53079.53079,0,1,1-1.06114,0v-1.6378a.53079.53079,0,1,1,1.06114,0Zm0-11.1916a.53079.53079,0,1,1-1.06114,0v-1.6378a.53079.53079,0,1,1,1.06114,0Zm5.70362,5.32283H21.5544a.54615.54615,0,0,1,0-1.09186h1.59171a.54615.54615,0,0,1,0,1.09186Z"/><rect x="51.00104" y="28.28084" width="9.6829" height="1.77428"/><path d="M8.29016,35.57477V28.357A5.32715,5.32715,0,0,1,9.6229,24.81772L7.2835,22.4106a.148.148,0,0,0-.25345.108V41.41314a.148.148,0,0,0,.25345.108L9.6229,39.114A5.32718,5.32718,0,0,1,8.29016,35.57477Z"/><path d="M26.09334,21.7979H7.79681a.15335.15335,0,0,0-.105.26079L10.00031,24.434a5.01317,5.01317,0,0,1,3.40427-1.33952h7.01468a5.01608,5.01608,0,0,1,3.43967,1.37132l2.33939-2.40712A.15336.15336,0,0,0,26.09334,21.7979Z"/><path d="M26.54033,22.47884l-2.30848,2.37532A5.32705,5.32705,0,0,1,25.53368,28.357v7.21778a5.32705,5.32705,0,0,1-1.30183,3.50283l2.30848,2.37532a.148.148,0,0,0,.25345-.108v-18.758A.148.148,0,0,0,26.54033,22.47884Z"/><path d="M26.19832,41.87307,23.85893,39.466a5.01608,5.01608,0,0,1-3.43967,1.37132H13.40458a5.01317,5.01317,0,0,1-3.40427-1.33952L7.69184,41.87307a.15335.15335,0,0,0,.105.26079H26.09334A.15336.15336,0,0,0,26.19832,41.87307Z"/><path d="M40.257,30.601v9.96326h9.68286V30.601Zm4.84143,8.01105a3.02939,3.02939,0,1,1,3.02936-3.02942A3.02942,3.02942,0,0,1,45.09845,38.61206Z"/><path d="M51.001,30.601v9.96326H60.684V30.601Zm4.84143,8.01105a3.02939,3.02939,0,1,1,3.02942-3.02942A3.02937,3.02937,0,0,1,55.84247,38.61206Z"/></svg>