<svg id="Layer_1" data-name="Layer 1" xmlns="http://www.w3.org/2000/svg" viewBox="0 0 64 64"><circle cx="32" cy="36.27301" r="3.26422"/><path d="M63.3197,23.65082c-.37408-2.06458-.04931-3.72064-.559-5.69989a12.1042,12.1042,0,0,0-4.69653-7.37726l.02142.01337.15619-1.12415a.53833.53833,0,0,0-.26123-.42767c-2.55389-1.49549-5.93451-2.0921-8.87415-2.54828-.793-.12305-1.60546-.249-2.439-.3999l-1.08887-.20166c-.06964-.264-.13074-.54413-.20752-.82117C45.10132,3.10846,37.98254.92627,32,.9931,26.01746.92627,18.89868,3.10846,18.629,5.06421c-.07495.27057-.13495.54407-.20252.80267l-1.07684.19947c-.8335.15087-1.646.27685-2.439.3999C11.971,6.92242,8.59039,7.519,6.0365,9.01453a.53831.53831,0,0,0-.26123.42767l.15619,1.12408c.03155-.02307.06848-.03973.10028-.06256a12.09334,12.09334,0,0,0-4.79242,7.44721c-.50971,1.97925-.18494,3.63531-.559,5.69989A53.52172,53.52172,0,0,0,.02148,34.07556C.20874,41.57538,3.16681,49.79309,6.2666,49.346c2.31079-.33331,4.35083-1.52081,6.43262-13.6247l.14569-1.34369A1.30161,1.30161,0,0,1,14.146,33.07556c.1145,0,5.7976-.64593,7.005,3.14575a60.391,60.391,0,0,1,1.79035,7.16651l2.2265,9.22418c.88006,3.68854,2.39673,10.31372,6.81109,10.39471l.00037.00165a.037.037,0,0,1,.01367,0l.00037-.00165h.0133l.00037.00165a.037.037,0,0,1,.01367,0l.00037-.00165c4.41436-.081,5.931-6.70617,6.81109-10.39471l2.2265-9.22418A60.391,60.391,0,0,1,42.849,36.22131c1.2074-3.79168,6.8905-3.14575,7.005-3.14575a1.30161,1.30161,0,0,1,1.30109,1.30206l.14569,1.34369C53.38257,47.8252,55.42261,49.0127,57.7334,49.346c3.09979.44708,6.05786-7.77063,6.24512-15.27045A53.517,53.517,0,0,0,63.3197,23.65082ZM16.03534,22.611a.1609.1609,0,0,1-.15619.16394H12.98981a.161.161,0,0,0-.164.15625V25.8244a.16551.16551,0,0,1-.15619.1601H9.32733a.15748.15748,0,0,1-.15619-.1601V22.93115a.16351.16351,0,0,0-.15619-.164H6.12561a.15668.15668,0,0,1-.15619-.15619V19.27643a.16086.16086,0,0,1,.15619-.16394H9.015a.15668.15668,0,0,0,.15619-.15619V16.06885a.16285.16285,0,0,1,.164-.16h3.33448a.16544.16544,0,0,1,.164.16V18.9563a.16094.16094,0,0,0,.15619.16394h2.89325a.15923.15923,0,0,1,.15619.15619ZM32,20.24487a2.572,2.572,0,1,1-2.572,2.572A2.572,2.572,0,0,1,32,20.24487Zm0,23.23664A7.20856,7.20856,0,1,1,39.20856,36.273,7.20861,7.20861,0,0,1,32,43.48151ZM55.98566,14.35669a2.00461,2.00461,0,1,1-2.00458-2.00464A2.0046,2.0046,0,0,1,55.98566,14.35669ZM44.48047,24.98352a2.62931,2.62931,0,1,1,2.62927-2.62933A2.6293,2.6293,0,0,1,44.48047,24.98352Zm4.68561,4.87286a2.62927,2.62927,0,1,1,2.62927-2.62927A2.6293,2.6293,0,0,1,49.16608,29.85638Zm.87909-9.61389a2.00461,2.00461,0,1,1,2.00463-2.00464A2.0046,2.0046,0,0,1,50.04517,20.24249Zm4.18579,3.928a2.00464,2.00464,0,1,1,2.00464-2.00464A2.0046,2.0046,0,0,1,54.231,24.17047Zm3.84051-3.928a2.00461,2.00461,0,1,1,2.00464-2.00464A2.00461,2.00461,0,0,1,58.07147,20.24249Z"/></svg>