<svg id="Layer_1" data-name="Layer 1" xmlns="http://www.w3.org/2000/svg" viewBox="0 0 64 64"><path d="M63.75633,42.81473l-.0926-.597c-.85164-4.71681-1.85979-11.64288-2.32865-14.95654l-.01416-.00769c.25057-3.40279-1.6879-7.32772-4.03456-8.71994l-.00409-.00024-.01422-.00946a1.85329,1.85329,0,0,1-.96982-1.0568c-.12995-.45158-.42032-1.73588-.75916-2.80593A2.39235,2.39235,0,0,0,54.44351,13.317v-.32559a.59512.59512,0,0,0-.39176-.55883,8.74275,8.74275,0,0,0-3.08214-.475,13.00263,13.00263,0,0,0-3.41414.5037.5852.5852,0,0,0-.41269.56414v.22713c-.92691.44926-.96878,1.1179-1.15105,1.90167-.34678,1.49117.04144,2.59338-2.04878,2.62006H20.01963l.35813.0097h-.33982c-2.09022-.02667-1.702-1.12889-2.04877-2.62006-.18123-.7793-.223-1.44508-1.13451-1.89422.00421.00165.005-.00323.00952-.001v-.24325a.58507.58507,0,0,0-.41269-.56408,13.00046,13.00046,0,0,0-3.41414-.50366,8.73994,8.73994,0,0,0-3.08214.475.59506.59506,0,0,0-.39176.55883v.31937a2.39866,2.39866,0,0,0-1.12169,1.35992c-.33877,1.07011-.62914,2.35441-.7591,2.806a1.85325,1.85325,0,0,1-.96982,1.0568c-2.34842,1.39326-4.28836,5.323-4.03431,8.72763C2.19612,30.74365,1.10532,37.984.24806,42.81216l-.00439.00049a16.1392,16.1392,0,0,0-.19631,3.6768,5.48659,5.48659,0,0,0,.46312,1.8543c1.124,2.60443,5.04014,4.052,7.88,3.47731,2.02558-.291,3.84966-2.29959,4.67787-3.49471C14.256,46.60482,17.28555,41.09,17.28555,41.09a6.62312,6.62312,0,0,0,11.83332-2.07173H34.893A6.6208,6.6208,0,0,0,46.71769,41.098c.03558.06477,3.03336,5.5192,4.214,7.23048.82821,1.19506,2.65229,3.20373,4.67787,3.49471,2.84353.57378,6.75436-.87221,7.87989-3.4775a5.48263,5.48263,0,0,0,.46318-1.85412A16.1398,16.1398,0,0,0,63.75633,42.81473ZM11.35134,21.5183a.17258.17258,0,0,1,.17189-.17293h2.637a.16934.16934,0,0,1,.168.17293v2.19338s-.05665.05109-.13087.11006l-1.22088,1.022a.21328.21328,0,0,1-.26754,0l-1.22479-1.022c-.07618-.059-.13282-.11006-.13282-.11006ZM10.3278,27.74862c-.06055.07081-.10743.12971-.10743.12971H8.03651a.16906.16906,0,0,1-.17189-.173V25.056a.17153.17153,0,0,1,.17189-.173h2.18386s.04688.059.10743.13374l1.01572,1.23034a.21427.21427,0,0,1,0,.27115Zm4.00044,3.14855a.17193.17193,0,0,1-.168.173h-2.637a.17527.17527,0,0,1-.17189-.173V28.70379s.05664-.0511.13282-.114l1.22479-1.0181a.21331.21331,0,0,1,.26754,0l1.22088,1.0181c.07422.06287.13087.114.13087.114Zm3.49258-3.19183a.17266.17266,0,0,1-.172.173H15.46507s-.05274-.0589-.1133-.12971l-1.01572-1.2304a.22508.22508,0,0,1,0-.27115l1.01572-1.23034c.06056-.07477.1133-.13374.1133-.13374h2.18379a.17533.17533,0,0,1,.172.173Zm4.78761,12.47651a4.36334,4.36334,0,1,1,4.33641-4.36332A4.35013,4.35013,0,0,1,22.60843,40.18185Zm5.2447-12.785a.12939.12939,0,0,1-.12892.12379H24.93287a.12647.12647,0,0,1-.1211-.12379V25.58869a.12647.12647,0,0,1,.1211-.12385h2.79134a.1294.1294,0,0,1,.12892.12385Zm5.44588,5.682a.10206.10206,0,0,1-.10548.10218H30.81825a.09934.09934,0,0,1-.10353-.10218v-1.537a.09934.09934,0,0,1,.10353-.10218h2.37528a.10206.10206,0,0,1,.10548.10218Zm2.78743-5.739V25.48248a.08955.08955,0,0,1,.11714-.09236l2.95737.98075c.06257.02752.06257.06293,0,.08448l-2.95737.98275C36.14113,27.45574,36.08644,27.42034,36.08644,27.33983Zm5.02769,12.842a4.36334,4.36334,0,1,1,4.33647-4.36332A4.34759,4.34759,0,0,1,41.11413,40.18185Zm4.74844-11.637a2.18954,2.18954,0,1,1,2.17226-2.19345A2.19266,2.19266,0,0,1,45.86257,28.54484Zm4.915,4.709a2.18955,2.18955,0,1,1,2.17183-2.19338A2.1859,2.1859,0,0,1,50.77752,33.25389Zm0-9.65794a2.18758,2.18758,0,1,1,2.17183-2.18557A2.18169,2.18169,0,0,1,50.77752,23.59595Zm4.71888,4.94889a2.18954,2.18954,0,1,1,2.17226-2.19345A2.18775,2.18775,0,0,1,55.4964,28.54484Z"/></svg>