<svg id="Layer_1" data-name="Layer 1" xmlns="http://www.w3.org/2000/svg" viewBox="0 0 64 64"><path d="M20.17676,18.51717l.31933,1.48633c.07325.34571.14112.68018.20557.99805.13721.67822.25879,1.28271.39453,1.77051.64258,2.30664,3.29736,2.28515,3.4375,2.31689l14.88953.00141c.14013-.03174,2.79492-.01026,3.4375-2.3169.13574-.48779.25732-1.09228.39453-1.77051.06445-.31787.13232-.65234.20557-.998l.31933-1.48633.69306-3.30145a3.6297,3.6297,0,0,0-.47132-3.13495,1.5334,1.5334,0,0,0-.52527-.35907c-2.15045-.587-7.07483-.485-11.49817-.48474V11.237c-4.42334-.00024-9.34771-.10229-11.49816.48474a1.53354,1.53354,0,0,0-.52527.35907,3.62971,3.62971,0,0,0-.47132,3.135Z"/><path d="M63.99988,41.02969l-.00995-.00171a50.70461,50.70461,0,0,0-.70129-8.4643,61.138,61.138,0,0,0-5.90381-18.30413l-.06519-.09247c-.246-.30121-.728-.30762-1.06775-.40656l-.14447-.99676c-.90082-1.11634-3.63586-1.80152-4.68036-1.92731l-.00036-.00079a8.83375,8.83375,0,0,0-3.34973.13763c-.32117.06122-.32117.24475-.32117.24475l-.13025,1.01282h-.00037a1.82058,1.82058,0,0,0-1.73535,1.43884l-1.08941,5.05756-.31836,1.4834c-.07282.34094-.13941.66955-.20252.98339l-.00024.00037c-.14453.71338-.26856,1.32959-.41309,1.84619a4.48123,4.48123,0,0,1-4.37109,3.0503h-.03907l-14.918-.002a4.50335,4.50335,0,0,1-4.40479-3.04834c-.14355-.51513-.26807-1.12939-.41211-1.84033-.06348-.31543-.13037-.646-.20361-.98877l-.31836-1.4834L18.1098,13.67056a1.82047,1.82047,0,0,0-1.73535-1.43885h-.00037l-.13024-1.01281s0-.18354-.32117-.24476a8.83378,8.83378,0,0,0-3.34973-.13763c-1.04358.12537-3.78058.81134-4.68036,1.92725l-.14447.99676c-.34.09906-.82141.10523-1.06775.40656l-.06519.09247A61.1359,61.1359,0,0,0,.7113,32.56356,50.7131,50.7131,0,0,0,.01007,41.028l-.00995.00171s-.0459,6.7453,1.72071,9.269c1.26446,1.80634,2.38793,2.21375,2.92437,2.29987.90357.145,3.40106.54766,3.97681.6405.36121.01367.51355-.17719.76184-.57727a66.48641,66.48641,0,0,0,3.05145-7.02057c1.49127-3.96918,1.92719-6.17169,4.97864-7.22711a7.48157,7.48157,0,0,1,1.44544-.29822c.72576.02606,1.79321.32269,2.511.34149,2.44812.04926,3.4433-.09357,7.66394-.04895l.00025.00568s1.27233-.00269,2.96545-.0044c1.69312.00171,2.96545.0044,2.96545.0044l.00025-.00568c4.22235-.04462,5.21435.09821,7.66394.04895.71442-.01843,1.78815-.31586,2.511-.34149a7.48157,7.48157,0,0,1,1.44544.29822c3.05145,1.05542,3.48737,3.25793,4.97864,7.22711a66.48641,66.48641,0,0,0,3.05145,7.02057c.24792.40088.401.59.76184.57727.57575-.09284,3.07324-.49548,3.97681-.6405.53644-.08612,1.65991-.49353,2.92437-2.29987C64.04578,47.775,63.99988,41.02969,63.99988,41.02969ZM11.13867,17.81637a8.18182,8.18182,0,0,1,.933-.08411,8.18185,8.18185,0,0,1,.933.08411.914.914,0,0,1,.78388.86774s-.03119.826-.08783,1.38873l-.01593.25116a.932.932,0,0,1-.3122.66357c-.28888.33887-.98987,1.00061-.98987,1.00061a.64571.64571,0,0,1-.62219,0s-.70093-.66174-.98981-1.00061a.93186.93186,0,0,1-.31225-.66357l-.01593-.25116c-.05664-.56275-.08783-1.38873-.08783-1.38873A.914.914,0,0,1,11.13867,17.81637Zm-1.7099,6.79309-.25116.01587c-.56274.0567-1.38873.08783-1.38873.08783a.91385.91385,0,0,1-.86774-.78388,8.17689,8.17689,0,0,1-.0841-.933,8.17946,8.17946,0,0,1,.0841-.933.914.914,0,0,1,.86774-.78388s.826.03119,1.38873.08783l.25116.01587a.93161.93161,0,0,1,.66352.31226c.33892.28888,1.00067.9898,1.00067.9898a.6459.6459,0,0,1,0,.62226s-.66175.70092-1.00061.9898A.93185.93185,0,0,1,9.42877,24.60946Zm3.608,3.48145a8.17968,8.17968,0,0,1-.933.08416,8.17984,8.17984,0,0,1-.933-.08416.91383.91383,0,0,1-.78388-.86774s.03119-.826.08783-1.38873l.01587-.25116a.93172.93172,0,0,1,.31226-.66352c.28887-.33893.9898-1.00067.9898-1.00067a.64584.64584,0,0,1,.62226,0s.70092.66174.9898,1.00067a.93161.93161,0,0,1,.31226.66352l.01587.25122c.05664.56274.08783,1.38867.08783,1.38867A.91381.91381,0,0,1,13.03674,28.09091Zm4.18555-4.16163a.91391.91391,0,0,1-.86774.78388s-.826-.03113-1.38873-.08783l-.25116-.01587a.93159.93159,0,0,1-.66351-.31226c-.33893-.28888-1.00067-.9898-1.00067-.9898a.64584.64584,0,0,1,0-.62226s.66174-.70092,1.00061-.9898a.93183.93183,0,0,1,.66357-.31226l.25116-.01587c.56274-.05664,1.38873-.08783,1.38873-.08783a.91391.91391,0,0,1,.86774.78388,8.18164,8.18164,0,0,1,.08411.933A8.17906,8.17906,0,0,1,17.22229,23.92928Zm.06049-6.57873a.73.73,0,0,1-.85749-.57477l-.27935-1.415a.72995.72995,0,1,1,1.43225-.28277l.27935,1.415A.72993.72993,0,0,1,17.28278,17.35055Zm8.12243,15.13727a3.71955,3.71955,0,1,1-4.37542-4.37537A3.72242,3.72242,0,0,1,25.40521,32.48782ZM33.25153,35.568H30.74164a.38239.38239,0,1,1,0-.76477h2.50989a.38239.38239,0,0,1,0,.76477ZM46.32471,15.09719A.72995.72995,0,1,1,47.757,15.38l-.27936,1.415a.72995.72995,0,1,1-1.43225-.28278Zm-.43128,17.39063A3.71955,3.71955,0,1,1,41.518,28.11245,3.72242,3.72242,0,0,1,45.89343,32.48782Zm3.3797-9.009a2.07536,2.07536,0,1,1-2.52582-2.52594A2.05971,2.05971,0,0,1,49.27313,23.47884ZM53.96106,28.186a2.07539,2.07539,0,1,1-2.52588-2.52594A2.05987,2.05987,0,0,1,53.96106,28.186Zm.00012-9.41467a2.07542,2.07542,0,1,1-2.52582-2.52558A2.05981,2.05981,0,0,1,53.96118,18.77133Zm4.68768,4.70782A2.07543,2.07543,0,1,1,56.12262,20.953,2.05962,2.05962,0,0,1,58.64886,23.47915Z"/></svg>