<svg id="Layer_1" data-name="Layer 1" xmlns="http://www.w3.org/2000/svg" viewBox="0 0 64 64"><path d="M19,30.55035a.23336.23336,0,0,1,.23242.23438v3.5625H19.2207a.23215.23215,0,0,1-.23242.23437H15.916a.23553.23553,0,0,0-.23243.23828V37.894a.23517.23517,0,0,1-.23242.23053h-3.5625a.23009.23009,0,0,1-.23242-.23053v-3.082a.23755.23755,0,0,0-.23633-.23828H8.35156a.23212.23212,0,0,1-.23242-.23438V30.78473a.23463.23463,0,0,1,.23242-.23438h3.07227a.23344.23344,0,0,0,.23633-.23047V27.24566a.23007.23007,0,0,1,.23242-.23047h3.56836a.23478.23478,0,0,1,.23047.23047v3.07422a.23131.23131,0,0,0,.23242.23047Zm45,1.88281A13.50314,13.50314,0,0,1,44.05237,44.29608c-.42841-.23432-1.42841-.74188-1.826-.97211a5.867,5.867,0,0,0-2.89044-.594H24.6875a5.88062,5.88062,0,0,0-2.97461.64477c-.49756.29529-1.31372.70764-2.05286,1.06336q-.41637.2145-.84924.39947c-.07825.03589-.15869.07288-.2279.104H18.577A13.4953,13.4953,0,0,1,6.87488,20.67981c-.01685.00933-.03.0144-.0473.02423a.99817.99817,0,0,1,.50518-1.257,13.295,13.295,0,0,1,5.15949-1.34845c1.91046-.07153,7.64715,0,7.64715,0a.52672.52672,0,0,1,.55988.51935v.31512l-.00012.00006H43.3009l-.00018-.00006V18.618a.52672.52672,0,0,1,.55988-.51935s5.73669-.07153,7.64715,0a13.295,13.295,0,0,1,5.15949,1.34845.99817.99817,0,0,1,.50518,1.257c-.01257-.00714-.02612-.01184-.03869-.01892A13.48111,13.48111,0,0,1,64,32.43316ZM21.35156,32.566a7.68164,7.68164,0,1,0-7.67968,7.67968A7.67739,7.67739,0,0,0,21.35156,32.566Zm6.67188.36718a.95631.95631,0,0,0-1.34375-.15625l-2.66407,2.17578a.95263.95263,0,1,0,1.17969,1.4961L27.86719,34.273A.9519.9519,0,0,0,28.02344,32.93316Zm7.10937,0a.94717.94717,0,0,0-1.33593-.15625L31.125,34.95269a.95383.95383,0,0,0,1.18359,1.4961l2.668-2.17578A.95189.95189,0,0,0,35.13281,32.93316Zm27.66407-.53131a12.3125,12.3125,0,1,0-12.3125,12.3125A12.31249,12.31249,0,0,0,62.79688,32.40185ZM52.59258,29.686l-6.90027,5.42a3.38637,3.38637,0,0,1-4.19091-5.32037l6.90075-5.41132A3.3828,3.3828,0,1,1,52.59258,29.686Zm-6.33777,2.77935a2.62338,2.62338,0,1,0-2.62341,2.6233A2.62156,2.62156,0,0,0,46.25481,32.46539Zm6.81391-5.3507A2.62345,2.62345,0,1,0,50.4453,29.7381,2.62157,2.62157,0,0,0,53.06872,27.11469Zm6.39844,7.90478-6.9007,5.41132a3.38455,3.38455,0,1,1-4.19049-5.316l6.90076-5.41132a3.38452,3.38452,0,0,1,4.19043,5.316Zm-6.3205,2.74463a2.62339,2.62339,0,1,0-2.62335,2.62341A2.62711,2.62711,0,0,0,53.14666,37.7641Zm6.8139-5.355a2.62341,2.62341,0,1,0-2.62347,2.62769A2.62153,2.62153,0,0,0,59.96056,32.40912Z"/></svg>