<svg id="Layer_1" data-name="Layer 1" xmlns="http://www.w3.org/2000/svg" viewBox="0 0 64 64"><path d="M63.90752,43.84525c-1.73971-12.538-2.98337-23.31871-8.55134-29.06593a2.96489,2.96489,0,0,0-1.72879-2.24548,15.60312,15.60312,0,0,0-3.59543-1.269s-4.22877-1.01349-4.51837.56113c-.18639-.0044-.37284-.00727-.55935-.00727H19.05018c-.18651,0-.373.00287-.55935.00727-.2896-1.57462-4.51837-.56113-4.51837-.56113a15.60312,15.60312,0,0,0-3.59543,1.269,2.96483,2.96483,0,0,0-1.72879,2.24548C3.07245,20.54716,1.84468,31.27467.09656,43.84512c-1.00095,8.478,6.02325,10.26893,9.80966,8.62119a7.24392,7.24392,0,0,0,3.32644-3.81889c.60175-1.56633,2.394-6.81646,2.91772-7.602,1.45683-2.18518,2.41942-1.94392,4.955-2.15521H42.899c2.53562.21129,3.49821-.03,4.955,2.15521.52371.78554,2.316,6.03567,2.9178,7.602a6.41045,6.41045,0,0,0,6.6624,4.35056C59.34756,52.80778,64.77142,51.61075,63.90752,43.84525ZM15.428,24.12663a.29147.29147,0,0,0-.29149.29149V26.02a1.67184,1.67184,0,0,1-3.34368,0v-1.6019a.29147.29147,0,0,0-.29149-.29149H9.89939a1.67184,1.67184,0,0,1,0-3.34368h1.6019a.29147.29147,0,0,0,.29149-.29149v-1.6019a1.67184,1.67184,0,0,1,3.34368,0v1.6019a.29147.29147,0,0,0,.29149.29149h1.6019a1.67184,1.67184,0,0,1,0,3.34368ZM21.60546,35.288a3.62565,3.62565,0,1,1,3.62559-3.62565A3.62565,3.62565,0,0,1,21.60546,35.288Zm3.51793-16.46337H23.63287a.96683.96683,0,1,1,0-1.93366h1.49052a.96683.96683,0,1,1,0,1.93366Zm2.07318,4.99313a1.2416,1.2416,0,1,1,1.24157-1.24157A1.24158,1.24158,0,0,1,27.19657,23.81775Zm4.80564,9.91595a2.13508,2.13508,0,1,1,2.13507-2.13508A2.135,2.135,0,0,1,32.00221,33.7337Zm4.78-9.91595a1.2416,1.2416,0,1,1,1.24157-1.24157A1.2416,1.2416,0,0,1,36.78221,23.81775Zm1.11151-5.97a.96683.96683,0,0,1,.96681-.96686H40.3511a.96683.96683,0,0,1,0,1.93366H38.86053A.96678.96678,0,0,1,37.89372,17.84775ZM42.27159,35.288a3.62565,3.62565,0,1,1,3.62559-3.62565A3.62565,3.62565,0,0,1,42.27159,35.288Zm3.92446-10.819a2.01423,2.01423,0,1,1,2.01423-2.01423A2.01423,2.01423,0,0,1,46.19605,24.469Zm4.41137,4.34979a2.01426,2.01426,0,1,1,2.01423-2.01429A2.01425,2.01425,0,0,1,50.60742,28.81881Zm0-8.66125a2.01426,2.01426,0,1,1,2.01423-2.01423A2.01424,2.01424,0,0,1,50.60742,20.15756ZM54.89759,24.469a2.01423,2.01423,0,1,1,2.01423-2.01423A2.01423,2.01423,0,0,1,54.89759,24.469Z"/></svg>