<svg id="Layer_1" data-name="Layer 1" xmlns="http://www.w3.org/2000/svg" viewBox="0 0 64 64"><path d="M56.37122,18.46014c-1.66614-1.4776-5.71863-2.67584-8.71894-2.67584-.96112,0-1.47387.23566-1.71563.59784l-.0376.00379c-1.22132.08416-2.83093.192-4.54285.29864-.73065-1.03137-3.43671-.93219-3.92871.22858-2.179.11584-4.18414.19983-5.42633.19983-1.24274,0-3.24908-.08411-5.42908-.2-.49218-1.16052-3.19769-1.25964-3.9284-.22851-1.711-.10663-3.31977-.21436-4.54047-.29852l-.03955-.004v-.02637l.00232-.00812-.00232-.001V16.344l-.00378.0008-.00318-.00135.007.00055c-.2417-.36267-.75452-.59845-1.71625-.59845-3.00061,0-7.05383,1.23908-8.7196,2.71766a16.24577,16.24577,0,0,0-7.615,13.78088c.00024,8.725,7.18652,17.26129,18.09045,15.85815,3.70026-.25506,10.94629-.727,13.89795-.727s10.19763.472,13.89789.727C56.82361,49.50171,63.98639,40.962,63.9873,32.24408A16.241,16.241,0,0,0,56.37122,18.46014ZM17.77771,30.03424a.4532.4532,0,0,1-.4527.44989H14.54919a.45355.45355,0,0,0-.45263.45v2.75733a.45129.45129,0,0,1-.45209.44989H10.98956a.45125.45125,0,0,1-.45208-.44989V30.93408a.4536.4536,0,0,0-.4527-.45h-2.773a.45133.45133,0,0,1-.45264-.44989V27.3949a.45134.45134,0,0,1,.45264-.45h2.773a.45357.45357,0,0,0,.4527-.44995V23.73773a.45308.45308,0,0,1,.45208-.44995h2.65491a.45312.45312,0,0,1,.45209.44995V26.495a.45352.45352,0,0,0,.45263.44995H17.325a.45321.45321,0,0,1,.4527.45Zm10.72888-1.39355a1.37878,1.37878,0,1,1-1.37872-1.37085A1.37484,1.37484,0,0,1,28.50659,28.64069ZM28.46478,39.646l-1.12152,2.68206a1.34138,1.34138,0,0,1-.729.7229l-2.7005,1.108a1.35251,1.35251,0,0,1-1.0296-.00135l-2.69751-1.11511a1.34149,1.34149,0,0,1-.72706-.72479l-1.11438-2.685a1.33054,1.33054,0,0,1,.00135-1.02374l1.12152-2.68207a1.34145,1.34145,0,0,1,.729-.7229l2.70044-1.108a1.35246,1.35246,0,0,1,1.0296.00134l2.69751,1.11511a1.34142,1.34142,0,0,1,.72712.7248l1.11438,2.685A1.33041,1.33041,0,0,1,28.46478,39.646Zm3.47669-9.63446a1.37087,1.37087,0,1,1,1.37878-1.37085A1.37484,1.37484,0,0,1,31.94147,30.01154Zm4.81366-2.73017a1.37087,1.37087,0,1,1-1.37873,1.37085A1.3748,1.3748,0,0,1,36.75513,27.28137ZM45.6557,39.646l-1.12152,2.68206a1.34138,1.34138,0,0,1-.729.7229l-2.7005,1.108a1.35253,1.35253,0,0,1-1.02961-.00135l-2.69751-1.11511a1.3415,1.3415,0,0,1-.72705-.72479l-1.11438-2.685a1.33049,1.33049,0,0,1,.00135-1.02374L36.659,35.92694a1.34145,1.34145,0,0,1,.729-.7229l2.70044-1.108a1.35246,1.35246,0,0,1,1.0296.00134l2.69751,1.11511a1.34137,1.34137,0,0,1,.72711.7248l1.11438,2.685A1.33041,1.33041,0,0,1,45.6557,39.646Zm-.20251-8.60517a2.32633,2.32633,0,1,1,2.33972-2.32629A2.333,2.333,0,0,1,45.45319,31.04083Zm6.29492,4.57874a2.32633,2.32633,0,1,1,2.33966-2.3263A2.333,2.333,0,0,1,51.74811,35.61957Zm0-9.30518a2.32633,2.32633,0,1,1,2.33966-2.32629A2.333,2.333,0,0,1,51.74811,26.31439ZM58.043,31.04083a2.32633,2.32633,0,1,1,2.33972-2.32629A2.333,2.333,0,0,1,58.043,31.04083Z"/></svg>