<svg id="Layer_1" data-name="Layer 1" xmlns="http://www.w3.org/2000/svg" viewBox="0 0 64 64"><path d="M63.34979,37.89971c-.76264-6.28522-1.961-13.41089-4.57569-19.36719a29.02916,29.02916,0,0,0-3.30468-5.24377A9.90977,9.90977,0,0,0,51.76989,10.616l-.35339-1.108h-.00006c-.27765-1.05632-3.1367-1.05765-3.60272-.113a6.47022,6.47022,0,0,0-.18885,1.15219c-3.1985.97744-5.534,2.99681-10.8577,3.45412-2.80135.23942-3.87148.29942-4.24673.29246H31.47955c-.37524.007-1.44537-.053-4.24677-.29236-5.32413-.45757-7.65882-2.47666-10.85766-3.45422a6.70424,6.70424,0,0,0-.18884-1.1523c-.46525-.94463-3.32661-.94288-3.60273.11312h-.00006l-.35339,1.108a9.90727,9.90727,0,0,0-3.69954,2.67275,29.0308,29.0308,0,0,0-3.30467,5.24381c-2.61469,5.9563-3.813,13.082-4.57569,19.36719A105.26312,105.26312,0,0,0,.00677,50.63742a4.69058,4.69058,0,0,0,7.86792,3.39886c9.58185-8.84081,10.85771-11.569,24.2431-11.28108,13.20805-.29559,14.62913,2.646,24.00751,11.28108a4.69058,4.69058,0,0,0,7.86792-3.39886A105.24894,105.24894,0,0,0,63.34979,37.89971ZM8.97863,23.49548a3.949,3.949,0,1,1,3.94886,3.97357A3.96123,3.96123,0,0,1,8.97863,23.49548ZM24.66436,34.87261a.56481.56481,0,0,1-.563.56659h-2.3764a.2571.2571,0,0,0-.25629.25787v2.39124a.56481.56481,0,0,1-.56305.56659H18.93286a.56486.56486,0,0,1-.56311-.56659V35.69707a.2571.2571,0,0,0-.25629-.25787H15.73712a.56481.56481,0,0,1-.56305-.56659v-1.985a.56481.56481,0,0,1,.56305-.56659h2.37634a.25711.25711,0,0,0,.25629-.25788V29.67187a.56486.56486,0,0,1,.56311-.56659h1.97271a.56481.56481,0,0,1,.56305.56659V32.0631a.25711.25711,0,0,0,.25629.25788h2.3764a.56481.56481,0,0,1,.563.56659Zm1.93653-7.20868A1.39877,1.39877,0,1,1,27.991,26.26519,1.39438,1.39438,0,0,1,26.60089,27.66393Zm5.27374,7.684a1.3988,1.3988,0,1,1,1.39008-1.3988A1.39448,1.39448,0,0,1,31.87463,35.34789Zm0-7.684a1.39877,1.39877,0,1,1,1.39008-1.39874A1.39443,1.39443,0,0,1,31.87463,27.66393Zm3.88367-1.39874a1.39007,1.39007,0,1,1,1.39,1.39874A1.39437,1.39437,0,0,1,35.7583,26.26519Zm3.68829,9.69574a2.01185,2.01185,0,1,1,1.99933-2.01184A2.0056,2.0056,0,0,1,39.44659,35.96093Zm4.45465,4.10693A2.01188,2.01188,0,1,1,45.90057,38.056,2.00559,2.00559,0,0,1,43.90124,40.06786Zm0-8.2138a2.01188,2.01188,0,1,1,1.99933-2.01184A2.0056,2.0056,0,0,1,43.90124,31.85406Zm4.45465,4.10687a2.01185,2.01185,0,1,1,1.99933-2.01184A2.00561,2.00561,0,0,1,48.35589,35.96093Zm2.46582-8.49188a3.97362,3.97362,0,1,1,3.94892-3.97357A3.96132,3.96132,0,0,1,50.82171,27.46905Z"/></svg>