<svg id="Layer_1" data-name="Layer 1" xmlns="http://www.w3.org/2000/svg" viewBox="0 0 64 64"><path d="M37.37642,0H26.62953A2.60508,2.60508,0,0,0,24,2.56242V61.43768A2.60643,2.60643,0,0,0,26.62953,64H37.37642A2.60249,2.60249,0,0,0,40,61.43768V2.56242A2.60114,2.60114,0,0,0,37.37642,0ZM30.70727,8.90208V6.93926a.32617.32617,0,0,1,.329-.32031h1.92952a.32617.32617,0,0,1,.32895.32031V8.90208a.32619.32619,0,0,0,.32895.32031h2.0178a.32616.32616,0,0,1,.32895.32027v1.87886a.32616.32616,0,0,1-.32895.32031h-2.0178a.32617.32617,0,0,0-.32895.32031V14.025a.32492.32492,0,0,1-.32895.32031H31.03623a.32492.32492,0,0,1-.329-.32031V12.06214a.32617.32617,0,0,0-.329-.32031H28.36253a.32487.32487,0,0,1-.32895-.32031V9.54266a.32487.32487,0,0,1,.32895-.32027h2.01579A.32619.32619,0,0,0,30.70727,8.90208Zm-2.8502-7.17166a1.27636,1.27636,0,0,1,1.29371,1.25972,1.29422,1.29422,0,0,1-2.58742,0A1.27636,1.27636,0,0,1,27.85707,1.73042ZM27.484,31.9795a1.26017,1.26017,0,1,1,1.29371-1.25972A1.27586,1.27586,0,0,1,27.484,31.9795Zm4.517,22.60679a1.70756,1.70756,0,1,1,1.753-1.71075A1.73168,1.73168,0,0,1,32.001,54.58629Zm0-5.703a1.70755,1.70755,0,1,1,1.753-1.70315A1.72764,1.72764,0,0,1,32.001,48.88326ZM30.70727,30.71978A1.29417,1.29417,0,1,1,32.001,31.9795,1.27762,1.27762,0,0,1,30.70727,30.71978ZM32.001,22.50127a2.49885,2.49885,0,1,1,2.56536-2.498A2.53329,2.53329,0,0,1,32.001,22.50127Zm4.517,9.47823a1.26012,1.26012,0,1,1,1.2917-1.25972A1.27633,1.27633,0,0,1,36.518,31.9795Z"/></svg>