<svg id="Layer_1" data-name="Layer 1" xmlns="http://www.w3.org/2000/svg" viewBox="0 0 64 64"><defs><style>.cls-1,.cls-2{fill:#000;}.cls-1{opacity:0.5;}</style></defs><path class="cls-1" d="M4.75248,20.217a4.58311,4.58311,0,1,1,4.58309,4.56887A4.576,4.576,0,0,1,4.75248,20.217Zm13.33,14.54132c0-.87347-.16272-1.58155-.36352-1.58155H14.38082V29.849c0-.2002-.71027-.36243-1.58644-.36243s-1.58649.16223-1.58649.36243v3.32777H7.86974c-.2008,0-.36353.70808-.36353,1.58155s.16273,1.58155.36353,1.58155h3.33815V39.6676c0,.20019.71027.36242,1.58649.36242s1.58644-.16223,1.58644-.36242V36.33982H17.719C17.91977,36.33982,18.08249,35.63175,18.08249,34.75827ZM34.92164,48.71378A31.72075,31.72075,0,0,0,32.28607,44.161l-.13727-.19732a.17241.17241,0,0,0-.2976,0l-.13727.19732a31.72075,31.72075,0,0,0-2.63557,4.55282.17156.17156,0,0,0,.13391.25732,32.4693,32.4693,0,0,0,5.57546,0A.17156.17156,0,0,0,34.92164,48.71378Zm8.29-45.77544V22.58491a11.21163,11.21163,0,1,1-22.42326,0V2.92992a22.83928,22.83928,0,0,1,22.42326.00842Zm-4.304,12.41491a3.01354,3.01354,0,0,0-3.00935-3H28.10167a3.01354,3.01354,0,0,0-3.00935,3v6.43258a3.01351,3.01351,0,0,0,3.00935,3h7.79666a3.01351,3.01351,0,0,0,3.00935-3ZM49.25483,25.97747a2.5284,2.5284,0,1,0-2.52839,2.52058A2.52446,2.52446,0,0,0,49.25483,25.97747Zm5.48654,5.33767a2.52844,2.52844,0,1,0-2.5284,2.52058A2.52451,2.52451,0,0,0,54.74137,31.31514Zm0-10.67534a2.52844,2.52844,0,1,0-2.5284,2.52058A2.52451,2.52451,0,0,0,54.74137,20.6398Zm5.48647,5.33767a2.52843,2.52843,0,1,0-2.52845,2.52058A2.52451,2.52451,0,0,0,60.22784,25.97747Z"/><path class="cls-2" d="M25.09235,21.77875V15.34614a3.01352,3.01352,0,0,1,3.00933-3h7.79664a3.01352,3.01352,0,0,1,3.00933,3v6.43261a3.01348,3.01348,0,0,1-3.00933,3H28.10168A3.01348,3.01348,0,0,1,25.09235,21.77875Zm37.11932,11.3064a98.75518,98.75518,0,0,1-2.1814,15.387,54.11755,54.11755,0,0,1-3.04071,9.4892,36.02414,36.02414,0,0,1-2.99664,5.27185,1.67644,1.67644,0,0,1-1.85089.70288,50.91993,50.91993,0,0,0-1.93976-7.38049c-.52875-1.318-.43988-1.62549-3.701-2.24054A108.19942,108.19942,0,0,0,33.63336,52.6457c-.551-.02576-1.09479-.0484-1.6333-.04865-.53857.00025-1.0824.02289-1.63342.04865a108.19942,108.19942,0,0,0-12.86792,1.66937c-3.26111.61505-3.17224.92255-3.701,2.24054A50.91993,50.91993,0,0,0,11.858,63.9361a1.67644,1.67644,0,0,1-1.85089-.70288,36.02414,36.02414,0,0,1-2.99664-5.27185,54.11755,54.11755,0,0,1-3.04071-9.4892,98.75518,98.75518,0,0,1-2.1814-15.387c-.89026-11.38263.49524-16.298,1.43652-18.64423a17.44529,17.44529,0,0,1,.96961-2.05273,1.68478,1.68478,0,0,1,.70068-.59894C6.55408,11.00062,13.449,9.48737,13.449,9.48737a22.93749,22.93749,0,0,1,7.33942-6.54571V22.57783a11.21161,11.21161,0,1,0,22.42322,0l.002-.00135V2.94074A22.93753,22.93753,0,0,1,50.553,9.48646s6.8949,1.51324,8.55383,2.30188l-.00165.00109a1.68434,1.68434,0,0,1,.70038.59876,17.44529,17.44529,0,0,1,.96961,2.05273C61.71643,16.78718,63.10193,21.70252,62.21167,33.08515Zm-52.8761-8.3064A4.5689,4.5689,0,1,0,4.7525,20.20984,4.576,4.576,0,0,0,9.33557,24.77875Zm8.74695,9.97242c0-.87348-.16272-1.58155-.36353-1.58155H14.3808V29.84186c0-.20019-.71027-.36242-1.58643-.36242s-1.58648.16223-1.58648.36242v3.32776H7.86975c-.2008,0-.36352.70807-.36352,1.58155s.16272,1.58154.36352,1.58154h3.33814v3.32782c0,.20019.71026.36243,1.58648.36243s1.58643-.16224,1.58643-.36243V36.33271H17.719C17.9198,36.33271,18.08252,35.62464,18.08252,34.75117Zm16.83911,13.9555a31.72038,31.72038,0,0,0-2.63556-4.55279l-.13727-.19733a.17241.17241,0,0,0-.2976,0l-.13727.19733a31.72038,31.72038,0,0,0-2.63556,4.55279.17157.17157,0,0,0,.13391.25733,32.47109,32.47109,0,0,0,5.57544,0A.17157.17157,0,0,0,34.92163,48.70667ZM49.25482,25.9704A2.52839,2.52839,0,1,0,46.72644,28.491,2.5245,2.5245,0,0,0,49.25482,25.9704Zm5.48657,5.33765A2.52845,2.52845,0,1,0,52.213,33.82862,2.52454,2.52454,0,0,0,54.74139,31.30805Zm0-10.67535A2.52845,2.52845,0,1,0,52.213,23.15327,2.52454,2.52454,0,0,0,54.74139,20.6327Zm5.48645,5.3377A2.52842,2.52842,0,1,0,57.6994,28.491,2.52455,2.52455,0,0,0,60.22784,25.9704Z"/></svg>