<svg id="Layer_1" data-name="Layer 1" xmlns="http://www.w3.org/2000/svg" viewBox="0 0 64 64"><defs><style>.cls-1{opacity:0.5;}</style></defs><path d="M63.48212,31.50351s-.42865-4.23315-.58979-6.53418a11.31257,11.31257,0,0,0-9.30712-12.50854C49.07281,9.69852,41.09528,7.86166,32,7.86166c-9.12341,0-17.12286,1.84815-21.62769,4.6247a11.376,11.376,0,0,0-9.22216,11.167c0,.12415.01458.24457.01855.36774-.00165.032-.00873.063-.01013.095-.08014,1.85205-.64063,7.38739-.64063,7.38739-.93158,7.019-.53118,17.04773.60157,20.79071,1.13275,3.74262,3.86316,3.80927,3.86316,3.80927,5.58783.82891,5.91125-13.38117,6.44793-15.76807a5.008,5.008,0,0,1,.294-.91211A.73012.73012,0,0,1,13.05414,39.37l.12262.24871a9.85811,9.85811,0,0,1,.50921,1.34479,8.43419,8.43419,0,0,0,10.58777,5.36011,7.9432,7.9432,0,0,0,5.41236-6.504,8.132,8.132,0,0,0-2.35816-7.01025,15.08579,15.08579,0,0,1-1.3161-1.441,2.08169,2.08169,0,0,1-.55365-1.19641.57179.57179,0,0,1,.277-.49542A22.21928,22.21928,0,0,1,32,29.0173a22.16692,22.16692,0,0,1,6.26135.66022.59223.59223,0,0,1,.27741.5354,2.11646,2.11646,0,0,1-.55011,1.15485,15.08745,15.08745,0,0,1-1.31671,1.44183,8.13214,8.13214,0,0,0-2.358,7.01032,7.94343,7.94343,0,0,0,5.41254,6.50384,8.43423,8.43423,0,0,0,10.58759-5.36023,9.85811,9.85811,0,0,1,.50921-1.34479l.12262-.24871a.73012.73012,0,0,1,1.32959.05328,5.00726,5.00726,0,0,1,.294.91211c.53668,2.3869.86011,16.597,6.44787,15.76807,0,0,2.73047-.06665,3.86322-3.80927C64.01331,48.55124,64.4137,38.52249,63.48212,31.50351Zm-51.23206-2.2417a5.03449,5.03449,0,0,1-5.02722-5.03949,5.11332,5.11332,0,0,1,5.02753-5.04816,5.04386,5.04386,0,0,1-.00031,10.08765Zm13.53485,7.6264a.17579.17579,0,0,1,.17578.17579v2.66558a.173.173,0,0,1-.17248.17243H23.49585a.17189.17189,0,0,0-.17188.17187V42.375a.17265.17265,0,0,1-.17218.17218H20.49237a.17265.17265,0,0,1-.17218-.17218v-2.3006a.17291.17291,0,0,0-.17242-.17242H17.85541a.17236.17236,0,0,1-.17188-.17188V37.0607a.173.173,0,0,1,.17249-.17249h2.2923a.17236.17236,0,0,0,.17187-.17187V34.41922a.17686.17686,0,0,1,.17639-.17633h2.65167a.17185.17185,0,0,1,.17188.17187v2.301a.17245.17245,0,0,0,.17248.17242Zm6.1543-10.77581a1.51667,1.51667,0,1,1,1.51166-1.51667A1.51249,1.51249,0,0,1,31.93921,26.1124ZM41.63165,27.243a2.42552,2.42552,0,1,1,2.95069,2.96442A2.41471,2.41471,0,0,1,41.63165,27.243Zm5.1742,11.9234a4.54144,4.54144,0,1,1-5.20038-5.22882A4.56465,4.56465,0,0,1,46.80585,39.16641Zm-.82685-20.574a1.61678,1.61678,0,0,1,.30146-1.52289,5.44134,5.44134,0,0,1,2.30475-1.646,4.45233,4.45233,0,0,1,3.62115.341,1.60636,1.60636,0,0,1,.65594,1.29718,1.62983,1.62983,0,0,1-1.59356,1.6029,7.88505,7.88505,0,0,0-1.094.10974c-.31237.07447-.5664.18024-.87078.27436-.82111.25787-1.043.64056-1.76514.65405A1.56506,1.56506,0,0,1,45.979,18.59244Zm9.03638,6.18078a3.73251,3.73251,0,1,1-4.27344-4.296A3.74994,3.74994,0,0,1,55.01538,24.77322Zm4.796.67524a1.58782,1.58782,0,0,1-1.28876.66241,1.63106,1.63106,0,0,1-1.598-1.6029,7.85417,7.85417,0,0,0-.10919-1.09345c-.0744-.31744-.17963-.5722-.27362-.87787-.2536-.8009-.61743-1.03357-.64966-1.70819a1.63333,1.63333,0,0,1,1.36072-1.68555,1.60055,1.60055,0,0,1,1.26172.36042,5.5209,5.5209,0,0,1,1.64074,2.31219A4.47258,4.47258,0,0,1,59.81134,25.44846Z"/><g class="cls-1"><path d="M42.32422,43.01074a4.55191,4.55191,0,0,1-3.458-1.59179,4.61582,4.61582,0,0,1-1.04492-3.71387A4.565,4.565,0,0,1,41.60254,33.918a4.66643,4.66643,0,0,1,.7207-.05567,4.55036,4.55036,0,0,1,3.458,1.5918,4.61391,4.61391,0,0,1,1.044,3.71485A4.56285,4.56285,0,0,1,43.043,42.95508a4.75623,4.75623,0,0,1-.71875.05566Zm-21.832-.44433a.19172.19172,0,0,1-.19141-.19141V40.07422a.15337.15337,0,0,0-.15332-.15234h-2.292a.19172.19172,0,0,1-.19141-.19141V37.06055a.19193.19193,0,0,1,.19239-.19141h2.292a.15254.15254,0,0,0,.15234-.15234V34.419a.19547.19547,0,0,1,.19629-.19532h2.65137a.19171.19171,0,0,1,.1914.19141v2.30078a.15338.15338,0,0,0,.15235.15332h2.293a.19464.19464,0,0,1,.19531.19531v2.665a.19214.19214,0,0,1-.19238.19239h-2.292a.15253.15253,0,0,0-.15234.15234V42.375a.19193.19193,0,0,1-.19238.19141Zm23.4873-12.26563a2.42618,2.42618,0,0,1-1.918-.93506,2.45126,2.45126,0,0,1,1.31055-3.89062,2.5897,2.5897,0,0,1,.60742-.07373,2.42666,2.42666,0,0,1,1.919.93506,2.451,2.451,0,0,1-1.31153,3.89062,2.58349,2.58349,0,0,1-.60742.07373ZM12.25,29.28174a5.03578,5.03578,0,0,1-3.5498-8.61865A4.986,4.986,0,0,1,12.249,19.1543a5.06375,5.06375,0,0,1,.001,10.12744ZM51.332,27.9375a3.74293,3.74293,0,0,1-2.84473-1.30811,3.79443,3.79443,0,0,1-.85937-3.05615A3.75,3.75,0,0,1,50.73926,20.458a3.89076,3.89076,0,0,1,.59179-.04541,3.74209,3.74209,0,0,1,2.84375,1.30761,3.79853,3.79853,0,0,1,.86036,3.05616,3.75327,3.75327,0,0,1-3.11133,3.11572A3.89089,3.89089,0,0,1,51.332,27.9375ZM31.93945,26.13232A1.53663,1.53663,0,1,1,33.4707,24.5957,1.53447,1.53447,0,0,1,31.93945,26.13232Zm26.583-.00146a1.64545,1.64545,0,0,1-1.61719-1.62207A7.63913,7.63913,0,0,0,56.7959,23.419c-.04785-.20362-.1084-.38135-.16992-.564-.03516-.10107-.06934-.20361-.10352-.3125a4.28254,4.28254,0,0,0-.34473-.78174,2.01121,2.01121,0,0,1-.30468-.93115,1.65514,1.65514,0,0,1,1.377-1.70654,1.73389,1.73389,0,0,1,.2334-.01563,1.6057,1.6057,0,0,1,1.04394.38086,5.50005,5.50005,0,0,1,1.64649,2.32031,4.47942,4.47942,0,0,1-.34668,3.65284A1.61616,1.61616,0,0,1,58.52246,26.13086Zm-11.0166-6.40772a1.59055,1.59055,0,0,1-1.5459-1.125,1.62814,1.62814,0,0,1,.30469-1.5415,5.51473,5.51473,0,0,1,2.31347-1.65234,4.41208,4.41208,0,0,1,1.4502-.22852,3.823,3.823,0,0,1,2.19043.57324,1.61527,1.61527,0,0,1,.66309,1.3125,1.64324,1.64324,0,0,1-1.61231,1.623,7.628,7.628,0,0,0-1.08984.10938,5.68889,5.68889,0,0,0-.55469.16943c-.10254.03516-.20508.0708-.31543.10449a4.18533,4.18533,0,0,0-.7832.34619,1.95115,1.95115,0,0,1-.98731.3086ZM6.38867,14.083a7.36683,7.36683,0,0,1,3.17188-3.18164,5.9797,5.9797,0,0,1,2.66113-.60059,4.89956,4.89956,0,0,1,1.95312.35986,25.27587,25.27587,0,0,0-3.76757,1.83985A11.28566,11.28566,0,0,0,6.418,14.10791l-.05664.03711ZM57.582,14.00293a11.26276,11.26276,0,0,0-3.97656-1.52588,22.47757,22.47757,0,0,0-3.72656-1.77783,4.30714,4.30714,0,0,1,1.95507-.39893,5.97745,5.97745,0,0,1,2.66016.60108,7.51815,7.51815,0,0,1,3.11621,3.07568l.03125.062Z"/></g></svg>