<svg id="Layer_1" data-name="Layer 1" xmlns="http://www.w3.org/2000/svg" viewBox="0 0 64 64"><defs><style>.cls-1{opacity:0.5;}</style></defs><rect x="40.25699" y="28.28084" width="9.6829" height="1.77428"/><path d="M20.41926,23.64042H13.40458A4.65163,4.65163,0,0,0,8.82073,28.357v7.21778a4.65163,4.65163,0,0,0,4.58385,4.71657h7.01468a4.65163,4.65163,0,0,0,4.58385-4.71657V28.357A4.65163,4.65163,0,0,0,20.41926,23.64042Zm-8.14983,8.87139H10.67772a.54615.54615,0,0,1,0-1.09186h1.59171a.54615.54615,0,0,1,0,1.09186Zm5.17306,5.86877a.53079.53079,0,1,1-1.06114,0v-1.6378a.53079.53079,0,1,1,1.06114,0Zm0-11.1916a.53079.53079,0,1,1-1.06114,0v-1.6378a.53079.53079,0,1,1,1.06114,0Zm5.70362,5.32283H21.5544a.54615.54615,0,0,1,0-1.09186h1.59171a.54615.54615,0,0,1,0,1.09186Z"/><rect x="51.00104" y="28.28084" width="9.6829" height="1.77428"/><path d="M8.29016,35.57477V28.357A5.32715,5.32715,0,0,1,9.6229,24.81772L7.2835,22.4106a.148.148,0,0,0-.25345.108V41.41314a.148.148,0,0,0,.25345.108L9.6229,39.114A5.32718,5.32718,0,0,1,8.29016,35.57477Z"/><path d="M26.09334,21.7979H7.79681a.15335.15335,0,0,0-.105.26079L10.00031,24.434a5.01317,5.01317,0,0,1,3.40427-1.33952h7.01468a5.01608,5.01608,0,0,1,3.43967,1.37132l2.33939-2.40712A.15336.15336,0,0,0,26.09334,21.7979Z"/><path d="M26.54033,22.47884l-2.30848,2.37532A5.32705,5.32705,0,0,1,25.53368,28.357v7.21778a5.32705,5.32705,0,0,1-1.30183,3.50283l2.30848,2.37532a.148.148,0,0,0,.25345-.108v-18.758A.148.148,0,0,0,26.54033,22.47884Z"/><path d="M26.19832,41.87307,23.85893,39.466a5.01608,5.01608,0,0,1-3.43967,1.37132H13.40458a5.01317,5.01317,0,0,1-3.40427-1.33952L7.69184,41.87307a.15335.15335,0,0,0,.105.26079H26.09334A.15336.15336,0,0,0,26.19832,41.87307Z"/><path d="M63.254,19H.746A.75706.75706,0,0,0,0,19.76763V44.23237A.75706.75706,0,0,0,.746,45H63.254A.75706.75706,0,0,0,64,44.23237V19.76763A.75706.75706,0,0,0,63.254,19Zm-.33169,21.67573a.42853.42853,0,0,1-.42228.43451H29.53731a.42852.42852,0,0,0-.42228.4345v1.924a.42853.42853,0,0,1-.42228.43451H5.13109a.42853.42853,0,0,1-.42228-.43451V20.52826a.42853.42853,0,0,1,.42228-.43451H28.69275a.42853.42853,0,0,1,.42228.43451v5.74852a.42853.42853,0,0,0,.42228.43451H62.5a.42852.42852,0,0,1,.42228.4345Z"/><path d="M40.257,30.60105v9.96326h9.68287V30.60105Zm4.84144,8.011a3.02939,3.02939,0,1,1,3.02935-3.02942A3.02943,3.02943,0,0,1,45.09845,38.6121Z"/><path d="M51.001,30.60108v9.96326H60.684V30.60108Zm4.84143,8.01105a3.02939,3.02939,0,1,1,3.02942-3.02942A3.02938,3.02938,0,0,1,55.84246,38.61213Z"/><g class="cls-1"><path d="M5.13086,43.92578a.44817.44817,0,0,1-.44141-.4541V20.53076a.44891.44891,0,0,1,.44141-.45459H28.69238a.4491.4491,0,0,1,.44239.45459V26.2793a.4092.4092,0,0,0,.40234.41455H62.5a.44891.44891,0,0,1,.44141.45459V40.67871a.44817.44817,0,0,1-.44141.4541H29.53711a.40963.40963,0,0,0-.40234.415v1.92383a.44836.44836,0,0,1-.44239.4541ZM7.70605,41.8877a.13449.13449,0,0,0-.02636.14843.12583.12583,0,0,0,.11719.0791H26.09375a.12675.12675,0,0,0,.11719-.08007.13342.13342,0,0,0-.02735-.14746l-2.33886-2.40723A4.91669,4.91669,0,0,1,20.419,40.8584H13.4043A5.04537,5.04537,0,0,1,10.001,39.52734Zm-.52636-19.501a.13033.13033,0,0,0-.12989.13281V41.41406a.13034.13034,0,0,0,.12989.13282L9.6084,39.10156a5.22965,5.22965,0,0,1-1.33789-3.52539V28.35791A5.34844,5.34844,0,0,1,9.6084,24.80566L7.26855,22.42578Zm19.46484.06836a.12142.12142,0,0,0-.08984.03906l-2.3086,2.37549a5.23094,5.23094,0,0,1,1.30664,3.48828v7.21826a5.35477,5.35477,0,0,1-1.30664,3.51563l2.3086,2.34863a.40151.40151,0,0,0,.09375.01269c.08691,0,.126-.04394.126-.10742V22.58789A.13.13,0,0,0,26.64453,22.45508Zm24.376,18.11035,9.66308-.01953-.01953-9.94385-9.64355.02Zm-10.74414,0,9.66308-.01953-.01953-9.94385-9.64355.02ZM13.4043,23.66162a4.63731,4.63731,0,0,0-4.56446,4.69629v7.21826a4.63762,4.63762,0,0,0,4.56446,4.69629H20.419a4.63762,4.63762,0,0,0,4.56445-4.69629V28.35791A4.6373,4.6373,0,0,0,20.419,23.66162Zm37.61621,6.39453,9.66308-.02-.01953-1.75439-9.64355.02Zm-10.74414,0,9.66308-.02-.01953-1.75439-9.64355.02ZM20.419,23.07568a5.0412,5.0412,0,0,1,3.4541,1.37647l2.31054-2.40625a.1333.1333,0,0,0,.02735-.14746.12556.12556,0,0,0-.11719-.07959H7.79688a.12583.12583,0,0,0-.11719.0791.1344.1344,0,0,0,.02636.14844l2.3086,2.37451a4.92143,4.92143,0,0,1,3.38965-1.34522Z"/><path d="M21.55469,32.5332a.56637.56637,0,0,1,0-1.13232h1.59179a.5664.5664,0,0,1,0,1.13232Z"/><path d="M10.67773,32.5332a.5664.5664,0,0,1,0-1.13232h1.5918a.5664.5664,0,0,1,0,1.13232Z"/><path d="M16.91211,38.94727a.55842.55842,0,0,1-.55078-.56543v-1.6377a.55049.55049,0,1,1,1.10058,0v1.6377A.5576.5576,0,0,1,16.91211,38.94727Z"/><path d="M45.09863,38.63281A3.04907,3.04907,0,1,1,48.14746,35.584,3.05163,3.05163,0,0,1,45.09863,38.63281Z"/><path d="M16.91211,27.75586a.55916.55916,0,0,1-.55078-.56592V25.55225a.55051.55051,0,1,1,1.10058,0v1.63769A.55834.55834,0,0,1,16.91211,27.75586Z"/><path d="M55.84277,38.63281A3.04907,3.04907,0,1,1,58.8916,35.584,3.05162,3.05162,0,0,1,55.84277,38.63281Z"/></g></svg>