<svg id="Layer_1" data-name="Layer 1" xmlns="http://www.w3.org/2000/svg" viewBox="0 0 64 64"><defs><style>.cls-1{opacity:0.5;}</style></defs><path d="M35.2642,36.27327A3.26422,3.26422,0,1,1,32,33.00905,3.26424,3.26424,0,0,1,35.2642,36.27327Zm28.71436-2.19745c-.18732,7.49982-3.14539,15.71753-6.24518,15.27045-2.31079-.33332-4.35083-1.52082-6.43262-13.6247l-.14569-1.34369A1.30158,1.30158,0,0,0,49.854,33.07582c-.1145,0-5.7976-.64594-7.005,3.14575a60.391,60.391,0,0,0-1.79035,7.16651l-2.22644,9.22418C37.95213,56.3008,36.4354,62.926,32.021,63.007l-.00037.00165a.037.037,0,0,0-.01367,0l-.00037-.00165h-.0133l-.00037.00165a.037.037,0,0,0-.01367,0l-.00037-.00165c-4.41437-.081-5.931-6.70617-6.81109-10.39471l-2.22651-9.22418A60.38971,60.38971,0,0,0,21.151,36.22157c-1.20734-3.79169-6.8905-3.14575-7.00494-3.14575a1.30163,1.30163,0,0,0-1.30115,1.30206l-.14569,1.34369c-2.08173,12.10388-4.12183,13.29138-6.43262,13.6247C3.16679,49.79335.20872,41.57564.02146,34.07582A53.517,53.517,0,0,1,.68028,23.65108c.37408-2.06458.04931-3.72065.559-5.69989,1.413-6.22492,6.02954-9.27735,12.023-10.16077.71319-.14124,2.90753-.4,4.19891-.66711.84692-.17518.915-1.14643,1.16779-2.05884C18.89866,3.10872,26.01744.92653,32,.99336,37.98252.92653,45.1013,3.10872,45.371,5.06447c.25287.91241.32086,1.88366,1.16779,2.05884,1.29138.26708,3.48572.52587,4.19891.66711,5.99341.88342,10.61,3.93585,12.023,10.16077.50971,1.97924.18494,3.63531.559,5.69989A53.51654,53.51654,0,0,1,63.97856,34.07582ZM16.03929,19.27669a.15923.15923,0,0,0-.15619-.15619H12.98985a.16094.16094,0,0,1-.15619-.16394V16.06911a.16544.16544,0,0,0-.164-.16H9.33518a.16285.16285,0,0,0-.164.16v2.88745a.15669.15669,0,0,1-.15619.15619H6.12565a.16086.16086,0,0,0-.15619.16394v3.33453a.15668.15668,0,0,0,.15619.15619H9.015a.16351.16351,0,0,1,.15619.164v2.89325a.15749.15749,0,0,0,.15619.1601h3.34229a.16551.16551,0,0,0,.15619-.1601V22.93141a.161.161,0,0,1,.164-.15625h2.88934a.1609.1609,0,0,0,.15619-.16394ZM29.428,22.81715A2.572,2.572,0,1,0,32,20.24513,2.572,2.572,0,0,0,29.428,22.81715Zm9.78058,13.45606A7.20856,7.20856,0,1,0,32,43.48176,7.20853,7.20853,0,0,0,39.20854,36.27321ZM51.97648,14.357a2.00461,2.00461,0,1,0,2.00464-2.00464A2.00466,2.00466,0,0,0,51.97648,14.357Zm-4.8667,7.9975a2.62927,2.62927,0,1,0-2.62927,2.62933A2.62926,2.62926,0,0,0,47.10978,22.35445Zm4.68561,4.87292a2.62928,2.62928,0,1,0-2.62927,2.62927A2.6293,2.6293,0,0,0,51.79539,27.22737Zm.25446-8.98926a2.00461,2.00461,0,1,0-2.00464,2.00464A2.00462,2.00462,0,0,0,52.04985,18.23811Zm4.18579,3.928A2.00461,2.00461,0,1,0,54.231,24.17073,2.00466,2.00466,0,0,0,56.23564,22.16609Zm3.84051-3.928a2.00461,2.00461,0,1,0-2.00464,2.00464A2.00461,2.00461,0,0,0,60.07615,18.23811Z"/><path class="cls-1" d="M16.03537,22.61124a.1609.1609,0,0,1-.15619.16394H12.98984a.161.161,0,0,0-.164.15625v2.89325a.16551.16551,0,0,1-.15619.1601H9.32737a.15748.15748,0,0,1-.15619-.1601V22.93143a.16351.16351,0,0,0-.15619-.164H6.12564a.15668.15668,0,0,1-.15618-.15619V19.27671a.16086.16086,0,0,1,.15618-.16394H9.015a.15669.15669,0,0,0,.15619-.15619V16.06913a.16284.16284,0,0,1,.164-.16h3.33447a.16544.16544,0,0,1,.164.16v2.88745a.16094.16094,0,0,0,.15619.16394h2.89325a.15923.15923,0,0,1,.15619.15619Zm13.39261.20593A2.572,2.572,0,1,0,32,20.24515,2.572,2.572,0,0,0,29.428,22.81717ZM51.97647,14.357a2.00461,2.00461,0,1,0,2.00464-2.00464A2.00466,2.00466,0,0,0,51.97647,14.357Zm-4.86669,7.9975A2.62928,2.62928,0,1,0,44.4805,24.9838,2.62927,2.62927,0,0,0,47.10978,22.35447Zm4.6856,4.87292a2.62927,2.62927,0,1,0-2.62927,2.62927A2.62929,2.62929,0,0,0,51.79538,27.22739Zm.25446-8.98926a2.00461,2.00461,0,1,0-2.00464,2.00464A2.0046,2.0046,0,0,0,52.04984,18.23813Zm4.18579,3.928A2.00461,2.00461,0,1,0,54.231,24.17075,2.00466,2.00466,0,0,0,56.23563,22.16611Zm3.84051-3.928a2.00461,2.00461,0,1,0-2.00463,2.00464A2.0046,2.0046,0,0,0,60.07614,18.23813ZM39.20856,36.27321A7.20856,7.20856,0,1,1,32,29.06465,7.20856,7.20856,0,0,1,39.20856,36.27321Zm-3.94434.00006A3.26422,3.26422,0,1,0,32,39.53749,3.26419,3.26419,0,0,0,35.26422,36.27327ZM58.24178,9.46319a.53837.53837,0,0,0-.26123-.42768C55.42665,7.54,52.046,6.94341,49.1064,6.48724c-.793-.12305-1.60547-.249-2.439-.39991l-1.09733-.20475.00143.00178c.16016.61064.37111,1.12457.96477,1.24735,1.29137.2671,3.48573.5259,4.1989.66713a16.35005,16.35005,0,0,1,7.35037,2.78848ZM5.93145,10.56658A16.35014,16.35014,0,0,1,13.28182,7.7781c.71317-.14123,2.90754-.4,4.19891-.66713.59366-.12277.80461-.63671.96476-1.24734l.00144-.00178L17.3496,6.0666c-.8335.15088-1.646.27685-2.439.3999C11.971,6.92268,8.59038,7.51929,6.03649,9.01478a.53833.53833,0,0,0-.26123.42767Z"/></svg>