<svg id="Layer_1" data-name="Layer 1" xmlns="http://www.w3.org/2000/svg" viewBox="0 0 64 64"><defs><style>.cls-1{opacity:0.5;}</style></defs><path d="M16.38315,12.23273,7.758,13.7614l.14445-.99667c.8997-1.11581,3.63644-1.80171,4.67992-1.92707a8.83289,8.83289,0,0,1,3.34942.13762c.32114.06121.32114.24473.32114.24473ZM4.64476,52.59616m-.02991-.02759s1.42083.54176,2.582-3.81269A71.23527,71.23527,0,0,1,14.786,31.46265c2.78831-4.18259,4.66454-5.5192,5.28985-7.3225a2.2909,2.2909,0,0,0,.08257-1.03139,4.51808,4.51808,0,0,0,4.37734,2.98074l14.91656.00195h.03906a4.49062,4.49062,0,0,0,4.352-3.00338,2.296,2.296,0,0,0,.08074,1.05208c.62531,1.8033,2.50154,3.13991,5.28985,7.3225a71.23527,71.23527,0,0,1,7.58913,17.29323c1.1612,4.35445,2.582,3.81269,2.582,3.81269l-.03412.02765-.00183.00042c-.90348.145-3.40074.54762-3.97643.64045-.36081.01275-.51387-.17638-.76177-.57722A66.48112,66.48112,0,0,1,51.55984,45.64c-1.49114-3.9688-1.927-6.17111-4.97817-7.22643a7.48176,7.48176,0,0,0-1.4453-.29819c-.72277.02563-1.7964.323-2.51075.34146-2.44936.04925-3.44127-.09356-7.66322-.04894l-.00025.00567s-1.27222-.00268-2.96517-.00439c-1.693.00171-2.96518.00439-2.96518.00439l-.00024-.00567c-4.22025-.04462-5.21533.09819-7.66322.04894-.71771-.0188-1.785-.3154-2.51075-.34146a7.48176,7.48176,0,0,0-1.4453.29819c-3.05116,1.05532-3.487,3.25763-4.97817,7.22643A66.48112,66.48112,0,0,1,9.383,52.65987c-.24827.40005-.4006.59089-.76177.57722ZM21.0278,28.1128a3.71922,3.71922,0,1,0,4.375,4.375A3.72234,3.72234,0,0,0,21.0278,28.1128Zm12.60294,7.07246a.38236.38236,0,0,0-.38235-.38235H30.73874a.38235.38235,0,0,0,0,.7647h2.50965A.38236.38236,0,0,0,33.63074,35.18526Zm7.88335-7.07246a3.71922,3.71922,0,1,0,4.375,4.375A3.72235,3.72235,0,0,0,41.51409,28.1128Zm6.11915-15.88007,8.62517,1.52867-.14446-.99667c-.89969-1.11581-3.63644-1.80171-4.67992-1.92707a8.83281,8.83281,0,0,0-3.34941.13762c-.32114.06121-.32114.24473-.32114.24473Z"/><path class="cls-1" d="M19.47542,15.21977a3.62939,3.62939,0,0,1,.47127-3.13465,1.53336,1.53336,0,0,1,.52522-.359c2.15025-.587,7.07416-.48494,11.49709-.48469v.0014c4.42292-.00024,9.34683-.10229,11.49708.4847a1.53333,1.53333,0,0,1,.52522.359,3.62937,3.62937,0,0,1,.47127,3.13466l-.693,3.30114-.3193,1.48619c-.07324.34567-.1411.68011-.20555.99795-.13719.67816-.25876,1.28259-.39449,1.77034-.64252,2.30642-3.29706,2.28494-3.43718,2.31668l-14.88813-.00141c-.14012-.03173-2.79465-.01025-3.43717-2.31667-.13573-.48775-.2573-1.09219-.3945-1.77034-.06444-.31785-.13231-.65229-.20554-.998l-.31931-1.48619Zm.594,8.92309c-.62531,1.80329-2.50153,3.1399-5.28985,7.32249A71.23527,71.23527,0,0,0,7.19044,48.75858c-1.1612,4.35445-2.582,3.81269-2.582,3.81269l.035.02838-.00506-.00079c-.53639-.08611-1.65976-.49349-2.92411-2.29965C-.05222,47.7757-.00633,41.031-.00633,41.031l.01-.00171a50.70754,50.70754,0,0,1,.70117-8.46362A61.1302,61.1302,0,0,1,6.6081,14.26341l.06518-.09245c.24632-.30131.72766-.30747,1.06765-.40652l8.62877-1.52806a1.82012,1.82012,0,0,1,1.73195,1.4381l2.028,9.18914A2.35941,2.35941,0,0,1,20.06942,24.14286ZM10.34737,18.6878s.03119.82591.08783,1.38861l.01592.25113a.93176.93176,0,0,0,.31223.66351c.28885.33884.98971,1.00052.98971,1.00052a.64566.64566,0,0,0,.62214,0s.70092-.66168.98977-1.00052a.93193.93193,0,0,0,.31217-.66351l.01593-.25113c.05663-.5627.08782-1.38861.08782-1.38861a.91387.91387,0,0,0-.7838-.86765,8.18047,8.18047,0,0,0-.933-.0841,8.18029,8.18029,0,0,0-.93295.0841A.91388.91388,0,0,0,10.34737,18.6878Zm-.26242,5.61257c.33883-.28885,1.00051-.98971,1.00051-.98971a.64578.64578,0,0,0,0-.6222s-.66168-.70086-1.00057-.98971a.93154.93154,0,0,0-.66345-.31223l-.25114-.01586c-.56269-.05664-1.3886-.08783-1.3886-.08783a.91389.91389,0,0,0-.86766.78381,8.18256,8.18256,0,0,0-.0841.933,8.18017,8.18017,0,0,0,.0841.9329.91376.91376,0,0,0,.86766.7838s.82591-.03113,1.3886-.08782l.25114-.01587A.93178.93178,0,0,0,10.08495,24.30037Zm3.72792,2.92569s-.03119-.82585-.08782-1.38854l-.01587-.2512a.93154.93154,0,0,0-.31223-.66345c-.28885-.33889-.98971-1.00057-.98971-1.00057a.64578.64578,0,0,0-.6222,0s-.70086.66168-.98971,1.00057a.93165.93165,0,0,0-.31223.66345l-.01586.25114c-.05664.56269-.08783,1.3886-.08783,1.3886a.91373.91373,0,0,0,.78381.86766,8.18088,8.18088,0,0,0,.93289.08416,8.1807,8.1807,0,0,0,.933-.08416A.91371.91371,0,0,0,13.81287,27.22606Zm3.48545-4.22647a8.18029,8.18029,0,0,0-.0841-.933.91383.91383,0,0,0-.86765-.78381s-.82592.03119-1.38861.08783l-.25113.01586a.93174.93174,0,0,0-.66351.31223c-.33884.28885-1.00052.98971-1.00052.98971a.64578.64578,0,0,0,0,.6222s.66168.70086,1.00058.98971a.9315.9315,0,0,0,.66345.31223l.25113.01587c.56269.05669,1.38861.08782,1.38861.08782a.91382.91382,0,0,0,.86765-.7838A8.1779,8.1779,0,0,0,17.29832,22.99959Zm.5511-6.50268L17.57008,15.082a.72988.72988,0,1,0-1.43211.28275l.27933,1.41491a.72988.72988,0,1,0,1.43212-.28275ZM62.27291,50.299c-1.26435,1.80617-2.38772,2.21354-2.9241,2.29965l-.00507.0008.035-.02838s-1.42083.54176-2.582-3.81269A71.2355,71.2355,0,0,0,49.20755,31.4651c-2.78831-4.18259-4.66454-5.51919-5.28985-7.32249a2.35909,2.35909,0,0,1-.06017-1.27917l2.02794-9.1892a1.8203,1.8203,0,0,1,1.73519-1.43871H47.621l8.625,1.52726.00018.0014c.34.09905.82134.10522,1.06765.40652l.06518.09246a61.12979,61.12979,0,0,1,5.90331,18.30229,50.70763,50.70763,0,0,1,.70117,8.46362l.01.00171S64.03934,47.77546,62.27291,50.299ZM46.03457,16.51613a.72988.72988,0,1,0,1.43211.28275L47.746,15.384a.72988.72988,0,1,0-1.43212-.28275Zm.7019,4.4402a2.0752,2.0752,0,1,0,2.52558,2.5257A2.05944,2.05944,0,0,0,46.73647,20.95633ZM51.42389,25.663a2.07523,2.07523,0,1,0,2.52564,2.5257A2.05946,2.05946,0,0,0,51.42389,25.663Zm.00019-9.41342A2.07517,2.07517,0,1,0,53.94966,18.775,2.05941,2.05941,0,0,0,51.42408,16.24962Zm4.68681,4.70683a2.0752,2.0752,0,1,0,2.526,2.52588A2.05971,2.05971,0,0,0,56.11089,20.95645Z"/></svg>