<svg id="Layer_1" data-name="Layer 1" xmlns="http://www.w3.org/2000/svg" viewBox="0 0 64 64"><defs><style>.cls-1{opacity:0.5;}</style></defs><path class="cls-1" d="M15.43014,24.12663a.29147.29147,0,0,0-.29149.29149V26.02a1.67184,1.67184,0,0,1-3.34368,0v-1.6019a.29147.29147,0,0,0-.29149-.29149H9.90158a1.67184,1.67184,0,0,1,0-3.34368h1.6019a.29147.29147,0,0,0,.29149-.29149v-1.6019a1.67184,1.67184,0,0,1,3.34368,0v1.6019a.29147.29147,0,0,0,.29149.29149H17.032a1.67184,1.67184,0,0,1,0,3.34368Zm9.8031,7.53571A3.62562,3.62562,0,1,0,21.60765,35.288,3.6256,3.6256,0,0,0,25.23324,31.66234Zm.8592-13.80452a.96688.96688,0,0,0-.96686-.96686H23.63506a.96683.96683,0,1,0,0,1.93366h1.49052A.96682.96682,0,0,0,26.09244,17.85782Zm2.34789,4.71836a1.24157,1.24157,0,1,0-1.24156,1.24157A1.24159,1.24159,0,0,0,28.44033,22.57618Zm5.69914,9.02244A2.13507,2.13507,0,1,0,32.0044,33.7337,2.135,2.135,0,0,0,34.13947,31.59862Zm3.8865-9.02244a1.2416,1.2416,0,1,0-1.24156,1.24157A1.24159,1.24159,0,0,0,38.026,22.57618Zm.83675-3.76163H40.3533a.96683.96683,0,0,0,0-1.93366H38.86272a.96683.96683,0,0,0,0,1.93366Zm7.03665,12.84779A3.62562,3.62562,0,1,0,42.27378,35.288,3.6256,3.6256,0,0,0,45.89937,31.66234Zm2.3131-9.20755A2.01423,2.01423,0,1,0,46.19824,24.469,2.01423,2.01423,0,0,0,48.21247,22.45479Zm4.41138,4.34973a2.01423,2.01423,0,1,0-2.01423,2.01429A2.01424,2.01424,0,0,0,52.62385,26.80452Zm0-8.66119a2.01423,2.01423,0,1,0-2.01423,2.01423A2.01425,2.01425,0,0,0,52.62385,18.14333ZM56.914,22.45479A2.01423,2.01423,0,1,0,54.89978,24.469,2.01424,2.01424,0,0,0,56.914,22.45479ZM13.96738,11.26487a15.60358,15.60358,0,0,0-3.59546,1.269,2.96419,2.96419,0,0,0-1.72741,2.23828c.07623-.07825,2.91021-2.939,9.84124-2.94617C18.19614,10.25139,13.96738,11.26487,13.96738,11.26487Zm31.55125.56828c6.931.00714,9.765,2.86792,9.84125,2.94617A2.96419,2.96419,0,0,0,53.63246,12.541a15.60324,15.60324,0,0,0-3.59546-1.269S45.80824,10.25857,45.51863,11.83315Z"/><path d="M63.90973,43.84525C62.17,31.30728,60.92634,20.52658,55.3584,14.77933l-.0003-.00177c-.08923-.09131-2.925-2.93726-9.83948-2.9444L18.48578,11.826c-6.84851.00708-9.69189,2.79541-9.83227,2.93744l-.003.01593C3.07465,20.54715,1.84687,31.27469.09876,43.84512-.90216,52.32321,6.122,54.11405,9.90839,52.46634a7.24407,7.24407,0,0,0,3.32648-3.81891c.60174-1.56634,2.394-6.81647,2.91772-7.602,1.45685-2.18518,2.41944-1.94391,4.955-2.15521H42.90119c2.53564.2113,3.49823-.03,4.95508,2.15521.52368.78552,2.31592,6.03565,2.91778,7.602A6.41034,6.41034,0,0,0,57.43647,52.998C59.34974,52.80777,64.77363,51.61075,63.90973,43.84525ZM15.43018,24.12668a.29142.29142,0,0,0-.2915.29144v1.60193a1.67185,1.67185,0,0,1-3.34369,0V24.41812a.29143.29143,0,0,0-.29151-.29144H9.90162a1.67185,1.67185,0,0,1,0-3.34369h1.60186a.29148.29148,0,0,0,.29151-.2915V18.88956a1.67185,1.67185,0,0,1,3.34369,0v1.60193a.29148.29148,0,0,0,.2915.2915h1.60187a1.67185,1.67185,0,0,1,0,3.34369ZM21.60767,35.288a3.62565,3.62565,0,1,1,3.62555-3.62561A3.62565,3.62565,0,0,1,21.60767,35.288Zm3.518-16.46338H23.63508a.96683.96683,0,1,1,0-1.93366h1.49054a.96683.96683,0,1,1,0,1.93366Zm2.07318,4.99316a1.24161,1.24161,0,1,1,1.24157-1.24158A1.24159,1.24159,0,0,1,27.1988,23.81778Zm4.8056,9.916a2.13508,2.13508,0,1,1,2.13507-2.13508A2.135,2.135,0,0,1,32.0044,33.73374Zm4.78-9.916A1.24161,1.24161,0,1,1,38.026,22.5762,1.2416,1.2416,0,0,1,36.78443,23.81778Zm1.11151-5.97a.96682.96682,0,0,1,.9668-.96686h1.49054a.96683.96683,0,1,1,0,1.93366H38.86274A.96673.96673,0,0,1,37.89594,17.84775ZM42.27381,35.288a3.62565,3.62565,0,1,1,3.62555-3.62561A3.62565,3.62565,0,0,1,42.27381,35.288Zm3.92444-10.819a2.01423,2.01423,0,1,1,2.01422-2.01422A2.01422,2.01422,0,0,1,46.19825,24.469Zm4.41137,4.34979a2.01425,2.01425,0,1,1,2.01423-2.01428A2.01424,2.01424,0,0,1,50.60962,28.81882Zm0-8.66126a2.01425,2.01425,0,1,1,2.01423-2.01422A2.01422,2.01422,0,0,1,50.60962,20.15756ZM54.89979,24.469A2.01423,2.01423,0,1,1,56.914,22.45481,2.01423,2.01423,0,0,1,54.89979,24.469Z"/></svg>