<svg id="Layer_1" data-name="Layer 1" xmlns="http://www.w3.org/2000/svg" viewBox="0 0 64 64"><defs><style>.cls-1{opacity:0.5;}</style></defs><path class="cls-1" d="M24.0305,16.70569a1.41781,1.41781,0,1,1-1.42783,1.41778A1.42283,1.42283,0,0,1,24.0305,16.70569ZM18.01808,22.9844a3.73964,3.73964,0,1,0-3.73955,3.71322A3.72646,3.72646,0,0,0,18.01808,22.9844Zm8.95663,7.56572a.40621.40621,0,0,0-.406-.40305H24.079a.40653.40653,0,0,1-.406-.403V27.27426a.40613.40613,0,0,0-.40549-.403H20.88623a.40613.40613,0,0,0-.40549.403V29.744a.40653.40653,0,0,1-.406.403H17.58755a.40457.40457,0,0,0-.406.40305v2.36413a.40456.40456,0,0,0,.406.403h2.48719a.40656.40656,0,0,1,.406.403v2.46983a.4045.4045,0,0,0,.40549.403H23.2675a.40449.40449,0,0,0,.40549-.403V33.72028a.40656.40656,0,0,1,.406-.403h2.48972a.40619.40619,0,0,0,.406-.403Zm1.7467-8.53231a.42377.42377,0,0,0-.42525-.42225H26.58239a.42376.42376,0,0,0-.42525.42225v1.70171a.42377.42377,0,0,0,.42525.42225h1.71377a.42377.42377,0,0,0,.42525-.42225Zm9.73307-3.89434a1.42787,1.42787,0,1,0,1.42783-1.41778A1.42284,1.42284,0,0,0,38.45448,18.12347Zm-1.95233,6.163a1.41781,1.41781,0,1,0-1.42783-1.41777A1.42282,1.42282,0,0,0,36.50215,24.28644Zm7.6248,7.43567a3.73965,3.73965,0,1,0-3.73955,3.71322A3.72645,3.72645,0,0,0,44.127,31.72211Zm2.15631-8.73771a2.37006,2.37006,0,1,0-2.37,2.35331A2.36169,2.36169,0,0,0,46.28326,22.9844Zm5.0314,4.32083a2.37006,2.37006,0,1,0-2.37,2.35331A2.3617,2.3617,0,0,0,51.31466,27.30523Zm0-8.64167a2.37006,2.37006,0,1,0-2.37,2.35332A2.3617,2.3617,0,0,0,51.31466,18.66356Zm5.03139,4.32084a2.37005,2.37005,0,1,0-2.37,2.35331A2.36169,2.36169,0,0,0,56.34605,22.9844Zm-52.958,1.02411c-.56836,2.69635-1.08588,5.543-1.4549,7.70715C.97254,37.349-.63549,47.06039.26447,49.18679c.74768,2.71039,3.04694,5.07465,5.51508,5.07465A5.28722,5.28722,0,0,0,10.23786,51.86c2.17377-3.54809,4.25434-8.07263,4.808-9.14319a2.68711,2.68711,0,0,1,1.19787-1.21563l-.00409-.005C10.72828,35.49911,3.405,24.03506,3.38807,24.00851Zm44.3723,17.50414-.00409.005a2.68719,2.68719,0,0,1,1.19787,1.21564c.55365,1.07056,2.63422,5.59509,4.808,9.14319A5.28722,5.28722,0,0,0,58.22045,54.278c2.46814,0,4.7674-2.36426,5.51508-5.07465.9-2.1264-.70807-11.83783-1.6687-17.47113-.369-2.16412-.88654-5.0108-1.4549-7.70715C60.595,24.05159,53.27172,35.51564,47.76037,41.51265Zm4.06055-31.04713c-2.07794-.6723-7.63531-1.28619-9.28967.04535-.27136-.01154-.53986-.01819-.80365-.01819,0,0-7.29523-.11572-9.7276-.11572s-9.7276.11572-9.7276.11572q-.403,0-.81842.0185V10.513c-1.65082-1.33466-7.21381-.7201-9.293-.04743-2.27661.73663-4.70984,2.57947-5.27045,4.49432a19.063,19.063,0,0,1,5.24469-2.58606c3.42859-1.16125,10.46741-1.27185,10.46741-1.27185l-.00329-.00183c1.44195-.0224,7.27587-.11065,9.40063-.11065,2.11755,0,7.91632.08758,9.38306.11035l-.00379.00213s7.03882.1106,10.46741,1.27185a19.06276,19.06276,0,0,1,5.24469,2.58606C56.53076,13.045,54.09753,11.20215,51.82092,10.46552Z"/><path d="M60.152,21.98069c-.65979-2.87225-1.35315-5.28094-1.94519-6.04742a4.96371,4.96371,0,0,0-1.10779-.96808h-.018a19.06242,19.06242,0,0,0-5.24469-2.58606c-3.42858-1.16126-10.4674-1.27185-10.4674-1.27185l.00378-.00214c-1.46673-.02276-7.2655-.11035-9.38305-.11035-2.12476,0-7.95868.08826-9.40064.11066l.0033.00183s-7.03882.11059-10.46741,1.27185a19.064,19.064,0,0,0-5.24463,2.586v.00006a4.96371,4.96371,0,0,0-1.10779.96808c-.7276.942-1.60846,4.36841-2.39221,8.08459.06866.10742,7.3573,11.50794,12.849,17.48358l.00409.005.34949-.14069a5.4839,5.4839,0,0,1,1.60028-.24756L31.98969,41.058l13.80651.06024a4.6855,4.6855,0,0,1,1.94983.40473l.004-.005c5.51135-5.997,12.8346-17.46106,12.85156-17.48761ZM24.0202,16.711a1.41782,1.41782,0,1,1-1.42785,1.41778A1.4228,1.4228,0,0,1,24.0202,16.711Zm-9.752,9.99194a3.71332,3.71332,0,1,1,3.73956-3.7132A3.72645,3.72645,0,0,1,14.26819,26.70292Zm12.69623,6.21661a.4062.4062,0,0,1-.406.403H24.06866a.40654.40654,0,0,0-.406.403v2.46985a.40449.40449,0,0,1-.40546.403H20.87592a.40445.40445,0,0,1-.40546-.403V33.72556a.40658.40658,0,0,0-.406-.403H17.57721a.40453.40453,0,0,1-.406-.403V30.55546a.40455.40455,0,0,1,.406-.40308h2.48724a.40654.40654,0,0,0,.406-.403V27.27958a.40607.40607,0,0,1,.40546-.403H23.2572a.40611.40611,0,0,1,.40546.403v2.46979a.4065.4065,0,0,0,.406.403h2.48975a.40622.40622,0,0,1,.406.40308Zm1.7467-9.1947a.42377.42377,0,0,1-.42529.42224H26.57208a.42372.42372,0,0,1-.42523-.42224V22.02311a.42373.42373,0,0,1,.42523-.42224h1.71375a.42378.42378,0,0,1,.42529.42224ZM39.872,16.711a1.41782,1.41782,0,1,1-1.42786,1.41778A1.4228,1.4228,0,0,1,39.872,16.711Zm-4.808,6.163a1.42786,1.42786,0,1,1,1.42779,1.41773A1.4228,1.4228,0,0,1,35.064,22.874Zm5.313,12.56665a3.71332,3.71332,0,1,1,3.73956-3.71319A3.72646,3.72646,0,0,1,40.37708,35.44065ZM43.90295,25.343a2.35336,2.35336,0,1,1,2.37-2.35328A2.36169,2.36169,0,0,1,43.90295,25.343Zm5.03138,4.32086a2.35336,2.35336,0,1,1,2.37-2.35333A2.3617,2.3617,0,0,1,48.93433,29.66386Zm0-8.64166a2.35336,2.35336,0,1,1,2.37-2.35334A2.3617,2.3617,0,0,1,48.93433,21.0222Zm5.03143,4.3208a2.35336,2.35336,0,1,1,2.37-2.35328A2.36165,2.36165,0,0,1,53.96576,25.343Z"/></svg>