<svg id="Layer_1" data-name="Layer 1" xmlns="http://www.w3.org/2000/svg" viewBox="0 0 64 64"><defs><style>.cls-1{opacity:0.5;}</style></defs><path class="cls-1" d="M14.44026,16.61688a.23554.23554,0,0,1-.23653.23451H11.07516v3.103a.23554.23554,0,0,1-.23652.23451H8.37482a.23554.23554,0,0,1-.23652-.23451v-3.103H5.00973a.23554.23554,0,0,1-.23653-.23451v-2.4437a.2356.2356,0,0,1,.23653-.23458H8.1383v-3.103a.23555.23555,0,0,1,.23652-.23457h2.46382a.23555.23555,0,0,1,.23652.23457v3.103h3.12857a.2356.2356,0,0,1,.23653.23458Zm6.03422,2.548a2.04972,2.04972,0,1,0-2.04962,2.03291A2.0413,2.0413,0,0,0,20.47448,19.1649Zm5.23123,2.33633A2.04971,2.04971,0,1,0,23.656,23.53407,2.04135,2.04135,0,0,0,25.70571,21.50123ZM35.875,13.567H29.53221a.35791.35791,0,0,0-.253.614l2.02931,1.42249a.36289.36289,0,0,0,.253.10256h2.28413a.3629.3629,0,0,0,.253-.10256L36.128,14.181A.35791.35791,0,0,0,35.875,13.567Zm6.56446,7.93427a2.04972,2.04972,0,1,0-2.04968,2.03284A2.04135,2.04135,0,0,0,42.43948,21.50123Zm5.23117-2.33633A2.04971,2.04971,0,1,0,45.621,21.19781,2.04129,2.04129,0,0,0,47.67065,19.1649Zm11.55613-4.99172a.2356.2356,0,0,0-.23653-.23458H55.86168v-3.103a.23555.23555,0,0,0-.23652-.23457H53.16134a.23555.23555,0,0,0-.23652.23457v3.103H49.79624a.2356.2356,0,0,0-.23652.23458v2.4437a.23554.23554,0,0,0,.23652.23451h3.12858v3.103a.23554.23554,0,0,0,.23652.23451h2.46382a.23554.23554,0,0,0,.23652-.23451v-3.103h3.12857a.23554.23554,0,0,0,.23653-.23451Z"/><path d="M60.35235,29.98323a8.75951,8.75951,0,0,1,.08282-6.40368c.69611-1.65253,1.43756-2.39429,2.38355-4.17566l-.00183-.00159C67.58514,10.32643,56.949.97322,48.57165,6.83937l-.006-.00537-6.338,4.27533H21.77233L15.43432,6.834l-.006.00537C7.04473.97133-3.58381,10.33254,1.1831,19.4023l-.00183.00159c.94616,1.78259,1.68719,2.52228,2.3836,4.17566a8.7578,8.7578,0,0,1,.08265,6.40368C3.12682,31.76107,2.19128,35.05,1.867,36.80843a47.72657,47.72657,0,0,0-.52008,12.713C1.89758,54.52773,2.693,56.10549,2.693,56.10549l.00494-.00556a4.412,4.412,0,0,0,4.00793,2.888,5.22023,5.22023,0,0,0,5.01172-4.82428c.27533-2.63971.673-5.67382.7342-7.88873.05444-1.97205.54541-12.48236.65246-14.76385a3.17,3.17,0,0,1,.98853-2.16907c.94671-1.22486,4.87384-1.0398,5.76123-1.11487a.2305.2305,0,0,1,.23608.21692l.61005,10.89117a.79792.79792,0,0,0,.79944.75006H42.50036a.79794.79794,0,0,0,.7995-.75006l.61005-10.89117a.23058.23058,0,0,1,.23608-.217c.89062.07172,4.813-.10791,5.76117,1.115a3.1695,3.1695,0,0,1,.98859,2.169c.107,2.28149.598,12.7918.6524,14.76385.06122,2.21491.45892,5.249.73425,7.88873a5.22025,5.22025,0,0,0,5.01172,4.82428,4.41206,4.41206,0,0,0,4.00794-2.888l.00494.00556s.79541-1.57776,1.346-6.58405a47.73,47.73,0,0,0-.52-12.713C61.80871,35.05,60.87316,31.76107,60.35235,29.98323ZM14.44024,16.6169a.23551.23551,0,0,1-.23651.2345h-3.1286v3.103a.23551.23551,0,0,1-.23651.23449H8.37481a.2355.2355,0,0,1-.23651-.23449v-3.103H5.0097a.23551.23551,0,0,1-.23651-.2345V14.17318a.23556.23556,0,0,1,.23651-.23456H8.1383v-3.103a.23552.23552,0,0,1,.23651-.23456h2.46381a.23552.23552,0,0,1,.23651.23456v3.103h3.1286a.23556.23556,0,0,1,.23651.23456Zm3.98462,4.58093a2.033,2.033,0,1,1,2.04962-2.03289A2.04136,2.04136,0,0,1,18.42486,21.19783ZM23.656,23.53408a2.03294,2.03294,0,1,1,2.04968-2.03284A2.04122,2.04122,0,0,1,23.656,23.53408ZM36.128,14.181l-2.02929,1.42248a.36283.36283,0,0,1-.253.10254H31.56152a.36275.36275,0,0,1-.253-.10254L29.27923,14.181a.3579.3579,0,0,1,.253-.614H35.875A.35791.35791,0,0,1,36.128,14.181Zm4.26178,9.35309a2.03294,2.03294,0,1,1,2.04969-2.03284A2.04122,2.04122,0,0,1,40.38976,23.53408ZM45.621,21.19783a2.033,2.033,0,1,1,2.04962-2.03289A2.04137,2.04137,0,0,1,45.621,21.19783ZM59.2268,16.6169a.23556.23556,0,0,1-.23657.2345H55.86169v3.103a.23551.23551,0,0,1-.23651.23449H53.16131a.2355.2355,0,0,1-.23651-.23449v-3.103H49.79626a.23556.23556,0,0,1-.23657-.2345V14.17318a.23561.23561,0,0,1,.23657-.23456H52.9248v-3.103a.23552.23552,0,0,1,.23651-.23456h2.46387a.23552.23552,0,0,1,.23651.23456v3.103h3.12854a.23561.23561,0,0,1,.23657.23456Z"/></svg>