<svg id="Layer_1" data-name="Layer 1" xmlns="http://www.w3.org/2000/svg" viewBox="0 0 64 64"><defs><style>.cls-1{opacity:0.5;}</style></defs><path d="M45.899,16.14185c-3.70026.25506-10.94629.727-13.89789.727s-10.19769-.472-13.898-.727C7.19925,14.73871.013,23.275.01273,32,.013,40.725,7.19925,49.26129,18.10318,47.85815c3.70026-.25506,10.94629-.727,13.898-.727s10.19763.472,13.89789.727C56.82358,49.25763,63.98636,40.718,63.98727,32,63.98636,23.282,56.82358,14.74237,45.899,16.14185ZM17.77768,29.79016a.4532.4532,0,0,1-.4527.44989H14.54916a.45356.45356,0,0,0-.45263.45v2.75733a.45129.45129,0,0,1-.45209.44989H10.98953a.45124.45124,0,0,1-.45208-.44989V30.69a.45361.45361,0,0,0-.4527-.45h-2.773a.45133.45133,0,0,1-.45264-.44989V27.15082a.45134.45134,0,0,1,.45264-.45h2.773a.45357.45357,0,0,0,.4527-.44995V23.49365a.45308.45308,0,0,1,.45208-.44995h2.65491a.45312.45312,0,0,1,.45209.44995v2.75727a.45352.45352,0,0,0,.45263.44995H17.325a.45321.45321,0,0,1,.4527.45Zm9.35016-2.7644a1.37087,1.37087,0,1,1-1.37879,1.37085A1.37484,1.37484,0,0,1,27.12784,27.02576Zm1.33691,12.37616L27.34323,42.084a1.34138,1.34138,0,0,1-.729.7229l-2.7005,1.108a1.35253,1.35253,0,0,1-1.02961-.00135l-2.69751-1.11511a1.3415,1.3415,0,0,1-.72705-.72479l-1.11438-2.685a1.33054,1.33054,0,0,1,.00135-1.02374l1.12152-2.68207a1.34145,1.34145,0,0,1,.729-.7229l2.70044-1.108a1.35246,1.35246,0,0,1,1.0296.00134l2.69751,1.11511a1.34142,1.34142,0,0,1,.72712.7248l1.11437,2.68505A1.33037,1.33037,0,0,1,28.46475,39.40192Zm3.47669-9.63446a1.37087,1.37087,0,1,1,1.37878-1.37085A1.37484,1.37484,0,0,1,31.94144,29.76746Zm4.81366-2.73017a1.37087,1.37087,0,1,1-1.37873,1.37085A1.3748,1.3748,0,0,1,36.7551,27.03729Zm8.90057,12.36463L44.53415,42.084a1.34138,1.34138,0,0,1-.729.7229l-2.70051,1.108a1.35251,1.35251,0,0,1-1.0296-.00135l-2.69751-1.11511a1.3415,1.3415,0,0,1-.727-.72479l-1.11438-2.685a1.33049,1.33049,0,0,1,.00135-1.02374L36.659,35.68286a1.34145,1.34145,0,0,1,.729-.7229l2.70044-1.108a1.35246,1.35246,0,0,1,1.0296.00134l2.69751,1.11511a1.3414,1.3414,0,0,1,.72711.7248L45.657,38.37823A1.33041,1.33041,0,0,1,45.65567,39.40192Zm-.20251-8.60517a2.32633,2.32633,0,1,1,2.33972-2.32629A2.333,2.333,0,0,1,45.45316,30.79675Zm6.29492,4.57874a2.32633,2.32633,0,1,1,2.33966-2.3263A2.333,2.333,0,0,1,51.74808,35.37549Zm0-9.30518A2.32633,2.32633,0,1,1,54.08774,23.744,2.333,2.333,0,0,1,51.74808,26.07031Zm6.29486,4.72644a2.32633,2.32633,0,1,1,2.33972-2.32629A2.333,2.333,0,0,1,58.04294,30.79675Z"/><path class="cls-1" d="M17.77768,29.79016a.45317.45317,0,0,1-.45266.44989H14.54917a.45358.45358,0,0,0-.45265.45v2.75731a.45127.45127,0,0,1-.45209.4499H10.98952a.45127.45127,0,0,1-.45209-.4499V30.69a.45359.45359,0,0,0-.45266-.45h-2.773a.45134.45134,0,0,1-.45265-.44989V27.15084a.45136.45136,0,0,1,.45265-.45h2.773a.45355.45355,0,0,0,.45266-.45V23.49368a.4531.4531,0,0,1,.45209-.45h2.65491a.4531.4531,0,0,1,.45209.45v2.75725a.45354.45354,0,0,0,.45265.45H17.325a.45319.45319,0,0,1,.45266.45Zm7.9714-1.39354a1.37877,1.37877,0,1,0,1.37875-1.37086A1.37482,1.37482,0,0,0,25.74908,28.39662Zm2.717,9.9816-1.1144-2.685a1.34137,1.34137,0,0,0-.72708-.72483L23.9271,33.8533a1.35237,1.35237,0,0,0-1.0296-.00135L20.19705,34.96a1.3414,1.3414,0,0,0-.729.72291L18.34653,38.365a1.33048,1.33048,0,0,0-.00136,1.0237l1.11441,2.685a1.34137,1.34137,0,0,0,.72707.72482l2.69752,1.1151a1.35241,1.35241,0,0,0,1.0296.00135l2.70046-1.108a1.34148,1.34148,0,0,0,.729-.72292l1.12152-2.68208A1.33048,1.33048,0,0,0,28.4661,38.37822Zm4.85412-9.9816a1.37877,1.37877,0,1,0-1.37875,1.37085A1.37482,1.37482,0,0,0,33.32022,28.39662Zm2.05614.01154a1.37877,1.37877,0,1,0,1.37875-1.37086A1.37483,1.37483,0,0,0,35.37636,28.40816ZM45.657,38.37822l-1.1144-2.685a1.34137,1.34137,0,0,0-.72708-.72483L41.118,33.8533a1.35237,1.35237,0,0,0-1.0296-.00135L37.388,34.96a1.34143,1.34143,0,0,0-.729.72291L35.53744,38.365a1.33048,1.33048,0,0,0-.00135,1.0237l1.1144,2.685a1.34138,1.34138,0,0,0,.72708.72482l2.69752,1.1151a1.35241,1.35241,0,0,0,1.0296.00135l2.70045-1.108a1.34145,1.34145,0,0,0,.729-.72292l1.12152-2.68208A1.33048,1.33048,0,0,0,45.657,38.37822Zm2.13586-9.90775a2.33973,2.33973,0,1,0-2.3397,2.3263A2.333,2.333,0,0,0,47.79288,28.47047Zm6.29489,4.57875a2.33973,2.33973,0,1,0-2.33969,2.32631A2.333,2.333,0,0,0,54.08777,33.04922Zm0-9.30521a2.33973,2.33973,0,1,0-2.33969,2.3263A2.333,2.333,0,0,0,54.08777,23.744Zm6.2949,4.72646a2.33973,2.33973,0,1,0-2.3397,2.3263A2.333,2.333,0,0,0,60.38267,28.47047ZM18.06361,16.14591v-.03443l.00232-.00811-.00232-.001V16.1l-.00378.00079-.00318-.00134.007.00055c-.2417-.36267-.75451-.59845-1.71624-.59845-3.0188,0-7.10541,1.2539-8.752,2.74432A15.88686,15.88686,0,0,1,18.06361,16.14591Zm8.51013.52539c-.48944-1.16382-3.20245-1.26319-3.93182-.22931v.00635c1.293.08056,2.641.16009,3.93182.22876Zm29.83088,1.5722c-1.64643-1.49029-5.73334-2.70324-8.75238-2.70324-.96174,0-1.47455.23577-1.71625.59845l.007-.00055-.00318.00134-.00378-.00079v.00244l-.00232.001.00122.00415A15.90544,15.90544,0,0,1,56.40462,18.2435ZM41.35768,16.442c-.72937-1.03388-3.44238-.93451-3.93182.22931v.00592c1.29077-.0686,2.63879-.14813,3.93182-.2287Z"/></svg>