<svg id="Layer_1" data-name="Layer 1" xmlns="http://www.w3.org/2000/svg" viewBox="0 0 64 64"><path d="M12.25,18.66113A5.48817,5.48817,0,0,0,6.84766,24.084,5.4014,5.4014,0,1,0,12.25,18.66113Zm0,10.08789a4.64117,4.64117,0,0,1-3.26953-7.94629A4.59735,4.59735,0,0,1,12.25,19.41113a4.669,4.669,0,0,1,0,9.33789Zm11.44531,5.52735a.54722.54722,0,0,0-.54687-.54688H20.49707a.55181.55181,0,0,0-.55176.55176V36.375H17.85645a.5489.5489,0,0,0-.54786.54785v2.669a.54723.54723,0,0,0,.54688.54687h2.08984v2.09766a.54806.54806,0,0,0,.54688.54785h2.65918a.5489.5489,0,0,0,.54785-.54785V40.13867h2.08887a.54806.54806,0,0,0,.54785-.54687v-2.666a.55139.55139,0,0,0-.55078-.55078H23.69531ZM25.58594,37.125v2.26367H23.49609a.54723.54723,0,0,0-.54687.54688v2.09863H20.69531V39.93652a.5489.5489,0,0,0-.54785-.54785H18.05859V37.125h2.08985a.54722.54722,0,0,0,.54687-.54688V34.47949h2.25v2.09766a.54806.54806,0,0,0,.54688.54785Zm6.35351-14.55957A1.8921,1.8921,0,1,0,33.82617,24.458,1.89071,1.89071,0,0,0,31.93945,22.56543Zm0,3.03418a1.1421,1.1421,0,1,1,1.13672-1.1416A1.13906,1.13906,0,0,1,31.93945,25.59961Zm12.044,4.917a2.91457,2.91457,0,0,0,.6875-.083,2.776,2.776,0,0,0,2.02148-2.02343,2.80758,2.80758,0,0,0-3.40429-3.418,2.77475,2.77475,0,0,0-2.02051,2.02343,2.819,2.819,0,0,0,.7373,2.68262A2.78508,2.78508,0,0,0,43.9834,30.5166Zm-1.98731-3.32324v-.001a2.04563,2.04563,0,0,1,1.46973-1.47168,2.17022,2.17022,0,0,1,.50879-.06152,2.03762,2.03762,0,0,1,1.44922.59863,2.07467,2.07467,0,0,1,.54,1.97461,2.0442,2.0442,0,0,1-3.42871.93555A2.07654,2.07654,0,0,1,41.99609,27.19336Zm-.44726,6.23535a4.934,4.934,0,0,0-2.69629,8.35938,4.86891,4.86891,0,0,0,3.46777,1.43945,5.22642,5.22642,0,0,0,.77637-.05957,4.93076,4.93076,0,0,0-1.54785-9.73926Zm4.88672,5.542h-.001a4.16582,4.16582,0,1,1-4.77246-4.7998,4.36254,4.36254,0,0,1,.66309-.05176,4.12792,4.12792,0,0,1,2.93847,1.21875A4.17972,4.17972,0,0,1,46.43555,38.9707Zm1.07031-19.03125h.04a2.29919,2.29919,0,0,0,1.14844-.35156,3.82142,3.82142,0,0,1,.71972-.31934c.11524-.03515.22364-.07226.33106-.10937.168-.05762.331-.11426.51465-.1582a7.51365,7.51365,0,0,1,1.02832-.10059,1.99376,1.99376,0,0,0,1.94921-1.97656,1.96191,1.96191,0,0,0-.79882-1.5918,4.7888,4.7888,0,0,0-3.9795-.40039,5.79832,5.79832,0,0,0-2.46582,1.75879,1.9978,1.9978,0,0,0-.373,1.87109A1.93652,1.93652,0,0,0,47.50586,19.93945Zm-.92481-2.78418A5.06249,5.06249,0,0,1,48.71,15.63867a4.00178,4.00178,0,0,1,1.30859-.20312,3.51008,3.51008,0,0,1,1.96485.49218,1.227,1.227,0,0,1,.5039.9961,1.25208,1.25208,0,0,1-1.23437,1.22754,8.54315,8.54315,0,0,0-1.166.12011c-.21.04981-.3955.11329-.585.17774-.09961.03516-.20117.06933-.31054.10351a4.52479,4.52479,0,0,0-.85254.375,1.56633,1.56633,0,0,1-.80664.26172,1.20309,1.20309,0,0,1-1.19336-.84277A1.24886,1.24886,0,0,1,46.58105,17.15527Zm4.1045,2.8125a4.123,4.123,0,0,0-2.25586,6.9834,4.07065,4.07065,0,0,0,2.90039,1.20313,4.27928,4.27928,0,0,0,.64746-.04883,4.11982,4.11982,0,0,0-1.292-8.1377Zm3.959,4.61035A3.35705,3.35705,0,1,1,50.79883,20.71a3.50561,3.50561,0,0,1,.53125-.041,3.32628,3.32628,0,0,1,2.37109.98242A3.36962,3.36962,0,0,1,54.64453,24.57812Zm4.11035-5.501a1.96174,1.96174,0,0,0-1.55273-.44336A2.01664,2.01664,0,0,0,55.51758,20.708a2.3308,2.3308,0,0,0,.34765,1.082,3.97206,3.97206,0,0,1,.31836.71875c.03418.1123.07032.21777.10645.32226.05762.17188.11523.33887.16016.53125a7.59883,7.59883,0,0,1,.10058,1.02735,1.99522,1.99522,0,0,0,1.97168,1.958,1.974,1.974,0,0,0,1.58789-.81055,4.81747,4.81747,0,0,0,.39844-3.98438A5.87606,5.87606,0,0,0,58.75488,19.07715Zm.76367,6-.01074.01367a1.22065,1.22065,0,0,1-.98535.50684,1.25376,1.25376,0,0,1-1.22266-1.24317,8.50121,8.50121,0,0,0-.11914-1.16308c-.05078-.21778-.11523-.40723-.18066-.60157-.0332-.09765-.06738-.19629-.10059-.30468a4.67426,4.67426,0,0,0-.373-.84864,1.62454,1.62454,0,0,1-.25879-.76367A1.25189,1.25189,0,0,1,57.30371,19.376a1.49072,1.49072,0,0,1,.18262-.01172,1.23193,1.23193,0,0,1,.80176.2998,5.1409,5.1409,0,0,1,1.51367,2.1377A4.1756,4.1756,0,0,1,59.51855,25.07715Zm3.96357,6.42633s-.42865-4.23316-.58979-6.53418a11.267,11.267,0,0,0-4.91742-10.72076.36243.36243,0,0,0-.02764-.105,7.93622,7.93622,0,0,0-3.28418-3.24511,6.27489,6.27489,0,0,0-4.91016-.25714A52.35,52.35,0,0,0,32,7.86163a52.41762,52.41762,0,0,0-17.72656,2.76831,6.28473,6.28473,0,0,0-4.88086.2685,7.77527,7.77527,0,0,0-3.3457,3.36133.36362.36362,0,0,0-.01447.06353,11.348,11.348,0,0,0-4.88226,9.33c0,.12415.01458.24457.01855.36774-.00165.032-.00873.063-.01013.095-.08014,1.852-.64069,7.38739-.64069,7.38739-.93158,7.019-.53119,17.04773.60163,20.79071,1.13275,3.74261,3.86316,3.80926,3.86316,3.80926a3.14094,3.14094,0,0,0,.46142.03486c5.145,0,5.465-13.48346,5.98651-15.80292a5.00262,5.00262,0,0,1,.294-.91211.74577.74577,0,0,1,.68732-.45667.70556.70556,0,0,1,.64227.40339l.12262.24871A9.85811,9.85811,0,0,1,13.686,40.9635a8.48571,8.48571,0,0,0,7.98755,5.781,8.29472,8.29472,0,0,0,2.60022-.4209,7.9433,7.9433,0,0,0,5.41236-6.504,8.132,8.132,0,0,0-2.35816-7.01025,15.08579,15.08579,0,0,1-1.3161-1.441,2.08169,2.08169,0,0,1-.55365-1.19641.57182.57182,0,0,1,.277-.49543A22.2199,22.2199,0,0,1,32,29.01727a22.16692,22.16692,0,0,1,6.26135.66022.59223.59223,0,0,1,.27741.5354,2.11646,2.11646,0,0,1-.55011,1.15485,15.08745,15.08745,0,0,1-1.31671,1.44183,8.13235,8.13235,0,0,0-2.358,7.01032,7.94359,7.94359,0,0,0,5.4126,6.50384,8.29576,8.29576,0,0,0,2.59992.42084,8.48541,8.48541,0,0,0,7.98767-5.78107,9.85811,9.85811,0,0,1,.50921-1.34479l.12262-.24871a.70558.70558,0,0,1,.64221-.40339.74591.74591,0,0,1,.68738.45667,5.00726,5.00726,0,0,1,.294.91211c.52148,2.31933.84234,15.80292,5.98639,15.80292a3.13362,3.13362,0,0,0,.46148-.03486s2.73047-.06665,3.86322-3.80926C64.01331,48.55121,64.4137,38.52246,63.48212,31.50348Zm-9.17353-19.9a7.111,7.111,0,0,1,2.20465,1.802,11.31684,11.31684,0,0,0-2.928-.94477A20.696,20.696,0,0,0,50.936,11.11633,5.77686,5.77686,0,0,1,54.30859,11.60352Zm-44.56152,0a5.76369,5.76369,0,0,1,3.32861-.49335,20.60779,20.60779,0,0,0-2.70343,1.37616,11.30383,11.30383,0,0,0-2.8753.96936A7.1904,7.1904,0,0,1,9.74707,11.60352ZM62.16266,52.077c-.94879,3.13488-3.08179,3.2727-3.16364,3.27673a.74565.74565,0,0,0-.09179.00787,2.36762,2.36762,0,0,1-.35138.02674c-3.52027,0-4.51526-9.00928-4.94019-12.85645-.12121-1.09784-.2088-1.891-.31409-2.35925a5.767,5.767,0,0,0-.33844-1.04871,1.50242,1.50242,0,0,0-1.375-.90729,1.45888,1.45888,0,0,0-1.31494.82178l-.12256.24866a10.52933,10.52933,0,0,0-.55029,1.4461,7.7028,7.7028,0,0,1-7.27392,5.26142,7.55655,7.55655,0,0,1-2.36548-.38324,7.22221,7.22221,0,0,1-4.90442-5.89679,7.36447,7.36447,0,0,1,2.13983-6.36878,15.62355,15.62355,0,0,0,1.38159-1.51409,2.82806,2.82806,0,0,0,.70777-1.55158,1.3402,1.3402,0,0,0-.624-1.23682l-.00116.00177c-.75879-.4486-4.05877-.77777-6.66052-.77777-2.59955,0-5.89484.32776-6.66034.77478l-.00122-.002a1.31788,1.31788,0,0,0-.6286,1.1817,2.79982,2.79982,0,0,0,.71271,1.6106,15.61545,15.61545,0,0,0,1.381,1.51324,7.36437,7.36437,0,0,1,2.13989,6.36865,7.22208,7.22208,0,0,1-4.90423,5.89692,7.55638,7.55638,0,0,1-2.36567.3833,7.70288,7.70288,0,0,1-7.27392-5.26136,10.52511,10.52511,0,0,0-.55023-1.446l-.12268-.24878a1.45878,1.45878,0,0,0-1.31488-.82172,1.50248,1.50248,0,0,0-1.375.90729,5.7643,5.7643,0,0,0-.338,1.047c-.10571.47-.1933,1.26337-.31451,2.36133-.42468,3.847-1.41931,12.85608-4.94025,12.85608a2.40315,2.40315,0,0,1-.35144-.02674c-.02453-.0036-.05841-.00641-.08319-.00757-.09033-.00433-2.22333-.14215-3.17212-3.277C.80035,48.65057.31226,38.75348,1.2641,31.579c.023-.22687.5636-5.57812.64264-7.41.00287-.02088.00982-.08826.01092-.10932.0011-.02087.00129-.04187.00061-.0628-.00195-.0611-.006-.12171-.01019-.18225-.00366-.05347-.00793-.10688-.00793-.16132A10.63152,10.63152,0,0,1,10.51361,13.2229a.75048.75048,0,0,0,.2522-.09808C15.35083,10.29883,23.28888,8.61163,32,8.61163c8.6792,0,16.602,1.678,21.1936,4.48877a.7485.7485,0,0,0,.26117.09894,10.56266,10.56266,0,0,1,8.69251,11.684.74891.74891,0,0,0-.00311.13843c.16009,2.28619.58746,6.51489.59448,6.58044C63.68774,38.75348,63.19965,48.65057,62.16266,52.077Z"/></svg>