<svg id="Layer_1" data-name="Layer 1" xmlns="http://www.w3.org/2000/svg" viewBox="0 0 64 64"><path d="M36.52148,14.82129a2.80816,2.80816,0,1,0-2.82617-2.80664A2.82038,2.82038,0,0,0,36.52148,14.82129Zm0-4.86621a2.05818,2.05818,0,1,1-2.07617,2.05957A2.07144,2.07144,0,0,1,36.52148,9.95508Zm-2.82617,11.459a2.82721,2.82721,0,1,0,2.82617-2.80859A2.81913,2.81913,0,0,0,33.69531,21.41406Zm4.9043,0a2.07723,2.07723,0,1,1-2.07813-2.05859A2.06939,2.06939,0,0,1,38.59961,21.41406ZM30.12988,9.05176a.3751.3751,0,0,0,.375-.375V8.07812h.60645a.37509.37509,0,0,0,.375-.375V6.40625a.3751.3751,0,0,0-.375-.375h-.60645V5.43457a.3751.3751,0,0,0-.375-.375H28.82617a.3751.3751,0,0,0-.375.375v.59668h-.60644a.3751.3751,0,0,0-.375.375V7.70312a.37509.37509,0,0,0,.375.375h.60644v.59864a.3751.3751,0,0,0,.375.375ZM28.21973,7.32812V6.78125h.60644a.3751.3751,0,0,0,.375-.375V5.80957h.55371v.59668a.3751.3751,0,0,0,.375.375h.60645v.54687h-.60645a.3751.3751,0,0,0-.375.375v.59864h-.55371V7.70312a.3751.3751,0,0,0-.375-.375Zm3.3916,12.23047a2.80616,2.80616,0,1,0-2.81445-2.80566A2.82334,2.82334,0,0,0,31.61133,19.55859Zm0-4.8623a2.05617,2.05617,0,1,1-2.06445,2.05664A2.07276,2.07276,0,0,1,31.61133,14.69629Zm.64062,28.627a2.89951,2.89951,0,1,0,2.92285,2.89551A2.91422,2.91422,0,0,0,32.252,43.32324Zm0,5.04883a2.14954,2.14954,0,1,1,2.17285-2.15332A2.16753,2.16753,0,0,1,32.252,48.37207Zm4.27149-19.59375a5.43915,5.43915,0,1,0,5.4834,5.44043A5.46949,5.46949,0,0,0,36.52344,28.77832Zm0,10.12793a4.68917,4.68917,0,1,1,4.7334-4.6875A4.71746,4.71746,0,0,1,36.52344,38.90625Zm4.90234-24.96A2.80622,2.80622,0,1,0,44.252,16.75293,2.81933,2.81933,0,0,0,41.42578,13.94629Zm0,4.8623A2.05625,2.05625,0,1,1,43.502,16.75293,2.06832,2.06832,0,0,1,41.42578,18.80859Zm5.78638-4.17889c-.00031-.41077-.02289-.81555-.06189-1.21564A13.565,13.565,0,0,0,46.324,9.82965l.00225-.00024.01184.00183.00354-.00073a1.20027,1.20027,0,0,0,.338-1.44123A14.83686,14.83686,0,0,0,33.33484,0h-3.342a1.28276,1.28276,0,0,0-1.08338.64154.39882.39882,0,0,1-.36828.23486L26.59473.87634V.876h-.75V.87634h-.00006a7.67762,7.67762,0,0,0-7.64136,7.67975V12.846a.41581.41581,0,0,1-.41583.41583h-.00007a1,1,0,0,0-1,1V21.007A1.00008,1.00008,0,0,0,17.78748,22.007a.41585.41585,0,0,1,.41583.41583V38.08209a.41581.41581,0,0,1-.41583.41583h-.00007a1,1,0,0,0-1,1.00007V46.2431a1.00008,1.00008,0,0,0,1.00007,1.00006.41581.41581,0,0,1,.41583.41584v7.67975a7.2861,7.2861,0,0,0,2.58191,5.55249,7.81494,7.81494,0,0,0,3.06091,1.76556c.10486,0,.16052-.03815.16052-.11371l-.00006-.98523c0-.69464.43939-1.32342,1.60932-1.51337a.62332.62332,0,0,1,.08459-.00408c.06775,0,.14417.00408.14417.00408V62.937A1.063,1.063,0,0,0,26.90765,64h6.42768A13.82229,13.82229,0,0,0,47.21259,50.23688V14.63849ZM33.33484.75A14.08239,14.08239,0,0,1,46.00256,8.71191a.65863.65863,0,0,1-.00952.4057A14.32259,14.32259,0,0,0,33.05469.87109H29.67688A.62656.62656,0,0,1,29.9928.75ZM25.7005,59.29041a1.39772,1.39772,0,0,0-.20477.01379,2.32136,2.32136,0,0,0-2.23914,2.25372v.097a13.55379,13.55379,0,0,1-2.00653-1.3523,6.59412,6.59412,0,0,1-2.29675-4.96392V47.659a1.16718,1.16718,0,0,0-1.16583-1.16584.25036.25036,0,0,1-.25007-.25006V39.498a.25036.25036,0,0,1,.25007-.25007,1.16713,1.16713,0,0,0,1.16583-1.16583V22.42285A1.16718,1.16718,0,0,0,17.78748,21.257a.25036.25036,0,0,1-.25007-.25006V14.26184a.25034.25034,0,0,1,.25007-.25A1.16718,1.16718,0,0,0,18.95331,12.846V8.55609A6.93248,6.93248,0,0,1,25.8446,1.62634h.00013V59.29382C25.80945,59.2923,25.75812,59.29041,25.7005,59.29041ZM46.46259,25.90106V50.23688A13.08536,13.08536,0,0,1,33.33533,63.25H26.90765a.31335.31335,0,0,1-.313-.313V60.04492h.00006V1.62634l1.94641.00006c.01275,0,.02429-.00494.037-.00537v.00006h4.47657A13.5575,13.5575,0,0,1,45.69336,10.332l.10132.2702a12.78141,12.78141,0,0,1,.60913,2.88459c.039.40008.0581.774.05878,1.15252Z"/></svg>