<svg id="Layer_1" data-name="Layer 1" xmlns="http://www.w3.org/2000/svg" viewBox="0 0 64 64"><path d="M46.21252,22.007A1.00008,1.00008,0,0,0,47.21259,21.007V14.26184a1,1,0,0,0-1-1h-.00007a.41581.41581,0,0,1-.41583-.41583V8.55609A7.67762,7.67762,0,0,0,38.15533.87634L35.45886.8764a.39882.39882,0,0,1-.36828-.23486A1.28268,1.28268,0,0,0,34.0072,0h-3.342A14.83686,14.83686,0,0,0,17.32037,8.38928a1.20035,1.20035,0,0,0,.338,1.44123l.00354.00073.01184-.00183.00225.00024a13.565,13.565,0,0,0-.82623,3.58441c-.039.40009-.06158.80487-.06189,1.21564l-.00043.00879V50.23688A13.82229,13.82229,0,0,0,30.66467,64h6.42774a1.063,1.063,0,0,0,1.06292-1.063V60.04449s.07642-.00408.14417-.00408a.62332.62332,0,0,1,.08459.00408c1.16993.18995,1.60932.81873,1.60932,1.51337l-.00006.98523c0,.07556.05566.11371.16052.11371a7.81494,7.81494,0,0,0,3.06091-1.76556,7.2861,7.2861,0,0,0,2.58191-5.55249V47.659a.41581.41581,0,0,1,.41583-.41584,1.00008,1.00008,0,0,0,1.00007-1.00006V39.498a1,1,0,0,0-1-1.00007h-.00007a.41581.41581,0,0,1-.41583-.41583V22.42285A.41585.41585,0,0,1,46.21252,22.007ZM17.99744,8.71191A14.08239,14.08239,0,0,1,30.66516.75h3.342a.63327.63327,0,0,1,.31745.12109H30.94531A14.32259,14.32259,0,0,0,18.007,9.11761.65863.65863,0,0,1,17.99744,8.71191ZM37.09241,63.25H30.66467A13.08536,13.08536,0,0,1,17.53741,50.23688V14.6543l.00043-.024c.00025-.36939.01935-.74335.059-1.14966a12.75713,12.75713,0,0,1,.60828-2.87768l.10156-.27088A13.5575,13.5575,0,0,1,30.94531,1.62109h4.47657V1.621c.01269.00043.02429.00537.037.00537l1.94635-.00006V60.418h.00006v2.519A.31333.31333,0,0,1,37.09241,63.25Zm9.12018-24.00208a.25031.25031,0,0,1,.25.25007V46.2431a.25036.25036,0,0,1-.25007.25006A1.16718,1.16718,0,0,0,45.04669,47.659l.00043,7.70483a6.58854,6.58854,0,0,1-2.29718,4.93884,13.77889,13.77889,0,0,1-2.00653,1.35462v-.09943a2.32136,2.32136,0,0,0-2.2392-2.25366,1.39614,1.39614,0,0,0-.20471-.01379c-.05762,0-.109.00189-.14423.00341V1.62646a6.93288,6.93288,0,0,1,6.89142,6.92963V12.846a1.16719,1.16719,0,0,0,1.1659,1.16583.25029.25029,0,0,1,.25.25V21.007a.25036.25036,0,0,1-.25007.25006,1.16718,1.16718,0,0,0-1.16583,1.16583V38.08209A1.16715,1.16715,0,0,0,46.21259,39.24792ZM27.47168,22.23828a5.46645,5.46645,0,1,0-5.50488-5.46387A5.49091,5.49091,0,0,0,27.47168,22.23828Zm0-10.18262a4.71647,4.71647,0,1,1-4.75488,4.71875A4.74238,4.74238,0,0,1,27.47168,12.05566Zm-2.167,21.5752a2.801,2.801,0,0,0-2.03711-2.05176,2.85586,2.85586,0,0,0-2.72559.73535,2.81174,2.81174,0,0,0,1.27637,4.72168,2.99,2.99,0,0,0,.72656.08985,2.82839,2.82839,0,0,0,2.75977-3.49512Zm-1.28516,2.14258A2.12112,2.12112,0,0,1,22,36.30859v-.001a2.06811,2.06811,0,0,1,.55078-4.06641,2.20992,2.20992,0,0,1,.53711.06641,2.06067,2.06067,0,0,1,.93164,3.46582Zm4.17871-8.95508a2.88753,2.88753,0,0,0-2.48535.51562,2.7972,2.7972,0,0,0-1.0791,2.21387,2.83743,2.83743,0,1,0,5.57226-.76855A2.79817,2.79817,0,0,0,28.19824,26.81836Zm.9375,3.97754a2.09182,2.09182,0,0,1-3.75195-1.248,2.04862,2.04862,0,0,1,.791-1.623,2.098,2.098,0,0,1,1.30176-.44433,2.24861,2.24861,0,0,1,.542.06641,2.03678,2.03678,0,0,1,1.4629,1.42773A2.08028,2.08028,0,0,1,29.13574,30.7959Zm1.17383,8.19531a2.83729,2.83729,0,1,0-5.57031.77344,2.8015,2.8015,0,0,0,2.00195,1.9541,3.061,3.061,0,0,0,.72852.08984,2.84181,2.84181,0,0,0,1.75879-.60254A2.79372,2.79372,0,0,0,30.30957,38.99121Zm-1.543,1.624a2.11851,2.11851,0,0,1-1.84375.375,2.03816,2.03816,0,0,1-1.46-1.42285,2.08628,2.08628,0,1,1,4.09668-.57617A2.048,2.048,0,0,1,28.7666,40.61523ZM33.19531,43.917H30.30469a.88273.88273,0,0,0-.88184.88184v2.84765a.88273.88273,0,0,0,.88184.88184h2.89062a.88273.88273,0,0,0,.88184-.88184V44.79883A.88273.88273,0,0,0,33.19531,43.917Zm.13184,3.72949a.13254.13254,0,0,1-.13184.13184H30.30469a.13254.13254,0,0,1-.13184-.13184V44.79883a.13254.13254,0,0,1,.13184-.13184h2.89062a.13254.13254,0,0,1,.13184.13184Zm-.93067-16.15625a2.831,2.831,0,0,0-2.83691,2.81836,2.7972,2.7972,0,0,0,1.0791,2.21387,2.8462,2.8462,0,0,0,1.76074.60352,3.02146,3.02146,0,0,0,.72461-.08887,2.81919,2.81919,0,0,0-.72754-5.54688Zm2.01075,3.39161a2.03554,2.03554,0,0,1-1.46289,1.42675,2.132,2.132,0,0,1-1.84278-.377,2.04948,2.04948,0,0,1-.792-1.623,2.08734,2.08734,0,1,1,4.09766.57325Zm-1.90332-26.79H36.54V6.03613H32.50391Zm.75-1.30567H35.79V7.3418H33.25391Z"/></svg>