<svg id="Layer_1" data-name="Layer 1" xmlns="http://www.w3.org/2000/svg" viewBox="0 0 64 64"><path d="M15.88281,18.74512H13.209V16.06934a.53807.53807,0,0,0-.53907-.53516H9.335a.53807.53807,0,0,0-.53906.53516v2.668H6.126a.536.536,0,0,0-.53125.53907v3.335a.5318.5318,0,0,0,.53125.53125H8.7959v2.68164a.5339.5339,0,0,0,.53125.53516h3.34277a.54031.54031,0,0,0,.53125-.53516V23.15039h2.67774a.53539.53539,0,0,0,.53125-.53906l.0039-3.335A.5318.5318,0,0,0,15.88281,18.74512Zm-.22265,3.65527H12.99024a.536.536,0,0,0-.53907.53125v2.67774H9.5459V22.93164a.536.536,0,0,0-.53125-.53906H6.34473V19.4873H9.01465a.5318.5318,0,0,0,.53125-.53125V16.28418H12.459v2.67187a.536.536,0,0,0,.53125.53907h2.67382Z"/><path d="M32,32.63379a3.63916,3.63916,0,1,0,3.63965,3.63965A3.64387,3.64387,0,0,0,32,32.63379Zm0,6.52832a2.88916,2.88916,0,1,1,2.88965-2.88867A2.89221,2.89221,0,0,1,32,39.16211Z"/><path d="M32,25.76367a2.94678,2.94678,0,1,0-2.94726-2.94629A2.94994,2.94994,0,0,0,32,25.76367Zm0-5.14355a2.19678,2.19678,0,1,1-2.19726,2.19726A2.19932,2.19932,0,0,1,32,20.62012Z"/><path d="M47.48438,22.35449a3.00391,3.00391,0,1,0-3.00391,3.00391A3.00766,3.00766,0,0,0,47.48438,22.35449ZM44.48047,24.6084a2.2544,2.2544,0,1,1,2.25391-2.25391A2.256,2.256,0,0,1,44.48047,24.6084Z"/><path d="M54.23145,19.78613a2.37989,2.37989,0,1,0,2.3789,2.37989A2.3823,2.3823,0,0,0,54.23145,19.78613Zm0,4.00977a1.62989,1.62989,0,1,1,1.6289-1.62988A1.6321,1.6321,0,0,1,54.23145,23.7959Z"/><path d="M58.07129,15.8584a2.3794,2.3794,0,1,0,2.37988,2.37988A2.38208,2.38208,0,0,0,58.07129,15.8584Zm0,4.00879a1.6294,1.6294,0,1,1,1.62988-1.62891A1.63043,1.63043,0,0,1,58.07129,19.86719Z"/><path d="M63.3197,23.65082c-.37408-2.06458-.04931-3.72064-.559-5.69989a12.1738,12.1738,0,0,0-4.30035-7.0882l.15588-1.17621a.90839.90839,0,0,0-.44629-.72558C55.60449,7.458,52.31445,6.85449,49.15235,6.36328c-.78614-.12207-1.5918-.24707-2.43067-.39844l-1.16839-.17321c-.05964-.23615-.11463-.48328-.18226-.72736C45.10535,3.1377,38.1944.99164,32.26959.99164c-.09,0-.18011.00049-.26959.00146-.08984-.001-.17926-.00146-.26959-.00146-5.92456,0-12.83576,2.14618-13.10144,4.07263-.06458.23309-.11737.4696-.17389.69617l-1.17188.18585c-.82714.14941-1.63281.27441-2.43066.39844C11.7041,6.833,8.416,7.43555,5.84668,8.94043a.92761.92761,0,0,0-.44238.80273l.15375,1.10614a12.16956,12.16956,0,0,0-4.31873,7.10163c-.5097,1.97925-.18494,3.63531-.559,5.69989A53.5163,53.5163,0,0,0,.02149,34.07556c.18237,7.3039,2.99224,15.2879,6.00207,15.2879a1.70576,1.70576,0,0,0,.243-.01745c2.31079-.33331,4.35089-1.52081,6.43262-13.6247l.14569-1.34369a1.30163,1.30163,0,0,1,1.30115-1.30206c.029,0,.41766-.04175,1.00122-.04169,1.71265,0,5.10321.35944,6.00372,3.18744a60.391,60.391,0,0,1,1.79035,7.16651l2.2265,9.22418c.88006,3.68854,2.39673,10.31372,6.81109,10.39471l.00037.00165.00684-.00061.00683.00061.00037-.00165h.0133l.00037.00165.00684-.00061.00683.00061.00037-.00165c4.41437-.081,5.931-6.70617,6.81109-10.39471l2.22651-9.22418A60.38971,60.38971,0,0,1,42.849,36.22131c.90057-2.82824,4.2912-3.1875,6.00372-3.18744.58338,0,.97217.04169,1.00129.04169a1.30157,1.30157,0,0,1,1.30108,1.30206l.14569,1.34369C53.38257,47.8252,55.42261,49.0127,57.7334,49.346a1.70649,1.70649,0,0,0,.243.01745c3.00965,0,5.8197-7.98449,6.00214-15.2879A53.51659,53.51659,0,0,0,63.3197,23.65082ZM46.60059,6.70508c.833.15039,1.64453.27637,2.44824.40039,3.0791.47949,6.29,1.06641,8.74316,2.50293.044.02539.07325.07031.07911.05176l-.09754.70147a16.61475,16.61475,0,0,0-7.03583-2.57147c-.71319-.14123-2.90753-.4-4.19891-.66711a1.00547,1.00547,0,0,1-.696-.53022ZM6.14942,9.7168a.16893.16893,0,0,1,.07617-.12989c2.456-1.4375,5.665-2.02441,8.7539-2.50293.792-.123,1.60352-.249,2.42871-.39843l.76319-.12116a1.01446,1.01446,0,0,1-.71021.55866c-1.29138.26709-3.48571.52588-4.19891.66711a16.63084,16.63084,0,0,0-7.02008,2.56Zm57.07934,24.34c-.19232,7.703-3.09735,14.55664-5.25232,14.55664a.94507.94507,0,0,1-.136-.00982c-1.62781-.23474-3.65363-.52692-5.794-12.96314l-.14185-1.30792a2.05388,2.05388,0,0,0-2.04144-2.0083c-.13769-.01105-.50348-.04041-1.01044-.04041-2.06787-.00006-5.69049.48188-6.71832,3.70984a60.034,60.034,0,0,0-1.80481,7.21814s-2.20489,9.13538-2.22693,9.22608l-.03741.157c-.85468,3.58557-2.285,9.58539-6.05121,9.66174h-.02716c-3.76734-.075-5.19733-6.07574-6.05213-9.66174l-.03741-.157L25.76,51.862h-.00177c-.48437-2.006-2.07648-8.602-2.07782-8.602a60.53579,60.53579,0,0,0-1.8147-7.26624c-1.02783-3.22778-4.65045-3.70984-6.71838-3.70984-.5072-.00006-.87286.02936-1.00122.04169a2.054,2.054,0,0,0-2.05066,2.00751l-.13532,1.26111C9.81323,48.07672,7.78735,48.3689,6.15955,48.60364a.94521.94521,0,0,1-.136.00982c-2.155,0-5.05994-6.85369-5.25232-14.55664a52.67758,52.67758,0,0,1,.647-10.27227,17.73432,17.73432,0,0,0,.2326-2.74054,12.761,12.761,0,0,1,.31982-2.92707C3.20245,12.69043,7.03827,9.46564,13.408,8.52588c.27161-.05377.80017-.1297,1.41223-.21759.89374-.12836,2.00605-.288,2.79285-.45081,1.16907-.24176,1.434-1.34552,1.62738-2.15149.035-.14611.07056-.29461.11121-.44146l.01342-.04822.00684-.04962c.15149-1.09864,6.096-3.425,12.35846-3.425l.278.00146.26117-.00146c6.26252,0,12.207,2.32641,12.35852,3.42505l.00684.04962.01337.04822c.04065.14685.07617.29535.1112.44146.19342.806.45832,1.90973,1.62738,2.15149.78687.16278,1.89917.32251,2.79291.45081.612.08789,1.14063.16382,1.44855.22388,6.33337.93347,10.16919,4.15826,11.40607,9.60583a12.73215,12.73215,0,0,1,.31469,2.906,17.73824,17.73824,0,0,0,.23224,2.73846A52.679,52.679,0,0,1,63.22876,34.05682Z"/><path d="M50.04492,20.61719a2.3794,2.3794,0,1,0-2.3789-2.37891A2.38209,2.38209,0,0,0,50.04492,20.61719Zm0-4.00879a1.6294,1.6294,0,1,1-1.6289,1.62988A1.63209,1.63209,0,0,1,50.04492,16.6084Z"/><path d="M53.98145,16.73633a2.3794,2.3794,0,1,0-2.37989-2.37988A2.38207,2.38207,0,0,0,53.98145,16.73633Zm0-4.00879a1.6294,1.6294,0,1,1-1.62989,1.62891A1.63042,1.63042,0,0,1,53.98145,12.72754Z"/><path d="M32,28.68945a7.5835,7.5835,0,1,0,7.584,7.584A7.59281,7.59281,0,0,0,32,28.68945Zm0,14.417a6.8335,6.8335,0,1,1,6.834-6.833A6.84115,6.84115,0,0,1,32,43.10645Z"/><path d="M49.166,24.22266a3.0044,3.0044,0,1,0,3.0039,3.00488A3.00766,3.00766,0,0,0,49.166,24.22266Zm0,5.25879a2.2544,2.2544,0,1,1,2.2539-2.25391A2.256,2.256,0,0,1,49.166,29.48145Z"/></svg>