<svg id="Layer_1" data-name="Layer 1" xmlns="http://www.w3.org/2000/svg" viewBox="0 0 64 64"><path d="M12.26862,26.24438l-.94245-1.14093a.91709.91709,0,0,0-.707-.333H8.51477a.51321.51321,0,0,0-.51324.51324V28.246a.51316.51316,0,0,0,.51324.51319h2.10437a.917.917,0,0,0,.707-.333l.94245-1.141A.81722.81722,0,0,0,12.26862,26.24438Zm-.57825.56318-.94245,1.14093a.16639.16639,0,0,1-.12878.06067H8.75153V25.52045h1.86761a.16651.16651,0,0,1,.12878.0606l.94245,1.141A.06726.06726,0,0,1,11.69037,26.80756Z"/><path d="M14.13531,28.11115a.81709.81709,0,0,0-1.04077,0l-1.141.94238a.91731.91731,0,0,0-.333.70709V31.865a.51331.51331,0,0,0,.51325.51331h2.96228a.51331.51331,0,0,0,.51324-.51331V29.76062a.9173.9173,0,0,0-.333-.70709Zm.724,3.51715H12.37054V29.76062a.16645.16645,0,0,1,.06061-.12878l1.141-.94251a.06562.06562,0,0,1,.04279-.01532l.04278.01538,1.14094.94238a.16655.16655,0,0,1,.06066.12885Z"/><path d="M13.09454,25.41852a.81713.81713,0,0,0,1.04077,0l1.141-.94245a.91712.91712,0,0,0,.333-.70709V21.66461a.51324.51324,0,0,0-.51324-.51318H12.13379a.51325.51325,0,0,0-.51325.51318V23.769a.91713.91713,0,0,0,.333.70709Zm-.724-3.51709h2.48877V23.769a.16653.16653,0,0,1-.06066.12885l-1.14094.94244h-.08557l-1.14093-.94244a.16654.16654,0,0,1-.06067-.12885Z"/><path d="M56.47656,23.9502a2.75176,2.75176,0,1,0,2.71094,2.751A2.73427,2.73427,0,0,0,56.47656,23.9502Zm0,4.75292a2.00188,2.00188,0,1,1,1.96094-2.00195A1.98438,1.98438,0,0,1,56.47656,28.70312Z"/><path d="M50.61035,29.2959a2.75177,2.75177,0,1,0,2.71094,2.751A2.73508,2.73508,0,0,0,50.61035,29.2959Zm0,4.75293a2.00188,2.00188,0,1,1,1.96094-2.002A1.98457,1.98457,0,0,1,50.61035,34.04883Z"/><path d="M50.61035,18.60449a2.75177,2.75177,0,1,0,2.71094,2.751A2.73509,2.73509,0,0,0,50.61035,18.60449Zm0,4.75293a2.00188,2.00188,0,1,1,1.96094-2.002A1.98457,1.98457,0,0,1,50.61035,23.35742Z"/><path d="M63.84729,43.71906l.00165-.00062c-.039-.28662-.10822-.77136-.11005-.77136v.00135L61.37,26.366a10.86813,10.86813,0,0,0-4.87421-8.45117s-.48261-2.76624-.77045-3.65442a1.88294,1.88294,0,0,0-.80548-1.02228c-.07452-.04767-.17657-.10382-.29034-.16217-.04889-.02509-.10175-.04071-.15113-.06482a.3662.3662,0,0,0,.02063-.1684,1.64957,1.64957,0,0,0-.52441-1.09082A8.0646,8.0646,0,0,0,50.251,10.9668c-1.29,0-3.01856.15918-3.92481.918a1.9895,1.9895,0,0,0-.46094,1.05957.36571.36571,0,0,0,.02393.18841,3.207,3.207,0,0,0-.37726.27533,4.121,4.121,0,0,0-1.12518,1.88507l-.41492,2.25678a.674.674,0,0,1-.66272.55212L20.691,18.102a.67378.67378,0,0,1-.66278-.552l-.41492-2.25678a4.121,4.121,0,0,0-1.12518-1.88507,3.22718,3.22718,0,0,0-.37091-.27142.36469.36469,0,0,0,.02832-.19824,1.98394,1.98394,0,0,0-.46094-1.0586c-.90625-.75976-2.63477-.91894-3.92578-.91894a8.06965,8.06965,0,0,0-3.72363.78515,1.65686,1.65686,0,0,0-.52442,1.09082.367.367,0,0,0,.02136.1698c-.05279.0257-.10931.04248-.16162.06934-.11377.05835-.21582.11444-.29034.16217a1.88245,1.88245,0,0,0-.80548,1.02228c-.28784.88818-.77045,3.65442-.77045,3.65442A10.86829,10.86829,0,0,0,2.63,26.36609L.26111,42.94849v-.00135c-.00183-.00006-.071.48468-.11.77137l.00165.00061a16.76154,16.76154,0,0,0-.15247,1.92657c-.00116.03546.002.07166.00171.1073.0011.06366.00305.125.00629.18378a7.4934,7.4934,0,0,0,7.44525,6.7276,6.36011,6.36011,0,0,0,4.85767-2.20618l.00079.00153c1.61786-1.7724,6.48206-10.306,8.43866-13.51624a1.51863,1.51863,0,0,1,1.30194-.72851h19.8949a1.51875,1.51875,0,0,1,1.302.72845c1.95654,3.21021,6.82068,11.74384,8.4386,13.5163l.00079-.00159a6.36136,6.36136,0,0,0,4.85767,2.20618,7.49292,7.49292,0,0,0,7.44525-6.7276c.00324-.05878.00519-.12012.00629-.18378-.00031-.03564.00287-.07184.00171-.1073A16.76154,16.76154,0,0,0,63.84729,43.71906ZM46.80664,12.46A5.94656,5.94656,0,0,1,50.251,11.7168a7.33016,7.33016,0,0,1,3.30957.66113.74084.74084,0,0,1,.13592.298,8.35034,8.35034,0,0,0-1.19842-.34607,11.49279,11.49279,0,0,0-2.25971-.23944,8.07609,8.07609,0,0,0-1.51446.13575,12.99439,12.99439,0,0,0-2.04547.53466A.96512.96512,0,0,1,46.80664,12.46ZM10.44727,12.373a7.33673,7.33673,0,0,1,3.31152-.66211,5.93185,5.93185,0,0,1,3.44238.74218.98011.98011,0,0,1,.13355.313,12.89647,12.89647,0,0,0-2.05854-.54,8.08062,8.08062,0,0,0-1.51434-.13569,11.48936,11.48936,0,0,0-2.25989.23945,8.34688,8.34688,0,0,0-1.189.342A.76724.76724,0,0,1,10.44727,12.373ZM63.24817,45.74c-.00092.05383-.0025.10577-.00482.14838a6.783,6.783,0,0,1-6.69684,6.02594A5.61,5.61,0,0,1,52.242,49.954c-1.17376-1.28583-4.37939-6.70673-6.50061-10.29388-.72979-1.23413-1.37622-2.32721-1.85156-3.10706A2.25717,2.25717,0,0,0,41.94745,35.465H22.05255a2.25716,2.25716,0,0,0-1.94238,1.08819c-.47528.77979-1.12164,1.8728-1.85138,3.10681-2.12134,3.58722-5.327,9.00824-6.50958,10.30146a5.59635,5.59635,0,0,1-4.29572,1.95294c-3.04626,0-6.46411-2.42139-6.69641-6.01862C.75439,45.846.75275,45.79407.752,45.75934l-.00171-.1131A15.62988,15.62988,0,0,1,.89673,43.8139L.901,43.7702c.0332-.24231.08209-.58655.09625-.67828l.00629-.03735,2.3689-16.5824q.00448-.03141.00634-.063a10.17269,10.17269,0,0,1,4.53858-7.86823.75.75,0,0,0,.32568-.49707c.13178-.75506.52246-2.865.74512-3.55212a1.13686,1.13686,0,0,1,.4964-.62189c.05847-.03741.139-.08063.22839-.12652a7.54078,7.54078,0,0,1,1.93872-.67847,10.62065,10.62065,0,0,1,2.11017-.22437,7.33468,7.33468,0,0,1,1.37323.12232c2.13879.40954,2.63031.8194,2.86487,1.01477a3.34666,3.34666,0,0,1,.88141,1.48224l.40918,2.22583A1.42365,1.42365,0,0,0,20.691,18.852l22.6181.00006a1.42388,1.42388,0,0,0,1.40039-1.1665l.40918-2.22577a3.377,3.377,0,0,1,.90607-1.50269c.21-.175.70166-.58484,2.84021-.99432a7.3318,7.3318,0,0,1,1.37335-.12238,10.623,10.623,0,0,1,2.11.22437,7.54228,7.54228,0,0,1,1.93884.67853c.08942.04589.17.08923.22852.12664a1.13752,1.13752,0,0,1,.49621.62177c.22266.687.61328,2.797.74506,3.55206a.75.75,0,0,0,.32568.49707,10.17292,10.17292,0,0,1,4.53864,7.86823c.00116.021.00329.04211.00628.06305l2.3689,16.58239.00629.03736c.01416.09167.06305.436.09625.67828l.00433.0437a15.52834,15.52834,0,0,1,.14612,1.86542Z"/><path d="M44.77051,23.9502a2.75176,2.75176,0,1,0,2.71094,2.751A2.73753,2.73753,0,0,0,44.77051,23.9502Zm0,4.75292a2.00188,2.00188,0,1,1,1.96094-2.00195A1.98761,1.98761,0,0,1,44.77051,28.70312Z"/><path d="M29.32227,29.665H26.95215a.67768.67768,0,0,0-.67676.67676v1.13086a.67767.67767,0,0,0,.67676.67675h2.37012a.67767.67767,0,0,0,.67675-.67675V30.3418A.67767.67767,0,0,0,29.32227,29.665ZM29.249,31.39941H27.02539V30.415H29.249Z"/><path d="M37.77148,30.32617l-2.81738-.77539a.60244.60244,0,0,0-.76269.58106v1.55078a.604.604,0,0,0,.60058.60254.61833.61833,0,0,0,.16211-.02246l2.81738-.7754a.60214.60214,0,0,0,0-1.16113Zm-2.83007,1.16211V30.3252l2.11425.582Z"/><path d="M18.71509,24.77045H16.61072a.91709.91709,0,0,0-.707.333l-.94245,1.14093a.81722.81722,0,0,0,0,1.04084l.94245,1.141a.917.917,0,0,0,.707.333h2.10437a.51316.51316,0,0,0,.51324-.51319V25.28369A.51321.51321,0,0,0,18.71509,24.77045Zm-.23676,3.23871H16.61072a.16647.16647,0,0,1-.12879-.06061l-.94244-1.141a.06726.06726,0,0,1,0-.08551l.94238-1.14093a.16651.16651,0,0,1,.12885-.06067h1.86761Z"/></svg>