<svg id="Layer_1" data-name="Layer 1" xmlns="http://www.w3.org/2000/svg" viewBox="0 0 64 64"><path d="M32.001,29.54785A2.45219,2.45219,0,1,0,34.43848,32,2.44858,2.44858,0,0,0,32.001,29.54785Zm0,4.1543A1.70221,1.70221,0,1,1,33.68848,32,1.69777,1.69777,0,0,1,32.001,33.70215ZM11.24414,24.10938,12.46387,25.127a.57658.57658,0,0,0,.377.13867.59478.59478,0,0,0,.37695-.13476l1.21192-1.01563c.084-.0664.14843-.124.14843-.124a.37676.37676,0,0,0,.125-.2793V21.51855a.546.546,0,0,0-.543-.54785H11.52344a.54807.54807,0,0,0-.54688.54785v2.19336a.37679.37679,0,0,0,.125.2793S11.167,24.05078,11.24414,24.10938Zm.48242-2.38868h2.22656v1.81543l-1.11035.93067-1.11621-.93164Zm-.09375,4.28809-1.11719-1.35742a.37435.37435,0,0,0-.29492-.14356H8.03613a.54806.54806,0,0,0-.54687.54785v2.64942a.54129.54129,0,0,0,.54687.54785H10.2207a.37513.37513,0,0,0,.293-.14063l.09863-.11816.00489-.00684,1.01172-1.2246A.58367.58367,0,0,0,11.63281,26.00879Zm-1.58789,1.49414H8.23926V25.25781H10.041l.92871,1.125Zm3.16992-.22168a.58481.58481,0,0,0-.74609.002l-1.22266,1.0166c-.084.06934-.14746.12793-.14746.12793a.37126.37126,0,0,0-.12207.27637v2.19336a.54806.54806,0,0,0,.54688.54785h2.63672a.546.546,0,0,0,.543-.54785V28.7041a.37123.37123,0,0,0-.12207-.27637Zm.73828,3.41406H11.72656V28.876l1.11621-.92774,1.11035.92676Zm4.24317-2.99023V25.05566a.5489.5489,0,0,0-.54785-.54785h-2.1836a.37682.37682,0,0,0-.28125.126l-1.13867,1.376a.60164.60164,0,0,0,.002.74707l1.0205,1.2373.11914.13477a.37221.37221,0,0,0,.27832.124h2.1836A.54889.54889,0,0,0,18.19629,27.70508Zm-.75-.20215H15.63477L14.71,26.38281l.92871-1.125h1.80762Zm5.16211,3.57715a4.73835,4.73835,0,1,0,4.71191,4.73828A4.73024,4.73024,0,0,0,22.6084,31.08008Zm0,8.72656a3.98837,3.98837,0,1,1,3.96191-3.98828A3.97944,3.97944,0,0,1,22.6084,39.80664Zm5.11621-14.7168h-2.792a.49806.49806,0,0,0-.4961.499v1.80761a.49806.49806,0,0,0,.4961.499h2.792a.50161.50161,0,0,0,.50391-.499V25.58887A.50162.50162,0,0,0,27.72461,25.08984Zm-.24609,2.05567h-2.292V25.83984h2.292ZM39.583,26.43164a.47719.47719,0,0,0-.30371-.416l-2.97364-.98632a.45782.45782,0,0,0-.4082.07422.58571.58571,0,0,0-.18555.3789v1.85742a.47731.47731,0,0,0,.18555.38672.55367.55367,0,0,0,.30469.084.37005.37005,0,0,0,.11914-.0166l2.96191-.98438A.47942.47942,0,0,0,39.583,26.43164Zm-3.1211.52637V25.87012l1.6377.543Zm4.65235,4.12207a4.73836,4.73836,0,1,0,4.71094,4.73828A4.73024,4.73024,0,0,0,41.11426,31.08008Zm0,8.72656a3.98837,3.98837,0,1,1,3.96094-3.98828A3.97944,3.97944,0,0,1,41.11426,39.80664ZM45.8623,23.791a2.5645,2.5645,0,1,0,2.54786,2.56054A2.56066,2.56066,0,0,0,45.8623,23.791Zm0,4.3789a1.81453,1.81453,0,1,1,1.79786-1.81836A1.81343,1.81343,0,0,1,45.8623,28.16992Zm4.915.33008a2.56452,2.56452,0,1,0,2.54688,2.56055A2.55653,2.55653,0,0,0,50.77734,28.5Zm0,4.37891a1.81454,1.81454,0,1,1,1.79688-1.81836A1.80931,1.80931,0,0,1,50.77734,32.87891Zm0-8.90821a2.56255,2.56255,0,1,0-2.54687-2.56054A2.55652,2.55652,0,0,0,50.77734,23.9707Zm0-4.375a1.81257,1.81257,0,1,1-1.79687,1.81446A1.80721,1.80721,0,0,1,50.77734,19.5957ZM55.49609,23.791A2.5645,2.5645,0,1,0,58.044,26.35156,2.56066,2.56066,0,0,0,55.49609,23.791Zm0,4.3789A1.81453,1.81453,0,1,1,57.294,26.35156,1.81343,1.81343,0,0,1,55.49609,28.16992ZM63.75635,42.8631l-.09259-.597c-.85169-4.71679-1.8598-11.64288-2.32868-14.95654l-.01416-.00769c.25055-3.40277-1.68786-7.3277-4.03454-8.71991l-.00409-.00024-.01422-.00946a1.85353,1.85353,0,0,1-.96985-1.05683c-.13-.45154-.42029-1.73584-.75916-2.80591a2.3555,2.3555,0,0,0-.7207-1.0921V13.04a.97061.97061,0,0,0-.63867-.91113,9.20823,9.20823,0,0,0-3.21973-.498,13.50222,13.50222,0,0,0-3.51074.51953.96375.96375,0,0,0-.68164.92383v.452a2.49826,2.49826,0,0,0-.77582,1.67646c-.3468,1.49115.04144,2.59338-2.04877,2.62005H20.01965l.3581.00971H20.038c-2.09021-.02667-1.702-1.12891-2.04876-2.62006a2.54433,2.54433,0,0,0-.74994-1.65448v-.48364a.96377.96377,0,0,0-.68164-.92383,13.50365,13.50365,0,0,0-3.51172-.51953,9.04928,9.04928,0,0,0-3.21875.498.97252.97252,0,0,0-.63867.91113v.56872a2.35239,2.35239,0,0,0-.74671,1.11042c-.3388,1.07007-.62915,2.35443-.75909,2.806A1.85349,1.85349,0,0,1,6.71283,18.582c-2.34839,1.39325-4.28833,5.323-4.0343,8.7276-.48242,3.48248-1.57318,10.72278-2.43048,15.551l-.0044.00049a16.14031,16.14031,0,0,0-.19629,3.67682A5.4858,5.4858,0,0,0,.5105,48.39215c.959,2.22229,3.95129,3.60236,6.57287,3.60236a6.60868,6.60868,0,0,0,1.30707-.12506c2.02558-.291,3.84967-2.29963,4.67786-3.49469,1.18768-1.72156,4.21728-7.23645,4.21728-7.23645A6.66877,6.66877,0,0,0,22.70184,43.982a6.73846,6.73846,0,0,0,6.41706-4.9154h5.774a6.61732,6.61732,0,0,0,11.82477,2.07977c.03559.06482,3.03333,5.51923,4.214,7.23053.82819,1.195,2.65228,3.20374,4.67786,3.49469a6.62871,6.62871,0,0,0,1.30743.12482c2.623,0,5.61194-1.379,6.57245-3.6023a5.48191,5.48191,0,0,0,.4632-1.85412A16.141,16.141,0,0,0,63.75635,42.8631ZM47.51758,13.07422a.21135.21135,0,0,1,.14453-.20508,12.78607,12.78607,0,0,1,3.31641-.48828,8.35017,8.35017,0,0,1,2.94628.45312.21969.21969,0,0,1,.14356.20606v.12225a6.753,6.753,0,0,0-2.65015-.45721c-.16925,0-.3255.00317-.46405.00677a12.15573,12.15573,0,0,0-3.43658.43793ZM9.93848,13.04A.21921.21921,0,0,1,10.083,12.834a8.18347,8.18347,0,0,1,2.94433-.45312,12.7874,12.7874,0,0,1,3.31739.48828.21135.21135,0,0,1,.14453.20508V13.168a12.01412,12.01412,0,0,0-3.46253-.44647c-.13849-.0036-.2948-.00678-.464-.00678a6.80267,6.80267,0,0,0-2.62426.44568ZM63.20782,46.4519a4.75385,4.75385,0,0,1-.40686,1.64472c-.85174,1.97162-3.66058,3.14978-5.884,3.14978a6.06446,6.06446,0,0,1-1.20074-.11719c-1.61042-.23132-3.25183-1.85736-4.16724-3.17828-1.153-1.67127-4.14392-7.1109-4.174-7.16565a.75023.75023,0,0,0-.60852-.38733q-.02454-.00156-.04895-.00159a.75.75,0,0,0-.60474.30658,5.86822,5.86822,0,0,1-10.50463-1.86206.75011.75011,0,0,0-.71528-.52429h-5.774a.75.75,0,0,0-.71509.52386,5.87039,5.87039,0,0,1-10.51276,1.85529.75.75,0,0,0-.60541-.30743c-.016,0-.03222.00054-.0484.00158a.74985.74985,0,0,0-.609.38733c-.03015.05481-3.02478,5.501-4.17639,7.17029-.91626,1.3222-2.55761,2.94818-4.2102,3.18683a5.85968,5.85968,0,0,1-1.15827.11023c-2.2243,0-5.03344-1.1781-5.88147-3.14307a4.7708,4.7708,0,0,1-.40972-1.65173,15.02406,15.02406,0,0,1,.17926-3.39112c.006-.02191.011-.04431.01507-.067.85907-4.8385,1.96082-12.15668,2.43494-15.57916a.75.75,0,0,0,.005-.1587c-.22162-2.97,1.47553-6.6994,3.638-8.00817a2.56439,2.56439,0,0,0,1.339-1.51307c.04383-.1524.10559-.39636.18073-.69445.14813-.58765.351-1.39246.57263-2.09253.31549-.99646,1.42956-1.48084,3.40594-1.48078.16205,0,.31183.003.44446.00653,3.86133.10071,3.985.67707,4.18988,1.632l.06159.27887c.06366.27381.10064.54053.13635.79853.14642,1.05688.32861,2.37219,2.64294,2.40167h.33979a.75849.75849,0,0,0,.12091-.00971l23.45385-.00006c2.30475-.02942,2.487-1.34472,2.63337-2.40161.03576-.258.07269-.52472.13635-.79852l.06158-.27887c.2049-.955.32856-1.53131,4.18988-1.632.13269-.00348.28235-.00653.44452-.00653,1.97632,0,3.0904.48437,3.40583,1.48089.22174.70014.42462,1.505.57275,2.09272.07513.298.13684.54181.18072.69421a2.56214,2.56214,0,0,0,1.33259,1.50995l.03161.017c2.15613,1.31091,3.84955,5.03216,3.63123,7.997a.72274.72274,0,0,0,.03546.28009c.41626,2.93811,1.44018,10.01477,2.31421,14.85418l.09436.608A15.41863,15.41863,0,0,1,63.20782,46.4519Z"/></svg>