<svg id="Layer_1" data-name="Layer 1" xmlns="http://www.w3.org/2000/svg" viewBox="0 0 64 64"><path d="M50.60547,20.53223a2.38932,2.38932,0,0,0-.00007-4.77832A2.38932,2.38932,0,0,0,50.60547,20.53223Zm0-4.02832a1.63934,1.63934,0,0,1-.00007,3.27831A1.63934,1.63934,0,0,1,50.60547,16.50391ZM38.8584,19.18945h1.49023a1.34194,1.34194,0,0,0-.00006-2.68359H38.8584A1.34194,1.34194,0,0,0,38.8584,19.18945Zm0-1.93359h1.49023a.5918.5918,0,1,1,0,1.18359H38.8584A.59191.59191,0,0,1,38.8584,17.25586ZM23.63086,19.19922h1.49023a1.34194,1.34194,0,0,0,0-2.68359H23.63086A1.34194,1.34194,0,0,0,23.63086,19.19922Zm0-1.9336h1.49023a.5918.5918,0,0,1,0,1.1836H23.63086A.59192.59192,0,0,1,23.63086,17.26562ZM42.26953,27.66211a4.00065,4.00065,0,0,0,.00009,8.001A4.00065,4.00065,0,0,0,42.26953,27.66211Zm0,7.251a3.25069,3.25069,0,0,1,.0001-6.501A3.25069,3.25069,0,0,1,42.26953,34.91309Zm8.33594-10.498a2.3893,2.3893,0,0,0,.00007,4.77832A2.3893,2.3893,0,0,0,50.60547,24.415Zm0,4.02832a1.63933,1.63933,0,0,1,.00007-3.27832A1.63933,1.63933,0,0,1,50.60547,28.44336Zm-4.41211-8.37793a2.38931,2.38931,0,0,0,.00007,4.77832A2.38931,2.38931,0,0,0,46.19336,20.06543Zm0,4.02832a1.63934,1.63934,0,0,1,.00007-3.27832A1.63934,1.63934,0,0,1,46.19336,24.09375ZM36.78027,20.96a1.61637,1.61637,0,0,0,.00007,3.23242A1.61637,1.61637,0,0,0,36.78027,20.96Zm0,2.48242A.86636.86636,0,0,1,36.78033,21.71.86636.86636,0,0,1,36.78027,23.44238Zm18.11524-3.377a2.3893,2.3893,0,0,0,.00007,4.77832A2.3893,2.3893,0,0,0,54.89551,20.06543Zm0,4.02832a1.63933,1.63933,0,0,1,.00007-3.27832A1.63933,1.63933,0,0,1,54.89551,24.09375ZM32,29.08887a2.50992,2.50992,0,0,0,.00008,5.01953A2.50992,2.50992,0,0,0,32,29.08887Zm0,4.26953a1.76,1.76,0,0,1,.00008-3.51953A1.75995,1.75995,0,0,1,32,33.3584ZM21.60352,27.66211a4.00065,4.00065,0,0,0,.00008,8.001A4.00065,4.00065,0,0,0,21.60352,27.66211Zm0,7.251a3.25069,3.25069,0,0,1,.00009-6.501A3.25069,3.25069,0,0,1,21.60352,34.91309ZM27.19434,20.96a1.61638,1.61638,0,0,0,.00007,3.23242A1.61638,1.61638,0,0,0,27.19434,20.96Zm0,2.48242a.86638.86638,0,0,1,0-1.73242A.86638.86638,0,0,1,27.19434,23.44238Zm-8.12012-.9873a2.04887,2.04887,0,0,0-2.04688-2.04688H15.50879V18.88965a2.04639,2.04639,0,1,0-4.09277,0V20.4082H9.89746a2.04688,2.04688,0,0,0,0,4.09375H11.416v1.51856a2.04639,2.04639,0,0,0,4.09277,0V24.502h1.51855A2.04887,2.04887,0,0,0,19.07422,22.45508ZM17.02734,23.752c-2.51041-.01539-2.27849-.221-2.26852,2.26859a1.29655,1.29655,0,0,1-2.5928-.00009V24.418a.66705.66705,0,0,0-.667-.666H9.89746a1.297,1.297,0,0,1,.00006-2.59374H11.499a.66725.66725,0,0,0,.667-.667V18.88965a1.29639,1.29639,0,1,1,2.59277,0v1.60156a.66725.66725,0,0,0,.667.667h1.60156A1.297,1.297,0,0,1,17.02734,23.752ZM63.90753,43.84521c-1.56738-9.61645-2.03941-21.94035-8.55133-29.06591l-.0003-.00177-.00007-.00006a2.96472,2.96472,0,0,0-1.72845-2.24366,15.60391,15.60391,0,0,0-3.5954-1.269c-.2079-.09266-4.40914-.90216-4.51837.56116-.1864-.0044-.37286-.00726-.55939-.00726h-25.904c-.18506,0-.36993.003-.55487.0072h-.00446c-.10069-1.46364-4.32274-.6532-4.51837-.5611a15.60381,15.60381,0,0,0-3.59546,1.269A2.965,2.965,0,0,0,8.64825,14.7793C3.07245,20.54712,1.84467,31.27466.09656,43.84509c-.85237,7.86724,4.96463,10.39316,9.80963,8.62122a7.24407,7.24407,0,0,0,3.32648-3.81891c.60174-1.56635,2.394-6.81647,2.91772-7.602,1.45685-2.18518,2.41943-1.94391,4.955-2.15521H42.899c2.30974.2206,3.45-.12893,4.955,2.1552,1.02042,2.00722,2.11134,5.55461,2.9179,7.602a6.3918,6.3918,0,0,0,6.66237,4.35054C61.99827,52.32058,64.44481,49.7517,63.90753,43.84521Zm-14.01837-31.844c-.04372-.01677,3.39053.75813,4.29285,1.90277a15.92183,15.92183,0,0,0-7.78253-2.0473C46.96919,11.45083,49.9246,11.95463,49.88916,12.00116Zm-39.1767,1.20349a15.05,15.05,0,0,1,3.43445-1.21039c-.0715-.03849,2.87668-.53794,3.44122-.14477a15.93193,15.93193,0,0,0-7.74981,2.03405A2.61077,2.61077,0,0,1,10.71246,13.20465ZM62.85907,48.16449a6.13981,6.13981,0,0,1-5.54016,4.09241c-6.35547.59581-6.51612-7.65078-8.84087-11.62749-1.31887-2.27389-3.2711-2.40577-5.57913-2.48907l-21.7935-.00014c-2.30546.08942-4.26182.21479-5.57894,2.48934a63.14044,63.14044,0,0,0-2.49626,6.39424,7.58006,7.58006,0,0,1-3.45953,4.77041c-5.41642,1.99406-9.673-2.36636-8.73126-7.84576C1.56577,38.79469,2.209,33.55776,3.31121,28.49835c1.09209-4.80759,2.53267-9.6982,5.94611-13.27673.4649-.43018,3.21355-2.64612,9.23755-2.64569l27.02075.0072c6.56678.00677,9.27735,2.69159,9.30188,2.71808a17.90127,17.90127,0,0,1,3.47613,5.427c2.57917,5.77773,3.70377,14.74373,4.86848,23.2A10.12418,10.12418,0,0,1,62.85907,48.16449Z"/></svg>