<svg id="Layer_1" data-name="Layer 1" xmlns="http://www.w3.org/2000/svg" viewBox="0 0 64 64"><path d="M12.92773,27.66309A4.34871,4.34871,0,1,1,17.251,23.31445,4.34139,4.34139,0,0,1,12.92773,27.66309Zm0-7.94727A3.59873,3.59873,0,1,0,16.501,23.31445,3.59058,3.59058,0,0,0,12.92773,19.71582Zm7.97754,19.13281H18.93262a.94046.94046,0,0,1-.9375-.9414V35.63281H15.7373a.94066.94066,0,0,1-.93847-.9414V32.70605a.94066.94066,0,0,1,.93847-.9414h2.25782V29.49121a.9413.9413,0,0,1,.9375-.94238h1.97265a.9415.9415,0,0,1,.93848.94238v2.27344h2.25781a.94046.94046,0,0,1,.9375.9414v1.98536a.94046.94046,0,0,1-.9375.9414H21.84375v2.27442A.94066.94066,0,0,1,20.90527,38.84863Zm-5.168-6.334a.19048.19048,0,0,0-.18847.1914v1.98536a.19048.19048,0,0,0,.18847.1914h2.376a.63309.63309,0,0,1,.63184.63281v2.39161a.18965.18965,0,0,0,.1875.1914h1.97265a.19048.19048,0,0,0,.18848-.1914V35.51562a.63287.63287,0,0,1,.63086-.63281h2.377a.18965.18965,0,0,0,.1875-.1914V32.70605a.18966.18966,0,0,0-.1875-.1914h-2.377a.63287.63287,0,0,1-.63086-.63281V29.49121a.19071.19071,0,0,0-.18848-.19238H18.93262a.18989.18989,0,0,0-.1875.19238v2.39063a.63309.63309,0,0,1-.63184.63281Zm10.86329-4.65723A1.77345,1.77345,0,1,1,28.36621,26.084,1.77152,1.77152,0,0,1,26.60059,27.85742Zm0-2.79687A1.02347,1.02347,0,1,0,27.61621,26.084,1.02008,1.02008,0,0,0,26.60059,25.06055ZM31.875,35.542a1.77395,1.77395,0,1,1,1.76465-1.77441A1.77193,1.77193,0,0,1,31.875,35.542Zm0-2.79785a1.024,1.024,0,1,0,1.01465,1.02344A1.02091,1.02091,0,0,0,31.875,32.74414Zm0-4.88672A1.77346,1.77346,0,1,1,33.63965,26.084,1.77172,1.77172,0,0,1,31.875,27.85742Zm0-2.79687A1.02347,1.02347,0,1,0,32.88965,26.084,1.02091,1.02091,0,0,0,31.875,25.06055Zm5.27344,2.79687A1.77346,1.77346,0,1,1,38.91309,26.084,1.77173,1.77173,0,0,1,37.14844,27.85742Zm0-2.79687A1.02347,1.02347,0,1,0,38.16309,26.084,1.02091,1.02091,0,0,0,37.14844,25.06055Zm2.29785,11.09472a2.38724,2.38724,0,1,1,2.375-2.38769A2.384,2.384,0,0,1,39.44629,36.15527Zm0-4.02441a1.63725,1.63725,0,1,0,1.625,1.63672A1.63233,1.63233,0,0,0,39.44629,32.13086Zm4.45508,8.13086a2.38675,2.38675,0,1,1,2.374-2.38672A2.38315,2.38315,0,0,1,43.90137,40.26172Zm0-4.02344a1.63677,1.63677,0,1,0,1.624,1.63672A1.63234,1.63234,0,0,0,43.90137,36.23828Zm0-4.19043a2.38675,2.38675,0,1,1,2.374-2.38672A2.38315,2.38315,0,0,1,43.90137,32.04785Zm0-4.02344a1.63677,1.63677,0,1,0,1.624,1.63672A1.63234,1.63234,0,0,0,43.90137,28.02441Zm4.4541,8.13086a2.38724,2.38724,0,1,1,2.375-2.38769A2.384,2.384,0,0,1,48.35547,36.15527Zm0-4.02441a1.63725,1.63725,0,1,0,1.625,1.63672A1.63233,1.63233,0,0,0,48.35547,32.13086Zm2.46582-4.46777a4.3487,4.3487,0,1,1,4.32422-4.34864A4.34119,4.34119,0,0,1,50.82129,27.66309Zm0-7.94727a3.59872,3.59872,0,1,0,3.57422,3.59863A3.58975,3.58975,0,0,0,50.82129,19.71582Zm12.5285,18.1839c-.76263-6.28522-1.961-13.41089-4.57568-19.36719a29.0288,29.0288,0,0,0-3.30469-5.24377A9.97381,9.97381,0,0,0,51.786,10.62152l-.36713-1.11359h-.00006c-.142-.54321-.96795-.80743-1.80011-.80743h-.00024l-.00208-.00006c-.78546,0-1.57629.23566-1.80267.69446a6.47192,6.47192,0,0,0-.18884,1.15222c-3.19849.97742-5.534,2.99676-10.85773,3.4541-2.6615.22748-4.2301.293-4.7019.293L32,14.2937l-.06525.00049c-.47168,0-2.04028-.06549-4.702-.29285-5.27789-.45361-7.61908-2.4403-10.77551-3.42712-.04419-.22565-.13587-.76135-.2193-1.03253a.47017.47017,0,0,0-.0517-.14691c-.22589-.45868-1.017-.69422-1.80261-.69428l-.0047.00018-.00251-.00018c-.83215,0-1.65808.26422-1.80011.80743h-.00006l-.00909.05115L12.2301,10.616A9.90716,9.90716,0,0,0,8.53058,13.2887a29.03073,29.03073,0,0,0-3.30469,5.24383c-2.61468,5.9563-3.813,13.082-4.57568,19.36719A105.2614,105.2614,0,0,0,.00677,50.63739a4.68657,4.68657,0,0,0,4.778,4.662,4.32492,4.32492,0,0,0,3.0899-1.26319c9.135-8.42852,10.72114-11.30133,22.44794-11.30133q.86041,0,1.79517.02027.88879-.01987,1.70929-.02c11.64337,0,13.34057,3.05334,22.29822,11.30108a4.32554,4.32554,0,0,0,3.08984,1.26331,4.68656,4.68656,0,0,0,4.77808-4.66217A105.24723,105.24723,0,0,0,63.34979,37.89972Zm-14.85-27.69885c.00042-.133.00128-.357.01031-.488a.42557.42557,0,0,1,.04566-.0318.611.611,0,0,1,.07965-.04687c.02826-.01355.06781-.02656.10315-.04.04162-.01581.08038-.0318.1314-.04639.05054-.01446.11377-.02508.173-.03723.05218-.01068.09875-.02326.15729-.03137a3.09543,3.09543,0,0,1,.37194-.0257c.01636-.00024.02918-.00293.04578-.00293a2.59163,2.59163,0,0,1,.60339.07c.04926.01159.1073.0202.14948.03363.0097.003.01416.00659.02344.00976a.64063.64063,0,0,1,.309.176l.26458.82959c-.16522-.00714-.34014-.015-.51831-.02289-.68768-.03058-1.45227-.06464-1.95221-.07483C48.499,10.39557,48.49945,10.307,48.49976,10.20087ZM13.30023,9.7207a1.68,1.68,0,0,1,1.07984-.27,1.82766,1.82766,0,0,1,1.12616.2754l.01.01934c.02557.12793.054.39368.0686.532.00769.07312.01544.13513.02313.1969-.49853.01233-1.20624.04351-1.85162.0722-.21045.00934-.41712.01856-.6081.02667ZM63.24341,50.65454a3.58867,3.58867,0,0,1-1.045,2.63959,4.25336,4.25336,0,0,1-2.98328,1.25543,3.59218,3.59218,0,0,1-2.58185-1.065c-1.046-.96314-1.9928-1.85529-2.86786-2.67987-6.61987-6.23767-9.35992-8.81952-19.93835-8.81952-.55225,0-1.12775.00683-1.69318.0202q-.94464-.02032-1.81128-.02045c-10.72192,0-13.29547,2.423-20.17346,8.89893-.85089.80109-1.77051,1.667-2.80261,2.61993a3.57078,3.57078,0,0,1-2.56177,1.04566A4.25323,4.25323,0,0,1,1.8017,53.29419a3.61235,3.61235,0,0,1-1.045-2.67059A105.37382,105.37382,0,0,1,1.39471,37.99c.69208-5.70355,1.831-13.03528,4.50184-19.12182a28.53147,28.53147,0,0,1,3.16583-5.05066A9.237,9.237,0,0,1,12.397,11.34991c.66291-.01184,2.80732-.13122,3.56946-.13122.04724,0,.08344.001.11926.00195.02582.01117.04291.0354.07019.0437a24.25947,24.25947,0,0,1,2.928,1.17829,22.47838,22.47838,0,0,0,8.085,2.306c2.7315.23333,4.28094.29559,4.7658.29559l.05121-.00061.07929.00061c.485,0,2.03454-.06226,4.76611-.29572a22.4764,22.4764,0,0,0,8.0849-2.3059,24.25516,24.25516,0,0,1,2.9278-1.17823c.03228-.00988.05273-.038.08294-.05182.012.00342.01715.02027.0307.02027a.1686.1686,0,0,0,.03321-.00342,1.72128,1.72128,0,0,1,.24865-.01068c.68769.00006,2.50885.09784,3.34632.12573A9.14749,9.14749,0,0,1,54.932,13.81189,28.53491,28.53491,0,0,1,58.0874,18.834C60.77429,24.95477,61.91321,32.2865,62.60529,37.99A105.56691,105.56691,0,0,1,63.24341,50.65454Z"/></svg>