<svg id="Layer_1" data-name="Layer 1" xmlns="http://www.w3.org/2000/svg" viewBox="0 0 64 64"><path d="M13.64453,34.5166H10.98926a.82709.82709,0,0,1-.82715-.82519V30.93457a.07825.07825,0,0,0-.07715-.07519H7.31152a.82709.82709,0,0,1-.82714-.8252V27.39453a.82688.82688,0,0,1,.82714-.82422H10.085a.07825.07825,0,0,0,.07715-.07519V23.7373a.82688.82688,0,0,1,.82715-.82421h2.65527a.82688.82688,0,0,1,.82715.82421v2.75782a.07825.07825,0,0,0,.07715.07519H17.3252a.82688.82688,0,0,1,.82714.82422v2.63965a.82709.82709,0,0,1-.82714.8252H14.54883a.07825.07825,0,0,0-.07715.07519v2.75684A.82709.82709,0,0,1,13.64453,34.5166Zm-6.333-7.19629a.07548.07548,0,0,0-.07714.07422v2.63965a.07628.07628,0,0,0,.07714.0752H10.085a.82708.82708,0,0,1,.82715.82519v2.75684a.07629.07629,0,0,0,.07715.07519h2.65527a.07629.07629,0,0,0,.07715-.07519V30.93457a.82708.82708,0,0,1,.82715-.82519H17.3252a.07826.07826,0,0,0,.07714-.0752V27.39453a.0788.0788,0,0,0-.07714-.07422H14.54883a.82708.82708,0,0,1-.82715-.82519V23.7373a.0788.0788,0,0,0-.07715-.07421H10.98926a.0788.0788,0,0,0-.07715.07421v2.75782a.82708.82708,0,0,1-.82715.82519Zm19.81641,3.06641a1.74611,1.74611,0,1,1,1.75391-1.7461A1.75214,1.75214,0,0,1,27.12793,30.38672Zm0-2.74219a.99613.99613,0,1,0,1.00391.99609A1.00133,1.00133,0,0,0,27.12793,27.64453ZM23.40039,44.63574a1.72742,1.72742,0,0,1-.66016-.13183L20.043,43.38965a1.70979,1.70979,0,0,1-.92969-.92871l-1.11523-2.68457a1.69682,1.69682,0,0,1,.00293-1.31153l1.12109-2.68261a1.708,1.708,0,0,1,.93262-.92481l2.70019-1.1084a1.71532,1.71532,0,0,1,1.31543.002l2.69824,1.11523a1.72691,1.72691,0,0,1,.92969.92774l1.11426,2.68457a1.695,1.695,0,0,1-.002,1.3125h0l-1.12207,2.68164a1.72238,1.72238,0,0,1-.93262.92578l-2.69922,1.10742A1.7279,1.7279,0,0,1,23.40039,44.63574Zm.00977-10.2666a.96791.96791,0,0,0-.3711.07422l-2.69922,1.10742a.9668.9668,0,0,0-.52636.52149l-1.1211,2.68164a.9507.9507,0,0,0-.001.73535l1.11523,2.68457a.97281.97281,0,0,0,.52344.52246l2.69726,1.11426a.96628.96628,0,0,0,.74512.001l2.69922-1.10742a.97277.97277,0,0,0,.52539-.52051L28.11914,39.502a.95512.95512,0,0,0,.001-.73535l-1.11524-2.68555a.96612.96612,0,0,0-.52246-.52148L23.7832,34.44434A.97135.97135,0,0,0,23.41016,34.36914Zm5.05468,5.27734h0Zm3.47657-9.25976a1.74611,1.74611,0,1,1,1.7539-1.7461A1.75214,1.75214,0,0,1,31.94141,30.38672Zm0-2.74219a.99613.99613,0,1,0,1.0039.99609A1.00133,1.00133,0,0,0,31.94141,27.64453Zm4.81347,2.75391a1.74611,1.74611,0,1,1,1.75391-1.7461A1.75214,1.75214,0,0,1,36.75488,30.39844Zm0-2.74219a.99613.99613,0,1,0,1.00391.99609A1.00132,1.00132,0,0,0,36.75488,27.65625Zm3.83594,16.97949a1.71893,1.71893,0,0,1-.65918-.13183l-2.69726-1.11426a1.70841,1.70841,0,0,1-.93067-.92871l-1.11426-2.68457a1.69684,1.69684,0,0,1,.002-1.31153l1.12207-2.68261a1.72842,1.72842,0,0,1,.93164-.92481l2.70117-1.1084a1.7332,1.7332,0,0,1,1.31543.002L43.959,34.86621a1.70324,1.70324,0,0,1,.92969.92676l1.11524,2.68555A1.69494,1.69494,0,0,1,46.001,39.791l-1.1211,2.68164a1.72732,1.72732,0,0,1-.93359.92578l-2.69922,1.10742A1.7279,1.7279,0,0,1,40.59082,44.63574Zm.01074-10.26562a.98349.98349,0,0,0-.37011.07226l-2.70118,1.1084a.97608.97608,0,0,0-.52539.52051l-1.12207,2.68262a.95074.95074,0,0,0,0,.73535l1.11426,2.68457a.95888.95888,0,0,0,.52441.52246l2.69727,1.11426a.96384.96384,0,0,0,.74414.001l2.69922-1.10742a.97457.97457,0,0,0,.52637-.52051L45.30957,39.502v-.001a.94642.94642,0,0,0,.001-.73536l-1.11426-2.68457a.97105.97105,0,0,0-.52344-.52148l-2.69824-1.11523A.96311.96311,0,0,0,40.60156,34.37012Zm4.85156-2.9541A2.70121,2.70121,0,1,1,48.168,28.71484,2.71115,2.71115,0,0,1,45.45312,31.416Zm0-4.65235A1.95122,1.95122,0,1,0,47.418,28.71484,1.96034,1.96034,0,0,0,45.45312,26.76367Zm6.29493,9.23047A2.7012,2.7012,0,1,1,54.46289,33.293,2.71115,2.71115,0,0,1,51.74805,35.99414Zm0-4.65234A1.95122,1.95122,0,1,0,53.71289,33.293,1.96034,1.96034,0,0,0,51.74805,31.3418Zm0-4.65235a2.7012,2.7012,0,1,1,2.71484-2.70117A2.71115,2.71115,0,0,1,51.74805,26.68945Zm0-4.65234a1.95122,1.95122,0,1,0,1.96484,1.95117A1.96034,1.96034,0,0,0,51.74805,22.03711ZM58.043,31.416a2.70121,2.70121,0,1,1,2.71484-2.70118A2.71116,2.71116,0,0,1,58.043,31.416Zm0-4.65235a1.95122,1.95122,0,1,0,1.96484,1.95117A1.96034,1.96034,0,0,0,58.043,26.76367ZM56.32941,18.445c.02459.01483.05078.02765.07525.0426-1.64642-1.4903-5.73333-2.70325-8.75238-2.70325-.96124,0-1.474.23566-1.71576.598l-.03747.00361c-1.22125.08416-2.83093.192-4.54285.29864a2.32,2.32,0,0,0-1.868-.71259,2.20132,2.20132,0,0,0-2.061.94117c-2.17884.11584-4.1839.19983-5.426.19983-1.24262,0-3.24884-.08405-5.42871-.2a2.20191,2.20191,0,0,0-2.061-.941,2.31954,2.31954,0,0,0-1.86779.71247c-1.711-.10663-3.31971-.21436-4.54041-.29852l-.03955-.00385v-.02655l.00232-.00806-.00232-.001V16.344l-.00378.0008-.00318-.00135.007.00055c-.2417-.36267-.75458-.59845-1.71625-.59845-3.01886,0-7.10541,1.25391-8.752,2.74433.02484-.01526.05145-.02826.07641-.04334a16.23628,16.23628,0,0,0-7.659,13.79755A15.78822,15.78822,0,0,0,15.76935,48.25439a18.26842,18.26842,0,0,0,2.33386-.15216c3.70026-.25506,10.94629-.727,13.89795-.727s10.19763.472,13.89789.727a18.34321,18.34321,0,0,0,2.33166.15137c9.60114,0,15.75574-7.928,15.75659-16.00952A16.23279,16.23279,0,0,0,56.32941,18.445ZM59.15588,42.773A14.6119,14.6119,0,0,1,48.23071,47.5036a18.0932,18.0932,0,0,1-2.28009-.1496c-3.949-.27221-11.01227-.72882-13.94946-.72882s-10.00061.45661-13.99371.73316a17.60294,17.60294,0,0,1-2.2381.14605,14.613,14.613,0,0,1-10.919-4.72955A15.61,15.61,0,0,1,4.85,21.71289a14.61176,14.61176,0,0,1,10.91937-4.72913,18.02365,18.02365,0,0,1,2.28222.1504c3.94867.27215,11.01166.72882,13.94959.72882s10.00079-.45667,13.99316-.73316a17.67949,17.67949,0,0,1,2.23633-.14526,14.61183,14.61183,0,0,1,10.92481,4.73077A15.62074,15.62074,0,0,1,59.15588,42.773Z"/></svg>