<svg id="Layer_1" data-name="Layer 1" xmlns="http://www.w3.org/2000/svg" viewBox="0 0 64 64"><path d="M17.38277,17.71168l.04434-1.44178a.36868.36868,0,0,0-.38172-.40525l-.02908-.004a8.53563,8.53563,0,0,0-2.36792.004.36909.36909,0,0,0-.38238.4005l.02214,1.45251a.34207.34207,0,0,1-.3938.36511l-1.57792-.03237a.3763.3763,0,0,0-.43165.35633l-.00235.01454a6.92725,6.92725,0,0,0,0,2.20678l.00235.01454a.37626.37626,0,0,0,.43165.35633l1.57792-.03232a.342.342,0,0,1,.3938.36506L14.266,22.78417a.36909.36909,0,0,0,.38238.4005,8.53409,8.53409,0,0,0,2.36792.004l.02908-.004a.36868.36868,0,0,0,.38172-.40525l-.04434-1.44178a.34175.34175,0,0,1,.394-.36936l1.526.02969a.37629.37629,0,0,0,.43243-.35622l.00213-.01286a6.93135,6.93135,0,0,0,0-2.20846l-.00213-.01286a.37632.37632,0,0,0-.43243-.35622l-1.526.02975A.34179.34179,0,0,1,17.38277,17.71168Z"/><path d="M63.96735,34.50287C62.9397,13.15118,50.54,10.071,46.43829,9.63727A2.55168,2.55168,0,0,1,44.863,8.967a4.41116,4.41116,0,0,0-2.40277-.88812,97.58525,97.58525,0,0,0-10.43641-.699,87.40074,87.40074,0,0,0-11.31366.88269,2.96091,2.96091,0,0,0-1.56659.68689,2.65631,2.65631,0,0,1-1.63439.69348C13.35522,10.09741,1.05591,13.24152.03265,34.50287A24.34979,24.34979,0,0,0,.18994,38.856a48.87613,48.87613,0,0,0,1.07568,8.25043,46.25171,46.25171,0,0,0,3.04188,8.4118.18322.18322,0,0,0,.01611.03278l.02441.04913c.67987.79816,5.92664.984,7.35047,1.01984a1.48194,1.48194,0,0,0,.67352-.143l.02484-.01178a1.49078,1.49078,0,0,1,.64856-.14337l3.88739.0282a1.48988,1.48988,0,0,0,.89844-.29328l.39093-.29a1.48965,1.48965,0,0,1,.60138-.26556h26.3529a1.48965,1.48965,0,0,1,.60138.26556l.39093.29a1.48988,1.48988,0,0,0,.89844.29328l3.88739-.0282a1.49078,1.49078,0,0,1,.64856.14337l.02484.01178a1.48194,1.48194,0,0,0,.67352.143c1.42383-.03589,6.6706-.22168,7.35047-1.01984l.02441-.04913a.18322.18322,0,0,0,.01611-.03278,46.25171,46.25171,0,0,0,3.04188-8.4118A48.87613,48.87613,0,0,0,63.81006,38.856,24.34979,24.34979,0,0,0,63.96735,34.50287ZM15.81,24.251a4.90663,4.90663,0,0,1-5.06885-4.72638A4.90658,4.90658,0,0,1,15.81,14.79834a4.90651,4.90651,0,0,1,5.06878,4.72632A4.90656,4.90656,0,0,1,15.81,24.251ZM25.62207,52.4823H22.40271a.75348.75348,0,1,1,0-1.507h3.21936a.75348.75348,0,1,1,0,1.507Zm0-5.17542H22.40271a.75348.75348,0,1,1,0-1.50695h3.21936a.75348.75348,0,1,1,0,1.50695Zm.12561-5.17535H22.52826a.75348.75348,0,1,1,0-1.507h3.21942a.75348.75348,0,0,1,0,1.507Zm0-5.17541H22.52826a.75348.75348,0,1,1,0-1.507h3.21942a.75348.75348,0,1,1,0,1.507ZM26.742,26.06885a.7013.7013,0,0,1-.14386-.98133L28.59973,22.398a.70137.70137,0,0,1,1.12531.83746L27.72339,25.925A.70137.70137,0,0,1,26.742,26.06885ZM33.55829,52.4823H30.33887a.75348.75348,0,1,1,0-1.507h3.21942a.75348.75348,0,0,1,0,1.507Zm0-5.17542H30.33887a.75348.75348,0,1,1,0-1.50695h3.21942a.75348.75348,0,1,1,0,1.50695Zm.12555-5.17535H30.46442a.75348.75348,0,0,1,0-1.507h3.21942a.75348.75348,0,1,1,0,1.507Zm0-5.17541H30.46442a.75348.75348,0,0,1,0-1.507h3.21942a.75348.75348,0,1,1,0,1.507ZM34.475,23.2337l-2.00165,2.68946a.70135.70135,0,1,1-1.12525-.83747l2.00159-2.68951a.70138.70138,0,0,1,1.12531.83752Zm6.9967,29.31708H38.25232a.75348.75348,0,0,1,0-1.507h3.21942a.75348.75348,0,0,1,0,1.507Zm0-5.17535H38.25232a.75348.75348,0,0,1,0-1.507h3.21942a.75348.75348,0,0,1,0,1.507ZM41.59729,42.2H38.37793a.75348.75348,0,0,1,0-1.507h3.21936a.75348.75348,0,1,1,0,1.507Zm0-5.17541H38.37793a.75345.75345,0,1,1,0-1.5069h3.21936a.75345.75345,0,1,1,0,1.5069Zm4.61285-9.7533c-.17248.377-.18542.39734-.76812,1.50977s-1.07361.874-1.50977.874c0,0-2.72809,0-4.31732-.02643a1.09974,1.09974,0,0,1-1.17865-.95025,1.87677,1.87677,0,0,1,.23132-1.30506l1.66248-2.85663c.84759-1.32434,1.97919-.52716,2.56921-.26489.95355.42377,1.72162.8476,2.8606,1.45679A1.01661,1.01661,0,0,1,46.21014,27.2713Zm3.65955-5.41394a2.03431,2.03431,0,0,1-.32117.70258c-.22241.31659-.7.98474-1.21942,1.639a1.45813,1.45813,0,0,1-1.92273.1803c-.381-.17572-2.25732-1.04706-3.34814-1.66357a1.07173,1.07173,0,0,1-.39734-1.69519l1.4303-1.82758c.60919-.90051,1.80108-.29132,1.80108-.29132s2.78113,1.35083,3.60224,1.82758A.952.952,0,0,1,49.86969,21.85736Zm4.02155-4.651a2.03336,2.03336,0,0,1-.32111.70258c-.22241.31665-.57941.64825-1.26807,1.38989a1.4846,1.4846,0,0,1-1.79413.24469c-.021-.01074-.04241-.02063-.0639-.03034l-3.266-1.46966a1.35432,1.35432,0,0,1-.17322-.093.99738.99738,0,0,1-.51837-1.20685,1.32383,1.32383,0,0,1,.33331-.5412l1.31226-1.315a1.4137,1.4137,0,0,0,.13-.14569c.56678-.75122,1.57154-.32623,1.73847-.24847.01831.00854.03662.01672.0553.02441.30206.12457,2.69171,1.11414,3.46032,1.56042A.952.952,0,0,1,53.89124,17.20636Z"/></svg>