<svg id="Layer_1" data-name="Layer 1" xmlns="http://www.w3.org/2000/svg" viewBox="0 0 64 64"><path d="M60.77512,14.44092a17.44283,17.44283,0,0,0-.96955-2.05275,1.68474,1.68474,0,0,0-.70069-.59894c-1.659-.78865-8.55385-2.3019-8.55385-2.3019a22.88052,22.88052,0,0,0-37.10206,0s-6.8949,1.51325-8.55385,2.3019a1.68474,1.68474,0,0,0-.70069.59894,17.44283,17.44283,0,0,0-.96955,2.05275c-.94129,2.34621-2.3268,7.2616-1.43654,18.64421a98.76447,98.76447,0,0,0,2.18136,15.387,54.11809,54.11809,0,0,0,3.04073,9.48922,36.02849,36.02849,0,0,0,2.99667,5.27183,1.67637,1.67637,0,0,0,1.85085.70289,50.91773,50.91773,0,0,1,1.93977-7.38049c.52876-1.318.43989-1.62551,3.701-2.24056a108.19753,108.19753,0,0,1,12.8679-1.66939c.551-.02576,1.09486-.0484,1.63338-.04865.53852.00025,1.08229.02289,1.63332.04865a108.19753,108.19753,0,0,1,12.8679,1.66939c3.26114.61505,3.17227.92255,3.701,2.24056a50.91773,50.91773,0,0,1,1.93977,7.38049,1.67637,1.67637,0,0,0,1.85085-.70289,36.02849,36.02849,0,0,0,2.99667-5.27183,54.11809,54.11809,0,0,0,3.04073-9.48922,98.76447,98.76447,0,0,0,2.18136-15.387C63.10192,21.70252,61.71641,16.78713,60.77512,14.44092ZM4.75248,20.22411A4.58313,4.58313,0,1,1,9.33559,24.793,4.576,4.576,0,0,1,4.75248,20.22411ZM17.719,36.34706H14.38086v3.32778c0,.2002-.71027.36243-1.58644.36243s-1.5865-.16223-1.5865-.36243V36.34706H7.86976c-.20081,0-.36353-.70808-.36353-1.58156s.16272-1.58156.36353-1.58156h3.33816V29.85615c0-.20019.71027-.36242,1.5865-.36242s1.58644.16223,1.58644.36242v3.32779H17.719c.20081,0,.36353.70808.36353,1.58156S17.91983,36.34706,17.719,36.34706ZM34.79608,48.97839a32.47167,32.47167,0,0,1-5.57549,0,.17156.17156,0,0,1-.13391-.25733,31.72146,31.72146,0,0,1,2.63558-4.55283l.13727-.19733a.17242.17242,0,0,1,.29761,0l.13727.19733A31.7224,31.7224,0,0,1,34.93,48.72106.17156.17156,0,0,1,34.79608,48.97839ZM38.90771,21.793a3.01352,3.01352,0,0,1-3.00936,3h-7.7967a3.01352,3.01352,0,0,1-3.00936-3V15.36036a3.01355,3.01355,0,0,1,3.00936-3h7.7967a3.01355,3.01355,0,0,1,3.00936,3Zm7.81871,6.71228a2.5206,2.5206,0,1,1,2.5284-2.52059A2.52451,2.52451,0,0,1,46.72642,28.50525ZM52.213,33.84294a2.5206,2.5206,0,1,1,2.52841-2.52059A2.52452,2.52452,0,0,1,52.213,33.84294Zm0-10.67538A2.5206,2.5206,0,1,1,54.74138,20.647,2.52456,2.52456,0,0,1,52.213,23.16756Zm5.48644,5.33769a2.5206,2.5206,0,1,1,2.52847-2.52059A2.52451,2.52451,0,0,1,57.69941,28.50525Z"/></svg>