<svg id="Layer_1" data-name="Layer 1" xmlns="http://www.w3.org/2000/svg" viewBox="0 0 64 64"><path d="M63.48208,31.50348s-.42865-4.23312-.58978-6.53415a11.26726,11.26726,0,0,0-5.32376-10.9804,7.4563,7.4563,0,0,0-3.10744-3.06636,5.86135,5.86135,0,0,0-4.59963-.23877A52.14485,52.14485,0,0,0,32,7.86164,52.164,52.164,0,0,0,14.141,10.682a5.86451,5.86451,0,0,0-4.596.2406,7.409,7.409,0,0,0-3.16273,3.17189,11.34856,11.34856,0,0,0-5.23221,9.55888c0,.12415.01459.24457.01856.36774-.00165.032-.00873.063-.01013.095-.08014,1.85206-.64063,7.38737-.64063,7.38737-.93159,7.019-.53119,17.04775.60156,20.79074,1.13276,3.74264,3.86318,3.80929,3.86318,3.80929,5.5878.82892,5.91122-13.38117,6.44791-15.76808a5.00737,5.00737,0,0,1,.29394-.91212.73013.73013,0,0,1,1.3296-.05328l.12262.24872a9.85816,9.85816,0,0,1,.50922,1.34479,8.4342,8.4342,0,0,0,10.58776,5.36007,7.94314,7.94314,0,0,0,5.41238-6.50393,8.13209,8.13209,0,0,0-2.35817-7.01029,15.08722,15.08722,0,0,1-1.31611-1.441,2.08143,2.08143,0,0,1-.55365-1.19636.57182.57182,0,0,1,.277-.49543A22.22007,22.22007,0,0,1,32,29.01732a22.16688,22.16688,0,0,1,6.26132.66022.59224.59224,0,0,1,.27741.5354,2.116,2.116,0,0,1-.55012,1.15479,15.085,15.085,0,0,1-1.31671,1.44184,8.13235,8.13235,0,0,0-2.358,7.01035,7.94339,7.94339,0,0,0,5.41257,6.50382,8.43422,8.43422,0,0,0,10.58757-5.3602,9.85816,9.85816,0,0,1,.50922-1.34479l.12262-.24872a.73013.73013,0,0,1,1.3296.05328,5.00737,5.00737,0,0,1,.29394.91212c.53669,2.38691.86011,16.597,6.44791,15.76808,0,0,2.73042-.06665,3.86318-3.80929C64.01327,48.55123,64.41367,38.52249,63.48208,31.50348Zm-51.232-2.3799a5.0345,5.0345,0,0,1-5.02724-5.03945A5.11334,5.11334,0,0,1,12.2504,19.036a5.04385,5.04385,0,0,1-.00031,10.08763ZM25.78488,36.75a.1758.1758,0,0,1,.17579.17578v2.66554a.173.173,0,0,1-.17249.17243H23.49587a.1719.1719,0,0,0-.17188.17188V42.2368a.17265.17265,0,0,1-.17218.17218H20.49238a.17265.17265,0,0,1-.17218-.17218V39.93619a.17292.17292,0,0,0-.17243-.17242H17.8554a.17236.17236,0,0,1-.17187-.17188V36.92251A.173.173,0,0,1,17.856,36.75h2.29231a.17237.17237,0,0,0,.17188-.17187V34.281a.17685.17685,0,0,1,.17639-.17633h2.65168a.17185.17185,0,0,1,.17188.17187v2.301a.17245.17245,0,0,0,.17249.17242Zm6.15433-10.77587a1.51664,1.51664,0,1,1,1.51166-1.5166A1.51243,1.51243,0,0,1,31.93921,25.97415Zm9.69243,1.13062a2.42553,2.42553,0,1,1,2.95069,2.96443A2.41466,2.41466,0,0,1,41.63164,27.10477Zm5.17422,11.9234a4.54143,4.54143,0,1,1-5.20041-5.22878A4.5647,4.5647,0,0,1,46.80586,39.02817Zm-.82685-20.574a1.61675,1.61675,0,0,1,.30145-1.52289,5.44145,5.44145,0,0,1,2.30476-1.646,4.45219,4.45219,0,0,1,3.62111.341,1.60637,1.60637,0,0,1,.65595,1.29718,1.62984,1.62984,0,0,1-1.59351,1.60292,7.88184,7.88184,0,0,0-1.094.10974c-.31238.07446-.56641.18024-.87079.27435-.82111.25788-1.043.64057-1.76515.65406A1.56505,1.56505,0,0,1,45.979,18.45422ZM55.01537,24.635a3.7325,3.7325,0,1,1-4.2734-4.296A3.75,3.75,0,0,1,55.01537,24.635Zm4.796.67523a1.58778,1.58778,0,0,1-1.28876.66236,1.631,1.631,0,0,1-1.598-1.60285,7.85418,7.85418,0,0,0-.1092-1.09345c-.0744-.31745-.17962-.57221-.27362-.87788-.2536-.8009-.61743-1.03357-.64966-1.7082a1.63332,1.63332,0,0,1,1.36072-1.68555,1.60056,1.60056,0,0,1,1.26173.36041,5.521,5.521,0,0,1,1.64075,2.31221A4.4726,4.4726,0,0,1,59.81135,25.31027Z"/></svg>