<svg id="Layer_1" data-name="Layer 1" xmlns="http://www.w3.org/2000/svg" viewBox="0 0 64 64"><path d="M46.62836,22.007a.58423.58423,0,0,0,.58423-.58423V13.846a.58417.58417,0,0,0-.58417-.58417h-.83173V8.55609A7.67762,7.67762,0,0,0,38.15533.87634L35.14191.8764c0-.4837-.651-.8764-1.13471-.8764h-3.342A14.83671,14.83671,0,0,0,17.32043,8.38928a1.20017,1.20017,0,0,0,.3379,1.44123c.00512.00244.0122-.00226.01763-.00086a13.565,13.565,0,0,0-.82623,3.58441c-.039.40009-.06158.80487-.06189,1.21564l-.00043.00879V50.23688A13.82229,13.82229,0,0,0,30.66467,64h6.84351a.64714.64714,0,0,0,.64715-.64716V59.66028c.0337.18182.10047.34143.22876.38421,1.12439.37476,1.60932.81873,1.60932,1.51331l-.00006.98529c0,.36792,1.32007-.15027,3.22143-1.65185a7.2861,7.2861,0,0,0,2.58191-5.55249V47.24316h.83167a.58426.58426,0,0,0,.58423-.58422V39.08215a.58418.58418,0,0,0-.58417-.58423h-.83173V22.007ZM27.47162,11.681a5.09136,5.09136,0,1,1-5.13007,5.0932A5.11346,5.11346,0,0,1,27.47162,11.681Zm-5.5625,24.99084a2.44786,2.44786,0,1,1,3.03-2.95477A2.4393,2.4393,0,0,1,21.90912,36.67181Zm6.19952-9.4887a2.422,2.422,0,0,1,1.73529,1.69348,2.46684,2.46684,0,1,1-1.73529-1.69348Zm-1.277,14.17163a2.42515,2.42515,0,0,1-1.73089-1.68842,2.46674,2.46674,0,1,1,1.73089,1.68842Zm6.87085,6.29205a.50673.50673,0,0,1-.50677.50677H30.30463a.50679.50679,0,0,1-.50684-.50677V44.79865a.50685.50685,0,0,1,.50684-.50684h2.89105a.50679.50679,0,0,1,.50677.50684Zm1.06672-12.66724A2.42218,2.42218,0,0,1,33.034,36.673a2.443,2.443,0,1,1,1.73517-1.69348ZM36.1651,7.71686H32.879V6.41119H36.1651Z"/></svg>