<svg id="Layer_1" data-name="Layer 1" xmlns="http://www.w3.org/2000/svg" viewBox="0 0 64 64"><path d="M61.83435,31.88635c-1.9411-10.29852-4.92371-14.48553-5.07275-14.69012a10.05191,10.05191,0,0,0-.38092-1.25263c.004-.001.00909.00238.01281.00061a.86931.86931,0,0,0,.24475-1.04376,10.74512,10.74512,0,0,0-9.66461-6.07574H44.55322c-.35034,0-.82177.28436-.82177.63464H42.04907a.50012.50012,0,0,0-.50012.50012v1.22126a1.646,1.646,0,0,1-1.45306-1.33222.49854.49854,0,0,0-.48352-.38922H24.39825a.49854.49854,0,0,0-.48352.38922,1.64606,1.64606,0,0,1-1.45306,1.33222V9.95947a.50012.50012,0,0,0-.50012-.50012H20.27917c0-.35028-.47143-.63464-.82177-.63464H17.037a10.74512,10.74512,0,0,0-9.66461,6.07574.86923.86923,0,0,0,.24475,1.04376c.00372.00177.00885-.00164.01281-.00061a10.04316,10.04316,0,0,0-.38586,1.27173l-.00177-.02472c-.12476.17041-3.12708,4.35205-5.07666,14.69568C.1745,42.45026-.59979,46.10059.50635,49.032s4.42474,7.57727,9.18127,3.15259c.02753-.02557.05023-.05328.077-.07922L9.76221,52.072a10.05141,10.05141,0,0,0,7.27441,3.10333H46.974a10.05185,10.05185,0,0,0,7.26282-3.09076l-.00153.02088c.02686.02594.04956.05365.07709.07922,4.75653,4.42468,8.07507-.22125,9.18127-3.15259S63.82556,42.45032,61.83435,31.88635ZM14.73126,17.29449a3.6873,3.6873,0,1,1-3.71533,3.68866A3.70336,3.70336,0,0,1,14.73126,17.29449Zm-4.0285,18.09906a1.77279,1.77279,0,1,1,2.19446-2.13989A1.76644,1.76644,0,0,1,10.70276,35.39355Zm4.48987-6.872a1.75438,1.75438,0,0,1,1.25677,1.2265,1.78656,1.78656,0,1,1-1.25677-1.2265ZM14.26776,38.7851a1.75639,1.75639,0,0,1-1.2536-1.22284,1.78651,1.78651,0,1,1,1.2536,1.22284Zm4.97608,4.55682a.367.367,0,0,1-.36707.36706H16.783a.367.367,0,0,1-.36707-.36706V41.27924a.367.367,0,0,1,.36707-.367h2.09375a.367.367,0,0,1,.36707.367Zm.77252-9.174a1.75425,1.75425,0,0,1-1.25666,1.2265,1.7693,1.7693,0,1,1,1.25666-1.2265Zm1.011-19.74439H18.64746V13.478h2.37988Zm28.26484,1.34919A1.76228,1.76228,0,1,1,47.517,17.53644,1.769,1.769,0,0,1,49.29218,15.77277Zm1.77661,8.57049a1.77593,1.77593,0,1,1-1.77661-1.76221A1.76663,1.76663,0,0,1,51.06879,24.34326ZM43.0083,14.41394v-.93982h.71063v-.70349h.94471v.70349h.71063v.93982h-.71063v.7049h-.94471v-.7049Zm2.72785,4.79273a1.76081,1.76081,0,1,1-1.76661,1.7608A1.77208,1.77208,0,0,1,45.73615,19.20667Zm.464,24.93188a1.82806,1.82806,0,1,1,1.84546-1.83075A1.84328,1.84328,0,0,1,46.20013,44.13855Zm3.09351-6.85529a3.66756,3.66756,0,1,1,3.70007-3.666A3.68668,3.68668,0,0,1,49.29364,37.28326Zm3.55029-14.555a1.76086,1.76086,0,1,1,1.77527-1.7608A1.76264,1.76264,0,0,1,52.84393,22.72827Z"/></svg>