<svg id="Layer_1" data-name="Layer 1" xmlns="http://www.w3.org/2000/svg" viewBox="0 0 64 64"><path d="M14.2512,24.65472A6.17194,6.17194,0,1,0,20.33052,30.826,6.12376,6.12376,0,0,0,14.2512,24.65472Zm4.61666,7.51395H15.81745a.24645.24645,0,0,0-.2444.2483v3.027a.2482.2482,0,0,1-.24444.25026H13.17379a.24945.24945,0,0,1-.24444-.25026V32.413a.24648.24648,0,0,0-.24441-.2483H9.72448A.24772.24772,0,0,1,9.48,31.91642V29.71964a.24564.24564,0,0,1,.24445-.24431h2.96046a.24557.24557,0,0,0,.24441-.24432V26.1603a.24779.24779,0,0,1,.24444-.2483h2.15874a.24649.24649,0,0,1,.24444.2483V29.235a.24308.24308,0,0,0,.24441.24431h3.04648a.24519.24519,0,0,1,.24249.24431v2.19679A.24736.24736,0,0,1,18.86786,32.16867Zm44.90361-3.42429a12.8096,12.8096,0,0,0-4.16883-7.39277c-6.44052-4.99925-18.792-8.68469-27.60237-8.362C23.1881,12.68745,10.84575,16.33132,4.4,21.34777A12.84667,12.84667,0,0,0,.22715,28.74438C-.992,37.23876,2.80534,44.86748,9.00861,49.74517a6.24114,6.24114,0,0,0,5.52415,1.03275c2.01213-.72326,1.92215-1.12028,3.815-4.33792a9.17729,9.17729,0,0,1,6.0265-4.79108,26.521,26.521,0,0,1,15.25207-.00773,9.18165,9.18165,0,0,1,6.02257,4.79067c1.893,3.21764,1.80689,3.6228,3.81682,4.33792a6.20229,6.20229,0,0,0,5.522-1.02468A22.49631,22.49631,0,0,0,63.77147,28.74438ZM14.2512,40.9696a10.15,10.15,0,0,1,0-20.29728,10.1499,10.1499,0,0,1,0,20.29728ZM43.09913,22.26727l4.126-1.80948a.73691.73691,0,0,1,.97753.38135.74986.74986,0,0,1-.40287.98519l-4.126,1.81343a.73555.73555,0,0,1-.97753-.38136A.76279.76279,0,0,1,43.09913,22.26727ZM55.14428,34.89378c-.1964.08112-.50058.22646-.88383.39328-1.78326.82031-4.89246,2.2266-5.72943,2.6715A33.65006,33.65006,0,0,0,45.26564,39.77c-3.52693,1.96173-7.77911-1.09373-7.55947-5.22584.24421-3.40659,2.07622-4.49585,4.82991-6.74124a18.88306,18.88306,0,0,1,4.96254-2.94359,19.84041,19.84041,0,0,1,2.04157-.76471,19.30565,19.30565,0,0,1,5.824-1.158c.02363,0-.01562-.004,0,0h0c4.5565-.36944,7.9583,5.11843,5.177,8.813C59.38542,33.63236,56.999,34.06747,55.14428,34.89378ZM43.16961,31.9045a2.67779,2.67779,0,1,1-2.63585,2.67545A2.65786,2.65786,0,0,1,43.16961,31.9045Zm6.4763-3.51959a2.67675,2.67675,0,1,1-2.63625,2.67743A2.65576,2.65576,0,0,1,49.64591,28.38491Zm6.67934-2.65165a2.67677,2.67677,0,1,1-2.63586,2.67744A2.65164,2.65164,0,0,1,56.32525,25.73326Z"/></svg>