<svg id="Layer_1" data-name="Layer 1" xmlns="http://www.w3.org/2000/svg" viewBox="0 0 64 64"><path d="M39.9258,31.97656a.80186.80186,0,0,0-.8008.8008V39.1758a.80186.80186,0,0,0,.8008.80076h6.3986a.802.802,0,0,0,.8008-.80076V32.77736a.802.802,0,0,0-.8008-.8008Zm3.1994,6.707a2.708,2.708,0,1,1,2.7068-2.709A2.70856,2.70856,0,0,1,43.1252,38.6836Z"/><path d="M49.9256,31.97656a.80168.80168,0,0,0-.8004.8008V39.1758a.80167.80167,0,0,0,.8004.80076h6.3988a.802.802,0,0,0,.8008-.80076V32.77736a.802.802,0,0,0-.8008-.8008Zm3.1996,6.707a2.709,2.709,0,1,1,2.7068-2.707A2.70815,2.70815,0,0,1,53.1252,38.6836Z"/><path d="M17.95508,35.57616a.40093.40093,0,0,1-.4004.4004h-3.1992a.40052.40052,0,0,0-.4004.39844v3.20312a.40052.40052,0,0,1-.4004.39844h-3.1992a.40052.40052,0,0,1-.4004-.39844V36.375a.40052.40052,0,0,0-.4004-.39844H6.35548a.40093.40093,0,0,1-.4004-.4004V32.377a.40093.40093,0,0,1,.4004-.4004h3.1992a.40093.40093,0,0,0,.4004-.4004V28.377a.40093.40093,0,0,1,.4004-.4004h3.1992a.40093.40093,0,0,1,.4004.4004v3.1992a.40093.40093,0,0,0,.4004.4004h3.1992a.40093.40093,0,0,1,.4004.4004Zm19.18164-9.38672a.91524.91524,0,0,0-.91408-.914H22.06836a.91524.91524,0,0,0-.91408.914V27.7832a.91525.91525,0,0,0,.91408.91408H36.22264a.91525.91525,0,0,0,.91408-.91408Zm-.00392,4.26368a.91521.91521,0,0,0-.914-.914H22.0664a.91521.91521,0,0,0-.914.914v1.59572a.91523.91523,0,0,0,.914.914H36.21876a.91523.91523,0,0,0,.914-.914Z"/><path d="M63.1992,18H.80078A.80187.80187,0,0,0,0,18.8008V45.1992A.80177.80177,0,0,0,.80078,46H63.1992A.80166.80166,0,0,0,64,45.1992V18.8008A.80176.80176,0,0,0,63.1992,18ZM36.21876,41.742H22.06252a.91547.91547,0,0,0-.91408.9144V44H3.20117A1.20208,1.20208,0,0,1,2.002,42.8008V23.19728A1.202,1.202,0,0,1,3.20117,21.998H21.15428V23.5254a.91524.91524,0,0,0,.91408.914H36.22264a.91524.91524,0,0,0,.91408-.914V21.998H60.8008A1.20209,1.20209,0,0,1,62,23.19728V42.8008A1.20216,1.20216,0,0,1,60.8008,44H37.1328V42.6564A.918.918,0,0,0,36.21876,41.742Z"/><path d="M36.21876,33.86328H22.06252a.91525.91525,0,0,0-.91408.91408v5.01952a.91255.91255,0,0,0,.91408.91392H36.21876a.91254.91254,0,0,0,.914-.91392V34.77736A.91524.91524,0,0,0,36.21876,33.86328Zm-8.56933,4.0508H23.68067a.66016.66016,0,1,1,0-1.32032h3.96876a.66016.66016,0,1,1,0,1.32032Zm6.959,0H30.63771a.66016.66016,0,1,1,0-1.32032h3.97068a.66016.66016,0,1,1,0,1.32032Z"/></svg>