<svg id="Layer_1" data-name="Layer 1" xmlns="http://www.w3.org/2000/svg" viewBox="0 0 64 64"><path d="M63.84729,43.694l.00165-.00061c-.04016-.29529-.11243-.80072-.11005-.77L61.37,26.341a10.86829,10.86829,0,0,0-4.87421-8.45117s-.48261-2.76623-.77045-3.65442a1.883,1.883,0,0,0-.80548-1.02228c-.07452-.04766-.17657-.10382-.29034-.16217-.16187-.08306-.33362-.14257-.50031-.21453-.02576-.15546-.13061-.697-.36627-.85218a7.65472,7.65472,0,0,0-3.5177-.72365,6.43167,6.43167,0,0,0-3.68427.83089,1.83339,1.83339,0,0,0-.33355.83386,3.0316,3.0316,0,0,0-.71552.45771,4.121,4.121,0,0,0-1.12518,1.88507L43.9718,17.5249a.674.674,0,0,1-.66278.55213L20.691,18.077a.67378.67378,0,0,1-.66278-.552l-.41492-2.25677a4.121,4.121,0,0,0-1.12518-1.88507,3.03471,3.03471,0,0,0-.71552-.4577,1.83239,1.83239,0,0,0-.33355-.83393,6.43167,6.43167,0,0,0-3.68427-.83089,7.65472,7.65472,0,0,0-3.5177.72365c-.23572.15528-.34051.6969-.36627.85224-.16669.072-.33844.13147-.50031.21454-.11377.05835-.21582.11444-.29034.16217a1.88244,1.88244,0,0,0-.80548,1.02227c-.28784.88819-.77045,3.65442-.77045,3.65442A10.86831,10.86831,0,0,0,2.63,26.34106L.26111,42.92346c.00238-.0307-.06989.47473-.11.77l.00165.00061a16.76172,16.76172,0,0,0-.15247,1.92658c-.00109.03546.002.07165.00171.1073.0011.06366.00305.125.00629.18377.3753,5.813,8.15381,9.215,12.30292,4.52143l.00079.00152c1.61786-1.7724,6.48206-10.306,8.43866-13.51623a1.51862,1.51862,0,0,1,1.30194-.72852h19.8949a1.51856,1.51856,0,0,1,1.30194.72846c1.9566,3.2102,6.82074,11.74383,8.43866,13.51623l.00079-.00152c4.14911,4.69354,11.92762,1.29162,12.30292-4.52143.00324-.05877.00519-.12012.00629-.18377-.00031-.03565.00287-.07184.00171-.1073A16.76154,16.76154,0,0,0,63.84729,43.694ZM11.62054,21.63965a.51326.51326,0,0,1,.51325-.51325h2.96228a.51325.51325,0,0,1,.51324.51325V23.744a.91709.91709,0,0,1-.333.707l-1.141.94244a.81709.81709,0,0,1-1.04077,0l-1.141-.94244a.91709.91709,0,0,1-.333-.707Zm-1.0014,7.09454H8.51477a.51321.51321,0,0,1-.51324-.51324V25.25867a.51322.51322,0,0,1,.51324-.51325h2.10437a.91706.91706,0,0,1,.707.333l.94245,1.141a.81712.81712,0,0,1,0,1.04077l-.94245,1.141A.91706.91706,0,0,1,10.61914,28.73419ZM15.60931,31.84a.51327.51327,0,0,1-.51324.5133H12.13379a.51327.51327,0,0,1-.51325-.5133V29.7356a.91713.91713,0,0,1,.333-.707l1.141-.94244a.81712.81712,0,0,1,1.04077,0l1.141.94244a.91712.91712,0,0,1,.333.707Zm3.619-3.619a.51321.51321,0,0,1-.51324.51324H16.61072a.91706.91706,0,0,1-.707-.333l-.94245-1.141a.81712.81712,0,0,1,0-1.04077l.94245-1.141a.91706.91706,0,0,1,.707-.333h2.10437a.51322.51322,0,0,1,.51324.51325Zm10.39618,3.22644a.30209.30209,0,0,1-.30212.30206H26.95251a.30209.30209,0,0,1-.30212-.30206V30.31665a.30209.30209,0,0,1,.30212-.30206h2.36988a.30209.30209,0,0,1,.30212.30206Zm8.047-.34619-2.81726.77563a.22737.22737,0,0,1-.28772-.21918v-1.5512a.22734.22734,0,0,1,.28772-.21918l2.81726.77557A.22733.22733,0,0,1,37.67151,31.1012Zm7.09906-2.04847a2.37654,2.37654,0,1,1,2.33594-2.37616A2.3622,2.3622,0,0,1,44.77057,29.05273Zm5.83935,5.34583a2.37657,2.37657,0,1,1,2.33594-2.37622A2.35923,2.35923,0,0,1,50.60992,34.39856Zm0-10.69159a2.37657,2.37657,0,1,1,2.33594-2.37622A2.35923,2.35923,0,0,1,50.60992,23.707Zm5.86683,5.34576a2.37654,2.37654,0,1,1,2.33593-2.37616A2.35921,2.35921,0,0,1,56.47675,29.05273Z"/></svg>