<svg id="Layer_1" data-name="Layer 1" xmlns="http://www.w3.org/2000/svg" viewBox="0 0 64 64"><path d="M40.847,25.68007A1.1532,1.1532,0,0,0,42,24.52687V14.56064a.49924.49924,0,0,0-.49922-.49925l-19.00149-.00123A.49925.49925,0,0,0,22,14.55941v9.971a1.153,1.153,0,0,0,1.15319,1.153Z"/><path d="M62.09329,28.42207l.00489.004s-.37783-1.79459-1.43248-5.54117-1.6844-4.95872-2.06223-5.47815-1.60568-2.61315-1.60568-2.61315l-.00367.02836c-.2559-.49811-.36744-1.022-1.24-1.22529-.02384-.1369.07352-.52353-.10555-.59351a9.31464,9.31464,0,0,0-4.23925-1.12182,10.67542,10.67542,0,0,0-3.41335.59676c-.37074.10133-.19711.72992-.23873.99353-.65695-.07885-1.05147.61331-1.694.58208l-2.55374.0077a.49614.49614,0,0,0-.49468.49615v9.914a2.14828,2.14828,0,0,1-2.14872,2.14828l-17.73151-.0033a2.15179,2.15179,0,0,1-2.14941-2.14871c.00178-.00214-.00083-7.86352,0-9.92465a.4895.4895,0,0,0-.49487-.48986c-.86384,0-2.55417,0-2.55417.00006-.64265.03117-1.03692-.661-1.694-.58208-.03245-.26165.12645-.8936-.23866-.99359a10.67837,10.67837,0,0,0-3.41348-.59675,9.31443,9.31443,0,0,0-4.23919,1.12187c-.1842.07169-.07138.45411-.10555.59352-.87251.20321-.98405.72717-1.24,1.22522l-.00367-.02836S5.77387,16.887,5.396,17.40641,4.38858,19.138,3.33381,22.88457,1.90133,28.4258,1.90133,28.4258l.00489-.004C.97039,32.43768-2.84694,49.2826,3.995,51.64518c2.8846.99608,6.04484.62958,8.24874-3.08546a57.64907,57.64907,0,0,0,4.09281-9.806,1.1883,1.1883,0,0,1,.47671-.626c.23592-.172.58661-.42611.85877-.17235a6.72026,6.72026,0,0,0,8.3494-.08947,1.18621,1.18621,0,0,1,.81635-.28322h10.367a1.17808,1.17808,0,0,1,.77326.28346,6.72027,6.72027,0,0,0,8.3494.0896.45911.45911,0,0,1,.5563-.02714,1.54009,1.54009,0,0,1,.77918.82552,57.64887,57.64887,0,0,0,4.09281,9.806c2.2039,3.71509,5.364,4.08124,8.24874,3.08546C66.84539,49.2841,63.03175,32.436,62.09329,28.42207ZM10.03455,19.67769c0-.51709.83984-.937,1.87506-.937s1.87506.41992,1.87506.937v2.00623a.27782.27782,0,0,1-.0586.17486l-.004.00391a.22166.22166,0,0,1-.05072.05444l-1.543,1.598a.31228.31228,0,0,1-.4375,0l-1.543-1.598a.22175.22175,0,0,1-.05078-.05444l-.00391-.00391a.27787.27787,0,0,1-.05859-.17486ZM9.5033,26.00331l-.00391.00391H9.49548a.2736.2736,0,0,1-.17578.05835H7.304c-.51954,0-.94147-.83594-.94147-1.86627s.42193-1.86615.94147-1.86615H9.3197a.27326.27326,0,0,1,.17578.05835h.00391l.00391.0039a.20757.20757,0,0,1,.05078.05048l1.60553,1.53577a.29966.29966,0,0,1,0,.43542L9.55408,25.95278A.20763.20763,0,0,1,9.5033,26.00331Zm4.28137,2.72156c0,.51325-.83991.93311-1.87506.93311s-1.87506-.41986-1.87506-.93311V26.7148a.27825.27825,0,0,1,.05859-.175l.00391-.00384a.22175.22175,0,0,1,.05078-.05444l1.543-1.59791a.3123.3123,0,0,1,.4375,0l1.543,1.59791a.22166.22166,0,0,1,.05072.05444l.004.00384a.2782.2782,0,0,1,.0586.175Zm2.60943-2.6593H14.37842a.29239.29239,0,0,1-.17969-.05835l-.00391-.00391a.20763.20763,0,0,1-.05078-.05053l-1.60553-1.53571a.29966.29966,0,0,1,0-.43542L14.144,22.44588a.20757.20757,0,0,1,.05078-.05048l.00391-.0039a.292.292,0,0,1,.17969-.05835H16.3941c.51954,0,.94141.83588.94141,1.86615S16.91364,26.06557,16.3941,26.06557Zm1.34375-8.92279a1.09688,1.09688,0,1,1,2.19147,0v1.37634a1.09688,1.09688,0,1,1-2.19147,0ZM25.56506,33.5887A3.95447,3.95447,0,1,1,21.02667,29.081,3.96057,3.96057,0,0,1,25.56506,33.5887Zm6.42878.36151A1.7418,1.7418,0,1,1,33.74,32.20839,1.743,1.743,0,0,1,31.99384,33.95021ZM44.07471,17.14278a1.09487,1.09487,0,1,1,2.18725,0v1.37634a1.09486,1.09486,0,1,1-2.18725,0Zm2.202,16.44568a3.95455,3.95455,0,1,1-4.539-4.50733A3.96052,3.96052,0,0,1,46.27673,33.58846Zm3.35364-8.85364a2.21206,2.21206,0,0,1-1.621,1.59772,2.228,2.228,0,1,1,1.621-1.59772Zm.27313-5.86713a2.23695,2.23695,0,1,1,2.72687,2.70972A2.214,2.214,0,0,1,49.9035,18.86769ZM54.33112,29.5a2.21052,2.21052,0,0,1-1.59833,1.61133A2.22964,2.22964,0,1,1,54.33112,29.5Zm4.76019-4.77973a2.21412,2.21412,0,0,1-1.60309,1.60657,2.22779,2.22779,0,1,1,1.60309-1.60657Z"/></svg>