<svg id="Layer_1" data-name="Layer 1" xmlns="http://www.w3.org/2000/svg" viewBox="0 0 64 64"><path d="M63.8551,36.55072c-.37243-2.66931-1.17944-8.38043-7.01471-15.39514s-14.89856-9.06329-14.89856-9.06329l-.50561.06573a12.2782,12.2782,0,0,0-1.97748-2.48676l-.20489-.00756Q31.9,9.39086,24.54126,9.67151a12.278,12.278,0,0,0-1.97748,2.48675l-.50561-.06573s-9.0633,2.04852-14.89856,9.06329S.51733,33.88165.1449,36.551a50.55706,50.55706,0,0,0,.31036,9.93238c.24829,1.73816.62079,3.228,3.60047,4.78s6.14569,2.85553,6.14569,2.85553a2.477,2.477,0,0,0,2.66931-.12415c1.11737-.99323,8.13214-7.38721,8.13214-7.38721a171.852,171.852,0,0,0,21.78985.01264l.20441-.01288s7.01477,6.394,8.13214,7.38721a2.477,2.477,0,0,0,2.66931.12414s3.166-1.30359,6.14569-2.85553,3.35218-3.04181,3.60047-4.78A50.557,50.557,0,0,0,63.8551,36.55072ZM21.57446,35.8045c-3.63354,4.60859-9.60156,5.96155-13.32995,3.022s-3.8053-9.0586-.17176-13.66718,9.60163-5.96155,13.33-3.022S25.208,31.19592,21.57446,35.8045Zm11.82831-1.92285H30.392a1.00876,1.00876,0,0,1,0-2.01751h3.01074a1.00876,1.00876,0,1,1,0,2.01751Zm14.33984-9.72137a2.42728,2.42728,0,1,1-2.42724,2.42731A2.42729,2.42729,0,0,1,47.74261,24.16028Zm-7.58892,5.68005a2.42728,2.42728,0,1,1,2.4273,2.42731A2.42728,2.42728,0,0,1,40.15369,29.84033Zm3.95739,10.95416a3.21924,3.21924,0,1,1,3.21924-3.21923A3.21923,3.21923,0,0,1,44.11108,40.79449Zm6.23877-3.72467a3.21921,3.21921,0,1,1,3.21924-3.21923A3.21924,3.21924,0,0,1,50.34985,37.06982Zm3.02631-9.49829a2.42728,2.42728,0,1,1,2.42725-2.42724A2.42728,2.42728,0,0,1,53.37616,27.57153Zm4.05054,7.54285a3.21921,3.21921,0,1,1,3.21924-3.21918A3.2192,3.2192,0,0,1,57.4267,35.11438Z"/><path d="M18.22488,28.69587a1.7665,1.7665,0,0,0-.43792.05687,4.34562,4.34562,0,0,0-2.16912-2.07412,1.76921,1.76921,0,1,0-3.4457,0,4.3444,4.3444,0,0,0-2.24568,2.24066,1.76921,1.76921,0,1,0,0,3.46405,4.34438,4.34438,0,0,0,2.2365,2.23652,1.76921,1.76921,0,1,0,3.46405,0,4.3429,4.3429,0,0,0,2.30815-2.41131,1.76835,1.76835,0,1,0,.28972-3.51267Z"/></svg>