<svg id="Layer_1" data-name="Layer 1" xmlns="http://www.w3.org/2000/svg" viewBox="0 0 64 64"><path d="M62.06685,31.73212c-.87829-5.15064-2.5934-14.17774-3.84969-15.80419a4.96417,4.96417,0,0,0-1.10776-.96809c-.56057-1.91483-2.99382-3.75772-5.27046-4.49432-2.07913-.6727-7.64213-1.28721-9.29294.04743q-.4147-.01787-.81842-.0185S34.43235,10.37871,32,10.37871s-9.72758.11574-9.72758.11574q-.40306,0-.81842.0185c-1.65081-1.33464-7.21381-.72013-9.29294-.04743-2.27664.7366-4.70989,2.57949-5.27046,4.49432a4.96417,4.96417,0,0,0-1.10776.96809c-1.25629,1.62645-2.9714,10.65355-3.84969,15.80419C.97255,37.36543-.63548,47.07686.26446,49.20323c.74769,2.71041,3.04692,5.0747,5.51508,5.0747a5.28721,5.28721,0,0,0,4.45833-2.40154c2.17373-3.54805,4.25434-8.07263,4.808-9.1432a3.22136,3.22136,0,0,1,3.14762-1.62037L32,41.05259l13.80652.06023a3.22136,3.22136,0,0,1,3.14762,1.62037c.55365,1.07057,2.63426,5.59515,4.808,9.1432a5.28721,5.28721,0,0,0,4.45833,2.40154c2.46816,0,4.76739-2.36429,5.51508-5.0747C64.63548,47.07686,63.02745,37.36543,62.06685,31.73212ZM24.0305,16.70565a1.41781,1.41781,0,1,1-1.42783,1.41777A1.42283,1.42283,0,0,1,24.0305,16.70565Zm-9.752,9.99193a3.71331,3.71331,0,1,1,3.73955-3.71322A3.72646,3.72646,0,0,1,14.27853,26.69758Zm12.69618,6.21663a.40619.40619,0,0,1-.406.403H24.079a.40656.40656,0,0,0-.406.403v2.46983a.40448.40448,0,0,1-.40549.403H20.88623a.40449.40449,0,0,1-.40549-.403V33.72024a.40656.40656,0,0,0-.406-.403H17.58755a.40456.40456,0,0,1-.406-.403V30.55008a.40457.40457,0,0,1,.406-.40305h2.48719a.40653.40653,0,0,0,.406-.403V27.27422a.40613.40613,0,0,1,.40549-.403H23.2675a.40613.40613,0,0,1,.40549.403V29.744a.40653.40653,0,0,0,.406.403h2.48972a.4062.4062,0,0,1,.406.40305Zm1.7467-9.19473a.42377.42377,0,0,1-.42525.42225H26.58239a.42377.42377,0,0,1-.42525-.42225V22.01777a.42376.42376,0,0,1,.42525-.42225h1.71377a.42377.42377,0,0,1,.42525.42225Zm11.1609-7.01383a1.41781,1.41781,0,1,1-1.42783,1.41777A1.42283,1.42283,0,0,1,39.88231,16.70565Zm-4.808,6.163a1.42786,1.42786,0,1,1,1.42783,1.41777A1.42283,1.42283,0,0,1,35.07432,22.86863ZM40.3874,35.43529A3.71331,3.71331,0,1,1,44.127,31.72207,3.72646,3.72646,0,0,1,40.3874,35.43529Zm3.52586-10.09762a2.35337,2.35337,0,1,1,2.37-2.35331A2.3617,2.3617,0,0,1,43.91326,25.33767Zm5.0314,4.32083a2.35337,2.35337,0,1,1,2.37-2.35331A2.36169,2.36169,0,0,1,48.94466,29.6585Zm0-8.64166a2.35337,2.35337,0,1,1,2.37-2.35332A2.3617,2.3617,0,0,1,48.94466,21.01684Zm5.03139,4.32083a2.35337,2.35337,0,1,1,2.37-2.35331A2.36169,2.36169,0,0,1,53.97605,25.33767Z"/></svg>