<svg id="Layer_1" data-name="Layer 1" xmlns="http://www.w3.org/2000/svg" viewBox="0 0 64 64"><path d="M60.35238,29.98323a8.75921,8.75921,0,0,1,.08281-6.40368c.69613-1.65251,1.43755-2.39429,2.38351-4.17569l-.00183-.00158C67.58512,10.32646,56.949.97324,48.57168,6.8394l-.006-.00537-6.338,4.27527H21.77233L15.43433,6.834l-.006.00537C7.04475.97132-3.58379,10.33256,1.18311,19.40228l-.00183.00158c.94615,1.78263,1.68719,2.52227,2.38358,4.1757a8.75765,8.75765,0,0,1,.08266,6.40366C3.12681,31.76108,2.19127,35.05,1.867,36.80842a47.72757,47.72757,0,0,0-.52006,12.713c.55061,5.0063,1.346,6.58409,1.346,6.58409l.00493-.00561a4.412,4.412,0,0,0,4.008,2.888,5.22029,5.22029,0,0,0,5.01173-4.82429c.2753-2.63968.673-5.6738.7342-7.88872.05445-1.97205.54542-12.48233.65243-14.76384a3.16988,3.16988,0,0,1,.98853-2.16907c.94675-1.22486,4.87385-1.03981,5.76127-1.11491a.23054.23054,0,0,1,.23606.21693l.61005,10.89119a.79791.79791,0,0,0,.79945.75006h21.0008a.79791.79791,0,0,0,.79945-.75006l.61-10.89119a.23058.23058,0,0,1,.2361-.217c.89064.07168,4.813-.10793,5.7612,1.115a3.16965,3.16965,0,0,1,.98856,2.169c.107,2.28151.598,12.79179.65243,14.76384.06122,2.21492.4589,5.249.7342,7.88872a5.22029,5.22029,0,0,0,5.01173,4.82429,4.412,4.412,0,0,0,4.00795-2.888l.00494.00561s.79542-1.57779,1.346-6.58409a47.72757,47.72757,0,0,0-.52006-12.713C61.80871,35.05,60.87317,31.76108,60.35238,29.98323ZM14.44026,16.61688a.23554.23554,0,0,1-.23653.23451H11.07516v3.103a.23554.23554,0,0,1-.23652.23451H8.37482a.23554.23554,0,0,1-.23652-.23451v-3.103H5.00973a.23554.23554,0,0,1-.23653-.23451v-2.4437a.2356.2356,0,0,1,.23653-.23458H8.1383v-3.103a.23555.23555,0,0,1,.23652-.23457h2.46382a.23555.23555,0,0,1,.23652.23457v3.103h3.12857a.2356.2356,0,0,1,.23653.23458Zm3.9846,4.58093a2.03295,2.03295,0,1,1,2.04962-2.03291A2.04135,2.04135,0,0,1,18.42486,21.19781ZM23.656,23.53407a2.03294,2.03294,0,1,1,2.04968-2.03284A2.04124,2.04124,0,0,1,23.656,23.53407ZM36.128,14.181l-2.02931,1.42249a.3629.3629,0,0,1-.253.10256H31.56152a.36289.36289,0,0,1-.253-.10256L29.27922,14.181a.35791.35791,0,0,1,.253-.614H35.875A.35791.35791,0,0,1,36.128,14.181Zm4.2618,9.35309a2.03294,2.03294,0,1,1,2.04968-2.03284A2.04125,2.04125,0,0,1,40.3898,23.53407ZM45.621,21.19781a2.03295,2.03295,0,1,1,2.04961-2.03291A2.04135,2.04135,0,0,1,45.621,21.19781Zm13.60574-4.58093a.23554.23554,0,0,1-.23653.23451H55.86168v3.103a.23554.23554,0,0,1-.23652.23451H53.16134a.23554.23554,0,0,1-.23652-.23451v-3.103H49.79624a.23554.23554,0,0,1-.23652-.23451v-2.4437a.2356.2356,0,0,1,.23652-.23458h3.12858v-3.103a.23555.23555,0,0,1,.23652-.23457h2.46382a.23555.23555,0,0,1,.23652.23457v3.103h3.12857a.2356.2356,0,0,1,.23653.23458Z"/></svg>