<svg id="Layer_1" data-name="Layer 1" xmlns="http://www.w3.org/2000/svg" viewBox="0 0 64 64"><path d="M63.98122,26.43189c.17192-3.35726-.84281-6.87646-2.7835-8.8355-1.61644-1.63519-4.50189-2.51-7.4769-2.589H10.28018c-2.97517.079-5.86054.95385-7.477,2.589C.86271,19.55543-.153,23.07463.01874,26.43189L.0174,38.60487c.07809,3.0098.94487,5.93236,2.5613,7.56755,1.79408,1.81679,4.9137,2.82023,7.99822,2.82023H53.42016c3.08456,0,6.2079-1.00344,8.00026-2.82023,1.61644-1.63519,2.48324-4.55775,2.5612-7.56755ZM3.23269,22.85146a2.34279,2.34279,0,1,1,2.34265,2.36785A2.35694,2.35694,0,0,1,3.23269,22.85146ZM9.70621,39.10651a.26648.26648,0,0,1-.26548.26464H6.98092a.26647.26647,0,0,1-.26547-.26464V37.71225a.26647.26647,0,0,1,.26547-.26463H9.44073a.26648.26648,0,0,1,.26548.26463Zm1.42905-8.0831a.26488.26488,0,0,1-.2616.26662H9.39387a.2674.2674,0,0,0-.2616.26661v1.49691a.26565.26565,0,0,1-.26159.26463H7.551a.26313.26313,0,0,1-.26159-.26463V31.55664a.2674.2674,0,0,0-.2616-.26661H5.54411a.26412.26412,0,0,1-.25768-.26662v-1.333a.26412.26412,0,0,1,.25768-.26662H7.02778a.26566.26566,0,0,0,.2616-.26463V27.66223a.26484.26484,0,0,1,.26159-.26661H8.87068a.26739.26739,0,0,1,.26159.26661v1.49691a.26566.26566,0,0,0,.2616.26463h1.47979a.26488.26488,0,0,1,.2616.26662ZM24.06669,16.69188H39.92647a1.1257,1.1257,0,0,1,0,2.25133H24.06669a1.1257,1.1257,0,0,1,0-2.25133Zm7.80887,30.46821a1.31736,1.31736,0,1,1,1.30407-1.31932A1.31413,1.31413,0,0,1,31.87556,47.16009Zm14.41513-.82953a.264.264,0,0,1-.26547.26451H44.85776a.2631.2631,0,0,1-.26147-.26451V45.29193a.26319.26319,0,0,1,.26147-.26491h1.16746a.264.264,0,0,1,.26547.26491Zm2.32692.383a.87283.87283,0,1,1,.86679-.87281A.86828.86828,0,0,1,48.61761,46.71358Zm.86679-4.82631a.44837.44837,0,0,1-.441.44611H14.71171a.44914.44914,0,0,1-.44512-.44611V22.34788a.44747.44747,0,0,1,.44512-.44433h34.3317a.44667.44667,0,0,1,.441.44433Zm3.6391-.67947a.87293.87293,0,1,1,.86679-.87281A.865.865,0,0,1,53.1235,41.2078Zm0-3.25858a.87291.87291,0,1,1,.86679-.87288A.86494.86494,0,0,1,53.1235,37.94922Zm-.03918-6.39258a1.184,1.184,0,1,1,1.17145-1.18492A1.17674,1.17674,0,0,1,53.08432,31.55664Zm2.80748,2.54755a1.185,1.185,0,1,1,1.17106-1.18492A1.17819,1.17819,0,0,1,55.8918,34.10419Zm0-5.15241a1.185,1.185,0,1,1,1.17106-1.18488A1.17689,1.17689,0,0,1,55.8918,28.95178ZM58.64412,31.527a1.184,1.184,0,1,1,1.17145-1.18492A1.1764,1.1764,0,0,1,58.64412,31.527Zm-.38262-6.18919A2.369,2.369,0,1,1,60.6044,22.97,2.35651,2.35651,0,0,1,58.2615,25.33781Z"/></svg>