<svg version="1.1" id="Layer_1" xmlns="http://www.w3.org/2000/svg" x="0" y="0" viewBox="0 0 64 64" xml:space="preserve"><style></style><path d="M63.782 42.228c-.325-2.912-1-5.25-1-5.25s-4.664-16.855-7.876-21.475a5.868 5.868 0 00-.476-.595 4.239 4.239 0 00-.668-1.254c-.5-.63-1.217-1.763-3.418-2.728-.93-.407-2.495-.871-3.36-.997-.653-.096-2.632-.231-3.285-.132-.343.052-.66.425-.66.425-.235.161-.587.748-1.379.763 0 0-7.273-.067-9.697-.066-2.406 0-9.623.066-9.623.066-.792-.015-1.144-.602-1.379-.763 0 0-.317-.373-.66-.425-.653-.1-2.632.036-3.286.132-.864.126-2.43.59-3.359.997-2.201.965-2.919 2.098-3.418 2.728a4.239 4.239 0 00-.669 1.254c-.17.189-.33.387-.475.595-3.212 4.62-7.877 21.474-7.877 21.474s-.674 2.34-.999 5.25c-.823 5.8.911 8.436 1.461 9.118s2.883 3.3 4.885 2.839c2.002-.463 5.452-5.086 5.452-5.086 1-1.238 2.027-2.552 2.975-3.76 1.531-1.95 3.042-2.901 4.205-3.362.311-.124.637-.208.968-.259a10.38 10.38 0 011.472-.119h20.728c.505.005.995.046 1.472.12.331.05.657.134.968.258 1.163.46 2.674 1.412 4.205 3.362.948 1.208 1.976 2.522 2.975 3.76 0 0 3.45 4.623 5.452 5.086 2.002.462 4.335-2.157 4.885-2.839s2.284-3.317 1.461-9.117zM48.388 15.483a2.23 2.23 0 110 4.46 2.23 2.23 0 010-4.46zM15.605 25.505a3.601 3.601 0 110-7.203 3.601 3.601 0 010 7.203zm7.898 11.62a4.811 4.811 0 110-9.622 4.811 4.811 0 010 9.623zM27.385 23.2a1.379 1.379 0 110-2.758 1.379 1.379 0 010 2.758zm5.309 3.385h-1.388a1.085 1.085 0 110-2.17h1.388a1.085 1.085 0 010 2.17zM32 17.875a2.435 2.435 0 110-4.87 2.435 2.435 0 010 4.87zm3.325 3.946a1.379 1.379 0 112.758 0 1.379 1.379 0 01-2.758 0zm5.054 13.255a3.601 3.601 0 110-7.203 3.601 3.601 0 010 7.203zm3.697-10.865a2.23 2.23 0 110-4.46 2.23 2.23 0 010 4.46zm4.312 4.269a2.23 2.23 0 110-4.46 2.23 2.23 0 010 4.46zm4.283-4.269a2.23 2.23 0 110-4.46 2.23 2.23 0 010 4.46z"/><path d="M25.14 30.33v-1.94a.224.224 0 00-.146-.21 4.418 4.418 0 00-2.187-.213c-.277.042-.542.12-.8.217a.221.221 0 00-.14.208v1.938a.348.348 0 01-.349.348H19.58a.221.221 0 00-.207.142 3.97 3.97 0 00-.218.799 4.418 4.418 0 00.213 2.187.224.224 0 00.21.145h1.94c.192 0 .348.156.348.348v1.94c0 .092.057.178.145.21.67.242 1.412.332 2.188.213.276-.042.541-.12.798-.217a.221.221 0 00.142-.208V34.3c0-.192.156-.348.348-.348h1.938a.221.221 0 00.208-.142c.097-.257.175-.522.218-.799a4.418 4.418 0 00-.214-2.187.224.224 0 00-.21-.145h-1.94a.348.348 0 01-.348-.348z"/></svg>