<svg id="Layer_1" data-name="Layer 1" xmlns="http://www.w3.org/2000/svg" viewBox="0 0 64 64"><path d="M62.95312,32.39056c-.89379-5.44171-3.31347-14.03961-5.85333-18.47363-2.18652-4.017-8.28808-4.2019-12.62439-3.77655l.00012.00043c-.41809.058-2.07751,1.18011-3.13922,1.61944a17.68616,17.68616,0,0,1-5.75964,1.105h-7.154a17.73606,17.73606,0,0,1-5.75952-1.105c-1.05658-.43957-2.72132-1.56317-3.13855-1.61987C15.18829,9.715,9.08673,9.8999,6.90021,13.91693,4.36035,18.351,1.94067,26.94885,1.04688,32.39056.37933,37.98785-.80206,47.626.80859,50.688a4.82419,4.82419,0,0,0,5.62476,3.18848,14.80351,14.80351,0,0,0,5.26929-2.51526c2.44531-1.894,5.43554-5.26142,7.75372-6.31684a28.82476,28.82476,0,0,1,7.42535-1.97235c2.55866-.04321,7.67743-.05029,10.236,0a28.96911,28.96911,0,0,1,7.42926,1.97223,23.94456,23.94456,0,0,1,4.82818,3.723c1.88739,2.13617,5.67859,4.69428,8.19141,5.10871a4.824,4.824,0,0,0,5.62488-3.188C64.80206,47.626,63.62067,37.98785,62.95312,32.39056ZM24.55762,20.10114h.91986a1.3447,1.3447,0,0,1,0,2.68914h-.91986a1.34473,1.34473,0,0,1,0-2.68914Zm-11.47028,5.418A4.44211,4.44211,0,1,1,17.47,21.07935,4.41336,4.41336,0,0,1,13.08734,25.5191Zm9.03479,13.038A5.92553,5.92553,0,1,1,27.9657,32.6322,5.88444,5.88444,0,0,1,22.12213,38.55713Zm9.87854-13.65985a3.45587,3.45587,0,1,1,3.40808-3.45355A3.42966,3.42966,0,0,1,32.00067,24.89728Zm6.46063-4.74072h.92188a1.3427,1.3427,0,0,1,0,2.68524H38.4613a1.34281,1.34281,0,0,1,0-2.68524Zm2.65619,16.91931a4.44412,4.44412,0,1,1,4.38263-4.44367A4.41184,4.41184,0,0,1,41.11749,37.07587ZM45.89856,23.4101a2.3309,2.3309,0,1,1,2.30475-2.32874A2.31411,2.31411,0,0,1,45.89856,23.4101Zm5.00793,5.07739a2.333,2.333,0,1,1,2.29676-2.33277A2.31277,2.31277,0,0,1,50.90649,28.48749Zm.05841-10.15875A2.331,2.331,0,1,1,53.26166,15.996,2.31264,2.31264,0,0,1,50.9649,18.32874ZM55.996,23.40216a2.331,2.331,0,1,1,2.29676-2.32873A2.30921,2.30921,0,0,1,55.996,23.40216Z"/><path d="M27.09386,31.409a.44033.44033,0,0,0-.37029-.32619l-1.56847-.21842A1.26511,1.26511,0,0,1,23.89,29.59924L23.66215,27.963a.44056.44056,0,0,0-.32264-.36959A5.05347,5.05347,0,0,0,20.905,27.5933a.44052.44052,0,0,0-.32271.36959l-.22792,1.63635a1.2651,1.2651,0,0,1-1.26507,1.26513l-1.5686.21842a.44031.44031,0,0,0-.3703.32625,5.24928,5.24928,0,0,0,0,2.44627.44031.44031,0,0,0,.3703.32624l1.5686.21843a1.26509,1.26509,0,0,1,1.26507,1.26512l.22792,1.63639a.44053.44053,0,0,0,.32272.3696,5.055,5.055,0,0,0,2.4345-.00011.44054.44054,0,0,0,.32265-.3696L23.89,35.6651A1.2651,1.2651,0,0,1,25.1551,34.4l1.56848-.21843a.44032.44032,0,0,0,.37028-.32619,5.2448,5.2448,0,0,0,0-2.44638Z"/></svg>