<svg xmlns="http://www.w3.org/2000/svg" viewBox="0 0 64 64" class="ccsvg ccsvg--duotone ccsvg--atari-jaguar"><path class="ccsvg__primary" d="M19.303 18.051a.376.376 0 0 1 .432.357l.002.013a6.93 6.93 0 0 1 0 2.208l-.002.013a.376.376 0 0 1-.432.356l-1.526-.03a.342.342 0 0 0-.394.37l.044 1.441a.369.369 0 0 1-.382.406l-.029.004a8.533 8.533 0 0 1-2.368-.004.37.37 0 0 1-.382-.4l.022-1.453a.342.342 0 0 0-.394-.365l-1.578.032a.376.376 0 0 1-.431-.356l-.003-.015a6.927 6.927 0 0 1 0-2.207l.003-.014a.376.376 0 0 1 .431-.357l1.578.033a.342.342 0 0 0 .394-.365l-.022-1.453a.37.37 0 0 1 .382-.4 8.536 8.536 0 0 1 2.368-.004l.03.004a.369.369 0 0 1 .381.405l-.044 1.442a.342.342 0 0 0 .394.37ZM63.81 38.856a48.876 48.876 0 0 1-1.076 8.25 46.251 46.251 0 0 1-3.042 8.412.183.183 0 0 1-.016.033l-.024.05c-.68.797-5.927.983-7.35 1.019a1.482 1.482 0 0 1-.674-.143l-.025-.012a1.49 1.49 0 0 0-.648-.143l-3.888.028a1.49 1.49 0 0 1-.898-.293l-.391-.29a1.49 1.49 0 0 0-.602-.266H18.824a1.49 1.49 0 0 0-.602.266l-.39.29a1.49 1.49 0 0 1-.9.293l-3.887-.028a1.49 1.49 0 0 0-.648.143l-.025.012a1.482 1.482 0 0 1-.674.143c-1.423-.036-6.67-.222-7.35-1.02l-.024-.049a.183.183 0 0 1-.017-.033 46.251 46.251 0 0 1-3.041-8.412 48.876 48.876 0 0 1-1.076-8.25 24.35 24.35 0 0 1-.157-4.353c1.023-21.261 13.322-24.406 17.476-24.86a2.656 2.656 0 0 0 1.635-.693 2.96 2.96 0 0 1 1.566-.687 87.399 87.399 0 0 1 11.314-.883 97.583 97.583 0 0 1 10.436.699 4.411 4.411 0 0 1 2.403.888 2.552 2.552 0 0 0 1.575.67c4.102.434 16.502 3.514 17.53 24.866a24.35 24.35 0 0 1-.158 4.353ZM20.88 19.525a4.907 4.907 0 0 0-5.069-4.727 4.907 4.907 0 0 0-5.069 4.727 4.907 4.907 0 0 0 5.069 4.726 4.907 4.907 0 0 0 5.069-4.726Zm5.497 32.204a.753.753 0 0 0-.754-.754h-3.22a.753.753 0 0 0 0 1.507h3.22a.753.753 0 0 0 .754-.753Zm0-5.176a.753.753 0 0 0-.754-.753h-3.22a.753.753 0 0 0 0 1.507h3.22a.753.753 0 0 0 .754-.754Zm.125-5.175a.753.753 0 0 0-.753-.753h-3.22a.753.753 0 0 0 0 1.507h3.22a.753.753 0 0 0 .753-.754Zm0-5.175a.753.753 0 0 0-.753-.754h-3.22a.753.753 0 0 0 0 1.507h3.22a.753.753 0 0 0 .753-.753Zm1.222-10.278 2.002-2.69a.701.701 0 0 0-1.125-.837l-2.002 2.69a.701.701 0 0 0 1.125.837Zm6.589 25.804a.753.753 0 0 0-.754-.754h-3.22a.753.753 0 0 0 0 1.507h3.22a.753.753 0 0 0 .754-.753Zm0-5.176a.753.753 0 0 0-.754-.753h-3.22a.753.753 0 0 0 0 1.507h3.22a.753.753 0 0 0 .754-.754Zm.125-5.175a.753.753 0 0 0-.753-.753h-3.22a.753.753 0 0 0 0 1.507h3.22a.753.753 0 0 0 .753-.754Zm0-5.175a.753.753 0 0 0-.753-.754h-3.22a.753.753 0 0 0 0 1.507h3.22a.753.753 0 0 0 .753-.753Zm-.106-13.95a.701.701 0 0 0-.981.143l-2.002 2.69a.701.701 0 0 0 1.125.837l2.002-2.69a.701.701 0 0 0-.144-.98Zm7.894 29.544a.753.753 0 0 0-.753-.753h-3.22a.753.753 0 1 0 0 1.507h3.22a.753.753 0 0 0 .753-.754Zm0-5.175a.753.753 0 0 0-.753-.753h-3.22a.753.753 0 0 0 0 1.507h3.22a.753.753 0 0 0 .753-.754Zm.126-5.175a.753.753 0 0 0-.754-.754h-3.22a.753.753 0 1 0 0 1.507h3.22a.753.753 0 0 0 .754-.753Zm0-5.176a.753.753 0 0 0-.754-.753h-3.22a.753.753 0 1 0 0 1.507h3.22a.753.753 0 0 0 .754-.754ZM45.76 25.71c-1.14-.61-1.907-1.033-2.86-1.457-.59-.262-1.722-1.06-2.57.265l-1.662 2.856a1.877 1.877 0 0 0-.232 1.305 1.1 1.1 0 0 0 1.179.95c1.59.027 4.317.027 4.317.027.436 0 .927.239 1.51-.874s.596-1.133.768-1.51a1.017 1.017 0 0 0-.45-1.562Zm3.735-4.98c-.822-.477-3.603-1.827-3.603-1.827s-1.192-.61-1.8.29L42.66 21.02a1.072 1.072 0 0 0 .397 1.696c1.091.616 2.967 1.488 3.348 1.663a1.458 1.458 0 0 0 1.923-.18c.52-.654.997-1.322 1.22-1.639a2.034 2.034 0 0 0 .32-.703.952.952 0 0 0-.374-1.128Zm4.021-4.65c-.769-.447-3.158-1.437-3.46-1.561a1.308 1.308 0 0 1-.056-.025c-.167-.077-1.171-.502-1.738.249a1.414 1.414 0 0 1-.13.145l-1.312 1.315a1.324 1.324 0 0 0-.334.542.997.997 0 0 0 .519 1.207 1.354 1.354 0 0 0 .173.093l3.266 1.47c.021.009.043.019.064.03a1.485 1.485 0 0 0 1.794-.245c.689-.742 1.046-1.073 1.268-1.39a2.033 2.033 0 0 0 .321-.703.952.952 0 0 0-.375-1.128Z"/><path class="ccsvg__secondary" d="M38.252 52.57a.773.773 0 0 1 0-1.546h3.22a.773.773 0 1 1 0 1.546Zm-7.913-.068a.773.773 0 1 1 0-1.546h3.22a.773.773 0 0 1 0 1.546Zm-7.937 0a.773.773 0 0 1 0-1.546h3.22a.773.773 0 1 1 0 1.546Zm15.85-5.107a.773.773 0 0 1 0-1.546h3.22a.773.773 0 1 1 0 1.546Zm-7.913-.069a.773.773 0 1 1 0-1.546h3.22a.773.773 0 0 1 0 1.546Zm-7.937 0a.773.773 0 0 1 0-1.546h3.22a.773.773 0 1 1 0 1.546Zm15.976-5.106a.773.773 0 1 1 0-1.546h3.22a.773.773 0 0 1 0 1.546Zm-7.913-.069a.773.773 0 1 1 0-1.546h3.219a.773.773 0 1 1 0 1.546Zm-7.937 0a.773.773 0 1 1 0-1.546h3.22a.773.773 0 0 1 0 1.546Zm15.85-5.107a.773.773 0 1 1 0-1.546h3.22a.773.773 0 0 1 0 1.546Zm-7.913-.068a.773.773 0 1 1 0-1.546h3.219a.773.773 0 1 1 0 1.546Zm-7.937 0a.773.773 0 1 1 0-1.546h3.22a.773.773 0 0 1 0 1.546Zm21.813-7.28c-.073 0-.145-.005-.214-.01a2.424 2.424 0 0 0-.194-.01s-2.729 0-4.318-.027a1.124 1.124 0 0 1-1.198-.967 1.89 1.89 0 0 1 .233-1.319l1.663-2.857a1.387 1.387 0 0 1 1.19-.752 2.721 2.721 0 0 1 1.175.37c.083.04.16.079.23.11.84.373 1.524.74 2.47 1.247l.392.21a1.028 1.028 0 0 1 .471 1.561c-.166.363-.193.416-.606 1.205l-.175.334c-.417.796-.784.906-1.12.906Zm-17.18-3.468a.713.713 0 0 1-.43-.143.723.723 0 0 1-.149-1.01l2.002-2.689a.723.723 0 0 1 .58-.29.713.713 0 0 1 .429.142.72.72 0 0 1 .147 1.01l-2 2.689a.722.722 0 0 1-.58.29Zm4.75-.002a.721.721 0 0 1-.579-1.152l2.002-2.69a.723.723 0 0 1 .58-.29.72.72 0 0 1 .576 1.152l-2 2.69a.723.723 0 0 1-.58.29Zm15.465-1.538a2.114 2.114 0 0 1-.914-.26c-.432-.2-2.321-1.078-3.413-1.695a1.205 1.205 0 0 1-.663-.797 1.281 1.281 0 0 1 .26-.928l1.43-1.827a1.108 1.108 0 0 1 .972-.5 2.116 2.116 0 0 1 .853.203c.028.013 2.791 1.356 3.603 1.828a.973.973 0 0 1 .386 1.15 2.064 2.064 0 0 1-.325.71 37.05 37.05 0 0 1-1.22 1.639 1.24 1.24 0 0 1-.968.477Zm-31.566-.417a4.931 4.931 0 0 1-5.088-4.746 4.932 4.932 0 0 1 5.088-4.747 4.932 4.932 0 0 1 5.088 4.747 4.932 4.932 0 0 1-5.088 4.746Zm-1.872-3.327a.384.384 0 0 1 .288.127.333.333 0 0 1 .082.263l-.023 1.45a.324.324 0 0 0 .081.257.376.376 0 0 0 .282.124 8.543 8.543 0 0 0 2.366.004.41.41 0 0 0 .315-.13.318.318 0 0 0 .078-.257l-.044-1.444a.326.326 0 0 1 .08-.263.382.382 0 0 1 .29-.13s1.58.033 1.586.033a.397.397 0 0 0 .29-.096.328.328 0 0 0 .107-.24 6.925 6.925 0 0 0 .002-2.218.36.36 0 0 0-.367-.356l-1.586.033a.398.398 0 0 1-.322-.127.327.327 0 0 1-.08-.265l.044-1.44a.32.32 0 0 0-.078-.258.373.373 0 0 0-.284-.126 8.654 8.654 0 0 0-1.198-.085 8.513 8.513 0 0 0-1.196.085.378.378 0 0 0-.285.124.322.322 0 0 0-.08.254l.022 1.454a.327.327 0 0 1-.083.261.382.382 0 0 1-.286.127l-1.63-.035a.364.364 0 0 0-.405.337 6.925 6.925 0 0 0-.002 2.218.36.36 0 0 0 .368.356Zm37.369-1.183a1.84 1.84 0 0 1-.808-.2l-3.33-1.5a1.267 1.267 0 0 1-.175-.094 1.018 1.018 0 0 1-.527-1.23 1.36 1.36 0 0 1 .338-.549l1.312-1.314a1.337 1.337 0 0 0 .13-.145 1.11 1.11 0 0 1 .933-.446 2.097 2.097 0 0 1 .829.192c.328.137 2.747 1.139 3.516 1.586a.973.973 0 0 1 .386 1.15 2.064 2.064 0 0 1-.324.71 7.415 7.415 0 0 1-.68.767c-.165.172-.36.375-.59.625a1.333 1.333 0 0 1-1.01.448Z" opacity=".5"/></svg>