<svg xmlns="http://www.w3.org/2000/svg" viewBox="0 0 64 64" class="ccsvg ccsvg--duotone ccsvg--dreamcast"><path class="ccsvg__primary" d="M25.092 21.779v-6.433a3.014 3.014 0 0 1 3.01-3h7.796a3.014 3.014 0 0 1 3.01 3v6.433a3.013 3.013 0 0 1-3.01 3h-7.796a3.013 3.013 0 0 1-3.01-3Zm37.12 11.306a98.755 98.755 0 0 1-2.182 15.387 54.118 54.118 0 0 1-3.04 9.49 36.024 36.024 0 0 1-2.997 5.271 1.676 1.676 0 0 1-1.851.703 50.92 50.92 0 0 0-1.94-7.38c-.528-1.318-.44-1.626-3.7-2.241a108.2 108.2 0 0 0-12.869-1.67A35.424 35.424 0 0 0 32 52.598c-.539 0-1.082.023-1.633.049a108.2 108.2 0 0 0-12.868 1.67c-3.261.614-3.173.922-3.701 2.24a50.92 50.92 0 0 0-1.94 7.38 1.676 1.676 0 0 1-1.85-.703 36.024 36.024 0 0 1-2.998-5.272 54.118 54.118 0 0 1-3.04-9.489 98.755 98.755 0 0 1-2.182-15.387c-.89-11.382.496-16.298 1.437-18.644a17.445 17.445 0 0 1 .97-2.053 1.685 1.685 0 0 1 .7-.599c1.66-.788 8.554-2.302 8.554-2.302a22.937 22.937 0 0 1 7.34-6.545v19.636a11.212 11.212 0 1 0 22.423 0l.002-.002V2.941a22.938 22.938 0 0 1 7.339 6.545s6.895 1.514 8.554 2.302l-.002.001a1.684 1.684 0 0 1 .7.6 17.445 17.445 0 0 1 .97 2.052c.941 2.346 2.327 7.262 1.437 18.644ZM9.336 24.78a4.569 4.569 0 1 0-4.583-4.57 4.576 4.576 0 0 0 4.583 4.57Zm8.747 9.972c0-.873-.163-1.581-.364-1.581h-3.338v-3.328c0-.2-.71-.363-1.587-.363s-1.586.163-1.586.363v3.328H7.87c-.201 0-.364.708-.364 1.581s.163 1.582.364 1.582h3.338v3.328c0 .2.71.362 1.586.362s1.587-.162 1.587-.362v-3.328h3.338c.2 0 .364-.708.364-1.582Zm16.839 13.956a31.72 31.72 0 0 0-2.636-4.553l-.137-.197a.172.172 0 0 0-.298 0l-.137.197a31.72 31.72 0 0 0-2.636 4.553.172.172 0 0 0 .134.257 32.471 32.471 0 0 0 5.576 0 .172.172 0 0 0 .134-.257ZM49.255 25.97a2.528 2.528 0 1 0-2.529 2.521 2.525 2.525 0 0 0 2.529-2.52Zm5.486 5.338a2.528 2.528 0 1 0-2.528 2.52 2.525 2.525 0 0 0 2.528-2.52Zm0-10.675a2.528 2.528 0 1 0-2.528 2.52 2.525 2.525 0 0 0 2.528-2.52Zm5.487 5.337a2.528 2.528 0 1 0-2.529 2.521 2.525 2.525 0 0 0 2.529-2.52Z"/><path class="ccsvg__secondary" d="M4.752 20.217a4.583 4.583 0 1 1 4.584 4.569 4.576 4.576 0 0 1-4.584-4.569Zm13.33 14.541c0-.873-.162-1.581-.363-1.581h-3.338v-3.328c0-.2-.71-.362-1.587-.362s-1.586.162-1.586.362v3.328H7.87c-.201 0-.364.708-.364 1.581s.163 1.582.364 1.582h3.338v3.328c0 .2.71.362 1.586.362s1.587-.162 1.587-.362V36.34h3.338c.2 0 .363-.708.363-1.582Zm16.84 13.956a31.72 31.72 0 0 0-2.636-4.553l-.137-.197a.172.172 0 0 0-.298 0l-.137.197a31.72 31.72 0 0 0-2.636 4.553.172.172 0 0 0 .134.257 32.47 32.47 0 0 0 5.576 0 .172.172 0 0 0 .134-.257Zm8.29-45.776v19.647a11.212 11.212 0 1 1-22.424 0V2.93a22.84 22.84 0 0 1 22.424.008Zm-4.304 12.415a3.014 3.014 0 0 0-3.01-3h-7.796a3.014 3.014 0 0 0-3.01 3v6.433a3.014 3.014 0 0 0 3.01 3h7.796a3.014 3.014 0 0 0 3.01-3Zm10.347 10.624a2.528 2.528 0 1 0-2.529 2.521 2.524 2.524 0 0 0 2.529-2.52Zm5.486 5.338a2.528 2.528 0 1 0-2.528 2.52 2.525 2.525 0 0 0 2.528-2.52Zm0-10.675a2.528 2.528 0 1 0-2.528 2.52 2.525 2.525 0 0 0 2.528-2.52Zm5.487 5.337a2.528 2.528 0 1 0-2.529 2.521 2.525 2.525 0 0 0 2.529-2.52Z" opacity=".5"/></svg>