<svg xmlns="http://www.w3.org/2000/svg" viewBox="0 0 64 64" class="ccsvg ccsvg--duotone ccsvg--gamecube"><path class="ccsvg__primary" d="M63.482 31.504s-.429-4.234-.59-6.535a11.313 11.313 0 0 0-9.307-12.508C49.073 9.699 41.095 7.86 32 7.86c-9.123 0-17.123 1.849-21.628 4.625A11.376 11.376 0 0 0 1.15 23.653c0 .125.015.245.019.368-.002.032-.009.063-.01.095-.08 1.852-.641 7.387-.641 7.387-.932 7.02-.531 17.048.602 20.791 1.132 3.743 3.863 3.81 3.863 3.81 5.587.828 5.91-13.382 6.448-15.769a5.008 5.008 0 0 1 .294-.912.73.73 0 0 1 1.33-.053l.122.249a9.858 9.858 0 0 1 .509 1.345 8.434 8.434 0 0 0 10.588 5.36 7.943 7.943 0 0 0 5.412-6.504 8.132 8.132 0 0 0-2.358-7.01 15.086 15.086 0 0 1-1.316-1.442 2.082 2.082 0 0 1-.554-1.196.572.572 0 0 1 .277-.495 22.22 22.22 0 0 1 6.265-.66 22.167 22.167 0 0 1 6.261.66.592.592 0 0 1 .278.536 2.116 2.116 0 0 1-.55 1.155 15.087 15.087 0 0 1-1.317 1.442 8.132 8.132 0 0 0-2.358 7.01 7.943 7.943 0 0 0 5.412 6.504 8.434 8.434 0 0 0 10.588-5.36 9.858 9.858 0 0 1 .51-1.345l.122-.249a.73.73 0 0 1 1.33.053 5.007 5.007 0 0 1 .293.912c.537 2.387.86 16.597 6.448 15.768 0 0 2.73-.066 3.864-3.809 1.132-3.743 1.533-13.772.601-20.79ZM12.25 29.262a5.034 5.034 0 0 1-5.027-5.04 5.113 5.113 0 0 1 5.027-5.048 5.044 5.044 0 0 1 0 10.088Zm13.535 7.626a.176.176 0 0 1 .176.176v2.666a.173.173 0 0 1-.173.172h-2.292a.172.172 0 0 0-.172.172v2.301a.173.173 0 0 1-.172.172h-2.66a.173.173 0 0 1-.172-.172v-2.3a.173.173 0 0 0-.172-.173h-2.293a.172.172 0 0 1-.171-.172v-2.67a.173.173 0 0 1 .172-.172h2.292a.172.172 0 0 0 .172-.172V34.42a.177.177 0 0 1 .177-.176h2.651a.172.172 0 0 1 .172.172v2.3a.172.172 0 0 0 .173.173Zm6.154-10.776a1.517 1.517 0 1 1 1.512-1.516 1.512 1.512 0 0 1-1.512 1.516Zm9.693 1.131a2.426 2.426 0 1 1 2.95 2.964 2.415 2.415 0 0 1-2.95-2.964Zm5.174 11.923a4.541 4.541 0 1 1-5.2-5.228 4.565 4.565 0 0 1 5.2 5.228Zm-.827-20.574a1.617 1.617 0 0 1 .301-1.522 5.441 5.441 0 0 1 2.305-1.646 4.452 4.452 0 0 1 3.621.34 1.606 1.606 0 0 1 .656 1.298 1.63 1.63 0 0 1-1.593 1.603 7.885 7.885 0 0 0-1.094.11c-.313.074-.567.18-.871.274-.821.258-1.043.64-1.765.654a1.565 1.565 0 0 1-1.56-1.11Zm9.036 6.181a3.733 3.733 0 1 1-4.273-4.296 3.75 3.75 0 0 1 4.273 4.296Zm4.796.675a1.588 1.588 0 0 1-1.288.663 1.631 1.631 0 0 1-1.598-1.603 7.854 7.854 0 0 0-.11-1.094c-.074-.317-.18-.572-.273-.877-.254-.801-.618-1.034-.65-1.709a1.633 1.633 0 0 1 1.36-1.685 1.6 1.6 0 0 1 1.263.36 5.52 5.52 0 0 1 1.64 2.312 4.473 4.473 0 0 1-.344 3.633Z"/><path class="ccsvg__secondary" d="M42.324 43.01a4.552 4.552 0 0 1-3.458-1.591 4.616 4.616 0 0 1-1.045-3.714 4.565 4.565 0 0 1 3.782-3.787 4.666 4.666 0 0 1 .72-.056 4.55 4.55 0 0 1 3.458 1.592 4.614 4.614 0 0 1 1.044 3.715 4.563 4.563 0 0 1-3.782 3.786 4.756 4.756 0 0 1-.719.056Zm-21.832-.444a.192.192 0 0 1-.191-.191v-2.3a.153.153 0 0 0-.154-.153h-2.292a.192.192 0 0 1-.19-.192v-2.67a.192.192 0 0 1 .191-.19h2.292a.153.153 0 0 0 .153-.153v-2.298a.195.195 0 0 1 .196-.195h2.651a.192.192 0 0 1 .192.191v2.3a.153.153 0 0 0 .152.154h2.293a.195.195 0 0 1 .196.195v2.665a.192.192 0 0 1-.193.193h-2.292a.153.153 0 0 0-.152.152v2.301a.192.192 0 0 1-.193.191ZM43.98 30.301a2.426 2.426 0 0 1-1.918-.935 2.451 2.451 0 0 1 1.31-3.89 2.59 2.59 0 0 1 .607-.075 2.427 2.427 0 0 1 1.92.935 2.451 2.451 0 0 1-1.312 3.891 2.583 2.583 0 0 1-.607.074Zm-31.73-1.02a5.036 5.036 0 0 1-3.55-8.618 4.986 4.986 0 0 1 3.549-1.509 5.064 5.064 0 0 1 .001 10.128Zm39.082-1.343a3.743 3.743 0 0 1-2.845-1.309 3.794 3.794 0 0 1-.86-3.056 3.75 3.75 0 0 1 3.112-3.115 3.89 3.89 0 0 1 .592-.045 3.742 3.742 0 0 1 2.844 1.307 3.799 3.799 0 0 1 .86 3.056 3.753 3.753 0 0 1-3.111 3.116 3.89 3.89 0 0 1-.592.046Zm-19.393-1.806a1.537 1.537 0 1 1 1.532-1.536 1.534 1.534 0 0 1-1.532 1.536Zm26.583-.001a1.645 1.645 0 0 1-1.617-1.622 7.64 7.64 0 0 0-.11-1.09c-.047-.204-.107-.381-.169-.564-.035-.101-.07-.204-.104-.313a4.283 4.283 0 0 0-.344-.781 2.011 2.011 0 0 1-.305-.931 1.655 1.655 0 0 1 1.377-1.707 1.734 1.734 0 0 1 .233-.016 1.606 1.606 0 0 1 1.044.381 5.5 5.5 0 0 1 1.647 2.32 4.48 4.48 0 0 1-.347 3.653 1.616 1.616 0 0 1-1.305.67Zm-11.016-6.408a1.59 1.59 0 0 1-1.546-1.125 1.628 1.628 0 0 1 .305-1.541 5.515 5.515 0 0 1 2.313-1.653 4.412 4.412 0 0 1 1.45-.228 3.823 3.823 0 0 1 2.19.573 1.615 1.615 0 0 1 .664 1.313 1.643 1.643 0 0 1-1.612 1.623 7.628 7.628 0 0 0-1.09.109 5.689 5.689 0 0 0-.555.17c-.103.034-.205.07-.315.104a4.185 4.185 0 0 0-.784.346 1.951 1.951 0 0 1-.987.309Zm-41.117-5.64a7.367 7.367 0 0 1 3.172-3.182 5.98 5.98 0 0 1 2.66-.6 4.9 4.9 0 0 1 1.954.36 25.276 25.276 0 0 0-3.768 1.84 11.286 11.286 0 0 0-3.989 1.607l-.057.037Zm51.193-.08a11.263 11.263 0 0 0-3.977-1.526 22.478 22.478 0 0 0-3.726-1.778 4.307 4.307 0 0 1 1.955-.399 5.977 5.977 0 0 1 2.66.601 7.518 7.518 0 0 1 3.116 3.076l.032.062Z" opacity=".5"/></svg>