<svg xmlns="http://www.w3.org/2000/svg" viewBox="0 0 64 64" class="ccsvg ccsvg--duotone ccsvg--joy-con-l"><path class="ccsvg__primary" d="M38.152.868h-3.014V.867h-4.477c-5.955 0-11.02 3.73-12.989 8.954-.005 0-.012.004-.017.001.005.003.012-.002.017 0a13.563 13.563 0 0 0-.826 3.584c-.039.4-.061.805-.062 1.216v35.607c0 7.599 6.213 13.763 13.877 13.763h6.844c.357 0 .647-.29.647-.647v-3.693.001V.868zM27.468 11.682c2.833 0 5.13 2.283 5.13 5.093 0 2.807-2.297 5.09-5.13 5.09-2.833 0-5.13-2.283-5.13-5.09 0-2.81 2.297-5.093 5.13-5.093zm-5.563 24.991a2.44 2.44 0 0 1-1.754-1.767c-.434-1.82 1.187-3.415 3.023-2.961a2.437 2.437 0 0 1 1.762 1.773c.43 1.827-1.202 3.413-3.03 2.955zm6.2-9.489c.828.204 1.513.87 1.735 1.694a2.453 2.453 0 0 1-2.372 3.114 2.451 2.451 0 0 1-2.463-2.443c0-1.558 1.46-2.769 3.1-2.365zm-1.277 14.172a2.425 2.425 0 0 1-1.731-1.688 2.453 2.453 0 0 1 2.371-3.118 2.456 2.456 0 0 1 2.463 2.443c0 1.564-1.468 2.77-3.103 2.363zm6.87 6.292c0 .28-.226.507-.506.507h-2.891a.507.507 0 0 1-.507-.507V44.8c0-.28.227-.507.507-.507h2.891c.28 0 .507.227.507.507v2.848zm1.068-12.667a2.422 2.422 0 0 1-1.736 1.693c-1.64.404-3.1-.806-3.1-2.364 0-1.349 1.1-2.443 2.463-2.443a2.453 2.453 0 0 1 2.373 3.114zM36.16 7.718h-3.286V6.412h3.286v1.306z"/><path class="ccsvg__secondary" d="M17.324 8.397C19.752 3.301 24.991.008 30.669.008h3.342c.483 0 1.133.392 1.134.875h-4.477c-5.955 0-11.02 3.73-12.989 8.955-.005-.001-.012.003-.017 0-.437-.207-.546-1.004-.338-1.44zm10.151 3.292c-2.833 0-5.13 2.283-5.13 5.093 0 2.807 2.297 5.09 5.13 5.09 2.833 0 5.13-2.283 5.13-5.09 0-2.81-2.297-5.093-5.13-5.093zm-2.532 22.036a2.437 2.437 0 0 0-1.761-1.773c-1.837-.454-3.458 1.142-3.023 2.961a2.44 2.44 0 0 0 1.754 1.767c1.828.458 3.461-1.128 3.03-2.955zm.07-4.17a2.45 2.45 0 0 0 2.462 2.444 2.453 2.453 0 0 0 2.373-3.114 2.422 2.422 0 0 0-1.736-1.694c-1.64-.404-3.1.807-3.1 2.365zM29.938 39a2.456 2.456 0 0 0-2.463-2.443 2.453 2.453 0 0 0-2.37 3.117c.222.82.905 1.484 1.73 1.689 1.635.406 3.103-.8 3.103-2.363zm3.768 8.655v-2.848a.507.507 0 0 0-.507-.507h-2.89a.507.507 0 0 0-.508.507v2.848c0 .28.227.507.507.507H33.2c.28 0 .507-.227.507-.507zM32.4 31.874a2.451 2.451 0 0 0-2.462 2.443c0 1.558 1.459 2.768 3.1 2.364a2.422 2.422 0 0 0 1.735-1.693 2.453 2.453 0 0 0-2.373-3.114zm3.77-25.455h-3.286v1.306h3.286V6.419zm2.219 53.634c1.124.374 1.609.818 1.609 1.513v.985c0 .368 1.32-.15 3.221-1.652 2.707-2.137 2.582-5.552 2.582-5.552V47.25h.832a.584.584 0 0 0 .584-.584V39.09a.584.584 0 0 0-.584-.584H45.8v-16.49h.832a.584.584 0 0 0 .584-.585v-7.577a.584.584 0 0 0-.584-.584H45.8V8.564c0-4.224-3.419-7.668-7.64-7.68V59.67c.033.181.1.34.228.383z" opacity=".5"/></svg>