<svg xmlns="http://www.w3.org/2000/svg" viewBox="0 0 64 64" class="ccsvg ccsvg--duotone ccsvg--joy-cons"><path class="ccsvg__primary" d="m21.956 9.46-4.925-.001c-4.313 0-7.98 2.7-9.407 6.485-.003 0-.008.002-.012 0 .004.002.009-.001.013 0-.31.82-.518 1.69-.599 2.596-.028.29-.044.583-.045.88v25.788c0 5.503 4.5 9.968 10.05 9.968h5.425V9.96a.5.5 0 0 0-.5-.5zm-7.241 7.825c2.052 0 3.715 1.653 3.715 3.688 0 2.033-1.663 3.686-3.715 3.686S11 23.006 11 20.973c0-2.035 1.663-3.688 3.715-3.688zm-4.029 18.099a1.766 1.766 0 0 1-1.27-1.28c-.315-1.317.86-2.473 2.19-2.144.62.153 1.128.662 1.275 1.284.312 1.323-.87 2.472-2.195 2.14zm4.49-6.872c.6.148 1.096.63 1.257 1.226a1.776 1.776 0 0 1-1.718 2.256 1.775 1.775 0 0 1-1.783-1.77c0-1.128 1.056-2.005 2.244-1.712zm-.925 10.263a1.756 1.756 0 0 1-1.253-1.222 1.776 1.776 0 0 1 1.717-2.259 1.78 1.78 0 0 1 1.784 1.77c0 1.133-1.063 2.006-2.248 1.711zm4.977 4.557a.367.367 0 0 1-.367.367h-2.094a.367.367 0 0 1-.367-.367V41.27c0-.203.164-.367.367-.367h2.094c.202 0 .367.164.367.367v2.062zM20 34.158a1.754 1.754 0 0 1-1.257 1.227c-1.188.292-2.244-.584-2.244-1.713 0-.976.796-1.769 1.783-1.769A1.776 1.776 0 0 1 20 34.158zm1.011-19.744h-2.38v-.946h2.38v.946zM57.02 19.42c0-.297-.017-.59-.045-.88a9.82 9.82 0 0 0-.599-2.596c.004-.001.01.002.013 0-.003.002-.009 0-.012 0a10.042 10.042 0 0 0-9.407-6.485h-4.925a.5.5 0 0 0-.5.5v45.217h5.425c5.55 0 10.05-4.465 10.05-9.968V19.42zm-7.743-3.657c.983 0 1.777.79 1.777 1.764 0 .97-.794 1.76-1.777 1.76a1.767 1.767 0 0 1-1.775-1.76c0-.974.79-1.764 1.775-1.764zm1.777 8.57c0 .974-.794 1.761-1.777 1.761a1.764 1.764 0 0 1-1.775-1.76c0-.971.79-1.763 1.775-1.763a1.77 1.77 0 0 1 1.777 1.763zm-8.061-9.929v-.94h.71v-.703h.945v.703h.711v.94h-.71v.705h-.945v-.705h-.711zm2.728 4.793c.984 0 1.78.791 1.78 1.76a1.77 1.77 0 0 1-1.78 1.762 1.763 1.763 0 0 1-1.767-1.761c0-.97.79-1.761 1.767-1.761zm.464 24.932a1.843 1.843 0 0 1-1.848-1.83c0-1.01.83-1.826 1.848-1.826 1.016 0 1.845.815 1.845 1.825 0 1.008-.83 1.83-1.845 1.83zm3.093-6.855c-2.04 0-3.701-1.642-3.701-3.666s1.66-3.67 3.701-3.67c2.045 0 3.7 1.646 3.7 3.67s-1.655 3.666-3.7 3.666zm3.55-14.555a1.763 1.763 0 0 1-1.774-1.761c0-.97.787-1.761 1.775-1.761.981 0 1.775.791 1.775 1.76 0 .975-.794 1.762-1.775 1.762z"/><path class="ccsvg__secondary" d="M41.554 55.175H22.467V11.181c.7 0 1.287-.636 1.453-1.332a.498.498 0 0 1 .484-.39h15.214c.233 0 .429.163.483.39.167.696.754 1.332 1.453 1.332v43.994zM7.622 15.945c.004.001.01-.002.013-.001a10.042 10.042 0 0 1 9.407-6.486h3.242c0-.35-.471-.633-.821-.633h-2.42c-4.113 0-7.907 2.385-9.665 6.075-.151.317-.072.893.244 1.044zM56.644 14.9c-1.76-3.69-5.553-6.075-9.665-6.075h-2.42c-.35 0-.821.284-.822.633h3.242c4.313 0 7.981 2.701 9.407 6.486.004-.001.01.002.013 0 .316-.15.395-.727.245-1.044zM6.992 45.208V19.42c0-.298.017-.59.045-.88a9.63 9.63 0 0 1 .212-1.325l-.001-.024c-.125.17-3.127 4.352-5.077 14.695C.18 42.45-.594 46.101.51 49.032c1.107 2.931 4.425 7.577 9.182 3.153.027-.026.05-.054.077-.08l-.002-.033a9.881 9.881 0 0 1-2.776-6.864zM61.84 31.884c-1.941-10.299-4.924-14.486-5.073-14.69.102.437.177.885.217 1.343.029.29.045.583.045.88v25.788a9.882 9.882 0 0 1-2.787 6.877l-.001.02c.026.027.05.054.077.08 4.756 4.425 8.075-.221 9.181-3.153 1.106-2.931.332-6.581-1.66-17.145zm-47.114-14.6c-2.052 0-3.716 1.654-3.716 3.689 0 2.033 1.664 3.686 3.716 3.686 2.051 0 3.715-1.653 3.715-3.686 0-2.035-1.664-3.689-3.715-3.689zm-1.834 15.96a1.765 1.765 0 0 0-1.276-1.285 1.782 1.782 0 0 0-2.19 2.145 1.767 1.767 0 0 0 1.271 1.28c1.324.331 2.507-.817 2.195-2.14zm.05-3.02c0 .977.796 1.77 1.784 1.77a1.776 1.776 0 0 0 1.718-2.256 1.754 1.754 0 0 0-1.257-1.227c-1.188-.292-2.245.585-2.245 1.713zm3.567 6.84a1.78 1.78 0 0 0-1.783-1.77 1.776 1.776 0 0 0-1.717 2.258 1.756 1.756 0 0 0 1.253 1.223c1.184.294 2.247-.579 2.247-1.712zm2.73 6.268v-2.063a.367.367 0 0 0-.368-.367h-2.094a.367.367 0 0 0-.367.367v2.063c0 .203.165.367.367.367h2.094a.367.367 0 0 0 .367-.367zm-.946-11.43c-.988 0-1.784.793-1.784 1.77 0 1.128 1.057 2.005 2.245 1.712.6-.147 1.096-.63 1.257-1.226a1.776 1.776 0 0 0-1.718-2.255zm2.729-18.434h-2.38v.945h2.38v-.945zm26.49 4.058c0 .97.79 1.761 1.775 1.761a1.77 1.77 0 0 0 1.776-1.76c0-.975-.793-1.764-1.776-1.764-.985 0-1.776.79-1.776 1.763zm1.775 5.045c-.985 0-1.776.791-1.776 1.762 0 .974.79 1.761 1.776 1.761.983 0 1.776-.787 1.776-1.76a1.77 1.77 0 0 0-1.776-1.763zm-6.284-8.167h.71v.705h.945v-.705h.71v-.94h-.71v-.703h-.945v.703h-.71v.94zm2.727 8.314a1.77 1.77 0 0 0 1.781-1.76c0-.97-.796-1.761-1.78-1.761-.977 0-1.767.79-1.767 1.76 0 .974.79 1.761 1.766 1.761zm2.31 19.58c0-1.01-.83-1.826-1.846-1.826a1.837 1.837 0 0 0-1.848 1.826c0 1.007.83 1.83 1.848 1.83a1.843 1.843 0 0 0 1.846-1.83zm4.948-8.69c0-2.025-1.655-3.67-3.7-3.67-2.04 0-3.702 1.645-3.702 3.67s1.661 3.665 3.702 3.665c2.045 0 3.7-1.642 3.7-3.666zm1.626-12.65a1.77 1.77 0 0 0-1.776-1.761c-.987 0-1.775.79-1.775 1.76 0 .974.788 1.761 1.775 1.761.982 0 1.776-.787 1.776-1.76z" opacity=".5"/></svg>