<svg xmlns="http://www.w3.org/2000/svg" viewBox="0 0 64 64" class="ccsvg ccsvg--duotone ccsvg--joy-con-r"><path class="ccsvg__primary" d="M47.212 14.63c0-.41-.023-.815-.062-1.215a13.56 13.56 0 0 0-.826-3.584c.005-.002.013.003.018 0a.02.02 0 0 0-.008 0A13.866 13.866 0 0 0 33.344.876h-4.476l-.01.002h-3.013v62.476c0 .357.29.647.647.647h6.843c7.664 0 13.878-6.164 13.878-13.763V14.63zm-10.69-5.05a2.443 2.443 0 0 1 2.452 2.435 2.443 2.443 0 0 1-2.453 2.431 2.44 2.44 0 0 1-2.45-2.431 2.44 2.44 0 0 1 2.45-2.435zm2.452 11.834a2.44 2.44 0 0 1-2.453 2.431 2.436 2.436 0 0 1-2.45-2.431 2.44 2.44 0 0 1 2.45-2.433 2.443 2.443 0 0 1 2.453 2.433zm-11.13-13.71V6.406h.982v-.971h1.304v.97h.981v1.299h-.98v.973h-1.305v-.973h-.981zm3.767 6.617c1.36 0 2.46 1.093 2.46 2.432 0 1.344-1.1 2.43-2.46 2.43a2.434 2.434 0 0 1-2.44-2.43 2.438 2.438 0 0 1 2.44-2.432zm.64 34.426c-1.405 0-2.551-1.137-2.551-2.528 0-1.395 1.146-2.52 2.552-2.52 1.402 0 2.548 1.125 2.548 2.52 0 1.391-1.146 2.528-2.548 2.528zm4.272-9.466c-2.817 0-5.11-2.267-5.11-5.062 0-2.795 2.293-5.066 5.11-5.066 2.824 0 5.11 2.271 5.11 5.066s-2.286 5.062-5.11 5.062zm4.902-20.097a2.434 2.434 0 0 1-2.45-2.431 2.438 2.438 0 0 1 2.45-2.432 2.443 2.443 0 0 1 2.452 2.432 2.439 2.439 0 0 1-2.452 2.43z"/><path class="ccsvg__secondary" d="M25.616 60.053c-1.124.374-1.61.818-1.61 1.513v.985c0 .368-1.32-.15-3.22-1.652-2.708-2.137-2.583-5.552-2.583-5.552V47.25h-.831a.584.584 0 0 1-.585-.584V39.09c0-.323.262-.584.585-.584h.831v-16.49h-.831a.584.584 0 0 1-.585-.585v-7.577c0-.323.262-.584.585-.584h.831V8.564c0-4.224 3.42-7.668 7.641-7.68V59.67c-.034.18-.1.34-.228.383zm8.454-48.03a2.44 2.44 0 0 0 2.451 2.431 2.443 2.443 0 0 0 2.453-2.431 2.443 2.443 0 0 0-2.453-2.435 2.44 2.44 0 0 0-2.45 2.435zm2.451 6.966a2.44 2.44 0 0 0-2.45 2.433 2.436 2.436 0 0 0 2.45 2.431 2.44 2.44 0 0 0 2.453-2.431 2.443 2.443 0 0 0-2.453-2.433zM27.845 7.712h.98v.973h1.305v-.973h.981V6.414h-.98v-.971h-1.305v.97h-.981v1.299zm3.766 11.48c1.36 0 2.46-1.087 2.46-2.431 0-1.34-1.1-2.432-2.46-2.432a2.438 2.438 0 0 0-2.44 2.432 2.434 2.434 0 0 0 2.44 2.43zM34.8 46.227c0-1.395-1.146-2.52-2.548-2.52-1.406 0-2.552 1.125-2.552 2.52 0 1.391 1.146 2.528 2.552 2.528 1.402 0 2.548-1.137 2.548-2.528zm6.832-12c0-2.795-2.285-5.066-5.109-5.066-2.817 0-5.11 2.271-5.11 5.066s2.293 5.062 5.11 5.062c2.824 0 5.11-2.267 5.11-5.062zm2.245-17.466a2.443 2.443 0 0 0-2.452-2.432 2.438 2.438 0 0 0-2.45 2.432 2.434 2.434 0 0 0 2.45 2.43 2.439 2.439 0 0 0 2.452-2.43zm2.812-8.364C44.261 3.301 39.022.008 33.344.008h-3.342c-.483 0-1.133.392-1.134.875h4.477c5.955 0 11.02 3.73 12.989 8.955.005-.002.012.003.017 0 .437-.208.546-1.004.338-1.44z" opacity=".5"/></svg>