<svg xmlns="http://www.w3.org/2000/svg" viewBox="0 0 64 64" class="ccsvg ccsvg--duotone ccsvg--master-system"><path class="ccsvg__primary" d="M40.257 28.28h9.683v1.775h-9.683v-1.774Zm-19.838-4.64h-7.014a4.652 4.652 0 0 0-4.584 4.717v7.218a4.652 4.652 0 0 0 4.584 4.716h7.014a4.652 4.652 0 0 0 4.584-4.716v-7.218a4.652 4.652 0 0 0-4.584-4.717Zm-8.15 8.872h-1.591a.546.546 0 0 1 0-1.092h1.591a.546.546 0 0 1 0 1.092Zm5.173 5.869a.53.53 0 1 1-1.06 0v-1.638a.53.53 0 1 1 1.06 0v1.638Zm0-11.192a.53.53 0 1 1-1.06 0v-1.638a.53.53 0 1 1 1.06 0v1.638Zm5.704 5.323h-1.592a.546.546 0 0 1 0-1.092h1.592a.546.546 0 0 1 0 1.092Zm27.855-4.231h9.683v1.774H51v-1.774Zm-42.71 7.294v-7.218a5.327 5.327 0 0 1 1.332-3.54l-2.34-2.406a.148.148 0 0 0-.253.108v18.894a.148.148 0 0 0 .253.108l2.34-2.407a5.327 5.327 0 0 1-1.333-3.54Zm17.802-13.777H7.797a.153.153 0 0 0-.105.26L10 24.435a5.013 5.013 0 0 1 3.405-1.34h7.014c1.28.002 2.51.493 3.44 1.372l2.34-2.407a.153.153 0 0 0-.106-.261Zm.447.68-2.308 2.376a5.327 5.327 0 0 1 1.302 3.503v7.218a5.327 5.327 0 0 1-1.302 3.503l2.308 2.375a.148.148 0 0 0 .254-.108V22.587a.148.148 0 0 0-.254-.108Zm-.342 19.395-2.34-2.407c-.929.88-2.16 1.37-3.439 1.371h-7.014A5.013 5.013 0 0 1 10 39.497l-2.308 2.376a.153.153 0 0 0 .105.26h18.296a.153.153 0 0 0 .105-.26ZM63.254 19H.746a.757.757 0 0 0-.746.768v24.464A.757.757 0 0 0 .746 45h62.508a.757.757 0 0 0 .746-.768V19.768a.757.757 0 0 0-.746-.768Zm-.332 21.676a.429.429 0 0 1-.422.434H29.537a.429.429 0 0 0-.422.435v1.924a.429.429 0 0 1-.422.434H5.13a.429.429 0 0 1-.422-.434v-22.94a.429.429 0 0 1 .422-.435h23.562a.429.429 0 0 1 .422.434v5.749a.429.429 0 0 0 .422.434H62.5a.429.429 0 0 1 .422.435v13.53ZM40.257 30.6v9.963h9.683v-9.963h-9.683Zm4.841 8.011a3.03 3.03 0 1 1 3.03-3.03 3.03 3.03 0 0 1-3.03 3.03Zm5.903-8.01v9.962h9.683v-9.963h-9.683Zm4.841 8.01a3.03 3.03 0 1 1 0-6.059 3.03 3.03 0 0 1 0 6.06Z"/><path class="ccsvg__secondary" d="M5.13 43.926a.448.448 0 0 1-.44-.454V20.53a.449.449 0 0 1 .44-.455h23.562a.45.45 0 0 1 .443.455v5.748a.41.41 0 0 0 .402.415H62.5a.449.449 0 0 1 .441.454v13.53a.448.448 0 0 1-.441.455H29.537a.41.41 0 0 0-.402.415v1.924a.448.448 0 0 1-.443.454H5.131Zm2.576-2.038a.134.134 0 0 0-.026.148c.019.048.065.08.117.08h18.297a.127.127 0 0 0 .117-.08.133.133 0 0 0-.027-.148l-2.34-2.408a4.917 4.917 0 0 1-3.425 1.378h-7.015a5.045 5.045 0 0 1-3.403-1.33l-2.295 2.36ZM7.18 22.387a.13.13 0 0 0-.13.133v18.894a.13.13 0 0 0 .13.133l2.428-2.445a5.23 5.23 0 0 1-1.337-3.526v-7.218a5.348 5.348 0 0 1 1.337-3.552l-2.34-2.38-.088-.04Zm19.465.068a.121.121 0 0 0-.09.04l-2.309 2.375a5.23 5.23 0 0 1 1.307 3.488v7.218a5.355 5.355 0 0 1-1.307 3.516l2.309 2.348c.03.008.062.013.093.013.087 0 .126-.044.126-.107V22.588a.13.13 0 0 0-.13-.133Zm24.376 18.11 9.663-.02-.02-9.943-9.643.02v9.943Zm-10.745 0 9.663-.02-.02-9.943-9.643.02v9.943ZM13.404 23.662a4.637 4.637 0 0 0-4.564 4.696v7.218a4.638 4.638 0 0 0 4.564 4.696h7.015a4.638 4.638 0 0 0 4.564-4.696v-7.218a4.637 4.637 0 0 0-4.564-4.696h-7.015Zm37.617 6.394 9.663-.02-.02-1.754-9.643.02v1.754Zm-10.745 0 9.663-.02-.02-1.754-9.643.02v1.754Zm-19.857-6.98a5.041 5.041 0 0 1 3.454 1.376l2.31-2.406a.133.133 0 0 0 .028-.148.126.126 0 0 0-.117-.08H7.797a.126.126 0 0 0-.117.08.134.134 0 0 0 .026.148l2.309 2.375a4.921 4.921 0 0 1 3.39-1.345h7.014Zm1.136 9.457a.566.566 0 0 1 0-1.132h1.591a.566.566 0 0 1 0 1.132h-1.591Zm-10.877 0a.566.566 0 0 1 0-1.132h1.592a.566.566 0 0 1 0 1.132h-1.592Zm6.234 6.414a.558.558 0 0 1-.55-.565v-1.638a.55.55 0 1 1 1.1 0v1.638a.558.558 0 0 1-.55.565Zm28.187-.314a3.05 3.05 0 1 1 3.048-3.05v.001a3.052 3.052 0 0 1-3.048 3.049ZM16.912 27.756a.56.56 0 0 1-.55-.566v-1.638a.55.55 0 1 1 1.1 0v1.638a.558.558 0 0 1-.55.566Zm38.93 10.877a3.05 3.05 0 1 1 3.05-3.05v.001a3.052 3.052 0 0 1-3.05 3.049Z" opacity=".5"/></svg>