<svg xmlns="http://www.w3.org/2000/svg" viewBox="0 0 64 64" class="ccsvg ccsvg--duotone ccsvg--mega-drive"><path class="ccsvg__primary" d="M14.251 24.655c-3.355 0-6.075 2.763-6.075 6.17 0 3.405 2.72 6.172 6.075 6.172 3.358 0 6.08-2.767 6.08-6.171 0-3.408-2.722-6.171-6.08-6.171zm4.86 5.069v2.196c0 .135-.11.249-.243.249h-3.05a.246.246 0 0 0-.245.248v3.027c0 .135-.108.25-.244.25h-2.155a.25.25 0 0 1-.245-.25v-3.031a.246.246 0 0 0-.244-.248h-2.96a.248.248 0 0 1-.245-.249V29.72c0-.133.11-.245.244-.245h2.96a.245.245 0 0 0 .245-.244v-3.07c0-.136.11-.249.245-.249h2.159c.132 0 .244.11.244.248v3.075c0 .135.107.244.244.244h3.047c.133 0 .242.112.242.245zm26.694 4.856c0 1.478-1.18 2.68-2.635 2.68-1.455 0-2.636-1.202-2.636-2.68 0-1.476 1.18-2.676 2.636-2.676 1.454 0 2.635 1.2 2.635 2.676zm17.966-5.836c-.899-4.385-3.16-6.477-4.168-7.392-6.44-5-18.792-8.685-27.603-8.362-8.812-.303-21.154 3.341-27.6 8.358-1.013.92-3.268 3.01-4.173 7.396-1.22 8.495 2.578 16.123 8.782 21.001 1.895 1.478 4.29 1.462 5.524 1.033 2.012-.723 1.922-1.12 3.815-4.338 2.307-3.925 4.634-4.267 6.026-4.791 2.914-1.108 7.478-1.124 7.626-1.124.149 0 4.713.016 7.626 1.116 1.389.525 3.715.866 6.023 4.79 1.893 3.218 1.807 3.624 3.817 4.339 1.236.437 3.63.453 5.522-1.025 6.2-4.865 10.008-12.527 8.783-21zM14.251 40.97c-5.514 0-9.986-4.545-9.986-10.148 0-5.601 4.472-10.15 9.986-10.15 5.516 0 9.99 4.545 9.99 10.15 0 5.603-4.474 10.148-9.99 10.148zM43.1 22.267l4.126-1.81a.737.737 0 0 1 .978.382.75.75 0 0 1-.403.985l-4.126 1.814a.736.736 0 0 1-.978-.382.763.763 0 0 1 .403-.989zm17.442 9.483c-1.156 1.882-3.542 2.317-5.397 3.144-.196.08-.5.226-.884.393-1.783.82-4.892 2.227-5.729 2.672-1.062.413-2.148 1.209-3.265 1.811-3.527 1.962-7.78-1.094-7.56-5.226.244-3.406 2.076-4.496 4.83-6.741 1.447-1.18 3.19-2.259 4.963-2.944.664-.294 1.36-.55 2.041-.764 2.562-.86 4.847-1.208 5.824-1.158 4.557-.37 7.958 5.118 5.177 8.813zm-8.26-.688c0 1.476-1.18 2.676-2.635 2.676-1.455 0-2.636-1.2-2.636-2.676 0-1.481 1.181-2.677 2.636-2.677 1.454 0 2.636 1.196 2.636 2.677zm6.672-2.651c0 1.475-1.173 2.675-2.628 2.675-1.462 0-2.636-1.2-2.636-2.675 0-1.478 1.174-2.678 2.636-2.678 1.455 0 2.628 1.2 2.628 2.678z"/><path class="ccsvg__secondary" d="m43.1 22.267 4.125-1.81a.737.737 0 0 1 .978.382.75.75 0 0 1-.403.985l-4.126 1.814a.736.736 0 0 1-.978-.382.763.763 0 0 1 .403-.989zm17.44 9.483c-1.156 1.882-3.542 2.317-5.397 3.144-.196.08-.5.226-.884.393-1.783.82-4.892 2.227-5.729 2.672-1.062.413-2.148 1.209-3.265 1.81-3.527 1.963-7.78-1.093-7.56-5.225.244-3.406 2.076-4.496 4.83-6.741 1.447-1.18 3.19-2.259 4.963-2.944.664-.294 1.36-.55 2.041-.764 2.562-.86 4.847-1.208 5.824-1.158 4.557-.37 7.958 5.118 5.177 8.813zm-14.736 2.83c0-1.476-1.18-2.676-2.635-2.676-1.455 0-2.636 1.2-2.636 2.676 0 1.478 1.18 2.68 2.636 2.68 1.454 0 2.635-1.202 2.635-2.68zm6.477-3.518c0-1.481-1.182-2.677-2.636-2.677-1.455 0-2.636 1.196-2.636 2.677 0 1.476 1.181 2.676 2.636 2.676 1.454 0 2.636-1.2 2.636-2.676zm6.671-2.651c0-1.478-1.173-2.678-2.628-2.678-1.462 0-2.636 1.2-2.636 2.678 0 1.475 1.174 2.675 2.636 2.675 1.455 0 2.628-1.2 2.628-2.675zM24.24 30.822c0 5.603-4.474 10.148-9.99 10.148-5.514 0-9.986-4.545-9.986-10.148 0-5.601 4.472-10.15 9.986-10.15 5.516 0 9.99 4.545 9.99 10.15zm-3.91.004c0-3.408-2.722-6.171-6.08-6.171-3.355 0-6.075 2.763-6.075 6.17 0 3.405 2.72 6.172 6.075 6.172 3.358 0 6.08-2.767 6.08-6.171zm-1.22 1.094v-2.196a.245.245 0 0 0-.243-.245H15.82a.243.243 0 0 1-.244-.244V26.16a.246.246 0 0 0-.244-.248h-2.16a.248.248 0 0 0-.244.248v3.071a.246.246 0 0 1-.244.244h-2.96a.246.246 0 0 0-.245.245v2.196c0 .14.113.249.244.249h2.96c.138 0 .245.113.245.248v3.031c0 .139.114.25.245.25h2.155a.248.248 0 0 0 .244-.25v-3.027c0-.14.111-.248.244-.248h3.05a.247.247 0 0 0 .243-.249z" opacity=".5"/></svg>