<svg xmlns="http://www.w3.org/2000/svg" viewBox="0 0 64 64" class="ccsvg ccsvg--duotone ccsvg--n64"><path class="ccsvg__primary" d="M35.264 36.273A3.264 3.264 0 1 1 32 33.01a3.264 3.264 0 0 1 3.264 3.264Zm28.715-2.197c-.188 7.5-3.146 15.717-6.246 15.27-2.31-.333-4.35-1.52-6.432-13.624l-.146-1.344a1.302 1.302 0 0 0-1.301-1.302c-.115 0-5.798-.646-7.005 3.146a60.391 60.391 0 0 0-1.79 7.166l-2.227 9.224c-.88 3.689-2.397 10.314-6.811 10.395v.002a.037.037 0 0 0-.014 0v-.002h-.014v.002a.037.037 0 0 0-.014 0v-.002c-4.414-.081-5.931-6.706-6.811-10.395l-2.227-9.224a60.39 60.39 0 0 0-1.79-7.166c-1.207-3.792-6.89-3.146-7.005-3.146a1.302 1.302 0 0 0-1.301 1.302l-.146 1.344c-2.082 12.103-4.122 13.29-6.432 13.624-3.1.447-6.058-7.77-6.246-15.27a53.517 53.517 0 0 1 .66-10.425c.373-2.064.049-3.72.558-5.7 1.413-6.225 6.03-9.277 12.023-10.16.713-.142 2.908-.4 4.2-.668.846-.175.914-1.146 1.167-2.059C18.899 3.11 26.017.927 32 .994c5.983-.067 13.101 2.115 13.371 4.07.253.913.32 1.884 1.168 2.06 1.291.266 3.486.525 4.199.666 5.993.884 10.61 3.936 12.023 10.161.51 1.98.185 3.635.559 5.7a53.517 53.517 0 0 1 .659 10.425Zm-47.94-14.8a.16.16 0 0 0-.156-.156H12.99a.16.16 0 0 1-.156-.163v-2.888a.165.165 0 0 0-.164-.16H9.335a.163.163 0 0 0-.164.16v2.888a.157.157 0 0 1-.156.156h-2.89a.16.16 0 0 0-.156.164v3.334a.157.157 0 0 0 .157.156h2.889a.164.164 0 0 1 .156.164v2.894a.157.157 0 0 0 .156.16h3.343a.166.166 0 0 0 .156-.16V22.93a.161.161 0 0 1 .164-.156h2.89a.16.16 0 0 0 .155-.164Zm13.389 3.541A2.572 2.572 0 1 0 32 20.245a2.572 2.572 0 0 0-2.572 2.572Zm9.78 13.456A7.209 7.209 0 1 0 32 43.482a7.209 7.209 0 0 0 7.209-7.209Zm12.768-21.916a2.005 2.005 0 1 0 2.005-2.005 2.005 2.005 0 0 0-2.005 2.005Zm-4.866 7.997a2.63 2.63 0 1 0-2.63 2.63 2.63 2.63 0 0 0 2.63-2.63Zm4.685 4.873a2.63 2.63 0 1 0-2.629 2.63 2.63 2.63 0 0 0 2.63-2.63Zm.255-8.989a2.005 2.005 0 1 0-2.005 2.005 2.005 2.005 0 0 0 2.005-2.005Zm4.186 3.928a2.005 2.005 0 1 0-2.005 2.005 2.005 2.005 0 0 0 2.005-2.005Zm3.84-3.928a2.005 2.005 0 1 0-2.004 2.005 2.005 2.005 0 0 0 2.004-2.005Z"/><path class="ccsvg__secondary" d="M16.035 22.611a.16.16 0 0 1-.156.164h-2.89a.161.161 0 0 0-.163.156v2.894a.166.166 0 0 1-.156.16H9.327a.157.157 0 0 1-.156-.16V22.93a.164.164 0 0 0-.156-.164h-2.89a.157.157 0 0 1-.156-.156v-3.334a.16.16 0 0 1 .157-.164h2.889a.157.157 0 0 0 .156-.156v-2.888a.163.163 0 0 1 .164-.16h3.335a.165.165 0 0 1 .164.16v2.888a.16.16 0 0 0 .156.164h2.893a.16.16 0 0 1 .156.156Zm13.393.206A2.572 2.572 0 1 0 32 20.245a2.572 2.572 0 0 0-2.572 2.572Zm22.548-8.46a2.005 2.005 0 1 0 2.005-2.005 2.005 2.005 0 0 0-2.005 2.005Zm-4.866 7.997a2.63 2.63 0 1 0-2.63 2.63 2.63 2.63 0 0 0 2.63-2.63Zm4.685 4.873a2.63 2.63 0 1 0-2.629 2.63 2.63 2.63 0 0 0 2.63-2.63Zm.255-8.989a2.005 2.005 0 1 0-2.005 2.005 2.005 2.005 0 0 0 2.005-2.005Zm4.186 3.928a2.005 2.005 0 1 0-2.005 2.005 2.005 2.005 0 0 0 2.005-2.005Zm3.84-3.928a2.005 2.005 0 1 0-2.004 2.005 2.005 2.005 0 0 0 2.004-2.005ZM39.21 36.273A7.209 7.209 0 1 1 32 29.065a7.209 7.209 0 0 1 7.209 7.208Zm-3.945 0A3.264 3.264 0 1 0 32 39.537a3.264 3.264 0 0 0 3.264-3.264Zm22.978-26.81a.538.538 0 0 0-.261-.427c-2.554-1.496-5.935-2.093-8.875-2.549-.793-.123-1.605-.249-2.439-.4l-1.097-.204.002.001c.16.611.37 1.125.964 1.248 1.292.267 3.486.526 4.2.667a16.35 16.35 0 0 1 7.35 2.788Zm-52.31 1.104a16.35 16.35 0 0 1 7.35-2.789c.713-.141 2.907-.4 4.199-.667.593-.123.804-.637.964-1.247l.002-.002-1.097.205c-.834.15-1.646.276-2.44.4-2.939.456-6.32 1.052-8.874 2.548a.538.538 0 0 0-.26.427Z" opacity=".5"/></svg>