<svg xmlns="http://www.w3.org/2000/svg" viewBox="0 0 64 64" class="ccsvg ccsvg--duotone ccsvg--nes"><path class="ccsvg__primary" d="M34.609 36.57h-3.97a.66.66 0 0 0-.006 1.32h3.975a.66.66 0 0 0 .006-1.32h-.005Zm8.517 2.09a2.708 2.708 0 1 0 .001-5.416 2.708 2.708 0 0 0-.001 5.416ZM27.65 36.57H23.68a.66.66 0 0 0-.005 1.32H27.65a.66.66 0 0 0 .005-1.32h-.005ZM3.202 21.975a1.202 1.202 0 0 0-1.2 1.199v19.603a1.202 1.202 0 0 0 1.2 1.2h17.946v-1.344c0-.505.41-.914.914-.914H36.22c.504.002.912.41.914.914v1.344H60.8a1.202 1.202 0 0 0 1.2-1.2V23.174a1.202 1.202 0 0 0-1.2-1.2H37.137v1.528c0 .505-.41.913-.914.914H22.068a.915.915 0 0 1-.914-.914v-1.527H3.202ZM18.33 35.553a.775.775 0 0 1-.776.775h-3.199l-.025 3.227a.775.775 0 0 1-.776.773h-3.201a.773.773 0 0 1-.773-.773v-3.203l-3.225-.024a.776.776 0 0 1-.775-.775v-3.2c0-.428.347-.775.775-.775h3.2l.025-3.224c0-.429.347-.776.775-.776h3.2c.427 0 .775.347.775.776v3.199l3.224.025c.428 0 .775.347.776.776v3.199Zm30.795-2.8c0-.441.358-.8.8-.8h6.399c.442 0 .8.359.8.8v6.4c0 .441-.358.8-.8.8h-6.399a.802.802 0 0 1-.8-.8v-6.4Zm-10 0c0-.441.358-.8.8-.8h6.399c.442 0 .8.359.8.8v6.4c0 .441-.358.8-.8.8h-6.399a.802.802 0 0 1-.8-.8v-6.4Zm-1.993 7.02a.913.913 0 0 1-.91.914h-14.16a.912.912 0 0 1-.914-.91V34.752c0-.504.41-.912.914-.913h14.156c.505 0 .914.41.914.914v5.02ZM21.155 26.166c0-.505.41-.913.914-.914h14.154c.505 0 .914.41.914.914v1.594c0 .504-.41.913-.914.914H22.07a.915.915 0 0 1-.914-.914v-1.594Zm.912 3.35h14.152c.505 0 .914.41.914.914v1.595c0 .505-.41.914-.914.914H22.067a.915.915 0 0 1-.914-.914V30.43c0-.505.41-.914.914-.914Zm-4.78 2.835-2.931-.023a.776.776 0 0 1-.775-.775v-2.905a.297.297 0 0 0-.295-.297l-2.633-.02a.297.297 0 0 0-.3.294l-.022 2.928a.776.776 0 0 1-.776.775H6.65a.297.297 0 0 0-.296.294l-.021 2.634a.297.297 0 0 0 .294.3l2.928.022c.428 0 .775.346.776.774v2.908c0 .163.131.296.294.297l2.634.019a.296.296 0 0 0 .299-.294l.023-2.93c0-.428.347-.774.775-.774l2.93-.023a.297.297 0 0 0 .295-.296v-2.611a.297.297 0 0 0-.295-.297Zm35.839 6.31a2.709 2.709 0 1 0-2.707-2.712v.004a2.708 2.708 0 0 0 2.707 2.707Z"/><path class="ccsvg__secondary" d="M39.926 31.953c-.442 0-.8.359-.801.8v6.4c0 .441.359.8.8.8h6.4c.441 0 .8-.359.8-.8v-6.4c0-.441-.359-.8-.8-.8h-6.4Zm3.2 6.707a2.708 2.708 0 1 1 2.706-2.71v.001a2.709 2.709 0 0 1-2.707 2.71Zm6.8-6.707c-.442 0-.8.359-.8.8v6.4c0 .441.358.8.8.8h6.398c.442 0 .8-.359.801-.8v-6.4c0-.441-.359-.8-.8-.8h-6.4Zm3.2 6.707a2.709 2.709 0 1 1 2.706-2.711v.004a2.708 2.708 0 0 1-2.707 2.707Zm-15.99-10.9c0 .504-.409.913-.913.914H22.068a.915.915 0 0 1-.914-.914v-1.594c.001-.505.41-.913.914-.914h14.155c.504 0 .913.41.914.914v1.594Zm-.003 4.265c0 .505-.41.914-.914.914H22.066a.915.915 0 0 1-.914-.914V30.43c.001-.505.41-.914.914-.914H36.22c.504 0 .913.41.914.914v1.595Zm26.066-14.048H.801c-.442 0-.8.358-.801.8v26.399c0 .442.359.8.8.8h62.4c.441 0 .8-.358.8-.8V18.777c0-.442-.359-.8-.8-.8ZM36.22 41.719H22.063a.915.915 0 0 0-.915.914v1.344H3.201a1.202 1.202 0 0 1-1.199-1.2V23.174a1.202 1.202 0 0 1 1.2-1.2h17.952v1.528c.001.505.41.913.914.914h14.155c.504 0 .913-.41.914-.914v-1.527H60.8A1.202 1.202 0 0 1 62 23.174v19.603a1.202 1.202 0 0 1-1.2 1.2H37.134v-1.344a.918.918 0 0 0-.914-.914Zm0-7.88H22.063a.915.915 0 0 0-.915.915v5.02c0 .503.408.913.912.913h14.159a.913.913 0 0 0 .914-.91v-5.023a.915.915 0 0 0-.914-.914Zm-8.57 4.052h-3.968a.66.66 0 1 1 0-1.32h3.968a.66.66 0 1 1 0 1.32Zm6.96 0h-3.971a.66.66 0 1 1 0-1.32h3.97a.66.66 0 1 1 0 1.32Zm-17.054-6.313-3.225-.025v-3.2a.775.775 0 0 0-.775-.775h-3.2a.776.776 0 0 0-.775.776l-.025 3.224h-3.2a.775.775 0 0 0-.775.776v3.199c0 .428.347.775.775.775l3.225.024v3.203c0 .427.346.773.774.773h3.2a.775.775 0 0 0 .776-.773l.025-3.227h3.2a.775.775 0 0 0 .775-.775v-3.2a.776.776 0 0 0-.775-.775Zm.025 3.68a.297.297 0 0 1-.294.297l-2.93.023a.775.775 0 0 0-.776.774l-.023 2.93a.297.297 0 0 1-.299.294l-2.634-.02a.297.297 0 0 1-.294-.296v-2.908a.775.775 0 0 0-.775-.774l-2.928-.023a.297.297 0 0 1-.295-.299l.021-2.634a.297.297 0 0 1 .297-.294h2.905a.776.776 0 0 0 .775-.775l.023-2.928a.297.297 0 0 1 .299-.295l2.634.021a.297.297 0 0 1 .294.297v2.905c0 .428.347.775.775.775l2.93.023a.297.297 0 0 1 .295.297v2.61Z" opacity=".5"/></svg>