<svg xmlns="http://www.w3.org/2000/svg" viewBox="0 0 64 64" class="ccsvg ccsvg--duotone ccsvg--ps1"><path class="ccsvg__primary" d="M63.847 43.694h.002c-.04-.296-.112-.801-.11-.77L61.37 26.34a10.868 10.868 0 0 0-4.874-8.451s-.483-2.766-.77-3.655a1.887 1.887 0 0 0-.806-1.022 3.728 3.728 0 0 0-.29-.162 8.29 8.29 0 0 0-2.132-.746c-.966-.197-2.388-.37-3.774-.104-2.427.465-2.954.97-3.212 1.182-.83.712-1.125 1.885-1.125 1.885l-.415 2.257a.674.674 0 0 1-.663.552H20.691a.674.674 0 0 1-.663-.552l-.415-2.257s-.295-1.173-1.125-1.885c-.258-.212-.785-.717-3.212-1.182-1.386-.265-2.808-.093-3.774.104a8.29 8.29 0 0 0-2.132.746 3.708 3.708 0 0 0-.29.162c-.49.313-.705.713-.805 1.022-.288.889-.77 3.655-.77 3.655A10.868 10.868 0 0 0 2.63 26.34L.261 42.923c.002-.03-.07.475-.11.77l.002.001C.08 44.256 0 45.016 0 45.621l.002.107c.001.064.003.125.006.184.376 5.813 8.154 9.215 12.303 4.521v.002c1.619-1.773 6.483-10.306 8.44-13.517a1.519 1.519 0 0 1 1.302-.728h19.894c.534 0 1.025.273 1.302.728 1.957 3.21 6.821 11.744 8.439 13.517v-.002c4.15 4.694 11.928 1.292 12.304-4.521.003-.06.005-.12.006-.184 0-.036.003-.072.002-.107 0-.606-.081-1.365-.153-1.927zM11.621 21.64c0-.284.23-.514.513-.514h2.962c.284 0 .513.23.513.514v2.104a.917.917 0 0 1-.333.707l-1.14.942a.817.817 0 0 1-1.041 0l-1.141-.942a.917.917 0 0 1-.333-.707V21.64zm-1.002 7.094H8.515a.513.513 0 0 1-.513-.513v-2.962c0-.284.23-.514.513-.514h2.104c.274 0 .533.123.707.333l.943 1.141c.25.303.25.74 0 1.041l-.943 1.141a.917.917 0 0 1-.707.333zm4.99 3.106c0 .283-.23.513-.513.513h-2.962a.513.513 0 0 1-.513-.513v-2.104c0-.274.122-.533.333-.707l1.14-.943a.817.817 0 0 1 1.041 0l1.141.943a.916.916 0 0 1 .333.707v2.104zm3.62-3.62c0 .284-.23.514-.514.514h-2.104a.917.917 0 0 1-.707-.333l-.943-1.14a.817.817 0 0 1 0-1.042l.943-1.14a.917.917 0 0 1 .707-.334h2.104c.284 0 .513.23.513.514v2.962zm10.396 3.227a.302.302 0 0 1-.303.302h-2.37a.302.302 0 0 1-.302-.302v-1.13c0-.167.136-.302.303-.302h2.37c.166 0 .302.135.302.302v1.13zm8.047-.346-2.818.776a.227.227 0 0 1-.287-.22v-1.55c0-.15.142-.26.287-.22l2.818.776c.222.061.222.377 0 .438zm7.099-2.048c-1.293 0-2.343-1.066-2.343-2.376 0-1.31 1.05-2.377 2.343-2.377 1.287 0 2.336 1.066 2.336 2.377 0 1.31-1.049 2.376-2.336 2.376zm5.839 5.346c-1.288 0-2.336-1.067-2.336-2.377s1.048-2.376 2.336-2.376c1.288 0 2.336 1.066 2.336 2.376S51.898 34.4 50.61 34.4zm0-10.692c-1.288 0-2.336-1.066-2.336-2.376s1.048-2.376 2.336-2.376c1.288 0 2.336 1.066 2.336 2.376s-1.048 2.376-2.336 2.376zm5.867 5.346c-1.288 0-2.336-1.066-2.336-2.376 0-1.31 1.048-2.377 2.336-2.377s2.336 1.066 2.336 2.377c0 1.31-1.048 2.376-2.336 2.376z"/><path class="ccsvg__secondary" d="m12.269 27.26-.943 1.141a.917.917 0 0 1-.707.333H8.515a.513.513 0 0 1-.513-.513v-2.962c0-.284.23-.514.513-.514h2.104c.274 0 .533.123.707.333l.943 1.141c.25.302.25.74 0 1.041zm2.692 0 .943 1.141a.916.916 0 0 0 .707.333h2.104c.284 0 .513-.23.513-.513v-2.962a.513.513 0 0 0-.513-.514h-2.104a.917.917 0 0 0-.707.333l-.943 1.141a.817.817 0 0 0 0 1.041zm-.826-1.866 1.141-.943a.917.917 0 0 0 .333-.707V21.64a.513.513 0 0 0-.513-.514h-2.962a.513.513 0 0 0-.513.514v2.104c0 .274.122.533.333.707l1.14.943a.819.819 0 0 0 1.041 0zm-1.04 2.692-1.141.943a.917.917 0 0 0-.333.707v2.104c0 .283.23.513.513.513h2.962c.284 0 .513-.23.513-.513v-2.104a.917.917 0 0 0-.333-.707l-1.14-.943a.817.817 0 0 0-1.041 0zm16.53 3.361v-1.13a.302.302 0 0 0-.303-.302h-2.37a.302.302 0 0 0-.302.302v1.13c0 .167.136.302.303.302h2.37a.302.302 0 0 0 .301-.302zm8.046-.784-2.817-.776a.227.227 0 0 0-.287.22v1.55c0 .15.142.26.287.22l2.817-.776c.223-.061.223-.377 0-.438zm9.436-3.986c0-1.31-1.049-2.377-2.336-2.377-1.293 0-2.343 1.066-2.343 2.377 0 1.31 1.05 2.376 2.343 2.376 1.287 0 2.336-1.066 2.336-2.376zm5.839 5.345c0-1.31-1.048-2.376-2.336-2.376s-2.336 1.066-2.336 2.376S49.322 34.4 50.61 34.4s2.336-1.067 2.336-2.377zm0-10.691c0-1.31-1.048-2.376-2.336-2.376s-2.336 1.066-2.336 2.376c0 1.31 1.048 2.376 2.336 2.376s2.336-1.066 2.336-2.376zm5.867 5.346c0-1.31-1.048-2.377-2.336-2.377-1.288 0-2.336 1.066-2.336 2.377 0 1.31 1.048 2.376 2.336 2.376 1.288 0 2.336-1.066 2.336-2.376zM46.235 12.929c.462-.219 1.214-.476 2.499-.722 1.386-.265 2.809-.093 3.774.104a8.329 8.329 0 0 1 1.619.505s-.082-.644-.358-.826c-.777-.512-2.408-.824-3.518-.824-1.295 0-2.9.275-3.684.931-.226.19-.332.832-.332.832zm-28.46-.003c-.462-.22-1.214-.477-2.499-.723-1.386-.265-2.808-.093-3.774.104a8.329 8.329 0 0 0-1.619.505s.083-.644.358-.826c.777-.512 2.408-.823 3.518-.823 1.295 0 2.9.275 3.684.93.227.19.332.833.332.833z" opacity=".5"/></svg>