<svg xmlns="http://www.w3.org/2000/svg" viewBox="0 0 64 64" class="ccsvg ccsvg--duotone ccsvg--ps2"><path class="ccsvg__primary" d="m63.77 42.815-.093-.597c-.851-4.717-1.86-11.643-2.328-14.957l-.014-.008c.25-3.402-1.688-7.327-4.035-8.72h-.004l-.014-.01s-.76-.327-.97-1.056c-.13-.451-.42-1.736-.76-2.806-.64-2.026-3.334-2.03-4.584-1.998-4.77.125-4.648 1.14-4.963 2.491-.346 1.491.042 2.594-2.048 2.62H20.033l.358.01h-.34c-2.09-.027-1.701-1.129-2.048-2.62-.315-1.352-.193-2.366-4.963-2.49-1.25-.033-3.943-.029-4.584 1.997-.34 1.07-.63 2.354-.76 2.806-.21.729-.97 1.057-.97 1.057-2.348 1.393-4.288 5.323-4.034 8.727C2.21 30.744 1.12 37.984.262 42.812H.257S-.115 45 .061 46.49c.11.934.204 1.239.463 1.855 1.124 2.604 5.04 4.052 7.88 3.477 2.026-.291 3.85-2.3 4.678-3.495 1.188-1.721 4.217-7.236 4.217-7.236 3.336 4.564 10.083 3.462 11.834-2.072h5.774c1.746 5.531 8.486 6.633 11.824 2.08.036.065 3.034 5.52 4.214 7.23.829 1.196 2.653 3.204 4.678 3.495 2.844.574 6.755-.872 7.88-3.477.26-.616.353-.92.463-1.854.177-1.491-.196-3.677-.196-3.677zM11.365 21.518c0-.098.08-.173.172-.173h2.637a.17.17 0 0 1 .168.173v2.194s-.057.05-.13.11l-1.222 1.022a.213.213 0 0 1-.267 0l-1.225-1.022a3.713 3.713 0 0 1-.133-.11v-2.194zm-1.023 6.23c-.061.071-.108.13-.108.13H8.05a.169.169 0 0 1-.172-.173v-2.649c0-.094.075-.173.172-.173h2.184l.108.134 1.015 1.23a.214.214 0 0 1 0 .271l-1.015 1.23zm4 3.15a.172.172 0 0 1-.168.172h-2.637a.175.175 0 0 1-.172-.173v-2.193s.057-.051.133-.114l1.225-1.018a.213.213 0 0 1 .267 0l1.221 1.018c.074.063.131.114.131.114v2.193zm3.493-3.193c0 .099-.08.173-.172.173h-2.184l-.114-.13-1.015-1.23a.225.225 0 0 1 0-.27l1.015-1.231c.061-.075.114-.134.114-.134h2.184c.091 0 .172.079.172.173v2.65zm4.787 12.477c-2.395 0-4.336-1.954-4.336-4.364 0-2.409 1.941-4.363 4.336-4.363 2.397 0 4.337 1.954 4.337 4.363 0 2.41-1.94 4.364-4.337 4.364zm5.245-12.785a.13.13 0 0 1-.13.124h-2.79c-.067 0-.121-.061-.121-.124v-1.808c0-.063.054-.124.12-.124h2.792a.13.13 0 0 1 .129.124v1.808zm5.446 5.682a.102.102 0 0 1-.106.102h-2.375a.1.1 0 0 1-.104-.102v-1.537a.1.1 0 0 1 .104-.102h2.375c.059 0 .106.043.106.102v1.537zm2.787-5.74v-1.857c0-.068.055-.11.117-.092l2.958.98c.062.028.062.064 0 .085l-2.958.983c-.062.018-.117-.018-.117-.098zm5.028 12.843c-2.399 0-4.336-1.954-4.336-4.364 0-2.409 1.937-4.363 4.336-4.363s4.336 1.954 4.336 4.363c0 2.41-1.937 4.364-4.336 4.364zm4.748-11.637a2.193 2.193 0 0 1-2.18-2.194 2.19 2.19 0 0 1 2.18-2.185 2.18 2.18 0 0 1 2.173 2.185c0 1.211-.97 2.194-2.173 2.194zm4.915 4.709a2.186 2.186 0 0 1-2.172-2.194c0-1.202.977-2.185 2.172-2.185a2.18 2.18 0 0 1 2.172 2.185 2.18 2.18 0 0 1-2.172 2.194zm0-9.658a2.182 2.182 0 0 1-2.172-2.186c0-1.21.977-2.19 2.172-2.19 1.203 0 2.172.98 2.172 2.19a2.177 2.177 0 0 1-2.172 2.186zm4.72 4.949a2.188 2.188 0 0 1-2.18-2.194c0-1.202.976-2.185 2.18-2.185 1.195 0 2.171.983 2.171 2.185 0 1.211-.976 2.194-2.172 2.194z"/><path class="ccsvg__secondary" d="M16.864 13.269c-.669-.33-1.804-.543-3.821-.596-.86-.022-2.393-.01-3.48.65v-.331c0-.25.157-.474.392-.56 1.007-.365 2.146-.498 3.082-.474 1.526.039 2.619.268 3.414.503a.585.585 0 0 1 .413.565v.243zm-5.513 10.443s.057.05.133.11l1.225 1.022a.213.213 0 0 0 .267 0l1.221-1.022c.075-.06.131-.11.131-.11v-2.194a.17.17 0 0 0-.168-.172h-2.637a.173.173 0 0 0-.172.172v2.194zm-.007 2.806a.214.214 0 0 0 0-.27l-1.016-1.231-.108-.134H8.037a.172.172 0 0 0-.172.173v2.65a.17.17 0 0 0 .172.172h2.183l.108-.13 1.016-1.23zm2.984 2.186s-.056-.051-.13-.114l-1.222-1.018a.213.213 0 0 0-.267 0l-1.225 1.018a4.43 4.43 0 0 0-.133.114v2.193c0 .095.08.173.172.173h2.637a.172.172 0 0 0 .168-.173v-2.193zm3.493-3.648a.175.175 0 0 0-.172-.173h-2.184s-.053.06-.113.134l-1.016 1.23a.225.225 0 0 0 0 .271l1.016 1.23c.06.072.113.13.113.13h2.184a.173.173 0 0 0 .172-.173v-2.649zm9.124 10.763c0-2.41-1.94-4.364-4.337-4.364-2.394 0-4.336 1.954-4.336 4.364s1.942 4.363 4.336 4.363c2.397 0 4.337-1.954 4.337-4.363zm.908-10.23a.13.13 0 0 0-.129-.124h-2.791a.125.125 0 0 0-.121.124v1.808c0 .063.054.124.12.124h2.792a.13.13 0 0 0 .13-.124v-1.808zm5.446 5.953a.102.102 0 0 0-.105-.102h-2.376a.1.1 0 0 0-.103.102v1.537a.1.1 0 0 0 .103.102h2.376a.102.102 0 0 0 .105-.102v-1.537zm2.905-4.104 2.957-.983c.063-.021.063-.056 0-.084l-2.957-.98c-.063-.018-.118.023-.118.092v1.857c0 .08.055.116.118.098zm9.247 8.38c0-2.409-1.938-4.363-4.337-4.363-2.398 0-4.336 1.954-4.336 4.364s1.938 4.363 4.336 4.363c2.4 0 4.337-1.954 4.337-4.363zm2.584-9.466a2.18 2.18 0 0 0-2.172-2.186 2.19 2.19 0 0 0-2.18 2.186c0 1.21.984 2.193 2.18 2.193a2.181 2.181 0 0 0 2.172-2.193zm4.914 4.709a2.18 2.18 0 0 0-2.171-2.186 2.184 2.184 0 0 0-2.173 2.186c0 1.21.977 2.193 2.173 2.193a2.18 2.18 0 0 0 2.171-2.193zm0-9.65c0-1.211-.969-2.19-2.171-2.19a2.183 2.183 0 0 0-2.173 2.19c0 1.206.977 2.185 2.173 2.185a2.177 2.177 0 0 0 2.171-2.185zm4.72 4.94a2.184 2.184 0 0 0-2.173-2.185c-1.203 0-2.18.983-2.18 2.186 0 1.21.977 2.193 2.18 2.193a2.186 2.186 0 0 0 2.173-2.193zM47.143 13.27c.669-.33 1.804-.543 3.821-.596.86-.022 2.393-.01 3.48.65v-.331a.595.595 0 0 0-.392-.56c-1.007-.365-2.146-.497-3.082-.474-1.526.04-2.619.268-3.414.503a.585.585 0 0 0-.413.565v.243z" opacity=".5"/></svg>