<svg xmlns="http://www.w3.org/2000/svg" viewBox="0 0 64 64" class="ccsvg ccsvg--duotone ccsvg--ps3"><path class="ccsvg__primary" d="m63.756 42.815-.092-.597c-.852-4.717-1.86-11.643-2.329-14.957l-.014-.008c.25-3.402-1.688-7.327-4.035-8.72h-.004l-.014-.01s-.76-.327-.97-1.056c-.13-.451-.42-1.736-.759-2.806-.641-2.026-3.335-2.03-4.585-1.998-4.77.125-4.648 1.14-4.962 2.491-.347 1.491.041 2.594-2.05 2.62H20.02l.358.01h-.34c-2.09-.027-1.702-1.129-2.049-2.62-.314-1.352-.192-2.366-4.962-2.49-1.25-.033-3.944-.029-4.585 1.997-.339 1.07-.63 2.354-.76 2.806-.21.729-.97 1.057-.97 1.057-2.348 1.393-4.288 5.323-4.033 8.727-.483 3.483-1.574 10.723-2.431 15.551H.244S-.13 45 .047 46.49c.11.934.204 1.239.463 1.855 1.124 2.604 5.04 4.052 7.88 3.477 2.026-.291 3.85-2.3 4.678-3.495 1.188-1.721 4.218-7.236 4.218-7.236 3.335 4.564 10.083 3.462 11.833-2.072h5.774c1.746 5.531 8.486 6.633 11.825 2.08.035.065 3.033 5.52 4.214 7.23.828 1.196 2.652 3.204 4.678 3.495 2.843.574 6.754-.872 7.88-3.477.259-.616.352-.92.463-1.854.176-1.491-.197-3.677-.197-3.677zM11.351 21.518c0-.098.08-.173.172-.173h2.637a.17.17 0 0 1 .168.173v2.194s-.056.05-.13.11l-1.222 1.022a.213.213 0 0 1-.267 0l-1.225-1.022a3.713 3.713 0 0 1-.133-.11v-2.194zm-1.023 6.23-.108.13H8.036a.169.169 0 0 1-.171-.173v-2.649c0-.094.074-.173.172-.173h2.183l.108.134 1.016 1.23a.214.214 0 0 1 0 .271l-1.016 1.23zm4 3.15a.172.172 0 0 1-.168.172h-2.637a.175.175 0 0 1-.172-.173v-2.193s.057-.051.133-.114l1.225-1.018a.213.213 0 0 1 .268 0l1.22 1.018c.075.063.131.114.131.114v2.193zm3.493-3.193c0 .099-.08.173-.172.173h-2.184s-.053-.059-.113-.13l-1.016-1.23a.225.225 0 0 1 0-.27l1.016-1.231c.06-.075.113-.134.113-.134h2.184c.092 0 .172.079.172.173v2.65zm4.787 12.477c-2.394 0-4.336-1.954-4.336-4.364 0-2.409 1.942-4.363 4.336-4.363 2.397 0 4.337 1.954 4.337 4.363 0 2.41-1.94 4.364-4.337 4.364zm5.245-12.785a.13.13 0 0 1-.129.124h-2.791c-.067 0-.121-.061-.121-.124v-1.808c0-.063.054-.124.12-.124h2.792a.13.13 0 0 1 .13.124v1.808zm4.148 6.68A2.071 2.071 0 0 1 29.936 32c0-1.145.926-2.078 2.065-2.078A2.07 2.07 0 0 1 34.064 32 2.068 2.068 0 0 1 32 34.078zm4.085-6.737v-1.858c0-.068.055-.11.118-.092l2.957.98c.063.028.063.064 0 .085l-2.957.983c-.063.018-.118-.018-.118-.098zm5.028 12.842c-2.398 0-4.336-1.954-4.336-4.364 0-2.409 1.938-4.363 4.336-4.363 2.4 0 4.337 1.954 4.337 4.363 0 2.41-1.938 4.364-4.337 4.364zm4.749-11.637a2.193 2.193 0 0 1-2.18-2.194 2.19 2.19 0 0 1 2.18-2.185 2.18 2.18 0 0 1 2.172 2.185c0 1.211-.97 2.194-2.172 2.194zm4.915 4.709a2.186 2.186 0 0 1-2.173-2.194c0-1.202.977-2.185 2.173-2.185a2.18 2.18 0 0 1 2.171 2.185 2.18 2.18 0 0 1-2.171 2.194zm0-9.658a2.182 2.182 0 0 1-2.173-2.186c0-1.21.977-2.19 2.173-2.19 1.202 0 2.171.98 2.171 2.19a2.177 2.177 0 0 1-2.171 2.186zm4.718 4.949a2.188 2.188 0 0 1-2.18-2.194c0-1.202.977-2.185 2.18-2.185 1.196 0 2.173.983 2.173 2.185a2.187 2.187 0 0 1-2.173 2.194z"/><path class="ccsvg__secondary" d="M16.864 13.27c-.669-.33-1.804-.542-3.821-.595-.86-.023-2.393-.01-3.48.65v-.332c0-.25.157-.473.392-.559 1.007-.366 2.146-.498 3.082-.475 1.526.04 2.619.269 3.414.504a.585.585 0 0 1 .413.564v.243zm-5.513 10.443s.057.051.133.11l1.225 1.022a.213.213 0 0 0 .267 0l1.221-1.022c.075-.059.131-.11.131-.11V21.52a.17.17 0 0 0-.168-.173h-2.637a.173.173 0 0 0-.172.173v2.193zm-.007 2.807a.214.214 0 0 0 0-.271l-1.016-1.23-.108-.134H8.037a.172.172 0 0 0-.172.173v2.649a.17.17 0 0 0 .172.173h2.183s.047-.059.108-.13l1.016-1.23zm2.984 2.185-.13-.113-1.222-1.019a.213.213 0 0 0-.267 0l-1.225 1.019a4.43 4.43 0 0 0-.133.113V30.9c0 .094.08.173.172.173h2.637a.172.172 0 0 0 .168-.173v-2.194zm3.493-3.647a.175.175 0 0 0-.172-.173h-2.184s-.053.059-.113.133l-1.016 1.23a.225.225 0 0 0 0 .272l1.016 1.23c.06.071.113.13.113.13h2.184a.173.173 0 0 0 .172-.173v-2.65zm9.124 10.762c0-2.41-1.94-4.363-4.337-4.363-2.394 0-4.336 1.954-4.336 4.363 0 2.41 1.942 4.364 4.336 4.364 2.397 0 4.337-1.954 4.337-4.364zm.908-10.23a.13.13 0 0 0-.129-.123h-2.791a.125.125 0 0 0-.121.123v1.81c0 .062.054.123.12.123h2.792a.13.13 0 0 0 .13-.123v-1.81zm8.35 1.85 2.958-.983c.063-.022.063-.057 0-.084l-2.957-.981c-.063-.018-.118.023-.118.092v1.857c0 .081.055.116.118.099zm9.248 8.38c0-2.41-1.938-4.363-4.337-4.363-2.398 0-4.336 1.954-4.336 4.363 0 2.41 1.938 4.364 4.336 4.364 2.4 0 4.337-1.954 4.337-4.364zm2.584-9.467a2.18 2.18 0 0 0-2.172-2.185 2.19 2.19 0 0 0-2.18 2.185c0 1.21.984 2.194 2.18 2.194a2.181 2.181 0 0 0 2.172-2.194zm4.914 4.71a2.18 2.18 0 0 0-2.171-2.186 2.184 2.184 0 0 0-2.173 2.185c0 1.21.977 2.194 2.173 2.194a2.18 2.18 0 0 0 2.171-2.194zm0-9.65c0-1.212-.969-2.19-2.171-2.19a2.183 2.183 0 0 0-2.173 2.19c0 1.206.977 2.185 2.173 2.185a2.177 2.177 0 0 0 2.171-2.186zm4.72 4.94a2.184 2.184 0 0 0-2.173-2.185c-1.203 0-2.18.982-2.18 2.185 0 1.21.977 2.194 2.18 2.194a2.186 2.186 0 0 0 2.173-2.194zM47.143 13.27c.669-.33 1.804-.543 3.821-.595.86-.023 2.393-.01 3.48.65v-.332a.595.595 0 0 0-.392-.559c-1.007-.366-2.146-.498-3.082-.475-1.526.04-2.619.269-3.414.504a.585.585 0 0 0-.413.564v.243zM32 34.08a2.07 2.07 0 0 0 2.063-2.078A2.07 2.07 0 0 0 32 29.924a2.074 2.074 0 0 0-2.065 2.078A2.07 2.07 0 0 0 32 34.079" opacity=".5"/></svg>