<svg xmlns="http://www.w3.org/2000/svg" viewBox="0 0 64 64" class="ccsvg ccsvg--duotone ccsvg--ps4"><path class="ccsvg__primary" d="M50.83 46.801c1.287 1.056 4.04 1.404 7.05.773 4.036-.846 5.64-2.584 6.094-4.193.242-5.709-1.326-12.602-1.88-14.983l.004.004s-.378-1.795-1.433-5.542c-1.054-3.746-1.684-4.958-2.062-5.478s-1.605-2.613-1.605-2.613l-.004.029c-.256-.499-.368-1.022-1.24-1.226-.019-.003-4.468-.599-7.995-.125h-.002c-.657-.079-1.051.614-1.694.582l-2.545.018h-1.625c.01.042.024.082.024.127v10.634c0 .68-.512 1.231-1.143 1.231l-17.549.004c-.632 0-1.144-.551-1.144-1.23v-10.64c0-.048.015-.09.026-.135h-1.629l-2.542-.008c-.552.027-.917-.511-1.43-.571-.09-.01-.163.002-.264-.011-3.535-.476-7.997.125-7.997.125-.872.203-.984.727-1.24 1.225l-.003-.028s-1.228 2.093-1.606 2.613c-.378.52-1.008 1.731-2.062 5.478C2.279 26.607 1.9 28.402 1.9 28.402l.005-.004c-.555 2.373-2.114 9.25-1.882 14.95.44 1.618 2.039 3.374 6.102 4.226 3 .63 5.745.285 7.038-.762 1.501-3.065 2.778-6.864 3.172-8.082.102-.384.458-.63.78-.826a.459.459 0 0 1 .556.028c1.073.886 2.523 1.432 4.122 1.432 1.63 0 3.107-.568 4.186-1.486.23-.196.512-.32.814-.32H37.16c.298-.009.592.088.817.284 1.082.94 2.576 1.521 4.227 1.521 1.599 0 3.05-.545 4.122-1.432.272-.254.623 0 .859.173.226.148.393.369.477.626.392 1.21 1.656 4.971 3.146 8.026M54.75 23.6a2.218 2.218 0 0 1 1.608-1.605 2.236 2.236 0 0 1 2.733 2.704 2.214 2.214 0 0 1-1.603 1.606c-1.666.407-3.139-1.046-2.738-2.705zm-44.716-3.944c0-.517.84-.937 1.875-.937 1.035 0 1.875.42 1.875.937v2.006c0 .066-.02.125-.059.175l-.004.004a.222.222 0 0 1-.05.055l-1.543 1.598a.31.31 0 0 1-.438 0l-1.543-1.598a.222.222 0 0 1-.05-.055l-.005-.004a.278.278 0 0 1-.058-.175v-2.006zm-.531 6.326-.004.004h-.004a.274.274 0 0 1-.176.058H7.303c-.52 0-.941-.836-.941-1.866 0-1.03.422-1.866.941-1.866H9.32a.28.28 0 0 1 .176.058H9.5l.004.004c.02.012.035.031.05.05l1.606 1.536a.295.295 0 0 1 .094.218.296.296 0 0 1-.094.218L9.553 25.93a.208.208 0 0 1-.05.05zm4.281 2.721c0 .514-.84.933-1.875.933-1.035 0-1.875-.42-1.875-.933v-2.01c0-.066.02-.124.058-.175l.004-.004a.222.222 0 0 1 .051-.054l1.543-1.598a.31.31 0 0 1 .438 0l1.543 1.598a.21.21 0 0 1 .05.054l.004.004c.04.05.059.11.059.175v2.01zm2.61-2.659h-2.016a.292.292 0 0 1-.18-.058l-.004-.004a.208.208 0 0 1-.05-.05l-1.606-1.536a.296.296 0 0 1-.094-.218c0-.086.035-.163.094-.218l1.605-1.536c.016-.019.032-.038.051-.05l.004-.004a.292.292 0 0 1 .18-.058h2.015c.52 0 .942.836.942 1.866 0 1.03-.422 1.866-.942 1.866zm1.343-8.923c0-.63.492-1.147 1.094-1.147s1.098.517 1.098 1.147v1.377c0 .633-.496 1.147-1.098 1.147s-1.094-.514-1.094-1.147V17.12zm7.827 16.446c-.254 1.657-1.613 3.008-3.271 3.264-2.676.413-4.948-1.846-4.539-4.508.255-1.657 1.613-3.007 3.272-3.263 2.676-.413 4.948 1.845 4.538 4.507zm6.43.362a1.743 1.743 0 1 1 0-3.484 1.742 1.742 0 1 1 0 3.484zm12.08-16.808c0-.63.492-1.147 1.094-1.147s1.093.517 1.093 1.147v1.377c0 .633-.492 1.147-1.093 1.147s-1.094-.514-1.094-1.147V17.12zm2.202 16.446c-.255 1.657-1.613 3.007-3.272 3.264-2.675.413-4.948-1.846-4.539-4.508.255-1.657 1.613-3.007 3.272-3.263 2.676-.414 4.948 1.845 4.54 4.507zm3.354-8.854a2.212 2.212 0 0 1-1.621 1.598c-1.664.387-3.113-1.06-2.717-2.71a2.215 2.215 0 0 1 1.6-1.604 2.236 2.236 0 0 1 2.738 2.716zm.273-5.867a2.214 2.214 0 0 1 1.608-1.603 2.235 2.235 0 0 1 2.727 2.71 2.214 2.214 0 0 1-1.608 1.603 2.235 2.235 0 0 1-2.727-2.71zm.092 9.529a2.216 2.216 0 0 1 1.613-1.6 2.237 2.237 0 0 1 2.722 2.704 2.21 2.21 0 0 1-1.598 1.61 2.236 2.236 0 0 1-2.737-2.714z"/><path class="ccsvg__secondary" d="M23.217 26.043c-.632 0-1.144-.55-1.144-1.23v-10.64c0-.297.224-.538.5-.538l18.836.001c.276 0 .5.24.5.538v10.634c0 .68-.512 1.231-1.143 1.232l-17.549.003zm-4.394-6.4c.601 0 1.098-.513 1.098-1.146V17.12c0-.63-.497-1.147-1.098-1.147s-1.094.517-1.094 1.147v1.377c0 .633.492 1.147 1.094 1.147zm-2.438 2.668H14.37a.292.292 0 0 0-.18.058l-.004.004a.198.198 0 0 0-.05.05L12.53 23.96a.295.295 0 0 0-.094.218c0 .085.035.163.094.218l1.605 1.535c.016.02.032.04.051.05l.004.005a.29.29 0 0 0 .18.058h2.015c.52 0 .942-.836.942-1.866 0-1.03-.422-1.866-.942-1.866zm4.633 6.748c-1.659.256-3.017 1.606-3.272 3.263-.41 2.662 1.863 4.92 4.538 4.508 1.66-.256 3.017-1.607 3.272-3.264.41-2.662-1.863-4.92-4.538-4.507zm-10.93-7.219c.012.02.032.04.051.055l1.543 1.598a.31.31 0 0 0 .438 0l1.543-1.598a.222.222 0 0 0 .05-.055l.004-.004a.278.278 0 0 0 .059-.175v-2.006c0-.517-.84-.937-1.875-.937-1.035 0-1.875.42-1.875.937v2.006c0 .066.02.125.058.175l.004.004zm21.897 8.604c-.969 0-1.75.782-1.75 1.742 0 .964.781 1.742 1.75 1.742a1.742 1.742 0 1 0 0-3.484zm-20.74-6.267a.295.295 0 0 0-.094-.218l-1.606-1.536c-.015-.019-.03-.038-.05-.05l-.004-.004h-.004a.273.273 0 0 0-.176-.058H7.295c-.52 0-.941.836-.941 1.866 0 1.03.422 1.866.941 1.866h2.016a.28.28 0 0 0 .176-.058h.004l.004-.004a.208.208 0 0 0 .05-.05l1.606-1.536a.296.296 0 0 0 .094-.218zm2.468 2.336a.222.222 0 0 0-.05-.054l-1.543-1.598a.31.31 0 0 0-.438 0L10.14 26.46a.222.222 0 0 0-.05.054l-.005.004a.278.278 0 0 0-.058.175v2.01c0 .514.84.933 1.875.933 1.035 0 1.875-.42 1.875-.933v-2.01a.278.278 0 0 0-.059-.175l-.004-.004zm38.909-4.958a2.214 2.214 0 0 0 1.608-1.603 2.235 2.235 0 0 0-2.727-2.71c-.78.188-1.42.825-1.608 1.603a2.235 2.235 0 0 0 2.727 2.71zm3.728.44c-.78.189-1.42.826-1.608 1.604a2.238 2.238 0 0 0 2.737 2.705 2.214 2.214 0 0 0 1.604-1.606 2.236 2.236 0 0 0-2.733-2.704zm-11.19-2.351c.601 0 1.093-.514 1.093-1.147V17.12c0-.63-.492-1.147-1.093-1.147s-1.094.517-1.094 1.147v1.377c0 .633.492 1.147 1.094 1.147zm6.44 7.13a2.216 2.216 0 0 0-1.614 1.6 2.236 2.236 0 0 0 2.738 2.715 2.21 2.21 0 0 0 1.598-1.611 2.237 2.237 0 0 0-2.722-2.704zm-9.871 2.285c-1.659.256-3.017 1.606-3.272 3.263-.409 2.662 1.864 4.92 4.54 4.508 1.658-.257 3.016-1.607 3.271-3.264.41-2.662-1.863-4.92-4.539-4.507zm5.155-7.063a2.215 2.215 0 0 0-1.6 1.604c-.396 1.65 1.053 3.097 2.717 2.71a2.212 2.212 0 0 0 1.62-1.598 2.236 2.236 0 0 0-2.737-2.716zm4.716 4.778a2.216 2.216 0 0 0-1.614 1.6 2.236 2.236 0 0 0 2.738 2.715 2.21 2.21 0 0 0 1.598-1.611 2.237 2.237 0 0 0-2.722-2.704zM16.27 13.492c-.041-.263.132-.89-.238-.991-.488-.181-1.703-.56-3.405-.596-1.949-.04-3.78.876-4.23 1.12-.178.07-.081.455-.105.592 0 0 4.452-.599 7.978-.125zm39.423.124c-.024-.136.073-.522-.106-.592-.45-.243-2.28-1.16-4.229-1.119-1.702.036-2.917.414-3.406.595-.37.102-.196.729-.238.992 3.527-.474 7.979.124 7.979.124zM6.118 47.574C2.055 46.722.456 44.966.016 43.348c.163 3.932 1.18 7.31 3.971 8.273 2.885.996 6.045.63 8.249-3.085.312-.527.62-1.112.92-1.724-1.292 1.047-4.038 1.391-7.038.762zm51.755 0c-3.01.632-5.764.283-7.05-.773.3.616.61 1.205.925 1.735 2.204 3.715 5.364 4.081 8.249 3.085 2.784-.962 3.803-4.322 3.97-8.24-.453 1.609-2.058 3.347-6.094 4.193z" opacity=".5"/></svg>