<svg xmlns="http://www.w3.org/2000/svg" viewBox="0 0 64 64" class="ccsvg ccsvg--duotone ccsvg--ps5"><path class="ccsvg__primary" d="M16.383 12.233 7.758 13.76l.144-.996c.9-1.116 3.637-1.802 4.68-1.927a8.833 8.833 0 0 1 3.35.137c.32.061.32.245.32.245ZM4.615 52.569s1.42.541 2.582-3.813a71.235 71.235 0 0 1 7.589-17.293c2.788-4.183 4.665-5.52 5.29-7.323a2.29 2.29 0 0 0 .082-1.031 4.518 4.518 0 0 0 4.378 2.98l14.916.002h.04a4.49 4.49 0 0 0 4.351-3.003 2.296 2.296 0 0 0 .081 1.052c.625 1.803 2.502 3.14 5.29 7.323a71.235 71.235 0 0 1 7.59 17.293c1.16 4.354 2.581 3.813 2.581 3.813l-.034.027h-.002l-3.976.641c-.361.013-.514-.176-.762-.577a66.481 66.481 0 0 1-3.051-7.02c-1.491-3.969-1.927-6.171-4.978-7.226a7.482 7.482 0 0 0-1.446-.299c-.722.026-1.796.323-2.51.342-2.45.05-3.442-.094-7.664-.05v.007l-2.965-.005-2.965.005v-.006c-4.22-.045-5.216.098-7.664.049-.717-.019-1.785-.316-2.51-.342a7.482 7.482 0 0 0-1.446.299c-3.05 1.055-3.487 3.257-4.978 7.226a66.481 66.481 0 0 1-3.051 7.02c-.248.4-.4.59-.762.577Zm16.413-24.456a3.72 3.72 0 1 0 4.375 4.375 3.722 3.722 0 0 0-4.375-4.375Zm12.603 7.072a.382.382 0 0 0-.383-.382h-2.51a.382.382 0 0 0 0 .765h2.51a.382.382 0 0 0 .383-.383Zm7.883-7.072a3.72 3.72 0 1 0 4.375 4.375 3.722 3.722 0 0 0-4.375-4.375Zm6.12-15.88 8.624 1.528-.144-.996c-.9-1.116-3.636-1.802-4.68-1.927a8.833 8.833 0 0 0-3.35.137c-.32.061-.32.245-.32.245Z"/><path class="ccsvg__secondary" d="M19.475 15.22a3.63 3.63 0 0 1 .472-3.135 1.533 1.533 0 0 1 .525-.359c2.15-.587 7.074-.485 11.497-.485v.002c4.423 0 9.347-.102 11.497.485a1.533 1.533 0 0 1 .525.359 3.63 3.63 0 0 1 .472 3.134l-.693 3.301-.32 1.487c-.073.345-.14.68-.205.997-.137.679-.259 1.283-.395 1.77-.642 2.307-3.297 2.286-3.437 2.317H24.525c-.14-.033-2.795-.011-3.437-2.318-.136-.487-.258-1.092-.395-1.77-.064-.318-.132-.652-.205-.998l-.32-1.486Zm.594 8.923c-.625 1.803-2.501 3.14-5.29 7.322A71.235 71.235 0 0 0 7.19 48.76c-1.16 4.354-2.582 3.812-2.582 3.812l.035.029-.005-.001c-.536-.086-1.66-.494-2.924-2.3-1.766-2.523-1.72-9.268-1.72-9.268l.01-.002a50.708 50.708 0 0 1 .7-8.463 61.13 61.13 0 0 1 5.904-18.303l.065-.092c.247-.301.728-.308 1.068-.407l8.629-1.528a1.82 1.82 0 0 1 1.732 1.438l2.028 9.19a2.36 2.36 0 0 1-.06 1.279Zm-9.722-5.455s.032.826.088 1.388l.016.252a.932.932 0 0 0 .312.663c.29.339.99 1 .99 1a.646.646 0 0 0 .622 0s.701-.661.99-1a.932.932 0 0 0 .312-.663l.016-.252a27.88 27.88 0 0 0 .088-1.388.914.914 0 0 0-.784-.868 8.18 8.18 0 0 0-.933-.084 8.18 8.18 0 0 0-.933.084.914.914 0 0 0-.784.868Zm-.262 5.612c.339-.288 1-.99 1-.99a.646.646 0 0 0 0-.622s-.661-.7-1-.99a.932.932 0 0 0-.664-.311l-.25-.016a27.872 27.872 0 0 0-1.39-.088.914.914 0 0 0-.867.784A8.183 8.183 0 0 0 6.83 23a8.18 8.18 0 0 0 .084.933.914.914 0 0 0 .868.783s.826-.03 1.388-.087l.251-.016a.932.932 0 0 0 .664-.313Zm3.728 2.926s-.031-.826-.088-1.388l-.016-.252a.932.932 0 0 0-.312-.663c-.289-.339-.99-1-.99-1a.646.646 0 0 0-.622 0s-.7.661-.99 1a.932.932 0 0 0-.312.663l-.016.251a27.872 27.872 0 0 0-.088 1.39.914.914 0 0 0 .784.867 8.18 8.18 0 0 0 .933.084 8.18 8.18 0 0 0 .933-.084.914.914 0 0 0 .784-.868ZM17.298 23a8.18 8.18 0 0 0-.084-.933.914.914 0 0 0-.867-.784s-.826.031-1.389.088l-.251.015a.932.932 0 0 0-.664.313c-.339.289-1 .99-1 .99a.646.646 0 0 0 0 .622s.661.7 1 .99a.931.931 0 0 0 .664.312l.251.015a27.8 27.8 0 0 0 1.389.088.914.914 0 0 0 .867-.784 8.178 8.178 0 0 0 .084-.932Zm.551-6.503-.279-1.415a.73.73 0 1 0-1.432.283l.28 1.415a.73.73 0 1 0 1.431-.283Zm44.424 33.802c-1.264 1.806-2.388 2.214-2.924 2.3h-.005l.035-.028s-1.421.542-2.582-3.813a71.236 71.236 0 0 0-7.59-17.293c-2.788-4.182-4.664-5.52-5.29-7.322a2.36 2.36 0 0 1-.06-1.28l2.028-9.189a1.82 1.82 0 0 1 1.736-1.438l8.625 1.527v.001c.34.1.822.105 1.068.407l.065.092a61.13 61.13 0 0 1 5.903 18.302 50.708 50.708 0 0 1 .701 8.464l.01.002s.046 6.744-1.72 9.268ZM46.035 16.516a.73.73 0 1 0 1.432.283l.279-1.415a.73.73 0 1 0-1.432-.283Zm.701 4.44a2.075 2.075 0 1 0 2.526 2.526 2.06 2.06 0 0 0-2.526-2.526Zm4.688 4.707a2.075 2.075 0 1 0 2.526 2.526 2.06 2.06 0 0 0-2.526-2.526Zm0-9.413a2.075 2.075 0 1 0 2.526 2.525 2.06 2.06 0 0 0-2.526-2.525Zm4.687 4.706a2.075 2.075 0 1 0 2.526 2.526 2.06 2.06 0 0 0-2.526-2.526Z" opacity=".5"/></svg>