<svg xmlns="http://www.w3.org/2000/svg" viewBox="0 0 64 64" class="ccsvg ccsvg--duotone ccsvg--sega-saturn"><path class="ccsvg__primary" d="M63.545 46.483c-.249 1.738-.621 3.228-3.6 4.78s-6.146 2.856-6.146 2.856a2.477 2.477 0 0 1-2.67-.125c-1.117-.993-8.132-7.387-8.132-7.387l-.204.013a171.852 171.852 0 0 1-21.79-.012s-7.015 6.394-8.132 7.387a2.477 2.477 0 0 1-2.67.124s-3.166-1.304-6.145-2.856-3.352-3.041-3.6-4.78a50.557 50.557 0 0 1-.311-9.932c.372-2.67 1.18-8.38 7.015-15.395s14.898-9.063 14.898-9.063l.506.065h-.005a21.752 21.752 0 0 0-1.874 4.06 25.814 25.814 0 0 0-5.736 2.655c-5.842 3.731-8.38 7.054-10.272 10.859-.095.19-.404.745-.404.745-1.848 3.961.201 8.826 4.576 10.867a9.204 9.204 0 0 0 6.363.567l.003.004.081-.026a8.196 8.196 0 0 0 1.633-.667 50.414 50.414 0 0 0 5.43-2.994c4.37-2.717 6.758-3.094 9.641-3.184a16.39 16.39 0 0 1 8.915 2.756c-.006-.076-.023-.148-.023-.225a3.22 3.22 0 1 1 4.627 2.883c.602.313 1.12.565 1.552.764a8.196 8.196 0 0 0 1.633.667l.08.026.004-.004a9.204 9.204 0 0 0 6.363-.567 8.734 8.734 0 0 0 5.235-8.183 3.219 3.219 0 1 1-2.96-4.485 3.184 3.184 0 0 1 1.575.428 22.89 22.89 0 0 0-3.38-4.88 2.43 2.43 0 1 1-1.281-1.306 35.078 35.078 0 0 0-5.288-4.045 25.816 25.816 0 0 0-5.737-2.654 21.833 21.833 0 0 0-1.872-4.062l.499-.065s9.063 2.049 14.898 9.064 6.643 12.725 7.015 15.395a50.557 50.557 0 0 1-.31 9.932ZM30.392 33.882h3.01a1.009 1.009 0 1 0 0-2.018h-3.01a1.009 1.009 0 0 0 0 2.018Zm-8.818 1.922c-3.633 4.61-9.601 5.962-13.33 3.022S4.44 29.768 8.074 25.16s9.601-5.961 13.33-3.022 3.805 9.059.171 13.667Zm-1.58-5.339a1.763 1.763 0 0 0-2.207-1.712 4.346 4.346 0 0 0-2.17-2.074 1.77 1.77 0 1 0-3.445 0 4.344 4.344 0 0 0-2.246 2.24 1.77 1.77 0 1 0 0 3.464 4.345 4.345 0 0 0 2.237 2.237 1.77 1.77 0 1 0 3.464 0 4.343 4.343 0 0 0 2.308-2.411 1.76 1.76 0 0 0 2.06-1.744Zm22.587 1.803a2.427 2.427 0 1 0-2.427-2.428 2.427 2.427 0 0 0 2.427 2.428Zm4.55 1.583a3.22 3.22 0 1 0 3.219-3.22 3.22 3.22 0 0 0-3.22 3.22Zm.612-9.69a2.427 2.427 0 1 0 2.427 2.427 2.427 2.427 0 0 0-2.427-2.428Z"/><path class="ccsvg__secondary" d="M57.432 35.114a3.22 3.22 0 1 1 0-6.438 3.185 3.185 0 0 1 1.574.428 22.89 22.89 0 0 0-3.38-4.88 2.43 2.43 0 1 1-1.281-1.306 35.078 35.078 0 0 0-5.288-4.045 25.816 25.816 0 0 0-5.737-2.654 21.835 21.835 0 0 0-1.872-4.062l-.007.001a12.278 12.278 0 0 0-1.977-2.487l-.205-.007q-7.354-.273-14.713.008a12.278 12.278 0 0 0-1.977 2.486h-.005a21.75 21.75 0 0 0-1.874 4.06 25.814 25.814 0 0 0-5.736 2.655c-5.841 3.731-8.38 7.054-10.272 10.859-.095.19-.404.745-.404.745-1.848 3.961.201 8.826 4.576 10.867a9.204 9.204 0 0 0 6.363.567l.004.004.08-.026a8.196 8.196 0 0 0 1.634-.667 50.416 50.416 0 0 0 5.429-2.994c4.37-2.717 6.758-3.094 9.641-3.184A16.39 16.39 0 0 1 40.92 37.8c-.006-.076-.023-.148-.023-.225a3.22 3.22 0 1 1 4.627 2.882c.602.314 1.12.566 1.552.765a8.196 8.196 0 0 0 1.633.667l.08.026.004-.004a9.204 9.204 0 0 0 6.364-.567 8.734 8.734 0 0 0 5.235-8.183 3.22 3.22 0 0 1-2.96 1.953Zm-35.852.69c-3.634 4.61-9.602 5.962-13.33 3.023s-3.806-9.06-.172-13.668 9.602-5.961 13.33-3.022 3.805 9.059.172 13.668Zm11.828-1.922h-3.01a1.009 1.009 0 0 1 0-2.018h3.01a1.009 1.009 0 1 1 0 2.018Zm9.178-1.614a2.427 2.427 0 1 1 2.427-2.428 2.427 2.427 0 0 1-2.427 2.428Zm2.735-5.68a2.427 2.427 0 1 1 2.427 2.427 2.427 2.427 0 0 1-2.427-2.427Zm5.034 10.482a3.22 3.22 0 1 1 3.22-3.22 3.22 3.22 0 0 1-3.22 3.22Zm-30.356-6.605a1.759 1.759 0 0 1-2.059 1.744 4.343 4.343 0 0 1-2.308 2.41 1.77 1.77 0 1 1-3.464 0 4.344 4.344 0 0 1-2.236-2.236 1.77 1.77 0 1 1 0-3.464 4.344 4.344 0 0 1 2.245-2.24 1.77 1.77 0 1 1 3.446 0 4.346 4.346 0 0 1 2.17 2.074 1.763 1.763 0 0 1 2.206 1.712Z" opacity=".5"/></svg>