<svg xmlns="http://www.w3.org/2000/svg" viewBox="0 0 64 64" class="ccsvg ccsvg--duotone ccsvg--snes"><path class="ccsvg__primary" d="M60.03 30.266a3.379 3.379 0 0 0-4.753-.563l-6.901 5.412a3.385 3.385 0 1 0 4.19 5.316l6.901-5.412a3.379 3.379 0 0 0 .563-4.753Zm-9.507 10.122a2.623 2.623 0 1 1 2.624-2.624 2.627 2.627 0 0 1-2.624 2.624Zm6.814-5.351a2.626 2.626 0 1 1 2.624-2.628 2.63 2.63 0 0 1-2.624 2.628Zm-4.181-10.104a3.379 3.379 0 0 0-4.754-.559l-6.9 5.412a3.386 3.386 0 0 0 4.19 5.32l6.9-5.42a3.379 3.379 0 0 0 .564-4.753ZM43.63 35.089a2.623 2.623 0 1 1 2.624-2.624 2.627 2.627 0 0 1-2.624 2.624Zm6.814-5.35a2.623 2.623 0 1 1 2.624-2.624 2.627 2.627 0 0 1-2.624 2.623ZM19 30.55a.233.233 0 0 1 .232.235v3.562h-.011a.232.232 0 0 1-.233.235h-3.072a.236.236 0 0 0-.232.238v3.074a.235.235 0 0 1-.233.23H11.89a.23.23 0 0 1-.233-.23v-3.082a.238.238 0 0 0-.236-.238H8.352a.232.232 0 0 1-.233-.235v-3.554a.235.235 0 0 1 .233-.235h3.072a.233.233 0 0 0 .236-.23v-3.074a.23.23 0 0 1 .233-.23h3.568a.235.235 0 0 1 .23.23v3.074a.231.231 0 0 0 .233.23Zm31.625-11.61v-.007h-37.25v.006a13.497 13.497 0 1 0 5.202 26.003h.006l.228-.104q.432-.186.849-.4c.74-.356 1.555-.768 2.053-1.063a5.88 5.88 0 0 1 2.974-.645h14.649a5.868 5.868 0 0 1 2.89.594c.398.23 1.398.738 1.826.972a13.499 13.499 0 1 0 6.573-25.356ZM13.672 40.245a7.68 7.68 0 1 1 7.68-7.68 7.68 7.68 0 0 1-7.68 7.68Zm14.195-5.973-2.672 2.176a.953.953 0 1 1-1.18-1.496l2.665-2.176a.955.955 0 1 1 1.187 1.496Zm7.11 0-2.668 2.176a.954.954 0 0 1-1.184-1.496l2.672-2.176a.953.953 0 0 1 1.18 1.496Zm15.507 10.441a12.313 12.313 0 1 1 12.313-12.312 12.313 12.313 0 0 1-12.313 12.312ZM64 32.434"/><path class="ccsvg__secondary" d="m27.867 34.273-2.672 2.176a.953.953 0 1 1-1.18-1.496l2.665-2.176a.955.955 0 1 1 1.187 1.496Zm7.266-1.34a.947.947 0 0 0-1.336-.156l-2.672 2.176a.954.954 0 0 0 1.184 1.496l2.668-2.176a.952.952 0 0 0 .156-1.34ZM12.5 18.1a13.295 13.295 0 0 0-5.16 1.348.998.998 0 0 0-.505 1.257 13.433 13.433 0 0 1 6.54-1.765v-.006h7.332v-.315a.527.527 0 0 0-.56-.52s-5.737-.07-7.647 0Zm31.368 0a.527.527 0 0 0-.56.519v.315h7.332v.006a13.433 13.433 0 0 1 6.54 1.765.998.998 0 0 0-.505-1.257 13.295 13.295 0 0 0-5.16-1.348c-1.91-.072-7.647 0-7.647 0Zm-30.196 6.787a7.68 7.68 0 1 0 7.68 7.68 7.683 7.683 0 0 0-7.68-7.68Zm5.549 9.461a.232.232 0 0 1-.233.235h-3.072a.236.236 0 0 0-.232.238v3.074a.235.235 0 0 1-.233.23H11.89a.23.23 0 0 1-.233-.23v-3.082a.238.238 0 0 0-.236-.238H8.352a.232.232 0 0 1-.233-.235v-3.554a.235.235 0 0 1 .233-.235h3.072a.233.233 0 0 0 .236-.23v-3.074a.23.23 0 0 1 .233-.23h3.568a.235.235 0 0 1 .23.23v3.074a.231.231 0 0 0 .233.23H19a.233.233 0 0 1 .232.235v3.562Zm31.302.794a2.623 2.623 0 1 0 2.624 2.623 2.622 2.622 0 0 0-2.624-2.623Zm-.078-10.65a2.623 2.623 0 1 0 2.624 2.624 2.625 2.625 0 0 0-2.624-2.624Zm-6.814 5.351a2.623 2.623 0 1 0 2.624 2.623 2.622 2.622 0 0 0-2.624-2.623Zm13.706-.056a2.626 2.626 0 1 0 2.624 2.623 2.624 2.624 0 0 0-2.624-2.623Zm-6.853-9.697a12.313 12.313 0 1 0 12.313 12.313 12.312 12.312 0 0 0-12.313-12.313ZM40.94 34.543a3.384 3.384 0 0 1 .562-4.757l6.901-5.412a3.383 3.383 0 1 1 4.19 5.312l-6.9 5.42a3.387 3.387 0 0 1-4.753-.563Zm18.528.476-6.9 5.412a3.385 3.385 0 1 1-4.191-5.316l6.9-5.412a3.385 3.385 0 0 1 4.191 5.316Z" opacity=".5"/></svg>