<svg xmlns="http://www.w3.org/2000/svg" viewBox="0 0 64 64" class="ccsvg ccsvg--duotone ccsvg--stadia"><path class="ccsvg__primary" d="M63.91 43.845c-1.74-12.538-2.984-23.318-8.552-29.066v-.001c-.09-.092-2.925-2.938-9.84-2.945l-27.032-.007c-6.849.007-9.692 2.795-9.832 2.937l-.003.016C3.075 20.547 1.847 31.275.099 43.845c-1.001 8.478 6.023 10.27 9.81 8.621a7.244 7.244 0 0 0 3.326-3.819c.602-1.566 2.394-6.816 2.918-7.602 1.456-2.185 2.419-1.943 4.955-2.155H42.9c2.536.212 3.498-.03 4.955 2.155.524.786 2.316 6.036 2.918 7.602a6.41 6.41 0 0 0 6.662 4.351c1.914-.19 7.338-1.387 6.474-9.153ZM15.43 24.127a.291.291 0 0 0-.291.291v1.602a1.672 1.672 0 0 1-3.344 0v-1.602a.291.291 0 0 0-.292-.291H9.902a1.672 1.672 0 0 1 0-3.344h1.601a.291.291 0 0 0 .292-.292V18.89a1.672 1.672 0 0 1 3.344 0v1.601a.291.291 0 0 0 .291.292h1.602a1.672 1.672 0 0 1 0 3.344Zm6.178 11.161a3.626 3.626 0 1 1 3.625-3.626 3.626 3.626 0 0 1-3.625 3.626Zm3.518-16.463h-1.49a.967.967 0 1 1 0-1.934h1.49a.967.967 0 1 1 0 1.934Zm2.073 4.993a1.242 1.242 0 1 1 1.241-1.242 1.242 1.242 0 0 1-1.241 1.242Zm4.805 9.916a2.135 2.135 0 1 1 2.136-2.135 2.135 2.135 0 0 1-2.136 2.135Zm4.78-9.916a1.242 1.242 0 1 1 1.242-1.242 1.242 1.242 0 0 1-1.242 1.242Zm1.112-5.97a.967.967 0 0 1 .967-.967h1.49a.967.967 0 1 1 0 1.934h-1.49a.967.967 0 0 1-.967-.967Zm4.378 17.44a3.626 3.626 0 1 1 3.625-3.626 3.626 3.626 0 0 1-3.625 3.626Zm3.924-10.819a2.014 2.014 0 1 1 2.014-2.014 2.014 2.014 0 0 1-2.014 2.014Zm4.412 4.35a2.014 2.014 0 1 1 2.014-2.014 2.014 2.014 0 0 1-2.014 2.014Zm0-8.661a2.014 2.014 0 1 1 2.014-2.015 2.014 2.014 0 0 1-2.014 2.015Zm4.29 4.311a2.014 2.014 0 1 1 2.014-2.014 2.014 2.014 0 0 1-2.014 2.014Z"/><path class="ccsvg__secondary" d="M15.43 24.127a.291.291 0 0 0-.291.291v1.602a1.672 1.672 0 0 1-3.344 0v-1.602a.291.291 0 0 0-.292-.291H9.902a1.672 1.672 0 0 1 0-3.344h1.601a.291.291 0 0 0 .292-.292V18.89a1.672 1.672 0 0 1 3.344 0v1.601a.291.291 0 0 0 .291.292h1.602a1.672 1.672 0 0 1 0 3.344Zm9.803 7.535a3.626 3.626 0 1 0-3.625 3.626 3.626 3.626 0 0 0 3.625-3.626Zm.86-13.804a.967.967 0 0 0-.967-.967h-1.49a.967.967 0 1 0 0 1.934h1.49a.967.967 0 0 0 .966-.967Zm2.347 4.718a1.242 1.242 0 1 0-1.241 1.242 1.242 1.242 0 0 0 1.241-1.242Zm5.7 9.023a2.135 2.135 0 1 0-2.136 2.135 2.135 2.135 0 0 0 2.135-2.135Zm3.886-9.023a1.242 1.242 0 1 0-1.242 1.242 1.242 1.242 0 0 0 1.242-1.242Zm.837-3.761h1.49a.967.967 0 0 0 0-1.934h-1.49a.967.967 0 0 0 0 1.934Zm7.036 12.847a3.626 3.626 0 1 0-3.625 3.626 3.626 3.626 0 0 0 3.625-3.626Zm2.313-9.207a2.014 2.014 0 1 0-2.014 2.014 2.014 2.014 0 0 0 2.014-2.014Zm4.412 4.35a2.014 2.014 0 1 0-2.014 2.014 2.014 2.014 0 0 0 2.014-2.014Zm0-8.662a2.014 2.014 0 1 0-2.014 2.015 2.014 2.014 0 0 0 2.014-2.015Zm4.29 4.312a2.014 2.014 0 1 0-2.014 2.014 2.014 2.014 0 0 0 2.014-2.014Zm-42.947-11.19a15.604 15.604 0 0 0-3.595 1.269 2.964 2.964 0 0 0-1.727 2.238c.076-.078 2.91-2.939 9.84-2.946-.289-1.575-4.518-.561-4.518-.561Zm31.552.568c6.93.007 9.765 2.868 9.84 2.946a2.964 2.964 0 0 0-1.727-2.238 15.603 15.603 0 0 0-3.595-1.269s-4.229-1.013-4.518.561Z" opacity=".5"/></svg>