<svg xmlns="http://www.w3.org/2000/svg" viewBox="0 0 64 64" class="ccsvg ccsvg--duotone ccsvg--switch-pro"><path class="ccsvg__primary" d="M60.152 21.98c-.66-2.872-1.353-5.28-1.945-6.047a4.964 4.964 0 0 0-1.108-.968h-.018a19.062 19.062 0 0 0-5.245-2.586c-3.428-1.161-10.467-1.272-10.467-1.272l.004-.002c-1.467-.023-7.266-.11-9.383-.11-2.125 0-7.959.088-9.401.11l.003.002s-7.038.11-10.467 1.272a19.064 19.064 0 0 0-5.245 2.586 4.964 4.964 0 0 0-1.108.968c-.727.942-1.608 4.369-2.392 8.085.069.107 7.358 11.508 12.85 17.483l.003.005.35-.14a5.484 5.484 0 0 1 1.6-.248l13.807-.06 13.806.06a4.686 4.686 0 0 1 1.95.405l.004-.005c5.511-5.997 12.835-17.461 12.852-17.488ZM24.02 16.712a1.418 1.418 0 1 1-1.428 1.418 1.423 1.423 0 0 1 1.428-1.418Zm-9.752 9.992a3.713 3.713 0 1 1 3.74-3.713 3.726 3.726 0 0 1-3.74 3.713Zm12.696 6.217a.406.406 0 0 1-.406.403h-2.49a.407.407 0 0 0-.405.403v2.47a.404.404 0 0 1-.406.402h-2.381a.404.404 0 0 1-.406-.403v-2.47a.407.407 0 0 0-.406-.402h-2.487a.405.405 0 0 1-.406-.403v-2.365a.405.405 0 0 1 .406-.403h2.487a.407.407 0 0 0 .406-.403v-2.47a.406.406 0 0 1 .406-.402h2.381a.406.406 0 0 1 .406.403v2.47a.406.406 0 0 0 .406.402h2.49a.406.406 0 0 1 .405.403Zm1.747-9.195a.424.424 0 0 1-.425.422h-1.714a.424.424 0 0 1-.425-.422v-1.702a.424.424 0 0 1 .425-.422h1.714a.424.424 0 0 1 .425.422Zm11.161-7.014a1.418 1.418 0 1 1-1.428 1.418 1.423 1.423 0 0 1 1.428-1.418Zm-4.808 6.163a1.428 1.428 0 1 1 1.428 1.418 1.423 1.423 0 0 1-1.428-1.418Zm5.313 12.567a3.713 3.713 0 1 1 3.74-3.714 3.726 3.726 0 0 1-3.74 3.714Zm3.526-10.098a2.353 2.353 0 1 1 2.37-2.353 2.362 2.362 0 0 1-2.37 2.353Zm5.031 4.32a2.353 2.353 0 1 1 2.37-2.352 2.362 2.362 0 0 1-2.37 2.353Zm0-8.64a2.353 2.353 0 1 1 2.37-2.354 2.362 2.362 0 0 1-2.37 2.353Zm5.032 4.32a2.353 2.353 0 1 1 2.37-2.353 2.362 2.362 0 0 1-2.37 2.353Z"/><path class="ccsvg__secondary" d="M24.03 16.706a1.418 1.418 0 1 1-1.427 1.417 1.423 1.423 0 0 1 1.427-1.417Zm-6.012 6.278a3.74 3.74 0 1 0-3.74 3.714 3.726 3.726 0 0 0 3.74-3.714Zm8.957 7.566a.406.406 0 0 0-.406-.403h-2.49a.407.407 0 0 1-.406-.403v-2.47a.406.406 0 0 0-.405-.403h-2.382a.406.406 0 0 0-.405.403v2.47a.407.407 0 0 1-.406.403h-2.487a.405.405 0 0 0-.406.403v2.364a.405.405 0 0 0 .406.403h2.487a.407.407 0 0 1 .406.403v2.47a.405.405 0 0 0 .405.403h2.381a.404.404 0 0 0 .406-.403v-2.47a.407.407 0 0 1 .406-.403h2.49a.406.406 0 0 0 .406-.403Zm1.746-8.532a.424.424 0 0 0-.425-.422h-1.714a.424.424 0 0 0-.425.422v1.702a.424.424 0 0 0 .425.422h1.714a.424.424 0 0 0 .425-.422Zm9.733-3.895a1.428 1.428 0 1 0 1.428-1.417 1.423 1.423 0 0 0-1.428 1.417Zm-1.952 6.163a1.418 1.418 0 1 0-1.428-1.417 1.423 1.423 0 0 0 1.428 1.417Zm7.625 7.436a3.74 3.74 0 1 0-3.74 3.713 3.726 3.726 0 0 0 3.74-3.713Zm2.156-8.738a2.37 2.37 0 1 0-2.37 2.354 2.362 2.362 0 0 0 2.37-2.354Zm5.032 4.321a2.37 2.37 0 1 0-2.37 2.354 2.362 2.362 0 0 0 2.37-2.354Zm0-8.641a2.37 2.37 0 1 0-2.37 2.353 2.362 2.362 0 0 0 2.37-2.353Zm5.031 4.32a2.37 2.37 0 1 0-2.37 2.354 2.362 2.362 0 0 0 2.37-2.354ZM3.388 24.01a210.465 210.465 0 0 0-1.455 7.707C.973 37.349-.635 47.06.264 49.186c.748 2.711 3.047 5.075 5.516 5.075a5.287 5.287 0 0 0 4.458-2.401c2.174-3.548 4.254-8.073 4.808-9.143a2.687 2.687 0 0 1 1.198-1.216l-.004-.005C10.728 35.5 3.405 24.036 3.388 24.01ZM47.76 41.513l-.004.005a2.687 2.687 0 0 1 1.198 1.215c.554 1.07 2.634 5.595 4.808 9.144a5.287 5.287 0 0 0 4.458 2.401c2.469 0 4.768-2.364 5.516-5.075.9-2.126-.709-11.837-1.67-17.47-.368-2.165-.886-5.012-1.454-7.708-.017.027-7.34 11.49-12.852 17.488Zm4.06-31.047c-2.077-.673-7.634-1.287-9.289.045-.271-.012-.54-.018-.803-.018 0 0-7.296-.116-9.728-.116s-9.728.116-9.728.116q-.403 0-.818.018v.002c-1.65-1.335-7.214-.72-9.293-.047-2.277.736-4.71 2.579-5.27 4.494a19.063 19.063 0 0 1 5.244-2.586c3.429-1.161 10.468-1.272 10.468-1.272l-.004-.002c1.442-.022 7.276-.11 9.4-.11 2.118 0 7.917.087 9.384.11l-.004.002s7.039.11 10.468 1.272a19.063 19.063 0 0 1 5.244 2.586c-.56-1.915-2.993-3.758-5.27-4.494Z" opacity=".5"/></svg>