<svg xmlns="http://www.w3.org/2000/svg" viewBox="0 0 64 64" class="ccsvg ccsvg--duotone ccsvg--wii-u-pro"><path class="ccsvg__primary" d="M63.35 37.726c-.763-6.285-1.961-13.411-4.576-19.367 0 0-1.905-3.807-3.305-5.244-1.843-1.853-3.102-2.503-3.7-2.673h-.006l.024.008c.06.044.604.445.028.445-.608 0-3.65 0-3.926.055-.277.055-.259-.576-.259-.577h-.005c-3.199.978-5.534 2.997-10.858 3.454-2.801.24-4.392.3-4.767.293-.375.007-1.966-.053-4.767-.293-5.324-.457-7.659-2.476-10.858-3.454h-.007c0 .001.018.632-.258.577-.277-.055-3.318-.055-3.927-.055-.59 0-.003-.422.033-.448-.599.173-1.857.829-3.685 2.668-1.4 1.437-3.305 5.244-3.305 5.244C2.61 24.315 1.413 31.44.65 37.726-.112 44.01.007 50.464.007 50.464c-.092 4.027 5.046 6.197 7.868 3.398 9.582-8.84 10.857-11.569 24.243-11.28 13.208-.296 14.629 2.645 24.007 11.28 2.823 2.8 7.96.628 7.868-3.398 0 0 .12-6.453-.643-12.738zM8.979 23.322c0-2.195 1.768-3.974 3.948-3.974s3.95 1.78 3.95 3.974-1.769 3.973-3.95 3.973-3.948-1.779-3.948-3.973zm15.685 11.377a.565.565 0 0 1-.563.566h-2.376a.257.257 0 0 0-.256.258v2.391a.565.565 0 0 1-.563.567h-1.973a.565.565 0 0 1-.563-.567v-2.39a.257.257 0 0 0-.257-.259h-2.376a.565.565 0 0 1-.563-.566v-1.985c0-.313.252-.567.563-.567h2.376a.257.257 0 0 0 .257-.258v-2.391c0-.313.252-.567.563-.567h1.973c.31 0 .563.254.563.567v2.391c0 .143.114.258.256.258H24.1c.311 0 .563.254.563.567v1.985zm1.937-7.209c-.768 0-1.39-.626-1.39-1.399s.622-1.398 1.39-1.398c.768 0 1.39.626 1.39 1.398s-.622 1.399-1.39 1.399zm5.274 7.684c-.768 0-1.39-.626-1.39-1.399 0-.772.622-1.399 1.39-1.399s1.39.627 1.39 1.4c0 .772-.623 1.398-1.39 1.398zm0-7.684c-.768 0-1.39-.626-1.39-1.399s.622-1.398 1.39-1.398 1.39.626 1.39 1.398-.623 1.399-1.39 1.399zm3.883-1.399c0-.772.623-1.398 1.39-1.398.768 0 1.39.626 1.39 1.398s-.622 1.399-1.39 1.399c-.767 0-1.39-.626-1.39-1.399zm3.689 9.696c-1.105 0-2-.9-2-2.012 0-1.11.895-2.012 2-2.012s1.999.901 1.999 2.012a2.006 2.006 0 0 1-2 2.012zm4.454 4.107c-1.104 0-2-.9-2-2.012s.896-2.012 2-2.012 2 .901 2 2.012-.896 2.012-2 2.012zm0-8.214c-1.104 0-2-.9-2-2.012s.896-2.011 2-2.011 2 .9 2 2.011-.896 2.012-2 2.012zm4.455 4.107c-1.104 0-2-.9-2-2.012 0-1.11.896-2.012 2-2.012s2 .901 2 2.012a2.006 2.006 0 0 1-2 2.012zm2.466-8.492c-2.181 0-3.95-1.779-3.95-3.973s1.769-3.974 3.95-3.974c2.18 0 3.949 1.78 3.949 3.974s-1.768 3.973-3.95 3.973z"/><path class="ccsvg__secondary" d="M8.979 23.309c0-2.195 1.768-3.974 3.948-3.974s3.95 1.78 3.95 3.974-1.769 3.974-3.95 3.974-3.948-1.78-3.948-3.974zm15.685 9.392a.565.565 0 0 0-.563-.566h-2.376a.257.257 0 0 1-.256-.258v-2.392a.565.565 0 0 0-.563-.566h-1.973a.565.565 0 0 0-.563.566v2.392a.257.257 0 0 1-.257.258h-2.376a.565.565 0 0 0-.563.566v1.985c0 .313.252.567.563.567h2.376c.142 0 .257.115.257.258v2.39c0 .314.252.567.563.567h1.973a.565.565 0 0 0 .563-.566V35.51c0-.143.114-.258.256-.258H24.1a.565.565 0 0 0 .563-.567V32.7zm3.327-6.622c0-.773-.622-1.399-1.39-1.399-.768 0-1.39.626-1.39 1.399s.622 1.398 1.39 1.398c.768 0 1.39-.626 1.39-1.398zm5.274 7.684c0-.773-.623-1.4-1.39-1.4s-1.39.627-1.39 1.4c0 .772.622 1.398 1.39 1.398s1.39-.626 1.39-1.398zm0-7.684c0-.773-.623-1.399-1.39-1.399s-1.39.626-1.39 1.399.622 1.398 1.39 1.398 1.39-.626 1.39-1.398zm3.883 1.398c.768 0 1.39-.626 1.39-1.398s-.622-1.399-1.39-1.399c-.767 0-1.39.626-1.39 1.399s.623 1.398 1.39 1.398zm4.298 6.286c0-1.111-.895-2.012-2-2.012s-1.999.9-1.999 2.012c0 1.11.895 2.011 2 2.011s1.999-.9 1.999-2.011zM45.9 37.87a2.006 2.006 0 0 0-2-2.012c-1.104 0-2 .9-2 2.012s.896 2.011 2 2.011 2-.9 2-2.011zm0-8.214a2.006 2.006 0 0 0-2-2.012c-1.104 0-2 .9-2 2.012s.896 2.012 2 2.012 2-.901 2-2.012zm4.454 4.107a2.006 2.006 0 0 0-2-2.012c-1.103 0-1.998.9-1.998 2.012 0 1.11.895 2.011 1.999 2.011s2-.9 2-2.011zm4.416-10.454c0-2.195-1.768-3.974-3.95-3.974-2.18 0-3.948 1.78-3.948 3.974s1.768 3.974 3.949 3.974c2.18 0 3.949-1.78 3.949-3.974zM12.183 10.882c.609 0 3.65 0 3.927.055s.258-.576.258-.576c-.041-.175-.085-1.013-.189-1.153-.465-.944-3.327-.943-3.603.113l-.353 1.108s-.648.453-.04.453zm35.706.055c.276-.055 3.318-.055 3.926-.055.576 0 .032-.401-.028-.444l-.024-.009-.354-1.108c-.277-1.056-3.136-1.057-3.603-.113-.1.13-.146.915-.184 1.125l.008.028s-.018.632.259.576z" opacity=".5"/></svg>