<svg xmlns="http://www.w3.org/2000/svg" viewBox="0 0 64 64" class="ccsvg ccsvg--duotone ccsvg--wii-u"><path class="ccsvg__primary" d="M61.198 17.596c-1.617-1.635-4.502-2.51-7.477-2.589H10.28c-2.976.08-5.861.954-7.478 2.59C.863 19.554-.153 23.074.02 26.431L.017 38.605c.078 3.01.945 5.932 2.562 7.567 1.794 1.817 4.913 2.82 7.998 2.82H53.42c3.085 0 6.208-1.003 8-2.82 1.617-1.635 2.484-4.557 2.562-7.567V26.432c.171-3.357-.844-6.877-2.784-8.836zm-37.131-.904h15.86a1.12 1.12 0 0 1 1.116 1.126c0 .622-.5 1.125-1.117 1.125h-15.86a1.12 1.12 0 0 1-1.116-1.125c0-.622.5-1.126 1.117-1.126zm-20.834 6.16c0-1.31 1.05-2.37 2.342-2.37 1.297 0 2.343 1.06 2.343 2.37 0 1.307-1.046 2.367-2.343 2.367-1.292 0-2.342-1.06-2.342-2.368zm6.473 16.255a.266.266 0 0 1-.265.264H6.98a.266.266 0 0 1-.266-.264v-1.395c0-.146.121-.264.266-.264h2.46c.144 0 .265.118.265.264v1.395zm1.43-8.084a.265.265 0 0 1-.262.267h-1.48c-.14 0-.262.12-.262.267v1.497a.266.266 0 0 1-.261.264H7.55a.263.263 0 0 1-.262-.264v-1.497a.267.267 0 0 0-.261-.267H5.544a.264.264 0 0 1-.258-.267V29.69c0-.146.118-.266.258-.266h1.484c.14 0 .261-.119.261-.265v-1.497c0-.146.118-.266.262-.266h1.32c.14 0 .261.12.261.266v1.497c0 .146.121.265.262.265h1.48c.144 0 .261.12.261.266v1.333zm20.74 16.137c-.719 0-1.305-.592-1.305-1.32s.586-1.314 1.305-1.314c.718 0 1.304.588 1.304 1.315s-.586 1.32-1.304 1.32zm14.415-.83a.264.264 0 0 1-.266.265h-1.167a.263.263 0 0 1-.262-.264v-1.039c0-.146.117-.265.262-.265h1.167c.149 0 .266.119.266.265v1.039zm2.327.384c-.477 0-.863-.392-.863-.873s.386-.873.863-.873c.476 0 .866.391.866.873s-.39.873-.866.873zm.866-4.827a.448.448 0 0 1-.44.446H14.711a.45.45 0 0 1-.445-.446v-19.54c0-.244.203-.443.445-.443h34.331c.238 0 .441.199.441.444v19.54zm3.64-.68a.865.865 0 0 1-.86-.872c0-.482.383-.873.86-.873a.87.87 0 0 1 .866.873.87.87 0 0 1-.867.873zm0-3.258a.865.865 0 0 1-.86-.873c0-.481.383-.873.86-.873a.87.87 0 0 1 .866.873.87.87 0 0 1-.867.873zm-.04-6.392c-.648 0-1.171-.53-1.171-1.185 0-.654.523-1.183 1.171-1.183.644 0 1.172.53 1.172 1.183a1.18 1.18 0 0 1-1.172 1.185zm2.808 2.547a1.178 1.178 0 0 1-1.168-1.185c0-.653.523-1.185 1.168-1.185.648 0 1.17.532 1.17 1.185 0 .652-.522 1.185-1.17 1.185zm0-5.152a1.177 1.177 0 0 1-1.168-1.185c0-.654.523-1.185 1.168-1.185.648 0 1.17.531 1.17 1.185s-.522 1.185-1.17 1.185zm2.752 2.575c-.648 0-1.17-.53-1.17-1.185 0-.654.522-1.183 1.17-1.183.648 0 1.172.53 1.172 1.183 0 .656-.524 1.185-1.172 1.185zm-.383-6.19c-1.292 0-2.342-1.06-2.342-2.367 0-1.31 1.05-2.37 2.342-2.37 1.297 0 2.343 1.06 2.343 2.37 0 1.307-1.046 2.368-2.343 2.368z"/><path class="ccsvg__secondary" d="M3.229 22.851c0-1.309 1.05-2.37 2.342-2.37 1.297 0 2.343 1.061 2.343 2.37 0 1.308-1.046 2.368-2.343 2.368-1.292 0-2.342-1.06-2.342-2.368zm6.473 14.861a.266.266 0 0 0-.265-.264h-2.46a.266.266 0 0 0-.265.264v1.395c0 .146.12.264.265.264h2.46a.266.266 0 0 0 .265-.264v-1.395zm1.43-8.022a.265.265 0 0 0-.262-.266H9.39a.266.266 0 0 1-.262-.265v-1.497a.267.267 0 0 0-.261-.266h-1.32a.265.265 0 0 0-.262.266v1.497a.266.266 0 0 1-.261.265H5.54c-.14 0-.257.12-.257.266v1.333c0 .147.117.267.257.267h1.484c.14 0 .261.12.261.267v1.497c0 .146.118.264.262.264h1.32c.14 0 .261-.118.261-.264v-1.497c0-.147.121-.267.262-.267h1.48c.144 0 .261-.12.261-.267V29.69zm11.814-11.872c0 .622.5 1.125 1.117 1.125h15.86a1.12 1.12 0 0 0 1.116-1.125c0-.622-.5-1.126-1.116-1.126h-15.86a1.12 1.12 0 0 0-1.117 1.126zm10.23 28.023a1.31 1.31 0 0 0-1.304-1.316 1.31 1.31 0 0 0-1.304 1.316c0 .727.585 1.32 1.304 1.32.718 0 1.304-.593 1.304-1.32zm13.11-.55a.264.264 0 0 0-.265-.264h-1.167a.263.263 0 0 0-.262.265v1.039c0 .146.118.264.262.264h1.167a.264.264 0 0 0 .266-.264v-1.04zm3.195.55a.871.871 0 0 0-.867-.873.868.868 0 0 0-.863.873.87.87 0 0 0 .863.873.871.871 0 0 0 .867-.873zm0-23.493a.447.447 0 0 0-.441-.444H14.708a.447.447 0 0 0-.445.444v19.54a.45.45 0 0 0 .445.445H49.04a.448.448 0 0 0 .44-.446v-19.54zm4.505 17.987a.87.87 0 0 0-.866-.873.865.865 0 0 0-.86.873c0 .482.383.873.86.873a.87.87 0 0 0 .866-.873zm0-3.259a.87.87 0 0 0-.866-.873c-.477 0-.86.391-.86.873s.383.873.86.873a.87.87 0 0 0 .866-.873zm.266-6.704c0-.654-.527-1.183-1.172-1.183-.648 0-1.171.529-1.171 1.183 0 .655.523 1.185 1.171 1.185a1.18 1.18 0 0 0 1.172-1.185zm2.807 2.547c0-.653-.523-1.185-1.171-1.185-.645 0-1.168.532-1.168 1.185 0 .652.523 1.185 1.168 1.185.648 0 1.171-.533 1.171-1.185zm0-5.152c0-.654-.523-1.185-1.171-1.185-.645 0-1.168.531-1.168 1.185s.523 1.185 1.168 1.185c.648 0 1.171-.531 1.171-1.185zm2.753 2.575c0-.654-.524-1.183-1.172-1.183s-1.17.53-1.17 1.183c0 .656.522 1.185 1.17 1.185s1.172-.53 1.172-1.185zm.789-7.372c0-1.31-1.047-2.37-2.343-2.37-1.293 0-2.343 1.06-2.343 2.37 0 1.307 1.05 2.368 2.343 2.368 1.296 0 2.343-1.06 2.343-2.368z" opacity=".5"/></svg>