<svg xmlns="http://www.w3.org/2000/svg" viewBox="0 0 64 64" class="ccsvg ccsvg--duotone ccsvg--wii-classic"><path class="ccsvg__primary" d="M45.899 16.142c-3.7.255-10.946.727-13.898.727s-10.198-.472-13.898-.727C7.2 14.739.013 23.275.013 32c0 8.725 7.186 17.261 18.09 15.858 3.7-.255 10.946-.727 13.898-.727s10.198.472 13.898.727c10.925 1.4 18.087-7.14 18.088-15.858 0-8.718-7.163-17.258-18.088-15.858ZM17.778 29.79a.453.453 0 0 1-.453.45h-2.776a.454.454 0 0 0-.452.45v2.757a.451.451 0 0 1-.453.45H10.99a.451.451 0 0 1-.453-.45V30.69a.454.454 0 0 0-.452-.45H7.312a.451.451 0 0 1-.453-.45v-2.64a.451.451 0 0 1 .453-.45h2.773a.454.454 0 0 0 .452-.45v-2.756a.453.453 0 0 1 .453-.45h2.654a.453.453 0 0 1 .453.45v2.757a.454.454 0 0 0 .452.45h2.776a.453.453 0 0 1 .453.45Zm9.35-2.764a1.37 1.37 0 1 1-1.379 1.37 1.375 1.375 0 0 1 1.379-1.37Zm1.337 12.376-1.122 2.682a1.341 1.341 0 0 1-.729.723l-2.7 1.108a1.353 1.353 0 0 1-1.03-.001l-2.697-1.116a1.341 1.341 0 0 1-.727-.724l-1.115-2.685a1.33 1.33 0 0 1 .002-1.024l1.121-2.682a1.341 1.341 0 0 1 .73-.723l2.7-1.108a1.352 1.352 0 0 1 1.03.001l2.697 1.115a1.341 1.341 0 0 1 .727.725l1.114 2.685a1.33 1.33 0 0 1-.001 1.024Zm3.476-9.635a1.37 1.37 0 1 1 1.38-1.37 1.375 1.375 0 0 1-1.38 1.37Zm4.814-2.73a1.37 1.37 0 1 1-1.379 1.371 1.375 1.375 0 0 1 1.38-1.37Zm8.9 12.365-1.12 2.682a1.341 1.341 0 0 1-.73.723l-2.7 1.108a1.353 1.353 0 0 1-1.03-.001l-2.697-1.116a1.341 1.341 0 0 1-.727-.724l-1.115-2.685a1.33 1.33 0 0 1 .001-1.024l1.122-2.682a1.341 1.341 0 0 1 .729-.723l2.7-1.108a1.352 1.352 0 0 1 1.03.001l2.698 1.115a1.341 1.341 0 0 1 .727.725l1.114 2.685a1.33 1.33 0 0 1-.001 1.024Zm-.202-8.605a2.326 2.326 0 1 1 2.34-2.327 2.333 2.333 0 0 1-2.34 2.327Zm6.295 4.578a2.326 2.326 0 1 1 2.34-2.326 2.333 2.333 0 0 1-2.34 2.326Zm0-9.305a2.326 2.326 0 1 1 2.34-2.326 2.333 2.333 0 0 1-2.34 2.326Zm6.295 4.727a2.326 2.326 0 1 1 2.34-2.327 2.333 2.333 0 0 1-2.34 2.327Z"/><path class="ccsvg__secondary" d="M17.778 29.79a.453.453 0 0 1-.453.45h-2.776a.454.454 0 0 0-.452.45v2.757a.451.451 0 0 1-.453.45H10.99a.451.451 0 0 1-.453-.45V30.69a.454.454 0 0 0-.452-.45H7.312a.451.451 0 0 1-.453-.45v-2.64a.451.451 0 0 1 .453-.45h2.773a.454.454 0 0 0 .452-.45v-2.756a.453.453 0 0 1 .453-.45h2.654a.453.453 0 0 1 .453.45v2.757a.454.454 0 0 0 .452.45h2.776a.453.453 0 0 1 .453.45Zm7.971-1.393a1.379 1.379 0 1 0 1.379-1.371 1.375 1.375 0 0 0-1.379 1.37Zm2.717 9.981-1.114-2.685a1.341 1.341 0 0 0-.727-.725l-2.698-1.115a1.352 1.352 0 0 0-1.03-.001l-2.7 1.108a1.341 1.341 0 0 0-.729.723l-1.121 2.682a1.33 1.33 0 0 0-.002 1.024l1.115 2.685a1.341 1.341 0 0 0 .727.725l2.697 1.115a1.352 1.352 0 0 0 1.03.001l2.7-1.108a1.341 1.341 0 0 0 .73-.723l1.12-2.682a1.33 1.33 0 0 0 .002-1.024Zm4.854-9.981a1.379 1.379 0 1 0-1.379 1.37 1.375 1.375 0 0 0 1.38-1.37Zm2.056.011a1.379 1.379 0 1 0 1.38-1.37 1.375 1.375 0 0 0-1.38 1.37Zm10.281 9.97-1.114-2.685a1.341 1.341 0 0 0-.727-.725l-2.698-1.115a1.352 1.352 0 0 0-1.03-.001l-2.7 1.108a1.341 1.341 0 0 0-.729.723l-1.122 2.682a1.33 1.33 0 0 0 0 1.024l1.113 2.685a1.341 1.341 0 0 0 .728.725l2.697 1.115a1.352 1.352 0 0 0 1.03.001l2.7-1.108a1.341 1.341 0 0 0 .73-.723l1.12-2.682a1.33 1.33 0 0 0 .002-1.024Zm2.136-9.908a2.34 2.34 0 1 0-2.34 2.327 2.333 2.333 0 0 0 2.34-2.327Zm6.295 4.58a2.34 2.34 0 1 0-2.34 2.326 2.333 2.333 0 0 0 2.34-2.327Zm0-9.306a2.34 2.34 0 1 0-2.34 2.326 2.333 2.333 0 0 0 2.34-2.326Zm6.295 4.726a2.34 2.34 0 1 0-2.34 2.327 2.333 2.333 0 0 0 2.34-2.327Zm-42.32-12.324v-.035l.003-.008h-.002V16.1h-.007.007c-.242-.363-.755-.598-1.717-.598-3.018 0-7.105 1.253-8.752 2.744a15.887 15.887 0 0 1 10.469-2.1Zm8.51.525c-.489-1.164-3.202-1.263-3.931-.229v.006c1.293.08 2.64.16 3.932.23Zm29.832 1.573c-1.647-1.49-5.734-2.704-8.753-2.704-.962 0-1.474.236-1.716.599h.007-.007v.002l-.002.001v.004a15.905 15.905 0 0 1 10.47 2.098Zm-15.047-1.802c-.73-1.034-3.443-.935-3.932.23v.005c1.29-.068 2.639-.148 3.932-.228Z" opacity=".5"/></svg>