<svg xmlns="http://www.w3.org/2000/svg" viewBox="0 0 64 64" class="ccsvg ccsvg--duotone ccsvg--wii"><path class="ccsvg__primary" d="M37.376 0H26.63C25.183 0 24 1.154 24 2.562v58.876C24 62.844 25.183 64 26.63 64h10.746C38.821 64 40 62.844 40 61.438V2.562C40 1.154 38.82 0 37.376 0zm-6.669 8.902V6.939c0-.176.149-.32.33-.32h1.929c.18 0 .329.144.329.32v1.963c0 .176.148.32.329.32h2.017c.181 0 .33.145.33.32v1.88c0 .175-.149.32-.33.32h-2.017a.326.326 0 0 0-.33.32v1.963c0 .178-.148.32-.328.32h-1.93a.325.325 0 0 1-.329-.32v-1.963a.326.326 0 0 0-.329-.32h-2.015a.325.325 0 0 1-.33-.32v-1.88c0-.175.147-.32.33-.32h2.015c.18 0 .33-.144.33-.32zm-2.85-7.172c.714 0 1.294.563 1.294 1.26 0 .695-.58 1.258-1.294 1.258s-1.294-.563-1.294-1.258c0-.697.58-1.26 1.294-1.26zm-.373 30.25c-.714 0-1.292-.565-1.292-1.26 0-.696.578-1.26 1.292-1.26.716 0 1.294.564 1.294 1.26 0 .695-.578 1.26-1.294 1.26zm4.517 22.606c-.969 0-1.753-.765-1.753-1.71 0-.942.784-1.704 1.753-1.704.969 0 1.753.762 1.753 1.704 0 .945-.784 1.71-1.753 1.71zm0-5.703c-.969 0-1.753-.761-1.753-1.703 0-.945.784-1.71 1.753-1.71.969 0 1.753.765 1.753 1.71 0 .942-.784 1.703-1.753 1.703zM30.707 30.72c0-.696.58-1.26 1.294-1.26s1.294.564 1.294 1.26c0 .695-.58 1.26-1.294 1.26s-1.294-.565-1.294-1.26zm1.294-8.219c-1.416 0-2.565-1.119-2.565-2.498 0-1.379 1.149-2.498 2.565-2.498s2.565 1.12 2.565 2.498c0 1.38-1.149 2.498-2.565 2.498zm4.517 9.478c-.716 0-1.294-.564-1.294-1.26 0-.695.578-1.259 1.294-1.259.714 0 1.292.564 1.292 1.26 0 .695-.578 1.26-1.292 1.26z"/><path class="ccsvg__secondary" d="M30.708 8.902V6.94c0-.176.149-.32.33-.32h1.929c.18 0 .329.144.329.32v1.963c0 .176.148.32.329.32h2.017c.181 0 .33.145.33.32v1.88c0 .175-.149.32-.33.32h-2.017a.326.326 0 0 0-.33.32v1.963c0 .178-.148.32-.328.32h-1.93a.325.325 0 0 1-.329-.32v-1.963a.326.326 0 0 0-.329-.32h-2.015a.325.325 0 0 1-.33-.32v-1.88c0-.175.147-.32.33-.32h2.015c.18 0 .33-.144.33-.32zM26.564 2.99c0 .695.58 1.258 1.294 1.258.714 0 1.294-.563 1.294-1.258 0-.697-.58-1.26-1.294-1.26-.714 0-1.294.563-1.294 1.26zm2.215 27.73c0-.696-.578-1.26-1.294-1.26-.714 0-1.292.564-1.292 1.26 0 .695.578 1.26 1.292 1.26.716 0 1.294-.565 1.294-1.26zm4.976 22.156c0-.942-.784-1.704-1.753-1.704-.969 0-1.753.762-1.753 1.704 0 .945.784 1.71 1.753 1.71.969 0 1.753-.765 1.753-1.71zm0-5.696c0-.945-.784-1.71-1.753-1.71-.969 0-1.753.765-1.753 1.71 0 .942.784 1.703 1.753 1.703.969 0 1.753-.761 1.753-1.703zm-1.753-15.2c.714 0 1.294-.565 1.294-1.26 0-.696-.58-1.26-1.294-1.26-.714 0-1.294.564-1.294 1.26 0 .695.58 1.26 1.294 1.26zm2.565-11.977c0-1.379-1.149-2.498-2.565-2.498s-2.565 1.12-2.565 2.498c0 1.38 1.149 2.498 2.565 2.498s2.565-1.119 2.565-2.498zm3.244 10.717c0-.696-.578-1.26-1.292-1.26-.716 0-1.294.564-1.294 1.26 0 .695.578 1.26 1.294 1.26.714 0 1.292-.565 1.292-1.26z" opacity=".5"/></svg>