<svg xmlns="http://www.w3.org/2000/svg" viewBox="0 0 64 64" class="ccsvg ccsvg--duotone ccsvg--xbox-one"><path class="ccsvg__primary" d="M63.5 39.608c-.07-.357-.148-.706-.234-1.055l.036-.012s-.477-2.723-1.387-5.97c-1.375-4.904-3.485-11.252-4.41-13.234-1.54-3.296-2.106-4.224-3.129-4.635l-.007-.002-.013-.043c-.502-.48-3.3-2.08-5.958-2.66-1.258-.275-4.026-1.267-5.335-.65-1.308.618-1.138.427-2.288.47H23.639c-1.15-.043-.98.148-2.288-.47-1.309-.617-4.485.375-5.743.65-2.67.582-5.484 2.195-5.967 2.668l-.015.037c-1.027.411-1.592 1.339-3.129 4.635-.928 1.982-3.037 8.33-4.412 13.234A68.14 68.14 0 0 0 .7 38.54l.031.012c-.082.349-.16.698-.23 1.055-1.2 6.226-.367 11.7 3.828 13.916.525.279 1.03.616 1.654.816.73.231 1.141-.004 1.5-.31 3.655-3.11 5.81-6.603 7.637-8.925a14.46 14.46 0 0 1 2.647-2.549c.681-.372 1.353-.702 1.755-.768.254-.043.553-.083.885-.11H43.51v-.008c.367.031.695.07.968.118.407.066 1.079.396 1.758.768 1.168.87 2.086 1.835 2.645 2.55 1.828 2.32 3.98 5.814 7.636 8.924.36.306.77.541 1.5.31.626-.2 1.133-.537 1.657-.816 4.195-2.215 5.023-7.69 3.828-13.916zm-48.09-14.42c-1.981 0-3.585-1.612-3.585-3.599s1.604-3.597 3.584-3.597c1.979 0 3.584 1.611 3.584 3.597s-1.605 3.598-3.584 3.598zm12.372 8.472h-2.478a.403.403 0 0 0-.403.403v2.478c0 .23-.632.416-1.413.416-.78 0-1.413-.186-1.413-.416v-2.478a.403.403 0 0 0-.403-.403h-2.477c-.23 0-.416-.632-.416-1.413 0-.78.186-1.413.416-1.413h2.477c.223 0 .403-.18.403-.402v-2.478c0-.23.633-.416 1.413-.416s1.413.186 1.413.416v2.478c0 .222.18.402.403.402h2.478c.23 0 .416.633.416 1.413s-.187 1.413-.416 1.413zm-.369-10.486c-.83 0-1.502-.675-1.502-1.508 0-.832.672-1.506 1.502-1.506.828 0 1.5.674 1.5 1.506 0 .833-.672 1.508-1.5 1.508zm4.557-5.482a2.535 2.535 0 0 1-2.532-2.541c0-1.404 1.133-2.541 2.532-2.541s2.53 1.137 2.53 2.54a2.536 2.536 0 0 1-2.53 2.542zm16.874-2.475a2.235 2.235 0 0 1 2.227 2.24c0 1.236-1 2.24-2.227 2.24a2.238 2.238 0 0 1-2.234-2.24c0-1.238 1-2.24 2.234-2.24zM35.3 21.666c0-.832.672-1.506 1.498-1.506.828 0 1.5.674 1.5 1.506 0 .833-.672 1.508-1.5 1.508a1.503 1.503 0 0 1-1.498-1.508zm5.27 13.484a3.592 3.592 0 0 1-3.586-3.596c0-1.988 1.606-3.6 3.586-3.6a3.592 3.592 0 0 1 3.582 3.6 3.591 3.591 0 0 1-3.582 3.596zm3.81-11.05c-1.23 0-2.23-1.002-2.23-2.24s1-2.24 2.23-2.24 2.23 1.004 2.23 2.24-1 2.24-2.23 2.24zm4.464 4.327a2.238 2.238 0 0 1-2.234-2.24c0-1.238 1-2.24 2.234-2.24a2.235 2.235 0 0 1 2.227 2.24c0 1.236-1 2.24-2.227 2.24zm4.383-4.327c-1.234 0-2.23-1.002-2.23-2.24s.996-2.24 2.23-2.24 2.235 1.004 2.235 2.24-1 2.24-2.235 2.24z"/><path class="ccsvg__secondary" d="M15.41 25.187c-1.981 0-3.585-1.611-3.585-3.598s1.604-3.597 3.584-3.597c1.979 0 3.584 1.611 3.584 3.597s-1.605 3.598-3.584 3.598zm12.788 7.06c0-.78-.187-1.413-.416-1.413h-2.478a.403.403 0 0 1-.403-.402v-2.478c0-.23-.632-.416-1.413-.416-.78 0-1.413.186-1.413.416v2.478c0 .222-.18.402-.403.402h-2.477c-.23 0-.416.633-.416 1.413s.186 1.413.416 1.413h2.477c.223 0 .403.18.403.403v2.478c0 .23.633.416 1.413.416s1.413-.186 1.413-.416v-2.478c0-.222.18-.403.403-.403h2.478c.23 0 .416-.632.416-1.413zm.715-10.581c0-.832-.672-1.506-1.5-1.506-.83 0-1.502.674-1.502 1.506 0 .833.672 1.508 1.502 1.508.828 0 1.5-.675 1.5-1.508zm5.588-6.515c0-1.404-1.133-2.541-2.531-2.541s-2.532 1.137-2.532 2.54c0 1.404 1.133 2.542 2.532 2.542s2.53-1.138 2.53-2.541zm14.343.066a2.236 2.236 0 0 0-2.234 2.24c0 1.236 1 2.24 2.234 2.24a2.236 2.236 0 0 0 2.227-2.24c0-1.238-1-2.24-2.227-2.24zm-12.046 7.957c.828 0 1.5-.675 1.5-1.508 0-.832-.672-1.506-1.5-1.506-.826 0-1.498.674-1.498 1.506 0 .833.672 1.508 1.498 1.508zm7.355 8.381c0-1.988-1.605-3.6-3.582-3.6a3.593 3.593 0 0 0-3.586 3.6 3.592 3.592 0 0 0 3.586 3.596 3.591 3.591 0 0 0 3.582-3.596zm2.457-9.695c0-1.237-1-2.241-2.23-2.241s-2.23 1.004-2.23 2.24 1 2.24 2.23 2.24 2.23-1.002 2.23-2.24zm4.461 4.325c0-1.237-1-2.239-2.227-2.239a2.236 2.236 0 0 0-2.234 2.24c0 1.236 1 2.24 2.234 2.24a2.236 2.236 0 0 0 2.227-2.24zm4.39-4.325c0-1.237-1-2.241-2.234-2.241s-2.23 1.004-2.23 2.24.996 2.24 2.23 2.24 2.235-1.002 2.235-2.24zm-39.853-9.864c1.258-.274 4.434-1.266 5.743-.648 1.308.617 1.137.426 2.288.468h17.136c1.15-.042.98.15 2.288-.468 1.309-.618 4.077.374 5.335.648 2.663.581 5.466 2.186 5.961 2.664-.064-.204-.53-1.638-.96-2.07-.462-.463-3.233-1.838-5.003-2.336-1.24-.348-4.23-1.062-5.539-.444-1.308.617-1 .849-2.154.927-.463.032-2.148.024-4.002.006l.007.002H27.3v-.002c-1.854.018-3.54.026-4.002-.006-1.155-.078-.846-.31-2.155-.927-1.308-.618-4.299.096-5.539.444-1.77.498-4.54 1.873-5.002 2.336-.432.435-.902 1.886-.962 2.075.483-.473 3.297-2.086 5.967-2.669z" opacity=".5"/></svg>