<svg xmlns="http://www.w3.org/2000/svg" viewBox="0 0 64 64" class="ccsvg ccsvg--duotone ccsvg--xbox"><path class="ccsvg__primary" d="M63.951 36.913c-.074-2.698-.636-8.082-1.095-10.743-.703-4.042-1.905-7.188-3.156-9.568 0 0-1.894-3.673-4.894-6.58s-3.25-2.939-4.218-3c-.97-.063-1.938-.093-5.125 1.453-2.574 1.249-5.331 2.448-8.777 2.652-2.339.138-7.032.118-9.372 0-3.448-.175-6.203-1.403-8.777-2.652-3.187-1.546-4.156-1.516-5.125-1.454-.968.062-1.218.093-4.218 3S4.3 16.603 4.3 16.603c-1.251 2.38-2.453 5.526-3.156 9.568C.686 28.831.124 34.215.05 36.913c-.085 3.09-.032 9.271-.037 12.362-.004 3.101 1.157 8.104 6.125 7.702a5.142 5.142 0 0 0 2.15-.64l-.002-.004 8.582-10.947c3.777 2.582 9.15 4.206 15.133 4.206s11.356-1.624 15.133-4.206l8.582 10.947-.002.003c.62.353 1.34.576 2.15.641 4.969.402 6.13-4.6 6.125-7.702-.005-3.09.048-9.273-.037-12.362zM48.644 12.395c.735-.252 1.614.336 1.965 1.323.352.984.047 1.99-.687 2.247-.73.258-1.61-.336-1.965-1.323-.351-.984-.043-1.99.687-2.247zm-2.304 4.688c.906-.316 1.992.419 2.43 1.64.433 1.216.054 2.46-.852 2.772-.906.315-1.988-.414-2.426-1.631-.437-1.22-.054-2.46.848-2.78zm-.035 5.747c.902-.317 1.992.414 2.425 1.637.438 1.215.055 2.46-.847 2.773-.907.316-1.992-.42-2.43-1.631-.433-1.22-.055-2.463.852-2.78zm-38.37-.818c0-2.152 1.767-3.897 3.95-3.897 2.182 0 3.95 1.745 3.95 3.897 0 2.154-1.768 3.897-3.95 3.897-2.183 0-3.95-1.743-3.95-3.897zm8.691 18.595c-2.73 0-4.947-2.186-4.947-4.886s2.217-4.887 4.947-4.887c2.732 0 4.949 2.187 4.949 4.887s-2.217 4.886-4.949 4.886zm11.16 2.253c-1.215 0-2.195-.66-2.195-1.47 0-.813.98-1.469 2.195-1.469 1.213 0 2.197.656 2.197 1.47 0 .81-.984 1.469-2.197 1.469zm8.43 0c-1.216 0-2.196-.66-2.196-1.47 0-.813.98-1.469 2.195-1.469 1.215 0 2.2.656 2.2 1.47 0 .81-.985 1.469-2.2 1.469zM32 33.168c-5.017 0-9.09-4.015-9.09-8.971 0-4.958 4.073-8.979 9.09-8.979 5.02 0 9.09 4.021 9.09 8.979 0 4.956-4.07 8.97-9.09 8.97zm14.79 6.02c-2.18 0-3.95-1.743-3.95-3.899 0-2.152 1.77-3.895 3.95-3.895 2.179 0 3.948 1.743 3.948 3.895 0 2.156-1.77 3.9-3.949 3.9zm6.268-9.26c-.906.316-1.992-.42-2.43-1.635-.433-1.219-.054-2.46.852-2.777.903-.316 1.989.417 2.426 1.635.437 1.215.055 2.46-.848 2.777zm.024-5.704c-.903.316-1.992-.415-2.426-1.631-.437-1.221-.055-2.465.848-2.781.906-.316 1.992.414 2.43 1.635.433 1.22.054 2.46-.852 2.777zm2.015-5.498c-.73.253-1.613-.335-1.964-1.323-.352-.983-.043-1.99.687-2.246.73-.259 1.613.335 1.965 1.323.351.987.043 1.99-.688 2.246z"/><path class="ccsvg__secondary" d="M48.644 12.395c.735-.252 1.614.336 1.965 1.323.352.984.047 1.99-.687 2.247-.73.258-1.61-.336-1.965-1.323-.351-.984-.043-1.99.687-2.247zm-3.152 7.469c.438 1.217 1.52 1.946 2.426 1.631.906-.312 1.285-1.556.852-2.773-.438-1.22-1.524-1.955-2.43-1.639-.902.32-1.285 1.56-.848 2.78zm-.039 5.744c.438 1.212 1.523 1.948 2.43 1.632.902-.312 1.285-1.558.847-2.773-.433-1.223-1.523-1.954-2.425-1.637-.907.316-1.285 1.56-.852 2.778zm-33.567.301c2.181 0 3.949-1.743 3.949-3.897 0-2.152-1.768-3.897-3.95-3.897-2.183 0-3.95 1.745-3.95 3.897 0 2.154 1.767 3.897 3.95 3.897zm9.689 9.812c0-2.7-2.217-4.887-4.949-4.887-2.73 0-4.947 2.187-4.947 4.887 0 2.7 2.217 4.886 4.947 4.886 2.732 0 4.949-2.186 4.949-4.886zm8.408 5.67c0-.814-.984-1.47-2.197-1.47-1.215 0-2.195.656-2.195 1.47 0 .81.98 1.469 2.195 1.469 1.213 0 2.197-.66 2.197-1.47zm8.431 0c0-.814-.984-1.47-2.199-1.47-1.215 0-2.195.656-2.195 1.47 0 .81.98 1.469 2.195 1.469 1.215 0 2.2-.66 2.2-1.47zm2.676-17.194c0-4.958-4.07-8.979-9.09-8.979-5.017 0-9.09 4.021-9.09 8.979 0 4.956 4.073 8.97 9.09 8.97 5.02 0 9.09-4.014 9.09-8.97zm9.648 11.092c0-2.152-1.77-3.895-3.949-3.895-2.18 0-3.949 1.743-3.949 3.895 0 2.156 1.77 3.9 3.95 3.9 2.179 0 3.948-1.744 3.948-3.9zm3.168-8.138c-.437-1.219-1.523-1.951-2.426-1.635-.906.316-1.285 1.558-.851 2.777.437 1.215 1.523 1.951 2.43 1.635.902-.316 1.284-1.562.847-2.777zm.027-5.704c-.437-1.22-1.523-1.951-2.43-1.635-.902.316-1.284 1.56-.847 2.78.434 1.217 1.523 1.948 2.426 1.632.906-.316 1.285-1.556.851-2.777zm1.852-4.967c-.352-.988-1.234-1.582-1.965-1.323-.73.256-1.039 1.263-.687 2.246.351.988 1.234 1.576 1.964 1.323.73-.256 1.04-1.26.688-2.246z" opacity=".5"/></svg>