<svg xmlns="http://www.w3.org/2000/svg" viewBox="0 0 64 64" class="ccsvg ccsvg--duotone ccsvg--xbox-controller-s"><path class="ccsvg__primary" d="M62.362 31.109c-1.01-5.065-4.485-13.711-5.591-16.396a2.233 2.233 0 0 0-1.002-1.122c-.27-.144-.667-.585-.746-.753-.176-.374-1.781-1.317-3.78-2.243C48.541 9.34 43.267 8 43.267 8s-.703-.022-1.67.308-6.548 1.605-9.23 1.605h-.735c-2.68 0-8.262-1.275-9.229-1.605-.967-.33-1.67-.308-1.67-.308s-5.273 1.342-7.976 2.595c-1.998.926-3.604 1.869-3.78 2.243-.079.168-.477.609-.745.753a2.232 2.232 0 0 0-1.002 1.122c-1.107 2.685-4.583 11.33-5.592 16.396C.144 38.607-.716 43.044.78 49.842c1.1 4.991 3.337 6.093 4.989 6.158.571.022 4.57-.154 7.603-4.508 3.032-4.353 3.164-7.124 3.164-7.124s3.428-2.386 15.464-2.37c12.036-.016 15.464 2.37 15.464 2.37s.132 2.77 3.164 7.123c3.032 4.354 7.032 4.53 7.603 4.508 1.652-.064 3.89-1.166 4.988-6.157 1.497-6.798.637-11.235-.857-18.733zm-54.95-.143a1.418 1.418 0 1 1 0-2.836 1.418 1.418 0 0 1 0 2.836zm42.76-15.292a2.22 2.22 0 1 1 0 4.44 2.22 2.22 0 0 1 0-4.44zM11.015 35.11a1.692 1.692 0 1 1 0-3.385 1.692 1.692 0 0 1 0 3.385zm2.769-8.224a4.11 4.11 0 0 1-4.11-4.111 4.11 4.11 0 1 1 8.219 0 4.11 4.11 0 0 1-4.11 4.111zm13.645 7.399c0 .27-.218.489-.488.489l-2.768-.123c-.134 0-.366.232-.366.367l.122 2.77c0 .27-.218.488-.488.488h-1.933a.488.488 0 0 1-.489-.489l.122-2.77c0-.134-.231-.366-.366-.366l-2.767.123a.488.488 0 0 1-.489-.49v-1.933c0-.27.219-.49.489-.49l2.767.123c.135 0 .366-.232.366-.367l-.122-2.769c0-.27.219-.488.489-.488h1.933c.27 0 .488.218.488.488l-.122 2.77c0 .134.232.366.366.366l2.768-.122c.27 0 .488.219.488.489v1.934zm4.558-6.695a5.64 5.64 0 0 1-5.64-5.642 5.64 5.64 0 0 1 5.64-5.642 5.64 5.64 0 0 1 5.638 5.642 5.64 5.64 0 0 1-5.638 5.642zm8.737 9.938a4.11 4.11 0 0 1-4.11-4.111 4.11 4.11 0 1 1 8.219 0 4.11 4.11 0 0 1-4.11 4.111zm4.592-12.533a2.22 2.22 0 1 1 .002-4.44 2.22 2.22 0 0 1-.002 4.44zm2.637 2.617a2.22 2.22 0 1 1 4.44-.001 2.22 2.22 0 0 1-4.44.001zm2.879 9.96a1.824 1.824 0 1 1 0-3.649 1.824 1.824 0 0 1 0 3.65zm1.977-14.797a2.22 2.22 0 1 1 4.44-.002 2.22 2.22 0 0 1-4.44.002zm2.9 10.752a1.824 1.824 0 1 1 .002-3.65 1.824 1.824 0 0 1-.001 3.65z"/><path class="ccsvg__secondary" d="M27.43 34.286a.49.49 0 0 1-.489.489l-2.768-.123c-.134 0-.366.232-.366.367l.122 2.77a.488.488 0 0 1-.488.488h-1.933a.489.489 0 0 1-.489-.489l.122-2.77c0-.134-.231-.366-.366-.366l-2.767.123a.489.489 0 0 1-.489-.49v-1.934c0-.27.219-.488.489-.488l2.767.122c.135 0 .366-.232.366-.367l-.122-2.769c0-.27.219-.488.489-.488h1.933c.27 0 .488.218.488.488l-.122 2.77c0 .134.232.366.366.366l2.768-.122c.27 0 .488.219.488.488v1.935zM8.828 29.548a1.418 1.418 0 1 0-2.836-.001 1.418 1.418 0 0 0 2.836 0zm39.124-11.653a2.22 2.22 0 1 0 4.44 0 2.22 2.22 0 0 0-4.44 0zM12.707 33.418a1.693 1.693 0 1 0-3.385-.001 1.693 1.693 0 0 0 3.385 0zm5.186-10.642a4.11 4.11 0 1 0-8.219 0 4.11 4.11 0 1 0 8.219 0zm19.732-.827a5.64 5.64 0 0 0-5.638-5.642 5.64 5.64 0 0 0-5.64 5.642 5.64 5.64 0 0 0 5.64 5.642 5.64 5.64 0 0 0 5.638-5.642zm7.208 11.469a4.11 4.11 0 1 0-8.218 0 4.11 4.11 0 1 0 8.218 0zm2.703-10.642a2.22 2.22 0 1 0-4.44-.002 2.22 2.22 0 0 0 4.44.002zm2.636 7.058a2.22 2.22 0 1 0 0-4.44 2.22 2.22 0 0 0 0 4.44zm2.484 5.914a1.824 1.824 0 1 0-3.65 0 1.824 1.824 0 0 0 3.65 0zm2.373-10.752a2.22 2.22 0 1 0-.002-4.44 2.22 2.22 0 0 0 .002 4.44zm2.505 6.707a1.824 1.824 0 1 0-3.649-.002 1.824 1.824 0 0 0 3.649.002z" opacity=".5"/></svg>