<svg xmlns="http://www.w3.org/2000/svg" viewBox="0 0 64 64" class="ccsvg ccsvg--duotone ccsvg--xbox-series-x"><path class="ccsvg__primary" d="M63.782 42.228c-.325-2.912-1-5.25-1-5.25s-4.664-16.855-7.876-21.475a5.868 5.868 0 0 0-.476-.595s-2.341-2.229-6.018-3.086c-2.829-.66-6.287-.81-7.736-.846-2.064-.018-6.836-.058-8.713-.057-1.86 0-6.584.04-8.637.057-1.449.035-4.908.187-7.738.846-3.677.857-6.018 3.086-6.018 3.086a5.88 5.88 0 0 0-.476.595c-3.212 4.62-7.877 21.474-7.877 21.474s-.674 2.34-.999 5.25c-.823 5.8.911 8.436 1.461 9.118s2.883 3.3 4.885 2.839c2.002-.463 5.452-5.086 5.452-5.086 1-1.238 2.027-2.552 2.975-3.76 1.531-1.95 3.042-2.901 4.205-3.362.311-.124.637-.208.968-.259a10.38 10.38 0 0 1 1.472-.119h20.728c.505.005.995.046 1.472.12.331.05.657.134.968.258 1.163.46 2.674 1.412 4.205 3.362.948 1.208 1.976 2.522 2.975 3.76 0 0 3.45 4.623 5.452 5.086 2.002.462 4.335-2.157 4.885-2.839s2.284-3.317 1.461-9.117zM48.388 15.483a2.23 2.23 0 1 1 0 4.46 2.23 2.23 0 0 1 0-4.46zM15.605 25.505a3.601 3.601 0 1 1 0-7.203 3.601 3.601 0 0 1 0 7.203zM27.85 33.01a4.025 4.025 0 0 1-.218.8.221.221 0 0 1-.208.14h-1.938a.348.348 0 0 0-.348.349v1.938a.221.221 0 0 1-.141.208 3.967 3.967 0 0 1-.8.217 4.418 4.418 0 0 1-2.187-.213.223.223 0 0 1-.145-.21v-1.94a.348.348 0 0 0-.348-.348H19.58a.223.223 0 0 1-.21-.145 4.418 4.418 0 0 1-.214-2.187c.042-.277.12-.542.218-.8a.221.221 0 0 1 .207-.141h1.938a.348.348 0 0 0 .348-.348v-1.938c0-.092.056-.175.142-.208.257-.097.522-.175.799-.217a4.418 4.418 0 0 1 2.187.213.224.224 0 0 1 .145.21v1.94c0 .192.156.348.348.348h1.94c.093 0 .178.057.21.145.243.67.332 1.411.214 2.187zm-.466-9.81a1.379 1.379 0 1 1 0-2.758 1.379 1.379 0 0 1 0 2.758zm5.309 3.385h-1.388a1.085 1.085 0 1 1 0-2.17h1.388a1.085 1.085 0 0 1 0 2.17zM32 17.875a2.435 2.435 0 1 1 0-4.87 2.435 2.435 0 0 1 0 4.87zm3.325 3.946a1.379 1.379 0 1 1 2.758 0 1.379 1.379 0 0 1-2.758 0zm5.054 13.255a3.601 3.601 0 1 1 0-7.203 3.601 3.601 0 0 1 0 7.203zm3.697-10.865a2.23 2.23 0 1 1 0-4.46 2.23 2.23 0 0 1 0 4.46zm4.312 4.269a2.23 2.23 0 1 1 0-4.46 2.23 2.23 0 0 1 0 4.46zm4.283-4.269a2.23 2.23 0 1 1 0-4.46 2.23 2.23 0 0 1 0 4.46z"/><path class="ccsvg__secondary" d="M48.388 15.483a2.23 2.23 0 1 1 0 4.46 2.23 2.23 0 0 1 0-4.46zm-29.182 6.42a3.601 3.601 0 1 0-7.203 0 3.601 3.601 0 0 0 7.203 0zm9.558-.082a1.379 1.379 0 1 0-2.758 0 1.379 1.379 0 0 0 2.758 0zm5.015 3.679c0-.6-.486-1.086-1.085-1.086h-1.388a1.085 1.085 0 0 0 0 2.171h1.388c.6 0 1.085-.486 1.085-1.085zm.656-10.06a2.435 2.435 0 1 0-4.87 0 2.435 2.435 0 0 0 4.87 0zm2.27 7.76a1.379 1.379 0 1 0 0-2.758 1.379 1.379 0 0 0 0 2.758zm7.276 8.275a3.601 3.601 0 1 0-7.203 0 3.601 3.601 0 0 0 7.203 0zm2.324-9.494a2.23 2.23 0 1 0-4.459 0 2.23 2.23 0 0 0 4.46 0zm4.313 4.269a2.23 2.23 0 1 0-4.46 0 2.23 2.23 0 0 0 4.46 0zm4.282-4.27a2.23 2.23 0 1 0-4.46 0 2.23 2.23 0 0 0 4.46 0zm-.47-7.073a4.239 4.239 0 0 0-.67-1.254c-.498-.63-1.216-1.763-3.417-2.728-.93-.407-2.495-.871-3.36-.997-.653-.096-2.632-.231-3.285-.132-.343.052-.66.425-.66.425-.235.161-.587.748-1.379.763l-.985-.009c1.45.035 4.908.187 7.737.846 3.677.857 6.018 3.086 6.018 3.086m-44.86 0s2.341-2.229 6.018-3.086c2.83-.66 6.29-.811 7.739-.846l-.987.009c-.792-.015-1.144-.602-1.379-.763 0 0-.317-.373-.66-.425-.653-.1-2.632.036-3.286.132-.864.126-2.43.59-3.359.997-2.201.965-2.919 2.098-3.418 2.728a4.239 4.239 0 0 0-.668 1.254M25.14 30.33v-1.94a.224.224 0 0 0-.146-.21 4.418 4.418 0 0 0-2.187-.213c-.277.042-.542.12-.8.217a.221.221 0 0 0-.14.208v1.938a.348.348 0 0 1-.349.348H19.58a.221.221 0 0 0-.207.142 3.97 3.97 0 0 0-.218.799 4.418 4.418 0 0 0 .213 2.187.224.224 0 0 0 .211.145h1.94c.192 0 .347.156.347.348v1.94c0 .092.058.178.145.21.67.242 1.412.332 2.188.213.276-.042.541-.12.799-.217a.221.221 0 0 0 .141-.208V34.3c0-.192.156-.348.348-.348h1.938a.221.221 0 0 0 .208-.142c.097-.257.175-.522.218-.799a4.418 4.418 0 0 0-.214-2.187.224.224 0 0 0-.21-.145h-1.94a.348.348 0 0 1-.348-.348z" opacity=".5"/></svg>