<svg xmlns="http://www.w3.org/2000/svg" viewBox="0 0 64 64" class="ccsvg ccsvg--duotone ccsvg--xbox-360"><path class="ccsvg__primary" d="M62.953 32.39c-.893-5.44-3.313-14.038-5.853-18.472-2.187-4.018-8.288-4.203-12.625-3.778-.418.059-2.077 1.181-3.139 1.62-.875.365-2.718.943-5.76 1.105h-7.153c-3.037-.162-4.881-.74-5.76-1.105-1.056-.44-2.721-1.563-3.138-1.62C15.188 9.715 9.087 9.9 6.9 13.917c-2.54 4.434-4.96 13.032-5.853 18.474-.668 5.597-1.85 15.235-.238 18.297.891 2.36 3.254 3.8 5.624 3.189 1.512-.314 3.408-1.185 5.27-2.516 2.445-1.894 5.435-5.261 7.753-6.317 1.865-.906 6.25-1.952 7.426-1.972 2.558-.043 7.677-.05 10.236 0 1.18.023 5.562 1.066 7.429 1.972 1.094.531 3.332 2.234 4.828 3.723 1.888 2.137 5.679 4.695 8.192 5.11 2.37.611 4.733-.829 5.624-3.189 1.611-3.062.43-12.7-.238-18.297zM24.558 20.102h.92c.732 0 1.326.602 1.326 1.343 0 .744-.594 1.346-1.327 1.346h-.92c-.73 0-1.324-.602-1.324-1.346 0-.74.594-1.343 1.325-1.343zm-11.47 5.418c-2.419 0-4.383-1.988-4.383-4.44 0-2.455 1.964-4.443 4.382-4.443 2.422 0 4.383 1.988 4.383 4.443 0 2.452-1.96 4.44-4.383 4.44zm14.006 8.336a.44.44 0 0 1-.37.327l-1.569.218c-.699 0-1.265.566-1.265 1.265l-.228 1.636a.44.44 0 0 1-.323.37 5.046 5.046 0 0 1-2.434 0 .44.44 0 0 1-.323-.37l-.228-1.636c0-.699-.566-1.265-1.265-1.265l-1.568-.218a.44.44 0 0 1-.37-.327 5.243 5.243 0 0 1 0-2.446.44.44 0 0 1 .37-.326l1.568-.219c.699 0 1.265-.566 1.265-1.265l.228-1.636a.44.44 0 0 1 .323-.37 5.045 5.045 0 0 1 2.434 0 .44.44 0 0 1 .323.37l.228 1.636c0 .699.566 1.265 1.265 1.265l1.569.219a.44.44 0 0 1 .37.326 5.243 5.243 0 0 1 0 2.446zM32 24.897c-1.883 0-3.408-1.544-3.408-3.453 0-1.91 1.525-3.458 3.408-3.458 1.882 0 3.408 1.549 3.408 3.458 0 1.909-1.526 3.453-3.408 3.453zm6.46-4.74h.922c.735 0 1.328.602 1.328 1.342 0 .74-.593 1.343-1.328 1.343h-.922c-.726 0-1.32-.602-1.32-1.343 0-.74.594-1.342 1.32-1.342zm2.656 16.919c-2.421 0-4.382-1.988-4.382-4.444 0-2.451 1.96-4.443 4.382-4.443 2.414 0 4.383 1.992 4.383 4.443 0 2.456-1.969 4.444-4.383 4.444zM45.9 23.41c-1.266 0-2.297-1.041-2.297-2.329 0-1.29 1.031-2.332 2.297-2.332 1.273 0 2.304 1.041 2.304 2.332a2.316 2.316 0 0 1-2.304 2.33zm5.007 5.078c-1.273 0-2.297-1.046-2.297-2.333 0-1.287 1.024-2.333 2.297-2.333 1.274 0 2.297 1.046 2.297 2.333 0 1.287-1.023 2.333-2.297 2.333zm.059-10.16c-1.273 0-2.297-1.045-2.297-2.332s1.024-2.329 2.297-2.329c1.273 0 2.297 1.042 2.297 2.33s-1.024 2.332-2.297 2.332zm5.031 5.074c-1.273 0-2.297-1.041-2.297-2.329 0-1.29 1.024-2.332 2.297-2.332 1.274 0 2.297 1.041 2.297 2.332 0 1.288-1.023 2.33-2.297 2.33z"/><path class="ccsvg__secondary" d="M24.558 20.101h.92c.732 0 1.326.602 1.326 1.343 0 .744-.594 1.346-1.327 1.346h-.92c-.73 0-1.324-.602-1.324-1.346 0-.74.594-1.343 1.325-1.343zm-7.088.978c0-2.455-1.96-4.443-4.383-4.443-2.418 0-4.382 1.988-4.382 4.443 0 2.452 1.964 4.44 4.382 4.44 2.422 0 4.383-1.988 4.383-4.44zm17.939.365c0-1.91-1.526-3.458-3.408-3.458-1.883 0-3.408 1.549-3.408 3.458 0 1.909 1.525 3.453 3.408 3.453 1.882 0 3.408-1.544 3.408-3.453zm1.732.055c0 .74.594 1.343 1.32 1.343h.922c.735 0 1.328-.602 1.328-1.343 0-.74-.593-1.342-1.328-1.342h-.922c-.726 0-1.32.602-1.32 1.342zm8.36 11.133c0-2.451-1.97-4.443-4.384-4.443-2.421 0-4.382 1.992-4.382 4.443 0 2.456 1.96 4.444 4.382 4.444 2.414 0 4.383-1.988 4.383-4.444zm2.702-11.55c0-1.292-1.03-2.333-2.304-2.333-1.266 0-2.297 1.041-2.297 2.332 0 1.288 1.031 2.33 2.297 2.33a2.316 2.316 0 0 0 2.304-2.33zm5 5.073c0-1.287-1.023-2.333-2.297-2.333-1.273 0-2.297 1.046-2.297 2.333 0 1.287 1.024 2.333 2.297 2.333 1.274 0 2.297-1.046 2.297-2.333zm.059-10.159c0-1.287-1.024-2.329-2.297-2.329-1.273 0-2.297 1.042-2.297 2.33s1.024 2.332 2.297 2.332c1.273 0 2.297-1.046 2.297-2.333zm5.03 5.077c0-1.29-1.022-2.332-2.296-2.332-1.273 0-2.297 1.041-2.297 2.332 0 1.288 1.024 2.33 2.297 2.33 1.274 0 2.297-1.042 2.297-2.33zM27.095 31.41a.44.44 0 0 0-.37-.326l-1.569-.219A1.265 1.265 0 0 1 23.89 29.6l-.228-1.636a.44.44 0 0 0-.322-.37 5.043 5.043 0 0 0-2.435 0 .44.44 0 0 0-.323.37l-.228 1.636c0 .699-.566 1.265-1.265 1.265l-1.568.219a.44.44 0 0 0-.37.326 5.244 5.244 0 0 0 0 2.446.44.44 0 0 0 .37.327l1.568.218c.699 0 1.265.566 1.265 1.265l.228 1.637a.44.44 0 0 0 .323.37 5.046 5.046 0 0 0 2.435-.001.44.44 0 0 0 .322-.37l.228-1.636c0-.699.566-1.265 1.265-1.265l1.569-.218a.44.44 0 0 0 .37-.327 5.24 5.24 0 0 0 0-2.446z" opacity=".5"/></svg>