<?xml version="1.0" encoding="utf-8"?>
<!-- Generator: Adobe Illustrator 16.0.0, SVG Export Plug-In . SVG Version: 6.00 Build 0)  -->
<!DOCTYPE svg PUBLIC "-//W3C//DTD SVG 1.1//EN" "http://www.w3.org/Graphics/SVG/1.1/DTD/svg11.dtd">
<svg version="1.1" id="Layer_1" xmlns="http://www.w3.org/2000/svg" xmlns:xlink="http://www.w3.org/1999/xlink" x="0px" y="0px"
	 width="530px" height="384.536px" viewBox="0 0 530 384.536" enable-background="new 0 0 530 384.536" xml:space="preserve">
<path fill="#FFFFFF" d="M511.27,84.058c-12.506-26.91-30.443-47.64-53.833-62.208C434.046,7.284,407.027,0,376.352,0
	c-41.296,0-74.536,11.183-99.728,33.55c-2.846,2.523-7.715,7.607-11.701,11.964c-3.958-4.385-8.746-9.474-11.554-11.964
	C228.177,11.183,194.933,0,153.641,0c-30.677,0-57.707,7.284-81.097,21.85c-23.39,14.568-41.311,35.297-53.815,62.208
	C6.218,110.958,0,142.062,0,177.359v34.956c0,34.438,6.904,64.683,19.243,90.733c12.338,26.051,29.84,46.138,52.546,60.271
	c22.704,14.144,48.957,21.216,78.774,21.216c42.67,0,76.85-11.183,102.552-33.548c3.5-3.044,8.25-7.982,11.918-12.023
	c3.854,4.212,8.725,9.304,11.854,12.023c25.702,22.365,59.885,33.548,102.556,33.548c29.817,0,56.077-7.072,78.781-21.216
	c22.706-14.134,40.192-34.221,52.529-60.271C523.094,276.998,530,246.752,530,212.315v-34.956
	C530,142.062,523.779,110.958,511.27,84.058z M310.875,83.268c2.945-5,6.273-9.369,10.093-12.983
	c12.596-11.907,31.061-17.855,55.391-17.855c28.271,0,57.258,10.336,72.424,31.003C463.95,104.111,472,134.42,472,174.388v33.185
	c0,40.475-7.19,71.351-21.676,92.618c-14.48,21.277-42.973,31.901-70.906,31.901c-25.53,0-44.709-5.736-57.563-17.22
	c-12.852-11.482-20.98-30.586-24.412-57.32l-64.916-0.119c-0.01,0.119-0.004,0.238-0.014,0.357
	c-3.451,26.604-11.568,45.636-24.381,57.082c-12.852,11.483-32.047,17.22-57.578,17.22c-27.933,0-56.399-10.624-70.877-31.901
	C65.191,278.923,58,248.047,58,207.573v-33.185c0-39.967,8.05-70.274,23.216-90.951c15.167-20.667,44.173-31,72.448-31
	c24.327,0,42.781,5.942,55.376,17.849c3.82,3.614,7.142,7.983,10.087,12.983H310.875z"/>
<path fill="#E0E0E0" d="M286.998,83.229C281.585,68.995,274.226,56.477,265,45.603c-9.228,10.875-16.587,23.393-22,37.626H286.998z"
	/>
<path fill="#E0E0E0" d="M232.674,257.552c3.137,33.236,13.991,60.292,32.326,81.353c18.332-21.061,29.186-48.116,32.323-81.353
	H232.674z"/>
<path fill="#FFFFFF" d="M199.194,184.318c0-4.021-3.29-7.311-7.311-7.311h-20.688c-4.021,0-7.311-3.29-7.311-7.311V149.01
	c0-4.021-3.29-7.311-7.311-7.311h-15.889c-4.021,0-7.311,3.29-7.311,7.311v20.686c0,4.021-3.29,7.311-7.311,7.311h-20.691
	c-4.021,0-7.311,3.29-7.311,7.311v15.892c0,4.021,3.29,7.311,7.311,7.311h20.691c4.021,0,7.311,3.29,7.311,7.311v20.686
	c0,4.021,3.29,7.311,7.311,7.311h15.889c4.021,0,7.311-3.29,7.311-7.311v-20.686c0-4.021,3.29-7.311,7.311-7.311h20.688
	c4.021,0,7.311-3.29,7.311-7.311V184.318z"/>
<path fill="#FFFFFF" d="M369.756,192.269c0,13.315-10.794,24.115-24.115,24.115c-13.312,0-24.109-10.799-24.109-24.115
	c0-13.326,10.797-24.115,24.109-24.115C358.962,168.154,369.756,178.943,369.756,192.269z"/>
<path fill="#FFFFFF" d="M441.21,192.269c0,13.315-10.797,24.115-24.109,24.115c-13.321,0-24.118-10.799-24.118-24.115
	c0-13.326,10.797-24.115,24.118-24.115C430.413,168.154,441.21,178.943,441.21,192.269z"/>
</svg>
