<?xml version="1.0" encoding="utf-8"?>
<!-- Generator: Adobe Illustrator 24.1.0, SVG Export Plug-In . SVG Version: 6.00 Build 0)  -->
<svg version="1.1" id="Layer_1" xmlns="http://www.w3.org/2000/svg" xmlns:xlink="http://www.w3.org/1999/xlink" x="0px" y="0px"
	 viewBox="0 0 530 384.5" style="enable-background:new 0 0 530 384.5;" xml:space="preserve">
<style type="text/css">
	.st0{fill:#80e0df;}
	.st1{fill:#aef78e;}
</style>
<path class="st0" d="M511.3,84.1c-12.5-26.9-30.4-47.6-53.8-62.2C434,7.3,407,0,376.4,0c-41.3,0-74.5,11.2-99.7,33.5
	c-2.8,2.5-7.7,7.6-11.7,12c-4-4.4-8.7-9.5-11.6-12C228.2,11.2,194.9,0,153.6,0C123,0,95.9,7.3,72.5,21.9
	C49.2,36.4,31.2,57.1,18.7,84.1C6.2,111,0,142.1,0,177.4v35C0,246.8,6.9,277,19.2,303c12.3,26.1,29.8,46.1,52.5,60.3
	c22.7,14.1,49,21.2,78.8,21.2c42.7,0,76.8-11.2,102.6-33.5c3.5-3,8.2-8,11.9-12c3.9,4.2,8.7,9.3,11.9,12
	c25.7,22.4,59.9,33.5,102.6,33.5c29.8,0,56.1-7.1,78.8-21.2c22.7-14.1,40.2-34.2,52.5-60.3c12.3-26,19.2-56.3,19.2-90.7v-35
	C530,142.1,523.8,111,511.3,84.1z M241.1,257.6c-4.9,0-9,3.5-9.8,8.3c-4,22.3-11.7,38.8-23.1,49c-12.9,11.5-32,17.2-57.6,17.2
	c-27.9,0-56.4-10.6-70.9-31.9C65.2,278.9,58,248,58,207.6v-33.2c0-40,8.1-70.3,23.2-91c15.2-20.7,44.2-31,72.4-31
	c24.3,0,42.8,5.9,55.4,17.8c2,1.9,3.8,4,5.6,6.2c3.3,4.3,8.3,6.7,13.7,6.7l73.9,0c5.4,0,10.5-2.5,13.7-6.8c1.9-2.5,3.8-4.9,5-6.2
	c11.7-12.8,31.1-17.9,55.4-17.9c28.3,0,57.3,10.3,72.4,31c15.2,20.7,23.2,51,23.2,91v33.2c0,40.5-7.2,71.4-21.7,92.6
	c-14.5,21.3-43,31.9-70.9,31.9c-25.5,0-44.7-5.7-57.6-17.2c-11.5-10.3-19.2-26.6-23.2-49c-0.8-4.8-5-8.3-9.8-8.3L241.1,257.6z"/>
<path class="st1" d="M287,83.2c-5.4-14.2-12.8-26.8-22-37.6c-9.2,10.9-16.6,23.4-22,37.6C243,83.2,287,83.2,287,83.2z"/>
<path class="st1" d="M233.5,265c4,29.8,14.5,54.4,31.5,73.9c16.9-19.5,27.5-44,31.5-73.9c0.5-4-2.5-7.5-6.5-7.5H240
	C236,257.6,233,261.1,233.5,265z"/>
<path class="st0" d="M199.2,184.3c0-4-3.3-7.3-7.3-7.3h-20.7c-4,0-7.3-3.3-7.3-7.3V149c0-4-3.3-7.3-7.3-7.3h-15.9
	c-4,0-7.3,3.3-7.3,7.3v20.7c0,4-3.3,7.3-7.3,7.3h-20.7c-4,0-7.3,3.3-7.3,7.3v15.9c0,4,3.3,7.3,7.3,7.3h20.7c4,0,7.3,3.3,7.3,7.3
	v20.7c0,4,3.3,7.3,7.3,7.3h15.9c4,0,7.3-3.3,7.3-7.3v-20.7c0-4,3.3-7.3,7.3-7.3h20.7c4,0,7.3-3.3,7.3-7.3L199.2,184.3L199.2,184.3z"
	/>
<path class="st0" d="M369.8,192.3c0,13.3-10.8,24.1-24.1,24.1c-13.3,0-24.1-10.8-24.1-24.1c0-13.3,10.8-24.1,24.1-24.1
	C359,168.2,369.8,178.9,369.8,192.3z"/>
<path class="st0" d="M441.2,192.3c0,13.3-10.8,24.1-24.1,24.1c-13.3,0-24.1-10.8-24.1-24.1c0-13.3,10.8-24.1,24.1-24.1
	C430.4,168.2,441.2,178.9,441.2,192.3z"/>
</svg>
