<?xml version="1.0" encoding="utf-8"?>
<!-- Generator: Adobe Illustrator 22.1.0, SVG Export Plug-In . SVG Version: 6.00 Build 0)  -->
<svg version="1.1" id="Layer_1" xmlns="http://www.w3.org/2000/svg" xmlns:xlink="http://www.w3.org/1999/xlink" x="0px" y="0px"
	 viewBox="0 0 530 384.53601" style="enable-background:new 0 0 530 384.53601;" xml:space="preserve">
<style type="text/css">
	.st0{fill:#20FC8F;}
	.st1{fill:#1EE27B;}
</style>
<path class="st0" d="M511.26999,84.058c-12.50601-26.91-30.44199-47.64-53.83301-62.208C434.04599,7.284,407.02701,0,376.35199,0
	c-41.29498,0-74.535,11.183-99.728,33.55c-2.84698,2.523-7.715,7.607-11.70099,11.964c-3.95801-4.385-8.746-9.474-11.554-11.964
	C228.177,11.183,194.933,0,153.64101,0c-30.677,0-57.707,7.284-81.097,21.85c-23.39,14.568-41.311,35.297-53.815,62.208
	C6.218,110.958,0,142.062,0,177.35899V212.315c0,34.438,6.904,64.68399,19.243,90.73199
	c12.338,26.05099,29.84,46.13901,52.546,60.271c22.704,14.14499,48.957,21.21701,78.774,21.21701
	c42.67,0,76.84999-11.18399,102.552-33.54901c3.49998-3.043,8.24998-7.98199,11.91801-12.02301
	c3.854,4.21301,8.72501,9.30499,11.854,12.02301c25.702,22.36499,59.88501,33.54901,102.55701,33.54901
	c29.81601,0,56.07599-7.07199,78.78-21.21701c22.70599-14.13501,40.19199-34.22101,52.52899-60.271
	C523.09399,276.99899,530,246.752,530,212.315v-34.95599C530,142.062,523.77899,110.958,511.26999,84.058z M310.875,83.268
	c2.94501-5,6.27301-9.369,10.09299-12.983C333.565,58.378,352.03,52.43,376.35999,52.43c28.271,0,57.258,10.336,72.42401,31.003
	C463.95001,104.111,472,134.42,472,174.388v33.185c0,40.47501-7.19,71.35199-21.67599,92.61798
	c-14.48001,21.276-42.974,31.901-70.90601,31.901c-25.52899,0-44.70901-5.73599-57.56201-17.22101
	c-12.853-11.48099-20.98001-30.586-24.41199-57.32001l-64.91699-0.11801c-0.00999,0.11801-0.004,0.237-0.01401,0.35599
	c-3.451,26.604-11.56799,45.63699-24.381,57.082c-12.85201,11.48401-32.047,17.22101-57.578,17.22101
	c-27.933,0-56.399-10.625-70.877-31.901C65.191,278.922,58,248.047,58,207.573v-33.185c0-39.967,8.05-70.274,23.216-90.951
	c15.167-20.667,44.173-31,72.448-31c24.327,0,42.78101,5.942,55.37601,17.849c3.82001,3.614,7.142,7.983,10.08701,12.983
	L310.875,83.268L310.875,83.268z"/>
<path class="st1" d="M286.99799,83.229C281.58499,68.995,274.22699,56.477,265,45.603c-9.228,10.875-16.58701,23.393-22,37.626
	C243,83.229,286.99799,83.229,286.99799,83.229z"/>
<path class="st1" d="M232.674,257.55099c3.13699,33.23599,13.991,60.293,32.326,81.354c18.332-21.061,29.186-48.11499,32.323-81.354
	H232.674z"/>
<path class="st0" d="M199.194,184.31799c0-4.021-3.28999-7.311-7.311-7.311h-20.688c-4.021,0-7.311-3.28999-7.311-7.311v-20.68599
	c0-4.021-3.28999-7.311-7.311-7.311h-15.88899c-4.021,0-7.311,3.28999-7.311,7.311v20.686c0,4.021-3.28999,7.311-7.311,7.311
	h-20.691c-4.021,0-7.311,3.28999-7.311,7.311v15.892c0,4.021,3.29,7.312,7.311,7.312h20.691c4.021,0,7.311,3.28999,7.311,7.312
	v20.686c0,4.021,3.28999,7.311,7.311,7.311H156.573c4.021,0,7.311-3.289,7.311-7.311v-20.686c0-4.021,3.28999-7.312,7.311-7.312
	h20.688c4.021,0,7.311-3.28999,7.311-7.312v-15.89201H199.194z"/>
<path class="st0" d="M369.75601,192.269c0,13.315-10.79401,24.114-24.11499,24.114c-13.31201,0-24.108-10.799-24.108-24.114
	c0-13.326,10.797-24.11501,24.108-24.11501C358.96201,168.15401,369.75601,178.94299,369.75601,192.269z"/>
<path class="st0" d="M441.20999,192.269c0,13.315-10.797,24.114-24.10901,24.114c-13.32001,0-24.11801-10.799-24.11801-24.114
	c0-13.326,10.798-24.11501,24.11801-24.11501C430.41299,168.15401,441.20999,178.94299,441.20999,192.269z"/>
</svg>
