<?xml version="1.0" encoding="utf-8"?>
<!-- Generator: Adobe Illustrator 16.0.0, SVG Export Plug-In . SVG Version: 6.00 Build 0)  -->
<!DOCTYPE svg PUBLIC "-//W3C//DTD SVG 1.1//EN" "http://www.w3.org/Graphics/SVG/1.1/DTD/svg11.dtd">
<svg version="1.1" id="Layer_1" xmlns="http://www.w3.org/2000/svg" xmlns:xlink="http://www.w3.org/1999/xlink" x="0px" y="0px"
	 width="530px" height="384.536px" viewBox="0 0 530 384.536" enable-background="new 0 0 530 384.536" xml:space="preserve">
<path fill="#da2536" d="M511.27,84.058c-12.506-26.91-30.442-47.64-53.833-62.208C434.046,7.284,407.027,0,376.352,0
	c-41.295,0-74.535,11.183-99.728,33.55c-2.847,2.523-7.715,7.607-11.701,11.964c-3.958-4.385-8.746-9.474-11.554-11.964
	C228.177,11.183,194.933,0,153.641,0c-30.677,0-57.707,7.284-81.097,21.85c-23.39,14.568-41.311,35.297-53.815,62.208
	C6.218,110.958,0,142.062,0,177.359v34.956c0,34.438,6.904,64.684,19.243,90.732c12.338,26.051,29.84,46.139,52.546,60.271
	c22.704,14.145,48.957,21.217,78.774,21.217c42.67,0,76.85-11.184,102.552-33.549c3.5-3.043,8.25-7.982,11.918-12.023
	c3.854,4.213,8.725,9.305,11.854,12.023c25.702,22.365,59.885,33.549,102.557,33.549c29.816,0,56.076-7.072,78.78-21.217
	c22.706-14.135,40.192-34.221,52.529-60.271C523.094,276.999,530,246.752,530,212.315v-34.956
	C530,142.062,523.779,110.958,511.27,84.058z M310.875,83.268c2.945-5,6.273-9.369,10.093-12.983
	c12.597-11.907,31.062-17.855,55.392-17.855c28.271,0,57.258,10.336,72.424,31.003C463.95,104.111,472,134.42,472,174.388v33.185
	c0,40.475-7.19,71.352-21.676,92.618c-14.48,21.276-42.974,31.901-70.906,31.901c-25.529,0-44.709-5.736-57.562-17.221
	c-12.853-11.481-20.98-30.586-24.412-57.32l-64.917-0.118c-0.01,0.118-0.004,0.237-0.014,0.356
	c-3.451,26.604-11.568,45.637-24.381,57.082c-12.852,11.484-32.047,17.221-57.578,17.221c-27.933,0-56.399-10.625-70.877-31.901
	C65.191,278.922,58,248.047,58,207.573v-33.185c0-39.967,8.05-70.274,23.216-90.951c15.167-20.667,44.173-31,72.448-31
	c24.327,0,42.781,5.942,55.376,17.849c3.82,3.614,7.142,7.983,10.087,12.983L310.875,83.268L310.875,83.268z"/>
<path fill="#bb202e" d="M286.998,83.229C281.585,68.995,274.227,56.477,265,45.603c-9.228,10.875-16.587,23.393-22,37.626H286.998z"
	/>
<path fill="#bb202e" d="M232.674,257.551c3.137,33.236,13.991,60.293,32.326,81.354c18.332-21.061,29.186-48.115,32.323-81.354
	H232.674z"/>
<path fill="#da2536" d="M199.194,184.318c0-4.021-3.29-7.311-7.311-7.311h-20.688c-4.021,0-7.311-3.29-7.311-7.311V149.01
	c0-4.021-3.29-7.311-7.311-7.311h-15.889c-4.021,0-7.311,3.29-7.311,7.311v20.686c0,4.021-3.29,7.311-7.311,7.311h-20.691
	c-4.021,0-7.311,3.29-7.311,7.311v15.892c0,4.021,3.29,7.312,7.311,7.312h20.691c4.021,0,7.311,3.29,7.311,7.312v20.686
	c0,4.021,3.29,7.311,7.311,7.311h15.889c4.021,0,7.311-3.289,7.311-7.311v-20.686c0-4.021,3.29-7.312,7.311-7.312h20.688
	c4.021,0,7.311-3.29,7.311-7.312V184.318L199.194,184.318z"/>
<path fill="#da2536" d="M369.756,192.269c0,13.315-10.794,24.114-24.115,24.114c-13.312,0-24.108-10.799-24.108-24.114
	c0-13.326,10.797-24.115,24.108-24.115C358.962,168.154,369.756,178.943,369.756,192.269z"/>
<path fill="#da2536" d="M441.21,192.269c0,13.315-10.797,24.114-24.109,24.114c-13.32,0-24.118-10.799-24.118-24.114
	c0-13.326,10.798-24.115,24.118-24.115C430.413,168.154,441.21,178.943,441.21,192.269z"/>
</svg>
