<?xml version="1.0" encoding="utf-8"?>
<!-- Generator: Adobe Illustrator 16.0.0, SVG Export Plug-In . SVG Version: 6.00 Build 0)  -->
<!DOCTYPE svg PUBLIC "-//W3C//DTD SVG 1.1//EN" "http://www.w3.org/Graphics/SVG/1.1/DTD/svg11.dtd">
<svg version="1.1" id="Layer_1" xmlns="http://www.w3.org/2000/svg" xmlns:xlink="http://www.w3.org/1999/xlink" x="0px" y="0px"
	 width="1920px" height="1200px" viewBox="0 0 1920 1200" enable-background="new 0 0 1920 1200" xml:space="preserve">
<g>
	<path fill="#282827" d="M467.957,1622.476c-64.05,0-126.348-12.04-185.162-35.784c-60.896-24.584-115.465-60.741-162.19-107.466
		c-47.197-47.197-83.597-102.37-108.188-163.985c-23.75-59.509-35.542-122.491-35.048-187.195
		c0.494-64.7,13.249-127.864,37.909-187.736c25.53-61.986,62.769-117.71,110.681-165.624l978.299-978.301l0.071,0.072
		c47.747-46.328,102.943-82.261,164.104-106.831c59.914-24.068,123-36.272,187.508-36.272c64.039,0,126.327,12.038,185.134,35.779
		c60.89,24.582,115.453,60.735,162.176,107.454c47.196,47.197,83.596,102.369,108.187,163.985
		c23.751,59.51,35.542,122.492,35.047,187.197c-0.494,64.701-13.25,127.865-37.91,187.738
		c-25.531,61.986-62.771,117.709-110.684,165.622c-80.646,80.645-176.205,131.911-276.375,148.267
		c-23.918,7.94-60.446,25.494-99.011,64.059l-384.267,384.262c-40.218,40.221-57.727,78.194-65.335,103.021
		c-1.538,8.958-3.444,18.262-5.669,27.665l-0.297,11.486l-1.645-3.632c-10.734,41.934-27.677,82.961-50.416,122.062
		c-23.812,40.946-54.003,79.824-89.733,115.555c-48.392,48.392-104.723,85.879-167.429,111.422
		C597.145,1609.966,533.301,1622.476,467.957,1622.476z M1104.216-196.023L129.734,778.46
		c-47.412,47.413-84.259,102.551-109.52,163.882c-24.398,59.237-37.017,121.73-37.506,185.744
		c-0.489,64.01,11.175,126.312,34.668,185.175c24.321,60.938,60.323,115.507,107.004,162.189
		c46.215,46.215,100.186,81.976,160.414,106.291c58.176,23.486,119.801,35.395,183.163,35.395
		c64.651,0,127.817-12.377,187.744-36.787c62.043-25.273,117.782-62.367,165.668-110.253
		c35.404-35.404,65.312-73.915,88.893-114.464c23.83-40.977,41.22-84.08,51.688-128.111l0.51-2.143
		c2.033-8.742,3.784-17.382,5.211-25.712l0.078-0.33c7.76-25.404,25.633-64.312,66.715-105.397l384.267-384.262
		c39.411-39.411,76.846-57.328,101.31-65.419l0.409-0.1c99.131-16.139,193.764-66.904,273.667-146.807
		c47.412-47.412,84.261-102.549,109.521-163.88c24.399-59.237,37.02-121.731,37.509-185.745
		c0.489-64.01-11.174-126.312-34.667-185.176c-24.32-60.939-60.321-115.507-107.003-162.189
		c-46.213-46.209-100.179-81.967-160.399-106.278c-58.169-23.483-119.784-35.391-183.135-35.391
		c-63.822,0-126.239,12.074-185.517,35.888c-61.323,24.635-116.592,60.821-164.271,107.555l-1.908,1.871L1104.216-196.023z"/>
</g>
<g>
	<path fill="#282827" d="M1448.655,603.558c-119.425,0-231.358-46.163-315.18-129.984c-42.826-42.827-75.855-92.89-98.17-148.799
		c-21.551-53.998-32.251-111.147-31.802-169.859c0.448-58.708,12.022-116.021,34.398-170.348
		c23.166-56.244,56.956-106.807,100.432-150.282c43.909-43.91,95.024-77.926,151.924-101.104
		c54.961-22.388,112.893-33.74,172.185-33.74c119.426,0,231.358,46.163,315.181,129.985c42.826,42.827,75.855,92.89,98.17,148.799
		c21.551,53.999,32.25,111.147,31.802,169.859c-0.449,58.708-12.022,116.021-34.399,170.348
		c-23.166,56.245-56.956,106.807-100.432,150.282c-43.909,43.91-95.024,77.926-151.924,101.104
		C1565.879,592.206,1507.947,603.558,1448.655,603.558z M1462.442-295.22c-58.598,0-115.852,11.219-170.17,33.346
		c-56.237,22.908-106.759,56.531-150.163,99.935c-42.975,42.975-76.374,92.95-99.27,148.54
		c-22.115,53.691-33.554,110.334-33.997,168.355c-0.443,58.017,10.129,114.486,31.422,167.838
		c22.044,55.233,54.675,104.692,96.986,147.003c82.813,82.813,193.405,128.421,311.404,128.421
		c58.599,0,115.852-11.219,170.17-33.346c56.237-22.908,106.759-56.531,150.163-99.935c42.975-42.974,76.374-92.95,99.271-148.54
		c22.114-53.692,33.553-110.335,33.996-168.355c0.444-58.017-10.128-114.486-31.422-167.839
		c-22.043-55.233-54.674-104.692-96.985-147.003C1691.034-249.612,1580.441-295.22,1462.442-295.22z"/>
</g>
<g>
	<path fill="#282827" d="M391.146,1319.093c-3.001,0-5.817-1.161-7.928-3.271l-92.018-92.019c-4.37-4.37-4.37-11.483-0.001-15.855
		l80.656-80.652c2.289-2.29,2.289-6.017,0-8.307l-79.242-79.24c-2.111-2.109-3.274-4.925-3.274-7.927
		c0-3.002,1.162-5.818,3.274-7.931l93.616-93.614c2.11-2.111,4.926-3.274,7.927-3.274c3.002,0,5.818,1.163,7.929,3.274l79.242,79.24
		c1.102,1.102,2.576,1.708,4.152,1.708s3.05-0.606,4.151-1.708l80.651-80.65c2.111-2.11,4.926-3.273,7.928-3.273
		c3.002,0,5.818,1.163,7.929,3.273l1.555,1.555l-0.002,0.003l90.459,90.463c2.11,2.107,3.273,4.923,3.274,7.925
		s-1.162,5.818-3.273,7.932l-80.649,80.646c-2.29,2.291-2.291,6.018,0,8.306l79.245,79.245c2.11,2.109,3.272,4.925,3.273,7.927
		c0,3.003-1.162,5.819-3.273,7.93l-93.615,93.614c-2.112,2.112-4.928,3.275-7.929,3.275c0,0,0,0-0.001,0
		c-3.002,0-5.818-1.164-7.929-3.276l-79.242-79.242c-1.102-1.102-2.578-1.708-4.154-1.708c-1.575,0-3.05,0.606-4.152,1.708
		l-80.648,80.652C396.963,1317.932,394.147,1319.093,391.146,1319.093z M394.157,932.343c-1.575,0-3.049,0.606-4.151,1.71
		l-93.617,93.614c-1.103,1.104-1.71,2.579-1.71,4.155c0,1.575,0.607,3.049,1.709,4.15l79.243,79.241
		c4.371,4.371,4.371,11.484,0,15.857l-80.656,80.651c-2.289,2.29-2.289,6.017,0,8.306l92.017,92.018
		c1.102,1.101,2.577,1.707,4.153,1.707s3.052-0.606,4.155-1.708l80.647-80.651c2.111-2.11,4.926-3.272,7.927-3.272
		c3.002,0,5.818,1.162,7.929,3.271l79.244,79.244c1.103,1.104,2.578,1.711,4.153,1.712h0c1.575,0,3.05-0.608,4.154-1.712
		l93.615-93.614c1.102-1.103,1.709-2.577,1.709-4.153s-0.607-3.051-1.709-4.152l-79.244-79.244c-4.372-4.369-4.372-11.482,0-15.857
		l80.649-80.646c1.103-1.104,1.71-2.579,1.71-4.155c0-1.575-0.607-3.049-1.709-4.149l-92.157-92.16
		c-1.085-1.015-2.501-1.57-4.01-1.57c-1.576,0-3.05,0.606-4.153,1.709l-80.65,80.65c-2.109,2.109-4.924,3.271-7.926,3.271
		c-3.003,0-5.818-1.161-7.928-3.271l-79.242-79.24C397.207,932.949,395.732,932.343,394.157,932.343z"/>
</g>
<g>
	<path fill="#282827" d="M480.118,1423.191c-0.007,0-0.013,0-0.02,0c-79.484-0.006-153.978-30.729-209.758-86.51
		c-56.396-56.396-87.117-131.716-86.503-212.083c0.614-80.353,32.479-156.132,89.726-213.377
		c29.22-29.22,63.234-51.856,101.098-67.279c36.573-14.897,75.125-22.451,114.583-22.451c79.483,0,153.982,30.725,209.771,86.514
		c56.396,56.396,87.116,131.713,86.502,212.077c-0.614,80.348-32.479,156.124-89.725,213.37
		c-29.225,29.225-63.241,51.864-101.104,67.288C558.12,1415.638,519.571,1423.191,480.118,1423.191z M489.243,826.83
		c-38.765,0-76.638,7.422-112.569,22.058c-37.201,15.152-70.622,37.396-99.336,66.109c-56.249,56.248-87.559,130.7-88.162,209.643
		c-0.603,78.926,29.562,152.89,84.939,208.267c54.772,54.772,127.925,84.94,205.983,84.945c0.005,0,0.015,0,0.02,0
		c38.762,0.001,76.627-7.42,112.556-22.057c37.2-15.153,70.623-37.399,99.342-66.118c56.249-56.248,87.558-130.698,88.161-209.636
		c0.603-78.922-29.562-152.884-84.938-208.261C640.458,857,567.3,826.83,489.243,826.83z M480.342,1407.817
		c-75.42,0-146.109-29.154-199.047-82.091c-53.515-53.514-82.666-124.983-82.083-201.243c0.582-76.245,30.818-148.15,85.139-202.47
		c27.727-27.727,60.002-49.206,95.932-63.842c34.706-14.137,71.287-21.305,108.728-21.305c75.42,0,146.11,29.153,199.049,82.092
		c53.514,53.515,82.666,124.983,82.083,201.242c-0.582,76.242-30.817,148.146-85.137,202.467
		c-27.727,27.728-60.003,49.207-95.934,63.843C554.367,1400.648,517.784,1407.817,480.342,1407.817z M489.011,842.206
		c-75.643,0-146.985,29.684-200.884,83.583c-53.323,53.321-83.004,123.9-83.576,198.735c-0.571,74.818,28.024,144.933,80.52,197.427
		c51.929,51.929,121.278,80.526,195.271,80.526c75.645,0,146.989-29.685,200.889-83.585c53.322-53.322,83.002-123.9,83.573-198.732
		c0.571-74.816-28.024-144.931-80.52-197.426C632.355,870.805,563.005,842.206,489.011,842.206z"/>
</g>
<g>
	<path fill="#282827" d="M1287.108,423.986c-0.003,0,0.001,0-0.002,0c-4.229,0-8.514-0.236-12.734-0.702
		c-30.455-3.363-57.621-18.387-76.494-42.306c-18.966-24.036-27.292-54.154-23.447-84.807l37.091-289.51
		c7.333-58.435,57.132-102.506,115.834-102.506c4.229,0,8.514,0.236,12.736,0.703c30.456,3.363,57.623,18.388,76.496,42.306
		c18.965,24.036,27.293,54.155,23.45,84.81l-37.093,289.504C1395.609,379.911,1345.807,423.986,1287.108,423.986z M1327.355-90.506
		c-56.017,0-103.537,42.061-110.536,97.838l-37.091,289.51c-3.665,29.216,4.269,57.924,22.341,80.828
		c17.98,22.788,43.866,37.102,72.889,40.306c4.027,0.444,8.114,0.669,12.148,0.67c56.017,0.001,103.539-42.062,110.541-97.841
		l37.093-289.503c3.664-29.218-4.271-57.927-22.345-80.831c-17.979-22.787-43.866-37.102-72.89-40.307
		C1335.478-90.28,1331.39-90.506,1327.355-90.506z"/>
</g>
<g>
	<path fill="#282827" d="M1325.21,112.286c-23.734,0-45.981-9.176-62.644-25.838c-34.759-34.756-34.339-91.732,0.936-127.009
		c17.27-17.268,40.131-26.777,64.373-26.777c23.733,0,45.98,9.176,62.642,25.837c16.844,16.843,26.019,39.334,25.834,63.333
		c-0.184,23.982-9.692,46.597-26.775,63.68C1372.309,102.777,1349.45,112.286,1325.21,112.286z M1327.875-62
		c-22.816,0-44.337,8.954-60.598,25.213c-33.192,33.195-33.612,86.784-0.936,119.458c15.653,15.654,36.56,24.274,58.868,24.274
		c22.813,0,44.332-8.954,60.59-25.211c16.085-16.085,25.039-37.375,25.212-59.945c0.173-22.557-8.446-43.693-24.271-59.517
		C1371.089-53.379,1350.183-62,1327.875-62z"/>
</g>
<g>
	<path fill="#282827" d="M1574.158,385.551c-0.008,0-0.004,0-0.011,0c-4.235,0-8.522-0.237-12.744-0.703
		c-30.452-3.36-57.616-18.382-76.488-42.298c-18.967-24.036-27.295-54.156-23.45-84.812l37.085-289.505
		c7.332-58.439,57.133-102.514,115.84-102.514c4.229,0,8.515,0.236,12.737,0.703c30.446,3.359,57.606,18.378,76.479,42.29
		c18.971,24.037,27.303,54.161,23.462,84.822l-37.086,289.511C1682.645,341.479,1632.848,385.551,1574.158,385.551z M1614.39-128.94
		c-56.021,0-103.544,42.065-110.543,97.846l-37.085,289.504c-3.665,29.219,4.271,57.928,22.345,80.833
		c17.979,22.784,43.863,37.096,72.883,40.298c4.028,0.445,8.118,0.671,12.158,0.671c0.004,0,0.007,0,0.011,0
		c56.008,0,103.522-42.059,110.525-97.837L1721.77-7.136c3.662-29.224-4.277-57.937-22.355-80.843
		c-17.979-22.781-43.859-37.089-72.873-40.291C1622.512-128.715,1618.424-128.94,1614.39-128.94z"/>
</g>
<g>
	<path fill="#282827" d="M1288.587,398.292c-23.73,0-45.974-9.174-62.633-25.833c-34.753-34.754-34.329-91.728,0.946-127.003
		c17.269-17.269,40.129-26.779,64.371-26.779c23.73,0,45.974,9.174,62.632,25.833c16.841,16.841,26.015,39.331,25.83,63.326
		c-0.184,23.98-9.692,46.594-26.775,63.677C1335.689,388.781,1312.829,398.292,1288.587,398.292z M1291.271,224.016
		c-22.815,0-44.335,8.955-60.596,25.215c-33.193,33.194-33.617,86.78-0.946,119.452c15.65,15.65,36.553,24.269,58.857,24.269
		c22.815,0,44.336-8.955,60.596-25.215c16.085-16.085,25.039-37.373,25.212-59.942c0.173-22.554-8.445-43.688-24.267-59.51
		C1334.479,232.635,1313.576,224.016,1291.271,224.016z"/>
</g>
<g>
	<path fill="#282827" d="M1611.818,72.645c-23.729,0-45.972-9.174-62.63-25.832c-34.755-34.756-34.331-91.732,0.943-127.007
		c17.269-17.268,40.13-26.777,64.371-26.777c23.733,0,45.977,9.174,62.635,25.833c34.752,34.753,34.328,91.727-0.945,127.003
		C1658.921,63.135,1636.06,72.645,1611.818,72.645z M1614.503-101.632c-22.815,0-44.336,8.954-60.596,25.213
		c-33.192,33.194-33.616,86.782-0.943,119.457c15.649,15.649,36.551,24.268,58.854,24.268c22.814,0,44.336-8.955,60.599-25.215
		c33.191-33.195,33.615-86.781,0.945-119.453C1657.713-93.013,1636.81-101.632,1614.503-101.632z"/>
</g>
<g>
	<path fill="#282827" d="M1575.223,358.642c-23.731,0-45.975-9.174-62.634-25.833c-34.754-34.754-34.329-91.728,0.945-127.003
		c17.268-17.268,40.128-26.778,64.369-26.778c23.731,0,45.975,9.174,62.634,25.833c34.754,34.754,34.329,91.728-0.945,127.003
		C1622.324,349.131,1599.464,358.642,1575.223,358.642z M1577.903,184.367c-22.814,0-44.334,8.955-60.594,25.214
		c-33.192,33.193-33.617,86.779-0.945,119.452c15.65,15.65,36.554,24.269,58.858,24.269c22.814,0,44.334-8.955,60.594-25.214
		c33.193-33.193,33.617-86.779,0.945-119.452C1621.111,192.986,1600.208,184.367,1577.903,184.367z"/>
</g>
<g>
	<path fill="#282827" d="M1038.587,767.733c-0.001,0-0.001,0-0.002,0c-1.392,0-2.801-0.078-4.188-0.231
		c-10.011-1.104-18.942-6.042-25.148-13.904c-6.239-7.903-8.98-17.806-7.72-27.885l13.698-126.253
		c2.415-19.232,18.768-33.702,38.043-33.702c1.389,0,2.796,0.078,4.183,0.23c10.011,1.104,18.942,6.046,25.151,13.916
		c6.236,7.906,8.975,17.807,7.708,27.879l-13.695,126.256C1074.205,753.267,1057.858,767.733,1038.587,767.733z M1053.271,571.098
		c-16.59,0-30.665,12.46-32.74,28.983l-13.697,126.251c-1.088,8.692,1.261,17.186,6.606,23.958
		c5.313,6.73,12.965,10.959,21.544,11.905c1.193,0.132,2.405,0.198,3.602,0.198c16.586,0.002,30.656-12.455,32.729-28.975
		l13.696-126.257c1.092-8.687-1.253-17.177-6.598-23.951c-5.315-6.737-12.967-10.969-21.545-11.915
		C1055.675,571.165,1054.465,571.098,1053.271,571.098z"/>
</g>
<g>
	<path fill="#282827" d="M852.013,954.309c-0.001,0-0.001,0-0.002,0c-1.391,0-2.8-0.078-4.188-0.231
		c-10.017-1.107-18.952-6.05-25.158-13.918c-6.233-7.901-8.971-17.8-7.707-27.872l13.697-126.251
		c2.415-19.231,18.763-33.699,38.034-33.699c1.392,0,2.801,0.077,4.19,0.231c10.011,1.102,18.944,6.041,25.152,13.909
		c6.238,7.905,8.976,17.808,7.709,27.883l-13.696,126.252C887.635,939.841,871.288,954.309,852.013,954.309z M866.688,757.676
		c-16.585,0-30.656,12.459-32.73,28.981l-13.697,126.25c-1.089,8.687,1.255,17.175,6.596,23.945
		c5.314,6.736,12.969,10.969,21.553,11.918c1.193,0.132,2.405,0.198,3.602,0.198c16.589,0.002,30.66-12.456,32.729-28.977
		l13.696-126.253c1.092-8.689-1.252-17.181-6.597-23.954c-5.315-6.736-12.967-10.966-21.546-11.91
		C869.097,757.743,867.884,757.676,866.688,757.676z"/>
</g>
<g>
	<g>
		<path fill="#282827" d="M1294.145-322.675c0.898,0.898,1.336,1.845,1.171,2.533c-0.079,0.329-0.302,0.641-0.64,0.921
			c1.942-0.808,3.923-1.53,5.926-2.204c-0.253-1.757-1.159-3.504-2.678-5.023l-0.711-0.712c-2.929-2.927-7.857-4.818-12.555-4.818
			c-1.548,0-3.003,0.204-4.329,0.607c-0.915,0.28-22.513,6.892-32.384,10.764c-21.586,8.474-66.252,30.324-87.111,45.275
			c-15.284,10.957-40.865,29.296-67.058,53.312C1006.492-141.991,896.32-22.638,895.22-21.443
			c-3.977,4.305-4.906,11.718-2.119,16.872l1.408,2.619c1.553,2.88,4.147,4.67,7.035,4.938c0.096-1.773,0.189-3.547,0.311-5.319
			c-1.048-0.162-1.976-0.911-2.645-2.15l-1.41-2.622c-1.683-3.112-1.056-8.119,1.343-10.716
			c1.101-1.195,111.124-120.386,198.242-200.262c25.955-23.8,51.373-42.021,66.56-52.908c20.528-14.715,64.618-36.27,85.95-44.645
			c9.679-3.797,31.772-10.56,31.99-10.627c0.818-0.249,1.751-0.375,2.772-0.375c3.303,0,6.832,1.309,8.777,3.253L1294.145-322.675z"
			/>
	</g>
</g>
<g>
	<g>
		<path fill="#282827" d="M2.04,972.858c-0.599,0-1.337-0.377-2.051-1.041l-0.878-0.878c-2.612-2.612-3.958-8.006-2.881-11.541
			c0.068-0.222,6.833-22.319,10.629-31.999c8.371-21.326,29.924-65.41,44.644-85.948c10.87-15.169,29.062-40.558,52.904-66.56
			c79.875-87.116,199.064-197.138,200.26-198.24c1.56-1.44,4.01-2.3,6.556-2.3c1.57,0,3.01,0.33,4.167,0.955l2.613,1.412
			c1.238,0.667,2.005,1.615,2.16,2.671c0.108,0.737-0.09,1.508-0.552,2.246c1.862,0.182,3.727,0.311,5.593,0.401
			c0.313-1.122,0.41-2.279,0.242-3.423c-0.4-2.728-2.191-5.133-4.908-6.595l-2.609-1.41c-1.933-1.045-4.252-1.597-6.705-1.597
			c-3.91,0-7.62,1.354-10.176,3.714C299.851,573.829,180.499,684,100.471,771.282c-24.059,26.24-42.368,51.792-53.308,67.059
			c-14.956,20.868-36.804,65.529-45.274,87.108c-3.872,9.872-10.485,31.474-10.766,32.391c-1.568,5.146,0.001,12.056,3.577,16.191
			l-0.018,0.035l1.359,1.36c1.812,1.813,3.886,2.771,5.999,2.771c0.717,0,1.4-0.125,2.05-0.333c-0.379-1.86-0.676-3.736-0.864-5.635
			C2.916,972.588,2.527,972.858,2.04,972.858z"/>
	</g>
</g>
</svg>
