<?xml version="1.0" encoding="utf-8"?>
<!-- Generator: Adobe Illustrator 22.1.0, SVG Export Plug-In . SVG Version: 6.00 Build 0)  -->
<svg version="1.1" id="Layer_1" xmlns="http://www.w3.org/2000/svg" xmlns:xlink="http://www.w3.org/1999/xlink" x="0px" y="0px"
	 viewBox="0 0 1920 1200" style="enable-background:new 0 0 1920 1200;" xml:space="preserve">
<style type="text/css">
	.st0{fill:#1ffb8f;}
	.st1{fill:none;}
</style>
<g>
	<path class="st0" d="M1965.65503,140.76071c65.61389,0,118.99487,53.37996,118.99487,118.99289v1793.26221
		c0,65.61401-53.38098,118.99487-118.99487,118.99487H172.39468c-65.61392,0-118.99484-53.38086-118.99484-118.99487V259.75363
		c0-65.61296,53.38092-118.99292,118.99484-118.99292H1965.65503 M365.64685,830.18707
		c-76.99088,127.6012-117.59247,273.61493-117.59247,423.55975c0,452.68433,368.28577,820.97021,820.97015,820.97021
		s820.97021-368.28589,820.97021-820.97021s-368.28552-820.97003-820.96985-820.97003
		c-86.57324,0-171.74603,13.41992-253.41461,39.90869L612.28314,269.35834c-53.91943-53.91977-125.60989-83.6147-201.8653-83.6147
		c-76.25507,0-147.94553,29.69493-201.8653,83.6147c-53.92075,53.92075-83.616,125.61185-83.616,201.86694
		c0,76.25543,29.69525,147.94617,83.616,201.86566L365.64685,830.18707 M1965.65503,116.38572H172.39468
		c-79.18105,0-143.36984,64.1888-143.36984,143.36792v1793.26221c0,79.18115,64.1888,143.36987,143.36984,143.36987H1965.6554
		c79.18066,0,143.36951-64.18872,143.36951-143.36987V259.75363C2109.0249,180.57452,2044.83606,116.38572,1965.65503,116.38572
		L1965.65503,116.38572z M1069.0249,2050.34204c-439.9483,0-796.59521-356.64709-796.59521-796.59509
		c0-157.16992,45.53836-303.69366,124.11069-427.1377L225.7883,655.85516c-101.96908-101.9671-101.96908-267.29202,0-369.26111
		c50.98373-50.98372,117.80664-76.47542,184.62958-76.47542s133.64621,25.4917,184.62961,76.47542L809.04077,500.5874
		c81.48596-28.12387,168.94281-43.43561,259.98413-43.43561c439.94824,0,796.59509,356.64691,796.59509,796.59515
		S1508.97314,2050.34204,1069.0249,2050.34204L1069.0249,2050.34204z"/>
</g>
<g>
	<path class="st0" d="M409.62064,304.50546c91.49008,0,165.92288,74.4328,165.92288,165.92288
		s-74.4328,165.92291-165.92288,165.92291c-91.49042,0-165.92322-74.4328-165.92322-165.92291
		S318.13022,304.50546,409.62064,304.50546 M409.62064,280.13046c-105.09885,0-190.29822,85.1994-190.29822,190.29788
		s85.19937,190.29791,190.29822,190.29791c105.09848,0,190.29788-85.1994,190.29788-190.29791
		S514.71912,280.13046,409.62064,280.13046L409.62064,280.13046z"/>
</g>
<g>
	<g>
		<path class="st0" d="M1073.45032,751.4848c279.38953,0,506.6897,227.29913,506.6897,506.68768
			c0,279.38953-227.2998,506.6897-506.6897,506.6897s-506.68958-227.30017-506.68958-506.6897
			C566.76074,978.78394,794.06085,751.4848,1073.45032,751.4848 M1073.45032,1711.82373
			c250.14404,0,453.65125-203.5072,453.65125-453.65125s-203.5072-453.65125-453.65125-453.65125
			s-453.65125,203.5072-453.65125,453.65125S823.30634,1711.82373,1073.45032,1711.82373 M1073.45032,727.1098
			c-293.2995,0-531.06458,237.76508-531.06458,531.06256c0,293.29956,237.76508,531.0647,531.06458,531.0647
			s531.0647-237.76501,531.0647-531.06458C1604.51501,964.87494,1366.74988,727.1098,1073.45032,727.1098L1073.45032,727.1098z
			 M1073.45032,1687.44873c-237.08295,0-429.27625-192.19324-429.27625-429.27625s192.1933-429.27625,429.27625-429.27625
			s429.27625,192.1933,429.27625,429.27625S1310.53333,1687.44873,1073.45032,1687.44873L1073.45032,1687.44873z"/>
	</g>
</g>
<g>
	<circle class="st1" cx="1073.45032" cy="1258.1731" r="725.78705"/>
	<g>
		<path class="st0" d="M1073.45032,2001.66235c-13.23975,0-26.64832-0.35425-39.85339-1.05017l1.86707-35.35669
			c25.40784,1.34192,51.28894,1.32898,76.68408-0.03662l1.90161,35.35217
			C1100.60217,2001.29504,1086.94312,2001.66235,1073.45032,2001.66235z M953.58295,1992.04626
			c-26.42999-4.28284-52.88831-10.06531-78.63733-17.18347l9.43445-34.125c24.51343,6.77661,49.70288,12.28271,74.86896,16.36243
			L953.58295,1992.04626z M1194.0592,1991.92761l-5.70471-34.94177c25.16565-4.10803,50.34888-9.63757,74.85364-16.43787
			l9.4646,34.11621C1246.9364,1981.80579,1220.48682,1987.61414,1194.0592,1991.92761z M798.61993,1949.20862
			c-24.84167-9.88623-49.42859-21.26123-73.07947-33.8053l16.59155-31.27698c22.51892,11.94531,45.92773,22.776,69.57892,32.18884
			L798.61993,1949.20862z M1348.94824,1948.94043l-13.12085-32.8844c23.62292-9.42371,47.01672-20.2738,69.53369-32.24524
			l16.62183,31.25977C1398.33374,1927.64478,1373.75977,1939.04126,1348.94824,1948.94043z M656.57092,1873.87939
			c-22.11041-14.99866-43.66956-31.38916-64.07727-48.71326l22.91412-26.98962
			c19.43958,16.50513,39.97656,32.11755,61.03918,46.40552L656.57092,1873.87939z M1490.88525,1873.50574l-19.90625-29.28015
			c21.06458-14.31824,41.58008-29.9458,60.98083-46.44873l22.94006,26.9679
			C1534.53113,1842.06873,1512.99561,1858.47449,1490.88525,1873.50574z M534.0368,1769.85144
			c-18.41095-19.40051-35.96384-40.01782-52.17062-61.27441l28.15213-21.46667
			c15.44171,20.24988,32.16296,39.88831,49.69867,58.37036L534.0368,1769.85144z M1613.3092,1769.38025l-25.70618-24.34473
			c17.53345-18.51233,34.2417-38.17029,49.65784-58.42236l28.16931,21.44055
			C1649.24939,1729.31494,1631.71558,1749.94946,1613.3092,1769.38025z M436.6015,1642.04688
			c-13.832-22.89697-26.55316-46.79443-37.8092-71.02881l32.10675-14.91443c10.72012,23.07629,22.83643,45.83276,36.00708,67.63831
			L436.6015,1642.04688z M1710.65344,1641.46118l-30.32178-18.27698c13.1687-21.84448,25.26514-44.62708,35.9574-67.70996
			l32.12817,14.87988C1737.18518,1594.59753,1724.48315,1618.52332,1710.65344,1641.46118z M368.90689,1496.27234
			c-8.55722-25.32568-15.81122-51.4209-21.56567-77.55713l34.57446-7.61047c5.48016,24.88269,12.38837,49.72437,20.53287,73.83582
			L368.90689,1496.27234z M1778.22913,1495.55896l-33.55432-11.29736c8.125-24.13281,15.00952-48.99207,20.46362-73.8855
			l34.58301,7.57605C1793.99524,1444.09949,1786.76489,1470.20959,1778.22913,1495.55896z M334.33701,1339.29126
			c-2.87399-26.48401-4.34784-53.5127-4.37808-80.33386l35.40421-0.03906c0.02795,25.56128,1.43259,51.31726,4.17038,76.55212
			L334.33701,1339.29126z M1812.65247,1338.50891l-35.2052-3.7771c2.71411-25.26514,4.0885-51.02344,4.0885-76.55872v-1.52551
			h35.40417v1.52551C1816.93994,1284.96619,1815.49622,1311.9967,1812.65247,1338.50891z M369.37589,1182.35962l-35.20529-3.74683
			c2.83301-26.6311,7.15488-53.36365,12.84009-79.45435l34.59171,7.53711
			C376.18921,1131.53979,372.07504,1156.99744,369.37589,1182.35962z M1777.28271,1180.13635
			c-2.77905-25.36267-6.97095-50.80493-12.45996-75.62292l34.5658-7.64539c5.76514,26.06274,10.16919,52.78003,13.0907,79.40894
			L1777.28271,1180.13635z M401.9841,1032.79041l-33.56763-11.2583c8.50525-25.35394,18.51038-50.5307,29.73846-74.83417
			l32.1412,14.84955C419.60626,984.68463,410.08084,1008.65533,401.9841,1032.79041z M1744.2124,1030.703
			c-8.17249-24.10693-17.77136-48.0412-28.52808-71.13696l32.09363-14.94904c11.29736,24.26056,21.37988,49.39838,29.96313,74.71979
			L1744.2124,1030.703z M466.18234,893.80133l-30.33905-18.24677c13.77347-22.9057,28.96463-45.32709,45.15225-66.64221
			l28.19537,21.41461C493.77255,850.62866,479.30096,871.98474,466.18234,893.80133z M1679.60559,891.96674
			c-13.18579-21.77765-27.7157-43.08398-43.18335-63.32306l28.13489-21.49677
			c16.23694,21.24817,31.48853,43.61792,45.33594,66.48236L1679.60559,891.96674z M558.78552,771.85291l-25.72766-24.31879
			c18.37195-19.43958,38.00391-38.08807,58.35083-55.42944l22.96613,26.94641
			C594.99152,735.57117,576.28906,753.336,558.78552,771.85291z M1586.66504,770.32733
			c-17.55518-18.46265-36.31189-36.17346-55.74695-52.64191l22.88818-27.01135
			c20.39893,17.28735,40.08899,35.87738,58.51294,55.25647L1586.66504,770.32733z M675.3017,672.54193l-19.93231-29.25848
			c22.10162-15.05725,45.26666-29.06635,68.85291-41.64062l16.65625,31.24225
			C718.41382,644.86078,696.35089,658.20233,675.3017,672.54193z M1469.83374,671.34467
			c-21.10364-14.28796-43.21814-27.56879-65.7218-39.47546l16.55261-31.29425c23.63599,12.50311,46.85266,26.44946,69.01501,41.4505
			L1469.83374,671.34467z M810.3775,600.56451l-13.15991-32.86725c24.84625-9.95081,50.50244-18.63123,76.25409-25.80334
			l9.49939,34.10779C858.45544,582.8277,834.03296,591.09113,810.3775,600.56451z M1334.50049,599.75403
			c-23.69214-9.40002-48.14917-17.58966-72.69727-24.34705l9.39575-34.13379c25.78381,7.09637,51.47253,15.69879,76.35327,25.57001
			L1334.50049,599.75403z M957.80951,559.48358l-5.73724-34.9375c26.32855-4.32416,53.24243-7.2605,79.99451-8.72791
			l1.94055,35.35254C1008.52148,552.56854,982.88684,555.36481,957.80951,559.48358z M1186.91504,559.12708
			c-25.09229-4.03882-50.73792-6.75708-76.22351-8.07758l1.83264-35.35675c26.7478,1.38513,53.67236,4.23962,80.01831,8.47925
			L1186.91504,559.12708z"/>
	</g>
</g>
<g>
	<path class="st0" d="M1157.33716,1055.83044c18.73938,0,36.20142,10.08142,45.57117,26.3103l83.88672,145.29578
		c9.36975,16.229,9.36975,36.39258,0,52.62146l-83.88672,145.29578c-9.36975,16.22913-26.83167,26.31067-45.57117,26.31067
		h-167.7735c-18.7395,0-36.20111-10.08191-45.57117-26.31067l-83.88672-145.2959c-9.36975-16.22888-9.36975-36.39246,0-52.62146
		l83.88635-145.29541c9.37006-16.22925,26.83197-26.31079,45.57153-26.31079h167.7735 M1157.33716,1031.45544h-167.7735
		c-27.508,0-52.92627,14.67529-66.6806,38.4978l-83.88635,145.29578c-13.75403,23.82288-13.75403,53.17358,0,76.99646
		l83.88635,145.29578c13.75433,23.82275,39.17261,38.49817,66.6806,38.49817h167.7735
		c27.50793,0,52.92651-14.67542,66.68042-38.49817l83.88647-145.2959c13.75391-23.82275,13.75391-53.17346,0-76.99646
		l-83.88647-145.29578C1210.26367,1046.13074,1184.84509,1031.45544,1157.33716,1031.45544L1157.33716,1031.45544z"/>
</g>
</svg>
